<?xml version="1.0" encoding="UTF-8" standalone="no"?>
<!DOCTYPE svg PUBLIC "-//W3C//DTD SVG 1.1//EN"
 "http://www.w3.org/Graphics/SVG/1.1/DTD/svg11.dtd">
<!-- Generated by graphviz version 2.43.0 (0)
 -->
<!-- Title: src/RunCLI.cpp Pages: 1 -->
<svg width="2759pt" height="196pt"
 viewBox="0.00 0.00 2759.00 196.00" xmlns="http://www.w3.org/2000/svg" xmlns:xlink="http://www.w3.org/1999/xlink">
<g id="graph0" class="graph" transform="scale(1 1) rotate(0) translate(4 192)">
<title>src/RunCLI.cpp</title>
<polygon fill="white" stroke="transparent" points="-4,4 -4,-192 2755,-192 2755,4 -4,4"/>
<!-- Node1 -->
<g id="node1" class="node">
<title>Node1</title>
<g id="a_node1"><a xlink:title=" ">
<polygon fill="#bfbfbf" stroke="black" points="969,-168.5 969,-187.5 1057,-187.5 1057,-168.5 969,-168.5"/>
<text text-anchor="middle" x="1013" y="-175.5" font-family="Helvetica,sans-Serif" font-size="10.00">src/RunCLI.cpp</text>
</a>
</g>
</g>
<!-- Node2 -->
<g id="node2" class="node">
<title>Node2</title>
<g id="a_node2"><a xlink:title=" ">
<polygon fill="white" stroke="#bfbfbf" points="534,-0.5 534,-19.5 578,-19.5 578,-0.5 534,-0.5"/>
<text text-anchor="middle" x="556" y="-7.5" font-family="Helvetica,sans-Serif" font-size="10.00">string</text>
</a>
</g>
</g>
<!-- Node1&#45;&gt;Node2 -->
<g id="edge1" class="edge">
<title>Node1&#45;&gt;Node2</title>
<path fill="none" stroke="midnightblue" d="M968.83,-174.46C813.83,-165.1 301.51,-130.25 254,-76 248.14,-69.31 248.2,-62.73 254,-56 262.78,-45.81 447.45,-23.5 523.6,-14.68"/>
<polygon fill="midnightblue" stroke="midnightblue" points="524.07,-18.15 533.6,-13.53 523.27,-11.2 524.07,-18.15"/>
</g>
<!-- Node3 -->
<g id="node3" class="node">
<title>Node3</title>
<g id="a_node3"><a xlink:title=" ">
<polygon fill="white" stroke="#bfbfbf" points="0,-0.5 0,-19.5 48,-19.5 48,-0.5 0,-0.5"/>
<text text-anchor="middle" x="24" y="-7.5" font-family="Helvetica,sans-Serif" font-size="10.00">thread</text>
</a>
</g>
</g>
<!-- Node1&#45;&gt;Node3 -->
<g id="edge2" class="edge">
<title>Node1&#45;&gt;Node3</title>
<path fill="none" stroke="midnightblue" d="M968.65,-175.51C863.17,-171.61 589.19,-159.47 362,-132 217.36,-114.51 144.82,-176.14 39,-76 26.65,-64.32 23.53,-44.67 23.12,-30.02"/>
<polygon fill="midnightblue" stroke="midnightblue" points="26.62,-29.64 23.24,-19.6 19.62,-29.56 26.62,-29.64"/>
</g>
<!-- Node4 -->
<g id="node4" class="node">
<title>Node4</title>
<g id="a_node4"><a xlink:href="../../de/dfc/Ricom_8h.html" target="_top" xlink:title=" ">
<polygon fill="white" stroke="black" points="985,-112.5 985,-131.5 1041,-131.5 1041,-112.5 985,-112.5"/>
<text text-anchor="middle" x="1013" y="-119.5" font-family="Helvetica,sans-Serif" font-size="10.00">Ricom.h</text>
</a>
</g>
</g>
<!-- Node1&#45;&gt;Node4 -->
<g id="edge3" class="edge">
<title>Node1&#45;&gt;Node4</title>
<path fill="none" stroke="midnightblue" d="M1013,-168.08C1013,-161.01 1013,-150.86 1013,-141.99"/>
<polygon fill="midnightblue" stroke="midnightblue" points="1016.5,-141.75 1013,-131.75 1009.5,-141.75 1016.5,-141.75"/>
</g>
<!-- Node36 -->
<g id="node36" class="node">
<title>Node36</title>
<g id="a_node36"><a xlink:href="../../dc/dd0/SdlImageWindow_8h.html" target="_top" xlink:title=" ">
<polygon fill="white" stroke="black" points="1546,-112.5 1546,-131.5 1656,-131.5 1656,-112.5 1546,-112.5"/>
<text text-anchor="middle" x="1601" y="-119.5" font-family="Helvetica,sans-Serif" font-size="10.00">SdlImageWindow.h</text>
</a>
</g>
</g>
<!-- Node1&#45;&gt;Node36 -->
<g id="edge49" class="edge">
<title>Node1&#45;&gt;Node36</title>
<path fill="none" stroke="midnightblue" d="M1057.2,-172.94C1159.84,-163.52 1414.76,-140.1 1535.54,-129.01"/>
<polygon fill="midnightblue" stroke="midnightblue" points="1536.12,-132.47 1545.75,-128.07 1535.48,-125.5 1536.12,-132.47"/>
</g>
<!-- Node39 -->
<g id="node39" class="node">
<title>Node39</title>
<g id="a_node39"><a xlink:href="../../d7/db2/GuiUtils_8h.html" target="_top" xlink:title=" ">
<polygon fill="white" stroke="black" points="1951.5,-112.5 1951.5,-131.5 2016.5,-131.5 2016.5,-112.5 1951.5,-112.5"/>
<text text-anchor="middle" x="1984" y="-119.5" font-family="Helvetica,sans-Serif" font-size="10.00">GuiUtils.h</text>
</a>
</g>
</g>
<!-- Node1&#45;&gt;Node39 -->
<g id="edge54" class="edge">
<title>Node1&#45;&gt;Node39</title>
<path fill="none" stroke="midnightblue" d="M1057.25,-174.54C1219.54,-165.51 1781.03,-134.29 1941.1,-125.39"/>
<polygon fill="midnightblue" stroke="midnightblue" points="1941.7,-128.86 1951.49,-124.81 1941.31,-121.87 1941.7,-128.86"/>
</g>
<!-- Node4&#45;&gt;Node2 -->
<g id="edge10" class="edge">
<title>Node4&#45;&gt;Node2</title>
<path fill="none" stroke="midnightblue" d="M984.85,-119.78C928.79,-116.74 799.66,-106.73 696,-76 675.79,-70.01 672.12,-64.88 653,-56 629.67,-45.16 603.17,-32.87 583.77,-23.88"/>
<polygon fill="midnightblue" stroke="midnightblue" points="585.14,-20.65 574.6,-19.62 582.2,-27 585.14,-20.65"/>
</g>
<!-- Node4&#45;&gt;Node3 -->
<g id="edge14" class="edge">
<title>Node4&#45;&gt;Node3</title>
<path fill="none" stroke="midnightblue" d="M984.74,-121.25C835.49,-122.37 142.68,-124.86 62,-76 45.09,-65.76 34.89,-44.92 29.38,-29.59"/>
<polygon fill="midnightblue" stroke="midnightblue" points="32.57,-28.07 26.17,-19.63 25.91,-30.22 32.57,-28.07"/>
</g>
<!-- Node5 -->
<g id="node5" class="node">
<title>Node5</title>
<g id="a_node5"><a xlink:title=" ">
<polygon fill="white" stroke="#bfbfbf" points="883,-0.5 883,-19.5 939,-19.5 939,-0.5 883,-0.5"/>
<text text-anchor="middle" x="911" y="-7.5" font-family="Helvetica,sans-Serif" font-size="10.00">unistd.h</text>
</a>
</g>
</g>
<!-- Node4&#45;&gt;Node5 -->
<g id="edge4" class="edge">
<title>Node4&#45;&gt;Node5</title>
<path fill="none" stroke="midnightblue" d="M1041.25,-120.16C1099.69,-117.78 1230.67,-108.81 1258,-76 1263.69,-69.17 1263.91,-62.64 1258,-56 1213.77,-6.33 1032.06,-30.06 949.27,-19.76"/>
<polygon fill="midnightblue" stroke="midnightblue" points="949.62,-16.27 939.21,-18.24 948.57,-23.19 949.62,-16.27"/>
</g>
<!-- Node6 -->
<g id="node6" class="node">
<title>Node6</title>
<g id="a_node6"><a xlink:title=" ">
<polygon fill="white" stroke="#bfbfbf" points="817.5,-0.5 817.5,-19.5 864.5,-19.5 864.5,-0.5 817.5,-0.5"/>
<text text-anchor="middle" x="841" y="-7.5" font-family="Helvetica,sans-Serif" font-size="10.00">cmath</text>
</a>
</g>
</g>
<!-- Node4&#45;&gt;Node6 -->
<g id="edge5" class="edge">
<title>Node4&#45;&gt;Node6</title>
<path fill="none" stroke="midnightblue" d="M984.96,-120.51C950.81,-118.38 893.55,-109.6 860,-76 847.94,-63.92 843.45,-44.63 841.82,-30.2"/>
<polygon fill="midnightblue" stroke="midnightblue" points="845.28,-29.61 841.04,-19.9 838.3,-30.14 845.28,-29.61"/>
</g>
<!-- Node7 -->
<g id="node7" class="node">
<title>Node7</title>
<g id="a_node7"><a xlink:title=" ">
<polygon fill="white" stroke="#bfbfbf" points="1641,-56.5 1641,-75.5 1691,-75.5 1691,-56.5 1641,-56.5"/>
<text text-anchor="middle" x="1666" y="-63.5" font-family="Helvetica,sans-Serif" font-size="10.00">stdio.h</text>
</a>
</g>
</g>
<!-- Node4&#45;&gt;Node7 -->
<g id="edge6" class="edge">
<title>Node4&#45;&gt;Node7</title>
<path fill="none" stroke="midnightblue" d="M1041.29,-120.81C1128.15,-119.84 1398.63,-113.89 1630.88,-75.87"/>
<polygon fill="midnightblue" stroke="midnightblue" points="1631.57,-79.3 1640.86,-74.21 1630.42,-72.4 1631.57,-79.3"/>
</g>
<!-- Node8 -->
<g id="node8" class="node">
<title>Node8</title>
<g id="a_node8"><a xlink:title=" ">
<polygon fill="white" stroke="#bfbfbf" points="1501.5,-56.5 1501.5,-75.5 1560.5,-75.5 1560.5,-56.5 1501.5,-56.5"/>
<text text-anchor="middle" x="1531" y="-63.5" font-family="Helvetica,sans-Serif" font-size="10.00">complex</text>
</a>
</g>
</g>
<!-- Node4&#45;&gt;Node8 -->
<g id="edge7" class="edge">
<title>Node4&#45;&gt;Node8</title>
<path fill="none" stroke="midnightblue" d="M1041.18,-119.38C1114.78,-114.93 1318.79,-101.11 1487,-76 1488.45,-75.78 1489.92,-75.55 1491.4,-75.31"/>
<polygon fill="midnightblue" stroke="midnightblue" points="1492.03,-78.75 1501.25,-73.53 1490.79,-71.86 1492.03,-78.75"/>
</g>
<!-- Node9 -->
<g id="node9" class="node">
<title>Node9</title>
<g id="a_node9"><a xlink:title=" ">
<polygon fill="white" stroke="#bfbfbf" points="991,-56.5 991,-75.5 1035,-75.5 1035,-56.5 991,-56.5"/>
<text text-anchor="middle" x="1013" y="-63.5" font-family="Helvetica,sans-Serif" font-size="10.00">cfloat</text>
</a>
</g>
</g>
<!-- Node4&#45;&gt;Node9 -->
<g id="edge8" class="edge">
<title>Node4&#45;&gt;Node9</title>
<path fill="none" stroke="midnightblue" d="M1013,-112.08C1013,-105.01 1013,-94.86 1013,-85.99"/>
<polygon fill="midnightblue" stroke="midnightblue" points="1016.5,-85.75 1013,-75.75 1009.5,-85.75 1016.5,-85.75"/>
</g>
<!-- Node10 -->
<g id="node10" class="node">
<title>Node10</title>
<g id="a_node10"><a xlink:title=" ">
<polygon fill="white" stroke="#bfbfbf" points="1460.5,-0.5 1460.5,-19.5 1507.5,-19.5 1507.5,-0.5 1460.5,-0.5"/>
<text text-anchor="middle" x="1484" y="-7.5" font-family="Helvetica,sans-Serif" font-size="10.00">vector</text>
</a>
</g>
</g>
<!-- Node4&#45;&gt;Node10 -->
<g id="edge9" class="edge">
<title>Node4&#45;&gt;Node10</title>
<path fill="none" stroke="midnightblue" d="M1041.04,-119.74C1132.83,-115.4 1420.37,-100.01 1454,-76 1469.14,-65.19 1476.83,-44.8 1480.61,-29.73"/>
<polygon fill="midnightblue" stroke="midnightblue" points="1484.04,-30.42 1482.72,-19.91 1477.2,-28.95 1484.04,-30.42"/>
</g>
<!-- Node11 -->
<g id="node11" class="node">
<title>Node11</title>
<g id="a_node11"><a xlink:title=" ">
<polygon fill="white" stroke="#bfbfbf" points="1579,-56.5 1579,-75.5 1623,-75.5 1623,-56.5 1579,-56.5"/>
<text text-anchor="middle" x="1601" y="-63.5" font-family="Helvetica,sans-Serif" font-size="10.00">SDL.h</text>
</a>
</g>
</g>
<!-- Node4&#45;&gt;Node11 -->
<g id="edge11" class="edge">
<title>Node4&#45;&gt;Node11</title>
<path fill="none" stroke="midnightblue" d="M1041.08,-120.73C1121.85,-119.52 1361.72,-113.01 1568.64,-75.88"/>
<polygon fill="midnightblue" stroke="midnightblue" points="1569.57,-79.27 1578.78,-74.03 1568.31,-72.38 1569.57,-79.27"/>
</g>
<!-- Node12 -->
<g id="node12" class="node">
<title>Node12</title>
<g id="a_node12"><a xlink:title=" ">
<polygon fill="white" stroke="#bfbfbf" points="404,-0.5 404,-19.5 452,-19.5 452,-0.5 404,-0.5"/>
<text text-anchor="middle" x="428" y="-7.5" font-family="Helvetica,sans-Serif" font-size="10.00">mutex</text>
</a>
</g>
</g>
<!-- Node4&#45;&gt;Node12 -->
<g id="edge12" class="edge">
<title>Node4&#45;&gt;Node12</title>
<path fill="none" stroke="midnightblue" d="M984.59,-121.31C922.61,-121.15 771.36,-116.28 653,-76 636.4,-70.35 635.27,-62.53 619,-56 566.4,-34.9 501.51,-22.22 462.51,-15.93"/>
<polygon fill="midnightblue" stroke="midnightblue" points="462.65,-12.41 452.23,-14.32 461.57,-19.32 462.65,-12.41"/>
</g>
<!-- Node13 -->
<g id="node13" class="node">
<title>Node13</title>
<g id="a_node13"><a xlink:title=" ">
<polygon fill="white" stroke="#bfbfbf" points="1053,-56.5 1053,-75.5 1099,-75.5 1099,-56.5 1053,-56.5"/>
<text text-anchor="middle" x="1076" y="-63.5" font-family="Helvetica,sans-Serif" font-size="10.00">future</text>
</a>
</g>
</g>
<!-- Node4&#45;&gt;Node13 -->
<g id="edge13" class="edge">
<title>Node4&#45;&gt;Node13</title>
<path fill="none" stroke="midnightblue" d="M1023.12,-112.32C1032.53,-104.26 1046.74,-92.08 1058.07,-82.37"/>
<polygon fill="midnightblue" stroke="midnightblue" points="1060.38,-85 1065.69,-75.83 1055.82,-79.68 1060.38,-85"/>
</g>
<!-- Node14 -->
<g id="node14" class="node">
<title>Node14</title>
<g id="a_node14"><a xlink:title=" ">
<polygon fill="white" stroke="#bfbfbf" points="1117,-56.5 1117,-75.5 1167,-75.5 1167,-56.5 1117,-56.5"/>
<text text-anchor="middle" x="1142" y="-63.5" font-family="Helvetica,sans-Serif" font-size="10.00">fftw3.h</text>
</a>
</g>
</g>
<!-- Node4&#45;&gt;Node14 -->
<g id="edge15" class="edge">
<title>Node4&#45;&gt;Node14</title>
<path fill="none" stroke="midnightblue" d="M1033.44,-112.44C1054.67,-103.56 1088.1,-89.56 1112.25,-79.45"/>
<polygon fill="midnightblue" stroke="midnightblue" points="1113.78,-82.61 1121.66,-75.52 1111.08,-76.15 1113.78,-82.61"/>
</g>
<!-- Node15 -->
<g id="node15" class="node">
<title>Node15</title>
<g id="a_node15"><a xlink:title=" ">
<polygon fill="white" stroke="#bfbfbf" points="1261,-0.5 1261,-19.5 1311,-19.5 1311,-0.5 1261,-0.5"/>
<text text-anchor="middle" x="1286" y="-7.5" font-family="Helvetica,sans-Serif" font-size="10.00">chrono</text>
</a>
</g>
</g>
<!-- Node4&#45;&gt;Node15 -->
<g id="edge16" class="edge">
<title>Node4&#45;&gt;Node15</title>
<path fill="none" stroke="midnightblue" d="M1041.36,-120.14C1102.24,-117.67 1242.57,-108.51 1275,-76 1286.86,-64.11 1288.74,-44.49 1288.18,-29.91"/>
<polygon fill="midnightblue" stroke="midnightblue" points="1291.64,-29.23 1287.35,-19.54 1284.66,-29.79 1291.64,-29.23"/>
</g>
<!-- Node16 -->
<g id="node16" class="node">
<title>Node16</title>
<g id="a_node16"><a xlink:title=" ">
<polygon fill="white" stroke="#bfbfbf" points="1185,-56.5 1185,-75.5 1249,-75.5 1249,-56.5 1185,-56.5"/>
<text text-anchor="middle" x="1217" y="-63.5" font-family="Helvetica,sans-Serif" font-size="10.00">algorithm</text>
</a>
</g>
</g>
<!-- Node4&#45;&gt;Node16 -->
<g id="edge17" class="edge">
<title>Node4&#45;&gt;Node16</title>
<path fill="none" stroke="midnightblue" d="M1041.37,-113.49C1076.08,-104.3 1135.17,-88.66 1175.13,-78.08"/>
<polygon fill="midnightblue" stroke="midnightblue" points="1176.07,-81.45 1184.84,-75.51 1174.28,-74.69 1176.07,-81.45"/>
</g>
<!-- Node17 -->
<g id="node17" class="node">
<title>Node17</title>
<g id="a_node17"><a xlink:href="../../d7/d50/BoundedThreadPool_8hpp.html" target="_top" xlink:title=" ">
<polygon fill="white" stroke="black" points="71.5,-56.5 71.5,-75.5 206.5,-75.5 206.5,-56.5 71.5,-56.5"/>
<text text-anchor="middle" x="139" y="-63.5" font-family="Helvetica,sans-Serif" font-size="10.00">BoundedThreadPool.hpp</text>
</a>
</g>
</g>
<!-- Node4&#45;&gt;Node17 -->
<g id="edge18" class="edge">
<title>Node4&#45;&gt;Node17</title>
<path fill="none" stroke="midnightblue" d="M984.73,-119.52C884.83,-114.24 539.11,-95.61 254,-76 242.06,-75.18 229.43,-74.25 217.07,-73.31"/>
<polygon fill="midnightblue" stroke="midnightblue" points="217.03,-69.8 206.79,-72.52 216.49,-76.78 217.03,-69.8"/>
</g>
<!-- Node23 -->
<g id="node23" class="node">
<title>Node23</title>
<g id="a_node23"><a xlink:title=" ">
<polygon fill="white" stroke="#bfbfbf" points="263,-56.5 263,-75.5 365,-75.5 365,-56.5 263,-56.5"/>
<text text-anchor="middle" x="314" y="-63.5" font-family="Helvetica,sans-Serif" font-size="10.00">tinycolormap.hpp</text>
</a>
</g>
</g>
<!-- Node4&#45;&gt;Node23 -->
<g id="edge26" class="edge">
<title>Node4&#45;&gt;Node23</title>
<path fill="none" stroke="midnightblue" d="M984.9,-119.81C896.69,-115.91 617.24,-102.29 375.08,-76.03"/>
<polygon fill="midnightblue" stroke="midnightblue" points="375.35,-72.54 365.03,-74.93 374.59,-79.5 375.35,-72.54"/>
</g>
<!-- Node24 -->
<g id="node24" class="node">
<title>Node24</title>
<g id="a_node24"><a xlink:href="../../d0/d3c/SocketConnector_8h.html" target="_top" xlink:title=" ">
<polygon fill="white" stroke="black" points="705.5,-56.5 705.5,-75.5 812.5,-75.5 812.5,-56.5 705.5,-56.5"/>
<text text-anchor="middle" x="759" y="-63.5" font-family="Helvetica,sans-Serif" font-size="10.00">SocketConnector.h</text>
</a>
</g>
</g>
<!-- Node4&#45;&gt;Node24 -->
<g id="edge27" class="edge">
<title>Node4&#45;&gt;Node24</title>
<path fill="none" stroke="midnightblue" d="M984.85,-115.01C942.5,-106.01 861.77,-88.85 809.19,-77.67"/>
<polygon fill="midnightblue" stroke="midnightblue" points="809.9,-74.24 799.39,-75.59 808.44,-81.09 809.9,-74.24"/>
</g>
<!-- Node28 -->
<g id="node28" class="node">
<title>Node28</title>
<g id="a_node28"><a xlink:href="../../da/dce/ProgressMonitor_8h.html" target="_top" xlink:title=" ">
<polygon fill="white" stroke="black" points="869,-56.5 869,-75.5 973,-75.5 973,-56.5 869,-56.5"/>
<text text-anchor="middle" x="921" y="-63.5" font-family="Helvetica,sans-Serif" font-size="10.00">ProgressMonitor.h</text>
</a>
</g>
</g>
<!-- Node4&#45;&gt;Node28 -->
<g id="edge34" class="edge">
<title>Node4&#45;&gt;Node28</title>
<path fill="none" stroke="midnightblue" d="M998.22,-112.32C983.73,-103.82 961.43,-90.73 944.51,-80.8"/>
<polygon fill="midnightblue" stroke="midnightblue" points="946.14,-77.7 935.74,-75.65 942.6,-83.74 946.14,-77.7"/>
</g>
<!-- Node31 -->
<g id="node31" class="node">
<title>Node31</title>
<g id="a_node31"><a xlink:title=" ">
<polygon fill="white" stroke="#bfbfbf" points="383,-56.5 383,-75.5 483,-75.5 483,-56.5 383,-56.5"/>
<text text-anchor="middle" x="433" y="-63.5" font-family="Helvetica,sans-Serif" font-size="10.00">MerlinInterface.h</text>
</a>
</g>
</g>
<!-- Node4&#45;&gt;Node31 -->
<g id="edge42" class="edge">
<title>Node4&#45;&gt;Node31</title>
<path fill="none" stroke="midnightblue" d="M984.98,-119.23C908.14,-114.22 687.45,-98.94 493.28,-76.08"/>
<polygon fill="midnightblue" stroke="midnightblue" points="493.52,-72.59 483.18,-74.88 492.7,-79.54 493.52,-72.59"/>
</g>
<!-- Node32 -->
<g id="node32" class="node">
<title>Node32</title>
<g id="a_node32"><a xlink:title=" ">
<polygon fill="white" stroke="#bfbfbf" points="501.5,-56.5 501.5,-75.5 610.5,-75.5 610.5,-56.5 501.5,-56.5"/>
<text text-anchor="middle" x="556" y="-63.5" font-family="Helvetica,sans-Serif" font-size="10.00">TimepixInterface.h</text>
</a>
</g>
</g>
<!-- Node4&#45;&gt;Node32 -->
<g id="edge43" class="edge">
<title>Node4&#45;&gt;Node32</title>
<path fill="none" stroke="midnightblue" d="M984.75,-117.86C920.71,-110.72 759.61,-92.58 625,-76 623.54,-75.82 622.06,-75.64 620.57,-75.45"/>
<polygon fill="midnightblue" stroke="midnightblue" points="620.96,-71.97 610.6,-74.2 620.09,-78.92 620.96,-71.97"/>
</g>
<!-- Node33 -->
<g id="node33" class="node">
<title>Node33</title>
<g id="a_node33"><a xlink:href="../../dd/de4/Camera_8h.html" target="_top" xlink:title=" ">
<polygon fill="white" stroke="black" points="1381,-56.5 1381,-75.5 1445,-75.5 1445,-56.5 1381,-56.5"/>
<text text-anchor="middle" x="1413" y="-63.5" font-family="Helvetica,sans-Serif" font-size="10.00">Camera.h</text>
</a>
</g>
</g>
<!-- Node4&#45;&gt;Node33 -->
<g id="edge44" class="edge">
<title>Node4&#45;&gt;Node33</title>
<path fill="none" stroke="midnightblue" d="M1041.13,-117.2C1110.28,-107.87 1288.9,-83.75 1370.82,-72.69"/>
<polygon fill="midnightblue" stroke="midnightblue" points="1371.34,-76.16 1380.78,-71.35 1370.41,-69.22 1371.34,-76.16"/>
</g>
<!-- Node17&#45;&gt;Node3 -->
<g id="edge19" class="edge">
<title>Node17&#45;&gt;Node3</title>
<path fill="none" stroke="midnightblue" d="M120.78,-56.44C102.1,-47.68 72.84,-33.94 51.38,-23.86"/>
<polygon fill="midnightblue" stroke="midnightblue" points="52.68,-20.6 42.14,-19.52 49.7,-26.93 52.68,-20.6"/>
</g>
<!-- Node17&#45;&gt;Node12 -->
<g id="edge22" class="edge">
<title>Node17&#45;&gt;Node12</title>
<path fill="none" stroke="midnightblue" d="M184.79,-56.44C242.86,-45.59 341.68,-27.13 393.68,-17.41"/>
<polygon fill="midnightblue" stroke="midnightblue" points="394.54,-20.81 403.73,-15.54 393.25,-13.93 394.54,-20.81"/>
</g>
<!-- Node18 -->
<g id="node18" class="node">
<title>Node18</title>
<g id="a_node18"><a xlink:title=" ">
<polygon fill="white" stroke="#bfbfbf" points="66.5,-0.5 66.5,-19.5 113.5,-19.5 113.5,-0.5 66.5,-0.5"/>
<text text-anchor="middle" x="90" y="-7.5" font-family="Helvetica,sans-Serif" font-size="10.00">queue</text>
</a>
</g>
</g>
<!-- Node17&#45;&gt;Node18 -->
<g id="edge20" class="edge">
<title>Node17&#45;&gt;Node18</title>
<path fill="none" stroke="midnightblue" d="M130.91,-56.08C123.84,-48.3 113.41,-36.8 104.85,-27.37"/>
<polygon fill="midnightblue" stroke="midnightblue" points="107.25,-24.8 97.94,-19.75 102.07,-29.51 107.25,-24.8"/>
</g>
<!-- Node19 -->
<g id="node19" class="node">
<title>Node19</title>
<g id="a_node19"><a xlink:title=" ">
<polygon fill="white" stroke="#bfbfbf" points="131.5,-0.5 131.5,-19.5 196.5,-19.5 196.5,-0.5 131.5,-0.5"/>
<text text-anchor="middle" x="164" y="-7.5" font-family="Helvetica,sans-Serif" font-size="10.00">functional</text>
</a>
</g>
</g>
<!-- Node17&#45;&gt;Node19 -->
<g id="edge21" class="edge">
<title>Node17&#45;&gt;Node19</title>
<path fill="none" stroke="midnightblue" d="M143.13,-56.08C146.51,-48.77 151.42,-38.18 155.62,-29.1"/>
<polygon fill="midnightblue" stroke="midnightblue" points="158.92,-30.3 159.95,-19.75 152.57,-27.36 158.92,-30.3"/>
</g>
<!-- Node20 -->
<g id="node20" class="node">
<title>Node20</title>
<g id="a_node20"><a xlink:title=" ">
<polygon fill="white" stroke="#bfbfbf" points="214.5,-0.5 214.5,-19.5 321.5,-19.5 321.5,-0.5 214.5,-0.5"/>
<text text-anchor="middle" x="268" y="-7.5" font-family="Helvetica,sans-Serif" font-size="10.00">condition_variable</text>
</a>
</g>
</g>
<!-- Node17&#45;&gt;Node20 -->
<g id="edge23" class="edge">
<title>Node17&#45;&gt;Node20</title>
<path fill="none" stroke="midnightblue" d="M159.44,-56.44C180.67,-47.56 214.1,-33.56 238.25,-23.45"/>
<polygon fill="midnightblue" stroke="midnightblue" points="239.78,-26.61 247.66,-19.52 237.08,-20.15 239.78,-26.61"/>
</g>
<!-- Node21 -->
<g id="node21" class="node">
<title>Node21</title>
<g id="a_node21"><a xlink:title=" ">
<polygon fill="white" stroke="#bfbfbf" points="1115,-0.5 1115,-19.5 1165,-19.5 1165,-0.5 1115,-0.5"/>
<text text-anchor="middle" x="1140" y="-7.5" font-family="Helvetica,sans-Serif" font-size="10.00">atomic</text>
</a>
</g>
</g>
<!-- Node17&#45;&gt;Node21 -->
<g id="edge24" class="edge">
<title>Node17&#45;&gt;Node21</title>
<path fill="none" stroke="midnightblue" d="M206.77,-59.29C222.29,-58.1 238.71,-56.92 254,-56 628.99,-33.41 729.52,-76.06 1104.83,-19.82"/>
<polygon fill="midnightblue" stroke="midnightblue" points="1105.51,-23.26 1114.88,-18.3 1104.47,-16.33 1105.51,-23.26"/>
</g>
<!-- Node22 -->
<g id="node22" class="node">
<title>Node22</title>
<g id="a_node22"><a xlink:title=" ">
<polygon fill="white" stroke="#bfbfbf" points="1183,-0.5 1183,-19.5 1243,-19.5 1243,-0.5 1183,-0.5"/>
<text text-anchor="middle" x="1213" y="-7.5" font-family="Helvetica,sans-Serif" font-size="10.00">iostream</text>
</a>
</g>
</g>
<!-- Node17&#45;&gt;Node22 -->
<g id="edge25" class="edge">
<title>Node17&#45;&gt;Node22</title>
<path fill="none" stroke="midnightblue" d="M206.77,-59.25C222.28,-58.06 238.71,-56.9 254,-56 659.21,-32.23 766.68,-73.57 1172.91,-19.87"/>
<polygon fill="midnightblue" stroke="midnightblue" points="1173.42,-23.33 1182.87,-18.54 1172.49,-16.39 1173.42,-23.33"/>
</g>
<!-- Node24&#45;&gt;Node2 -->
<g id="edge32" class="edge">
<title>Node24&#45;&gt;Node2</title>
<path fill="none" stroke="midnightblue" d="M725.31,-56.47C692.62,-48.13 641.36,-34.89 588.26,-20.3"/>
<polygon fill="midnightblue" stroke="midnightblue" points="588.9,-16.84 578.33,-17.56 587.04,-23.59 588.9,-16.84"/>
</g>
<!-- Node24&#45;&gt;Node5 -->
<g id="edge29" class="edge">
<title>Node24&#45;&gt;Node5</title>
<path fill="none" stroke="midnightblue" d="M783.08,-56.44C808.54,-47.4 848.89,-33.06 877.46,-22.92"/>
<polygon fill="midnightblue" stroke="midnightblue" points="878.78,-26.16 887.03,-19.52 876.43,-19.57 878.78,-26.16"/>
</g>
<!-- Node24&#45;&gt;Node22 -->
<g id="edge33" class="edge">
<title>Node24&#45;&gt;Node22</title>
<path fill="none" stroke="midnightblue" d="M812.86,-59.96C904.91,-51.23 1089.86,-33.09 1172.77,-19.99"/>
<polygon fill="midnightblue" stroke="midnightblue" points="1173.54,-23.41 1182.84,-18.33 1172.4,-16.5 1173.54,-23.41"/>
</g>
<!-- Node25 -->
<g id="node25" class="node">
<title>Node25</title>
<g id="a_node25"><a xlink:title=" ">
<polygon fill="white" stroke="#bfbfbf" points="661.5,-0.5 661.5,-19.5 730.5,-19.5 730.5,-0.5 661.5,-0.5"/>
<text text-anchor="middle" x="696" y="-7.5" font-family="Helvetica,sans-Serif" font-size="10.00">arpa/inet.h</text>
</a>
</g>
</g>
<!-- Node24&#45;&gt;Node25 -->
<g id="edge28" class="edge">
<title>Node24&#45;&gt;Node25</title>
<path fill="none" stroke="midnightblue" d="M748.88,-56.32C739.47,-48.26 725.26,-36.08 713.93,-26.37"/>
<polygon fill="midnightblue" stroke="midnightblue" points="716.18,-23.68 706.31,-19.83 711.62,-29 716.18,-23.68"/>
</g>
<!-- Node26 -->
<g id="node26" class="node">
<title>Node26</title>
<g id="a_node26"><a xlink:title=" ">
<polygon fill="white" stroke="#bfbfbf" points="596.5,-0.5 596.5,-19.5 643.5,-19.5 643.5,-0.5 596.5,-0.5"/>
<text text-anchor="middle" x="620" y="-7.5" font-family="Helvetica,sans-Serif" font-size="10.00">cerrno</text>
</a>
</g>
</g>
<!-- Node24&#45;&gt;Node26 -->
<g id="edge30" class="edge">
<title>Node24&#45;&gt;Node26</title>
<path fill="none" stroke="midnightblue" d="M736.98,-56.44C713.9,-47.48 677.44,-33.31 651.36,-23.18"/>
<polygon fill="midnightblue" stroke="midnightblue" points="652.51,-19.88 641.92,-19.52 649.98,-26.4 652.51,-19.88"/>
</g>
<!-- Node27 -->
<g id="node27" class="node">
<title>Node27</title>
<g id="a_node27"><a xlink:title=" ">
<polygon fill="white" stroke="#bfbfbf" points="749,-0.5 749,-19.5 799,-19.5 799,-0.5 749,-0.5"/>
<text text-anchor="middle" x="774" y="-7.5" font-family="Helvetica,sans-Serif" font-size="10.00">cstring</text>
</a>
</g>
</g>
<!-- Node24&#45;&gt;Node27 -->
<g id="edge31" class="edge">
<title>Node24&#45;&gt;Node27</title>
<path fill="none" stroke="midnightblue" d="M761.48,-56.08C763.49,-48.85 766.39,-38.41 768.89,-29.4"/>
<polygon fill="midnightblue" stroke="midnightblue" points="772.26,-30.32 771.57,-19.75 765.52,-28.45 772.26,-30.32"/>
</g>
<!-- Node28&#45;&gt;Node6 -->
<g id="edge41" class="edge">
<title>Node28&#45;&gt;Node6</title>
<path fill="none" stroke="midnightblue" d="M908.15,-56.32C895.78,-47.98 876.87,-35.21 862.26,-25.35"/>
<polygon fill="midnightblue" stroke="midnightblue" points="864.07,-22.35 853.82,-19.65 860.15,-28.15 864.07,-22.35"/>
</g>
<!-- Node28&#45;&gt;Node15 -->
<g id="edge40" class="edge">
<title>Node28&#45;&gt;Node15</title>
<path fill="none" stroke="midnightblue" d="M973.24,-57.24C976.2,-56.82 979.14,-56.4 982,-56 1098.72,-39.61 1131.53,-43.32 1250.94,-20"/>
<polygon fill="midnightblue" stroke="midnightblue" points="1251.7,-23.41 1260.83,-18.04 1250.34,-16.55 1251.7,-23.41"/>
</g>
<!-- Node28&#45;&gt;Node21 -->
<g id="edge39" class="edge">
<title>Node28&#45;&gt;Node21</title>
<path fill="none" stroke="midnightblue" d="M957.21,-56.42C992.5,-48.01 1047.94,-34.66 1104.87,-20.25"/>
<polygon fill="midnightblue" stroke="midnightblue" points="1105.93,-23.59 1114.76,-17.74 1104.21,-16.81 1105.93,-23.59"/>
</g>
<!-- Node28&#45;&gt;Node22 -->
<g id="edge36" class="edge">
<title>Node28&#45;&gt;Node22</title>
<path fill="none" stroke="midnightblue" d="M973.48,-56.46C1022.55,-48.3 1098.1,-35.28 1172.75,-20.18"/>
<polygon fill="midnightblue" stroke="midnightblue" points="1173.7,-23.55 1182.8,-18.13 1172.3,-16.7 1173.7,-23.55"/>
</g>
<!-- Node28&#45;&gt;Node27 -->
<g id="edge38" class="edge">
<title>Node28&#45;&gt;Node27</title>
<path fill="none" stroke="midnightblue" d="M897.71,-56.44C873.19,-47.44 834.4,-33.19 806.8,-23.05"/>
<polygon fill="midnightblue" stroke="midnightblue" points="807.78,-19.68 797.18,-19.52 805.36,-26.25 807.78,-19.68"/>
</g>
<!-- Node29 -->
<g id="node29" class="node">
<title>Node29</title>
<g id="a_node29"><a xlink:title=" ">
<polygon fill="white" stroke="#bfbfbf" points="957,-0.5 957,-19.5 1023,-19.5 1023,-0.5 957,-0.5"/>
<text text-anchor="middle" x="990" y="-7.5" font-family="Helvetica,sans-Serif" font-size="10.00">sys/ioctl.h</text>
</a>
</g>
</g>
<!-- Node28&#45;&gt;Node29 -->
<g id="edge35" class="edge">
<title>Node28&#45;&gt;Node29</title>
<path fill="none" stroke="midnightblue" d="M932.09,-56.32C942.49,-48.18 958.26,-35.84 970.72,-26.09"/>
<polygon fill="midnightblue" stroke="midnightblue" points="972.99,-28.75 978.71,-19.83 968.68,-23.24 972.99,-28.75"/>
</g>
<!-- Node30 -->
<g id="node30" class="node">
<title>Node30</title>
<g id="a_node30"><a xlink:title=" ">
<polygon fill="white" stroke="#bfbfbf" points="1041,-0.5 1041,-19.5 1097,-19.5 1097,-0.5 1041,-0.5"/>
<text text-anchor="middle" x="1069" y="-7.5" font-family="Helvetica,sans-Serif" font-size="10.00">iomanip</text>
</a>
</g>
</g>
<!-- Node28&#45;&gt;Node30 -->
<g id="edge37" class="edge">
<title>Node28&#45;&gt;Node30</title>
<path fill="none" stroke="midnightblue" d="M944.45,-56.44C969.13,-47.44 1008.19,-33.19 1035.98,-23.05"/>
<polygon fill="midnightblue" stroke="midnightblue" points="1037.46,-26.23 1045.66,-19.52 1035.06,-19.66 1037.46,-26.23"/>
</g>
<!-- Node33&#45;&gt;Node10 -->
<g id="edge45" class="edge">
<title>Node33&#45;&gt;Node10</title>
<path fill="none" stroke="midnightblue" d="M1424.41,-56.32C1435.11,-48.18 1451.34,-35.84 1464.16,-26.09"/>
<polygon fill="midnightblue" stroke="midnightblue" points="1466.54,-28.67 1472.39,-19.83 1462.31,-23.1 1466.54,-28.67"/>
</g>
<!-- Node33&#45;&gt;Node21 -->
<g id="edge46" class="edge">
<title>Node33&#45;&gt;Node21</title>
<path fill="none" stroke="midnightblue" d="M1380.76,-59.7C1336.59,-52.26 1254.59,-37.87 1175.35,-20.18"/>
<polygon fill="midnightblue" stroke="midnightblue" points="1175.73,-16.67 1165.2,-17.89 1174.19,-23.5 1175.73,-16.67"/>
</g>
<!-- Node34 -->
<g id="node34" class="node">
<title>Node34</title>
<g id="a_node34"><a xlink:title=" ">
<polygon fill="white" stroke="#bfbfbf" points="1329,-0.5 1329,-19.5 1371,-19.5 1371,-0.5 1329,-0.5"/>
<text text-anchor="middle" x="1350" y="-7.5" font-family="Helvetica,sans-Serif" font-size="10.00">array</text>
</a>
</g>
</g>
<!-- Node33&#45;&gt;Node34 -->
<g id="edge47" class="edge">
<title>Node33&#45;&gt;Node34</title>
<path fill="none" stroke="midnightblue" d="M1402.88,-56.32C1393.47,-48.26 1379.26,-36.08 1367.93,-26.37"/>
<polygon fill="midnightblue" stroke="midnightblue" points="1370.18,-23.68 1360.31,-19.83 1365.62,-29 1370.18,-23.68"/>
</g>
<!-- Node35 -->
<g id="node35" class="node">
<title>Node35</title>
<g id="a_node35"><a xlink:title=" ">
<polygon fill="white" stroke="#bfbfbf" points="1389.5,-0.5 1389.5,-19.5 1442.5,-19.5 1442.5,-0.5 1389.5,-0.5"/>
<text text-anchor="middle" x="1416" y="-7.5" font-family="Helvetica,sans-Serif" font-size="10.00">stdlib.h</text>
</a>
</g>
</g>
<!-- Node33&#45;&gt;Node35 -->
<g id="edge48" class="edge">
<title>Node33&#45;&gt;Node35</title>
<path fill="none" stroke="midnightblue" d="M1413.5,-56.08C1413.89,-49.01 1414.45,-38.86 1414.95,-29.99"/>
<polygon fill="midnightblue" stroke="midnightblue" points="1418.45,-29.93 1415.51,-19.75 1411.46,-29.54 1418.45,-29.93"/>
</g>
<!-- Node36&#45;&gt;Node11 -->
<g id="edge50" class="edge">
<title>Node36&#45;&gt;Node11</title>
<path fill="none" stroke="midnightblue" d="M1601,-112.08C1601,-105.01 1601,-94.86 1601,-85.99"/>
<polygon fill="midnightblue" stroke="midnightblue" points="1604.5,-85.75 1601,-75.75 1597.5,-85.75 1604.5,-85.75"/>
</g>
<!-- Node36&#45;&gt;Node22 -->
<g id="edge53" class="edge">
<title>Node36&#45;&gt;Node22</title>
<path fill="none" stroke="midnightblue" d="M1545.67,-113.21C1498.83,-105.89 1430.22,-93.44 1372,-76 1324.31,-61.71 1271.21,-38.42 1240.03,-23.94"/>
<polygon fill="midnightblue" stroke="midnightblue" points="1241.25,-20.65 1230.71,-19.57 1238.28,-26.99 1241.25,-20.65"/>
</g>
<!-- Node37 -->
<g id="node37" class="node">
<title>Node37</title>
<g id="a_node37"><a xlink:title=" ">
<polygon fill="white" stroke="#bfbfbf" points="1811,-56.5 1811,-75.5 1891,-75.5 1891,-56.5 1811,-56.5"/>
<text text-anchor="middle" x="1851" y="-63.5" font-family="Helvetica,sans-Serif" font-size="10.00">SDL_image.h</text>
</a>
</g>
</g>
<!-- Node36&#45;&gt;Node37 -->
<g id="edge51" class="edge">
<title>Node36&#45;&gt;Node37</title>
<path fill="none" stroke="midnightblue" d="M1640.61,-112.44C1684.23,-103.02 1754.4,-87.87 1801.58,-77.68"/>
<polygon fill="midnightblue" stroke="midnightblue" points="1802.54,-81.05 1811.57,-75.52 1801.06,-74.21 1802.54,-81.05"/>
</g>
<!-- Node38 -->
<g id="node38" class="node">
<title>Node38</title>
<g id="a_node38"><a xlink:title=" ">
<polygon fill="white" stroke="#bfbfbf" points="1709.5,-56.5 1709.5,-75.5 1792.5,-75.5 1792.5,-56.5 1709.5,-56.5"/>
<text text-anchor="middle" x="1751" y="-63.5" font-family="Helvetica,sans-Serif" font-size="10.00">SDL_opengl.h</text>
</a>
</g>
</g>
<!-- Node36&#45;&gt;Node38 -->
<g id="edge52" class="edge">
<title>Node36&#45;&gt;Node38</title>
<path fill="none" stroke="midnightblue" d="M1624.77,-112.44C1649.89,-103.4 1689.71,-89.06 1717.9,-78.92"/>
<polygon fill="midnightblue" stroke="midnightblue" points="1719.12,-82.2 1727.34,-75.52 1716.75,-75.61 1719.12,-82.2"/>
</g>
<!-- Node39&#45;&gt;Node2 -->
<g id="edge55" class="edge">
<title>Node39&#45;&gt;Node2</title>
<path fill="none" stroke="midnightblue" d="M1974.57,-112.47C1956.4,-96.24 1916.84,-62.02 1900,-56 1765.24,-7.88 771.14,-41.17 588.15,-19.54"/>
<polygon fill="midnightblue" stroke="midnightblue" points="588.58,-16.06 578.2,-18.18 587.63,-23 588.58,-16.06"/>
</g>
<!-- Node39&#45;&gt;Node7 -->
<g id="edge59" class="edge">
<title>Node39&#45;&gt;Node7</title>
<path fill="none" stroke="midnightblue" d="M1951.14,-116.8C1898.2,-109.8 1790.87,-94.66 1701,-76 1700.9,-75.98 1700.8,-75.96 1700.7,-75.94"/>
<polygon fill="midnightblue" stroke="midnightblue" points="1701.7,-72.57 1691.17,-73.77 1700.15,-79.4 1701.7,-72.57"/>
</g>
<!-- Node39&#45;&gt;Node8 -->
<g id="edge58" class="edge">
<title>Node39&#45;&gt;Node8</title>
<path fill="none" stroke="midnightblue" d="M1951.35,-118.77C1882.76,-113.81 1718.56,-100.46 1570.89,-75.95"/>
<polygon fill="midnightblue" stroke="midnightblue" points="1571.18,-72.45 1560.74,-74.24 1570.02,-79.35 1571.18,-72.45"/>
</g>
<!-- Node39&#45;&gt;Node10 -->
<g id="edge57" class="edge">
<title>Node39&#45;&gt;Node10</title>
<path fill="none" stroke="midnightblue" d="M2016.61,-121.65C2091.48,-122.36 2272.14,-119.45 2310,-76 2315.84,-69.3 2316.11,-62.45 2310,-56 2282.33,-26.79 1670.02,-14.23 1517.95,-11.56"/>
<polygon fill="midnightblue" stroke="midnightblue" points="1517.87,-8.06 1507.81,-11.39 1517.75,-15.06 1517.87,-8.06"/>
</g>
<!-- Node39&#45;&gt;Node11 -->
<g id="edge60" class="edge">
<title>Node39&#45;&gt;Node11</title>
<path fill="none" stroke="midnightblue" d="M1951.2,-118.52C1890.29,-113.55 1755.47,-100.82 1633.16,-75.95"/>
<polygon fill="midnightblue" stroke="midnightblue" points="1633.75,-72.5 1623.25,-73.91 1632.33,-79.36 1633.75,-72.5"/>
</g>
<!-- Node39&#45;&gt;Node22 -->
<g id="edge56" class="edge">
<title>Node39&#45;&gt;Node22</title>
<path fill="none" stroke="midnightblue" d="M1980.18,-112.31C1973.22,-97.66 1956.93,-68.43 1933,-56 1868.06,-22.26 1363.31,-29.96 1253.3,-19.66"/>
<polygon fill="midnightblue" stroke="midnightblue" points="1253.47,-16.16 1243.14,-18.5 1252.67,-23.12 1253.47,-16.16"/>
</g>
<!-- Node39&#45;&gt;Node37 -->
<g id="edge61" class="edge">
<title>Node39&#45;&gt;Node37</title>
<path fill="none" stroke="midnightblue" d="M1962.93,-112.44C1940.94,-103.52 1906.27,-89.44 1881.34,-79.32"/>
<polygon fill="midnightblue" stroke="midnightblue" points="1882.56,-76.04 1871.98,-75.52 1879.92,-82.52 1882.56,-76.04"/>
</g>
<!-- Node39&#45;&gt;Node38 -->
<g id="edge62" class="edge">
<title>Node39&#45;&gt;Node38</title>
<path fill="none" stroke="midnightblue" d="M1951.11,-113.38C1911.11,-104.11 1843.31,-88.39 1797.86,-77.86"/>
<polygon fill="midnightblue" stroke="midnightblue" points="1798.48,-74.41 1787.95,-75.56 1796.9,-81.23 1798.48,-74.41"/>
</g>
<!-- Node40 -->
<g id="node40" class="node">
<title>Node40</title>
<g id="a_node40"><a xlink:title=" ">
<polygon fill="white" stroke="#bfbfbf" points="1985.5,-56.5 1985.5,-75.5 2038.5,-75.5 2038.5,-56.5 1985.5,-56.5"/>
<text text-anchor="middle" x="2012" y="-63.5" font-family="Helvetica,sans-Serif" font-size="10.00">imgui.h</text>
</a>
</g>
</g>
<!-- Node39&#45;&gt;Node40 -->
<g id="edge63" class="edge">
<title>Node39&#45;&gt;Node40</title>
<path fill="none" stroke="midnightblue" d="M1988.62,-112.08C1992.46,-104.69 1998.02,-93.95 2002.76,-84.81"/>
<polygon fill="midnightblue" stroke="midnightblue" points="2005.97,-86.24 2007.46,-75.75 1999.75,-83.02 2005.97,-86.24"/>
</g>
<!-- Node41 -->
<g id="node41" class="node">
<title>Node41</title>
<g id="a_node41"><a xlink:title=" ">
<polygon fill="white" stroke="#bfbfbf" points="2057,-56.5 2057,-75.5 2157,-75.5 2157,-56.5 2057,-56.5"/>
<text text-anchor="middle" x="2107" y="-63.5" font-family="Helvetica,sans-Serif" font-size="10.00">imgui_impl_sdl.h</text>
</a>
</g>
</g>
<!-- Node39&#45;&gt;Node41 -->
<g id="edge64" class="edge">
<title>Node39&#45;&gt;Node41</title>
<path fill="none" stroke="midnightblue" d="M2003.49,-112.44C2023.64,-103.6 2055.32,-89.69 2078.33,-79.59"/>
<polygon fill="midnightblue" stroke="midnightblue" points="2079.85,-82.74 2087.6,-75.52 2077.04,-76.33 2079.85,-82.74"/>
</g>
<!-- Node42 -->
<g id="node42" class="node">
<title>Node42</title>
<g id="a_node42"><a xlink:title=" ">
<polygon fill="white" stroke="#bfbfbf" points="2175.5,-56.5 2175.5,-75.5 2300.5,-75.5 2300.5,-56.5 2175.5,-56.5"/>
<text text-anchor="middle" x="2238" y="-63.5" font-family="Helvetica,sans-Serif" font-size="10.00">imgui_impl_opengl3.h</text>
</a>
</g>
</g>
<!-- Node39&#45;&gt;Node42 -->
<g id="edge65" class="edge">
<title>Node39&#45;&gt;Node42</title>
<path fill="none" stroke="midnightblue" d="M2016.69,-114.05C2060.15,-104.81 2137.37,-88.39 2188.13,-77.6"/>
<polygon fill="midnightblue" stroke="midnightblue" points="2188.86,-81.03 2197.91,-75.52 2187.4,-74.18 2188.86,-81.03"/>
</g>
<!-- Node43 -->
<g id="node43" class="node">
<title>Node43</title>
<g id="a_node43"><a xlink:title=" ">
<polygon fill="white" stroke="#bfbfbf" points="2357,-56.5 2357,-75.5 2443,-75.5 2443,-56.5 2357,-56.5"/>
<text text-anchor="middle" x="2400" y="-63.5" font-family="Helvetica,sans-Serif" font-size="10.00">imgui_stdlib.h</text>
</a>
</g>
</g>
<!-- Node39&#45;&gt;Node43 -->
<g id="edge66" class="edge">
<title>Node39&#45;&gt;Node43</title>
<path fill="none" stroke="midnightblue" d="M2016.72,-117.25C2079.87,-109.94 2222.97,-92.99 2343,-76 2344.26,-75.82 2345.53,-75.64 2346.81,-75.45"/>
<polygon fill="midnightblue" stroke="midnightblue" points="2347.38,-78.91 2356.76,-73.98 2346.36,-71.98 2347.38,-78.91"/>
</g>
<!-- Node44 -->
<g id="node44" class="node">
<title>Node44</title>
<g id="a_node44"><a xlink:title=" ">
<polygon fill="white" stroke="#bfbfbf" points="2461,-56.5 2461,-75.5 2557,-75.5 2557,-56.5 2461,-56.5"/>
<text text-anchor="middle" x="2509" y="-63.5" font-family="Helvetica,sans-Serif" font-size="10.00">imgui_internal.h</text>
</a>
</g>
</g>
<!-- Node39&#45;&gt;Node44 -->
<g id="edge67" class="edge">
<title>Node39&#45;&gt;Node44</title>
<path fill="none" stroke="midnightblue" d="M2016.7,-118.54C2091.58,-112.77 2281.43,-97.3 2450.73,-76.09"/>
<polygon fill="midnightblue" stroke="midnightblue" points="2451.34,-79.54 2460.83,-74.82 2450.47,-72.6 2451.34,-79.54"/>
</g>
<!-- Node45 -->
<g id="node45" class="node">
<title>Node45</title>
<g id="a_node45"><a xlink:title=" ">
<polygon fill="white" stroke="#bfbfbf" points="2575,-56.5 2575,-75.5 2667,-75.5 2667,-56.5 2575,-56.5"/>
<text text-anchor="middle" x="2621" y="-63.5" font-family="Helvetica,sans-Serif" font-size="10.00">imfilebrowser.h</text>
</a>
</g>
</g>
<!-- Node39&#45;&gt;Node45 -->
<g id="edge68" class="edge">
<title>Node39&#45;&gt;Node45</title>
<path fill="none" stroke="midnightblue" d="M2016.59,-119.45C2103.75,-115.11 2349.62,-101.51 2564.61,-76.07"/>
<polygon fill="midnightblue" stroke="midnightblue" points="2565.31,-79.51 2574.83,-74.85 2564.48,-72.56 2565.31,-79.51"/>
</g>
<!-- Node46 -->
<g id="node46" class="node">
<title>Node46</title>
<g id="a_node46"><a xlink:title=" ">
<polygon fill="white" stroke="#bfbfbf" points="2685,-56.5 2685,-75.5 2751,-75.5 2751,-56.5 2685,-56.5"/>
<text text-anchor="middle" x="2718" y="-63.5" font-family="Helvetica,sans-Serif" font-size="10.00">libnpy.hpp</text>
</a>
</g>
</g>
<!-- Node39&#45;&gt;Node46 -->
<g id="edge69" class="edge">
<title>Node39&#45;&gt;Node46</title>
<path fill="none" stroke="midnightblue" d="M2016.6,-120.57C2114.72,-118.92 2416.01,-111.23 2674.65,-75.99"/>
<polygon fill="midnightblue" stroke="midnightblue" points="2675.18,-79.45 2684.61,-74.62 2674.22,-72.52 2675.18,-79.45"/>
</g>
</g>
</svg>
