<?xml version="1.0" encoding="UTF-8" standalone="no"?>
<!DOCTYPE svg PUBLIC "-//W3C//DTD SVG 1.1//EN"
 "http://www.w3.org/Graphics/SVG/1.1/DTD/svg11.dtd">
<!-- Generated by graphviz version 2.43.0 (0)
 -->
<!-- Title: src/RunCLI.cpp Pages: 1 -->
<svg width="2413pt" height="196pt"
 viewBox="0.00 0.00 2413.35 196.00" xmlns="http://www.w3.org/2000/svg" xmlns:xlink="http://www.w3.org/1999/xlink">
<g id="graph0" class="graph" transform="scale(1 1) rotate(0) translate(4 192)">
<title>src/RunCLI.cpp</title>
<polygon fill="white" stroke="transparent" points="-4,4 -4,-192 2409.35,-192 2409.35,4 -4,4"/>
<!-- Node1 -->
<g id="node1" class="node">
<title>Node1</title>
<g id="a_node1"><a xlink:title=" ">
<polygon fill="#bfbfbf" stroke="black" points="1680,-168.5 1680,-187.5 1768,-187.5 1768,-168.5 1680,-168.5"/>
<text text-anchor="middle" x="1724" y="-175.5" font-family="Helvetica,sans-Serif" font-size="10.00">src/RunCLI.cpp</text>
</a>
</g>
</g>
<!-- Node2 -->
<g id="node2" class="node">
<title>Node2</title>
<g id="a_node2"><a xlink:title=" ">
<polygon fill="white" stroke="#bfbfbf" points="2025,-0.5 2025,-19.5 2069,-19.5 2069,-0.5 2025,-0.5"/>
<text text-anchor="middle" x="2047" y="-7.5" font-family="Helvetica,sans-Serif" font-size="10.00">string</text>
</a>
</g>
</g>
<!-- Node1&#45;&gt;Node2 -->
<g id="edge1" class="edge">
<title>Node1&#45;&gt;Node2</title>
<path fill="none" stroke="midnightblue" d="M1768.07,-177.67C1905.29,-178.73 2320.5,-173.66 2401,-76 2406.65,-69.14 2406.88,-62.67 2401,-56 2379.86,-32.01 2162.59,-17.45 2079.28,-12.71"/>
<polygon fill="midnightblue" stroke="midnightblue" points="2079.3,-9.2 2069.12,-12.14 2078.91,-16.19 2079.3,-9.2"/>
</g>
<!-- Node3 -->
<g id="node3" class="node">
<title>Node3</title>
<g id="a_node3"><a xlink:title=" ">
<polygon fill="white" stroke="#bfbfbf" points="0,-0.5 0,-19.5 48,-19.5 48,-0.5 0,-0.5"/>
<text text-anchor="middle" x="24" y="-7.5" font-family="Helvetica,sans-Serif" font-size="10.00">thread</text>
</a>
</g>
</g>
<!-- Node1&#45;&gt;Node3 -->
<g id="edge2" class="edge">
<title>Node1&#45;&gt;Node3</title>
<path fill="none" stroke="midnightblue" d="M1679.64,-177.33C1452.82,-178.57 421.82,-178.39 122,-76 90.64,-65.29 59.66,-42.04 41.17,-26.45"/>
<polygon fill="midnightblue" stroke="midnightblue" points="43.23,-23.6 33.38,-19.7 38.65,-28.89 43.23,-23.6"/>
</g>
<!-- Node4 -->
<g id="node4" class="node">
<title>Node4</title>
<g id="a_node4"><a xlink:href="../../de/dfc/Ricom_8h.html" target="_top" xlink:title=" ">
<polygon fill="white" stroke="black" points="902,-112.5 902,-131.5 958,-131.5 958,-112.5 902,-112.5"/>
<text text-anchor="middle" x="930" y="-119.5" font-family="Helvetica,sans-Serif" font-size="10.00">Ricom.h</text>
</a>
</g>
</g>
<!-- Node1&#45;&gt;Node4 -->
<g id="edge3" class="edge">
<title>Node1&#45;&gt;Node4</title>
<path fill="none" stroke="midnightblue" d="M1679.9,-174C1538.88,-164.41 1100.47,-134.59 968.17,-125.6"/>
<polygon fill="midnightblue" stroke="midnightblue" points="968.33,-122.1 958.11,-124.91 967.85,-129.08 968.33,-122.1"/>
</g>
<!-- Node36 -->
<g id="node36" class="node">
<title>Node36</title>
<g id="a_node36"><a xlink:href="../../dc/dd0/SdlImageWindow_8h.html" target="_top" xlink:title=" ">
<polygon fill="white" stroke="black" points="1669,-112.5 1669,-131.5 1779,-131.5 1779,-112.5 1669,-112.5"/>
<text text-anchor="middle" x="1724" y="-119.5" font-family="Helvetica,sans-Serif" font-size="10.00">SdlImageWindow.h</text>
</a>
</g>
</g>
<!-- Node1&#45;&gt;Node36 -->
<g id="edge49" class="edge">
<title>Node1&#45;&gt;Node36</title>
<path fill="none" stroke="midnightblue" d="M1724,-168.08C1724,-161.01 1724,-150.86 1724,-141.99"/>
<polygon fill="midnightblue" stroke="midnightblue" points="1727.5,-141.75 1724,-131.75 1720.5,-141.75 1727.5,-141.75"/>
</g>
<!-- Node39 -->
<g id="node39" class="node">
<title>Node39</title>
<g id="a_node39"><a xlink:href="../../d7/db2/GuiUtils_8h.html" target="_top" xlink:title=" ">
<polygon fill="white" stroke="black" points="2038.5,-112.5 2038.5,-131.5 2103.5,-131.5 2103.5,-112.5 2038.5,-112.5"/>
<text text-anchor="middle" x="2071" y="-119.5" font-family="Helvetica,sans-Serif" font-size="10.00">GuiUtils.h</text>
</a>
</g>
</g>
<!-- Node1&#45;&gt;Node39 -->
<g id="edge54" class="edge">
<title>Node1&#45;&gt;Node39</title>
<path fill="none" stroke="midnightblue" d="M1768.3,-170.11C1835.42,-159.66 1962.05,-139.96 2028.24,-129.65"/>
<polygon fill="midnightblue" stroke="midnightblue" points="2028.98,-133.08 2038.33,-128.08 2027.91,-126.16 2028.98,-133.08"/>
</g>
<!-- Node4&#45;&gt;Node2 -->
<g id="edge10" class="edge">
<title>Node4&#45;&gt;Node2</title>
<path fill="none" stroke="midnightblue" d="M958.09,-121.32C1049.44,-121.9 1345.99,-120.01 1586,-76 1616.15,-70.47 1621.98,-62.2 1652,-56 1785.13,-28.48 1947.23,-16.67 2014.91,-12.69"/>
<polygon fill="midnightblue" stroke="midnightblue" points="2015.16,-16.18 2024.94,-12.11 2014.76,-9.19 2015.16,-16.18"/>
</g>
<!-- Node4&#45;&gt;Node3 -->
<g id="edge14" class="edge">
<title>Node4&#45;&gt;Node3</title>
<path fill="none" stroke="midnightblue" d="M901.77,-120.44C783.96,-117.92 331.2,-106.4 192,-76 139.94,-64.63 82.77,-39.6 50.34,-24.13"/>
<polygon fill="midnightblue" stroke="midnightblue" points="51.63,-20.87 41.1,-19.67 48.58,-27.17 51.63,-20.87"/>
</g>
<!-- Node5 -->
<g id="node5" class="node">
<title>Node5</title>
<g id="a_node5"><a xlink:title=" ">
<polygon fill="white" stroke="#bfbfbf" points="1528,-0.5 1528,-19.5 1584,-19.5 1584,-0.5 1528,-0.5"/>
<text text-anchor="middle" x="1556" y="-7.5" font-family="Helvetica,sans-Serif" font-size="10.00">unistd.h</text>
</a>
</g>
</g>
<!-- Node4&#45;&gt;Node5 -->
<g id="edge4" class="edge">
<title>Node4&#45;&gt;Node5</title>
<path fill="none" stroke="midnightblue" d="M958.07,-120.79C1071.57,-119.7 1492.75,-113.14 1538,-76 1551.42,-64.99 1555.33,-44.94 1556.25,-30.01"/>
<polygon fill="midnightblue" stroke="midnightblue" points="1559.75,-29.9 1556.47,-19.82 1552.75,-29.74 1559.75,-29.9"/>
</g>
<!-- Node6 -->
<g id="node6" class="node">
<title>Node6</title>
<g id="a_node6"><a xlink:title=" ">
<polygon fill="white" stroke="#bfbfbf" points="832.5,-0.5 832.5,-19.5 879.5,-19.5 879.5,-0.5 832.5,-0.5"/>
<text text-anchor="middle" x="856" y="-7.5" font-family="Helvetica,sans-Serif" font-size="10.00">cmath</text>
</a>
</g>
</g>
<!-- Node4&#45;&gt;Node6 -->
<g id="edge5" class="edge">
<title>Node4&#45;&gt;Node6</title>
<path fill="none" stroke="midnightblue" d="M901.86,-118.82C852.36,-114.35 752.95,-102.24 732,-76 726.45,-69.05 726.9,-63.28 732,-56 737.44,-48.23 787.76,-31.68 822.6,-20.96"/>
<polygon fill="midnightblue" stroke="midnightblue" points="823.86,-24.23 832.41,-17.97 821.82,-17.54 823.86,-24.23"/>
</g>
<!-- Node7 -->
<g id="node7" class="node">
<title>Node7</title>
<g id="a_node7"><a xlink:title=" ">
<polygon fill="white" stroke="#bfbfbf" points="741,-56.5 741,-75.5 791,-75.5 791,-56.5 741,-56.5"/>
<text text-anchor="middle" x="766" y="-63.5" font-family="Helvetica,sans-Serif" font-size="10.00">stdio.h</text>
</a>
</g>
</g>
<!-- Node4&#45;&gt;Node7 -->
<g id="edge6" class="edge">
<title>Node4&#45;&gt;Node7</title>
<path fill="none" stroke="midnightblue" d="M904.01,-112.44C876.06,-103.24 831.47,-88.56 800.57,-78.38"/>
<polygon fill="midnightblue" stroke="midnightblue" points="801.65,-75.05 791.06,-75.25 799.46,-81.7 801.65,-75.05"/>
</g>
<!-- Node8 -->
<g id="node8" class="node">
<title>Node8</title>
<g id="a_node8"><a xlink:title=" ">
<polygon fill="white" stroke="#bfbfbf" points="1824.5,-56.5 1824.5,-75.5 1883.5,-75.5 1883.5,-56.5 1824.5,-56.5"/>
<text text-anchor="middle" x="1854" y="-63.5" font-family="Helvetica,sans-Serif" font-size="10.00">complex</text>
</a>
</g>
</g>
<!-- Node4&#45;&gt;Node8 -->
<g id="edge7" class="edge">
<title>Node4&#45;&gt;Node8</title>
<path fill="none" stroke="midnightblue" d="M958.11,-121.42C1067.19,-122.68 1472.9,-123.76 1814.15,-76.02"/>
<polygon fill="midnightblue" stroke="midnightblue" points="1814.82,-79.46 1824.23,-74.59 1813.84,-72.53 1814.82,-79.46"/>
</g>
<!-- Node9 -->
<g id="node9" class="node">
<title>Node9</title>
<g id="a_node9"><a xlink:title=" ">
<polygon fill="white" stroke="#bfbfbf" points="809,-56.5 809,-75.5 853,-75.5 853,-56.5 809,-56.5"/>
<text text-anchor="middle" x="831" y="-63.5" font-family="Helvetica,sans-Serif" font-size="10.00">cfloat</text>
</a>
</g>
</g>
<!-- Node4&#45;&gt;Node9 -->
<g id="edge8" class="edge">
<title>Node4&#45;&gt;Node9</title>
<path fill="none" stroke="midnightblue" d="M914.09,-112.32C898.36,-103.74 874.06,-90.49 855.79,-80.52"/>
<polygon fill="midnightblue" stroke="midnightblue" points="857.32,-77.37 846.87,-75.65 853.97,-83.52 857.32,-77.37"/>
</g>
<!-- Node10 -->
<g id="node10" class="node">
<title>Node10</title>
<g id="a_node10"><a xlink:title=" ">
<polygon fill="white" stroke="#bfbfbf" points="1602.5,-0.5 1602.5,-19.5 1649.5,-19.5 1649.5,-0.5 1602.5,-0.5"/>
<text text-anchor="middle" x="1626" y="-7.5" font-family="Helvetica,sans-Serif" font-size="10.00">vector</text>
</a>
</g>
</g>
<!-- Node4&#45;&gt;Node10 -->
<g id="edge9" class="edge">
<title>Node4&#45;&gt;Node10</title>
<path fill="none" stroke="midnightblue" d="M958.34,-121.49C1065.91,-122.95 1448.45,-124.55 1558,-76 1581.46,-65.6 1601.75,-43.47 1613.91,-27.94"/>
<polygon fill="midnightblue" stroke="midnightblue" points="1616.9,-29.79 1620.1,-19.69 1611.3,-25.59 1616.9,-29.79"/>
</g>
<!-- Node11 -->
<g id="node11" class="node">
<title>Node11</title>
<g id="a_node11"><a xlink:title=" ">
<polygon fill="white" stroke="#bfbfbf" points="1661,-56.5 1661,-75.5 1705,-75.5 1705,-56.5 1661,-56.5"/>
<text text-anchor="middle" x="1683" y="-63.5" font-family="Helvetica,sans-Serif" font-size="10.00">SDL.h</text>
</a>
</g>
</g>
<!-- Node4&#45;&gt;Node11 -->
<g id="edge11" class="edge">
<title>Node4&#45;&gt;Node11</title>
<path fill="none" stroke="midnightblue" d="M958.21,-121.07C1054.88,-120.92 1381.39,-117.18 1647,-76 1648.25,-75.81 1649.53,-75.59 1650.81,-75.35"/>
<polygon fill="midnightblue" stroke="midnightblue" points="1651.61,-78.76 1660.66,-73.25 1650.15,-71.91 1651.61,-78.76"/>
</g>
<!-- Node12 -->
<g id="node12" class="node">
<title>Node12</title>
<g id="a_node12"><a xlink:title=" ">
<polygon fill="white" stroke="#bfbfbf" points="340,-0.5 340,-19.5 388,-19.5 388,-0.5 340,-0.5"/>
<text text-anchor="middle" x="364" y="-7.5" font-family="Helvetica,sans-Serif" font-size="10.00">mutex</text>
</a>
</g>
</g>
<!-- Node4&#45;&gt;Node12 -->
<g id="edge12" class="edge">
<title>Node4&#45;&gt;Node12</title>
<path fill="none" stroke="midnightblue" d="M901.72,-120.32C812.06,-117.85 535.12,-107.76 452,-76 423.6,-65.15 396.3,-42.45 379.84,-26.96"/>
<polygon fill="midnightblue" stroke="midnightblue" points="381.88,-24.07 372.27,-19.62 377.01,-29.1 381.88,-24.07"/>
</g>
<!-- Node13 -->
<g id="node13" class="node">
<title>Node13</title>
<g id="a_node13"><a xlink:title=" ">
<polygon fill="white" stroke="#bfbfbf" points="871,-56.5 871,-75.5 917,-75.5 917,-56.5 871,-56.5"/>
<text text-anchor="middle" x="894" y="-63.5" font-family="Helvetica,sans-Serif" font-size="10.00">future</text>
</a>
</g>
</g>
<!-- Node4&#45;&gt;Node13 -->
<g id="edge13" class="edge">
<title>Node4&#45;&gt;Node13</title>
<path fill="none" stroke="midnightblue" d="M924.06,-112.08C919.02,-104.53 911.66,-93.49 905.49,-84.23"/>
<polygon fill="midnightblue" stroke="midnightblue" points="908.29,-82.13 899.83,-75.75 902.47,-86.01 908.29,-82.13"/>
</g>
<!-- Node14 -->
<g id="node14" class="node">
<title>Node14</title>
<g id="a_node14"><a xlink:title=" ">
<polygon fill="white" stroke="#bfbfbf" points="355,-56.5 355,-75.5 405,-75.5 405,-56.5 355,-56.5"/>
<text text-anchor="middle" x="380" y="-63.5" font-family="Helvetica,sans-Serif" font-size="10.00">fftw3.h</text>
</a>
</g>
</g>
<!-- Node4&#45;&gt;Node14 -->
<g id="edge15" class="edge">
<title>Node4&#45;&gt;Node14</title>
<path fill="none" stroke="midnightblue" d="M901.86,-119.9C824.41,-116.56 601.73,-104.99 419,-76 417.73,-75.8 416.43,-75.58 415.13,-75.34"/>
<polygon fill="midnightblue" stroke="midnightblue" points="415.57,-71.86 405.07,-73.33 414.19,-78.73 415.57,-71.86"/>
</g>
<!-- Node15 -->
<g id="node15" class="node">
<title>Node15</title>
<g id="a_node15"><a xlink:title=" ">
<polygon fill="white" stroke="#bfbfbf" points="606,-0.5 606,-19.5 656,-19.5 656,-0.5 606,-0.5"/>
<text text-anchor="middle" x="631" y="-7.5" font-family="Helvetica,sans-Serif" font-size="10.00">chrono</text>
</a>
</g>
</g>
<!-- Node4&#45;&gt;Node15 -->
<g id="edge16" class="edge">
<title>Node4&#45;&gt;Node15</title>
<path fill="none" stroke="midnightblue" d="M901.87,-119.57C821.26,-115.18 593.78,-100.69 572,-76 556.14,-58.02 582.05,-37.59 604.39,-24.51"/>
<polygon fill="midnightblue" stroke="midnightblue" points="606.27,-27.47 613.3,-19.55 602.86,-21.36 606.27,-27.47"/>
</g>
<!-- Node16 -->
<g id="node16" class="node">
<title>Node16</title>
<g id="a_node16"><a xlink:title=" ">
<polygon fill="white" stroke="#bfbfbf" points="935,-56.5 935,-75.5 999,-75.5 999,-56.5 935,-56.5"/>
<text text-anchor="middle" x="967" y="-63.5" font-family="Helvetica,sans-Serif" font-size="10.00">algorithm</text>
</a>
</g>
</g>
<!-- Node4&#45;&gt;Node16 -->
<g id="edge17" class="edge">
<title>Node4&#45;&gt;Node16</title>
<path fill="none" stroke="midnightblue" d="M936.11,-112.08C941.28,-104.53 948.85,-93.49 955.19,-84.23"/>
<polygon fill="midnightblue" stroke="midnightblue" points="958.24,-85.98 961,-75.75 952.46,-82.02 958.24,-85.98"/>
</g>
<!-- Node17 -->
<g id="node17" class="node">
<title>Node17</title>
<g id="a_node17"><a xlink:href="../../d7/d50/BoundedThreadPool_8hpp.html" target="_top" xlink:title=" ">
<polygon fill="white" stroke="black" points="201.5,-56.5 201.5,-75.5 336.5,-75.5 336.5,-56.5 201.5,-56.5"/>
<text text-anchor="middle" x="269" y="-63.5" font-family="Helvetica,sans-Serif" font-size="10.00">BoundedThreadPool.hpp</text>
</a>
</g>
</g>
<!-- Node4&#45;&gt;Node17 -->
<g id="edge18" class="edge">
<title>Node4&#45;&gt;Node17</title>
<path fill="none" stroke="midnightblue" d="M901.71,-119.22C818.48,-113.89 567.08,-97.19 346.73,-76.03"/>
<polygon fill="midnightblue" stroke="midnightblue" points="346.88,-72.53 336.59,-75.05 346.21,-79.5 346.88,-72.53"/>
</g>
<!-- Node23 -->
<g id="node23" class="node">
<title>Node23</title>
<g id="a_node23"><a xlink:title=" ">
<polygon fill="white" stroke="#bfbfbf" points="1017,-56.5 1017,-75.5 1119,-75.5 1119,-56.5 1017,-56.5"/>
<text text-anchor="middle" x="1068" y="-63.5" font-family="Helvetica,sans-Serif" font-size="10.00">tinycolormap.hpp</text>
</a>
</g>
</g>
<!-- Node4&#45;&gt;Node23 -->
<g id="edge26" class="edge">
<title>Node4&#45;&gt;Node23</title>
<path fill="none" stroke="midnightblue" d="M951.87,-112.44C974.78,-103.48 1010.98,-89.31 1036.87,-79.18"/>
<polygon fill="midnightblue" stroke="midnightblue" points="1038.2,-82.42 1046.24,-75.52 1035.65,-75.9 1038.2,-82.42"/>
</g>
<!-- Node24 -->
<g id="node24" class="node">
<title>Node24</title>
<g id="a_node24"><a xlink:href="../../d0/d3c/SocketConnector_8h.html" target="_top" xlink:title=" ">
<polygon fill="white" stroke="black" points="1421.5,-56.5 1421.5,-75.5 1528.5,-75.5 1528.5,-56.5 1421.5,-56.5"/>
<text text-anchor="middle" x="1475" y="-63.5" font-family="Helvetica,sans-Serif" font-size="10.00">SocketConnector.h</text>
</a>
</g>
</g>
<!-- Node4&#45;&gt;Node24 -->
<g id="edge27" class="edge">
<title>Node4&#45;&gt;Node24</title>
<path fill="none" stroke="midnightblue" d="M958.15,-118.21C1042.13,-109.89 1292.38,-85.09 1411.12,-73.33"/>
<polygon fill="midnightblue" stroke="midnightblue" points="1411.55,-76.8 1421.16,-72.34 1410.86,-69.84 1411.55,-76.8"/>
</g>
<!-- Node28 -->
<g id="node28" class="node">
<title>Node28</title>
<g id="a_node28"><a xlink:href="../../da/dce/ProgressMonitor_8h.html" target="_top" xlink:title=" ">
<polygon fill="white" stroke="black" points="581,-56.5 581,-75.5 685,-75.5 685,-56.5 581,-56.5"/>
<text text-anchor="middle" x="633" y="-63.5" font-family="Helvetica,sans-Serif" font-size="10.00">ProgressMonitor.h</text>
</a>
</g>
</g>
<!-- Node4&#45;&gt;Node28 -->
<g id="edge34" class="edge">
<title>Node4&#45;&gt;Node28</title>
<path fill="none" stroke="midnightblue" d="M901.79,-115.87C853.27,-107.05 753.14,-88.84 689.73,-77.31"/>
<polygon fill="midnightblue" stroke="midnightblue" points="690.34,-73.87 679.88,-75.52 689.09,-80.76 690.34,-73.87"/>
</g>
<!-- Node31 -->
<g id="node31" class="node">
<title>Node31</title>
<g id="a_node31"><a xlink:title=" ">
<polygon fill="white" stroke="#bfbfbf" points="1137,-56.5 1137,-75.5 1237,-75.5 1237,-56.5 1137,-56.5"/>
<text text-anchor="middle" x="1187" y="-63.5" font-family="Helvetica,sans-Serif" font-size="10.00">MerlinInterface.h</text>
</a>
</g>
</g>
<!-- Node4&#45;&gt;Node31 -->
<g id="edge42" class="edge">
<title>Node4&#45;&gt;Node31</title>
<path fill="none" stroke="midnightblue" d="M958.49,-115.01C1001.33,-106.01 1083.01,-88.85 1136.22,-77.67"/>
<polygon fill="midnightblue" stroke="midnightblue" points="1137.07,-81.07 1146.13,-75.59 1135.63,-74.22 1137.07,-81.07"/>
</g>
<!-- Node32 -->
<g id="node32" class="node">
<title>Node32</title>
<g id="a_node32"><a xlink:title=" ">
<polygon fill="white" stroke="#bfbfbf" points="1255.5,-56.5 1255.5,-75.5 1364.5,-75.5 1364.5,-56.5 1255.5,-56.5"/>
<text text-anchor="middle" x="1310" y="-63.5" font-family="Helvetica,sans-Serif" font-size="10.00">TimepixInterface.h</text>
</a>
</g>
</g>
<!-- Node4&#45;&gt;Node32 -->
<g id="edge43" class="edge">
<title>Node4&#45;&gt;Node32</title>
<path fill="none" stroke="midnightblue" d="M958.25,-116.99C1018.58,-108.41 1161.32,-88.13 1245.25,-76.2"/>
<polygon fill="midnightblue" stroke="midnightblue" points="1245.78,-79.66 1255.19,-74.79 1244.8,-72.73 1245.78,-79.66"/>
</g>
<!-- Node33 -->
<g id="node33" class="node">
<title>Node33</title>
<g id="a_node33"><a xlink:href="../../dd/de4/Camera_8h.html" target="_top" xlink:title=" ">
<polygon fill="white" stroke="black" points="461,-56.5 461,-75.5 525,-75.5 525,-56.5 461,-56.5"/>
<text text-anchor="middle" x="493" y="-63.5" font-family="Helvetica,sans-Serif" font-size="10.00">Camera.h</text>
</a>
</g>
</g>
<!-- Node4&#45;&gt;Node33 -->
<g id="edge44" class="edge">
<title>Node4&#45;&gt;Node33</title>
<path fill="none" stroke="midnightblue" d="M901.93,-118.53C837.54,-112.71 674.38,-97 539,-76 537.73,-75.8 536.45,-75.6 535.15,-75.38"/>
<polygon fill="midnightblue" stroke="midnightblue" points="535.57,-71.9 525.11,-73.62 534.36,-78.8 535.57,-71.9"/>
</g>
<!-- Node17&#45;&gt;Node3 -->
<g id="edge19" class="edge">
<title>Node17&#45;&gt;Node3</title>
<path fill="none" stroke="midnightblue" d="M224.98,-56.42C184.09,-48.28 121.28,-35.34 57.88,-20.11"/>
<polygon fill="midnightblue" stroke="midnightblue" points="58.65,-16.7 48.11,-17.75 57.01,-23.5 58.65,-16.7"/>
</g>
<!-- Node17&#45;&gt;Node12 -->
<g id="edge22" class="edge">
<title>Node17&#45;&gt;Node12</title>
<path fill="none" stroke="midnightblue" d="M284.26,-56.32C299.22,-47.82 322.25,-34.73 339.73,-24.8"/>
<polygon fill="midnightblue" stroke="midnightblue" points="341.81,-27.64 348.77,-19.65 338.35,-21.55 341.81,-27.64"/>
</g>
<!-- Node18 -->
<g id="node18" class="node">
<title>Node18</title>
<g id="a_node18"><a xlink:title=" ">
<polygon fill="white" stroke="#bfbfbf" points="191.5,-0.5 191.5,-19.5 238.5,-19.5 238.5,-0.5 191.5,-0.5"/>
<text text-anchor="middle" x="215" y="-7.5" font-family="Helvetica,sans-Serif" font-size="10.00">queue</text>
</a>
</g>
</g>
<!-- Node17&#45;&gt;Node18 -->
<g id="edge20" class="edge">
<title>Node17&#45;&gt;Node18</title>
<path fill="none" stroke="midnightblue" d="M260.08,-56.08C252.22,-48.22 240.57,-36.57 231.08,-27.08"/>
<polygon fill="midnightblue" stroke="midnightblue" points="233.3,-24.35 223.75,-19.75 228.35,-29.3 233.3,-24.35"/>
</g>
<!-- Node19 -->
<g id="node19" class="node">
<title>Node19</title>
<g id="a_node19"><a xlink:title=" ">
<polygon fill="white" stroke="#bfbfbf" points="256.5,-0.5 256.5,-19.5 321.5,-19.5 321.5,-0.5 256.5,-0.5"/>
<text text-anchor="middle" x="289" y="-7.5" font-family="Helvetica,sans-Serif" font-size="10.00">functional</text>
</a>
</g>
</g>
<!-- Node17&#45;&gt;Node19 -->
<g id="edge21" class="edge">
<title>Node17&#45;&gt;Node19</title>
<path fill="none" stroke="midnightblue" d="M272.3,-56.08C274.98,-48.85 278.85,-38.41 282.19,-29.4"/>
<polygon fill="midnightblue" stroke="midnightblue" points="285.57,-30.34 285.76,-19.75 279,-27.91 285.57,-30.34"/>
</g>
<!-- Node20 -->
<g id="node20" class="node">
<title>Node20</title>
<g id="a_node20"><a xlink:title=" ">
<polygon fill="white" stroke="#bfbfbf" points="66.5,-0.5 66.5,-19.5 173.5,-19.5 173.5,-0.5 66.5,-0.5"/>
<text text-anchor="middle" x="120" y="-7.5" font-family="Helvetica,sans-Serif" font-size="10.00">condition_variable</text>
</a>
</g>
</g>
<!-- Node17&#45;&gt;Node20 -->
<g id="edge23" class="edge">
<title>Node17&#45;&gt;Node20</title>
<path fill="none" stroke="midnightblue" d="M245.39,-56.44C220.54,-47.44 181.23,-33.19 153.25,-23.05"/>
<polygon fill="midnightblue" stroke="midnightblue" points="154.09,-19.63 143.5,-19.52 151.71,-26.21 154.09,-19.63"/>
</g>
<!-- Node21 -->
<g id="node21" class="node">
<title>Node21</title>
<g id="a_node21"><a xlink:title=" ">
<polygon fill="white" stroke="#bfbfbf" points="538,-0.5 538,-19.5 588,-19.5 588,-0.5 538,-0.5"/>
<text text-anchor="middle" x="563" y="-7.5" font-family="Helvetica,sans-Serif" font-size="10.00">atomic</text>
</a>
</g>
</g>
<!-- Node17&#45;&gt;Node21 -->
<g id="edge24" class="edge">
<title>Node17&#45;&gt;Node21</title>
<path fill="none" stroke="midnightblue" d="M326.85,-56.47C377.46,-48.68 453.12,-36.21 527.76,-20.12"/>
<polygon fill="midnightblue" stroke="midnightblue" points="528.78,-23.48 537.81,-17.93 527.29,-16.64 528.78,-23.48"/>
</g>
<!-- Node22 -->
<g id="node22" class="node">
<title>Node22</title>
<g id="a_node22"><a xlink:title=" ">
<polygon fill="white" stroke="#bfbfbf" points="981,-0.5 981,-19.5 1041,-19.5 1041,-0.5 981,-0.5"/>
<text text-anchor="middle" x="1011" y="-7.5" font-family="Helvetica,sans-Serif" font-size="10.00">iostream</text>
</a>
</g>
</g>
<!-- Node17&#45;&gt;Node22 -->
<g id="edge25" class="edge">
<title>Node17&#45;&gt;Node22</title>
<path fill="none" stroke="midnightblue" d="M336.59,-56.91C339.77,-56.59 342.92,-56.28 346,-56 586.86,-33.95 647.73,-36.9 889,-20 916.31,-18.09 947.06,-15.82 970.85,-14.04"/>
<polygon fill="midnightblue" stroke="midnightblue" points="971.21,-17.52 980.92,-13.28 970.69,-10.54 971.21,-17.52"/>
</g>
<!-- Node24&#45;&gt;Node2 -->
<g id="edge32" class="edge">
<title>Node24&#45;&gt;Node2</title>
<path fill="none" stroke="midnightblue" d="M1528.56,-59.94C1645.55,-48.9 1920.99,-22.9 2014.95,-14.03"/>
<polygon fill="midnightblue" stroke="midnightblue" points="2015.36,-17.5 2024.98,-13.08 2014.7,-10.53 2015.36,-17.5"/>
</g>
<!-- Node24&#45;&gt;Node5 -->
<g id="edge29" class="edge">
<title>Node24&#45;&gt;Node5</title>
<path fill="none" stroke="midnightblue" d="M1488.01,-56.32C1500.53,-47.98 1519.68,-35.21 1534.47,-25.35"/>
<polygon fill="midnightblue" stroke="midnightblue" points="1536.64,-28.11 1543.02,-19.65 1532.76,-22.29 1536.64,-28.11"/>
</g>
<!-- Node24&#45;&gt;Node22 -->
<g id="edge33" class="edge">
<title>Node24&#45;&gt;Node22</title>
<path fill="none" stroke="midnightblue" d="M1421.19,-57.78C1416.39,-57.17 1411.61,-56.57 1407,-56 1277.07,-40.02 1122.9,-23.08 1051.28,-15.33"/>
<polygon fill="midnightblue" stroke="midnightblue" points="1051.65,-11.85 1041.33,-14.25 1050.89,-18.81 1051.65,-11.85"/>
</g>
<!-- Node25 -->
<g id="node25" class="node">
<title>Node25</title>
<g id="a_node25"><a xlink:title=" ">
<polygon fill="white" stroke="#bfbfbf" points="1440.5,-0.5 1440.5,-19.5 1509.5,-19.5 1509.5,-0.5 1440.5,-0.5"/>
<text text-anchor="middle" x="1475" y="-7.5" font-family="Helvetica,sans-Serif" font-size="10.00">arpa/inet.h</text>
</a>
</g>
</g>
<!-- Node24&#45;&gt;Node25 -->
<g id="edge28" class="edge">
<title>Node24&#45;&gt;Node25</title>
<path fill="none" stroke="midnightblue" d="M1475,-56.08C1475,-49.01 1475,-38.86 1475,-29.99"/>
<polygon fill="midnightblue" stroke="midnightblue" points="1478.5,-29.75 1475,-19.75 1471.5,-29.75 1478.5,-29.75"/>
</g>
<!-- Node26 -->
<g id="node26" class="node">
<title>Node26</title>
<g id="a_node26"><a xlink:title=" ">
<polygon fill="white" stroke="#bfbfbf" points="1375.5,-0.5 1375.5,-19.5 1422.5,-19.5 1422.5,-0.5 1375.5,-0.5"/>
<text text-anchor="middle" x="1399" y="-7.5" font-family="Helvetica,sans-Serif" font-size="10.00">cerrno</text>
</a>
</g>
</g>
<!-- Node24&#45;&gt;Node26 -->
<g id="edge30" class="edge">
<title>Node24&#45;&gt;Node26</title>
<path fill="none" stroke="midnightblue" d="M1462.79,-56.32C1451.22,-48.11 1433.62,-35.6 1419.84,-25.81"/>
<polygon fill="midnightblue" stroke="midnightblue" points="1421.61,-22.77 1411.43,-19.83 1417.56,-28.48 1421.61,-22.77"/>
</g>
<!-- Node27 -->
<g id="node27" class="node">
<title>Node27</title>
<g id="a_node27"><a xlink:title=" ">
<polygon fill="white" stroke="#bfbfbf" points="1224,-0.5 1224,-19.5 1274,-19.5 1274,-0.5 1224,-0.5"/>
<text text-anchor="middle" x="1249" y="-7.5" font-family="Helvetica,sans-Serif" font-size="10.00">cstring</text>
</a>
</g>
</g>
<!-- Node24&#45;&gt;Node27 -->
<g id="edge31" class="edge">
<title>Node24&#45;&gt;Node27</title>
<path fill="none" stroke="midnightblue" d="M1439.19,-56.44C1396.65,-46.28 1326.14,-29.43 1283.97,-19.36"/>
<polygon fill="midnightblue" stroke="midnightblue" points="1284.69,-15.93 1274.15,-17.01 1283.06,-22.74 1284.69,-15.93"/>
</g>
<!-- Node28&#45;&gt;Node6 -->
<g id="edge41" class="edge">
<title>Node28&#45;&gt;Node6</title>
<path fill="none" stroke="midnightblue" d="M670.58,-56.49C706.95,-48.17 763.87,-34.92 822.44,-20.08"/>
<polygon fill="midnightblue" stroke="midnightblue" points="823.4,-23.44 832.23,-17.58 821.68,-16.66 823.4,-23.44"/>
</g>
<!-- Node28&#45;&gt;Node15 -->
<g id="edge40" class="edge">
<title>Node28&#45;&gt;Node15</title>
<path fill="none" stroke="midnightblue" d="M632.67,-56.08C632.41,-49.01 632.03,-38.86 631.7,-29.99"/>
<polygon fill="midnightblue" stroke="midnightblue" points="635.19,-29.61 631.32,-19.75 628.2,-29.87 635.19,-29.61"/>
</g>
<!-- Node28&#45;&gt;Node21 -->
<g id="edge39" class="edge">
<title>Node28&#45;&gt;Node21</title>
<path fill="none" stroke="midnightblue" d="M621.75,-56.32C611.2,-48.18 595.2,-35.84 582.56,-26.09"/>
<polygon fill="midnightblue" stroke="midnightblue" points="584.51,-23.17 574.45,-19.83 580.23,-28.71 584.51,-23.17"/>
</g>
<!-- Node28&#45;&gt;Node22 -->
<g id="edge36" class="edge">
<title>Node28&#45;&gt;Node22</title>
<path fill="none" stroke="midnightblue" d="M685.16,-57.55C761.45,-46.65 901.84,-26.59 970.73,-16.75"/>
<polygon fill="midnightblue" stroke="midnightblue" points="971.35,-20.2 980.75,-15.32 970.36,-13.27 971.35,-20.2"/>
</g>
<!-- Node28&#45;&gt;Node27 -->
<g id="edge38" class="edge">
<title>Node28&#45;&gt;Node27</title>
<path fill="none" stroke="midnightblue" d="M685.15,-60.22C700.26,-58.85 716.79,-57.35 732,-56 913.19,-39.88 1130.16,-21.2 1213.77,-14.02"/>
<polygon fill="midnightblue" stroke="midnightblue" points="1214.31,-17.49 1223.98,-13.14 1213.72,-10.51 1214.31,-17.49"/>
</g>
<!-- Node29 -->
<g id="node29" class="node">
<title>Node29</title>
<g id="a_node29"><a xlink:title=" ">
<polygon fill="white" stroke="#bfbfbf" points="674,-0.5 674,-19.5 740,-19.5 740,-0.5 674,-0.5"/>
<text text-anchor="middle" x="707" y="-7.5" font-family="Helvetica,sans-Serif" font-size="10.00">sys/ioctl.h</text>
</a>
</g>
</g>
<!-- Node28&#45;&gt;Node29 -->
<g id="edge35" class="edge">
<title>Node28&#45;&gt;Node29</title>
<path fill="none" stroke="midnightblue" d="M644.89,-56.32C656.15,-48.11 673.29,-35.6 686.71,-25.81"/>
<polygon fill="midnightblue" stroke="midnightblue" points="688.88,-28.56 694.89,-19.83 684.75,-22.9 688.88,-28.56"/>
</g>
<!-- Node30 -->
<g id="node30" class="node">
<title>Node30</title>
<g id="a_node30"><a xlink:title=" ">
<polygon fill="white" stroke="#bfbfbf" points="758,-0.5 758,-19.5 814,-19.5 814,-0.5 758,-0.5"/>
<text text-anchor="middle" x="786" y="-7.5" font-family="Helvetica,sans-Serif" font-size="10.00">iomanip</text>
</a>
</g>
</g>
<!-- Node28&#45;&gt;Node30 -->
<g id="edge37" class="edge">
<title>Node28&#45;&gt;Node30</title>
<path fill="none" stroke="midnightblue" d="M657.24,-56.44C682.87,-47.4 723.49,-33.06 752.24,-22.92"/>
<polygon fill="midnightblue" stroke="midnightblue" points="753.61,-26.15 761.87,-19.52 751.28,-19.54 753.61,-26.15"/>
</g>
<!-- Node33&#45;&gt;Node10 -->
<g id="edge45" class="edge">
<title>Node33&#45;&gt;Node10</title>
<path fill="none" stroke="midnightblue" d="M525.23,-60.75C539.53,-59.01 556.58,-57.15 572,-56 1021.49,-22.52 1142.32,-87.23 1592.33,-19.67"/>
<polygon fill="midnightblue" stroke="midnightblue" points="1592.98,-23.11 1602.35,-18.15 1591.94,-16.19 1592.98,-23.11"/>
</g>
<!-- Node33&#45;&gt;Node21 -->
<g id="edge46" class="edge">
<title>Node33&#45;&gt;Node21</title>
<path fill="none" stroke="midnightblue" d="M504.25,-56.32C514.8,-48.18 530.8,-35.84 543.44,-26.09"/>
<polygon fill="midnightblue" stroke="midnightblue" points="545.77,-28.71 551.55,-19.83 541.49,-23.17 545.77,-28.71"/>
</g>
<!-- Node34 -->
<g id="node34" class="node">
<title>Node34</title>
<g id="a_node34"><a xlink:title=" ">
<polygon fill="white" stroke="#bfbfbf" points="406,-0.5 406,-19.5 448,-19.5 448,-0.5 406,-0.5"/>
<text text-anchor="middle" x="427" y="-7.5" font-family="Helvetica,sans-Serif" font-size="10.00">array</text>
</a>
</g>
</g>
<!-- Node33&#45;&gt;Node34 -->
<g id="edge47" class="edge">
<title>Node33&#45;&gt;Node34</title>
<path fill="none" stroke="midnightblue" d="M482.4,-56.32C472.54,-48.26 457.65,-36.08 445.78,-26.37"/>
<polygon fill="midnightblue" stroke="midnightblue" points="447.75,-23.46 437.8,-19.83 443.32,-28.88 447.75,-23.46"/>
</g>
<!-- Node35 -->
<g id="node35" class="node">
<title>Node35</title>
<g id="a_node35"><a xlink:title=" ">
<polygon fill="white" stroke="#bfbfbf" points="466.5,-0.5 466.5,-19.5 519.5,-19.5 519.5,-0.5 466.5,-0.5"/>
<text text-anchor="middle" x="493" y="-7.5" font-family="Helvetica,sans-Serif" font-size="10.00">stdlib.h</text>
</a>
</g>
</g>
<!-- Node33&#45;&gt;Node35 -->
<g id="edge48" class="edge">
<title>Node33&#45;&gt;Node35</title>
<path fill="none" stroke="midnightblue" d="M493,-56.08C493,-49.01 493,-38.86 493,-29.99"/>
<polygon fill="midnightblue" stroke="midnightblue" points="496.5,-29.75 493,-19.75 489.5,-29.75 496.5,-29.75"/>
</g>
<!-- Node36&#45;&gt;Node11 -->
<g id="edge50" class="edge">
<title>Node36&#45;&gt;Node11</title>
<path fill="none" stroke="midnightblue" d="M1717.23,-112.08C1711.44,-104.46 1702.94,-93.26 1695.86,-83.94"/>
<polygon fill="midnightblue" stroke="midnightblue" points="1698.48,-81.6 1689.64,-75.75 1692.9,-85.83 1698.48,-81.6"/>
</g>
<!-- Node36&#45;&gt;Node22 -->
<g id="edge53" class="edge">
<title>Node36&#45;&gt;Node22</title>
<path fill="none" stroke="midnightblue" d="M1668.84,-118.5C1605.7,-114.4 1499.8,-103.69 1413,-76 1394.44,-70.08 1392.62,-61.73 1374,-56 1260.79,-21.16 1119.85,-13.2 1051.68,-11.44"/>
<polygon fill="midnightblue" stroke="midnightblue" points="1051.46,-7.94 1041.38,-11.21 1051.3,-14.94 1051.46,-7.94"/>
</g>
<!-- Node37 -->
<g id="node37" class="node">
<title>Node37</title>
<g id="a_node37"><a xlink:title=" ">
<polygon fill="white" stroke="#bfbfbf" points="1902,-56.5 1902,-75.5 1982,-75.5 1982,-56.5 1902,-56.5"/>
<text text-anchor="middle" x="1942" y="-63.5" font-family="Helvetica,sans-Serif" font-size="10.00">SDL_image.h</text>
</a>
</g>
</g>
<!-- Node36&#45;&gt;Node37 -->
<g id="edge51" class="edge">
<title>Node36&#45;&gt;Node37</title>
<path fill="none" stroke="midnightblue" d="M1758.54,-112.44C1796.25,-103.1 1856.74,-88.12 1897.86,-77.93"/>
<polygon fill="midnightblue" stroke="midnightblue" points="1898.75,-81.32 1907.62,-75.52 1897.07,-74.52 1898.75,-81.32"/>
</g>
<!-- Node38 -->
<g id="node38" class="node">
<title>Node38</title>
<g id="a_node38"><a xlink:title=" ">
<polygon fill="white" stroke="#bfbfbf" points="1723.5,-56.5 1723.5,-75.5 1806.5,-75.5 1806.5,-56.5 1723.5,-56.5"/>
<text text-anchor="middle" x="1765" y="-63.5" font-family="Helvetica,sans-Serif" font-size="10.00">SDL_opengl.h</text>
</a>
</g>
</g>
<!-- Node36&#45;&gt;Node38 -->
<g id="edge52" class="edge">
<title>Node36&#45;&gt;Node38</title>
<path fill="none" stroke="midnightblue" d="M1730.77,-112.08C1736.56,-104.46 1745.06,-93.26 1752.14,-83.94"/>
<polygon fill="midnightblue" stroke="midnightblue" points="1755.1,-85.83 1758.36,-75.75 1749.52,-81.6 1755.1,-85.83"/>
</g>
<!-- Node39&#45;&gt;Node2 -->
<g id="edge55" class="edge">
<title>Node39&#45;&gt;Node2</title>
<path fill="none" stroke="midnightblue" d="M2103.5,-121.45C2176.28,-121.7 2348.79,-117.77 2385,-76 2390.82,-69.28 2390.86,-62.69 2385,-56 2364.99,-33.14 2159.73,-18.01 2079.19,-12.91"/>
<polygon fill="midnightblue" stroke="midnightblue" points="2079.32,-9.41 2069.12,-12.28 2078.88,-16.4 2079.32,-9.41"/>
</g>
<!-- Node39&#45;&gt;Node8 -->
<g id="edge57" class="edge">
<title>Node39&#45;&gt;Node8</title>
<path fill="none" stroke="midnightblue" d="M2038.04,-112.8C1999.27,-103.15 1934.94,-87.14 1893.52,-76.83"/>
<polygon fill="midnightblue" stroke="midnightblue" points="1894.32,-73.43 1883.77,-74.41 1892.63,-80.22 1894.32,-73.43"/>
</g>
<!-- Node39&#45;&gt;Node10 -->
<g id="edge56" class="edge">
<title>Node39&#45;&gt;Node10</title>
<path fill="none" stroke="midnightblue" d="M2063.62,-112.47C2050.59,-98.06 2021.95,-69.18 1991,-56 1931.67,-30.74 1738.71,-17.33 1659.95,-12.79"/>
<polygon fill="midnightblue" stroke="midnightblue" points="1659.8,-9.28 1649.62,-12.21 1659.41,-16.27 1659.8,-9.28"/>
</g>
<!-- Node39&#45;&gt;Node37 -->
<g id="edge59" class="edge">
<title>Node39&#45;&gt;Node37</title>
<path fill="none" stroke="midnightblue" d="M2050.56,-112.44C2029.33,-103.56 1995.9,-89.56 1971.75,-79.45"/>
<polygon fill="midnightblue" stroke="midnightblue" points="1972.92,-76.15 1962.34,-75.52 1970.22,-82.61 1972.92,-76.15"/>
</g>
<!-- Node40 -->
<g id="node40" class="node">
<title>Node40</title>
<g id="a_node40"><a xlink:title=" ">
<polygon fill="white" stroke="#bfbfbf" points="2122,-56.5 2122,-75.5 2190,-75.5 2190,-56.5 2122,-56.5"/>
<text text-anchor="middle" x="2156" y="-63.5" font-family="Helvetica,sans-Serif" font-size="10.00">filesystem</text>
</a>
</g>
</g>
<!-- Node39&#45;&gt;Node40 -->
<g id="edge58" class="edge">
<title>Node39&#45;&gt;Node40</title>
<path fill="none" stroke="midnightblue" d="M2084.66,-112.32C2097.92,-103.9 2118.27,-90.97 2133.85,-81.07"/>
<polygon fill="midnightblue" stroke="midnightblue" points="2135.81,-83.97 2142.38,-75.65 2132.06,-78.06 2135.81,-83.97"/>
</g>
<!-- Node41 -->
<g id="node41" class="node">
<title>Node41</title>
<g id="a_node41"><a xlink:title=" ">
<polygon fill="white" stroke="#bfbfbf" points="2208.5,-56.5 2208.5,-75.5 2261.5,-75.5 2261.5,-56.5 2208.5,-56.5"/>
<text text-anchor="middle" x="2235" y="-63.5" font-family="Helvetica,sans-Serif" font-size="10.00">imgui.h</text>
</a>
</g>
</g>
<!-- Node39&#45;&gt;Node41 -->
<g id="edge60" class="edge">
<title>Node39&#45;&gt;Node41</title>
<path fill="none" stroke="midnightblue" d="M2096.99,-112.44C2124.7,-103.32 2168.75,-88.81 2199.62,-78.65"/>
<polygon fill="midnightblue" stroke="midnightblue" points="2200.73,-81.97 2209.14,-75.52 2198.54,-75.32 2200.73,-81.97"/>
</g>
<!-- Node42 -->
<g id="node42" class="node">
<title>Node42</title>
<g id="a_node42"><a xlink:title=" ">
<polygon fill="white" stroke="#bfbfbf" points="2280,-56.5 2280,-75.5 2376,-75.5 2376,-56.5 2280,-56.5"/>
<text text-anchor="middle" x="2328" y="-63.5" font-family="Helvetica,sans-Serif" font-size="10.00">imgui_internal.h</text>
</a>
</g>
</g>
<!-- Node39&#45;&gt;Node42 -->
<g id="edge61" class="edge">
<title>Node39&#45;&gt;Node42</title>
<path fill="none" stroke="midnightblue" d="M2103.55,-114.16C2147.36,-104.96 2225.75,-88.48 2277.32,-77.65"/>
<polygon fill="midnightblue" stroke="midnightblue" points="2278.19,-81.04 2287.26,-75.56 2276.75,-74.19 2278.19,-81.04"/>
</g>
<!-- Node43 -->
<g id="node43" class="node">
<title>Node43</title>
<g id="a_node43"><a xlink:title=" ">
<polygon fill="white" stroke="#bfbfbf" points="2038,-56.5 2038,-75.5 2104,-75.5 2104,-56.5 2038,-56.5"/>
<text text-anchor="middle" x="2071" y="-63.5" font-family="Helvetica,sans-Serif" font-size="10.00">libnpy.hpp</text>
</a>
</g>
</g>
<!-- Node39&#45;&gt;Node43 -->
<g id="edge62" class="edge">
<title>Node39&#45;&gt;Node43</title>
<path fill="none" stroke="midnightblue" d="M2071,-112.08C2071,-105.01 2071,-94.86 2071,-85.99"/>
<polygon fill="midnightblue" stroke="midnightblue" points="2074.5,-85.75 2071,-75.75 2067.5,-85.75 2074.5,-85.75"/>
</g>
</g>
</svg>
