<?xml version="1.0" encoding="UTF-8" standalone="no"?>
<!DOCTYPE svg PUBLIC "-//W3C//DTD SVG 1.1//EN"
 "http://www.w3.org/Graphics/SVG/1.1/DTD/svg11.dtd">
<!-- Generated by graphviz version 2.43.0 (0)
 -->
<!-- Title: src/RunCLI.cpp Pages: 1 -->
<svg width="2140pt" height="196pt"
 viewBox="0.00 0.00 2140.00 196.00" xmlns="http://www.w3.org/2000/svg" xmlns:xlink="http://www.w3.org/1999/xlink">
<g id="graph0" class="graph" transform="scale(1 1) rotate(0) translate(4 192)">
<title>src/RunCLI.cpp</title>
<polygon fill="white" stroke="transparent" points="-4,4 -4,-192 2136,-192 2136,4 -4,4"/>
<!-- Node1 -->
<g id="node1" class="node">
<title>Node1</title>
<g id="a_node1"><a xlink:title=" ">
<polygon fill="#bfbfbf" stroke="black" points="1607,-168.5 1607,-187.5 1695,-187.5 1695,-168.5 1607,-168.5"/>
<text text-anchor="middle" x="1651" y="-175.5" font-family="Helvetica,sans-Serif" font-size="10.00">src/RunCLI.cpp</text>
</a>
</g>
</g>
<!-- Node2 -->
<g id="node2" class="node">
<title>Node2</title>
<g id="a_node2"><a xlink:title=" ">
<polygon fill="white" stroke="#bfbfbf" points="1325,-0.5 1325,-19.5 1369,-19.5 1369,-0.5 1325,-0.5"/>
<text text-anchor="middle" x="1347" y="-7.5" font-family="Helvetica,sans-Serif" font-size="10.00">string</text>
</a>
</g>
</g>
<!-- Node1&#45;&gt;Node2 -->
<g id="edge1" class="edge">
<title>Node1&#45;&gt;Node2</title>
<path fill="none" stroke="midnightblue" d="M1667.37,-168.4C1703.76,-148.24 1785.34,-96.58 1749,-56 1700.37,-1.71 1495.41,-28.29 1423,-20 1408.73,-18.37 1392.96,-16.51 1379.5,-14.91"/>
<polygon fill="midnightblue" stroke="midnightblue" points="1379.62,-11.4 1369.28,-13.68 1378.79,-18.35 1379.62,-11.4"/>
</g>
<!-- Node3 -->
<g id="node3" class="node">
<title>Node3</title>
<g id="a_node3"><a xlink:title=" ">
<polygon fill="white" stroke="#bfbfbf" points="0,-0.5 0,-19.5 48,-19.5 48,-0.5 0,-0.5"/>
<text text-anchor="middle" x="24" y="-7.5" font-family="Helvetica,sans-Serif" font-size="10.00">thread</text>
</a>
</g>
</g>
<!-- Node1&#45;&gt;Node3 -->
<g id="edge2" class="edge">
<title>Node1&#45;&gt;Node3</title>
<path fill="none" stroke="midnightblue" d="M1606.86,-176.73C1363.6,-174.9 192.62,-161.67 59,-76 42.68,-65.54 33.42,-44.74 28.58,-29.48"/>
<polygon fill="midnightblue" stroke="midnightblue" points="31.88,-28.25 25.8,-19.57 25.14,-30.14 31.88,-28.25"/>
</g>
<!-- Node4 -->
<g id="node4" class="node">
<title>Node4</title>
<g id="a_node4"><a xlink:href="../../de/dfc/Ricom_8h.html" target="_top" xlink:title=" ">
<polygon fill="white" stroke="black" points="1057,-112.5 1057,-131.5 1113,-131.5 1113,-112.5 1057,-112.5"/>
<text text-anchor="middle" x="1085" y="-119.5" font-family="Helvetica,sans-Serif" font-size="10.00">Ricom.h</text>
</a>
</g>
</g>
<!-- Node1&#45;&gt;Node4 -->
<g id="edge3" class="edge">
<title>Node1&#45;&gt;Node4</title>
<path fill="none" stroke="midnightblue" d="M1606.59,-172.76C1498.73,-162.47 1224.45,-136.3 1123.26,-126.65"/>
<polygon fill="midnightblue" stroke="midnightblue" points="1123.47,-123.15 1113.18,-125.69 1122.81,-130.12 1123.47,-123.15"/>
</g>
<!-- Node36 -->
<g id="node36" class="node">
<title>Node36</title>
<g id="a_node36"><a xlink:href="../../d7/db2/GuiUtils_8h.html" target="_top" xlink:title=" ">
<polygon fill="white" stroke="black" points="1797.5,-56.5 1797.5,-75.5 1862.5,-75.5 1862.5,-56.5 1797.5,-56.5"/>
<text text-anchor="middle" x="1830" y="-63.5" font-family="Helvetica,sans-Serif" font-size="10.00">GuiUtils.h</text>
</a>
</g>
</g>
<!-- Node1&#45;&gt;Node36 -->
<g id="edge62" class="edge">
<title>Node1&#45;&gt;Node36</title>
<path fill="none" stroke="midnightblue" d="M1695.2,-169.08C1722.49,-162.54 1757.11,-151.14 1783,-132 1799.74,-119.62 1812.96,-99.53 1821.06,-84.96"/>
<polygon fill="midnightblue" stroke="midnightblue" points="1824.26,-86.4 1825.83,-75.92 1818.07,-83.13 1824.26,-86.4"/>
</g>
<!-- Node42 -->
<g id="node42" class="node">
<title>Node42</title>
<g id="a_node42"><a xlink:href="../../dc/dd0/SdlImageWindow_8h.html" target="_top" xlink:title=" ">
<polygon fill="white" stroke="black" points="1596,-112.5 1596,-131.5 1706,-131.5 1706,-112.5 1596,-112.5"/>
<text text-anchor="middle" x="1651" y="-119.5" font-family="Helvetica,sans-Serif" font-size="10.00">SdlImageWindow.h</text>
</a>
</g>
</g>
<!-- Node1&#45;&gt;Node42 -->
<g id="edge57" class="edge">
<title>Node1&#45;&gt;Node42</title>
<path fill="none" stroke="midnightblue" d="M1651,-168.08C1651,-161.01 1651,-150.86 1651,-141.99"/>
<polygon fill="midnightblue" stroke="midnightblue" points="1654.5,-141.75 1651,-131.75 1647.5,-141.75 1654.5,-141.75"/>
</g>
<!-- Node4&#45;&gt;Node2 -->
<g id="edge10" class="edge">
<title>Node4&#45;&gt;Node2</title>
<path fill="none" stroke="midnightblue" d="M1113.13,-119.04C1152.21,-115.34 1224.18,-104.87 1278,-76 1300.55,-63.91 1321.16,-42.52 1333.87,-27.6"/>
<polygon fill="midnightblue" stroke="midnightblue" points="1336.74,-29.62 1340.4,-19.68 1331.34,-25.17 1336.74,-29.62"/>
</g>
<!-- Node4&#45;&gt;Node3 -->
<g id="edge14" class="edge">
<title>Node4&#45;&gt;Node3</title>
<path fill="none" stroke="midnightblue" d="M1056.98,-120.9C904.96,-120.2 182.79,-114.82 92,-76 68.4,-65.91 48.15,-43.71 36.03,-28.07"/>
<polygon fill="midnightblue" stroke="midnightblue" points="38.64,-25.71 29.87,-19.77 33.01,-29.88 38.64,-25.71"/>
</g>
<!-- Node5 -->
<g id="node5" class="node">
<title>Node5</title>
<g id="a_node5"><a xlink:title=" ">
<polygon fill="white" stroke="#bfbfbf" points="1172,-0.5 1172,-19.5 1228,-19.5 1228,-0.5 1172,-0.5"/>
<text text-anchor="middle" x="1200" y="-7.5" font-family="Helvetica,sans-Serif" font-size="10.00">unistd.h</text>
</a>
</g>
</g>
<!-- Node4&#45;&gt;Node5 -->
<g id="edge4" class="edge">
<title>Node4&#45;&gt;Node5</title>
<path fill="none" stroke="midnightblue" d="M1113.25,-117.94C1158.25,-112.42 1243.01,-99.17 1261,-76 1275.77,-56.98 1250.06,-37.08 1227.62,-24.38"/>
<polygon fill="midnightblue" stroke="midnightblue" points="1229.11,-21.21 1218.64,-19.57 1225.8,-27.38 1229.11,-21.21"/>
</g>
<!-- Node6 -->
<g id="node6" class="node">
<title>Node6</title>
<g id="a_node6"><a xlink:title=" ">
<polygon fill="white" stroke="#bfbfbf" points="915.5,-0.5 915.5,-19.5 962.5,-19.5 962.5,-0.5 915.5,-0.5"/>
<text text-anchor="middle" x="939" y="-7.5" font-family="Helvetica,sans-Serif" font-size="10.00">cmath</text>
</a>
</g>
</g>
<!-- Node4&#45;&gt;Node6 -->
<g id="edge5" class="edge">
<title>Node4&#45;&gt;Node6</title>
<path fill="none" stroke="midnightblue" d="M1113.2,-118.26C1163.69,-112.29 1261.24,-95.39 1227,-56 1191.15,-14.76 1042.76,-30.08 972.8,-19.83"/>
<polygon fill="midnightblue" stroke="midnightblue" points="973.13,-16.34 962.68,-18.04 971.92,-23.23 973.13,-16.34"/>
</g>
<!-- Node7 -->
<g id="node7" class="node">
<title>Node7</title>
<g id="a_node7"><a xlink:title=" ">
<polygon fill="white" stroke="#bfbfbf" points="1351,-56.5 1351,-75.5 1401,-75.5 1401,-56.5 1351,-56.5"/>
<text text-anchor="middle" x="1376" y="-63.5" font-family="Helvetica,sans-Serif" font-size="10.00">stdio.h</text>
</a>
</g>
</g>
<!-- Node4&#45;&gt;Node7 -->
<g id="edge6" class="edge">
<title>Node4&#45;&gt;Node7</title>
<path fill="none" stroke="midnightblue" d="M1113.06,-116.46C1159.68,-108.81 1256.01,-92.56 1337,-76 1338.26,-75.74 1339.55,-75.47 1340.85,-75.2"/>
<polygon fill="midnightblue" stroke="midnightblue" points="1341.85,-78.56 1350.87,-73 1340.35,-71.72 1341.85,-78.56"/>
</g>
<!-- Node8 -->
<g id="node8" class="node">
<title>Node8</title>
<g id="a_node8"><a xlink:title=" ">
<polygon fill="white" stroke="#bfbfbf" points="1618.5,-0.5 1618.5,-19.5 1677.5,-19.5 1677.5,-0.5 1618.5,-0.5"/>
<text text-anchor="middle" x="1648" y="-7.5" font-family="Helvetica,sans-Serif" font-size="10.00">complex</text>
</a>
</g>
</g>
<!-- Node4&#45;&gt;Node8 -->
<g id="edge7" class="edge">
<title>Node4&#45;&gt;Node8</title>
<path fill="none" stroke="midnightblue" d="M1113.13,-121.45C1182.86,-121.85 1368.72,-118.48 1516,-76 1556.92,-64.2 1600.52,-40.2 1625.96,-24.9"/>
<polygon fill="midnightblue" stroke="midnightblue" points="1628.07,-27.71 1634.77,-19.51 1624.42,-21.74 1628.07,-27.71"/>
</g>
<!-- Node9 -->
<g id="node9" class="node">
<title>Node9</title>
<g id="a_node9"><a xlink:title=" ">
<polygon fill="white" stroke="#bfbfbf" points="1419,-56.5 1419,-75.5 1463,-75.5 1463,-56.5 1419,-56.5"/>
<text text-anchor="middle" x="1441" y="-63.5" font-family="Helvetica,sans-Serif" font-size="10.00">cfloat</text>
</a>
</g>
</g>
<!-- Node4&#45;&gt;Node9 -->
<g id="edge8" class="edge">
<title>Node4&#45;&gt;Node9</title>
<path fill="none" stroke="midnightblue" d="M1113.06,-118.5C1168.06,-113.3 1293.97,-99.95 1408.74,-76"/>
<polygon fill="midnightblue" stroke="midnightblue" points="1409.69,-79.38 1418.75,-73.88 1408.24,-72.53 1409.69,-79.38"/>
</g>
<!-- Node10 -->
<g id="node10" class="node">
<title>Node10</title>
<g id="a_node10"><a xlink:title=" ">
<polygon fill="white" stroke="#bfbfbf" points="1432.5,-0.5 1432.5,-19.5 1479.5,-19.5 1479.5,-0.5 1432.5,-0.5"/>
<text text-anchor="middle" x="1456" y="-7.5" font-family="Helvetica,sans-Serif" font-size="10.00">vector</text>
</a>
</g>
</g>
<!-- Node4&#45;&gt;Node10 -->
<g id="edge9" class="edge">
<title>Node4&#45;&gt;Node10</title>
<path fill="none" stroke="midnightblue" d="M1113.25,-119.84C1198.4,-116.06 1448.16,-102.77 1472,-76 1483.67,-62.9 1476.01,-42.65 1467.77,-28.24"/>
<polygon fill="midnightblue" stroke="midnightblue" points="1470.73,-26.37 1462.46,-19.74 1464.79,-30.08 1470.73,-26.37"/>
</g>
<!-- Node11 -->
<g id="node11" class="node">
<title>Node11</title>
<g id="a_node11"><a xlink:title=" ">
<polygon fill="white" stroke="#bfbfbf" points="1595,-56.5 1595,-75.5 1639,-75.5 1639,-56.5 1595,-56.5"/>
<text text-anchor="middle" x="1617" y="-63.5" font-family="Helvetica,sans-Serif" font-size="10.00">SDL.h</text>
</a>
</g>
</g>
<!-- Node4&#45;&gt;Node11 -->
<g id="edge11" class="edge">
<title>Node4&#45;&gt;Node11</title>
<path fill="none" stroke="midnightblue" d="M1113.16,-119.97C1189.15,-116.86 1404.53,-105.88 1581,-76 1582.25,-75.79 1583.52,-75.56 1584.8,-75.31"/>
<polygon fill="midnightblue" stroke="midnightblue" points="1585.62,-78.71 1594.64,-73.16 1584.13,-71.87 1585.62,-78.71"/>
</g>
<!-- Node12 -->
<g id="node12" class="node">
<title>Node12</title>
<g id="a_node12"><a xlink:title=" ">
<polygon fill="white" stroke="#bfbfbf" points="66,-0.5 66,-19.5 114,-19.5 114,-0.5 66,-0.5"/>
<text text-anchor="middle" x="90" y="-7.5" font-family="Helvetica,sans-Serif" font-size="10.00">mutex</text>
</a>
</g>
</g>
<!-- Node4&#45;&gt;Node12 -->
<g id="edge12" class="edge">
<title>Node4&#45;&gt;Node12</title>
<path fill="none" stroke="midnightblue" d="M1056.77,-120.62C900.49,-118.38 147.23,-106.06 109,-76 95.3,-65.23 91.1,-45.14 89.98,-30.14"/>
<polygon fill="midnightblue" stroke="midnightblue" points="93.47,-29.76 89.63,-19.89 86.48,-30.01 93.47,-29.76"/>
</g>
<!-- Node13 -->
<g id="node13" class="node">
<title>Node13</title>
<g id="a_node13"><a xlink:title=" ">
<polygon fill="white" stroke="#bfbfbf" points="272,-56.5 272,-75.5 318,-75.5 318,-56.5 272,-56.5"/>
<text text-anchor="middle" x="295" y="-63.5" font-family="Helvetica,sans-Serif" font-size="10.00">future</text>
</a>
</g>
</g>
<!-- Node4&#45;&gt;Node13 -->
<g id="edge13" class="edge">
<title>Node4&#45;&gt;Node13</title>
<path fill="none" stroke="midnightblue" d="M1056.88,-121.5C957.96,-122.79 616.9,-123.41 328.52,-75.88"/>
<polygon fill="midnightblue" stroke="midnightblue" points="328.73,-72.37 318.29,-74.17 327.57,-79.27 328.73,-72.37"/>
</g>
<!-- Node14 -->
<g id="node14" class="node">
<title>Node14</title>
<g id="a_node14"><a xlink:title=" ">
<polygon fill="white" stroke="#bfbfbf" points="336,-56.5 336,-75.5 386,-75.5 386,-56.5 336,-56.5"/>
<text text-anchor="middle" x="361" y="-63.5" font-family="Helvetica,sans-Serif" font-size="10.00">fftw3.h</text>
</a>
</g>
</g>
<!-- Node4&#45;&gt;Node14 -->
<g id="edge15" class="edge">
<title>Node4&#45;&gt;Node14</title>
<path fill="none" stroke="midnightblue" d="M1056.77,-120.77C962.91,-119.67 652.91,-113.24 400,-76 398.72,-75.81 397.43,-75.6 396.12,-75.38"/>
<polygon fill="midnightblue" stroke="midnightblue" points="396.55,-71.9 386.06,-73.41 395.2,-78.77 396.55,-71.9"/>
</g>
<!-- Node15 -->
<g id="node15" class="node">
<title>Node15</title>
<g id="a_node15"><a xlink:title=" ">
<polygon fill="white" stroke="#bfbfbf" points="477,-0.5 477,-19.5 527,-19.5 527,-0.5 477,-0.5"/>
<text text-anchor="middle" x="502" y="-7.5" font-family="Helvetica,sans-Serif" font-size="10.00">chrono</text>
</a>
</g>
</g>
<!-- Node4&#45;&gt;Node15 -->
<g id="edge16" class="edge">
<title>Node4&#45;&gt;Node15</title>
<path fill="none" stroke="midnightblue" d="M1056.64,-121.26C936.8,-122.07 476.06,-122.14 433,-76 415.3,-57.03 445.56,-36.78 471.43,-24.01"/>
<polygon fill="midnightblue" stroke="midnightblue" points="473.11,-27.09 480.66,-19.67 470.13,-20.76 473.11,-27.09"/>
</g>
<!-- Node16 -->
<g id="node16" class="node">
<title>Node16</title>
<g id="a_node16"><a xlink:title=" ">
<polygon fill="white" stroke="#bfbfbf" points="442,-56.5 442,-75.5 506,-75.5 506,-56.5 442,-56.5"/>
<text text-anchor="middle" x="474" y="-63.5" font-family="Helvetica,sans-Serif" font-size="10.00">algorithm</text>
</a>
</g>
</g>
<!-- Node4&#45;&gt;Node16 -->
<g id="edge17" class="edge">
<title>Node4&#45;&gt;Node16</title>
<path fill="none" stroke="midnightblue" d="M1056.97,-120.15C975.16,-117.38 729.53,-107.03 516.28,-75.99"/>
<polygon fill="midnightblue" stroke="midnightblue" points="516.56,-72.49 506.15,-74.49 515.53,-79.42 516.56,-72.49"/>
</g>
<!-- Node17 -->
<g id="node17" class="node">
<title>Node17</title>
<g id="a_node17"><a xlink:title=" ">
<polygon fill="white" stroke="#bfbfbf" points="524,-56.5 524,-75.5 568,-75.5 568,-56.5 524,-56.5"/>
<text text-anchor="middle" x="546" y="-63.5" font-family="Helvetica,sans-Serif" font-size="10.00">ctime</text>
</a>
</g>
</g>
<!-- Node4&#45;&gt;Node17 -->
<g id="edge18" class="edge">
<title>Node4&#45;&gt;Node17</title>
<path fill="none" stroke="midnightblue" d="M1056.93,-120.42C981.06,-118.46 765.54,-110.21 578.25,-75.88"/>
<polygon fill="midnightblue" stroke="midnightblue" points="578.7,-72.4 568.23,-74.01 577.42,-79.29 578.7,-72.4"/>
</g>
<!-- Node18 -->
<g id="node18" class="node">
<title>Node18</title>
<g id="a_node18"><a xlink:href="../../d7/d50/BoundedThreadPool_8hpp.html" target="_top" xlink:title=" ">
<polygon fill="white" stroke="black" points="118.5,-56.5 118.5,-75.5 253.5,-75.5 253.5,-56.5 118.5,-56.5"/>
<text text-anchor="middle" x="186" y="-63.5" font-family="Helvetica,sans-Serif" font-size="10.00">BoundedThreadPool.hpp</text>
</a>
</g>
</g>
<!-- Node4&#45;&gt;Node18 -->
<g id="edge19" class="edge">
<title>Node4&#45;&gt;Node18</title>
<path fill="none" stroke="midnightblue" d="M1056.92,-120.09C953.23,-116.6 581.88,-102.94 263.92,-76.02"/>
<polygon fill="midnightblue" stroke="midnightblue" points="263.84,-72.5 253.58,-75.14 263.25,-79.48 263.84,-72.5"/>
</g>
<!-- Node24 -->
<g id="node24" class="node">
<title>Node24</title>
<g id="a_node24"><a xlink:title=" ">
<polygon fill="white" stroke="#bfbfbf" points="1498,-0.5 1498,-19.5 1600,-19.5 1600,-0.5 1498,-0.5"/>
<text text-anchor="middle" x="1549" y="-7.5" font-family="Helvetica,sans-Serif" font-size="10.00">tinycolormap.hpp</text>
</a>
</g>
</g>
<!-- Node4&#45;&gt;Node24 -->
<g id="edge27" class="edge">
<title>Node4&#45;&gt;Node24</title>
<path fill="none" stroke="midnightblue" d="M1113.04,-120.4C1193.38,-118.3 1422.87,-109.44 1489,-76 1510.34,-65.21 1527.91,-43.5 1538.41,-28.15"/>
<polygon fill="midnightblue" stroke="midnightblue" points="1541.48,-29.85 1544,-19.56 1535.61,-26.03 1541.48,-29.85"/>
</g>
<!-- Node25 -->
<g id="node25" class="node">
<title>Node25</title>
<g id="a_node25"><a xlink:title=" ">
<polygon fill="white" stroke="#bfbfbf" points="708,-56.5 708,-75.5 768,-75.5 768,-56.5 708,-56.5"/>
<text text-anchor="middle" x="738" y="-63.5" font-family="Helvetica,sans-Serif" font-size="10.00">fft2d.hpp</text>
</a>
</g>
</g>
<!-- Node4&#45;&gt;Node25 -->
<g id="edge28" class="edge">
<title>Node4&#45;&gt;Node25</title>
<path fill="none" stroke="midnightblue" d="M1056.93,-117.35C1003.34,-110.27 882.82,-93.78 782,-76 780.75,-75.78 779.48,-75.55 778.19,-75.31"/>
<polygon fill="midnightblue" stroke="midnightblue" points="778.73,-71.85 768.26,-73.41 777.42,-78.73 778.73,-71.85"/>
</g>
<!-- Node26 -->
<g id="node26" class="node">
<title>Node26</title>
<g id="a_node26"><a xlink:href="../../d0/d3c/SocketConnector_8h.html" target="_top" xlink:title=" ">
<polygon fill="white" stroke="black" points="824.5,-56.5 824.5,-75.5 931.5,-75.5 931.5,-56.5 824.5,-56.5"/>
<text text-anchor="middle" x="878" y="-63.5" font-family="Helvetica,sans-Serif" font-size="10.00">SocketConnector.h</text>
</a>
</g>
</g>
<!-- Node4&#45;&gt;Node26 -->
<g id="edge29" class="edge">
<title>Node4&#45;&gt;Node26</title>
<path fill="none" stroke="midnightblue" d="M1056.65,-113.6C1021.54,-104.44 961.38,-88.75 920.68,-78.13"/>
<polygon fill="midnightblue" stroke="midnightblue" points="921.34,-74.69 910.78,-75.55 919.57,-81.46 921.34,-74.69"/>
</g>
<!-- Node30 -->
<g id="node30" class="node">
<title>Node30</title>
<g id="a_node30"><a xlink:href="../../da/dce/ProgressMonitor_8h.html" target="_top" xlink:title=" ">
<polygon fill="white" stroke="black" points="586,-56.5 586,-75.5 690,-75.5 690,-56.5 586,-56.5"/>
<text text-anchor="middle" x="638" y="-63.5" font-family="Helvetica,sans-Serif" font-size="10.00">ProgressMonitor.h</text>
</a>
</g>
</g>
<!-- Node4&#45;&gt;Node30 -->
<g id="edge36" class="edge">
<title>Node4&#45;&gt;Node30</title>
<path fill="none" stroke="midnightblue" d="M1056.87,-118.02C994.62,-111.35 840.24,-94.48 700.28,-76.14"/>
<polygon fill="midnightblue" stroke="midnightblue" points="700.6,-72.65 690.23,-74.81 699.69,-79.59 700.6,-72.65"/>
</g>
<!-- Node33 -->
<g id="node33" class="node">
<title>Node33</title>
<g id="a_node33"><a xlink:title=" ">
<polygon fill="white" stroke="#bfbfbf" points="950,-56.5 950,-75.5 1028,-75.5 1028,-56.5 950,-56.5"/>
<text text-anchor="middle" x="989" y="-63.5" font-family="Helvetica,sans-Serif" font-size="10.00">Cheetah.hpp</text>
</a>
</g>
</g>
<!-- Node4&#45;&gt;Node33 -->
<g id="edge44" class="edge">
<title>Node4&#45;&gt;Node33</title>
<path fill="none" stroke="midnightblue" d="M1069.58,-112.32C1054.46,-103.82 1031.18,-90.73 1013.53,-80.8"/>
<polygon fill="midnightblue" stroke="midnightblue" points="1014.82,-77.51 1004.39,-75.65 1011.39,-83.61 1014.82,-77.51"/>
</g>
<!-- Node34 -->
<g id="node34" class="node">
<title>Node34</title>
<g id="a_node34"><a xlink:title=" ">
<polygon fill="white" stroke="#bfbfbf" points="1046.5,-56.5 1046.5,-75.5 1123.5,-75.5 1123.5,-56.5 1046.5,-56.5"/>
<text text-anchor="middle" x="1085" y="-63.5" font-family="Helvetica,sans-Serif" font-size="10.00">Timepix.hpp</text>
</a>
</g>
</g>
<!-- Node4&#45;&gt;Node34 -->
<g id="edge45" class="edge">
<title>Node4&#45;&gt;Node34</title>
<path fill="none" stroke="midnightblue" d="M1085,-112.08C1085,-105.01 1085,-94.86 1085,-85.99"/>
<polygon fill="midnightblue" stroke="midnightblue" points="1088.5,-85.75 1085,-75.75 1081.5,-85.75 1088.5,-85.75"/>
</g>
<!-- Node35 -->
<g id="node35" class="node">
<title>Node35</title>
<g id="a_node35"><a xlink:title=" ">
<polygon fill="white" stroke="#bfbfbf" points="1141.5,-56.5 1141.5,-75.5 1218.5,-75.5 1218.5,-56.5 1141.5,-56.5"/>
<text text-anchor="middle" x="1180" y="-63.5" font-family="Helvetica,sans-Serif" font-size="10.00">Advapix.hpp</text>
</a>
</g>
</g>
<!-- Node4&#45;&gt;Node35 -->
<g id="edge46" class="edge">
<title>Node4&#45;&gt;Node35</title>
<path fill="none" stroke="midnightblue" d="M1100.26,-112.32C1115.22,-103.82 1138.25,-90.73 1155.73,-80.8"/>
<polygon fill="midnightblue" stroke="midnightblue" points="1157.81,-83.64 1164.77,-75.65 1154.35,-77.55 1157.81,-83.64"/>
</g>
<!-- Node4&#45;&gt;Node36 -->
<g id="edge47" class="edge">
<title>Node4&#45;&gt;Node36</title>
<path fill="none" stroke="midnightblue" d="M1113.19,-119.52C1204.89,-114.63 1503.01,-97.99 1749,-76 1761.44,-74.89 1774.93,-73.47 1787.27,-72.1"/>
<polygon fill="midnightblue" stroke="midnightblue" points="1787.78,-75.56 1797.32,-70.95 1786.99,-68.61 1787.78,-75.56"/>
</g>
<!-- Node18&#45;&gt;Node3 -->
<g id="edge20" class="edge">
<title>Node18&#45;&gt;Node3</title>
<path fill="none" stroke="midnightblue" d="M160.33,-56.44C132.68,-47.23 88.54,-32.51 58.01,-22.34"/>
<polygon fill="midnightblue" stroke="midnightblue" points="58.82,-18.92 48.23,-19.08 56.61,-25.56 58.82,-18.92"/>
</g>
<!-- Node18&#45;&gt;Node12 -->
<g id="edge23" class="edge">
<title>Node18&#45;&gt;Node12</title>
<path fill="none" stroke="midnightblue" d="M170.58,-56.32C155.46,-47.82 132.18,-34.73 114.53,-24.8"/>
<polygon fill="midnightblue" stroke="midnightblue" points="115.82,-21.51 105.39,-19.65 112.39,-27.61 115.82,-21.51"/>
</g>
<!-- Node19 -->
<g id="node19" class="node">
<title>Node19</title>
<g id="a_node19"><a xlink:title=" ">
<polygon fill="white" stroke="#bfbfbf" points="340.5,-0.5 340.5,-19.5 387.5,-19.5 387.5,-0.5 340.5,-0.5"/>
<text text-anchor="middle" x="364" y="-7.5" font-family="Helvetica,sans-Serif" font-size="10.00">queue</text>
</a>
</g>
</g>
<!-- Node18&#45;&gt;Node19 -->
<g id="edge21" class="edge">
<title>Node18&#45;&gt;Node19</title>
<path fill="none" stroke="midnightblue" d="M214.2,-56.44C245.83,-46.85 297.08,-31.3 330.66,-21.11"/>
<polygon fill="midnightblue" stroke="midnightblue" points="331.92,-24.39 340.47,-18.14 329.89,-17.69 331.92,-24.39"/>
</g>
<!-- Node20 -->
<g id="node20" class="node">
<title>Node20</title>
<g id="a_node20"><a xlink:title=" ">
<polygon fill="white" stroke="#bfbfbf" points="132.5,-0.5 132.5,-19.5 197.5,-19.5 197.5,-0.5 132.5,-0.5"/>
<text text-anchor="middle" x="165" y="-7.5" font-family="Helvetica,sans-Serif" font-size="10.00">functional</text>
</a>
</g>
</g>
<!-- Node18&#45;&gt;Node20 -->
<g id="edge22" class="edge">
<title>Node18&#45;&gt;Node20</title>
<path fill="none" stroke="midnightblue" d="M182.53,-56.08C179.69,-48.77 175.57,-38.18 172.04,-29.1"/>
<polygon fill="midnightblue" stroke="midnightblue" points="175.29,-27.8 168.4,-19.75 168.77,-30.34 175.29,-27.8"/>
</g>
<!-- Node21 -->
<g id="node21" class="node">
<title>Node21</title>
<g id="a_node21"><a xlink:title=" ">
<polygon fill="white" stroke="#bfbfbf" points="215.5,-0.5 215.5,-19.5 322.5,-19.5 322.5,-0.5 215.5,-0.5"/>
<text text-anchor="middle" x="269" y="-7.5" font-family="Helvetica,sans-Serif" font-size="10.00">condition_variable</text>
</a>
</g>
</g>
<!-- Node18&#45;&gt;Node21 -->
<g id="edge24" class="edge">
<title>Node18&#45;&gt;Node21</title>
<path fill="none" stroke="midnightblue" d="M199.34,-56.32C212.16,-47.98 231.78,-35.21 246.94,-25.35"/>
<polygon fill="midnightblue" stroke="midnightblue" points="249.22,-28.04 255.7,-19.65 245.41,-22.17 249.22,-28.04"/>
</g>
<!-- Node22 -->
<g id="node22" class="node">
<title>Node22</title>
<g id="a_node22"><a xlink:title=" ">
<polygon fill="white" stroke="#bfbfbf" points="407,-0.5 407,-19.5 457,-19.5 457,-0.5 407,-0.5"/>
<text text-anchor="middle" x="432" y="-7.5" font-family="Helvetica,sans-Serif" font-size="10.00">atomic</text>
</a>
</g>
</g>
<!-- Node18&#45;&gt;Node22 -->
<g id="edge25" class="edge">
<title>Node18&#45;&gt;Node22</title>
<path fill="none" stroke="midnightblue" d="M227.93,-56.45C270.38,-47.69 337.89,-33.49 396,-20 396.33,-19.92 396.66,-19.85 396.99,-19.77"/>
<polygon fill="midnightblue" stroke="midnightblue" points="397.94,-23.14 406.85,-17.4 396.31,-16.33 397.94,-23.14"/>
</g>
<!-- Node23 -->
<g id="node23" class="node">
<title>Node23</title>
<g id="a_node23"><a xlink:title=" ">
<polygon fill="white" stroke="#bfbfbf" points="704,-0.5 704,-19.5 764,-19.5 764,-0.5 704,-0.5"/>
<text text-anchor="middle" x="734" y="-7.5" font-family="Helvetica,sans-Serif" font-size="10.00">iostream</text>
</a>
</g>
</g>
<!-- Node18&#45;&gt;Node23 -->
<g id="edge26" class="edge">
<title>Node18&#45;&gt;Node23</title>
<path fill="none" stroke="midnightblue" d="M253.59,-56.97C256.77,-56.63 259.92,-56.31 263,-56 451.43,-37.14 502.9,-49.31 693.77,-19.98"/>
<polygon fill="midnightblue" stroke="midnightblue" points="694.51,-23.4 703.85,-18.41 693.43,-16.49 694.51,-23.4"/>
</g>
<!-- Node26&#45;&gt;Node2 -->
<g id="edge34" class="edge">
<title>Node26&#45;&gt;Node2</title>
<path fill="none" stroke="midnightblue" d="M931.6,-57.23C934.78,-56.8 937.93,-56.39 941,-56 1079.91,-38.38 1246.05,-21.17 1314.79,-14.22"/>
<polygon fill="midnightblue" stroke="midnightblue" points="1315.37,-17.68 1324.97,-13.2 1314.67,-10.72 1315.37,-17.68"/>
</g>
<!-- Node26&#45;&gt;Node5 -->
<g id="edge31" class="edge">
<title>Node26&#45;&gt;Node5</title>
<path fill="none" stroke="midnightblue" d="M929.02,-56.44C993.63,-45.61 1103.5,-27.18 1161.5,-17.46"/>
<polygon fill="midnightblue" stroke="midnightblue" points="1162.42,-20.85 1171.7,-15.75 1161.26,-13.95 1162.42,-20.85"/>
</g>
<!-- Node26&#45;&gt;Node23 -->
<g id="edge35" class="edge">
<title>Node26&#45;&gt;Node23</title>
<path fill="none" stroke="midnightblue" d="M855.18,-56.44C831.17,-47.44 793.17,-33.19 766.13,-23.05"/>
<polygon fill="midnightblue" stroke="midnightblue" points="767.3,-19.75 756.71,-19.52 764.84,-26.3 767.3,-19.75"/>
</g>
<!-- Node27 -->
<g id="node27" class="node">
<title>Node27</title>
<g id="a_node27"><a xlink:title=" ">
<polygon fill="white" stroke="#bfbfbf" points="980.5,-0.5 980.5,-19.5 1049.5,-19.5 1049.5,-0.5 980.5,-0.5"/>
<text text-anchor="middle" x="1015" y="-7.5" font-family="Helvetica,sans-Serif" font-size="10.00">arpa/inet.h</text>
</a>
</g>
</g>
<!-- Node26&#45;&gt;Node27 -->
<g id="edge30" class="edge">
<title>Node26&#45;&gt;Node27</title>
<path fill="none" stroke="midnightblue" d="M899.71,-56.44C922.35,-47.52 958.07,-33.44 983.75,-23.32"/>
<polygon fill="midnightblue" stroke="midnightblue" points="985.37,-26.44 993.39,-19.52 982.81,-19.93 985.37,-26.44"/>
</g>
<!-- Node28 -->
<g id="node28" class="node">
<title>Node28</title>
<g id="a_node28"><a xlink:title=" ">
<polygon fill="white" stroke="#bfbfbf" points="850.5,-0.5 850.5,-19.5 897.5,-19.5 897.5,-0.5 850.5,-0.5"/>
<text text-anchor="middle" x="874" y="-7.5" font-family="Helvetica,sans-Serif" font-size="10.00">cerrno</text>
</a>
</g>
</g>
<!-- Node26&#45;&gt;Node28 -->
<g id="edge32" class="edge">
<title>Node26&#45;&gt;Node28</title>
<path fill="none" stroke="midnightblue" d="M877.34,-56.08C876.82,-49.01 876.06,-38.86 875.41,-29.99"/>
<polygon fill="midnightblue" stroke="midnightblue" points="878.88,-29.47 874.65,-19.75 871.9,-29.98 878.88,-29.47"/>
</g>
<!-- Node29 -->
<g id="node29" class="node">
<title>Node29</title>
<g id="a_node29"><a xlink:title=" ">
<polygon fill="white" stroke="#bfbfbf" points="782,-0.5 782,-19.5 832,-19.5 832,-0.5 782,-0.5"/>
<text text-anchor="middle" x="807" y="-7.5" font-family="Helvetica,sans-Serif" font-size="10.00">cstring</text>
</a>
</g>
</g>
<!-- Node26&#45;&gt;Node29 -->
<g id="edge33" class="edge">
<title>Node26&#45;&gt;Node29</title>
<path fill="none" stroke="midnightblue" d="M866.59,-56.32C855.89,-48.18 839.66,-35.84 826.84,-26.09"/>
<polygon fill="midnightblue" stroke="midnightblue" points="828.69,-23.1 818.61,-19.83 824.46,-28.67 828.69,-23.1"/>
</g>
<!-- Node30&#45;&gt;Node6 -->
<g id="edge43" class="edge">
<title>Node30&#45;&gt;Node6</title>
<path fill="none" stroke="midnightblue" d="M690.25,-56.86C752.07,-47.13 852.32,-31 905.33,-19.92"/>
<polygon fill="midnightblue" stroke="midnightblue" points="906.24,-23.3 915.28,-17.77 904.76,-16.46 906.24,-23.3"/>
</g>
<!-- Node30&#45;&gt;Node15 -->
<g id="edge42" class="edge">
<title>Node30&#45;&gt;Node15</title>
<path fill="none" stroke="midnightblue" d="M616.45,-56.44C593.97,-47.52 558.51,-33.44 533.02,-23.32"/>
<polygon fill="midnightblue" stroke="midnightblue" points="534.03,-19.95 523.45,-19.52 531.45,-26.46 534.03,-19.95"/>
</g>
<!-- Node30&#45;&gt;Node22 -->
<g id="edge41" class="edge">
<title>Node30&#45;&gt;Node22</title>
<path fill="none" stroke="midnightblue" d="M605.36,-56.44C567.55,-46.53 505.53,-30.27 466.82,-20.13"/>
<polygon fill="midnightblue" stroke="midnightblue" points="467.6,-16.71 457.04,-17.56 465.82,-23.48 467.6,-16.71"/>
</g>
<!-- Node30&#45;&gt;Node23 -->
<g id="edge38" class="edge">
<title>Node30&#45;&gt;Node23</title>
<path fill="none" stroke="midnightblue" d="M653.42,-56.32C668.54,-47.82 691.82,-34.73 709.47,-24.8"/>
<polygon fill="midnightblue" stroke="midnightblue" points="711.61,-27.61 718.61,-19.65 708.18,-21.51 711.61,-27.61"/>
</g>
<!-- Node30&#45;&gt;Node29 -->
<g id="edge40" class="edge">
<title>Node30&#45;&gt;Node29</title>
<path fill="none" stroke="midnightblue" d="M664.78,-56.44C693.84,-47.16 740.34,-32.3 772.21,-22.12"/>
<polygon fill="midnightblue" stroke="midnightblue" points="773.54,-25.37 782,-18.99 771.41,-18.7 773.54,-25.37"/>
</g>
<!-- Node31 -->
<g id="node31" class="node">
<title>Node31</title>
<g id="a_node31"><a xlink:title=" ">
<polygon fill="white" stroke="#bfbfbf" points="546,-0.5 546,-19.5 612,-19.5 612,-0.5 546,-0.5"/>
<text text-anchor="middle" x="579" y="-7.5" font-family="Helvetica,sans-Serif" font-size="10.00">sys/ioctl.h</text>
</a>
</g>
</g>
<!-- Node30&#45;&gt;Node31 -->
<g id="edge37" class="edge">
<title>Node30&#45;&gt;Node31</title>
<path fill="none" stroke="midnightblue" d="M628.52,-56.32C619.8,-48.34 606.66,-36.31 596.1,-26.65"/>
<polygon fill="midnightblue" stroke="midnightblue" points="598.39,-24 588.65,-19.83 593.67,-29.17 598.39,-24"/>
</g>
<!-- Node32 -->
<g id="node32" class="node">
<title>Node32</title>
<g id="a_node32"><a xlink:title=" ">
<polygon fill="white" stroke="#bfbfbf" points="630,-0.5 630,-19.5 686,-19.5 686,-0.5 630,-0.5"/>
<text text-anchor="middle" x="658" y="-7.5" font-family="Helvetica,sans-Serif" font-size="10.00">iomanip</text>
</a>
</g>
</g>
<!-- Node30&#45;&gt;Node32 -->
<g id="edge39" class="edge">
<title>Node30&#45;&gt;Node32</title>
<path fill="none" stroke="midnightblue" d="M641.3,-56.08C643.98,-48.85 647.85,-38.41 651.19,-29.4"/>
<polygon fill="midnightblue" stroke="midnightblue" points="654.57,-30.34 654.76,-19.75 648,-27.91 654.57,-30.34"/>
</g>
<!-- Node36&#45;&gt;Node2 -->
<g id="edge48" class="edge">
<title>Node36&#45;&gt;Node2</title>
<path fill="none" stroke="midnightblue" d="M1797.45,-58.38C1792.62,-57.51 1787.69,-56.68 1783,-56 1623.88,-32.86 1582.85,-37.46 1423,-20 1408.72,-18.44 1392.95,-16.59 1379.49,-14.98"/>
<polygon fill="midnightblue" stroke="midnightblue" points="1379.62,-11.47 1369.27,-13.75 1378.78,-18.42 1379.62,-11.47"/>
</g>
<!-- Node36&#45;&gt;Node8 -->
<g id="edge50" class="edge">
<title>Node36&#45;&gt;Node8</title>
<path fill="none" stroke="midnightblue" d="M1801.16,-56.44C1770.14,-47.24 1720.67,-32.56 1686.38,-22.39"/>
<polygon fill="midnightblue" stroke="midnightblue" points="1687.29,-19.01 1676.7,-19.52 1685.29,-25.72 1687.29,-19.01"/>
</g>
<!-- Node36&#45;&gt;Node10 -->
<g id="edge49" class="edge">
<title>Node36&#45;&gt;Node10</title>
<path fill="none" stroke="midnightblue" d="M1797.43,-58.47C1792.6,-57.59 1787.68,-56.73 1783,-56 1656.12,-36.11 1619.93,-44.93 1489.66,-19.85"/>
<polygon fill="midnightblue" stroke="midnightblue" points="1490.18,-16.39 1479.7,-17.9 1488.84,-23.26 1490.18,-16.39"/>
</g>
<!-- Node36&#45;&gt;Node24 -->
<g id="edge56" class="edge">
<title>Node36&#45;&gt;Node24</title>
<path fill="none" stroke="midnightblue" d="M1797.49,-58.75C1750.06,-49.64 1661.3,-32.58 1603.7,-21.51"/>
<polygon fill="midnightblue" stroke="midnightblue" points="1604.16,-18.04 1593.68,-19.59 1602.84,-24.91 1604.16,-18.04"/>
</g>
<!-- Node37 -->
<g id="node37" class="node">
<title>Node37</title>
<g id="a_node37"><a xlink:title=" ">
<polygon fill="white" stroke="#bfbfbf" points="1696,-0.5 1696,-19.5 1764,-19.5 1764,-0.5 1696,-0.5"/>
<text text-anchor="middle" x="1730" y="-7.5" font-family="Helvetica,sans-Serif" font-size="10.00">filesystem</text>
</a>
</g>
</g>
<!-- Node36&#45;&gt;Node37 -->
<g id="edge51" class="edge">
<title>Node36&#45;&gt;Node37</title>
<path fill="none" stroke="midnightblue" d="M1813.93,-56.32C1798.04,-47.74 1773.49,-34.49 1755.04,-24.52"/>
<polygon fill="midnightblue" stroke="midnightblue" points="1756.49,-21.33 1746.03,-19.65 1753.16,-27.49 1756.49,-21.33"/>
</g>
<!-- Node38 -->
<g id="node38" class="node">
<title>Node38</title>
<g id="a_node38"><a xlink:title=" ">
<polygon fill="white" stroke="#bfbfbf" points="2052,-0.5 2052,-19.5 2132,-19.5 2132,-0.5 2052,-0.5"/>
<text text-anchor="middle" x="2092" y="-7.5" font-family="Helvetica,sans-Serif" font-size="10.00">SDL_image.h</text>
</a>
</g>
</g>
<!-- Node36&#45;&gt;Node38 -->
<g id="edge52" class="edge">
<title>Node36&#45;&gt;Node38</title>
<path fill="none" stroke="midnightblue" d="M1862.65,-58.27C1907.63,-49 1989.05,-32.22 2041.8,-21.35"/>
<polygon fill="midnightblue" stroke="midnightblue" points="2042.53,-24.77 2051.62,-19.32 2041.12,-17.91 2042.53,-24.77"/>
</g>
<!-- Node39 -->
<g id="node39" class="node">
<title>Node39</title>
<g id="a_node39"><a xlink:title=" ">
<polygon fill="white" stroke="#bfbfbf" points="1782.5,-0.5 1782.5,-19.5 1835.5,-19.5 1835.5,-0.5 1782.5,-0.5"/>
<text text-anchor="middle" x="1809" y="-7.5" font-family="Helvetica,sans-Serif" font-size="10.00">imgui.h</text>
</a>
</g>
</g>
<!-- Node36&#45;&gt;Node39 -->
<g id="edge53" class="edge">
<title>Node36&#45;&gt;Node39</title>
<path fill="none" stroke="midnightblue" d="M1826.53,-56.08C1823.69,-48.77 1819.57,-38.18 1816.04,-29.1"/>
<polygon fill="midnightblue" stroke="midnightblue" points="1819.29,-27.8 1812.4,-19.75 1812.77,-30.34 1819.29,-27.8"/>
</g>
<!-- Node40 -->
<g id="node40" class="node">
<title>Node40</title>
<g id="a_node40"><a xlink:title=" ">
<polygon fill="white" stroke="#bfbfbf" points="1854,-0.5 1854,-19.5 1950,-19.5 1950,-0.5 1854,-0.5"/>
<text text-anchor="middle" x="1902" y="-7.5" font-family="Helvetica,sans-Serif" font-size="10.00">imgui_internal.h</text>
</a>
</g>
</g>
<!-- Node36&#45;&gt;Node40 -->
<g id="edge54" class="edge">
<title>Node36&#45;&gt;Node40</title>
<path fill="none" stroke="midnightblue" d="M1841.57,-56.32C1852.42,-48.18 1868.88,-35.84 1881.88,-26.09"/>
<polygon fill="midnightblue" stroke="midnightblue" points="1884.32,-28.63 1890.22,-19.83 1880.12,-23.03 1884.32,-28.63"/>
</g>
<!-- Node41 -->
<g id="node41" class="node">
<title>Node41</title>
<g id="a_node41"><a xlink:title=" ">
<polygon fill="white" stroke="#bfbfbf" points="1968,-0.5 1968,-19.5 2034,-19.5 2034,-0.5 1968,-0.5"/>
<text text-anchor="middle" x="2001" y="-7.5" font-family="Helvetica,sans-Serif" font-size="10.00">libnpy.hpp</text>
</a>
</g>
</g>
<!-- Node36&#45;&gt;Node41 -->
<g id="edge55" class="edge">
<title>Node36&#45;&gt;Node41</title>
<path fill="none" stroke="midnightblue" d="M1857.1,-56.44C1885.99,-47.32 1931.92,-32.81 1964.11,-22.65"/>
<polygon fill="midnightblue" stroke="midnightblue" points="1965.55,-25.87 1974.03,-19.52 1963.44,-19.19 1965.55,-25.87"/>
</g>
<!-- Node42&#45;&gt;Node11 -->
<g id="edge58" class="edge">
<title>Node42&#45;&gt;Node11</title>
<path fill="none" stroke="midnightblue" d="M1645.39,-112.08C1640.63,-104.53 1633.68,-93.49 1627.85,-84.23"/>
<polygon fill="midnightblue" stroke="midnightblue" points="1630.8,-82.35 1622.51,-75.75 1624.88,-86.08 1630.8,-82.35"/>
</g>
<!-- Node42&#45;&gt;Node23 -->
<g id="edge61" class="edge">
<title>Node42&#45;&gt;Node23</title>
<path fill="none" stroke="midnightblue" d="M1595.83,-119.99C1421.15,-116.51 887.51,-103.71 815,-76 788.04,-65.7 763.12,-42.86 748.23,-27.19"/>
<polygon fill="midnightblue" stroke="midnightblue" points="750.75,-24.76 741.41,-19.76 745.59,-29.49 750.75,-24.76"/>
</g>
<!-- Node42&#45;&gt;Node38 -->
<g id="edge59" class="edge">
<title>Node42&#45;&gt;Node38</title>
<path fill="none" stroke="midnightblue" d="M1698.47,-112.49C1743.2,-104.18 1811.98,-90.69 1871,-76 1936.89,-59.6 2012.58,-36.37 2056.1,-22.57"/>
<polygon fill="midnightblue" stroke="midnightblue" points="2057.19,-25.9 2065.66,-19.53 2055.07,-19.23 2057.19,-25.9"/>
</g>
<!-- Node43 -->
<g id="node43" class="node">
<title>Node43</title>
<g id="a_node43"><a xlink:title=" ">
<polygon fill="white" stroke="#bfbfbf" points="1657.5,-56.5 1657.5,-75.5 1740.5,-75.5 1740.5,-56.5 1657.5,-56.5"/>
<text text-anchor="middle" x="1699" y="-63.5" font-family="Helvetica,sans-Serif" font-size="10.00">SDL_opengl.h</text>
</a>
</g>
</g>
<!-- Node42&#45;&gt;Node43 -->
<g id="edge60" class="edge">
<title>Node42&#45;&gt;Node43</title>
<path fill="none" stroke="midnightblue" d="M1658.93,-112.08C1665.85,-104.3 1676.07,-92.8 1684.45,-83.37"/>
<polygon fill="midnightblue" stroke="midnightblue" points="1687.19,-85.55 1691.22,-75.75 1681.96,-80.9 1687.19,-85.55"/>
</g>
</g>
</svg>
