<?xml version="1.0" encoding="UTF-8" standalone="no"?>
<!DOCTYPE svg PUBLIC "-//W3C//DTD SVG 1.1//EN"
 "http://www.w3.org/Graphics/SVG/1.1/DTD/svg11.dtd">
<!-- Generated by graphviz version 2.43.0 (0)
 -->
<!-- Title: src/RunCLI.cpp Pages: 1 -->
<svg width="2104pt" height="196pt"
 viewBox="0.00 0.00 2104.00 196.00" xmlns="http://www.w3.org/2000/svg" xmlns:xlink="http://www.w3.org/1999/xlink">
<g id="graph0" class="graph" transform="scale(1 1) rotate(0) translate(4 192)">
<title>src/RunCLI.cpp</title>
<polygon fill="white" stroke="transparent" points="-4,4 -4,-192 2100,-192 2100,4 -4,4"/>
<!-- Node1 -->
<g id="node1" class="node">
<title>Node1</title>
<g id="a_node1"><a xlink:title=" ">
<polygon fill="#bfbfbf" stroke="black" points="1571,-168.5 1571,-187.5 1659,-187.5 1659,-168.5 1571,-168.5"/>
<text text-anchor="middle" x="1615" y="-175.5" font-family="Helvetica,sans-Serif" font-size="10.00">src/RunCLI.cpp</text>
</a>
</g>
</g>
<!-- Node2 -->
<g id="node2" class="node">
<title>Node2</title>
<g id="a_node2"><a xlink:title=" ">
<polygon fill="white" stroke="#bfbfbf" points="1289,-0.5 1289,-19.5 1333,-19.5 1333,-0.5 1289,-0.5"/>
<text text-anchor="middle" x="1311" y="-7.5" font-family="Helvetica,sans-Serif" font-size="10.00">string</text>
</a>
</g>
</g>
<!-- Node1&#45;&gt;Node2 -->
<g id="edge1" class="edge">
<title>Node1&#45;&gt;Node2</title>
<path fill="none" stroke="midnightblue" d="M1631.37,-168.4C1667.76,-148.24 1749.34,-96.58 1713,-56 1664.37,-1.71 1459.41,-28.29 1387,-20 1372.73,-18.37 1356.96,-16.51 1343.5,-14.91"/>
<polygon fill="midnightblue" stroke="midnightblue" points="1343.62,-11.4 1333.28,-13.68 1342.79,-18.35 1343.62,-11.4"/>
</g>
<!-- Node3 -->
<g id="node3" class="node">
<title>Node3</title>
<g id="a_node3"><a xlink:title=" ">
<polygon fill="white" stroke="#bfbfbf" points="0,-0.5 0,-19.5 48,-19.5 48,-0.5 0,-0.5"/>
<text text-anchor="middle" x="24" y="-7.5" font-family="Helvetica,sans-Serif" font-size="10.00">thread</text>
</a>
</g>
</g>
<!-- Node1&#45;&gt;Node3 -->
<g id="edge2" class="edge">
<title>Node1&#45;&gt;Node3</title>
<path fill="none" stroke="midnightblue" d="M1570.68,-176.66C1330.35,-174.47 189.34,-159.7 59,-76 42.68,-65.52 33.43,-44.73 28.59,-29.47"/>
<polygon fill="midnightblue" stroke="midnightblue" points="31.88,-28.25 25.8,-19.57 25.14,-30.14 31.88,-28.25"/>
</g>
<!-- Node4 -->
<g id="node4" class="node">
<title>Node4</title>
<g id="a_node4"><a xlink:href="../../de/dfc/Ricom_8h.html" target="_top" xlink:title=" ">
<polygon fill="white" stroke="black" points="1039,-112.5 1039,-131.5 1095,-131.5 1095,-112.5 1039,-112.5"/>
<text text-anchor="middle" x="1067" y="-119.5" font-family="Helvetica,sans-Serif" font-size="10.00">Ricom.h</text>
</a>
</g>
</g>
<!-- Node1&#45;&gt;Node4 -->
<g id="edge3" class="edge">
<title>Node1&#45;&gt;Node4</title>
<path fill="none" stroke="midnightblue" d="M1570.62,-172.63C1465.64,-162.28 1203.52,-136.45 1105.12,-126.76"/>
<polygon fill="midnightblue" stroke="midnightblue" points="1105.33,-123.26 1095.04,-125.76 1104.64,-130.23 1105.33,-123.26"/>
</g>
<!-- Node36 -->
<g id="node36" class="node">
<title>Node36</title>
<g id="a_node36"><a xlink:href="../../d7/db2/GuiUtils_8h.html" target="_top" xlink:title=" ">
<polygon fill="white" stroke="black" points="1761.5,-56.5 1761.5,-75.5 1826.5,-75.5 1826.5,-56.5 1761.5,-56.5"/>
<text text-anchor="middle" x="1794" y="-63.5" font-family="Helvetica,sans-Serif" font-size="10.00">GuiUtils.h</text>
</a>
</g>
</g>
<!-- Node1&#45;&gt;Node36 -->
<g id="edge62" class="edge">
<title>Node1&#45;&gt;Node36</title>
<path fill="none" stroke="midnightblue" d="M1659.2,-169.08C1686.49,-162.54 1721.11,-151.14 1747,-132 1763.74,-119.62 1776.96,-99.53 1785.06,-84.96"/>
<polygon fill="midnightblue" stroke="midnightblue" points="1788.26,-86.4 1789.83,-75.92 1782.07,-83.13 1788.26,-86.4"/>
</g>
<!-- Node42 -->
<g id="node42" class="node">
<title>Node42</title>
<g id="a_node42"><a xlink:href="../../dc/dd0/SdlImageWindow_8h.html" target="_top" xlink:title=" ">
<polygon fill="white" stroke="black" points="1560,-112.5 1560,-131.5 1670,-131.5 1670,-112.5 1560,-112.5"/>
<text text-anchor="middle" x="1615" y="-119.5" font-family="Helvetica,sans-Serif" font-size="10.00">SdlImageWindow.h</text>
</a>
</g>
</g>
<!-- Node1&#45;&gt;Node42 -->
<g id="edge57" class="edge">
<title>Node1&#45;&gt;Node42</title>
<path fill="none" stroke="midnightblue" d="M1615,-168.08C1615,-161.01 1615,-150.86 1615,-141.99"/>
<polygon fill="midnightblue" stroke="midnightblue" points="1618.5,-141.75 1615,-131.75 1611.5,-141.75 1618.5,-141.75"/>
</g>
<!-- Node4&#45;&gt;Node2 -->
<g id="edge10" class="edge">
<title>Node4&#45;&gt;Node2</title>
<path fill="none" stroke="midnightblue" d="M1095.27,-118.14C1131.26,-113.53 1194.47,-102.19 1242,-76 1264.41,-63.65 1285.05,-42.32 1297.81,-27.48"/>
<polygon fill="midnightblue" stroke="midnightblue" points="1300.65,-29.53 1304.36,-19.61 1295.27,-25.06 1300.65,-29.53"/>
</g>
<!-- Node4&#45;&gt;Node3 -->
<g id="edge14" class="edge">
<title>Node4&#45;&gt;Node3</title>
<path fill="none" stroke="midnightblue" d="M1038.74,-120.87C887.9,-120.04 180.99,-114.09 92,-76 68.41,-65.9 48.15,-43.7 36.03,-28.07"/>
<polygon fill="midnightblue" stroke="midnightblue" points="38.64,-25.71 29.87,-19.76 33.02,-29.88 38.64,-25.71"/>
</g>
<!-- Node5 -->
<g id="node5" class="node">
<title>Node5</title>
<g id="a_node5"><a xlink:title=" ">
<polygon fill="white" stroke="#bfbfbf" points="1154,-0.5 1154,-19.5 1210,-19.5 1210,-0.5 1154,-0.5"/>
<text text-anchor="middle" x="1182" y="-7.5" font-family="Helvetica,sans-Serif" font-size="10.00">unistd.h</text>
</a>
</g>
</g>
<!-- Node4&#45;&gt;Node5 -->
<g id="edge4" class="edge">
<title>Node4&#45;&gt;Node5</title>
<path fill="none" stroke="midnightblue" d="M1095.05,-117.09C1136.1,-110.72 1209.36,-96.71 1225,-76 1237.5,-59.45 1219.61,-39.41 1203.25,-26"/>
<polygon fill="midnightblue" stroke="midnightblue" points="1205.06,-22.98 1195,-19.65 1200.78,-28.52 1205.06,-22.98"/>
</g>
<!-- Node6 -->
<g id="node6" class="node">
<title>Node6</title>
<g id="a_node6"><a xlink:title=" ">
<polygon fill="white" stroke="#bfbfbf" points="915.5,-0.5 915.5,-19.5 962.5,-19.5 962.5,-0.5 915.5,-0.5"/>
<text text-anchor="middle" x="939" y="-7.5" font-family="Helvetica,sans-Serif" font-size="10.00">cmath</text>
</a>
</g>
</g>
<!-- Node4&#45;&gt;Node6 -->
<g id="edge5" class="edge">
<title>Node4&#45;&gt;Node6</title>
<path fill="none" stroke="midnightblue" d="M1095.22,-116.99C1140.27,-109.45 1220.51,-90.73 1191,-56 1160.68,-20.31 1034.31,-29.51 972.7,-19.86"/>
<polygon fill="midnightblue" stroke="midnightblue" points="973.16,-16.38 962.69,-17.98 971.87,-23.26 973.16,-16.38"/>
</g>
<!-- Node7 -->
<g id="node7" class="node">
<title>Node7</title>
<g id="a_node7"><a xlink:title=" ">
<polygon fill="white" stroke="#bfbfbf" points="1315,-56.5 1315,-75.5 1365,-75.5 1365,-56.5 1315,-56.5"/>
<text text-anchor="middle" x="1340" y="-63.5" font-family="Helvetica,sans-Serif" font-size="10.00">stdio.h</text>
</a>
</g>
</g>
<!-- Node4&#45;&gt;Node7 -->
<g id="edge6" class="edge">
<title>Node4&#45;&gt;Node7</title>
<path fill="none" stroke="midnightblue" d="M1095.16,-115.93C1139.18,-107.93 1226.93,-91.66 1301,-76 1302.26,-75.73 1303.55,-75.46 1304.84,-75.18"/>
<polygon fill="midnightblue" stroke="midnightblue" points="1305.86,-78.54 1314.85,-72.95 1304.33,-71.7 1305.86,-78.54"/>
</g>
<!-- Node8 -->
<g id="node8" class="node">
<title>Node8</title>
<g id="a_node8"><a xlink:title=" ">
<polygon fill="white" stroke="#bfbfbf" points="1582.5,-0.5 1582.5,-19.5 1641.5,-19.5 1641.5,-0.5 1582.5,-0.5"/>
<text text-anchor="middle" x="1612" y="-7.5" font-family="Helvetica,sans-Serif" font-size="10.00">complex</text>
</a>
</g>
</g>
<!-- Node4&#45;&gt;Node8 -->
<g id="edge7" class="edge">
<title>Node4&#45;&gt;Node8</title>
<path fill="none" stroke="midnightblue" d="M1095.2,-121.27C1162.97,-121.21 1339.76,-116.79 1480,-76 1520.67,-64.17 1564.03,-40.4 1589.54,-25.11"/>
<polygon fill="midnightblue" stroke="midnightblue" points="1591.68,-27.91 1598.4,-19.71 1588.04,-21.93 1591.68,-27.91"/>
</g>
<!-- Node9 -->
<g id="node9" class="node">
<title>Node9</title>
<g id="a_node9"><a xlink:title=" ">
<polygon fill="white" stroke="#bfbfbf" points="1383,-56.5 1383,-75.5 1427,-75.5 1427,-56.5 1383,-56.5"/>
<text text-anchor="middle" x="1405" y="-63.5" font-family="Helvetica,sans-Serif" font-size="10.00">cfloat</text>
</a>
</g>
</g>
<!-- Node4&#45;&gt;Node9 -->
<g id="edge8" class="edge">
<title>Node4&#45;&gt;Node9</title>
<path fill="none" stroke="midnightblue" d="M1095.17,-118.18C1147.86,-112.62 1265.03,-98.95 1372.69,-76.03"/>
<polygon fill="midnightblue" stroke="midnightblue" points="1373.71,-79.39 1382.74,-73.86 1372.23,-72.55 1373.71,-79.39"/>
</g>
<!-- Node10 -->
<g id="node10" class="node">
<title>Node10</title>
<g id="a_node10"><a xlink:title=" ">
<polygon fill="white" stroke="#bfbfbf" points="1396.5,-0.5 1396.5,-19.5 1443.5,-19.5 1443.5,-0.5 1396.5,-0.5"/>
<text text-anchor="middle" x="1420" y="-7.5" font-family="Helvetica,sans-Serif" font-size="10.00">vector</text>
</a>
</g>
</g>
<!-- Node4&#45;&gt;Node10 -->
<g id="edge9" class="edge">
<title>Node4&#45;&gt;Node10</title>
<path fill="none" stroke="midnightblue" d="M1095.1,-119.68C1177.39,-115.53 1413.43,-101.49 1436,-76 1447.63,-62.87 1439.98,-42.62 1431.75,-28.22"/>
<polygon fill="midnightblue" stroke="midnightblue" points="1434.71,-26.36 1426.45,-19.73 1428.78,-30.07 1434.71,-26.36"/>
</g>
<!-- Node11 -->
<g id="node11" class="node">
<title>Node11</title>
<g id="a_node11"><a xlink:title=" ">
<polygon fill="white" stroke="#bfbfbf" points="1559,-56.5 1559,-75.5 1603,-75.5 1603,-56.5 1559,-56.5"/>
<text text-anchor="middle" x="1581" y="-63.5" font-family="Helvetica,sans-Serif" font-size="10.00">SDL.h</text>
</a>
</g>
</g>
<!-- Node4&#45;&gt;Node11 -->
<g id="edge11" class="edge">
<title>Node4&#45;&gt;Node11</title>
<path fill="none" stroke="midnightblue" d="M1095.21,-119.83C1169.37,-116.45 1375.75,-104.95 1545,-76 1546.25,-75.79 1547.52,-75.55 1548.8,-75.3"/>
<polygon fill="midnightblue" stroke="midnightblue" points="1549.62,-78.7 1558.64,-73.15 1548.13,-71.87 1549.62,-78.7"/>
</g>
<!-- Node12 -->
<g id="node12" class="node">
<title>Node12</title>
<g id="a_node12"><a xlink:title=" ">
<polygon fill="white" stroke="#bfbfbf" points="66,-0.5 66,-19.5 114,-19.5 114,-0.5 66,-0.5"/>
<text text-anchor="middle" x="90" y="-7.5" font-family="Helvetica,sans-Serif" font-size="10.00">mutex</text>
</a>
</g>
</g>
<!-- Node4&#45;&gt;Node12 -->
<g id="edge12" class="edge">
<title>Node4&#45;&gt;Node12</title>
<path fill="none" stroke="midnightblue" d="M1038.78,-120.59C884.28,-118.24 146.48,-105.49 109,-76 95.31,-65.22 91.1,-45.14 89.99,-30.13"/>
<polygon fill="midnightblue" stroke="midnightblue" points="93.47,-29.76 89.63,-19.89 86.48,-30 93.47,-29.76"/>
</g>
<!-- Node13 -->
<g id="node13" class="node">
<title>Node13</title>
<g id="a_node13"><a xlink:title=" ">
<polygon fill="white" stroke="#bfbfbf" points="272,-56.5 272,-75.5 318,-75.5 318,-56.5 272,-56.5"/>
<text text-anchor="middle" x="295" y="-63.5" font-family="Helvetica,sans-Serif" font-size="10.00">future</text>
</a>
</g>
</g>
<!-- Node4&#45;&gt;Node13 -->
<g id="edge13" class="edge">
<title>Node4&#45;&gt;Node13</title>
<path fill="none" stroke="midnightblue" d="M1038.87,-121.44C941.42,-122.5 609.35,-122.39 328.26,-75.85"/>
<polygon fill="midnightblue" stroke="midnightblue" points="328.73,-72.37 318.29,-74.17 327.57,-79.28 328.73,-72.37"/>
</g>
<!-- Node14 -->
<g id="node14" class="node">
<title>Node14</title>
<g id="a_node14"><a xlink:title=" ">
<polygon fill="white" stroke="#bfbfbf" points="336,-56.5 336,-75.5 386,-75.5 386,-56.5 336,-56.5"/>
<text text-anchor="middle" x="361" y="-63.5" font-family="Helvetica,sans-Serif" font-size="10.00">fftw3.h</text>
</a>
</g>
</g>
<!-- Node4&#45;&gt;Node14 -->
<g id="edge15" class="edge">
<title>Node4&#45;&gt;Node14</title>
<path fill="none" stroke="midnightblue" d="M1038.87,-120.7C946.71,-119.39 645.69,-112.4 400,-76 398.72,-75.81 397.43,-75.6 396.12,-75.38"/>
<polygon fill="midnightblue" stroke="midnightblue" points="396.55,-71.89 386.06,-73.4 395.2,-78.76 396.55,-71.89"/>
</g>
<!-- Node15 -->
<g id="node15" class="node">
<title>Node15</title>
<g id="a_node15"><a xlink:title=" ">
<polygon fill="white" stroke="#bfbfbf" points="477,-0.5 477,-19.5 527,-19.5 527,-0.5 477,-0.5"/>
<text text-anchor="middle" x="502" y="-7.5" font-family="Helvetica,sans-Serif" font-size="10.00">chrono</text>
</a>
</g>
</g>
<!-- Node4&#45;&gt;Node15 -->
<g id="edge16" class="edge">
<title>Node4&#45;&gt;Node15</title>
<path fill="none" stroke="midnightblue" d="M1038.63,-121.2C920.87,-121.74 474.74,-120.81 433,-76 415.32,-57.02 445.58,-36.77 471.44,-24.01"/>
<polygon fill="midnightblue" stroke="midnightblue" points="473.11,-27.09 480.67,-19.66 470.13,-20.75 473.11,-27.09"/>
</g>
<!-- Node16 -->
<g id="node16" class="node">
<title>Node16</title>
<g id="a_node16"><a xlink:title=" ">
<polygon fill="white" stroke="#bfbfbf" points="442,-56.5 442,-75.5 506,-75.5 506,-56.5 442,-56.5"/>
<text text-anchor="middle" x="474" y="-63.5" font-family="Helvetica,sans-Serif" font-size="10.00">algorithm</text>
</a>
</g>
</g>
<!-- Node4&#45;&gt;Node16 -->
<g id="edge17" class="edge">
<title>Node4&#45;&gt;Node16</title>
<path fill="none" stroke="midnightblue" d="M1038.99,-120.05C958.94,-117.06 722.25,-106.24 516.25,-75.99"/>
<polygon fill="midnightblue" stroke="midnightblue" points="516.56,-72.5 506.15,-74.49 515.53,-79.42 516.56,-72.5"/>
</g>
<!-- Node17 -->
<g id="node17" class="node">
<title>Node17</title>
<g id="a_node17"><a xlink:title=" ">
<polygon fill="white" stroke="#bfbfbf" points="524,-56.5 524,-75.5 568,-75.5 568,-56.5 524,-56.5"/>
<text text-anchor="middle" x="546" y="-63.5" font-family="Helvetica,sans-Serif" font-size="10.00">ctime</text>
</a>
</g>
</g>
<!-- Node4&#45;&gt;Node17 -->
<g id="edge18" class="edge">
<title>Node4&#45;&gt;Node17</title>
<path fill="none" stroke="midnightblue" d="M1038.84,-120.29C964.74,-118.03 758.19,-109.18 578.14,-75.87"/>
<polygon fill="midnightblue" stroke="midnightblue" points="578.7,-72.41 568.23,-74 577.41,-79.29 578.7,-72.41"/>
</g>
<!-- Node18 -->
<g id="node18" class="node">
<title>Node18</title>
<g id="a_node18"><a xlink:href="../../d7/d50/BoundedThreadPool_8hpp.html" target="_top" xlink:title=" ">
<polygon fill="white" stroke="black" points="118.5,-56.5 118.5,-75.5 253.5,-75.5 253.5,-56.5 118.5,-56.5"/>
<text text-anchor="middle" x="186" y="-63.5" font-family="Helvetica,sans-Serif" font-size="10.00">BoundedThreadPool.hpp</text>
</a>
</g>
</g>
<!-- Node4&#45;&gt;Node18 -->
<g id="edge19" class="edge">
<title>Node4&#45;&gt;Node18</title>
<path fill="none" stroke="midnightblue" d="M1038.83,-120.04C936.43,-116.42 574.19,-102.49 263.68,-76"/>
<polygon fill="midnightblue" stroke="midnightblue" points="263.85,-72.5 253.58,-75.13 263.25,-79.48 263.85,-72.5"/>
</g>
<!-- Node24 -->
<g id="node24" class="node">
<title>Node24</title>
<g id="a_node24"><a xlink:title=" ">
<polygon fill="white" stroke="#bfbfbf" points="1462,-0.5 1462,-19.5 1564,-19.5 1564,-0.5 1462,-0.5"/>
<text text-anchor="middle" x="1513" y="-7.5" font-family="Helvetica,sans-Serif" font-size="10.00">tinycolormap.hpp</text>
</a>
</g>
</g>
<!-- Node4&#45;&gt;Node24 -->
<g id="edge27" class="edge">
<title>Node4&#45;&gt;Node24</title>
<path fill="none" stroke="midnightblue" d="M1095.18,-120.23C1173.17,-117.71 1390.24,-107.94 1453,-76 1474.31,-65.16 1491.89,-43.46 1502.4,-28.12"/>
<polygon fill="midnightblue" stroke="midnightblue" points="1505.46,-29.84 1508,-19.55 1499.6,-26.01 1505.46,-29.84"/>
</g>
<!-- Node25 -->
<g id="node25" class="node">
<title>Node25</title>
<g id="a_node25"><a xlink:title=" ">
<polygon fill="white" stroke="#bfbfbf" points="708,-56.5 708,-75.5 768,-75.5 768,-56.5 708,-56.5"/>
<text text-anchor="middle" x="738" y="-63.5" font-family="Helvetica,sans-Serif" font-size="10.00">fft2d.hpp</text>
</a>
</g>
</g>
<!-- Node4&#45;&gt;Node25 -->
<g id="edge28" class="edge">
<title>Node4&#45;&gt;Node25</title>
<path fill="none" stroke="midnightblue" d="M1038.61,-116.95C987.28,-109.53 875.65,-92.96 782,-76 780.75,-75.77 779.48,-75.54 778.2,-75.3"/>
<polygon fill="midnightblue" stroke="midnightblue" points="778.74,-71.84 768.26,-73.38 777.41,-78.71 778.74,-71.84"/>
</g>
<!-- Node26 -->
<g id="node26" class="node">
<title>Node26</title>
<g id="a_node26"><a xlink:href="../../d0/d3c/SocketConnector_8h.html" target="_top" xlink:title=" ">
<polygon fill="white" stroke="black" points="824.5,-56.5 824.5,-75.5 931.5,-75.5 931.5,-56.5 824.5,-56.5"/>
<text text-anchor="middle" x="878" y="-63.5" font-family="Helvetica,sans-Serif" font-size="10.00">SocketConnector.h</text>
</a>
</g>
</g>
<!-- Node4&#45;&gt;Node26 -->
<g id="edge29" class="edge">
<title>Node4&#45;&gt;Node26</title>
<path fill="none" stroke="midnightblue" d="M1038.7,-112.92C1006.61,-103.74 954.03,-88.72 917.81,-78.37"/>
<polygon fill="midnightblue" stroke="midnightblue" points="918.63,-74.97 908.05,-75.59 916.71,-81.7 918.63,-74.97"/>
</g>
<!-- Node30 -->
<g id="node30" class="node">
<title>Node30</title>
<g id="a_node30"><a xlink:href="../../da/dce/ProgressMonitor_8h.html" target="_top" xlink:title=" ">
<polygon fill="white" stroke="black" points="586,-56.5 586,-75.5 690,-75.5 690,-56.5 586,-56.5"/>
<text text-anchor="middle" x="638" y="-63.5" font-family="Helvetica,sans-Serif" font-size="10.00">ProgressMonitor.h</text>
</a>
</g>
</g>
<!-- Node4&#45;&gt;Node30 -->
<g id="edge36" class="edge">
<title>Node4&#45;&gt;Node30</title>
<path fill="none" stroke="midnightblue" d="M1038.81,-117.79C978.64,-110.9 832.96,-93.93 700.17,-76.13"/>
<polygon fill="midnightblue" stroke="midnightblue" points="700.61,-72.66 690.23,-74.79 699.68,-79.6 700.61,-72.66"/>
</g>
<!-- Node33 -->
<g id="node33" class="node">
<title>Node33</title>
<g id="a_node33"><a xlink:title=" ">
<polygon fill="white" stroke="#bfbfbf" points="950,-56.5 950,-75.5 1016,-75.5 1016,-56.5 950,-56.5"/>
<text text-anchor="middle" x="983" y="-63.5" font-family="Helvetica,sans-Serif" font-size="10.00">Cheetah.h</text>
</a>
</g>
</g>
<!-- Node4&#45;&gt;Node33 -->
<g id="edge44" class="edge">
<title>Node4&#45;&gt;Node33</title>
<path fill="none" stroke="midnightblue" d="M1053.5,-112.32C1040.4,-103.9 1020.29,-90.97 1004.89,-81.07"/>
<polygon fill="midnightblue" stroke="midnightblue" points="1006.77,-78.12 996.46,-75.65 1002.98,-84.01 1006.77,-78.12"/>
</g>
<!-- Node34 -->
<g id="node34" class="node">
<title>Node34</title>
<g id="a_node34"><a xlink:title=" ">
<polygon fill="white" stroke="#bfbfbf" points="1034.5,-56.5 1034.5,-75.5 1099.5,-75.5 1099.5,-56.5 1034.5,-56.5"/>
<text text-anchor="middle" x="1067" y="-63.5" font-family="Helvetica,sans-Serif" font-size="10.00">Timepix.h</text>
</a>
</g>
</g>
<!-- Node4&#45;&gt;Node34 -->
<g id="edge45" class="edge">
<title>Node4&#45;&gt;Node34</title>
<path fill="none" stroke="midnightblue" d="M1067,-112.08C1067,-105.01 1067,-94.86 1067,-85.99"/>
<polygon fill="midnightblue" stroke="midnightblue" points="1070.5,-85.75 1067,-75.75 1063.5,-85.75 1070.5,-85.75"/>
</g>
<!-- Node35 -->
<g id="node35" class="node">
<title>Node35</title>
<g id="a_node35"><a xlink:title=" ">
<polygon fill="white" stroke="#bfbfbf" points="1117.5,-56.5 1117.5,-75.5 1182.5,-75.5 1182.5,-56.5 1117.5,-56.5"/>
<text text-anchor="middle" x="1150" y="-63.5" font-family="Helvetica,sans-Serif" font-size="10.00">Advapix.h</text>
</a>
</g>
</g>
<!-- Node4&#45;&gt;Node35 -->
<g id="edge46" class="edge">
<title>Node4&#45;&gt;Node35</title>
<path fill="none" stroke="midnightblue" d="M1080.34,-112.32C1093.16,-103.98 1112.78,-91.21 1127.94,-81.35"/>
<polygon fill="midnightblue" stroke="midnightblue" points="1130.22,-84.04 1136.7,-75.65 1126.41,-78.17 1130.22,-84.04"/>
</g>
<!-- Node4&#45;&gt;Node36 -->
<g id="edge47" class="edge">
<title>Node4&#45;&gt;Node36</title>
<path fill="none" stroke="midnightblue" d="M1095.05,-119.46C1184.99,-114.43 1474.23,-97.57 1713,-76 1725.44,-74.88 1738.93,-73.46 1751.27,-72.08"/>
<polygon fill="midnightblue" stroke="midnightblue" points="1751.78,-75.55 1761.32,-70.94 1750.99,-68.59 1751.78,-75.55"/>
</g>
<!-- Node18&#45;&gt;Node3 -->
<g id="edge20" class="edge">
<title>Node18&#45;&gt;Node3</title>
<path fill="none" stroke="midnightblue" d="M160.33,-56.44C132.68,-47.23 88.54,-32.51 58.01,-22.34"/>
<polygon fill="midnightblue" stroke="midnightblue" points="58.82,-18.92 48.23,-19.08 56.61,-25.56 58.82,-18.92"/>
</g>
<!-- Node18&#45;&gt;Node12 -->
<g id="edge23" class="edge">
<title>Node18&#45;&gt;Node12</title>
<path fill="none" stroke="midnightblue" d="M170.58,-56.32C155.46,-47.82 132.18,-34.73 114.53,-24.8"/>
<polygon fill="midnightblue" stroke="midnightblue" points="115.82,-21.51 105.39,-19.65 112.39,-27.61 115.82,-21.51"/>
</g>
<!-- Node19 -->
<g id="node19" class="node">
<title>Node19</title>
<g id="a_node19"><a xlink:title=" ">
<polygon fill="white" stroke="#bfbfbf" points="340.5,-0.5 340.5,-19.5 387.5,-19.5 387.5,-0.5 340.5,-0.5"/>
<text text-anchor="middle" x="364" y="-7.5" font-family="Helvetica,sans-Serif" font-size="10.00">queue</text>
</a>
</g>
</g>
<!-- Node18&#45;&gt;Node19 -->
<g id="edge21" class="edge">
<title>Node18&#45;&gt;Node19</title>
<path fill="none" stroke="midnightblue" d="M214.2,-56.44C245.83,-46.85 297.08,-31.3 330.66,-21.11"/>
<polygon fill="midnightblue" stroke="midnightblue" points="331.92,-24.39 340.47,-18.14 329.89,-17.69 331.92,-24.39"/>
</g>
<!-- Node20 -->
<g id="node20" class="node">
<title>Node20</title>
<g id="a_node20"><a xlink:title=" ">
<polygon fill="white" stroke="#bfbfbf" points="132.5,-0.5 132.5,-19.5 197.5,-19.5 197.5,-0.5 132.5,-0.5"/>
<text text-anchor="middle" x="165" y="-7.5" font-family="Helvetica,sans-Serif" font-size="10.00">functional</text>
</a>
</g>
</g>
<!-- Node18&#45;&gt;Node20 -->
<g id="edge22" class="edge">
<title>Node18&#45;&gt;Node20</title>
<path fill="none" stroke="midnightblue" d="M182.53,-56.08C179.69,-48.77 175.57,-38.18 172.04,-29.1"/>
<polygon fill="midnightblue" stroke="midnightblue" points="175.29,-27.8 168.4,-19.75 168.77,-30.34 175.29,-27.8"/>
</g>
<!-- Node21 -->
<g id="node21" class="node">
<title>Node21</title>
<g id="a_node21"><a xlink:title=" ">
<polygon fill="white" stroke="#bfbfbf" points="215.5,-0.5 215.5,-19.5 322.5,-19.5 322.5,-0.5 215.5,-0.5"/>
<text text-anchor="middle" x="269" y="-7.5" font-family="Helvetica,sans-Serif" font-size="10.00">condition_variable</text>
</a>
</g>
</g>
<!-- Node18&#45;&gt;Node21 -->
<g id="edge24" class="edge">
<title>Node18&#45;&gt;Node21</title>
<path fill="none" stroke="midnightblue" d="M199.34,-56.32C212.16,-47.98 231.78,-35.21 246.94,-25.35"/>
<polygon fill="midnightblue" stroke="midnightblue" points="249.22,-28.04 255.7,-19.65 245.41,-22.17 249.22,-28.04"/>
</g>
<!-- Node22 -->
<g id="node22" class="node">
<title>Node22</title>
<g id="a_node22"><a xlink:title=" ">
<polygon fill="white" stroke="#bfbfbf" points="407,-0.5 407,-19.5 457,-19.5 457,-0.5 407,-0.5"/>
<text text-anchor="middle" x="432" y="-7.5" font-family="Helvetica,sans-Serif" font-size="10.00">atomic</text>
</a>
</g>
</g>
<!-- Node18&#45;&gt;Node22 -->
<g id="edge25" class="edge">
<title>Node18&#45;&gt;Node22</title>
<path fill="none" stroke="midnightblue" d="M227.93,-56.45C270.38,-47.69 337.89,-33.49 396,-20 396.33,-19.92 396.66,-19.85 396.99,-19.77"/>
<polygon fill="midnightblue" stroke="midnightblue" points="397.94,-23.14 406.85,-17.4 396.31,-16.33 397.94,-23.14"/>
</g>
<!-- Node23 -->
<g id="node23" class="node">
<title>Node23</title>
<g id="a_node23"><a xlink:title=" ">
<polygon fill="white" stroke="#bfbfbf" points="704,-0.5 704,-19.5 764,-19.5 764,-0.5 704,-0.5"/>
<text text-anchor="middle" x="734" y="-7.5" font-family="Helvetica,sans-Serif" font-size="10.00">iostream</text>
</a>
</g>
</g>
<!-- Node18&#45;&gt;Node23 -->
<g id="edge26" class="edge">
<title>Node18&#45;&gt;Node23</title>
<path fill="none" stroke="midnightblue" d="M253.59,-56.97C256.77,-56.63 259.92,-56.31 263,-56 451.43,-37.14 502.9,-49.31 693.77,-19.98"/>
<polygon fill="midnightblue" stroke="midnightblue" points="694.51,-23.4 703.85,-18.41 693.43,-16.49 694.51,-23.4"/>
</g>
<!-- Node26&#45;&gt;Node2 -->
<g id="edge34" class="edge">
<title>Node26&#45;&gt;Node2</title>
<path fill="none" stroke="midnightblue" d="M931.61,-57.26C934.78,-56.83 937.93,-56.41 941,-56 1065.62,-39.52 1214.17,-22.14 1278.57,-14.71"/>
<polygon fill="midnightblue" stroke="midnightblue" points="1279.34,-18.15 1288.88,-13.53 1278.54,-11.19 1279.34,-18.15"/>
</g>
<!-- Node26&#45;&gt;Node5 -->
<g id="edge31" class="edge">
<title>Node26&#45;&gt;Node5</title>
<path fill="none" stroke="midnightblue" d="M926.17,-56.44C986.41,-45.74 1088.33,-27.64 1143.59,-17.82"/>
<polygon fill="midnightblue" stroke="midnightblue" points="1144.44,-21.23 1153.67,-16.03 1143.22,-14.33 1144.44,-21.23"/>
</g>
<!-- Node26&#45;&gt;Node23 -->
<g id="edge35" class="edge">
<title>Node26&#45;&gt;Node23</title>
<path fill="none" stroke="midnightblue" d="M855.18,-56.44C831.17,-47.44 793.17,-33.19 766.13,-23.05"/>
<polygon fill="midnightblue" stroke="midnightblue" points="767.3,-19.75 756.71,-19.52 764.84,-26.3 767.3,-19.75"/>
</g>
<!-- Node27 -->
<g id="node27" class="node">
<title>Node27</title>
<g id="a_node27"><a xlink:title=" ">
<polygon fill="white" stroke="#bfbfbf" points="980.5,-0.5 980.5,-19.5 1049.5,-19.5 1049.5,-0.5 980.5,-0.5"/>
<text text-anchor="middle" x="1015" y="-7.5" font-family="Helvetica,sans-Serif" font-size="10.00">arpa/inet.h</text>
</a>
</g>
</g>
<!-- Node26&#45;&gt;Node27 -->
<g id="edge30" class="edge">
<title>Node26&#45;&gt;Node27</title>
<path fill="none" stroke="midnightblue" d="M899.71,-56.44C922.35,-47.52 958.07,-33.44 983.75,-23.32"/>
<polygon fill="midnightblue" stroke="midnightblue" points="985.37,-26.44 993.39,-19.52 982.81,-19.93 985.37,-26.44"/>
</g>
<!-- Node28 -->
<g id="node28" class="node">
<title>Node28</title>
<g id="a_node28"><a xlink:title=" ">
<polygon fill="white" stroke="#bfbfbf" points="850.5,-0.5 850.5,-19.5 897.5,-19.5 897.5,-0.5 850.5,-0.5"/>
<text text-anchor="middle" x="874" y="-7.5" font-family="Helvetica,sans-Serif" font-size="10.00">cerrno</text>
</a>
</g>
</g>
<!-- Node26&#45;&gt;Node28 -->
<g id="edge32" class="edge">
<title>Node26&#45;&gt;Node28</title>
<path fill="none" stroke="midnightblue" d="M877.34,-56.08C876.82,-49.01 876.06,-38.86 875.41,-29.99"/>
<polygon fill="midnightblue" stroke="midnightblue" points="878.88,-29.47 874.65,-19.75 871.9,-29.98 878.88,-29.47"/>
</g>
<!-- Node29 -->
<g id="node29" class="node">
<title>Node29</title>
<g id="a_node29"><a xlink:title=" ">
<polygon fill="white" stroke="#bfbfbf" points="782,-0.5 782,-19.5 832,-19.5 832,-0.5 782,-0.5"/>
<text text-anchor="middle" x="807" y="-7.5" font-family="Helvetica,sans-Serif" font-size="10.00">cstring</text>
</a>
</g>
</g>
<!-- Node26&#45;&gt;Node29 -->
<g id="edge33" class="edge">
<title>Node26&#45;&gt;Node29</title>
<path fill="none" stroke="midnightblue" d="M866.59,-56.32C855.89,-48.18 839.66,-35.84 826.84,-26.09"/>
<polygon fill="midnightblue" stroke="midnightblue" points="828.69,-23.1 818.61,-19.83 824.46,-28.67 828.69,-23.1"/>
</g>
<!-- Node30&#45;&gt;Node6 -->
<g id="edge43" class="edge">
<title>Node30&#45;&gt;Node6</title>
<path fill="none" stroke="midnightblue" d="M690.25,-56.86C752.07,-47.13 852.32,-31 905.33,-19.92"/>
<polygon fill="midnightblue" stroke="midnightblue" points="906.24,-23.3 915.28,-17.77 904.76,-16.46 906.24,-23.3"/>
</g>
<!-- Node30&#45;&gt;Node15 -->
<g id="edge42" class="edge">
<title>Node30&#45;&gt;Node15</title>
<path fill="none" stroke="midnightblue" d="M616.45,-56.44C593.97,-47.52 558.51,-33.44 533.02,-23.32"/>
<polygon fill="midnightblue" stroke="midnightblue" points="534.03,-19.95 523.45,-19.52 531.45,-26.46 534.03,-19.95"/>
</g>
<!-- Node30&#45;&gt;Node22 -->
<g id="edge41" class="edge">
<title>Node30&#45;&gt;Node22</title>
<path fill="none" stroke="midnightblue" d="M605.36,-56.44C567.55,-46.53 505.53,-30.27 466.82,-20.13"/>
<polygon fill="midnightblue" stroke="midnightblue" points="467.6,-16.71 457.04,-17.56 465.82,-23.48 467.6,-16.71"/>
</g>
<!-- Node30&#45;&gt;Node23 -->
<g id="edge38" class="edge">
<title>Node30&#45;&gt;Node23</title>
<path fill="none" stroke="midnightblue" d="M653.42,-56.32C668.54,-47.82 691.82,-34.73 709.47,-24.8"/>
<polygon fill="midnightblue" stroke="midnightblue" points="711.61,-27.61 718.61,-19.65 708.18,-21.51 711.61,-27.61"/>
</g>
<!-- Node30&#45;&gt;Node29 -->
<g id="edge40" class="edge">
<title>Node30&#45;&gt;Node29</title>
<path fill="none" stroke="midnightblue" d="M664.78,-56.44C693.84,-47.16 740.34,-32.3 772.21,-22.12"/>
<polygon fill="midnightblue" stroke="midnightblue" points="773.54,-25.37 782,-18.99 771.41,-18.7 773.54,-25.37"/>
</g>
<!-- Node31 -->
<g id="node31" class="node">
<title>Node31</title>
<g id="a_node31"><a xlink:title=" ">
<polygon fill="white" stroke="#bfbfbf" points="546,-0.5 546,-19.5 612,-19.5 612,-0.5 546,-0.5"/>
<text text-anchor="middle" x="579" y="-7.5" font-family="Helvetica,sans-Serif" font-size="10.00">sys/ioctl.h</text>
</a>
</g>
</g>
<!-- Node30&#45;&gt;Node31 -->
<g id="edge37" class="edge">
<title>Node30&#45;&gt;Node31</title>
<path fill="none" stroke="midnightblue" d="M628.52,-56.32C619.8,-48.34 606.66,-36.31 596.1,-26.65"/>
<polygon fill="midnightblue" stroke="midnightblue" points="598.39,-24 588.65,-19.83 593.67,-29.17 598.39,-24"/>
</g>
<!-- Node32 -->
<g id="node32" class="node">
<title>Node32</title>
<g id="a_node32"><a xlink:title=" ">
<polygon fill="white" stroke="#bfbfbf" points="630,-0.5 630,-19.5 686,-19.5 686,-0.5 630,-0.5"/>
<text text-anchor="middle" x="658" y="-7.5" font-family="Helvetica,sans-Serif" font-size="10.00">iomanip</text>
</a>
</g>
</g>
<!-- Node30&#45;&gt;Node32 -->
<g id="edge39" class="edge">
<title>Node30&#45;&gt;Node32</title>
<path fill="none" stroke="midnightblue" d="M641.3,-56.08C643.98,-48.85 647.85,-38.41 651.19,-29.4"/>
<polygon fill="midnightblue" stroke="midnightblue" points="654.57,-30.34 654.76,-19.75 648,-27.91 654.57,-30.34"/>
</g>
<!-- Node36&#45;&gt;Node2 -->
<g id="edge48" class="edge">
<title>Node36&#45;&gt;Node2</title>
<path fill="none" stroke="midnightblue" d="M1761.45,-58.38C1756.62,-57.51 1751.69,-56.68 1747,-56 1587.88,-32.86 1546.85,-37.46 1387,-20 1372.72,-18.44 1356.95,-16.59 1343.49,-14.98"/>
<polygon fill="midnightblue" stroke="midnightblue" points="1343.62,-11.47 1333.27,-13.75 1342.78,-18.42 1343.62,-11.47"/>
</g>
<!-- Node36&#45;&gt;Node8 -->
<g id="edge50" class="edge">
<title>Node36&#45;&gt;Node8</title>
<path fill="none" stroke="midnightblue" d="M1765.16,-56.44C1734.14,-47.24 1684.67,-32.56 1650.38,-22.39"/>
<polygon fill="midnightblue" stroke="midnightblue" points="1651.29,-19.01 1640.7,-19.52 1649.29,-25.72 1651.29,-19.01"/>
</g>
<!-- Node36&#45;&gt;Node10 -->
<g id="edge49" class="edge">
<title>Node36&#45;&gt;Node10</title>
<path fill="none" stroke="midnightblue" d="M1761.43,-58.47C1756.6,-57.59 1751.68,-56.73 1747,-56 1620.12,-36.11 1583.93,-44.93 1453.66,-19.85"/>
<polygon fill="midnightblue" stroke="midnightblue" points="1454.18,-16.39 1443.7,-17.9 1452.84,-23.26 1454.18,-16.39"/>
</g>
<!-- Node36&#45;&gt;Node24 -->
<g id="edge56" class="edge">
<title>Node36&#45;&gt;Node24</title>
<path fill="none" stroke="midnightblue" d="M1761.49,-58.75C1714.06,-49.64 1625.3,-32.58 1567.7,-21.51"/>
<polygon fill="midnightblue" stroke="midnightblue" points="1568.16,-18.04 1557.68,-19.59 1566.84,-24.91 1568.16,-18.04"/>
</g>
<!-- Node37 -->
<g id="node37" class="node">
<title>Node37</title>
<g id="a_node37"><a xlink:title=" ">
<polygon fill="white" stroke="#bfbfbf" points="1660,-0.5 1660,-19.5 1728,-19.5 1728,-0.5 1660,-0.5"/>
<text text-anchor="middle" x="1694" y="-7.5" font-family="Helvetica,sans-Serif" font-size="10.00">filesystem</text>
</a>
</g>
</g>
<!-- Node36&#45;&gt;Node37 -->
<g id="edge51" class="edge">
<title>Node36&#45;&gt;Node37</title>
<path fill="none" stroke="midnightblue" d="M1777.93,-56.32C1762.04,-47.74 1737.49,-34.49 1719.04,-24.52"/>
<polygon fill="midnightblue" stroke="midnightblue" points="1720.49,-21.33 1710.03,-19.65 1717.16,-27.49 1720.49,-21.33"/>
</g>
<!-- Node38 -->
<g id="node38" class="node">
<title>Node38</title>
<g id="a_node38"><a xlink:title=" ">
<polygon fill="white" stroke="#bfbfbf" points="2016,-0.5 2016,-19.5 2096,-19.5 2096,-0.5 2016,-0.5"/>
<text text-anchor="middle" x="2056" y="-7.5" font-family="Helvetica,sans-Serif" font-size="10.00">SDL_image.h</text>
</a>
</g>
</g>
<!-- Node36&#45;&gt;Node38 -->
<g id="edge52" class="edge">
<title>Node36&#45;&gt;Node38</title>
<path fill="none" stroke="midnightblue" d="M1826.65,-58.27C1871.63,-49 1953.05,-32.22 2005.8,-21.35"/>
<polygon fill="midnightblue" stroke="midnightblue" points="2006.53,-24.77 2015.62,-19.32 2005.12,-17.91 2006.53,-24.77"/>
</g>
<!-- Node39 -->
<g id="node39" class="node">
<title>Node39</title>
<g id="a_node39"><a xlink:title=" ">
<polygon fill="white" stroke="#bfbfbf" points="1746.5,-0.5 1746.5,-19.5 1799.5,-19.5 1799.5,-0.5 1746.5,-0.5"/>
<text text-anchor="middle" x="1773" y="-7.5" font-family="Helvetica,sans-Serif" font-size="10.00">imgui.h</text>
</a>
</g>
</g>
<!-- Node36&#45;&gt;Node39 -->
<g id="edge53" class="edge">
<title>Node36&#45;&gt;Node39</title>
<path fill="none" stroke="midnightblue" d="M1790.53,-56.08C1787.69,-48.77 1783.57,-38.18 1780.04,-29.1"/>
<polygon fill="midnightblue" stroke="midnightblue" points="1783.29,-27.8 1776.4,-19.75 1776.77,-30.34 1783.29,-27.8"/>
</g>
<!-- Node40 -->
<g id="node40" class="node">
<title>Node40</title>
<g id="a_node40"><a xlink:title=" ">
<polygon fill="white" stroke="#bfbfbf" points="1818,-0.5 1818,-19.5 1914,-19.5 1914,-0.5 1818,-0.5"/>
<text text-anchor="middle" x="1866" y="-7.5" font-family="Helvetica,sans-Serif" font-size="10.00">imgui_internal.h</text>
</a>
</g>
</g>
<!-- Node36&#45;&gt;Node40 -->
<g id="edge54" class="edge">
<title>Node36&#45;&gt;Node40</title>
<path fill="none" stroke="midnightblue" d="M1805.57,-56.32C1816.42,-48.18 1832.88,-35.84 1845.88,-26.09"/>
<polygon fill="midnightblue" stroke="midnightblue" points="1848.32,-28.63 1854.22,-19.83 1844.12,-23.03 1848.32,-28.63"/>
</g>
<!-- Node41 -->
<g id="node41" class="node">
<title>Node41</title>
<g id="a_node41"><a xlink:title=" ">
<polygon fill="white" stroke="#bfbfbf" points="1932,-0.5 1932,-19.5 1998,-19.5 1998,-0.5 1932,-0.5"/>
<text text-anchor="middle" x="1965" y="-7.5" font-family="Helvetica,sans-Serif" font-size="10.00">libnpy.hpp</text>
</a>
</g>
</g>
<!-- Node36&#45;&gt;Node41 -->
<g id="edge55" class="edge">
<title>Node36&#45;&gt;Node41</title>
<path fill="none" stroke="midnightblue" d="M1821.1,-56.44C1849.99,-47.32 1895.92,-32.81 1928.11,-22.65"/>
<polygon fill="midnightblue" stroke="midnightblue" points="1929.55,-25.87 1938.03,-19.52 1927.44,-19.19 1929.55,-25.87"/>
</g>
<!-- Node42&#45;&gt;Node11 -->
<g id="edge58" class="edge">
<title>Node42&#45;&gt;Node11</title>
<path fill="none" stroke="midnightblue" d="M1609.39,-112.08C1604.63,-104.53 1597.68,-93.49 1591.85,-84.23"/>
<polygon fill="midnightblue" stroke="midnightblue" points="1594.8,-82.35 1586.51,-75.75 1588.88,-86.08 1594.8,-82.35"/>
</g>
<!-- Node42&#45;&gt;Node23 -->
<g id="edge61" class="edge">
<title>Node42&#45;&gt;Node23</title>
<path fill="none" stroke="midnightblue" d="M1559.83,-119.84C1390.27,-116.02 884.04,-102.48 815,-76 788.05,-65.66 763.13,-42.83 748.24,-27.18"/>
<polygon fill="midnightblue" stroke="midnightblue" points="750.75,-24.75 741.41,-19.75 745.6,-29.48 750.75,-24.75"/>
</g>
<!-- Node42&#45;&gt;Node38 -->
<g id="edge59" class="edge">
<title>Node42&#45;&gt;Node38</title>
<path fill="none" stroke="midnightblue" d="M1662.47,-112.49C1707.2,-104.18 1775.98,-90.69 1835,-76 1900.89,-59.6 1976.58,-36.37 2020.1,-22.57"/>
<polygon fill="midnightblue" stroke="midnightblue" points="2021.19,-25.9 2029.66,-19.53 2019.07,-19.23 2021.19,-25.9"/>
</g>
<!-- Node43 -->
<g id="node43" class="node">
<title>Node43</title>
<g id="a_node43"><a xlink:title=" ">
<polygon fill="white" stroke="#bfbfbf" points="1621.5,-56.5 1621.5,-75.5 1704.5,-75.5 1704.5,-56.5 1621.5,-56.5"/>
<text text-anchor="middle" x="1663" y="-63.5" font-family="Helvetica,sans-Serif" font-size="10.00">SDL_opengl.h</text>
</a>
</g>
</g>
<!-- Node42&#45;&gt;Node43 -->
<g id="edge60" class="edge">
<title>Node42&#45;&gt;Node43</title>
<path fill="none" stroke="midnightblue" d="M1622.93,-112.08C1629.85,-104.3 1640.07,-92.8 1648.45,-83.37"/>
<polygon fill="midnightblue" stroke="midnightblue" points="1651.19,-85.55 1655.22,-75.75 1645.96,-80.9 1651.19,-85.55"/>
</g>
</g>
</svg>
