<?xml version="1.0" encoding="UTF-8" standalone="no"?>
<!DOCTYPE svg PUBLIC "-//W3C//DTD SVG 1.1//EN"
 "http://www.w3.org/Graphics/SVG/1.1/DTD/svg11.dtd">
<!-- Generated by graphviz version 2.43.0 (0)
 -->
<!-- Title: src/RunCLI.cpp Pages: 1 -->
<svg width="2251pt" height="196pt"
 viewBox="0.00 0.00 2251.00 196.00" xmlns="http://www.w3.org/2000/svg" xmlns:xlink="http://www.w3.org/1999/xlink">
<g id="graph0" class="graph" transform="scale(1 1) rotate(0) translate(4 192)">
<title>src/RunCLI.cpp</title>
<polygon fill="white" stroke="transparent" points="-4,4 -4,-192 2247,-192 2247,4 -4,4"/>
<!-- Node1 -->
<g id="node1" class="node">
<title>Node1</title>
<g id="a_node1"><a xlink:title=" ">
<polygon fill="#bfbfbf" stroke="black" points="1735,-168.5 1735,-187.5 1823,-187.5 1823,-168.5 1735,-168.5"/>
<text text-anchor="middle" x="1779" y="-175.5" font-family="Helvetica,sans-Serif" font-size="10.00">src/RunCLI.cpp</text>
</a>
</g>
</g>
<!-- Node2 -->
<g id="node2" class="node">
<title>Node2</title>
<g id="a_node2"><a xlink:title=" ">
<polygon fill="white" stroke="#bfbfbf" points="1547,-0.5 1547,-19.5 1591,-19.5 1591,-0.5 1547,-0.5"/>
<text text-anchor="middle" x="1569" y="-7.5" font-family="Helvetica,sans-Serif" font-size="10.00">string</text>
</a>
</g>
</g>
<!-- Node1&#45;&gt;Node2 -->
<g id="edge1" class="edge">
<title>Node1&#45;&gt;Node2</title>
<path fill="none" stroke="midnightblue" d="M1795.32,-168.45C1831.59,-148.39 1912.95,-96.92 1877,-56 1837.87,-11.46 1676.24,-30.74 1601.23,-19.67"/>
<polygon fill="midnightblue" stroke="midnightblue" points="1601.71,-16.2 1591.25,-17.9 1600.48,-23.1 1601.71,-16.2"/>
</g>
<!-- Node3 -->
<g id="node3" class="node">
<title>Node3</title>
<g id="a_node3"><a xlink:title=" ">
<polygon fill="white" stroke="#bfbfbf" points="340,-0.5 340,-19.5 388,-19.5 388,-0.5 340,-0.5"/>
<text text-anchor="middle" x="364" y="-7.5" font-family="Helvetica,sans-Serif" font-size="10.00">thread</text>
</a>
</g>
</g>
<!-- Node1&#45;&gt;Node3 -->
<g id="edge2" class="edge">
<title>Node1&#45;&gt;Node3</title>
<path fill="none" stroke="midnightblue" d="M1734.98,-177.4C1503.8,-179.04 436.95,-180.89 340,-76 327.56,-62.54 338.43,-42.07 349.27,-27.71"/>
<polygon fill="midnightblue" stroke="midnightblue" points="352.21,-29.64 355.81,-19.68 346.78,-25.22 352.21,-29.64"/>
</g>
<!-- Node4 -->
<g id="node4" class="node">
<title>Node4</title>
<g id="a_node4"><a xlink:href="../../de/dfc/Ricom_8h.html" target="_top" xlink:title=" ">
<polygon fill="white" stroke="black" points="1060,-112.5 1060,-131.5 1116,-131.5 1116,-112.5 1060,-112.5"/>
<text text-anchor="middle" x="1088" y="-119.5" font-family="Helvetica,sans-Serif" font-size="10.00">Ricom.h</text>
</a>
</g>
</g>
<!-- Node1&#45;&gt;Node4 -->
<g id="edge3" class="edge">
<title>Node1&#45;&gt;Node4</title>
<path fill="none" stroke="midnightblue" d="M1734.99,-173.56C1608.45,-163.67 1245.14,-135.28 1126.2,-125.99"/>
<polygon fill="midnightblue" stroke="midnightblue" points="1126.35,-122.49 1116.11,-125.2 1125.81,-129.47 1126.35,-122.49"/>
</g>
<!-- Node38 -->
<g id="node38" class="node">
<title>Node38</title>
<g id="a_node38"><a xlink:href="../../d7/db2/GuiUtils_8h.html" target="_top" xlink:title=" ">
<polygon fill="white" stroke="black" points="1925.5,-56.5 1925.5,-75.5 1990.5,-75.5 1990.5,-56.5 1925.5,-56.5"/>
<text text-anchor="middle" x="1958" y="-63.5" font-family="Helvetica,sans-Serif" font-size="10.00">GuiUtils.h</text>
</a>
</g>
</g>
<!-- Node1&#45;&gt;Node38 -->
<g id="edge66" class="edge">
<title>Node1&#45;&gt;Node38</title>
<path fill="none" stroke="midnightblue" d="M1823.2,-169.08C1850.49,-162.54 1885.11,-151.14 1911,-132 1927.74,-119.62 1940.96,-99.53 1949.06,-84.96"/>
<polygon fill="midnightblue" stroke="midnightblue" points="1952.26,-86.4 1953.83,-75.92 1946.07,-83.13 1952.26,-86.4"/>
</g>
<!-- Node44 -->
<g id="node44" class="node">
<title>Node44</title>
<g id="a_node44"><a xlink:href="../../dc/dd0/SdlImageWindow_8h.html" target="_top" xlink:title=" ">
<polygon fill="white" stroke="black" points="1724,-112.5 1724,-131.5 1834,-131.5 1834,-112.5 1724,-112.5"/>
<text text-anchor="middle" x="1779" y="-119.5" font-family="Helvetica,sans-Serif" font-size="10.00">SdlImageWindow.h</text>
</a>
</g>
</g>
<!-- Node1&#45;&gt;Node44 -->
<g id="edge61" class="edge">
<title>Node1&#45;&gt;Node44</title>
<path fill="none" stroke="midnightblue" d="M1779,-168.08C1779,-161.01 1779,-150.86 1779,-141.99"/>
<polygon fill="midnightblue" stroke="midnightblue" points="1782.5,-141.75 1779,-131.75 1775.5,-141.75 1782.5,-141.75"/>
</g>
<!-- Node4&#45;&gt;Node2 -->
<g id="edge10" class="edge">
<title>Node4&#45;&gt;Node2</title>
<path fill="none" stroke="midnightblue" d="M1116.27,-119.77C1209.54,-115.51 1503.48,-100.27 1538,-76 1553.31,-65.24 1561.31,-44.84 1565.32,-29.76"/>
<polygon fill="midnightblue" stroke="midnightblue" points="1568.75,-30.45 1567.58,-19.92 1561.93,-28.88 1568.75,-30.45"/>
</g>
<!-- Node4&#45;&gt;Node3 -->
<g id="edge14" class="edge">
<title>Node4&#45;&gt;Node3</title>
<path fill="none" stroke="midnightblue" d="M1059.69,-120.35C927.3,-117.16 374.77,-102.32 350,-76 338.17,-63.43 344.94,-43.37 352.61,-28.86"/>
<polygon fill="midnightblue" stroke="midnightblue" points="355.84,-30.26 357.85,-19.86 349.79,-26.74 355.84,-30.26"/>
</g>
<!-- Node5 -->
<g id="node5" class="node">
<title>Node5</title>
<g id="a_node5"><a xlink:title=" ">
<polygon fill="white" stroke="#bfbfbf" points="512,-0.5 512,-19.5 568,-19.5 568,-0.5 512,-0.5"/>
<text text-anchor="middle" x="540" y="-7.5" font-family="Helvetica,sans-Serif" font-size="10.00">unistd.h</text>
</a>
</g>
</g>
<!-- Node4&#45;&gt;Node5 -->
<g id="edge4" class="edge">
<title>Node4&#45;&gt;Node5</title>
<path fill="none" stroke="midnightblue" d="M1059.65,-120.95C949.87,-120.47 556.92,-115.96 520,-76 507.91,-62.91 517.03,-42.66 526.55,-28.24"/>
<polygon fill="midnightblue" stroke="midnightblue" points="529.66,-29.91 532.65,-19.75 523.97,-25.83 529.66,-29.91"/>
</g>
<!-- Node6 -->
<g id="node6" class="node">
<title>Node6</title>
<g id="a_node6"><a xlink:title=" ">
<polygon fill="white" stroke="#bfbfbf" points="1284.5,-0.5 1284.5,-19.5 1331.5,-19.5 1331.5,-0.5 1284.5,-0.5"/>
<text text-anchor="middle" x="1308" y="-7.5" font-family="Helvetica,sans-Serif" font-size="10.00">cmath</text>
</a>
</g>
</g>
<!-- Node4&#45;&gt;Node6 -->
<g id="edge5" class="edge">
<title>Node4&#45;&gt;Node6</title>
<path fill="none" stroke="midnightblue" d="M1116.34,-119.62C1170.95,-116.31 1287.56,-105.84 1312,-76 1322.5,-63.18 1319.66,-43.72 1315.32,-29.43"/>
<polygon fill="midnightblue" stroke="midnightblue" points="1318.52,-27.99 1311.9,-19.71 1311.92,-30.31 1318.52,-27.99"/>
</g>
<!-- Node7 -->
<g id="node7" class="node">
<title>Node7</title>
<g id="a_node7"><a xlink:title=" ">
<polygon fill="white" stroke="#bfbfbf" points="1479,-56.5 1479,-75.5 1529,-75.5 1529,-56.5 1479,-56.5"/>
<text text-anchor="middle" x="1504" y="-63.5" font-family="Helvetica,sans-Serif" font-size="10.00">stdio.h</text>
</a>
</g>
</g>
<!-- Node4&#45;&gt;Node7 -->
<g id="edge6" class="edge">
<title>Node4&#45;&gt;Node7</title>
<path fill="none" stroke="midnightblue" d="M1116.05,-118.7C1178.87,-113.31 1335.46,-98.61 1465,-76 1466.27,-75.78 1467.56,-75.54 1468.86,-75.29"/>
<polygon fill="midnightblue" stroke="midnightblue" points="1469.82,-78.67 1478.91,-73.21 1468.4,-71.81 1469.82,-78.67"/>
</g>
<!-- Node8 -->
<g id="node8" class="node">
<title>Node8</title>
<g id="a_node8"><a xlink:title=" ">
<polygon fill="white" stroke="#bfbfbf" points="1729.5,-0.5 1729.5,-19.5 1788.5,-19.5 1788.5,-0.5 1729.5,-0.5"/>
<text text-anchor="middle" x="1759" y="-7.5" font-family="Helvetica,sans-Serif" font-size="10.00">complex</text>
</a>
</g>
</g>
<!-- Node4&#45;&gt;Node8 -->
<g id="edge7" class="edge">
<title>Node4&#45;&gt;Node8</title>
<path fill="none" stroke="midnightblue" d="M1116.26,-120.61C1216.82,-118.93 1556.73,-110.75 1659,-76 1690.96,-65.14 1722.77,-41.75 1741.66,-26.19"/>
<polygon fill="midnightblue" stroke="midnightblue" points="1744,-28.8 1749.38,-19.67 1739.49,-23.45 1744,-28.8"/>
</g>
<!-- Node9 -->
<g id="node9" class="node">
<title>Node9</title>
<g id="a_node9"><a xlink:title=" ">
<polygon fill="white" stroke="#bfbfbf" points="1585,-56.5 1585,-75.5 1629,-75.5 1629,-56.5 1585,-56.5"/>
<text text-anchor="middle" x="1607" y="-63.5" font-family="Helvetica,sans-Serif" font-size="10.00">cfloat</text>
</a>
</g>
</g>
<!-- Node4&#45;&gt;Node9 -->
<g id="edge8" class="edge">
<title>Node4&#45;&gt;Node9</title>
<path fill="none" stroke="midnightblue" d="M1116.23,-119.87C1190.94,-116.56 1399.77,-105.21 1571,-76 1572.25,-75.79 1573.52,-75.55 1574.8,-75.3"/>
<polygon fill="midnightblue" stroke="midnightblue" points="1575.62,-78.71 1584.64,-73.15 1574.13,-71.87 1575.62,-78.71"/>
</g>
<!-- Node10 -->
<g id="node10" class="node">
<title>Node10</title>
<g id="a_node10"><a xlink:title=" ">
<polygon fill="white" stroke="#bfbfbf" points="1481.5,-0.5 1481.5,-19.5 1528.5,-19.5 1528.5,-0.5 1481.5,-0.5"/>
<text text-anchor="middle" x="1505" y="-7.5" font-family="Helvetica,sans-Serif" font-size="10.00">vector</text>
</a>
</g>
</g>
<!-- Node4&#45;&gt;Node10 -->
<g id="edge9" class="edge">
<title>Node4&#45;&gt;Node10</title>
<path fill="none" stroke="midnightblue" d="M1116.05,-119.46C1187.67,-115.18 1375.65,-101.76 1432,-76 1456.48,-64.81 1478.65,-42.53 1491.98,-27.2"/>
<polygon fill="midnightblue" stroke="midnightblue" points="1494.68,-29.42 1498.43,-19.51 1489.32,-24.92 1494.68,-29.42"/>
</g>
<!-- Node11 -->
<g id="node11" class="node">
<title>Node11</title>
<g id="a_node11"><a xlink:title=" ">
<polygon fill="white" stroke="#bfbfbf" points="1723,-56.5 1723,-75.5 1767,-75.5 1767,-56.5 1723,-56.5"/>
<text text-anchor="middle" x="1745" y="-63.5" font-family="Helvetica,sans-Serif" font-size="10.00">SDL.h</text>
</a>
</g>
</g>
<!-- Node4&#45;&gt;Node11 -->
<g id="edge11" class="edge">
<title>Node4&#45;&gt;Node11</title>
<path fill="none" stroke="midnightblue" d="M1116.05,-120.69C1204.03,-119.34 1482.18,-112.29 1709,-76 1710.25,-75.8 1711.53,-75.58 1712.81,-75.34"/>
<polygon fill="midnightblue" stroke="midnightblue" points="1713.61,-78.74 1722.66,-73.22 1712.14,-71.9 1713.61,-78.74"/>
</g>
<!-- Node12 -->
<g id="node12" class="node">
<title>Node12</title>
<g id="a_node12"><a xlink:title=" ">
<polygon fill="white" stroke="#bfbfbf" points="0,-0.5 0,-19.5 48,-19.5 48,-0.5 0,-0.5"/>
<text text-anchor="middle" x="24" y="-7.5" font-family="Helvetica,sans-Serif" font-size="10.00">mutex</text>
</a>
</g>
</g>
<!-- Node4&#45;&gt;Node12 -->
<g id="edge12" class="edge">
<title>Node4&#45;&gt;Node12</title>
<path fill="none" stroke="midnightblue" d="M1059.55,-120.6C909.27,-118.34 211.1,-106.27 120,-76 88.98,-65.69 58.68,-42.3 40.67,-26.57"/>
<polygon fill="midnightblue" stroke="midnightblue" points="42.64,-23.64 32.87,-19.56 37.96,-28.85 42.64,-23.64"/>
</g>
<!-- Node13 -->
<g id="node13" class="node">
<title>Node13</title>
<g id="a_node13"><a xlink:title=" ">
<polygon fill="white" stroke="#bfbfbf" points="359,-56.5 359,-75.5 405,-75.5 405,-56.5 359,-56.5"/>
<text text-anchor="middle" x="382" y="-63.5" font-family="Helvetica,sans-Serif" font-size="10.00">future</text>
</a>
</g>
</g>
<!-- Node4&#45;&gt;Node13 -->
<g id="edge13" class="edge">
<title>Node4&#45;&gt;Node13</title>
<path fill="none" stroke="midnightblue" d="M1059.83,-121.2C968.08,-121.42 669.63,-118.69 415.45,-75.89"/>
<polygon fill="midnightblue" stroke="midnightblue" points="415.74,-72.39 405.29,-74.15 414.56,-79.29 415.74,-72.39"/>
</g>
<!-- Node14 -->
<g id="node14" class="node">
<title>Node14</title>
<g id="a_node14"><a xlink:title=" ">
<polygon fill="white" stroke="#bfbfbf" points="423,-56.5 423,-75.5 473,-75.5 473,-56.5 423,-56.5"/>
<text text-anchor="middle" x="448" y="-63.5" font-family="Helvetica,sans-Serif" font-size="10.00">fftw3.h</text>
</a>
</g>
</g>
<!-- Node4&#45;&gt;Node14 -->
<g id="edge15" class="edge">
<title>Node4&#45;&gt;Node14</title>
<path fill="none" stroke="midnightblue" d="M1059.97,-120.41C973.91,-118.29 706.05,-109.28 487,-76 485.72,-75.81 484.43,-75.59 483.12,-75.36"/>
<polygon fill="midnightblue" stroke="midnightblue" points="483.56,-71.88 473.07,-73.38 482.2,-78.75 483.56,-71.88"/>
</g>
<!-- Node15 -->
<g id="node15" class="node">
<title>Node15</title>
<g id="a_node15"><a xlink:title=" ">
<polygon fill="white" stroke="#bfbfbf" points="981,-0.5 981,-19.5 1031,-19.5 1031,-0.5 981,-0.5"/>
<text text-anchor="middle" x="1006" y="-7.5" font-family="Helvetica,sans-Serif" font-size="10.00">chrono</text>
</a>
</g>
</g>
<!-- Node4&#45;&gt;Node15 -->
<g id="edge16" class="edge">
<title>Node4&#45;&gt;Node15</title>
<path fill="none" stroke="midnightblue" d="M1059.92,-118.22C1013.7,-113 924.81,-100.03 906,-76 884.59,-48.65 934.16,-29.24 970.9,-19.1"/>
<polygon fill="midnightblue" stroke="midnightblue" points="972.06,-22.41 980.85,-16.49 970.28,-15.64 972.06,-22.41"/>
</g>
<!-- Node16 -->
<g id="node16" class="node">
<title>Node16</title>
<g id="a_node16"><a xlink:title=" ">
<polygon fill="white" stroke="#bfbfbf" points="529,-56.5 529,-75.5 593,-75.5 593,-56.5 529,-56.5"/>
<text text-anchor="middle" x="561" y="-63.5" font-family="Helvetica,sans-Serif" font-size="10.00">algorithm</text>
</a>
</g>
</g>
<!-- Node4&#45;&gt;Node16 -->
<g id="edge17" class="edge">
<title>Node4&#45;&gt;Node16</title>
<path fill="none" stroke="midnightblue" d="M1059.91,-119.62C986.48,-115.75 782.66,-103.35 603.3,-76.02"/>
<polygon fill="midnightblue" stroke="midnightblue" points="603.57,-72.52 593.16,-74.45 602.51,-79.44 603.57,-72.52"/>
</g>
<!-- Node17 -->
<g id="node17" class="node">
<title>Node17</title>
<g id="a_node17"><a xlink:title=" ">
<polygon fill="white" stroke="#bfbfbf" points="611,-56.5 611,-75.5 655,-75.5 655,-56.5 611,-56.5"/>
<text text-anchor="middle" x="633" y="-63.5" font-family="Helvetica,sans-Serif" font-size="10.00">ctime</text>
</a>
</g>
</g>
<!-- Node4&#45;&gt;Node17 -->
<g id="edge18" class="edge">
<title>Node4&#45;&gt;Node17</title>
<path fill="none" stroke="midnightblue" d="M1059.96,-119.74C993.13,-116.37 819.14,-105.47 665.34,-75.94"/>
<polygon fill="midnightblue" stroke="midnightblue" points="665.72,-72.45 655.24,-73.97 664.38,-79.32 665.72,-72.45"/>
</g>
<!-- Node18 -->
<g id="node18" class="node">
<title>Node18</title>
<g id="a_node18"><a xlink:href="../../d7/d50/BoundedThreadPool_8hpp.html" target="_top" xlink:title=" ">
<polygon fill="white" stroke="black" points="129.5,-56.5 129.5,-75.5 264.5,-75.5 264.5,-56.5 129.5,-56.5"/>
<text text-anchor="middle" x="197" y="-63.5" font-family="Helvetica,sans-Serif" font-size="10.00">BoundedThreadPool.hpp</text>
</a>
</g>
</g>
<!-- Node4&#45;&gt;Node18 -->
<g id="edge19" class="edge">
<title>Node4&#45;&gt;Node18</title>
<path fill="none" stroke="midnightblue" d="M1059.98,-119.53C959.43,-114.23 607.31,-95.36 317,-76 303.33,-75.09 288.79,-74.05 274.72,-73.02"/>
<polygon fill="midnightblue" stroke="midnightblue" points="274.81,-69.51 264.58,-72.27 274.29,-76.5 274.81,-69.51"/>
</g>
<!-- Node24 -->
<g id="node24" class="node">
<title>Node24</title>
<g id="a_node24"><a xlink:title=" ">
<polygon fill="white" stroke="#bfbfbf" points="1609,-0.5 1609,-19.5 1711,-19.5 1711,-0.5 1609,-0.5"/>
<text text-anchor="middle" x="1660" y="-7.5" font-family="Helvetica,sans-Serif" font-size="10.00">tinycolormap.hpp</text>
</a>
</g>
</g>
<!-- Node4&#45;&gt;Node24 -->
<g id="edge27" class="edge">
<title>Node4&#45;&gt;Node24</title>
<path fill="none" stroke="midnightblue" d="M1116.19,-120.48C1222.69,-118.29 1596.61,-108.32 1638,-76 1651.92,-65.13 1657.09,-45.06 1658.99,-30.08"/>
<polygon fill="midnightblue" stroke="midnightblue" points="1662.49,-30.13 1659.88,-19.86 1655.52,-29.52 1662.49,-30.13"/>
</g>
<!-- Node25 -->
<g id="node25" class="node">
<title>Node25</title>
<g id="a_node25"><a xlink:title=" ">
<polygon fill="white" stroke="#bfbfbf" points="799,-56.5 799,-75.5 859,-75.5 859,-56.5 799,-56.5"/>
<text text-anchor="middle" x="829" y="-63.5" font-family="Helvetica,sans-Serif" font-size="10.00">fft2d.hpp</text>
</a>
</g>
</g>
<!-- Node4&#45;&gt;Node25 -->
<g id="edge28" class="edge">
<title>Node4&#45;&gt;Node25</title>
<path fill="none" stroke="midnightblue" d="M1059.79,-115.12C1013.7,-105.51 922.09,-86.41 869.2,-75.38"/>
<polygon fill="midnightblue" stroke="midnightblue" points="869.67,-71.9 859.17,-73.29 868.24,-78.76 869.67,-71.9"/>
</g>
<!-- Node26 -->
<g id="node26" class="node">
<title>Node26</title>
<g id="a_node26"><a xlink:href="../../d0/d3c/SocketConnector_8h.html" target="_top" xlink:title=" ">
<polygon fill="white" stroke="black" points="673.5,-56.5 673.5,-75.5 780.5,-75.5 780.5,-56.5 673.5,-56.5"/>
<text text-anchor="middle" x="727" y="-63.5" font-family="Helvetica,sans-Serif" font-size="10.00">SocketConnector.h</text>
</a>
</g>
</g>
<!-- Node4&#45;&gt;Node26 -->
<g id="edge29" class="edge">
<title>Node4&#45;&gt;Node26</title>
<path fill="none" stroke="midnightblue" d="M1059.97,-116.81C1002.58,-108.22 870.4,-88.45 790.93,-76.56"/>
<polygon fill="midnightblue" stroke="midnightblue" points="790.96,-73.03 780.55,-75.01 789.92,-79.95 790.96,-73.03"/>
</g>
<!-- Node30 -->
<g id="node30" class="node">
<title>Node30</title>
<g id="a_node30"><a xlink:href="../../da/dce/ProgressMonitor_8h.html" target="_top" xlink:title=" ">
<polygon fill="white" stroke="black" points="1199,-56.5 1199,-75.5 1303,-75.5 1303,-56.5 1199,-56.5"/>
<text text-anchor="middle" x="1251" y="-63.5" font-family="Helvetica,sans-Serif" font-size="10.00">ProgressMonitor.h</text>
</a>
</g>
</g>
<!-- Node4&#45;&gt;Node30 -->
<g id="edge36" class="edge">
<title>Node4&#45;&gt;Node30</title>
<path fill="none" stroke="midnightblue" d="M1113.83,-112.44C1141.25,-103.36 1184.78,-88.94 1215.43,-78.78"/>
<polygon fill="midnightblue" stroke="midnightblue" points="1216.9,-81.98 1225.29,-75.52 1214.7,-75.34 1216.9,-81.98"/>
</g>
<!-- Node33 -->
<g id="node33" class="node">
<title>Node33</title>
<g id="a_node33"><a xlink:title=" ">
<polygon fill="white" stroke="#bfbfbf" points="915,-56.5 915,-75.5 1015,-75.5 1015,-56.5 915,-56.5"/>
<text text-anchor="middle" x="965" y="-63.5" font-family="Helvetica,sans-Serif" font-size="10.00">MerlinInterface.h</text>
</a>
</g>
</g>
<!-- Node4&#45;&gt;Node33 -->
<g id="edge44" class="edge">
<title>Node4&#45;&gt;Node33</title>
<path fill="none" stroke="midnightblue" d="M1068.51,-112.44C1048.36,-103.6 1016.68,-89.69 993.67,-79.59"/>
<polygon fill="midnightblue" stroke="midnightblue" points="994.96,-76.33 984.4,-75.52 992.15,-82.74 994.96,-76.33"/>
</g>
<!-- Node34 -->
<g id="node34" class="node">
<title>Node34</title>
<g id="a_node34"><a xlink:title=" ">
<polygon fill="white" stroke="#bfbfbf" points="1033.5,-56.5 1033.5,-75.5 1142.5,-75.5 1142.5,-56.5 1033.5,-56.5"/>
<text text-anchor="middle" x="1088" y="-63.5" font-family="Helvetica,sans-Serif" font-size="10.00">TimepixInterface.h</text>
</a>
</g>
</g>
<!-- Node4&#45;&gt;Node34 -->
<g id="edge45" class="edge">
<title>Node4&#45;&gt;Node34</title>
<path fill="none" stroke="midnightblue" d="M1088,-112.08C1088,-105.01 1088,-94.86 1088,-85.99"/>
<polygon fill="midnightblue" stroke="midnightblue" points="1091.5,-85.75 1088,-75.75 1084.5,-85.75 1091.5,-85.75"/>
</g>
<!-- Node35 -->
<g id="node35" class="node">
<title>Node35</title>
<g id="a_node35"><a xlink:href="../../dd/de4/Camera_8h.html" target="_top" xlink:title=" ">
<polygon fill="white" stroke="black" points="1359,-56.5 1359,-75.5 1423,-75.5 1423,-56.5 1359,-56.5"/>
<text text-anchor="middle" x="1391" y="-63.5" font-family="Helvetica,sans-Serif" font-size="10.00">Camera.h</text>
</a>
</g>
</g>
<!-- Node4&#45;&gt;Node35 -->
<g id="edge46" class="edge">
<title>Node4&#45;&gt;Node35</title>
<path fill="none" stroke="midnightblue" d="M1116.17,-116.26C1163.5,-108.24 1261.94,-91.4 1345,-76 1346.26,-75.77 1347.54,-75.53 1348.83,-75.28"/>
<polygon fill="midnightblue" stroke="midnightblue" points="1349.68,-78.69 1358.84,-73.38 1348.37,-71.81 1349.68,-78.69"/>
</g>
<!-- Node4&#45;&gt;Node38 -->
<g id="edge51" class="edge">
<title>Node4&#45;&gt;Node38</title>
<path fill="none" stroke="midnightblue" d="M1116.34,-119.93C1218.86,-115.96 1579.98,-100.95 1877,-76 1889.45,-74.95 1902.94,-73.56 1915.28,-72.18"/>
<polygon fill="midnightblue" stroke="midnightblue" points="1915.79,-75.65 1925.33,-71.03 1914.99,-68.69 1915.79,-75.65"/>
</g>
<!-- Node18&#45;&gt;Node3 -->
<g id="edge20" class="edge">
<title>Node18&#45;&gt;Node3</title>
<path fill="none" stroke="midnightblue" d="M223.46,-56.44C252.34,-47.1 298.66,-32.13 330.16,-21.94"/>
<polygon fill="midnightblue" stroke="midnightblue" points="331.39,-25.22 339.83,-18.82 329.24,-18.56 331.39,-25.22"/>
</g>
<!-- Node18&#45;&gt;Node12 -->
<g id="edge23" class="edge">
<title>Node18&#45;&gt;Node12</title>
<path fill="none" stroke="midnightblue" d="M169.59,-56.44C139.28,-46.98 90.44,-31.74 57.79,-21.55"/>
<polygon fill="midnightblue" stroke="midnightblue" points="58.8,-18.2 48.21,-18.56 56.72,-24.88 58.8,-18.2"/>
</g>
<!-- Node19 -->
<g id="node19" class="node">
<title>Node19</title>
<g id="a_node19"><a xlink:title=" ">
<polygon fill="white" stroke="#bfbfbf" points="66.5,-0.5 66.5,-19.5 113.5,-19.5 113.5,-0.5 66.5,-0.5"/>
<text text-anchor="middle" x="90" y="-7.5" font-family="Helvetica,sans-Serif" font-size="10.00">queue</text>
</a>
</g>
</g>
<!-- Node18&#45;&gt;Node19 -->
<g id="edge21" class="edge">
<title>Node18&#45;&gt;Node19</title>
<path fill="none" stroke="midnightblue" d="M179.81,-56.32C162.65,-47.66 136.05,-34.24 116.25,-24.25"/>
<polygon fill="midnightblue" stroke="midnightblue" points="117.65,-21.04 107.15,-19.65 114.5,-27.28 117.65,-21.04"/>
</g>
<!-- Node20 -->
<g id="node20" class="node">
<title>Node20</title>
<g id="a_node20"><a xlink:title=" ">
<polygon fill="white" stroke="#bfbfbf" points="131.5,-0.5 131.5,-19.5 196.5,-19.5 196.5,-0.5 131.5,-0.5"/>
<text text-anchor="middle" x="164" y="-7.5" font-family="Helvetica,sans-Serif" font-size="10.00">functional</text>
</a>
</g>
</g>
<!-- Node18&#45;&gt;Node20 -->
<g id="edge22" class="edge">
<title>Node18&#45;&gt;Node20</title>
<path fill="none" stroke="midnightblue" d="M191.55,-56.08C186.99,-48.61 180.33,-37.72 174.71,-28.52"/>
<polygon fill="midnightblue" stroke="midnightblue" points="177.55,-26.46 169.35,-19.75 171.58,-30.11 177.55,-26.46"/>
</g>
<!-- Node21 -->
<g id="node21" class="node">
<title>Node21</title>
<g id="a_node21"><a xlink:title=" ">
<polygon fill="white" stroke="#bfbfbf" points="214.5,-0.5 214.5,-19.5 321.5,-19.5 321.5,-0.5 214.5,-0.5"/>
<text text-anchor="middle" x="268" y="-7.5" font-family="Helvetica,sans-Serif" font-size="10.00">condition_variable</text>
</a>
</g>
</g>
<!-- Node18&#45;&gt;Node21 -->
<g id="edge24" class="edge">
<title>Node18&#45;&gt;Node21</title>
<path fill="none" stroke="midnightblue" d="M208.41,-56.32C219.11,-48.18 235.34,-35.84 248.16,-26.09"/>
<polygon fill="midnightblue" stroke="midnightblue" points="250.54,-28.67 256.39,-19.83 246.31,-23.1 250.54,-28.67"/>
</g>
<!-- Node22 -->
<g id="node22" class="node">
<title>Node22</title>
<g id="a_node22"><a xlink:title=" ">
<polygon fill="white" stroke="#bfbfbf" points="1058,-0.5 1058,-19.5 1108,-19.5 1108,-0.5 1058,-0.5"/>
<text text-anchor="middle" x="1083" y="-7.5" font-family="Helvetica,sans-Serif" font-size="10.00">atomic</text>
</a>
</g>
</g>
<!-- Node18&#45;&gt;Node22 -->
<g id="edge25" class="edge">
<title>Node18&#45;&gt;Node22</title>
<path fill="none" stroke="midnightblue" d="M264.78,-60.92C291.35,-59.34 322.1,-57.55 350,-56 656.61,-38.98 735.48,-59.57 1040,-20 1042.51,-19.67 1045.1,-19.28 1047.7,-18.84"/>
<polygon fill="midnightblue" stroke="midnightblue" points="1048.46,-22.26 1057.64,-16.98 1047.17,-15.38 1048.46,-22.26"/>
</g>
<!-- Node23 -->
<g id="node23" class="node">
<title>Node23</title>
<g id="a_node23"><a xlink:title=" ">
<polygon fill="white" stroke="#bfbfbf" points="781,-0.5 781,-19.5 841,-19.5 841,-0.5 781,-0.5"/>
<text text-anchor="middle" x="811" y="-7.5" font-family="Helvetica,sans-Serif" font-size="10.00">iostream</text>
</a>
</g>
</g>
<!-- Node18&#45;&gt;Node23 -->
<g id="edge26" class="edge">
<title>Node18&#45;&gt;Node23</title>
<path fill="none" stroke="midnightblue" d="M264.83,-60.51C393.47,-51.85 668.46,-32.58 763,-20 765.54,-19.66 768.14,-19.28 770.77,-18.87"/>
<polygon fill="midnightblue" stroke="midnightblue" points="771.59,-22.28 780.86,-17.16 770.42,-15.37 771.59,-22.28"/>
</g>
<!-- Node26&#45;&gt;Node2 -->
<g id="edge34" class="edge">
<title>Node26&#45;&gt;Node2</title>
<path fill="none" stroke="midnightblue" d="M780.58,-57C783.76,-56.63 786.92,-56.29 790,-56 1117.49,-24.79 1207.09,-72.34 1536.45,-19.62"/>
<polygon fill="midnightblue" stroke="midnightblue" points="1537.45,-23 1546.76,-17.95 1536.33,-16.09 1537.45,-23"/>
</g>
<!-- Node26&#45;&gt;Node5 -->
<g id="edge31" class="edge">
<title>Node26&#45;&gt;Node5</title>
<path fill="none" stroke="midnightblue" d="M697.37,-56.44C665.12,-47.13 613.47,-32.22 578.2,-22.03"/>
<polygon fill="midnightblue" stroke="midnightblue" points="578.85,-18.57 568.27,-19.16 576.9,-25.3 578.85,-18.57"/>
</g>
<!-- Node26&#45;&gt;Node23 -->
<g id="edge35" class="edge">
<title>Node26&#45;&gt;Node23</title>
<path fill="none" stroke="midnightblue" d="M740.5,-56.32C753.6,-47.9 773.71,-34.97 789.11,-25.07"/>
<polygon fill="midnightblue" stroke="midnightblue" points="791.02,-28.01 797.54,-19.65 787.23,-22.12 791.02,-28.01"/>
</g>
<!-- Node27 -->
<g id="node27" class="node">
<title>Node27</title>
<g id="a_node27"><a xlink:title=" ">
<polygon fill="white" stroke="#bfbfbf" points="620.5,-0.5 620.5,-19.5 689.5,-19.5 689.5,-0.5 620.5,-0.5"/>
<text text-anchor="middle" x="655" y="-7.5" font-family="Helvetica,sans-Serif" font-size="10.00">arpa/inet.h</text>
</a>
</g>
</g>
<!-- Node26&#45;&gt;Node27 -->
<g id="edge30" class="edge">
<title>Node26&#45;&gt;Node27</title>
<path fill="none" stroke="midnightblue" d="M715.43,-56.32C704.58,-48.18 688.12,-35.84 675.12,-26.09"/>
<polygon fill="midnightblue" stroke="midnightblue" points="676.88,-23.03 666.78,-19.83 672.68,-28.63 676.88,-23.03"/>
</g>
<!-- Node28 -->
<g id="node28" class="node">
<title>Node28</title>
<g id="a_node28"><a xlink:title=" ">
<polygon fill="white" stroke="#bfbfbf" points="707.5,-0.5 707.5,-19.5 754.5,-19.5 754.5,-0.5 707.5,-0.5"/>
<text text-anchor="middle" x="731" y="-7.5" font-family="Helvetica,sans-Serif" font-size="10.00">cerrno</text>
</a>
</g>
</g>
<!-- Node26&#45;&gt;Node28 -->
<g id="edge32" class="edge">
<title>Node26&#45;&gt;Node28</title>
<path fill="none" stroke="midnightblue" d="M727.66,-56.08C728.18,-49.01 728.94,-38.86 729.59,-29.99"/>
<polygon fill="midnightblue" stroke="midnightblue" points="733.1,-29.98 730.35,-19.75 726.12,-29.47 733.1,-29.98"/>
</g>
<!-- Node29 -->
<g id="node29" class="node">
<title>Node29</title>
<g id="a_node29"><a xlink:title=" ">
<polygon fill="white" stroke="#bfbfbf" points="895,-0.5 895,-19.5 945,-19.5 945,-0.5 895,-0.5"/>
<text text-anchor="middle" x="920" y="-7.5" font-family="Helvetica,sans-Serif" font-size="10.00">cstring</text>
</a>
</g>
</g>
<!-- Node26&#45;&gt;Node29 -->
<g id="edge33" class="edge">
<title>Node26&#45;&gt;Node29</title>
<path fill="none" stroke="midnightblue" d="M757.58,-56.44C792.27,-46.74 848.71,-30.95 885.1,-20.77"/>
<polygon fill="midnightblue" stroke="midnightblue" points="886.1,-24.12 894.79,-18.05 884.22,-17.38 886.1,-24.12"/>
</g>
<!-- Node30&#45;&gt;Node6 -->
<g id="edge43" class="edge">
<title>Node30&#45;&gt;Node6</title>
<path fill="none" stroke="midnightblue" d="M1260.16,-56.32C1268.5,-48.42 1281.03,-36.55 1291.18,-26.94"/>
<polygon fill="midnightblue" stroke="midnightblue" points="1293.82,-29.25 1298.68,-19.83 1289.01,-24.17 1293.82,-29.25"/>
</g>
<!-- Node30&#45;&gt;Node15 -->
<g id="edge42" class="edge">
<title>Node30&#45;&gt;Node15</title>
<path fill="none" stroke="midnightblue" d="M1212.18,-56.44C1165.11,-46.07 1086.48,-28.74 1041.13,-18.74"/>
<polygon fill="midnightblue" stroke="midnightblue" points="1041.69,-15.28 1031.17,-16.55 1040.19,-22.12 1041.69,-15.28"/>
</g>
<!-- Node30&#45;&gt;Node22 -->
<g id="edge41" class="edge">
<title>Node30&#45;&gt;Node22</title>
<path fill="none" stroke="midnightblue" d="M1224.38,-56.44C1195.58,-47.19 1149.53,-32.39 1117.86,-22.21"/>
<polygon fill="midnightblue" stroke="midnightblue" points="1118.71,-18.8 1108.12,-19.08 1116.57,-25.47 1118.71,-18.8"/>
</g>
<!-- Node30&#45;&gt;Node23 -->
<g id="edge38" class="edge">
<title>Node30&#45;&gt;Node23</title>
<path fill="none" stroke="midnightblue" d="M1198.77,-57.8C1194.12,-57.18 1189.47,-56.57 1185,-56 1176.76,-54.94 946.11,-27.23 851.21,-15.83"/>
<polygon fill="midnightblue" stroke="midnightblue" points="851.47,-12.34 841.12,-14.62 850.63,-19.29 851.47,-12.34"/>
</g>
<!-- Node30&#45;&gt;Node29 -->
<g id="edge40" class="edge">
<title>Node30&#45;&gt;Node29</title>
<path fill="none" stroke="midnightblue" d="M1198.78,-56.76C1142.7,-47.87 1051,-33.21 972,-20 966.52,-19.08 960.72,-18.1 955.06,-17.12"/>
<polygon fill="midnightblue" stroke="midnightblue" points="955.57,-13.66 945.12,-15.41 954.37,-20.56 955.57,-13.66"/>
</g>
<!-- Node31 -->
<g id="node31" class="node">
<title>Node31</title>
<g id="a_node31"><a xlink:title=" ">
<polygon fill="white" stroke="#bfbfbf" points="1200,-0.5 1200,-19.5 1266,-19.5 1266,-0.5 1200,-0.5"/>
<text text-anchor="middle" x="1233" y="-7.5" font-family="Helvetica,sans-Serif" font-size="10.00">sys/ioctl.h</text>
</a>
</g>
</g>
<!-- Node30&#45;&gt;Node31 -->
<g id="edge37" class="edge">
<title>Node30&#45;&gt;Node31</title>
<path fill="none" stroke="midnightblue" d="M1248.03,-56.08C1245.62,-48.85 1242.14,-38.41 1239.13,-29.4"/>
<polygon fill="midnightblue" stroke="midnightblue" points="1242.4,-28.13 1235.92,-19.75 1235.76,-30.34 1242.4,-28.13"/>
</g>
<!-- Node32 -->
<g id="node32" class="node">
<title>Node32</title>
<g id="a_node32"><a xlink:title=" ">
<polygon fill="white" stroke="#bfbfbf" points="1126,-0.5 1126,-19.5 1182,-19.5 1182,-0.5 1126,-0.5"/>
<text text-anchor="middle" x="1154" y="-7.5" font-family="Helvetica,sans-Serif" font-size="10.00">iomanip</text>
</a>
</g>
</g>
<!-- Node30&#45;&gt;Node32 -->
<g id="edge39" class="edge">
<title>Node30&#45;&gt;Node32</title>
<path fill="none" stroke="midnightblue" d="M1235.42,-56.32C1220,-47.74 1196.19,-34.49 1178.29,-24.52"/>
<polygon fill="midnightblue" stroke="midnightblue" points="1179.99,-21.46 1169.55,-19.65 1176.58,-27.58 1179.99,-21.46"/>
</g>
<!-- Node35&#45;&gt;Node10 -->
<g id="edge47" class="edge">
<title>Node35&#45;&gt;Node10</title>
<path fill="none" stroke="midnightblue" d="M1409.06,-56.44C1427.57,-47.68 1456.58,-33.94 1477.86,-23.86"/>
<polygon fill="midnightblue" stroke="midnightblue" points="1479.48,-26.96 1487.02,-19.52 1476.49,-20.63 1479.48,-26.96"/>
</g>
<!-- Node35&#45;&gt;Node22 -->
<g id="edge48" class="edge">
<title>Node35&#45;&gt;Node22</title>
<path fill="none" stroke="midnightblue" d="M1358.75,-60.73C1309.1,-53.93 1210.76,-39.58 1118.01,-20.05"/>
<polygon fill="midnightblue" stroke="midnightblue" points="1118.7,-16.62 1108.19,-17.96 1117.24,-23.46 1118.7,-16.62"/>
</g>
<!-- Node36 -->
<g id="node36" class="node">
<title>Node36</title>
<g id="a_node36"><a xlink:title=" ">
<polygon fill="white" stroke="#bfbfbf" points="1421,-0.5 1421,-19.5 1463,-19.5 1463,-0.5 1421,-0.5"/>
<text text-anchor="middle" x="1442" y="-7.5" font-family="Helvetica,sans-Serif" font-size="10.00">array</text>
</a>
</g>
</g>
<!-- Node35&#45;&gt;Node36 -->
<g id="edge49" class="edge">
<title>Node35&#45;&gt;Node36</title>
<path fill="none" stroke="midnightblue" d="M1399.42,-56.08C1406.85,-48.22 1417.85,-36.57 1426.81,-27.08"/>
<polygon fill="midnightblue" stroke="midnightblue" points="1429.41,-29.42 1433.74,-19.75 1424.32,-24.62 1429.41,-29.42"/>
</g>
<!-- Node37 -->
<g id="node37" class="node">
<title>Node37</title>
<g id="a_node37"><a xlink:title=" ">
<polygon fill="white" stroke="#bfbfbf" points="1349.5,-0.5 1349.5,-19.5 1402.5,-19.5 1402.5,-0.5 1349.5,-0.5"/>
<text text-anchor="middle" x="1376" y="-7.5" font-family="Helvetica,sans-Serif" font-size="10.00">stdlib.h</text>
</a>
</g>
</g>
<!-- Node35&#45;&gt;Node37 -->
<g id="edge50" class="edge">
<title>Node35&#45;&gt;Node37</title>
<path fill="none" stroke="midnightblue" d="M1388.52,-56.08C1386.51,-48.85 1383.61,-38.41 1381.11,-29.4"/>
<polygon fill="midnightblue" stroke="midnightblue" points="1384.48,-28.45 1378.43,-19.75 1377.74,-30.32 1384.48,-28.45"/>
</g>
<!-- Node38&#45;&gt;Node2 -->
<g id="edge52" class="edge">
<title>Node38&#45;&gt;Node2</title>
<path fill="none" stroke="midnightblue" d="M1925.44,-58.44C1920.61,-57.56 1915.68,-56.72 1911,-56 1776.69,-35.4 1738.19,-46.92 1601.27,-19.95"/>
<polygon fill="midnightblue" stroke="midnightblue" points="1601.73,-16.47 1591.24,-17.94 1600.36,-23.34 1601.73,-16.47"/>
</g>
<!-- Node38&#45;&gt;Node8 -->
<g id="edge54" class="edge">
<title>Node38&#45;&gt;Node8</title>
<path fill="none" stroke="midnightblue" d="M1926.47,-56.44C1891.91,-47.07 1836.39,-32 1798.84,-21.81"/>
<polygon fill="midnightblue" stroke="midnightblue" points="1799.33,-18.32 1788.76,-19.08 1797.49,-25.07 1799.33,-18.32"/>
</g>
<!-- Node38&#45;&gt;Node10 -->
<g id="edge53" class="edge">
<title>Node38&#45;&gt;Node10</title>
<path fill="none" stroke="midnightblue" d="M1925.29,-61.33C1910.54,-59.68 1892.89,-57.73 1877,-56 1729.61,-39.99 1688.65,-47.67 1538.72,-19.83"/>
<polygon fill="midnightblue" stroke="midnightblue" points="1539.16,-16.36 1528.69,-17.95 1537.87,-23.24 1539.16,-16.36"/>
</g>
<!-- Node38&#45;&gt;Node24 -->
<g id="edge60" class="edge">
<title>Node38&#45;&gt;Node24</title>
<path fill="none" stroke="midnightblue" d="M1925.39,-58.7C1920.57,-57.79 1915.66,-56.86 1911,-56 1845.23,-43.81 1769.66,-30.33 1718.77,-21.34"/>
<polygon fill="midnightblue" stroke="midnightblue" points="1719.07,-17.83 1708.62,-19.54 1717.86,-24.73 1719.07,-17.83"/>
</g>
<!-- Node39 -->
<g id="node39" class="node">
<title>Node39</title>
<g id="a_node39"><a xlink:title=" ">
<polygon fill="white" stroke="#bfbfbf" points="2005,-0.5 2005,-19.5 2073,-19.5 2073,-0.5 2005,-0.5"/>
<text text-anchor="middle" x="2039" y="-7.5" font-family="Helvetica,sans-Serif" font-size="10.00">filesystem</text>
</a>
</g>
</g>
<!-- Node38&#45;&gt;Node39 -->
<g id="edge55" class="edge">
<title>Node38&#45;&gt;Node39</title>
<path fill="none" stroke="midnightblue" d="M1971.01,-56.32C1983.53,-47.98 2002.68,-35.21 2017.47,-25.35"/>
<polygon fill="midnightblue" stroke="midnightblue" points="2019.64,-28.11 2026.02,-19.65 2015.76,-22.29 2019.64,-28.11"/>
</g>
<!-- Node40 -->
<g id="node40" class="node">
<title>Node40</title>
<g id="a_node40"><a xlink:title=" ">
<polygon fill="white" stroke="#bfbfbf" points="2163,-0.5 2163,-19.5 2243,-19.5 2243,-0.5 2163,-0.5"/>
<text text-anchor="middle" x="2203" y="-7.5" font-family="Helvetica,sans-Serif" font-size="10.00">SDL_image.h</text>
</a>
</g>
</g>
<!-- Node38&#45;&gt;Node40 -->
<g id="edge56" class="edge">
<title>Node38&#45;&gt;Node40</title>
<path fill="none" stroke="midnightblue" d="M1990.53,-57.83C2032.46,-48.59 2105.72,-32.44 2154.3,-21.73"/>
<polygon fill="midnightblue" stroke="midnightblue" points="2155.25,-25.11 2164.27,-19.54 2153.75,-18.27 2155.25,-25.11"/>
</g>
<!-- Node41 -->
<g id="node41" class="node">
<title>Node41</title>
<g id="a_node41"><a xlink:title=" ">
<polygon fill="white" stroke="#bfbfbf" points="2091.5,-0.5 2091.5,-19.5 2144.5,-19.5 2144.5,-0.5 2091.5,-0.5"/>
<text text-anchor="middle" x="2118" y="-7.5" font-family="Helvetica,sans-Serif" font-size="10.00">imgui.h</text>
</a>
</g>
</g>
<!-- Node38&#45;&gt;Node41 -->
<g id="edge57" class="edge">
<title>Node38&#45;&gt;Node41</title>
<path fill="none" stroke="midnightblue" d="M1983.35,-56.44C2010.27,-47.36 2053,-32.94 2083.09,-22.78"/>
<polygon fill="midnightblue" stroke="midnightblue" points="2084.41,-26.03 2092.77,-19.52 2082.17,-19.4 2084.41,-26.03"/>
</g>
<!-- Node42 -->
<g id="node42" class="node">
<title>Node42</title>
<g id="a_node42"><a xlink:title=" ">
<polygon fill="white" stroke="#bfbfbf" points="1807,-0.5 1807,-19.5 1903,-19.5 1903,-0.5 1807,-0.5"/>
<text text-anchor="middle" x="1855" y="-7.5" font-family="Helvetica,sans-Serif" font-size="10.00">imgui_internal.h</text>
</a>
</g>
</g>
<!-- Node38&#45;&gt;Node42 -->
<g id="edge58" class="edge">
<title>Node38&#45;&gt;Node42</title>
<path fill="none" stroke="midnightblue" d="M1941.45,-56.32C1925.01,-47.7 1899.57,-34.36 1880.53,-24.39"/>
<polygon fill="midnightblue" stroke="midnightblue" points="1881.99,-21.2 1871.51,-19.65 1878.74,-27.4 1881.99,-21.2"/>
</g>
<!-- Node43 -->
<g id="node43" class="node">
<title>Node43</title>
<g id="a_node43"><a xlink:title=" ">
<polygon fill="white" stroke="#bfbfbf" points="1921,-0.5 1921,-19.5 1987,-19.5 1987,-0.5 1921,-0.5"/>
<text text-anchor="middle" x="1954" y="-7.5" font-family="Helvetica,sans-Serif" font-size="10.00">libnpy.hpp</text>
</a>
</g>
</g>
<!-- Node38&#45;&gt;Node43 -->
<g id="edge59" class="edge">
<title>Node38&#45;&gt;Node43</title>
<path fill="none" stroke="midnightblue" d="M1957.34,-56.08C1956.82,-49.01 1956.06,-38.86 1955.41,-29.99"/>
<polygon fill="midnightblue" stroke="midnightblue" points="1958.88,-29.47 1954.65,-19.75 1951.9,-29.98 1958.88,-29.47"/>
</g>
<!-- Node44&#45;&gt;Node11 -->
<g id="edge62" class="edge">
<title>Node44&#45;&gt;Node11</title>
<path fill="none" stroke="midnightblue" d="M1773.39,-112.08C1768.63,-104.53 1761.68,-93.49 1755.85,-84.23"/>
<polygon fill="midnightblue" stroke="midnightblue" points="1758.8,-82.35 1750.51,-75.75 1752.88,-86.08 1758.8,-82.35"/>
</g>
<!-- Node44&#45;&gt;Node23 -->
<g id="edge65" class="edge">
<title>Node44&#45;&gt;Node23</title>
<path fill="none" stroke="midnightblue" d="M1723.8,-119.57C1597.25,-115.83 1289.44,-104.06 1190,-76 1171.25,-70.71 1169.59,-61.81 1151,-56 1136.82,-51.57 937.99,-26.68 851.13,-15.94"/>
<polygon fill="midnightblue" stroke="midnightblue" points="851.46,-12.45 841.11,-14.7 850.6,-19.4 851.46,-12.45"/>
</g>
<!-- Node44&#45;&gt;Node40 -->
<g id="edge63" class="edge">
<title>Node44&#45;&gt;Node40</title>
<path fill="none" stroke="midnightblue" d="M1828.28,-112.48C1873.09,-104.36 1940.91,-91.15 1999,-76 2059.84,-60.13 2129.35,-36.85 2169.51,-22.89"/>
<polygon fill="midnightblue" stroke="midnightblue" points="2170.78,-26.15 2179.06,-19.55 2168.47,-19.54 2170.78,-26.15"/>
</g>
<!-- Node45 -->
<g id="node45" class="node">
<title>Node45</title>
<g id="a_node45"><a xlink:title=" ">
<polygon fill="white" stroke="#bfbfbf" points="1785.5,-56.5 1785.5,-75.5 1868.5,-75.5 1868.5,-56.5 1785.5,-56.5"/>
<text text-anchor="middle" x="1827" y="-63.5" font-family="Helvetica,sans-Serif" font-size="10.00">SDL_opengl.h</text>
</a>
</g>
</g>
<!-- Node44&#45;&gt;Node45 -->
<g id="edge64" class="edge">
<title>Node44&#45;&gt;Node45</title>
<path fill="none" stroke="midnightblue" d="M1786.93,-112.08C1793.85,-104.3 1804.07,-92.8 1812.45,-83.37"/>
<polygon fill="midnightblue" stroke="midnightblue" points="1815.19,-85.55 1819.22,-75.75 1809.96,-80.9 1815.19,-85.55"/>
</g>
</g>
</svg>
