<?xml version="1.0" encoding="UTF-8" standalone="no"?>
<!DOCTYPE svg PUBLIC "-//W3C//DTD SVG 1.1//EN"
 "http://www.w3.org/Graphics/SVG/1.1/DTD/svg11.dtd">
<!-- Generated by graphviz version 2.43.0 (0)
 -->
<!-- Title: src/RunCLI.cpp Pages: 1 -->
<svg width="2066pt" height="196pt"
 viewBox="0.00 0.00 2066.00 196.00" xmlns="http://www.w3.org/2000/svg" xmlns:xlink="http://www.w3.org/1999/xlink">
<g id="graph0" class="graph" transform="scale(1 1) rotate(0) translate(4 192)">
<title>src/RunCLI.cpp</title>
<polygon fill="white" stroke="transparent" points="-4,4 -4,-192 2062,-192 2062,4 -4,4"/>
<!-- Node1 -->
<g id="node1" class="node">
<title>Node1</title>
<g id="a_node1"><a xlink:title=" ">
<polygon fill="#bfbfbf" stroke="black" points="1204,-168.5 1204,-187.5 1292,-187.5 1292,-168.5 1204,-168.5"/>
<text text-anchor="middle" x="1248" y="-175.5" font-family="Helvetica,sans-Serif" font-size="10.00">src/RunCLI.cpp</text>
</a>
</g>
</g>
<!-- Node2 -->
<g id="node2" class="node">
<title>Node2</title>
<g id="a_node2"><a xlink:title=" ">
<polygon fill="white" stroke="#bfbfbf" points="1164,-0.5 1164,-19.5 1208,-19.5 1208,-0.5 1164,-0.5"/>
<text text-anchor="middle" x="1186" y="-7.5" font-family="Helvetica,sans-Serif" font-size="10.00">string</text>
</a>
</g>
</g>
<!-- Node1&#45;&gt;Node2 -->
<g id="edge1" class="edge">
<title>Node1&#45;&gt;Node2</title>
<path fill="none" stroke="midnightblue" d="M1244.67,-168.08C1234.87,-141.83 1206,-64.55 1192.77,-29.12"/>
<polygon fill="midnightblue" stroke="midnightblue" points="1195.98,-27.71 1189.2,-19.57 1189.42,-30.16 1195.98,-27.71"/>
</g>
<!-- Node3 -->
<g id="node3" class="node">
<title>Node3</title>
<g id="a_node3"><a xlink:title=" ">
<polygon fill="white" stroke="#bfbfbf" points="0,-0.5 0,-19.5 48,-19.5 48,-0.5 0,-0.5"/>
<text text-anchor="middle" x="24" y="-7.5" font-family="Helvetica,sans-Serif" font-size="10.00">thread</text>
</a>
</g>
</g>
<!-- Node1&#45;&gt;Node3 -->
<g id="edge2" class="edge">
<title>Node1&#45;&gt;Node3</title>
<path fill="none" stroke="midnightblue" d="M1203.93,-175.87C999.54,-170.29 149.82,-143.17 54,-76 38.77,-65.32 31.09,-44.91 27.34,-29.8"/>
<polygon fill="midnightblue" stroke="midnightblue" points="30.75,-29 25.26,-19.95 23.9,-30.45 30.75,-29"/>
</g>
<!-- Node4 -->
<g id="node4" class="node">
<title>Node4</title>
<g id="a_node4"><a xlink:href="../../de/dfc/Ricom_8h.html" target="_top" xlink:title=" ">
<polygon fill="white" stroke="black" points="1064,-112.5 1064,-131.5 1120,-131.5 1120,-112.5 1064,-112.5"/>
<text text-anchor="middle" x="1092" y="-119.5" font-family="Helvetica,sans-Serif" font-size="10.00">Ricom.h</text>
</a>
</g>
</g>
<!-- Node1&#45;&gt;Node4 -->
<g id="edge3" class="edge">
<title>Node1&#45;&gt;Node4</title>
<path fill="none" stroke="midnightblue" d="M1223.28,-168.44C1197.15,-159.4 1155.74,-145.06 1126.42,-134.92"/>
<polygon fill="midnightblue" stroke="midnightblue" points="1127.2,-131.48 1116.6,-131.52 1124.91,-138.1 1127.2,-131.48"/>
</g>
<!-- Node37 -->
<g id="node37" class="node">
<title>Node37</title>
<g id="a_node37"><a xlink:href="../../d7/db2/GuiUtils_8h.html" target="_top" xlink:title=" ">
<polygon fill="white" stroke="black" points="1602.5,-56.5 1602.5,-75.5 1667.5,-75.5 1667.5,-56.5 1602.5,-56.5"/>
<text text-anchor="middle" x="1635" y="-63.5" font-family="Helvetica,sans-Serif" font-size="10.00">GuiUtils.h</text>
</a>
</g>
</g>
<!-- Node1&#45;&gt;Node37 -->
<g id="edge65" class="edge">
<title>Node1&#45;&gt;Node37</title>
<path fill="none" stroke="midnightblue" d="M1278.05,-168.46C1347.13,-148.82 1517.32,-100.45 1595.08,-78.35"/>
<polygon fill="midnightblue" stroke="midnightblue" points="1596.31,-81.64 1604.97,-75.53 1594.4,-74.9 1596.31,-81.64"/>
</g>
<!-- Node43 -->
<g id="node43" class="node">
<title>Node43</title>
<g id="a_node43"><a xlink:href="../../dc/dd0/SdlImageWindow_8h.html" target="_top" xlink:title=" ">
<polygon fill="white" stroke="black" points="1653,-112.5 1653,-131.5 1763,-131.5 1763,-112.5 1653,-112.5"/>
<text text-anchor="middle" x="1708" y="-119.5" font-family="Helvetica,sans-Serif" font-size="10.00">SdlImageWindow.h</text>
</a>
</g>
</g>
<!-- Node1&#45;&gt;Node43 -->
<g id="edge60" class="edge">
<title>Node1&#45;&gt;Node43</title>
<path fill="none" stroke="midnightblue" d="M1292.11,-171.82C1373.47,-162.27 1547.53,-141.84 1642.64,-130.67"/>
<polygon fill="midnightblue" stroke="midnightblue" points="1643.19,-134.13 1652.72,-129.49 1642.38,-127.18 1643.19,-134.13"/>
</g>
<!-- Node4&#45;&gt;Node2 -->
<g id="edge10" class="edge">
<title>Node4&#45;&gt;Node2</title>
<path fill="none" stroke="midnightblue" d="M1113.39,-112.41C1129.4,-104.97 1150.74,-92.76 1164,-76 1174.61,-62.58 1180.24,-43.76 1183.14,-29.83"/>
<polygon fill="midnightblue" stroke="midnightblue" points="1186.6,-30.35 1184.92,-19.89 1179.71,-29.12 1186.6,-30.35"/>
</g>
<!-- Node4&#45;&gt;Node3 -->
<g id="edge14" class="edge">
<title>Node4&#45;&gt;Node3</title>
<path fill="none" stroke="midnightblue" d="M1063.8,-121C909.99,-120.84 176.03,-117.85 85,-76 63.11,-65.94 45.28,-44.07 34.67,-28.48"/>
<polygon fill="midnightblue" stroke="midnightblue" points="37.4,-26.25 29.03,-19.75 31.52,-30.05 37.4,-26.25"/>
</g>
<!-- Node5 -->
<g id="node5" class="node">
<title>Node5</title>
<g id="a_node5"><a xlink:title=" ">
<polygon fill="white" stroke="#bfbfbf" points="925,-0.5 925,-19.5 981,-19.5 981,-0.5 925,-0.5"/>
<text text-anchor="middle" x="953" y="-7.5" font-family="Helvetica,sans-Serif" font-size="10.00">unistd.h</text>
</a>
</g>
</g>
<!-- Node4&#45;&gt;Node5 -->
<g id="edge4" class="edge">
<title>Node4&#45;&gt;Node5</title>
<path fill="none" stroke="midnightblue" d="M1099.74,-112.18C1110.46,-98.84 1127.11,-73.27 1114,-56 1110.19,-50.98 1037.39,-32.04 991,-20.4"/>
<polygon fill="midnightblue" stroke="midnightblue" points="991.8,-16.99 981.25,-17.96 990.1,-23.78 991.8,-16.99"/>
</g>
<!-- Node6 -->
<g id="node6" class="node">
<title>Node6</title>
<g id="a_node6"><a xlink:title=" ">
<polygon fill="white" stroke="#bfbfbf" points="1091.5,-0.5 1091.5,-19.5 1138.5,-19.5 1138.5,-0.5 1091.5,-0.5"/>
<text text-anchor="middle" x="1115" y="-7.5" font-family="Helvetica,sans-Serif" font-size="10.00">cmath</text>
</a>
</g>
</g>
<!-- Node4&#45;&gt;Node6 -->
<g id="edge5" class="edge">
<title>Node4&#45;&gt;Node6</title>
<path fill="none" stroke="midnightblue" d="M1109.5,-112.46C1122.79,-104.92 1140.08,-92.53 1148,-76 1156.06,-59.18 1143.9,-40.18 1132.13,-27.08"/>
<polygon fill="midnightblue" stroke="midnightblue" points="1134.51,-24.51 1125.04,-19.77 1129.48,-29.38 1134.51,-24.51"/>
</g>
<!-- Node7 -->
<g id="node7" class="node">
<title>Node7</title>
<g id="a_node7"><a xlink:title=" ">
<polygon fill="white" stroke="#bfbfbf" points="1358,-56.5 1358,-75.5 1408,-75.5 1408,-56.5 1358,-56.5"/>
<text text-anchor="middle" x="1383" y="-63.5" font-family="Helvetica,sans-Serif" font-size="10.00">stdio.h</text>
</a>
</g>
</g>
<!-- Node4&#45;&gt;Node7 -->
<g id="edge6" class="edge">
<title>Node4&#45;&gt;Node7</title>
<path fill="none" stroke="midnightblue" d="M1120.3,-116.86C1166.08,-109.97 1259.42,-95.23 1347.88,-76.09"/>
<polygon fill="midnightblue" stroke="midnightblue" points="1348.79,-79.48 1357.81,-73.93 1347.29,-72.64 1348.79,-79.48"/>
</g>
<!-- Node8 -->
<g id="node8" class="node">
<title>Node8</title>
<g id="a_node8"><a xlink:title=" ">
<polygon fill="white" stroke="#bfbfbf" points="1544.5,-0.5 1544.5,-19.5 1603.5,-19.5 1603.5,-0.5 1544.5,-0.5"/>
<text text-anchor="middle" x="1574" y="-7.5" font-family="Helvetica,sans-Serif" font-size="10.00">complex</text>
</a>
</g>
</g>
<!-- Node4&#45;&gt;Node8 -->
<g id="edge7" class="edge">
<title>Node4&#45;&gt;Node8</title>
<path fill="none" stroke="midnightblue" d="M1120.24,-121.32C1206.46,-121.8 1464.66,-119.5 1534,-76 1551.15,-65.24 1562.07,-44.18 1568.1,-28.94"/>
<polygon fill="midnightblue" stroke="midnightblue" points="1571.39,-30.11 1571.5,-19.52 1564.81,-27.74 1571.39,-30.11"/>
</g>
<!-- Node9 -->
<g id="node9" class="node">
<title>Node9</title>
<g id="a_node9"><a xlink:title=" ">
<polygon fill="white" stroke="#bfbfbf" points="1464,-56.5 1464,-75.5 1508,-75.5 1508,-56.5 1464,-56.5"/>
<text text-anchor="middle" x="1486" y="-63.5" font-family="Helvetica,sans-Serif" font-size="10.00">cfloat</text>
</a>
</g>
</g>
<!-- Node4&#45;&gt;Node9 -->
<g id="edge8" class="edge">
<title>Node4&#45;&gt;Node9</title>
<path fill="none" stroke="midnightblue" d="M1120.03,-118.63C1180.6,-113.26 1328.09,-98.82 1450,-76 1451.25,-75.77 1452.51,-75.52 1453.79,-75.25"/>
<polygon fill="midnightblue" stroke="midnightblue" points="1454.64,-78.65 1463.62,-73.04 1453.1,-71.82 1454.64,-78.65"/>
</g>
<!-- Node10 -->
<g id="node10" class="node">
<title>Node10</title>
<g id="a_node10"><a xlink:title=" ">
<polygon fill="white" stroke="#bfbfbf" points="1358.5,-0.5 1358.5,-19.5 1405.5,-19.5 1405.5,-0.5 1358.5,-0.5"/>
<text text-anchor="middle" x="1382" y="-7.5" font-family="Helvetica,sans-Serif" font-size="10.00">vector</text>
</a>
</g>
</g>
<!-- Node4&#45;&gt;Node10 -->
<g id="edge9" class="edge">
<title>Node4&#45;&gt;Node10</title>
<path fill="none" stroke="midnightblue" d="M1120.2,-121.59C1191.96,-122.41 1378.51,-120.19 1417,-76 1430,-61.08 1414.58,-40.51 1400.3,-26.54"/>
<polygon fill="midnightblue" stroke="midnightblue" points="1402.41,-23.71 1392.67,-19.53 1397.67,-28.87 1402.41,-23.71"/>
</g>
<!-- Node11 -->
<g id="node11" class="node">
<title>Node11</title>
<g id="a_node11"><a xlink:title=" ">
<polygon fill="white" stroke="#bfbfbf" points="1686,-56.5 1686,-75.5 1730,-75.5 1730,-56.5 1686,-56.5"/>
<text text-anchor="middle" x="1708" y="-63.5" font-family="Helvetica,sans-Serif" font-size="10.00">SDL.h</text>
</a>
</g>
</g>
<!-- Node4&#45;&gt;Node11 -->
<g id="edge11" class="edge">
<title>Node4&#45;&gt;Node11</title>
<path fill="none" stroke="midnightblue" d="M1120.21,-120.79C1203.71,-119.76 1456.91,-113.66 1675.69,-75.64"/>
<polygon fill="midnightblue" stroke="midnightblue" points="1676.51,-79.05 1685.75,-73.86 1675.29,-72.15 1676.51,-79.05"/>
</g>
<!-- Node12 -->
<g id="node12" class="node">
<title>Node12</title>
<g id="a_node12"><a xlink:title=" ">
<polygon fill="white" stroke="#bfbfbf" points="66,-0.5 66,-19.5 114,-19.5 114,-0.5 66,-0.5"/>
<text text-anchor="middle" x="90" y="-7.5" font-family="Helvetica,sans-Serif" font-size="10.00">mutex</text>
</a>
</g>
</g>
<!-- Node4&#45;&gt;Node12 -->
<g id="edge12" class="edge">
<title>Node4&#45;&gt;Node12</title>
<path fill="none" stroke="midnightblue" d="M1063.97,-120.73C906.31,-119.09 135.62,-109.39 99,-76 86.52,-64.62 85.48,-44.63 86.81,-29.81"/>
<polygon fill="midnightblue" stroke="midnightblue" points="90.3,-30.09 88.14,-19.72 83.36,-29.18 90.3,-30.09"/>
</g>
<!-- Node13 -->
<g id="node13" class="node">
<title>Node13</title>
<g id="a_node13"><a xlink:title=" ">
<polygon fill="white" stroke="#bfbfbf" points="300,-56.5 300,-75.5 346,-75.5 346,-56.5 300,-56.5"/>
<text text-anchor="middle" x="323" y="-63.5" font-family="Helvetica,sans-Serif" font-size="10.00">future</text>
</a>
</g>
</g>
<!-- Node4&#45;&gt;Node13 -->
<g id="edge13" class="edge">
<title>Node4&#45;&gt;Node13</title>
<path fill="none" stroke="midnightblue" d="M1063.98,-121.43C966.93,-122.46 636.2,-122.24 356.23,-75.84"/>
<polygon fill="midnightblue" stroke="midnightblue" points="356.73,-72.38 346.29,-74.17 355.57,-79.28 356.73,-72.38"/>
</g>
<!-- Node14 -->
<g id="node14" class="node">
<title>Node14</title>
<g id="a_node14"><a xlink:title=" ">
<polygon fill="white" stroke="#bfbfbf" points="364,-56.5 364,-75.5 414,-75.5 414,-56.5 364,-56.5"/>
<text text-anchor="middle" x="389" y="-63.5" font-family="Helvetica,sans-Serif" font-size="10.00">fftw3.h</text>
</a>
</g>
</g>
<!-- Node4&#45;&gt;Node14 -->
<g id="edge15" class="edge">
<title>Node4&#45;&gt;Node14</title>
<path fill="none" stroke="midnightblue" d="M1063.74,-121.03C972.37,-120.71 676.75,-116.53 424.23,-75.88"/>
<polygon fill="midnightblue" stroke="midnightblue" points="424.57,-72.39 414.13,-74.23 423.44,-79.29 424.57,-72.39"/>
</g>
<!-- Node15 -->
<g id="node15" class="node">
<title>Node15</title>
<g id="a_node15"><a xlink:title=" ">
<polygon fill="white" stroke="#bfbfbf" points="647,-0.5 647,-19.5 697,-19.5 697,-0.5 647,-0.5"/>
<text text-anchor="middle" x="672" y="-7.5" font-family="Helvetica,sans-Serif" font-size="10.00">chrono</text>
</a>
</g>
</g>
<!-- Node4&#45;&gt;Node15 -->
<g id="edge16" class="edge">
<title>Node4&#45;&gt;Node15</title>
<path fill="none" stroke="midnightblue" d="M1063.62,-120.49C924.27,-117.83 318.09,-104.66 291,-76 284.89,-69.54 285.05,-62.6 291,-56 340.99,-0.56 545.73,-31.45 636.84,-19.68"/>
<polygon fill="midnightblue" stroke="midnightblue" points="637.5,-23.12 646.85,-18.12 636.43,-16.2 637.5,-23.12"/>
</g>
<!-- Node16 -->
<g id="node16" class="node">
<title>Node16</title>
<g id="a_node16"><a xlink:title=" ">
<polygon fill="white" stroke="#bfbfbf" points="432,-56.5 432,-75.5 496,-75.5 496,-56.5 432,-56.5"/>
<text text-anchor="middle" x="464" y="-63.5" font-family="Helvetica,sans-Serif" font-size="10.00">algorithm</text>
</a>
</g>
</g>
<!-- Node4&#45;&gt;Node16 -->
<g id="edge17" class="edge">
<title>Node4&#45;&gt;Node16</title>
<path fill="none" stroke="midnightblue" d="M1063.74,-120.23C980.06,-117.66 726.2,-107.74 506.27,-75.98"/>
<polygon fill="midnightblue" stroke="midnightblue" points="506.55,-72.49 496.15,-74.5 505.54,-79.41 506.55,-72.49"/>
</g>
<!-- Node17 -->
<g id="node17" class="node">
<title>Node17</title>
<g id="a_node17"><a xlink:href="../../d7/d50/BoundedThreadPool_8hpp.html" target="_top" xlink:title=" ">
<polygon fill="white" stroke="black" points="108.5,-56.5 108.5,-75.5 243.5,-75.5 243.5,-56.5 108.5,-56.5"/>
<text text-anchor="middle" x="176" y="-63.5" font-family="Helvetica,sans-Serif" font-size="10.00">BoundedThreadPool.hpp</text>
</a>
</g>
</g>
<!-- Node4&#45;&gt;Node17 -->
<g id="edge18" class="edge">
<title>Node4&#45;&gt;Node17</title>
<path fill="none" stroke="midnightblue" d="M1063.88,-120.05C958.07,-116.35 573.78,-101.83 258,-76 256.53,-75.88 255.04,-75.75 253.54,-75.62"/>
<polygon fill="midnightblue" stroke="midnightblue" points="253.82,-72.14 243.54,-74.71 253.18,-79.11 253.82,-72.14"/>
</g>
<!-- Node23 -->
<g id="node23" class="node">
<title>Node23</title>
<g id="a_node23"><a xlink:title=" ">
<polygon fill="white" stroke="#bfbfbf" points="1424,-0.5 1424,-19.5 1526,-19.5 1526,-0.5 1424,-0.5"/>
<text text-anchor="middle" x="1475" y="-7.5" font-family="Helvetica,sans-Serif" font-size="10.00">tinycolormap.hpp</text>
</a>
</g>
</g>
<!-- Node4&#45;&gt;Node23 -->
<g id="edge26" class="edge">
<title>Node4&#45;&gt;Node23</title>
<path fill="none" stroke="midnightblue" d="M1120.1,-120.16C1210.65,-117.16 1490.42,-105.54 1517,-76 1531.06,-60.38 1512.26,-39.58 1495.51,-25.77"/>
<polygon fill="midnightblue" stroke="midnightblue" points="1497.64,-22.99 1487.6,-19.6 1493.33,-28.51 1497.64,-22.99"/>
</g>
<!-- Node24 -->
<g id="node24" class="node">
<title>Node24</title>
<g id="a_node24"><a xlink:title=" ">
<polygon fill="white" stroke="#bfbfbf" points="640,-56.5 640,-75.5 700,-75.5 700,-56.5 640,-56.5"/>
<text text-anchor="middle" x="670" y="-63.5" font-family="Helvetica,sans-Serif" font-size="10.00">fft2d.hpp</text>
</a>
</g>
</g>
<!-- Node4&#45;&gt;Node24 -->
<g id="edge27" class="edge">
<title>Node4&#45;&gt;Node24</title>
<path fill="none" stroke="midnightblue" d="M1063.91,-118.46C1001.01,-112.61 844.16,-97.02 714,-76 712.74,-75.8 711.47,-75.58 710.18,-75.36"/>
<polygon fill="midnightblue" stroke="midnightblue" points="710.7,-71.9 700.24,-73.53 709.44,-78.78 710.7,-71.9"/>
</g>
<!-- Node25 -->
<g id="node25" class="node">
<title>Node25</title>
<g id="a_node25"><a xlink:href="../../d0/d3c/SocketConnector_8h.html" target="_top" xlink:title=" ">
<polygon fill="white" stroke="black" points="514.5,-56.5 514.5,-75.5 621.5,-75.5 621.5,-56.5 514.5,-56.5"/>
<text text-anchor="middle" x="568" y="-63.5" font-family="Helvetica,sans-Serif" font-size="10.00">SocketConnector.h</text>
</a>
</g>
</g>
<!-- Node4&#45;&gt;Node25 -->
<g id="edge28" class="edge">
<title>Node4&#45;&gt;Node25</title>
<path fill="none" stroke="midnightblue" d="M1063.89,-118.7C993.24,-112.81 802.33,-96.33 631.76,-76.04"/>
<polygon fill="midnightblue" stroke="midnightblue" points="631.94,-72.54 621.59,-74.82 631.11,-79.49 631.94,-72.54"/>
</g>
<!-- Node29 -->
<g id="node29" class="node">
<title>Node29</title>
<g id="a_node29"><a xlink:href="../../da/dce/ProgressMonitor_8h.html" target="_top" xlink:title=" ">
<polygon fill="white" stroke="black" points="756,-56.5 756,-75.5 860,-75.5 860,-56.5 756,-56.5"/>
<text text-anchor="middle" x="808" y="-63.5" font-family="Helvetica,sans-Serif" font-size="10.00">ProgressMonitor.h</text>
</a>
</g>
</g>
<!-- Node4&#45;&gt;Node29 -->
<g id="edge35" class="edge">
<title>Node4&#45;&gt;Node29</title>
<path fill="none" stroke="midnightblue" d="M1063.99,-115.67C1017.43,-106.82 923.26,-88.92 863.04,-77.46"/>
<polygon fill="midnightblue" stroke="midnightblue" points="863.42,-73.97 852.94,-75.55 862.11,-80.85 863.42,-73.97"/>
</g>
<!-- Node32 -->
<g id="node32" class="node">
<title>Node32</title>
<g id="a_node32"><a xlink:title=" ">
<polygon fill="white" stroke="#bfbfbf" points="878,-56.5 878,-75.5 978,-75.5 978,-56.5 878,-56.5"/>
<text text-anchor="middle" x="928" y="-63.5" font-family="Helvetica,sans-Serif" font-size="10.00">MerlinInterface.h</text>
</a>
</g>
</g>
<!-- Node4&#45;&gt;Node32 -->
<g id="edge43" class="edge">
<title>Node4&#45;&gt;Node32</title>
<path fill="none" stroke="midnightblue" d="M1066.01,-112.44C1038.3,-103.32 994.25,-88.81 963.38,-78.65"/>
<polygon fill="midnightblue" stroke="midnightblue" points="964.46,-75.32 953.86,-75.52 962.27,-81.97 964.46,-75.32"/>
</g>
<!-- Node33 -->
<g id="node33" class="node">
<title>Node33</title>
<g id="a_node33"><a xlink:title=" ">
<polygon fill="white" stroke="#bfbfbf" points="996.5,-56.5 996.5,-75.5 1105.5,-75.5 1105.5,-56.5 996.5,-56.5"/>
<text text-anchor="middle" x="1051" y="-63.5" font-family="Helvetica,sans-Serif" font-size="10.00">TimepixInterface.h</text>
</a>
</g>
</g>
<!-- Node4&#45;&gt;Node33 -->
<g id="edge44" class="edge">
<title>Node4&#45;&gt;Node33</title>
<path fill="none" stroke="midnightblue" d="M1085.23,-112.08C1079.44,-104.46 1070.94,-93.26 1063.86,-83.94"/>
<polygon fill="midnightblue" stroke="midnightblue" points="1066.48,-81.6 1057.64,-75.75 1060.9,-85.83 1066.48,-81.6"/>
</g>
<!-- Node34 -->
<g id="node34" class="node">
<title>Node34</title>
<g id="a_node34"><a xlink:href="../../dd/de4/Camera_8h.html" target="_top" xlink:title=" ">
<polygon fill="white" stroke="black" points="1276,-56.5 1276,-75.5 1340,-75.5 1340,-56.5 1276,-56.5"/>
<text text-anchor="middle" x="1308" y="-63.5" font-family="Helvetica,sans-Serif" font-size="10.00">Camera.h</text>
</a>
</g>
</g>
<!-- Node4&#45;&gt;Node34 -->
<g id="edge45" class="edge">
<title>Node4&#45;&gt;Node34</title>
<path fill="none" stroke="midnightblue" d="M1120.24,-113.94C1157.4,-104.65 1223.02,-88.24 1266.01,-77.5"/>
<polygon fill="midnightblue" stroke="midnightblue" points="1267.03,-80.85 1275.88,-75.03 1265.33,-74.06 1267.03,-80.85"/>
</g>
<!-- Node4&#45;&gt;Node37 -->
<g id="edge50" class="edge">
<title>Node4&#45;&gt;Node37</title>
<path fill="none" stroke="midnightblue" d="M1120.08,-119.43C1195.86,-114.97 1410.77,-100.95 1588,-76 1589.47,-75.79 1590.95,-75.57 1592.46,-75.34"/>
<polygon fill="midnightblue" stroke="midnightblue" points="1593.17,-78.77 1602.45,-73.66 1592.01,-71.87 1593.17,-78.77"/>
</g>
<!-- Node17&#45;&gt;Node3 -->
<g id="edge19" class="edge">
<title>Node17&#45;&gt;Node3</title>
<path fill="none" stroke="midnightblue" d="M151.92,-56.44C126.46,-47.4 86.11,-33.06 57.54,-22.92"/>
<polygon fill="midnightblue" stroke="midnightblue" points="58.57,-19.57 47.97,-19.52 56.22,-26.16 58.57,-19.57"/>
</g>
<!-- Node17&#45;&gt;Node12 -->
<g id="edge22" class="edge">
<title>Node17&#45;&gt;Node12</title>
<path fill="none" stroke="midnightblue" d="M162.18,-56.32C148.77,-47.9 128.18,-34.97 112.41,-25.07"/>
<polygon fill="midnightblue" stroke="midnightblue" points="114.11,-22.01 103.78,-19.65 110.39,-27.94 114.11,-22.01"/>
</g>
<!-- Node18 -->
<g id="node18" class="node">
<title>Node18</title>
<g id="a_node18"><a xlink:title=" ">
<polygon fill="white" stroke="#bfbfbf" points="132.5,-0.5 132.5,-19.5 179.5,-19.5 179.5,-0.5 132.5,-0.5"/>
<text text-anchor="middle" x="156" y="-7.5" font-family="Helvetica,sans-Serif" font-size="10.00">queue</text>
</a>
</g>
</g>
<!-- Node17&#45;&gt;Node18 -->
<g id="edge20" class="edge">
<title>Node17&#45;&gt;Node18</title>
<path fill="none" stroke="midnightblue" d="M172.7,-56.08C170.02,-48.85 166.15,-38.41 162.81,-29.4"/>
<polygon fill="midnightblue" stroke="midnightblue" points="166,-27.91 159.24,-19.75 159.43,-30.34 166,-27.91"/>
</g>
<!-- Node19 -->
<g id="node19" class="node">
<title>Node19</title>
<g id="a_node19"><a xlink:title=" ">
<polygon fill="white" stroke="#bfbfbf" points="197.5,-0.5 197.5,-19.5 262.5,-19.5 262.5,-0.5 197.5,-0.5"/>
<text text-anchor="middle" x="230" y="-7.5" font-family="Helvetica,sans-Serif" font-size="10.00">functional</text>
</a>
</g>
</g>
<!-- Node17&#45;&gt;Node19 -->
<g id="edge21" class="edge">
<title>Node17&#45;&gt;Node19</title>
<path fill="none" stroke="midnightblue" d="M184.92,-56.08C192.78,-48.22 204.43,-36.57 213.92,-27.08"/>
<polygon fill="midnightblue" stroke="midnightblue" points="216.65,-29.3 221.25,-19.75 211.7,-24.35 216.65,-29.3"/>
</g>
<!-- Node20 -->
<g id="node20" class="node">
<title>Node20</title>
<g id="a_node20"><a xlink:title=" ">
<polygon fill="white" stroke="#bfbfbf" points="280.5,-0.5 280.5,-19.5 387.5,-19.5 387.5,-0.5 280.5,-0.5"/>
<text text-anchor="middle" x="334" y="-7.5" font-family="Helvetica,sans-Serif" font-size="10.00">condition_variable</text>
</a>
</g>
</g>
<!-- Node17&#45;&gt;Node20 -->
<g id="edge23" class="edge">
<title>Node17&#45;&gt;Node20</title>
<path fill="none" stroke="midnightblue" d="M201.04,-56.44C227.62,-47.36 269.81,-32.94 299.52,-22.78"/>
<polygon fill="midnightblue" stroke="midnightblue" points="300.75,-26.06 309.08,-19.52 298.49,-19.44 300.75,-26.06"/>
</g>
<!-- Node21 -->
<g id="node21" class="node">
<title>Node21</title>
<g id="a_node21"><a xlink:title=" ">
<polygon fill="white" stroke="#bfbfbf" points="783,-0.5 783,-19.5 833,-19.5 833,-0.5 783,-0.5"/>
<text text-anchor="middle" x="808" y="-7.5" font-family="Helvetica,sans-Serif" font-size="10.00">atomic</text>
</a>
</g>
</g>
<!-- Node17&#45;&gt;Node21 -->
<g id="edge24" class="edge">
<title>Node17&#45;&gt;Node21</title>
<path fill="none" stroke="midnightblue" d="M243.8,-59.65C259.31,-58.44 275.72,-57.17 291,-56 502.39,-39.85 559.98,-55.21 772.93,-19.87"/>
<polygon fill="midnightblue" stroke="midnightblue" points="773.58,-23.31 782.86,-18.21 772.42,-16.41 773.58,-23.31"/>
</g>
<!-- Node22 -->
<g id="node22" class="node">
<title>Node22</title>
<g id="a_node22"><a xlink:title=" ">
<polygon fill="white" stroke="#bfbfbf" points="569,-0.5 569,-19.5 629,-19.5 629,-0.5 569,-0.5"/>
<text text-anchor="middle" x="599" y="-7.5" font-family="Helvetica,sans-Serif" font-size="10.00">iostream</text>
</a>
</g>
</g>
<!-- Node17&#45;&gt;Node22 -->
<g id="edge25" class="edge">
<title>Node17&#45;&gt;Node22</title>
<path fill="none" stroke="midnightblue" d="M243.89,-57.41C345.57,-45.99 528.77,-25.16 559,-20 559.1,-19.98 559.2,-19.97 559.3,-19.95"/>
<polygon fill="midnightblue" stroke="midnightblue" points="559.75,-23.42 568.93,-18.12 558.45,-16.55 559.75,-23.42"/>
</g>
<!-- Node25&#45;&gt;Node2 -->
<g id="edge33" class="edge">
<title>Node25&#45;&gt;Node2</title>
<path fill="none" stroke="midnightblue" d="M621.58,-57.08C624.77,-56.69 627.92,-56.33 631,-56 859.61,-31.73 919.63,-53.95 1147,-20 1149.23,-19.67 1151.53,-19.27 1153.83,-18.84"/>
<polygon fill="midnightblue" stroke="midnightblue" points="1154.77,-22.22 1163.84,-16.75 1153.34,-15.37 1154.77,-22.22"/>
</g>
<!-- Node25&#45;&gt;Node5 -->
<g id="edge30" class="edge">
<title>Node25&#45;&gt;Node5</title>
<path fill="none" stroke="midnightblue" d="M621.61,-57.28C624.79,-56.84 627.93,-56.41 631,-56 754.32,-39.4 788.71,-42.93 914.75,-20.05"/>
<polygon fill="midnightblue" stroke="midnightblue" points="915.58,-23.46 924.79,-18.21 914.32,-16.57 915.58,-23.46"/>
</g>
<!-- Node25&#45;&gt;Node22 -->
<g id="edge34" class="edge">
<title>Node25&#45;&gt;Node22</title>
<path fill="none" stroke="midnightblue" d="M573.12,-56.08C577.41,-48.61 583.66,-37.72 588.94,-28.52"/>
<polygon fill="midnightblue" stroke="midnightblue" points="592.03,-30.17 593.98,-19.75 585.96,-26.68 592.03,-30.17"/>
</g>
<!-- Node26 -->
<g id="node26" class="node">
<title>Node26</title>
<g id="a_node26"><a xlink:title=" ">
<polygon fill="white" stroke="#bfbfbf" points="416.5,-0.5 416.5,-19.5 485.5,-19.5 485.5,-0.5 416.5,-0.5"/>
<text text-anchor="middle" x="451" y="-7.5" font-family="Helvetica,sans-Serif" font-size="10.00">arpa/inet.h</text>
</a>
</g>
</g>
<!-- Node25&#45;&gt;Node26 -->
<g id="edge29" class="edge">
<title>Node25&#45;&gt;Node26</title>
<path fill="none" stroke="midnightblue" d="M549.46,-56.44C530.38,-47.64 500.43,-33.81 478.56,-23.72"/>
<polygon fill="midnightblue" stroke="midnightblue" points="480,-20.53 469.45,-19.52 477.07,-26.88 480,-20.53"/>
</g>
<!-- Node27 -->
<g id="node27" class="node">
<title>Node27</title>
<g id="a_node27"><a xlink:title=" ">
<polygon fill="white" stroke="#bfbfbf" points="503.5,-0.5 503.5,-19.5 550.5,-19.5 550.5,-0.5 503.5,-0.5"/>
<text text-anchor="middle" x="527" y="-7.5" font-family="Helvetica,sans-Serif" font-size="10.00">cerrno</text>
</a>
</g>
</g>
<!-- Node25&#45;&gt;Node27 -->
<g id="edge31" class="edge">
<title>Node25&#45;&gt;Node27</title>
<path fill="none" stroke="midnightblue" d="M561.23,-56.08C555.44,-48.46 546.94,-37.26 539.86,-27.94"/>
<polygon fill="midnightblue" stroke="midnightblue" points="542.48,-25.6 533.64,-19.75 536.9,-29.83 542.48,-25.6"/>
</g>
<!-- Node28 -->
<g id="node28" class="node">
<title>Node28</title>
<g id="a_node28"><a xlink:title=" ">
<polygon fill="white" stroke="#bfbfbf" points="715,-0.5 715,-19.5 765,-19.5 765,-0.5 715,-0.5"/>
<text text-anchor="middle" x="740" y="-7.5" font-family="Helvetica,sans-Serif" font-size="10.00">cstring</text>
</a>
</g>
</g>
<!-- Node25&#45;&gt;Node28 -->
<g id="edge32" class="edge">
<title>Node25&#45;&gt;Node28</title>
<path fill="none" stroke="midnightblue" d="M595.25,-56.44C624.91,-47.13 672.43,-32.21 704.87,-22.03"/>
<polygon fill="midnightblue" stroke="midnightblue" points="706.34,-25.24 714.83,-18.9 704.24,-18.56 706.34,-25.24"/>
</g>
<!-- Node29&#45;&gt;Node6 -->
<g id="edge42" class="edge">
<title>Node29&#45;&gt;Node6</title>
<path fill="none" stroke="midnightblue" d="M860.12,-56.95C913.85,-48.47 999.98,-34.38 1074,-20 1076.35,-19.54 1078.78,-19.05 1081.22,-18.55"/>
<polygon fill="midnightblue" stroke="midnightblue" points="1082.14,-21.93 1091.19,-16.43 1080.68,-15.09 1082.14,-21.93"/>
</g>
<!-- Node29&#45;&gt;Node15 -->
<g id="edge41" class="edge">
<title>Node29&#45;&gt;Node15</title>
<path fill="none" stroke="midnightblue" d="M786.45,-56.44C763.97,-47.52 728.51,-33.44 703.02,-23.32"/>
<polygon fill="midnightblue" stroke="midnightblue" points="704.03,-19.95 693.45,-19.52 701.45,-26.46 704.03,-19.95"/>
</g>
<!-- Node29&#45;&gt;Node21 -->
<g id="edge40" class="edge">
<title>Node29&#45;&gt;Node21</title>
<path fill="none" stroke="midnightblue" d="M808,-56.08C808,-49.01 808,-38.86 808,-29.99"/>
<polygon fill="midnightblue" stroke="midnightblue" points="811.5,-29.75 808,-19.75 804.5,-29.75 811.5,-29.75"/>
</g>
<!-- Node29&#45;&gt;Node22 -->
<g id="edge37" class="edge">
<title>Node29&#45;&gt;Node22</title>
<path fill="none" stroke="midnightblue" d="M774.88,-56.44C738.04,-46.92 678.5,-31.54 639.06,-21.35"/>
<polygon fill="midnightblue" stroke="midnightblue" points="639.8,-17.93 629.25,-18.82 638.05,-24.71 639.8,-17.93"/>
</g>
<!-- Node29&#45;&gt;Node28 -->
<g id="edge39" class="edge">
<title>Node29&#45;&gt;Node28</title>
<path fill="none" stroke="midnightblue" d="M797.07,-56.32C786.83,-48.18 771.28,-35.84 759,-26.09"/>
<polygon fill="midnightblue" stroke="midnightblue" points="761.13,-23.31 751.12,-19.83 756.78,-28.79 761.13,-23.31"/>
</g>
<!-- Node30 -->
<g id="node30" class="node">
<title>Node30</title>
<g id="a_node30"><a xlink:title=" ">
<polygon fill="white" stroke="#bfbfbf" points="999,-0.5 999,-19.5 1065,-19.5 1065,-0.5 999,-0.5"/>
<text text-anchor="middle" x="1032" y="-7.5" font-family="Helvetica,sans-Serif" font-size="10.00">sys/ioctl.h</text>
</a>
</g>
</g>
<!-- Node29&#45;&gt;Node30 -->
<g id="edge36" class="edge">
<title>Node29&#45;&gt;Node30</title>
<path fill="none" stroke="midnightblue" d="M843.49,-56.44C883.01,-46.92 946.86,-31.52 989.14,-21.33"/>
<polygon fill="midnightblue" stroke="midnightblue" points="989.96,-24.73 998.86,-18.99 988.32,-17.93 989.96,-24.73"/>
</g>
<!-- Node31 -->
<g id="node31" class="node">
<title>Node31</title>
<g id="a_node31"><a xlink:title=" ">
<polygon fill="white" stroke="#bfbfbf" points="851,-0.5 851,-19.5 907,-19.5 907,-0.5 851,-0.5"/>
<text text-anchor="middle" x="879" y="-7.5" font-family="Helvetica,sans-Serif" font-size="10.00">iomanip</text>
</a>
</g>
</g>
<!-- Node29&#45;&gt;Node31 -->
<g id="edge38" class="edge">
<title>Node29&#45;&gt;Node31</title>
<path fill="none" stroke="midnightblue" d="M819.41,-56.32C830.11,-48.18 846.34,-35.84 859.16,-26.09"/>
<polygon fill="midnightblue" stroke="midnightblue" points="861.54,-28.67 867.39,-19.83 857.31,-23.1 861.54,-28.67"/>
</g>
<!-- Node34&#45;&gt;Node10 -->
<g id="edge46" class="edge">
<title>Node34&#45;&gt;Node10</title>
<path fill="none" stroke="midnightblue" d="M1319.89,-56.32C1331.15,-48.11 1348.29,-35.6 1361.71,-25.81"/>
<polygon fill="midnightblue" stroke="midnightblue" points="1363.88,-28.56 1369.89,-19.83 1359.75,-22.9 1363.88,-28.56"/>
</g>
<!-- Node34&#45;&gt;Node21 -->
<g id="edge47" class="edge">
<title>Node34&#45;&gt;Node21</title>
<path fill="none" stroke="midnightblue" d="M1275.83,-63.7C1201.31,-60.29 1011.03,-49.39 843.15,-19.93"/>
<polygon fill="midnightblue" stroke="midnightblue" points="843.61,-16.45 833.15,-18.14 842.38,-23.34 843.61,-16.45"/>
</g>
<!-- Node35 -->
<g id="node35" class="node">
<title>Node35</title>
<g id="a_node35"><a xlink:title=" ">
<polygon fill="white" stroke="#bfbfbf" points="1298,-0.5 1298,-19.5 1340,-19.5 1340,-0.5 1298,-0.5"/>
<text text-anchor="middle" x="1319" y="-7.5" font-family="Helvetica,sans-Serif" font-size="10.00">array</text>
</a>
</g>
</g>
<!-- Node34&#45;&gt;Node35 -->
<g id="edge48" class="edge">
<title>Node34&#45;&gt;Node35</title>
<path fill="none" stroke="midnightblue" d="M1309.82,-56.08C1311.27,-48.93 1313.37,-38.64 1315.19,-29.69"/>
<polygon fill="midnightblue" stroke="midnightblue" points="1318.65,-30.25 1317.22,-19.75 1311.79,-28.85 1318.65,-30.25"/>
</g>
<!-- Node36 -->
<g id="node36" class="node">
<title>Node36</title>
<g id="a_node36"><a xlink:title=" ">
<polygon fill="white" stroke="#bfbfbf" points="1226.5,-0.5 1226.5,-19.5 1279.5,-19.5 1279.5,-0.5 1226.5,-0.5"/>
<text text-anchor="middle" x="1253" y="-7.5" font-family="Helvetica,sans-Serif" font-size="10.00">stdlib.h</text>
</a>
</g>
</g>
<!-- Node34&#45;&gt;Node36 -->
<g id="edge49" class="edge">
<title>Node34&#45;&gt;Node36</title>
<path fill="none" stroke="midnightblue" d="M1298.92,-56.08C1290.83,-48.14 1278.8,-36.34 1269.09,-26.8"/>
<polygon fill="midnightblue" stroke="midnightblue" points="1271.5,-24.26 1261.91,-19.75 1266.6,-29.25 1271.5,-24.26"/>
</g>
<!-- Node37&#45;&gt;Node2 -->
<g id="edge51" class="edge">
<title>Node37&#45;&gt;Node2</title>
<path fill="none" stroke="midnightblue" d="M1602.45,-62.24C1520.8,-55.2 1307.99,-36.12 1218.3,-19.88"/>
<polygon fill="midnightblue" stroke="midnightblue" points="1218.71,-16.39 1208.24,-17.96 1217.4,-23.27 1218.71,-16.39"/>
</g>
<!-- Node37&#45;&gt;Node8 -->
<g id="edge53" class="edge">
<title>Node37&#45;&gt;Node8</title>
<path fill="none" stroke="midnightblue" d="M1625.2,-56.32C1616.18,-48.34 1602.59,-36.31 1591.68,-26.65"/>
<polygon fill="midnightblue" stroke="midnightblue" points="1593.79,-23.84 1583.98,-19.83 1589.15,-29.08 1593.79,-23.84"/>
</g>
<!-- Node37&#45;&gt;Node10 -->
<g id="edge52" class="edge">
<title>Node37&#45;&gt;Node10</title>
<path fill="none" stroke="midnightblue" d="M1602.43,-59.02C1561.21,-51.3 1487.83,-37.07 1415.48,-19.99"/>
<polygon fill="midnightblue" stroke="midnightblue" points="1416.28,-16.58 1405.75,-17.67 1414.66,-23.39 1416.28,-16.58"/>
</g>
<!-- Node37&#45;&gt;Node23 -->
<g id="edge59" class="edge">
<title>Node37&#45;&gt;Node23</title>
<path fill="none" stroke="midnightblue" d="M1609.65,-56.44C1582.73,-47.36 1540,-32.94 1509.91,-22.78"/>
<polygon fill="midnightblue" stroke="midnightblue" points="1510.83,-19.4 1500.23,-19.52 1508.59,-26.03 1510.83,-19.4"/>
</g>
<!-- Node38 -->
<g id="node38" class="node">
<title>Node38</title>
<g id="a_node38"><a xlink:title=" ">
<polygon fill="white" stroke="#bfbfbf" points="1820,-0.5 1820,-19.5 1888,-19.5 1888,-0.5 1820,-0.5"/>
<text text-anchor="middle" x="1854" y="-7.5" font-family="Helvetica,sans-Serif" font-size="10.00">filesystem</text>
</a>
</g>
</g>
<!-- Node37&#45;&gt;Node38 -->
<g id="edge54" class="edge">
<title>Node37&#45;&gt;Node38</title>
<path fill="none" stroke="midnightblue" d="M1667.79,-56.92C1705.6,-47.59 1767.93,-32.22 1809.95,-21.86"/>
<polygon fill="midnightblue" stroke="midnightblue" points="1811.03,-25.2 1819.91,-19.41 1809.36,-18.4 1811.03,-25.2"/>
</g>
<!-- Node39 -->
<g id="node39" class="node">
<title>Node39</title>
<g id="a_node39"><a xlink:title=" ">
<polygon fill="white" stroke="#bfbfbf" points="1978,-0.5 1978,-19.5 2058,-19.5 2058,-0.5 1978,-0.5"/>
<text text-anchor="middle" x="2018" y="-7.5" font-family="Helvetica,sans-Serif" font-size="10.00">SDL_image.h</text>
</a>
</g>
</g>
<!-- Node37&#45;&gt;Node39 -->
<g id="edge55" class="edge">
<title>Node37&#45;&gt;Node39</title>
<path fill="none" stroke="midnightblue" d="M1667.51,-57.74C1670.71,-57.11 1673.91,-56.52 1677,-56 1805.5,-34.33 1839.16,-39.55 1968,-20 1968.1,-19.98 1968.2,-19.97 1968.3,-19.95"/>
<polygon fill="midnightblue" stroke="midnightblue" points="1968.59,-23.45 1977.92,-18.42 1967.49,-16.54 1968.59,-23.45"/>
</g>
<!-- Node40 -->
<g id="node40" class="node">
<title>Node40</title>
<g id="a_node40"><a xlink:title=" ">
<polygon fill="white" stroke="#bfbfbf" points="1906.5,-0.5 1906.5,-19.5 1959.5,-19.5 1959.5,-0.5 1906.5,-0.5"/>
<text text-anchor="middle" x="1933" y="-7.5" font-family="Helvetica,sans-Serif" font-size="10.00">imgui.h</text>
</a>
</g>
</g>
<!-- Node37&#45;&gt;Node40 -->
<g id="edge56" class="edge">
<title>Node37&#45;&gt;Node40</title>
<path fill="none" stroke="midnightblue" d="M1667.53,-57.87C1670.72,-57.21 1673.92,-56.58 1677,-56 1771.22,-38.21 1798.24,-39.9 1896.28,-19.99"/>
<polygon fill="midnightblue" stroke="midnightblue" points="1897.23,-23.37 1906.32,-17.93 1895.82,-16.52 1897.23,-23.37"/>
</g>
<!-- Node41 -->
<g id="node41" class="node">
<title>Node41</title>
<g id="a_node41"><a xlink:title=" ">
<polygon fill="white" stroke="#bfbfbf" points="1622,-0.5 1622,-19.5 1718,-19.5 1718,-0.5 1622,-0.5"/>
<text text-anchor="middle" x="1670" y="-7.5" font-family="Helvetica,sans-Serif" font-size="10.00">imgui_internal.h</text>
</a>
</g>
</g>
<!-- Node37&#45;&gt;Node41 -->
<g id="edge57" class="edge">
<title>Node37&#45;&gt;Node41</title>
<path fill="none" stroke="midnightblue" d="M1640.78,-56.08C1645.67,-48.53 1652.83,-37.49 1658.83,-28.23"/>
<polygon fill="midnightblue" stroke="midnightblue" points="1661.83,-30.05 1664.33,-19.75 1655.95,-26.24 1661.83,-30.05"/>
</g>
<!-- Node42 -->
<g id="node42" class="node">
<title>Node42</title>
<g id="a_node42"><a xlink:title=" ">
<polygon fill="white" stroke="#bfbfbf" points="1736,-0.5 1736,-19.5 1802,-19.5 1802,-0.5 1736,-0.5"/>
<text text-anchor="middle" x="1769" y="-7.5" font-family="Helvetica,sans-Serif" font-size="10.00">libnpy.hpp</text>
</a>
</g>
</g>
<!-- Node37&#45;&gt;Node42 -->
<g id="edge58" class="edge">
<title>Node37&#45;&gt;Node42</title>
<path fill="none" stroke="midnightblue" d="M1656.23,-56.44C1678.38,-47.52 1713.32,-33.44 1738.44,-23.32"/>
<polygon fill="midnightblue" stroke="midnightblue" points="1739.9,-26.5 1747.87,-19.52 1737.28,-20.01 1739.9,-26.5"/>
</g>
<!-- Node43&#45;&gt;Node11 -->
<g id="edge61" class="edge">
<title>Node43&#45;&gt;Node11</title>
<path fill="none" stroke="midnightblue" d="M1708,-112.08C1708,-105.01 1708,-94.86 1708,-85.99"/>
<polygon fill="midnightblue" stroke="midnightblue" points="1711.5,-85.75 1708,-75.75 1704.5,-85.75 1711.5,-85.75"/>
</g>
<!-- Node43&#45;&gt;Node22 -->
<g id="edge64" class="edge">
<title>Node43&#45;&gt;Node22</title>
<path fill="none" stroke="midnightblue" d="M1652.98,-119.82C1461.96,-115.53 834.28,-99.75 747,-76 728.58,-70.99 726.3,-64.07 709,-56 683.22,-43.97 653.3,-31.85 631.18,-23.22"/>
<polygon fill="midnightblue" stroke="midnightblue" points="632.19,-19.86 621.6,-19.51 629.67,-26.39 632.19,-19.86"/>
</g>
<!-- Node43&#45;&gt;Node39 -->
<g id="edge62" class="edge">
<title>Node43&#45;&gt;Node39</title>
<path fill="none" stroke="midnightblue" d="M1733.86,-112.37C1760.51,-103.43 1803.24,-88.98 1840,-76 1891.04,-57.98 1950,-36.28 1985.62,-23.06"/>
<polygon fill="midnightblue" stroke="midnightblue" points="1986.86,-26.34 1995.02,-19.57 1984.42,-19.77 1986.86,-26.34"/>
</g>
<!-- Node44 -->
<g id="node44" class="node">
<title>Node44</title>
<g id="a_node44"><a xlink:title=" ">
<polygon fill="white" stroke="#bfbfbf" points="1748.5,-56.5 1748.5,-75.5 1831.5,-75.5 1831.5,-56.5 1748.5,-56.5"/>
<text text-anchor="middle" x="1790" y="-63.5" font-family="Helvetica,sans-Serif" font-size="10.00">SDL_opengl.h</text>
</a>
</g>
</g>
<!-- Node43&#45;&gt;Node44 -->
<g id="edge63" class="edge">
<title>Node43&#45;&gt;Node44</title>
<path fill="none" stroke="midnightblue" d="M1721.17,-112.32C1733.85,-103.98 1753.23,-91.21 1768.21,-81.35"/>
<polygon fill="midnightblue" stroke="midnightblue" points="1770.43,-84.08 1776.86,-75.65 1766.58,-78.23 1770.43,-84.08"/>
</g>
</g>
</svg>
