<?xml version="1.0" encoding="UTF-8" standalone="no"?>
<!DOCTYPE svg PUBLIC "-//W3C//DTD SVG 1.1//EN"
 "http://www.w3.org/Graphics/SVG/1.1/DTD/svg11.dtd">
<!-- Generated by graphviz version 2.43.0 (0)
 -->
<!-- Title: src/RunCLI.cpp Pages: 1 -->
<svg width="2569pt" height="196pt"
 viewBox="0.00 0.00 2569.00 196.00" xmlns="http://www.w3.org/2000/svg" xmlns:xlink="http://www.w3.org/1999/xlink">
<g id="graph0" class="graph" transform="scale(1 1) rotate(0) translate(4 192)">
<title>src/RunCLI.cpp</title>
<polygon fill="white" stroke="transparent" points="-4,4 -4,-192 2565,-192 2565,4 -4,4"/>
<!-- Node1 -->
<g id="node1" class="node">
<title>Node1</title>
<g id="a_node1"><a xlink:title=" ">
<polygon fill="#bfbfbf" stroke="black" points="393,-168.5 393,-187.5 481,-187.5 481,-168.5 393,-168.5"/>
<text text-anchor="middle" x="437" y="-175.5" font-family="Helvetica,sans-Serif" font-size="10.00">src/RunCLI.cpp</text>
</a>
</g>
</g>
<!-- Node2 -->
<g id="node2" class="node">
<title>Node2</title>
<g id="a_node2"><a xlink:title=" ">
<polygon fill="white" stroke="#bfbfbf" points="652,-0.5 652,-19.5 696,-19.5 696,-0.5 652,-0.5"/>
<text text-anchor="middle" x="674" y="-7.5" font-family="Helvetica,sans-Serif" font-size="10.00">string</text>
</a>
</g>
</g>
<!-- Node1&#45;&gt;Node2 -->
<g id="edge1" class="edge">
<title>Node1&#45;&gt;Node2</title>
<path fill="none" stroke="midnightblue" d="M438.12,-168.42C441.5,-146.16 453.7,-86.24 490,-56 541.26,-13.3 572.54,-35.51 641.67,-20.07"/>
<polygon fill="midnightblue" stroke="midnightblue" points="642.8,-23.39 651.69,-17.63 641.14,-16.59 642.8,-23.39"/>
</g>
<!-- Node3 -->
<g id="node3" class="node">
<title>Node3</title>
<g id="a_node3"><a xlink:title=" ">
<polygon fill="white" stroke="#bfbfbf" points="2513,-0.5 2513,-19.5 2561,-19.5 2561,-0.5 2513,-0.5"/>
<text text-anchor="middle" x="2537" y="-7.5" font-family="Helvetica,sans-Serif" font-size="10.00">thread</text>
</a>
</g>
</g>
<!-- Node1&#45;&gt;Node3 -->
<g id="edge2" class="edge">
<title>Node1&#45;&gt;Node3</title>
<path fill="none" stroke="midnightblue" d="M481.23,-176.47C732.63,-173.19 1983.58,-153.17 2360,-76 2414.87,-64.75 2475.47,-39.5 2509.62,-23.99"/>
<polygon fill="midnightblue" stroke="midnightblue" points="2511.31,-27.07 2518.93,-19.71 2508.38,-20.71 2511.31,-27.07"/>
</g>
<!-- Node4 -->
<g id="node4" class="node">
<title>Node4</title>
<g id="a_node4"><a xlink:href="../../de/dfc/Ricom_8h.html" target="_top" xlink:title=" ">
<polygon fill="white" stroke="black" points="1132,-112.5 1132,-131.5 1188,-131.5 1188,-112.5 1132,-112.5"/>
<text text-anchor="middle" x="1160" y="-119.5" font-family="Helvetica,sans-Serif" font-size="10.00">Ricom.h</text>
</a>
</g>
</g>
<!-- Node1&#45;&gt;Node4 -->
<g id="edge3" class="edge">
<title>Node1&#45;&gt;Node4</title>
<path fill="none" stroke="midnightblue" d="M481.14,-173.7C612.37,-163.9 998.62,-135.05 1121.8,-125.85"/>
<polygon fill="midnightblue" stroke="midnightblue" points="1122.17,-129.34 1131.88,-125.1 1121.65,-122.35 1122.17,-129.34"/>
</g>
<!-- Node39 -->
<g id="node39" class="node">
<title>Node39</title>
<g id="a_node39"><a xlink:href="../../d7/db2/GuiUtils_8h.html" target="_top" xlink:title=" ">
<polygon fill="white" stroke="black" points="238.5,-56.5 238.5,-75.5 303.5,-75.5 303.5,-56.5 238.5,-56.5"/>
<text text-anchor="middle" x="271" y="-63.5" font-family="Helvetica,sans-Serif" font-size="10.00">GuiUtils.h</text>
</a>
</g>
</g>
<!-- Node1&#45;&gt;Node39 -->
<g id="edge67" class="edge">
<title>Node1&#45;&gt;Node39</title>
<path fill="none" stroke="midnightblue" d="M392.72,-174.4C360.14,-170.17 317,-159.35 290,-132 278.01,-119.85 273.51,-100.58 271.86,-86.17"/>
<polygon fill="midnightblue" stroke="midnightblue" points="275.32,-85.58 271.06,-75.88 268.34,-86.12 275.32,-85.58"/>
</g>
<!-- Node45 -->
<g id="node45" class="node">
<title>Node45</title>
<g id="a_node45"><a xlink:href="../../dc/dd0/SdlImageWindow_8h.html" target="_top" xlink:title=" ">
<polygon fill="white" stroke="black" points="299,-112.5 299,-131.5 409,-131.5 409,-112.5 299,-112.5"/>
<text text-anchor="middle" x="354" y="-119.5" font-family="Helvetica,sans-Serif" font-size="10.00">SdlImageWindow.h</text>
</a>
</g>
</g>
<!-- Node1&#45;&gt;Node45 -->
<g id="edge62" class="edge">
<title>Node1&#45;&gt;Node45</title>
<path fill="none" stroke="midnightblue" d="M423.66,-168.32C410.84,-159.98 391.22,-147.21 376.06,-137.35"/>
<polygon fill="midnightblue" stroke="midnightblue" points="377.59,-134.17 367.3,-131.65 373.78,-140.04 377.59,-134.17"/>
</g>
<!-- Node4&#45;&gt;Node2 -->
<g id="edge10" class="edge">
<title>Node4&#45;&gt;Node2</title>
<path fill="none" stroke="midnightblue" d="M1131.98,-120.6C1032.08,-118.88 697.57,-110.58 666,-76 654.65,-63.57 659.1,-43.77 664.88,-29.29"/>
<polygon fill="midnightblue" stroke="midnightblue" points="668.21,-30.42 669.11,-19.87 661.82,-27.56 668.21,-30.42"/>
</g>
<!-- Node4&#45;&gt;Node3 -->
<g id="edge14" class="edge">
<title>Node4&#45;&gt;Node3</title>
<path fill="none" stroke="midnightblue" d="M1188.14,-120.76C1341.31,-119.32 2076,-110.67 2300,-76 2373.89,-64.56 2457.68,-38.32 2503.19,-22.91"/>
<polygon fill="midnightblue" stroke="midnightblue" points="2504.51,-26.16 2512.83,-19.61 2502.24,-19.53 2504.51,-26.16"/>
</g>
<!-- Node5 -->
<g id="node5" class="node">
<title>Node5</title>
<g id="a_node5"><a xlink:title=" ">
<polygon fill="white" stroke="#bfbfbf" points="1244,-0.5 1244,-19.5 1300,-19.5 1300,-0.5 1244,-0.5"/>
<text text-anchor="middle" x="1272" y="-7.5" font-family="Helvetica,sans-Serif" font-size="10.00">unistd.h</text>
</a>
</g>
</g>
<!-- Node4&#45;&gt;Node5 -->
<g id="edge4" class="edge">
<title>Node4&#45;&gt;Node5</title>
<path fill="none" stroke="midnightblue" d="M1188.01,-119.64C1269.45,-115.38 1501.78,-101.14 1524,-76 1570.51,-23.39 1667.57,-92.34 1310,-20 1309.9,-19.98 1309.8,-19.96 1309.7,-19.94"/>
<polygon fill="midnightblue" stroke="midnightblue" points="1310.69,-16.57 1300.18,-17.89 1309.22,-23.42 1310.69,-16.57"/>
</g>
<!-- Node6 -->
<g id="node6" class="node">
<title>Node6</title>
<g id="a_node6"><a xlink:title=" ">
<polygon fill="white" stroke="#bfbfbf" points="1843.5,-0.5 1843.5,-19.5 1890.5,-19.5 1890.5,-0.5 1843.5,-0.5"/>
<text text-anchor="middle" x="1867" y="-7.5" font-family="Helvetica,sans-Serif" font-size="10.00">cmath</text>
</a>
</g>
</g>
<!-- Node4&#45;&gt;Node6 -->
<g id="edge5" class="edge">
<title>Node4&#45;&gt;Node6</title>
<path fill="none" stroke="midnightblue" d="M1188.03,-120.61C1307.64,-118.75 1771.67,-109.41 1827,-76 1844.33,-65.54 1855.22,-44.42 1861.18,-29.09"/>
<polygon fill="midnightblue" stroke="midnightblue" points="1864.5,-30.19 1864.55,-19.6 1857.91,-27.85 1864.5,-30.19"/>
</g>
<!-- Node7 -->
<g id="node7" class="node">
<title>Node7</title>
<g id="a_node7"><a xlink:title=" ">
<polygon fill="white" stroke="#bfbfbf" points="675,-56.5 675,-75.5 725,-75.5 725,-56.5 675,-56.5"/>
<text text-anchor="middle" x="700" y="-63.5" font-family="Helvetica,sans-Serif" font-size="10.00">stdio.h</text>
</a>
</g>
</g>
<!-- Node4&#45;&gt;Node7 -->
<g id="edge6" class="edge">
<title>Node4&#45;&gt;Node7</title>
<path fill="none" stroke="midnightblue" d="M1131.87,-119.53C1064.82,-115.69 890.2,-103.85 735.32,-75.98"/>
<polygon fill="midnightblue" stroke="midnightblue" points="735.62,-72.47 725.15,-74.12 734.36,-79.36 735.62,-72.47"/>
</g>
<!-- Node8 -->
<g id="node8" class="node">
<title>Node8</title>
<g id="a_node8"><a xlink:title=" ">
<polygon fill="white" stroke="#bfbfbf" points="454.5,-0.5 454.5,-19.5 513.5,-19.5 513.5,-0.5 454.5,-0.5"/>
<text text-anchor="middle" x="484" y="-7.5" font-family="Helvetica,sans-Serif" font-size="10.00">complex</text>
</a>
</g>
</g>
<!-- Node4&#45;&gt;Node8 -->
<g id="edge7" class="edge">
<title>Node4&#45;&gt;Node8</title>
<path fill="none" stroke="midnightblue" d="M1131.7,-120.01C1034.84,-116.39 717.21,-102.74 619,-76 576.98,-64.56 532.17,-40.28 506.2,-24.85"/>
<polygon fill="midnightblue" stroke="midnightblue" points="507.9,-21.78 497.53,-19.6 504.27,-27.77 507.9,-21.78"/>
</g>
<!-- Node9 -->
<g id="node9" class="node">
<title>Node9</title>
<g id="a_node9"><a xlink:title=" ">
<polygon fill="white" stroke="#bfbfbf" points="743,-56.5 743,-75.5 787,-75.5 787,-56.5 743,-56.5"/>
<text text-anchor="middle" x="765" y="-63.5" font-family="Helvetica,sans-Serif" font-size="10.00">cfloat</text>
</a>
</g>
</g>
<!-- Node4&#45;&gt;Node9 -->
<g id="edge8" class="edge">
<title>Node4&#45;&gt;Node9</title>
<path fill="none" stroke="midnightblue" d="M1131.9,-119.06C1072.02,-114.61 927.4,-102.11 797.38,-75.99"/>
<polygon fill="midnightblue" stroke="midnightblue" points="797.74,-72.49 787.24,-73.92 796.34,-79.35 797.74,-72.49"/>
</g>
<!-- Node10 -->
<g id="node10" class="node">
<title>Node10</title>
<g id="a_node10"><a xlink:title=" ">
<polygon fill="white" stroke="#bfbfbf" points="1908.5,-0.5 1908.5,-19.5 1955.5,-19.5 1955.5,-0.5 1908.5,-0.5"/>
<text text-anchor="middle" x="1932" y="-7.5" font-family="Helvetica,sans-Serif" font-size="10.00">vector</text>
</a>
</g>
</g>
<!-- Node4&#45;&gt;Node10 -->
<g id="edge9" class="edge">
<title>Node4&#45;&gt;Node10</title>
<path fill="none" stroke="midnightblue" d="M1188.22,-121.38C1301.93,-122.57 1726.22,-123.68 1850,-76 1877.14,-65.55 1902.4,-42.75 1917.52,-27.13"/>
<polygon fill="midnightblue" stroke="midnightblue" points="1920.18,-29.41 1924.46,-19.72 1915.07,-24.63 1920.18,-29.41"/>
</g>
<!-- Node11 -->
<g id="node11" class="node">
<title>Node11</title>
<g id="a_node11"><a xlink:title=" ">
<polygon fill="white" stroke="#bfbfbf" points="499,-56.5 499,-75.5 543,-75.5 543,-56.5 499,-56.5"/>
<text text-anchor="middle" x="521" y="-63.5" font-family="Helvetica,sans-Serif" font-size="10.00">SDL.h</text>
</a>
</g>
</g>
<!-- Node4&#45;&gt;Node11 -->
<g id="edge11" class="edge">
<title>Node4&#45;&gt;Node11</title>
<path fill="none" stroke="midnightblue" d="M1131.85,-120.6C1045.43,-119.01 776.46,-111.36 557,-76 555.75,-75.8 554.48,-75.57 553.19,-75.33"/>
<polygon fill="midnightblue" stroke="midnightblue" points="553.86,-71.9 543.35,-73.21 552.39,-78.74 553.86,-71.9"/>
</g>
<!-- Node12 -->
<g id="node12" class="node">
<title>Node12</title>
<g id="a_node12"><a xlink:title=" ">
<polygon fill="white" stroke="#bfbfbf" points="2173,-0.5 2173,-19.5 2221,-19.5 2221,-0.5 2173,-0.5"/>
<text text-anchor="middle" x="2197" y="-7.5" font-family="Helvetica,sans-Serif" font-size="10.00">mutex</text>
</a>
</g>
</g>
<!-- Node4&#45;&gt;Node12 -->
<g id="edge12" class="edge">
<title>Node4&#45;&gt;Node12</title>
<path fill="none" stroke="midnightblue" d="M1188.24,-120.86C1319.75,-119.99 1872.97,-114.09 2041,-76 2089.8,-64.94 2142.81,-39.77 2172.77,-24.2"/>
<polygon fill="midnightblue" stroke="midnightblue" points="2174.44,-27.27 2181.65,-19.51 2171.17,-21.08 2174.44,-27.27"/>
</g>
<!-- Node13 -->
<g id="node13" class="node">
<title>Node13</title>
<g id="a_node13"><a xlink:title=" ">
<polygon fill="white" stroke="#bfbfbf" points="805,-56.5 805,-75.5 851,-75.5 851,-56.5 805,-56.5"/>
<text text-anchor="middle" x="828" y="-63.5" font-family="Helvetica,sans-Serif" font-size="10.00">future</text>
</a>
</g>
</g>
<!-- Node4&#45;&gt;Node13 -->
<g id="edge13" class="edge">
<title>Node4&#45;&gt;Node13</title>
<path fill="none" stroke="midnightblue" d="M1131.66,-117.95C1079.8,-112.11 966.03,-98.11 861.13,-76.02"/>
<polygon fill="midnightblue" stroke="midnightblue" points="861.84,-72.59 851.33,-73.93 860.38,-79.44 861.84,-72.59"/>
</g>
<!-- Node14 -->
<g id="node14" class="node">
<title>Node14</title>
<g id="a_node14"><a xlink:title=" ">
<polygon fill="white" stroke="#bfbfbf" points="869,-56.5 869,-75.5 919,-75.5 919,-56.5 869,-56.5"/>
<text text-anchor="middle" x="894" y="-63.5" font-family="Helvetica,sans-Serif" font-size="10.00">fftw3.h</text>
</a>
</g>
</g>
<!-- Node4&#45;&gt;Node14 -->
<g id="edge15" class="edge">
<title>Node4&#45;&gt;Node14</title>
<path fill="none" stroke="midnightblue" d="M1131.66,-116.14C1089.61,-108.78 1008.04,-94 929.29,-76.18"/>
<polygon fill="midnightblue" stroke="midnightblue" points="929.73,-72.69 919.2,-73.87 928.17,-79.51 929.73,-72.69"/>
</g>
<!-- Node15 -->
<g id="node15" class="node">
<title>Node15</title>
<g id="a_node15"><a xlink:title=" ">
<polygon fill="white" stroke="#bfbfbf" points="1775,-0.5 1775,-19.5 1825,-19.5 1825,-0.5 1775,-0.5"/>
<text text-anchor="middle" x="1800" y="-7.5" font-family="Helvetica,sans-Serif" font-size="10.00">chrono</text>
</a>
</g>
</g>
<!-- Node4&#45;&gt;Node15 -->
<g id="edge16" class="edge">
<title>Node4&#45;&gt;Node15</title>
<path fill="none" stroke="midnightblue" d="M1188.27,-121.25C1307.75,-122.03 1767.07,-122 1810,-76 1821.65,-63.52 1816.28,-43.45 1809.8,-28.91"/>
<polygon fill="midnightblue" stroke="midnightblue" points="1812.9,-27.29 1805.33,-19.89 1806.63,-30.4 1812.9,-27.29"/>
</g>
<!-- Node16 -->
<g id="node16" class="node">
<title>Node16</title>
<g id="a_node16"><a xlink:title=" ">
<polygon fill="white" stroke="#bfbfbf" points="937,-56.5 937,-75.5 1001,-75.5 1001,-56.5 937,-56.5"/>
<text text-anchor="middle" x="969" y="-63.5" font-family="Helvetica,sans-Serif" font-size="10.00">algorithm</text>
</a>
</g>
</g>
<!-- Node4&#45;&gt;Node16 -->
<g id="edge17" class="edge">
<title>Node4&#45;&gt;Node16</title>
<path fill="none" stroke="midnightblue" d="M1131.82,-113.03C1099.38,-103.86 1045.85,-88.73 1009.09,-78.33"/>
<polygon fill="midnightblue" stroke="midnightblue" points="1009.77,-74.89 999.19,-75.54 1007.86,-81.62 1009.77,-74.89"/>
</g>
<!-- Node17 -->
<g id="node17" class="node">
<title>Node17</title>
<g id="a_node17"><a xlink:title=" ">
<polygon fill="white" stroke="#bfbfbf" points="1019,-56.5 1019,-75.5 1063,-75.5 1063,-56.5 1019,-56.5"/>
<text text-anchor="middle" x="1041" y="-63.5" font-family="Helvetica,sans-Serif" font-size="10.00">ctime</text>
</a>
</g>
</g>
<!-- Node4&#45;&gt;Node17 -->
<g id="edge18" class="edge">
<title>Node4&#45;&gt;Node17</title>
<path fill="none" stroke="midnightblue" d="M1141.14,-112.44C1121.73,-103.64 1091.27,-89.81 1069.04,-79.72"/>
<polygon fill="midnightblue" stroke="midnightblue" points="1070.32,-76.46 1059.77,-75.52 1067.43,-82.84 1070.32,-76.46"/>
</g>
<!-- Node18 -->
<g id="node18" class="node">
<title>Node18</title>
<g id="a_node18"><a xlink:href="../../d7/d50/BoundedThreadPool_8hpp.html" target="_top" xlink:title=" ">
<polygon fill="white" stroke="black" points="2155.5,-56.5 2155.5,-75.5 2290.5,-75.5 2290.5,-56.5 2155.5,-56.5"/>
<text text-anchor="middle" x="2223" y="-63.5" font-family="Helvetica,sans-Serif" font-size="10.00">BoundedThreadPool.hpp</text>
</a>
</g>
</g>
<!-- Node4&#45;&gt;Node18 -->
<g id="edge19" class="edge">
<title>Node4&#45;&gt;Node18</title>
<path fill="none" stroke="midnightblue" d="M1188.33,-120.1C1304.11,-116.33 1752.72,-100.86 2121,-76 2128.88,-75.47 2137.1,-74.85 2145.3,-74.19"/>
<polygon fill="midnightblue" stroke="midnightblue" points="2145.59,-77.68 2155.27,-73.37 2145.02,-70.7 2145.59,-77.68"/>
</g>
<!-- Node24 -->
<g id="node24" class="node">
<title>Node24</title>
<g id="a_node24"><a xlink:title=" ">
<polygon fill="white" stroke="#bfbfbf" points="532,-0.5 532,-19.5 634,-19.5 634,-0.5 532,-0.5"/>
<text text-anchor="middle" x="583" y="-7.5" font-family="Helvetica,sans-Serif" font-size="10.00">tinycolormap.hpp</text>
</a>
</g>
</g>
<!-- Node4&#45;&gt;Node24 -->
<g id="edge27" class="edge">
<title>Node4&#45;&gt;Node24</title>
<path fill="none" stroke="midnightblue" d="M1131.9,-120.85C1038.69,-119.98 740.76,-114.23 654,-76 629.97,-65.41 608.68,-43.33 595.83,-27.85"/>
<polygon fill="midnightblue" stroke="midnightblue" points="598.25,-25.28 589.28,-19.64 592.78,-29.64 598.25,-25.28"/>
</g>
<!-- Node25 -->
<g id="node25" class="node">
<title>Node25</title>
<g id="a_node25"><a xlink:title=" ">
<polygon fill="white" stroke="#bfbfbf" points="1081,-56.5 1081,-75.5 1141,-75.5 1141,-56.5 1081,-56.5"/>
<text text-anchor="middle" x="1111" y="-63.5" font-family="Helvetica,sans-Serif" font-size="10.00">fft2d.hpp</text>
</a>
</g>
</g>
<!-- Node4&#45;&gt;Node25 -->
<g id="edge28" class="edge">
<title>Node4&#45;&gt;Node25</title>
<path fill="none" stroke="midnightblue" d="M1151.91,-112.08C1144.84,-104.3 1134.41,-92.8 1125.85,-83.37"/>
<polygon fill="midnightblue" stroke="midnightblue" points="1128.25,-80.8 1118.94,-75.75 1123.07,-85.51 1128.25,-80.8"/>
</g>
<!-- Node26 -->
<g id="node26" class="node">
<title>Node26</title>
<g id="a_node26"><a xlink:href="../../d0/d3c/SocketConnector_8h.html" target="_top" xlink:title=" ">
<polygon fill="white" stroke="black" points="1571.5,-56.5 1571.5,-75.5 1678.5,-75.5 1678.5,-56.5 1571.5,-56.5"/>
<text text-anchor="middle" x="1625" y="-63.5" font-family="Helvetica,sans-Serif" font-size="10.00">SocketConnector.h</text>
</a>
</g>
</g>
<!-- Node4&#45;&gt;Node26 -->
<g id="edge29" class="edge">
<title>Node4&#45;&gt;Node26</title>
<path fill="none" stroke="midnightblue" d="M1188.42,-117.96C1253.62,-110.96 1418.96,-92.96 1557,-76 1558.3,-75.84 1559.61,-75.68 1560.93,-75.51"/>
<polygon fill="midnightblue" stroke="midnightblue" points="1561.71,-78.94 1571.19,-74.22 1560.83,-72 1561.71,-78.94"/>
</g>
<!-- Node30 -->
<g id="node30" class="node">
<title>Node30</title>
<g id="a_node30"><a xlink:href="../../da/dce/ProgressMonitor_8h.html" target="_top" xlink:title=" ">
<polygon fill="white" stroke="black" points="1697,-56.5 1697,-75.5 1801,-75.5 1801,-56.5 1697,-56.5"/>
<text text-anchor="middle" x="1749" y="-63.5" font-family="Helvetica,sans-Serif" font-size="10.00">ProgressMonitor.h</text>
</a>
</g>
</g>
<!-- Node4&#45;&gt;Node30 -->
<g id="edge36" class="edge">
<title>Node4&#45;&gt;Node30</title>
<path fill="none" stroke="midnightblue" d="M1188.11,-119.22C1265.74,-114.16 1489.86,-98.68 1686.83,-76.07"/>
<polygon fill="midnightblue" stroke="midnightblue" points="1687.25,-79.55 1696.78,-74.92 1686.45,-72.59 1687.25,-79.55"/>
</g>
<!-- Node33 -->
<g id="node33" class="node">
<title>Node33</title>
<g id="a_node33"><a xlink:title=" ">
<polygon fill="white" stroke="#bfbfbf" points="1159,-56.5 1159,-75.5 1259,-75.5 1259,-56.5 1159,-56.5"/>
<text text-anchor="middle" x="1209" y="-63.5" font-family="Helvetica,sans-Serif" font-size="10.00">MerlinInterface.h</text>
</a>
</g>
</g>
<!-- Node4&#45;&gt;Node33 -->
<g id="edge44" class="edge">
<title>Node4&#45;&gt;Node33</title>
<path fill="none" stroke="midnightblue" d="M1168.09,-112.08C1175.16,-104.3 1185.59,-92.8 1194.15,-83.37"/>
<polygon fill="midnightblue" stroke="midnightblue" points="1196.93,-85.51 1201.06,-75.75 1191.75,-80.8 1196.93,-85.51"/>
</g>
<!-- Node34 -->
<g id="node34" class="node">
<title>Node34</title>
<g id="a_node34"><a xlink:title=" ">
<polygon fill="white" stroke="#bfbfbf" points="1277,-56.5 1277,-75.5 1387,-75.5 1387,-56.5 1277,-56.5"/>
<text text-anchor="middle" x="1332" y="-63.5" font-family="Helvetica,sans-Serif" font-size="10.00">CheetahInterface.h</text>
</a>
</g>
</g>
<!-- Node4&#45;&gt;Node34 -->
<g id="edge45" class="edge">
<title>Node4&#45;&gt;Node34</title>
<path fill="none" stroke="midnightblue" d="M1187.25,-112.44C1216.44,-103.28 1262.92,-88.69 1295.31,-78.52"/>
<polygon fill="midnightblue" stroke="midnightblue" points="1296.38,-81.85 1304.87,-75.52 1294.28,-75.17 1296.38,-81.85"/>
</g>
<!-- Node35 -->
<g id="node35" class="node">
<title>Node35</title>
<g id="a_node35"><a xlink:title=" ">
<polygon fill="white" stroke="#bfbfbf" points="1405.5,-56.5 1405.5,-75.5 1514.5,-75.5 1514.5,-56.5 1405.5,-56.5"/>
<text text-anchor="middle" x="1460" y="-63.5" font-family="Helvetica,sans-Serif" font-size="10.00">TimepixInterface.h</text>
</a>
</g>
</g>
<!-- Node4&#45;&gt;Node35 -->
<g id="edge46" class="edge">
<title>Node4&#45;&gt;Node35</title>
<path fill="none" stroke="midnightblue" d="M1188.22,-115.92C1237.1,-107.12 1338.4,-88.89 1402.58,-77.34"/>
<polygon fill="midnightblue" stroke="midnightblue" points="1403.32,-80.76 1412.55,-75.54 1402.08,-73.87 1403.32,-80.76"/>
</g>
<!-- Node36 -->
<g id="node36" class="node">
<title>Node36</title>
<g id="a_node36"><a xlink:href="../../dd/de4/Camera_8h.html" target="_top" xlink:title=" ">
<polygon fill="white" stroke="black" points="1968,-56.5 1968,-75.5 2032,-75.5 2032,-56.5 1968,-56.5"/>
<text text-anchor="middle" x="2000" y="-63.5" font-family="Helvetica,sans-Serif" font-size="10.00">Camera.h</text>
</a>
</g>
</g>
<!-- Node4&#45;&gt;Node36 -->
<g id="edge47" class="edge">
<title>Node4&#45;&gt;Node36</title>
<path fill="none" stroke="midnightblue" d="M1188.1,-120.11C1288.94,-116.75 1641.98,-103.61 1932,-76 1940.34,-75.21 1949.24,-74.17 1957.75,-73.08"/>
<polygon fill="midnightblue" stroke="midnightblue" points="1958.43,-76.52 1967.89,-71.74 1957.51,-69.58 1958.43,-76.52"/>
</g>
<!-- Node4&#45;&gt;Node39 -->
<g id="edge52" class="edge">
<title>Node4&#45;&gt;Node39</title>
<path fill="none" stroke="midnightblue" d="M1131.66,-121.17C1025.28,-121.44 639.61,-119.31 313.7,-76.01"/>
<polygon fill="midnightblue" stroke="midnightblue" points="313.97,-72.52 303.59,-74.66 313.03,-79.46 313.97,-72.52"/>
</g>
<!-- Node18&#45;&gt;Node3 -->
<g id="edge20" class="edge">
<title>Node18&#45;&gt;Node3</title>
<path fill="none" stroke="midnightblue" d="M2288.95,-56.48C2343.79,-48.93 2424.04,-36.81 2502.82,-20.06"/>
<polygon fill="midnightblue" stroke="midnightblue" points="2503.88,-23.41 2512.92,-17.89 2502.41,-16.57 2503.88,-23.41"/>
</g>
<!-- Node18&#45;&gt;Node12 -->
<g id="edge23" class="edge">
<title>Node18&#45;&gt;Node12</title>
<path fill="none" stroke="midnightblue" d="M2218.71,-56.08C2215.15,-48.69 2209.98,-37.95 2205.58,-28.81"/>
<polygon fill="midnightblue" stroke="midnightblue" points="2208.71,-27.24 2201.21,-19.75 2202.4,-30.28 2208.71,-27.24"/>
</g>
<!-- Node19 -->
<g id="node19" class="node">
<title>Node19</title>
<g id="a_node19"><a xlink:title=" ">
<polygon fill="white" stroke="#bfbfbf" points="2364.5,-0.5 2364.5,-19.5 2411.5,-19.5 2411.5,-0.5 2364.5,-0.5"/>
<text text-anchor="middle" x="2388" y="-7.5" font-family="Helvetica,sans-Serif" font-size="10.00">queue</text>
</a>
</g>
</g>
<!-- Node18&#45;&gt;Node19 -->
<g id="edge21" class="edge">
<title>Node18&#45;&gt;Node19</title>
<path fill="none" stroke="midnightblue" d="M2249.14,-56.44C2277.76,-47.08 2323.71,-32.04 2354.84,-21.85"/>
<polygon fill="midnightblue" stroke="midnightblue" points="2355.97,-25.17 2364.38,-18.73 2353.79,-18.51 2355.97,-25.17"/>
</g>
<!-- Node20 -->
<g id="node20" class="node">
<title>Node20</title>
<g id="a_node20"><a xlink:title=" ">
<polygon fill="white" stroke="#bfbfbf" points="2429.5,-0.5 2429.5,-19.5 2494.5,-19.5 2494.5,-0.5 2429.5,-0.5"/>
<text text-anchor="middle" x="2462" y="-7.5" font-family="Helvetica,sans-Serif" font-size="10.00">functional</text>
</a>
</g>
</g>
<!-- Node18&#45;&gt;Node20 -->
<g id="edge22" class="edge">
<title>Node18&#45;&gt;Node20</title>
<path fill="none" stroke="midnightblue" d="M2260.87,-56.44C2304.07,-46.68 2374.52,-30.77 2419.54,-20.59"/>
<polygon fill="midnightblue" stroke="midnightblue" points="2420.32,-24.01 2429.3,-18.39 2418.77,-17.18 2420.32,-24.01"/>
</g>
<!-- Node21 -->
<g id="node21" class="node">
<title>Node21</title>
<g id="a_node21"><a xlink:title=" ">
<polygon fill="white" stroke="#bfbfbf" points="2239.5,-0.5 2239.5,-19.5 2346.5,-19.5 2346.5,-0.5 2239.5,-0.5"/>
<text text-anchor="middle" x="2293" y="-7.5" font-family="Helvetica,sans-Serif" font-size="10.00">condition_variable</text>
</a>
</g>
</g>
<!-- Node18&#45;&gt;Node21 -->
<g id="edge24" class="edge">
<title>Node18&#45;&gt;Node21</title>
<path fill="none" stroke="midnightblue" d="M2234.25,-56.32C2244.8,-48.18 2260.8,-35.84 2273.44,-26.09"/>
<polygon fill="midnightblue" stroke="midnightblue" points="2275.77,-28.71 2281.55,-19.83 2271.49,-23.17 2275.77,-28.71"/>
</g>
<!-- Node22 -->
<g id="node22" class="node">
<title>Node22</title>
<g id="a_node22"><a xlink:title=" ">
<polygon fill="white" stroke="#bfbfbf" points="2105,-0.5 2105,-19.5 2155,-19.5 2155,-0.5 2105,-0.5"/>
<text text-anchor="middle" x="2130" y="-7.5" font-family="Helvetica,sans-Serif" font-size="10.00">atomic</text>
</a>
</g>
</g>
<!-- Node18&#45;&gt;Node22 -->
<g id="edge25" class="edge">
<title>Node18&#45;&gt;Node22</title>
<path fill="none" stroke="midnightblue" d="M2208.06,-56.32C2193.41,-47.82 2170.87,-34.73 2153.76,-24.8"/>
<polygon fill="midnightblue" stroke="midnightblue" points="2155.31,-21.65 2144.9,-19.65 2151.8,-27.7 2155.31,-21.65"/>
</g>
<!-- Node23 -->
<g id="node23" class="node">
<title>Node23</title>
<g id="a_node23"><a xlink:title=" ">
<polygon fill="white" stroke="#bfbfbf" points="1539,-0.5 1539,-19.5 1599,-19.5 1599,-0.5 1539,-0.5"/>
<text text-anchor="middle" x="1569" y="-7.5" font-family="Helvetica,sans-Serif" font-size="10.00">iostream</text>
</a>
</g>
</g>
<!-- Node18&#45;&gt;Node23 -->
<g id="edge26" class="edge">
<title>Node18&#45;&gt;Node23</title>
<path fill="none" stroke="midnightblue" d="M2155.37,-61.37C2022.18,-54.01 1729.15,-36.72 1609.19,-19.91"/>
<polygon fill="midnightblue" stroke="midnightblue" points="1609.55,-16.42 1599.15,-18.44 1608.53,-23.35 1609.55,-16.42"/>
</g>
<!-- Node26&#45;&gt;Node2 -->
<g id="edge34" class="edge">
<title>Node26&#45;&gt;Node2</title>
<path fill="none" stroke="midnightblue" d="M1571.3,-59.85C1556.03,-58.49 1539.36,-57.09 1524,-56 1205.2,-33.36 818.4,-16.86 706.02,-12.28"/>
<polygon fill="midnightblue" stroke="midnightblue" points="706.15,-8.78 696.02,-11.87 705.87,-15.78 706.15,-8.78"/>
</g>
<!-- Node26&#45;&gt;Node5 -->
<g id="edge31" class="edge">
<title>Node26&#45;&gt;Node5</title>
<path fill="none" stroke="midnightblue" d="M1571.21,-57.59C1488.01,-46.08 1335.07,-24.75 1310,-20 1309.9,-19.98 1309.8,-19.96 1309.7,-19.94"/>
<polygon fill="midnightblue" stroke="midnightblue" points="1310.66,-16.57 1300.16,-17.97 1309.24,-23.42 1310.66,-16.57"/>
</g>
<!-- Node26&#45;&gt;Node23 -->
<g id="edge35" class="edge">
<title>Node26&#45;&gt;Node23</title>
<path fill="none" stroke="midnightblue" d="M1616,-56.32C1607.81,-48.42 1595.49,-36.55 1585.53,-26.94"/>
<polygon fill="midnightblue" stroke="midnightblue" points="1587.79,-24.26 1578.16,-19.83 1582.93,-29.29 1587.79,-24.26"/>
</g>
<!-- Node27 -->
<g id="node27" class="node">
<title>Node27</title>
<g id="a_node27"><a xlink:title=" ">
<polygon fill="white" stroke="#bfbfbf" points="1383.5,-0.5 1383.5,-19.5 1452.5,-19.5 1452.5,-0.5 1383.5,-0.5"/>
<text text-anchor="middle" x="1418" y="-7.5" font-family="Helvetica,sans-Serif" font-size="10.00">arpa/inet.h</text>
</a>
</g>
</g>
<!-- Node26&#45;&gt;Node27 -->
<g id="edge30" class="edge">
<title>Node26&#45;&gt;Node27</title>
<path fill="none" stroke="midnightblue" d="M1592.2,-56.44C1556.62,-47.16 1499.69,-32.31 1460.65,-22.13"/>
<polygon fill="midnightblue" stroke="midnightblue" points="1461.21,-18.65 1450.65,-19.52 1459.44,-25.43 1461.21,-18.65"/>
</g>
<!-- Node28 -->
<g id="node28" class="node">
<title>Node28</title>
<g id="a_node28"><a xlink:title=" ">
<polygon fill="white" stroke="#bfbfbf" points="1318.5,-0.5 1318.5,-19.5 1365.5,-19.5 1365.5,-0.5 1318.5,-0.5"/>
<text text-anchor="middle" x="1342" y="-7.5" font-family="Helvetica,sans-Serif" font-size="10.00">cerrno</text>
</a>
</g>
</g>
<!-- Node26&#45;&gt;Node28 -->
<g id="edge32" class="edge">
<title>Node26&#45;&gt;Node28</title>
<path fill="none" stroke="midnightblue" d="M1571.08,-56.7C1522.44,-48.9 1448.77,-36.3 1375.58,-19.96"/>
<polygon fill="midnightblue" stroke="midnightblue" points="1376.26,-16.53 1365.73,-17.74 1374.71,-23.36 1376.26,-16.53"/>
</g>
<!-- Node29 -->
<g id="node29" class="node">
<title>Node29</title>
<g id="a_node29"><a xlink:title=" ">
<polygon fill="white" stroke="#bfbfbf" points="1471,-0.5 1471,-19.5 1521,-19.5 1521,-0.5 1471,-0.5"/>
<text text-anchor="middle" x="1496" y="-7.5" font-family="Helvetica,sans-Serif" font-size="10.00">cstring</text>
</a>
</g>
</g>
<!-- Node26&#45;&gt;Node29 -->
<g id="edge33" class="edge">
<title>Node26&#45;&gt;Node29</title>
<path fill="none" stroke="midnightblue" d="M1604.56,-56.44C1583.33,-47.56 1549.9,-33.56 1525.75,-23.45"/>
<polygon fill="midnightblue" stroke="midnightblue" points="1526.92,-20.15 1516.34,-19.52 1524.22,-26.61 1526.92,-20.15"/>
</g>
<!-- Node30&#45;&gt;Node6 -->
<g id="edge43" class="edge">
<title>Node30&#45;&gt;Node6</title>
<path fill="none" stroke="midnightblue" d="M1767.7,-56.44C1786.94,-47.64 1817.15,-33.81 1839.2,-23.72"/>
<polygon fill="midnightblue" stroke="midnightblue" points="1840.75,-26.86 1848.39,-19.52 1837.84,-20.5 1840.75,-26.86"/>
</g>
<!-- Node30&#45;&gt;Node15 -->
<g id="edge42" class="edge">
<title>Node30&#45;&gt;Node15</title>
<path fill="none" stroke="midnightblue" d="M1757.42,-56.08C1764.85,-48.22 1775.85,-36.57 1784.81,-27.08"/>
<polygon fill="midnightblue" stroke="midnightblue" points="1787.41,-29.42 1791.74,-19.75 1782.32,-24.62 1787.41,-29.42"/>
</g>
<!-- Node30&#45;&gt;Node22 -->
<g id="edge41" class="edge">
<title>Node30&#45;&gt;Node22</title>
<path fill="none" stroke="midnightblue" d="M1801.07,-60.37C1867.25,-54.03 1985.12,-41.15 2094.92,-19.99"/>
<polygon fill="midnightblue" stroke="midnightblue" points="2095.69,-23.4 2104.83,-18.05 2094.35,-16.53 2095.69,-23.4"/>
</g>
<!-- Node30&#45;&gt;Node23 -->
<g id="edge38" class="edge">
<title>Node30&#45;&gt;Node23</title>
<path fill="none" stroke="midnightblue" d="M1720.48,-56.44C1689.93,-47.28 1641.29,-32.69 1607.4,-22.52"/>
<polygon fill="midnightblue" stroke="midnightblue" points="1607.97,-19.04 1597.39,-19.52 1605.96,-25.74 1607.97,-19.04"/>
</g>
<!-- Node30&#45;&gt;Node29 -->
<g id="edge40" class="edge">
<title>Node30&#45;&gt;Node29</title>
<path fill="none" stroke="midnightblue" d="M1703.54,-56.43C1661.3,-48.3 1596.42,-35.36 1531.25,-20.2"/>
<polygon fill="midnightblue" stroke="midnightblue" points="1531.75,-16.72 1521.21,-17.84 1530.15,-23.53 1531.75,-16.72"/>
</g>
<!-- Node31 -->
<g id="node31" class="node">
<title>Node31</title>
<g id="a_node31"><a xlink:title=" ">
<polygon fill="white" stroke="#bfbfbf" points="1691,-0.5 1691,-19.5 1757,-19.5 1757,-0.5 1691,-0.5"/>
<text text-anchor="middle" x="1724" y="-7.5" font-family="Helvetica,sans-Serif" font-size="10.00">sys/ioctl.h</text>
</a>
</g>
</g>
<!-- Node30&#45;&gt;Node31 -->
<g id="edge37" class="edge">
<title>Node30&#45;&gt;Node31</title>
<path fill="none" stroke="midnightblue" d="M1744.87,-56.08C1741.49,-48.77 1736.58,-38.18 1732.38,-29.1"/>
<polygon fill="midnightblue" stroke="midnightblue" points="1735.43,-27.36 1728.05,-19.75 1729.08,-30.3 1735.43,-27.36"/>
</g>
<!-- Node32 -->
<g id="node32" class="node">
<title>Node32</title>
<g id="a_node32"><a xlink:title=" ">
<polygon fill="white" stroke="#bfbfbf" points="1617,-0.5 1617,-19.5 1673,-19.5 1673,-0.5 1617,-0.5"/>
<text text-anchor="middle" x="1645" y="-7.5" font-family="Helvetica,sans-Serif" font-size="10.00">iomanip</text>
</a>
</g>
</g>
<!-- Node30&#45;&gt;Node32 -->
<g id="edge39" class="edge">
<title>Node30&#45;&gt;Node32</title>
<path fill="none" stroke="midnightblue" d="M1732.29,-56.32C1715.69,-47.7 1690,-34.36 1670.78,-24.39"/>
<polygon fill="midnightblue" stroke="midnightblue" points="1672.16,-21.16 1661.67,-19.65 1668.93,-27.37 1672.16,-21.16"/>
</g>
<!-- Node36&#45;&gt;Node10 -->
<g id="edge48" class="edge">
<title>Node36&#45;&gt;Node10</title>
<path fill="none" stroke="midnightblue" d="M1989.07,-56.32C1978.83,-48.18 1963.28,-35.84 1951,-26.09"/>
<polygon fill="midnightblue" stroke="midnightblue" points="1953.13,-23.31 1943.12,-19.83 1948.78,-28.79 1953.13,-23.31"/>
</g>
<!-- Node36&#45;&gt;Node22 -->
<g id="edge49" class="edge">
<title>Node36&#45;&gt;Node22</title>
<path fill="none" stroke="midnightblue" d="M2020.6,-56.44C2041.99,-47.56 2075.68,-33.56 2100.02,-23.45"/>
<polygon fill="midnightblue" stroke="midnightblue" points="2101.61,-26.58 2109.5,-19.52 2098.92,-20.12 2101.61,-26.58"/>
</g>
<!-- Node37 -->
<g id="node37" class="node">
<title>Node37</title>
<g id="a_node37"><a xlink:title=" ">
<polygon fill="white" stroke="#bfbfbf" points="2045,-0.5 2045,-19.5 2087,-19.5 2087,-0.5 2045,-0.5"/>
<text text-anchor="middle" x="2066" y="-7.5" font-family="Helvetica,sans-Serif" font-size="10.00">array</text>
</a>
</g>
</g>
<!-- Node36&#45;&gt;Node37 -->
<g id="edge50" class="edge">
<title>Node36&#45;&gt;Node37</title>
<path fill="none" stroke="midnightblue" d="M2010.6,-56.32C2020.46,-48.26 2035.35,-36.08 2047.22,-26.37"/>
<polygon fill="midnightblue" stroke="midnightblue" points="2049.68,-28.88 2055.2,-19.83 2045.25,-23.46 2049.68,-28.88"/>
</g>
<!-- Node38 -->
<g id="node38" class="node">
<title>Node38</title>
<g id="a_node38"><a xlink:title=" ">
<polygon fill="white" stroke="#bfbfbf" points="1973.5,-0.5 1973.5,-19.5 2026.5,-19.5 2026.5,-0.5 1973.5,-0.5"/>
<text text-anchor="middle" x="2000" y="-7.5" font-family="Helvetica,sans-Serif" font-size="10.00">stdlib.h</text>
</a>
</g>
</g>
<!-- Node36&#45;&gt;Node38 -->
<g id="edge51" class="edge">
<title>Node36&#45;&gt;Node38</title>
<path fill="none" stroke="midnightblue" d="M2000,-56.08C2000,-49.01 2000,-38.86 2000,-29.99"/>
<polygon fill="midnightblue" stroke="midnightblue" points="2003.5,-29.75 2000,-19.75 1996.5,-29.75 2003.5,-29.75"/>
</g>
<!-- Node39&#45;&gt;Node2 -->
<g id="edge53" class="edge">
<title>Node39&#45;&gt;Node2</title>
<path fill="none" stroke="midnightblue" d="M303.61,-57.51C306.44,-56.96 309.27,-56.45 312,-56 454.76,-32.64 496,-48.01 641.56,-19.96"/>
<polygon fill="midnightblue" stroke="midnightblue" points="642.63,-23.32 651.76,-17.96 641.28,-16.45 642.63,-23.32"/>
</g>
<!-- Node39&#45;&gt;Node8 -->
<g id="edge55" class="edge">
<title>Node39&#45;&gt;Node8</title>
<path fill="none" stroke="midnightblue" d="M303.81,-56.68C341.68,-47.08 403.93,-31.3 444.44,-21.03"/>
<polygon fill="midnightblue" stroke="midnightblue" points="445.41,-24.39 454.24,-18.54 443.69,-17.61 445.41,-24.39"/>
</g>
<!-- Node39&#45;&gt;Node10 -->
<g id="edge54" class="edge">
<title>Node39&#45;&gt;Node10</title>
<path fill="none" stroke="midnightblue" d="M303.58,-57.25C306.41,-56.76 309.25,-56.33 312,-56 659.22,-14.35 1534.46,-71.12 1898.29,-19.83"/>
<polygon fill="midnightblue" stroke="midnightblue" points="1898.99,-23.26 1908.38,-18.36 1897.98,-16.34 1898.99,-23.26"/>
</g>
<!-- Node39&#45;&gt;Node24 -->
<g id="edge61" class="edge">
<title>Node39&#45;&gt;Node24</title>
<path fill="none" stroke="midnightblue" d="M303.64,-57.68C306.47,-57.09 309.28,-56.52 312,-56 383.86,-42.16 466.94,-28.74 521.97,-20.21"/>
<polygon fill="midnightblue" stroke="midnightblue" points="522.56,-23.66 531.91,-18.68 521.5,-16.75 522.56,-23.66"/>
</g>
<!-- Node40 -->
<g id="node40" class="node">
<title>Node40</title>
<g id="a_node40"><a xlink:title=" ">
<polygon fill="white" stroke="#bfbfbf" points="368,-0.5 368,-19.5 436,-19.5 436,-0.5 368,-0.5"/>
<text text-anchor="middle" x="402" y="-7.5" font-family="Helvetica,sans-Serif" font-size="10.00">filesystem</text>
</a>
</g>
</g>
<!-- Node39&#45;&gt;Node40 -->
<g id="edge56" class="edge">
<title>Node39&#45;&gt;Node40</title>
<path fill="none" stroke="midnightblue" d="M291.76,-56.44C313.32,-47.56 347.26,-33.56 371.79,-23.45"/>
<polygon fill="midnightblue" stroke="midnightblue" points="373.43,-26.56 381.34,-19.52 370.76,-20.09 373.43,-26.56"/>
</g>
<!-- Node41 -->
<g id="node41" class="node">
<title>Node41</title>
<g id="a_node41"><a xlink:title=" ">
<polygon fill="white" stroke="#bfbfbf" points="0,-0.5 0,-19.5 80,-19.5 80,-0.5 0,-0.5"/>
<text text-anchor="middle" x="40" y="-7.5" font-family="Helvetica,sans-Serif" font-size="10.00">SDL_image.h</text>
</a>
</g>
</g>
<!-- Node39&#45;&gt;Node41 -->
<g id="edge57" class="edge">
<title>Node39&#45;&gt;Node41</title>
<path fill="none" stroke="midnightblue" d="M238.39,-57.38C198.74,-48.11 131.52,-32.39 86.46,-21.86"/>
<polygon fill="midnightblue" stroke="midnightblue" points="87.17,-18.43 76.63,-19.56 85.57,-25.25 87.17,-18.43"/>
</g>
<!-- Node42 -->
<g id="node42" class="node">
<title>Node42</title>
<g id="a_node42"><a xlink:title=" ">
<polygon fill="white" stroke="#bfbfbf" points="98.5,-0.5 98.5,-19.5 151.5,-19.5 151.5,-0.5 98.5,-0.5"/>
<text text-anchor="middle" x="125" y="-7.5" font-family="Helvetica,sans-Serif" font-size="10.00">imgui.h</text>
</a>
</g>
</g>
<!-- Node39&#45;&gt;Node42 -->
<g id="edge58" class="edge">
<title>Node39&#45;&gt;Node42</title>
<path fill="none" stroke="midnightblue" d="M247.87,-56.44C223.52,-47.44 184.99,-33.19 157.58,-23.05"/>
<polygon fill="midnightblue" stroke="midnightblue" points="158.62,-19.7 148.03,-19.52 156.19,-26.27 158.62,-19.7"/>
</g>
<!-- Node43 -->
<g id="node43" class="node">
<title>Node43</title>
<g id="a_node43"><a xlink:title=" ">
<polygon fill="white" stroke="#bfbfbf" points="170,-0.5 170,-19.5 266,-19.5 266,-0.5 170,-0.5"/>
<text text-anchor="middle" x="218" y="-7.5" font-family="Helvetica,sans-Serif" font-size="10.00">imgui_internal.h</text>
</a>
</g>
</g>
<!-- Node39&#45;&gt;Node43 -->
<g id="edge59" class="edge">
<title>Node39&#45;&gt;Node43</title>
<path fill="none" stroke="midnightblue" d="M262.25,-56.08C254.53,-48.22 243.1,-36.57 233.78,-27.08"/>
<polygon fill="midnightblue" stroke="midnightblue" points="236.09,-24.44 226.59,-19.75 231.1,-29.34 236.09,-24.44"/>
</g>
<!-- Node44 -->
<g id="node44" class="node">
<title>Node44</title>
<g id="a_node44"><a xlink:title=" ">
<polygon fill="white" stroke="#bfbfbf" points="284,-0.5 284,-19.5 350,-19.5 350,-0.5 284,-0.5"/>
<text text-anchor="middle" x="317" y="-7.5" font-family="Helvetica,sans-Serif" font-size="10.00">libnpy.hpp</text>
</a>
</g>
</g>
<!-- Node39&#45;&gt;Node44 -->
<g id="edge60" class="edge">
<title>Node39&#45;&gt;Node44</title>
<path fill="none" stroke="midnightblue" d="M278.6,-56.08C285.23,-48.3 295.02,-36.8 303.06,-27.37"/>
<polygon fill="midnightblue" stroke="midnightblue" points="305.73,-29.63 309.55,-19.75 300.4,-25.09 305.73,-29.63"/>
</g>
<!-- Node45&#45;&gt;Node11 -->
<g id="edge63" class="edge">
<title>Node45&#45;&gt;Node11</title>
<path fill="none" stroke="midnightblue" d="M380.46,-112.44C410.01,-102.89 457.8,-87.44 489.31,-77.25"/>
<polygon fill="midnightblue" stroke="midnightblue" points="490.49,-80.54 498.93,-74.14 488.34,-73.88 490.49,-80.54"/>
</g>
<!-- Node45&#45;&gt;Node23 -->
<g id="edge66" class="edge">
<title>Node45&#45;&gt;Node23</title>
<path fill="none" stroke="midnightblue" d="M367.2,-112.39C390.73,-97.59 441.96,-67.77 490,-56 711.54,-1.73 1284.76,-48.81 1528.91,-19.81"/>
<polygon fill="midnightblue" stroke="midnightblue" points="1529.38,-23.27 1538.87,-18.56 1528.51,-16.33 1529.38,-23.27"/>
</g>
<!-- Node45&#45;&gt;Node41 -->
<g id="edge64" class="edge">
<title>Node45&#45;&gt;Node41</title>
<path fill="none" stroke="midnightblue" d="M329.62,-112.46C274.09,-93.01 138.07,-45.36 74.19,-22.98"/>
<polygon fill="midnightblue" stroke="midnightblue" points="75.17,-19.61 64.58,-19.61 72.86,-26.22 75.17,-19.61"/>
</g>
<!-- Node46 -->
<g id="node46" class="node">
<title>Node46</title>
<g id="a_node46"><a xlink:title=" ">
<polygon fill="white" stroke="#bfbfbf" points="321.5,-56.5 321.5,-75.5 404.5,-75.5 404.5,-56.5 321.5,-56.5"/>
<text text-anchor="middle" x="363" y="-63.5" font-family="Helvetica,sans-Serif" font-size="10.00">SDL_opengl.h</text>
</a>
</g>
</g>
<!-- Node45&#45;&gt;Node46 -->
<g id="edge65" class="edge">
<title>Node45&#45;&gt;Node46</title>
<path fill="none" stroke="midnightblue" d="M355.49,-112.08C356.68,-104.93 358.39,-94.64 359.88,-85.69"/>
<polygon fill="midnightblue" stroke="midnightblue" points="363.35,-86.19 361.54,-75.75 356.45,-85.04 363.35,-86.19"/>
</g>
</g>
</svg>
