<?xml version="1.0" encoding="UTF-8" standalone="no"?>
<!DOCTYPE svg PUBLIC "-//W3C//DTD SVG 1.1//EN"
 "http://www.w3.org/Graphics/SVG/1.1/DTD/svg11.dtd">
<!-- Generated by graphviz version 2.43.0 (0)
 -->
<!-- Title: src/Ricom.h Pages: 1 -->
<svg width="2257pt" height="140pt"
 viewBox="0.00 0.00 2256.50 140.00" xmlns="http://www.w3.org/2000/svg" xmlns:xlink="http://www.w3.org/1999/xlink">
<g id="graph0" class="graph" transform="scale(1 1) rotate(0) translate(4 136)">
<title>src/Ricom.h</title>
<polygon fill="white" stroke="transparent" points="-4,4 -4,-136 2252.5,-136 2252.5,4 -4,4"/>
<!-- Node1 -->
<g id="node1" class="node">
<title>Node1</title>
<g id="a_node1"><a xlink:title=" ">
<polygon fill="#bfbfbf" stroke="black" points="1307,-112.5 1307,-131.5 1381,-131.5 1381,-112.5 1307,-112.5"/>
<text text-anchor="middle" x="1344" y="-119.5" font-family="Helvetica,sans-Serif" font-size="10.00">src/Ricom.h</text>
</a>
</g>
</g>
<!-- Node2 -->
<g id="node2" class="node">
<title>Node2</title>
<g id="a_node2"><a xlink:title=" ">
<polygon fill="white" stroke="#bfbfbf" points="406,-0.5 406,-19.5 462,-19.5 462,-0.5 406,-0.5"/>
<text text-anchor="middle" x="434" y="-7.5" font-family="Helvetica,sans-Serif" font-size="10.00">unistd.h</text>
</a>
</g>
</g>
<!-- Node1&#45;&gt;Node2 -->
<g id="edge1" class="edge">
<title>Node1&#45;&gt;Node2</title>
<path fill="none" stroke="midnightblue" d="M1306.55,-120.28C1175.35,-117.51 736.96,-106.17 600,-76 548.5,-64.66 492.03,-39.62 460.01,-24.14"/>
<polygon fill="midnightblue" stroke="midnightblue" points="461.41,-20.93 450.89,-19.67 458.33,-27.22 461.41,-20.93"/>
</g>
<!-- Node3 -->
<g id="node3" class="node">
<title>Node3</title>
<g id="a_node3"><a xlink:title=" ">
<polygon fill="white" stroke="#bfbfbf" points="1264.5,-0.5 1264.5,-19.5 1311.5,-19.5 1311.5,-0.5 1264.5,-0.5"/>
<text text-anchor="middle" x="1288" y="-7.5" font-family="Helvetica,sans-Serif" font-size="10.00">cmath</text>
</a>
</g>
</g>
<!-- Node1&#45;&gt;Node3 -->
<g id="edge2" class="edge">
<title>Node1&#45;&gt;Node3</title>
<path fill="none" stroke="midnightblue" d="M1333.93,-112.37C1324.78,-103.99 1311.59,-90.43 1304,-76 1296.4,-61.53 1292.32,-43.35 1290.19,-29.89"/>
<polygon fill="midnightblue" stroke="midnightblue" points="1293.64,-29.32 1288.82,-19.89 1286.71,-30.27 1293.64,-29.32"/>
</g>
<!-- Node4 -->
<g id="node4" class="node">
<title>Node4</title>
<g id="a_node4"><a xlink:title=" ">
<polygon fill="white" stroke="#bfbfbf" points="1475,-56.5 1475,-75.5 1525,-75.5 1525,-56.5 1475,-56.5"/>
<text text-anchor="middle" x="1500" y="-63.5" font-family="Helvetica,sans-Serif" font-size="10.00">stdio.h</text>
</a>
</g>
</g>
<!-- Node1&#45;&gt;Node4 -->
<g id="edge3" class="edge">
<title>Node1&#45;&gt;Node4</title>
<path fill="none" stroke="midnightblue" d="M1368.72,-112.44C1394.85,-103.4 1436.26,-89.06 1465.58,-78.92"/>
<polygon fill="midnightblue" stroke="midnightblue" points="1467.09,-82.1 1475.4,-75.52 1464.8,-75.48 1467.09,-82.1"/>
</g>
<!-- Node5 -->
<g id="node5" class="node">
<title>Node5</title>
<g id="a_node5"><a xlink:title=" ">
<polygon fill="white" stroke="#bfbfbf" points="1398.5,-0.5 1398.5,-19.5 1457.5,-19.5 1457.5,-0.5 1398.5,-0.5"/>
<text text-anchor="middle" x="1428" y="-7.5" font-family="Helvetica,sans-Serif" font-size="10.00">complex</text>
</a>
</g>
</g>
<!-- Node1&#45;&gt;Node5 -->
<g id="edge4" class="edge">
<title>Node1&#45;&gt;Node5</title>
<path fill="none" stroke="midnightblue" d="M1342.25,-112.21C1340.1,-98.91 1337.97,-73.4 1349,-56 1358.45,-41.1 1374.71,-30.63 1390.03,-23.56"/>
<polygon fill="midnightblue" stroke="midnightblue" points="1391.54,-26.72 1399.38,-19.59 1388.81,-20.28 1391.54,-26.72"/>
</g>
<!-- Node6 -->
<g id="node6" class="node">
<title>Node6</title>
<g id="a_node6"><a xlink:title=" ">
<polygon fill="white" stroke="#bfbfbf" points="1543,-56.5 1543,-75.5 1587,-75.5 1587,-56.5 1543,-56.5"/>
<text text-anchor="middle" x="1565" y="-63.5" font-family="Helvetica,sans-Serif" font-size="10.00">cfloat</text>
</a>
</g>
</g>
<!-- Node1&#45;&gt;Node6 -->
<g id="edge5" class="edge">
<title>Node1&#45;&gt;Node6</title>
<path fill="none" stroke="midnightblue" d="M1381.27,-112.75C1417.66,-104.57 1474.8,-91.39 1532.97,-76.18"/>
<polygon fill="midnightblue" stroke="midnightblue" points="1533.91,-79.55 1542.69,-73.62 1532.12,-72.78 1533.91,-79.55"/>
</g>
<!-- Node7 -->
<g id="node7" class="node">
<title>Node7</title>
<g id="a_node7"><a xlink:title=" ">
<polygon fill="white" stroke="#bfbfbf" points="1040.5,-0.5 1040.5,-19.5 1087.5,-19.5 1087.5,-0.5 1040.5,-0.5"/>
<text text-anchor="middle" x="1064" y="-7.5" font-family="Helvetica,sans-Serif" font-size="10.00">vector</text>
</a>
</g>
</g>
<!-- Node1&#45;&gt;Node7 -->
<g id="edge6" class="edge">
<title>Node1&#45;&gt;Node7</title>
<path fill="none" stroke="midnightblue" d="M1306.72,-117.93C1247.06,-112.4 1133.52,-99.13 1101,-76 1085.16,-64.74 1075.2,-44.42 1069.65,-29.5"/>
<polygon fill="midnightblue" stroke="midnightblue" points="1072.89,-28.14 1066.37,-19.78 1066.25,-30.38 1072.89,-28.14"/>
</g>
<!-- Node8 -->
<g id="node8" class="node">
<title>Node8</title>
<g id="a_node8"><a xlink:title=" ">
<polygon fill="white" stroke="#bfbfbf" points="847,-0.5 847,-19.5 891,-19.5 891,-0.5 847,-0.5"/>
<text text-anchor="middle" x="869" y="-7.5" font-family="Helvetica,sans-Serif" font-size="10.00">string</text>
</a>
</g>
</g>
<!-- Node1&#45;&gt;Node8 -->
<g id="edge7" class="edge">
<title>Node1&#45;&gt;Node8</title>
<path fill="none" stroke="midnightblue" d="M1306.95,-119.2C1222.56,-114.7 1018.5,-101.45 955,-76 927.19,-64.85 900.53,-42.23 884.46,-26.84"/>
<polygon fill="midnightblue" stroke="midnightblue" points="886.64,-24.08 877.07,-19.55 881.73,-29.07 886.64,-24.08"/>
</g>
<!-- Node9 -->
<g id="node9" class="node">
<title>Node9</title>
<g id="a_node9"><a xlink:title=" ">
<polygon fill="white" stroke="#bfbfbf" points="1605,-56.5 1605,-75.5 1649,-75.5 1649,-56.5 1605,-56.5"/>
<text text-anchor="middle" x="1627" y="-63.5" font-family="Helvetica,sans-Serif" font-size="10.00">SDL.h</text>
</a>
</g>
</g>
<!-- Node1&#45;&gt;Node9 -->
<g id="edge8" class="edge">
<title>Node1&#45;&gt;Node9</title>
<path fill="none" stroke="midnightblue" d="M1381.4,-115.59C1428.9,-108.44 1513.54,-94.77 1594.83,-76.08"/>
<polygon fill="midnightblue" stroke="midnightblue" points="1595.78,-79.45 1604.72,-73.77 1594.19,-72.63 1595.78,-79.45"/>
</g>
<!-- Node10 -->
<g id="node10" class="node">
<title>Node10</title>
<g id="a_node10"><a xlink:title=" ">
<polygon fill="white" stroke="#bfbfbf" points="0,-0.5 0,-19.5 48,-19.5 48,-0.5 0,-0.5"/>
<text text-anchor="middle" x="24" y="-7.5" font-family="Helvetica,sans-Serif" font-size="10.00">mutex</text>
</a>
</g>
</g>
<!-- Node1&#45;&gt;Node10 -->
<g id="edge9" class="edge">
<title>Node1&#45;&gt;Node10</title>
<path fill="none" stroke="midnightblue" d="M1306.74,-120.75C1138.79,-119.41 451.16,-111.8 239,-76 171.86,-64.67 96.29,-38.56 55.02,-23.1"/>
<polygon fill="midnightblue" stroke="midnightblue" points="56.13,-19.78 45.54,-19.51 53.65,-26.32 56.13,-19.78"/>
</g>
<!-- Node11 -->
<g id="node11" class="node">
<title>Node11</title>
<g id="a_node11"><a xlink:title=" ">
<polygon fill="white" stroke="#bfbfbf" points="1667,-56.5 1667,-75.5 1713,-75.5 1713,-56.5 1667,-56.5"/>
<text text-anchor="middle" x="1690" y="-63.5" font-family="Helvetica,sans-Serif" font-size="10.00">future</text>
</a>
</g>
</g>
<!-- Node1&#45;&gt;Node11 -->
<g id="edge10" class="edge">
<title>Node1&#45;&gt;Node11</title>
<path fill="none" stroke="midnightblue" d="M1381.02,-117.3C1438.23,-111.22 1551.72,-97.8 1656.85,-76.01"/>
<polygon fill="midnightblue" stroke="midnightblue" points="1657.6,-79.43 1666.67,-73.95 1656.16,-72.58 1657.6,-79.43"/>
</g>
<!-- Node12 -->
<g id="node12" class="node">
<title>Node12</title>
<g id="a_node12"><a xlink:title=" ">
<polygon fill="white" stroke="#bfbfbf" points="340,-0.5 340,-19.5 388,-19.5 388,-0.5 340,-0.5"/>
<text text-anchor="middle" x="364" y="-7.5" font-family="Helvetica,sans-Serif" font-size="10.00">thread</text>
</a>
</g>
</g>
<!-- Node1&#45;&gt;Node12 -->
<g id="edge11" class="edge">
<title>Node1&#45;&gt;Node12</title>
<path fill="none" stroke="midnightblue" d="M1306.97,-120.5C1168.59,-118.38 682.11,-108.72 531,-76 479.19,-64.78 422.38,-39.71 390.16,-24.19"/>
<polygon fill="midnightblue" stroke="midnightblue" points="391.51,-20.95 380.99,-19.7 388.44,-27.24 391.51,-20.95"/>
</g>
<!-- Node13 -->
<g id="node13" class="node">
<title>Node13</title>
<g id="a_node13"><a xlink:title=" ">
<polygon fill="white" stroke="#bfbfbf" points="1731,-56.5 1731,-75.5 1781,-75.5 1781,-56.5 1731,-56.5"/>
<text text-anchor="middle" x="1756" y="-63.5" font-family="Helvetica,sans-Serif" font-size="10.00">fftw3.h</text>
</a>
</g>
</g>
<!-- Node1&#45;&gt;Node13 -->
<g id="edge12" class="edge">
<title>Node1&#45;&gt;Node13</title>
<path fill="none" stroke="midnightblue" d="M1381.02,-118.33C1447.29,-113.17 1590.65,-100.31 1720.7,-76"/>
<polygon fill="midnightblue" stroke="midnightblue" points="1721.67,-79.38 1730.84,-74.08 1720.36,-72.51 1721.67,-79.38"/>
</g>
<!-- Node14 -->
<g id="node14" class="node">
<title>Node14</title>
<g id="a_node14"><a xlink:title=" ">
<polygon fill="white" stroke="#bfbfbf" points="1330,-0.5 1330,-19.5 1380,-19.5 1380,-0.5 1330,-0.5"/>
<text text-anchor="middle" x="1355" y="-7.5" font-family="Helvetica,sans-Serif" font-size="10.00">chrono</text>
</a>
</g>
</g>
<!-- Node1&#45;&gt;Node14 -->
<g id="edge13" class="edge">
<title>Node1&#45;&gt;Node14</title>
<path fill="none" stroke="midnightblue" d="M1334.31,-112.38C1321.77,-100.14 1302.5,-76.86 1311,-56 1315.8,-44.23 1325.33,-33.86 1334.29,-26.05"/>
<polygon fill="midnightblue" stroke="midnightblue" points="1336.65,-28.64 1342.22,-19.63 1332.25,-23.2 1336.65,-28.64"/>
</g>
<!-- Node15 -->
<g id="node15" class="node">
<title>Node15</title>
<g id="a_node15"><a xlink:title=" ">
<polygon fill="white" stroke="#bfbfbf" points="1799,-56.5 1799,-75.5 1863,-75.5 1863,-56.5 1799,-56.5"/>
<text text-anchor="middle" x="1831" y="-63.5" font-family="Helvetica,sans-Serif" font-size="10.00">algorithm</text>
</a>
</g>
</g>
<!-- Node1&#45;&gt;Node15 -->
<g id="edge14" class="edge">
<title>Node1&#45;&gt;Node15</title>
<path fill="none" stroke="midnightblue" d="M1381.19,-118.71C1456.31,-113.76 1631.63,-100.63 1788.53,-76.06"/>
<polygon fill="midnightblue" stroke="midnightblue" points="1789.51,-79.45 1798.84,-74.43 1788.41,-72.54 1789.51,-79.45"/>
</g>
<!-- Node16 -->
<g id="node16" class="node">
<title>Node16</title>
<g id="a_node16"><a xlink:title=" ">
<polygon fill="white" stroke="#bfbfbf" points="1881,-56.5 1881,-75.5 1925,-75.5 1925,-56.5 1881,-56.5"/>
<text text-anchor="middle" x="1903" y="-63.5" font-family="Helvetica,sans-Serif" font-size="10.00">ctime</text>
</a>
</g>
</g>
<!-- Node1&#45;&gt;Node16 -->
<g id="edge15" class="edge">
<title>Node1&#45;&gt;Node16</title>
<path fill="none" stroke="midnightblue" d="M1381.14,-120.35C1466.31,-118.32 1682.2,-110.13 1870.69,-75.89"/>
<polygon fill="midnightblue" stroke="midnightblue" points="1871.58,-79.28 1880.78,-74.02 1870.31,-72.4 1871.58,-79.28"/>
</g>
<!-- Node17 -->
<g id="node17" class="node">
<title>Node17</title>
<g id="a_node17"><a xlink:href="../../d7/d50/BoundedThreadPool_8hpp.html" target="_top" xlink:title=" ">
<polygon fill="white" stroke="black" points="248.5,-56.5 248.5,-75.5 383.5,-75.5 383.5,-56.5 248.5,-56.5"/>
<text text-anchor="middle" x="316" y="-63.5" font-family="Helvetica,sans-Serif" font-size="10.00">BoundedThreadPool.hpp</text>
</a>
</g>
</g>
<!-- Node1&#45;&gt;Node17 -->
<g id="edge16" class="edge">
<title>Node1&#45;&gt;Node17</title>
<path fill="none" stroke="midnightblue" d="M1306.81,-119.2C1185.81,-113.33 792.38,-94.04 467,-76 443.24,-74.68 417.39,-73.17 393.9,-71.77"/>
<polygon fill="midnightblue" stroke="midnightblue" points="393.84,-68.26 383.64,-71.15 393.42,-75.24 393.84,-68.26"/>
</g>
<!-- Node23 -->
<g id="node23" class="node">
<title>Node23</title>
<g id="a_node23"><a xlink:title=" ">
<polygon fill="white" stroke="#bfbfbf" points="1476,-0.5 1476,-19.5 1578,-19.5 1578,-0.5 1476,-0.5"/>
<text text-anchor="middle" x="1527" y="-7.5" font-family="Helvetica,sans-Serif" font-size="10.00">tinycolormap.hpp</text>
</a>
</g>
</g>
<!-- Node1&#45;&gt;Node23 -->
<g id="edge24" class="edge">
<title>Node1&#45;&gt;Node23</title>
<path fill="none" stroke="midnightblue" d="M1346.84,-112.47C1351.89,-98.59 1363.76,-71.14 1383,-56 1398.19,-44.05 1443.75,-30.91 1479.6,-21.94"/>
<polygon fill="midnightblue" stroke="midnightblue" points="1480.54,-25.31 1489.42,-19.52 1478.87,-18.51 1480.54,-25.31"/>
</g>
<!-- Node24 -->
<g id="node24" class="node">
<title>Node24</title>
<g id="a_node24"><a xlink:title=" ">
<polygon fill="white" stroke="#bfbfbf" points="1943,-56.5 1943,-75.5 2003,-75.5 2003,-56.5 1943,-56.5"/>
<text text-anchor="middle" x="1973" y="-63.5" font-family="Helvetica,sans-Serif" font-size="10.00">fft2d.hpp</text>
</a>
</g>
</g>
<!-- Node1&#45;&gt;Node24 -->
<g id="edge25" class="edge">
<title>Node1&#45;&gt;Node24</title>
<path fill="none" stroke="midnightblue" d="M1381.15,-120.11C1473.11,-117.49 1718.74,-107.96 1932.69,-75.97"/>
<polygon fill="midnightblue" stroke="midnightblue" points="1933.49,-79.39 1942.85,-74.43 1932.44,-72.47 1933.49,-79.39"/>
</g>
<!-- Node25 -->
<g id="node25" class="node">
<title>Node25</title>
<g id="a_node25"><a xlink:href="../../d0/d3c/SocketConnector_8h.html" target="_top" xlink:title=" ">
<polygon fill="white" stroke="black" points="609.5,-56.5 609.5,-75.5 716.5,-75.5 716.5,-56.5 609.5,-56.5"/>
<text text-anchor="middle" x="663" y="-63.5" font-family="Helvetica,sans-Serif" font-size="10.00">SocketConnector.h</text>
</a>
</g>
</g>
<!-- Node1&#45;&gt;Node25 -->
<g id="edge26" class="edge">
<title>Node1&#45;&gt;Node25</title>
<path fill="none" stroke="midnightblue" d="M1306.9,-118.06C1196.15,-109.28 866.95,-83.17 727.05,-72.08"/>
<polygon fill="midnightblue" stroke="midnightblue" points="727.15,-68.58 716.91,-71.27 726.6,-75.55 727.15,-68.58"/>
</g>
<!-- Node29 -->
<g id="node29" class="node">
<title>Node29</title>
<g id="a_node29"><a xlink:href="../../da/dce/ProgressMonitor_8h.html" target="_top" xlink:title=" ">
<polygon fill="white" stroke="black" points="1110,-56.5 1110,-75.5 1214,-75.5 1214,-56.5 1110,-56.5"/>
<text text-anchor="middle" x="1162" y="-63.5" font-family="Helvetica,sans-Serif" font-size="10.00">ProgressMonitor.h</text>
</a>
</g>
</g>
<!-- Node1&#45;&gt;Node29 -->
<g id="edge33" class="edge">
<title>Node1&#45;&gt;Node29</title>
<path fill="none" stroke="midnightblue" d="M1315.16,-112.44C1284.14,-103.24 1234.67,-88.56 1200.38,-78.39"/>
<polygon fill="midnightblue" stroke="midnightblue" points="1201.29,-75.01 1190.7,-75.52 1199.29,-81.72 1201.29,-75.01"/>
</g>
<!-- Node32 -->
<g id="node32" class="node">
<title>Node32</title>
<g id="a_node32"><a xlink:title=" ">
<polygon fill="white" stroke="#bfbfbf" points="2021,-56.5 2021,-75.5 2121,-75.5 2121,-56.5 2021,-56.5"/>
<text text-anchor="middle" x="2071" y="-63.5" font-family="Helvetica,sans-Serif" font-size="10.00">MerlinInterface.h</text>
</a>
</g>
</g>
<!-- Node1&#45;&gt;Node32 -->
<g id="edge41" class="edge">
<title>Node1&#45;&gt;Node32</title>
<path fill="none" stroke="midnightblue" d="M1381.03,-119.6C1480.91,-115.59 1764.36,-102.67 2010.61,-76.06"/>
<polygon fill="midnightblue" stroke="midnightblue" points="2011.26,-79.51 2020.83,-74.95 2010.51,-72.55 2011.26,-79.51"/>
</g>
<!-- Node33 -->
<g id="node33" class="node">
<title>Node33</title>
<g id="a_node33"><a xlink:title=" ">
<polygon fill="white" stroke="#bfbfbf" points="2139.5,-56.5 2139.5,-75.5 2248.5,-75.5 2248.5,-56.5 2139.5,-56.5"/>
<text text-anchor="middle" x="2194" y="-63.5" font-family="Helvetica,sans-Serif" font-size="10.00">TimepixInterface.h</text>
</a>
</g>
</g>
<!-- Node1&#45;&gt;Node33 -->
<g id="edge42" class="edge">
<title>Node1&#45;&gt;Node33</title>
<path fill="none" stroke="midnightblue" d="M1381.32,-119.96C1493.05,-116.6 1834.86,-104.65 2129.21,-75.99"/>
<polygon fill="midnightblue" stroke="midnightblue" points="2129.61,-79.47 2139.22,-75.01 2128.93,-72.5 2129.61,-79.47"/>
</g>
<!-- Node34 -->
<g id="node34" class="node">
<title>Node34</title>
<g id="a_node34"><a xlink:href="../../dd/de4/Camera_8h.html" target="_top" xlink:title=" ">
<polygon fill="white" stroke="black" points="964,-56.5 964,-75.5 1028,-75.5 1028,-56.5 964,-56.5"/>
<text text-anchor="middle" x="996" y="-63.5" font-family="Helvetica,sans-Serif" font-size="10.00">Camera.h</text>
</a>
</g>
</g>
<!-- Node1&#45;&gt;Node34 -->
<g id="edge43" class="edge">
<title>Node1&#45;&gt;Node34</title>
<path fill="none" stroke="midnightblue" d="M1306.76,-115.22C1241.55,-105.1 1107.11,-84.24 1038.42,-73.58"/>
<polygon fill="midnightblue" stroke="midnightblue" points="1038.8,-70.1 1028.38,-72.02 1037.72,-77.02 1038.8,-70.1"/>
</g>
<!-- Node37 -->
<g id="node37" class="node">
<title>Node37</title>
<g id="a_node37"><a xlink:href="../../d7/db2/GuiUtils_8h.html" target="_top" xlink:title=" ">
<polygon fill="white" stroke="black" points="1391.5,-56.5 1391.5,-75.5 1456.5,-75.5 1456.5,-56.5 1391.5,-56.5"/>
<text text-anchor="middle" x="1424" y="-63.5" font-family="Helvetica,sans-Serif" font-size="10.00">GuiUtils.h</text>
</a>
</g>
</g>
<!-- Node1&#45;&gt;Node37 -->
<g id="edge48" class="edge">
<title>Node1&#45;&gt;Node37</title>
<path fill="none" stroke="midnightblue" d="M1356.85,-112.32C1369.22,-103.98 1388.13,-91.21 1402.74,-81.35"/>
<polygon fill="midnightblue" stroke="midnightblue" points="1404.85,-84.15 1411.18,-75.65 1400.93,-78.35 1404.85,-84.15"/>
</g>
<!-- Node17&#45;&gt;Node10 -->
<g id="edge20" class="edge">
<title>Node17&#45;&gt;Node10</title>
<path fill="none" stroke="midnightblue" d="M257.83,-56.5C207.4,-48.76 132.29,-36.38 58.07,-20.07"/>
<polygon fill="midnightblue" stroke="midnightblue" points="58.61,-16.6 48.09,-17.85 57.09,-23.44 58.61,-16.6"/>
</g>
<!-- Node17&#45;&gt;Node12 -->
<g id="edge17" class="edge">
<title>Node17&#45;&gt;Node12</title>
<path fill="none" stroke="midnightblue" d="M323.93,-56.08C330.85,-48.3 341.07,-36.8 349.45,-27.37"/>
<polygon fill="midnightblue" stroke="midnightblue" points="352.19,-29.55 356.22,-19.75 346.96,-24.9 352.19,-29.55"/>
</g>
<!-- Node18 -->
<g id="node18" class="node">
<title>Node18</title>
<g id="a_node18"><a xlink:title=" ">
<polygon fill="white" stroke="#bfbfbf" points="66.5,-0.5 66.5,-19.5 113.5,-19.5 113.5,-0.5 66.5,-0.5"/>
<text text-anchor="middle" x="90" y="-7.5" font-family="Helvetica,sans-Serif" font-size="10.00">queue</text>
</a>
</g>
</g>
<!-- Node17&#45;&gt;Node18 -->
<g id="edge18" class="edge">
<title>Node17&#45;&gt;Node18</title>
<path fill="none" stroke="midnightblue" d="M276.85,-56.48C239.65,-48.25 181.91,-35.17 123.49,-20.31"/>
<polygon fill="midnightblue" stroke="midnightblue" points="124.29,-16.9 113.73,-17.81 122.55,-23.68 124.29,-16.9"/>
</g>
<!-- Node19 -->
<g id="node19" class="node">
<title>Node19</title>
<g id="a_node19"><a xlink:title=" ">
<polygon fill="white" stroke="#bfbfbf" points="131.5,-0.5 131.5,-19.5 196.5,-19.5 196.5,-0.5 131.5,-0.5"/>
<text text-anchor="middle" x="164" y="-7.5" font-family="Helvetica,sans-Serif" font-size="10.00">functional</text>
</a>
</g>
</g>
<!-- Node17&#45;&gt;Node19 -->
<g id="edge19" class="edge">
<title>Node17&#45;&gt;Node19</title>
<path fill="none" stroke="midnightblue" d="M291.92,-56.44C266.46,-47.4 226.11,-33.06 197.54,-22.92"/>
<polygon fill="midnightblue" stroke="midnightblue" points="198.57,-19.57 187.97,-19.52 196.22,-26.16 198.57,-19.57"/>
</g>
<!-- Node20 -->
<g id="node20" class="node">
<title>Node20</title>
<g id="a_node20"><a xlink:title=" ">
<polygon fill="white" stroke="#bfbfbf" points="214.5,-0.5 214.5,-19.5 321.5,-19.5 321.5,-0.5 214.5,-0.5"/>
<text text-anchor="middle" x="268" y="-7.5" font-family="Helvetica,sans-Serif" font-size="10.00">condition_variable</text>
</a>
</g>
</g>
<!-- Node17&#45;&gt;Node20 -->
<g id="edge21" class="edge">
<title>Node17&#45;&gt;Node20</title>
<path fill="none" stroke="midnightblue" d="M308.07,-56.08C301.15,-48.3 290.93,-36.8 282.55,-27.37"/>
<polygon fill="midnightblue" stroke="midnightblue" points="285.04,-24.9 275.78,-19.75 279.81,-29.55 285.04,-24.9"/>
</g>
<!-- Node21 -->
<g id="node21" class="node">
<title>Node21</title>
<g id="a_node21"><a xlink:title=" ">
<polygon fill="white" stroke="#bfbfbf" points="711,-0.5 711,-19.5 761,-19.5 761,-0.5 711,-0.5"/>
<text text-anchor="middle" x="736" y="-7.5" font-family="Helvetica,sans-Serif" font-size="10.00">atomic</text>
</a>
</g>
</g>
<!-- Node17&#45;&gt;Node21 -->
<g id="edge22" class="edge">
<title>Node17&#45;&gt;Node21</title>
<path fill="none" stroke="midnightblue" d="M383.73,-60.05C458.97,-53.89 584.13,-41.68 700.67,-20.01"/>
<polygon fill="midnightblue" stroke="midnightblue" points="701.66,-23.38 710.84,-18.09 700.36,-16.5 701.66,-23.38"/>
</g>
<!-- Node22 -->
<g id="node22" class="node">
<title>Node22</title>
<g id="a_node22"><a xlink:title=" ">
<polygon fill="white" stroke="#bfbfbf" points="633,-0.5 633,-19.5 693,-19.5 693,-0.5 633,-0.5"/>
<text text-anchor="middle" x="663" y="-7.5" font-family="Helvetica,sans-Serif" font-size="10.00">iostream</text>
</a>
</g>
</g>
<!-- Node17&#45;&gt;Node22 -->
<g id="edge23" class="edge">
<title>Node17&#45;&gt;Node22</title>
<path fill="none" stroke="midnightblue" d="M383.62,-56.59C445.99,-48.47 541.04,-35.21 623,-20 623.1,-19.98 623.2,-19.96 623.3,-19.94"/>
<polygon fill="midnightblue" stroke="midnightblue" points="623.79,-23.42 632.91,-18.03 622.42,-16.55 623.79,-23.42"/>
</g>
<!-- Node25&#45;&gt;Node2 -->
<g id="edge28" class="edge">
<title>Node25&#45;&gt;Node2</title>
<path fill="none" stroke="midnightblue" d="M626.17,-56.46C589.54,-47.95 531.48,-34.41 472.19,-20.27"/>
<polygon fill="midnightblue" stroke="midnightblue" points="472.82,-16.82 462.28,-17.9 471.19,-23.63 472.82,-16.82"/>
</g>
<!-- Node25&#45;&gt;Node8 -->
<g id="edge31" class="edge">
<title>Node25&#45;&gt;Node8</title>
<path fill="none" stroke="midnightblue" d="M697.62,-56.43C730.98,-48.1 783.11,-34.89 836.96,-20.23"/>
<polygon fill="midnightblue" stroke="midnightblue" points="837.95,-23.59 846.67,-17.57 836.1,-16.83 837.95,-23.59"/>
</g>
<!-- Node25&#45;&gt;Node22 -->
<g id="edge32" class="edge">
<title>Node25&#45;&gt;Node22</title>
<path fill="none" stroke="midnightblue" d="M663,-56.08C663,-49.01 663,-38.86 663,-29.99"/>
<polygon fill="midnightblue" stroke="midnightblue" points="666.5,-29.75 663,-19.75 659.5,-29.75 666.5,-29.75"/>
</g>
<!-- Node26 -->
<g id="node26" class="node">
<title>Node26</title>
<g id="a_node26"><a xlink:title=" ">
<polygon fill="white" stroke="#bfbfbf" points="480.5,-0.5 480.5,-19.5 549.5,-19.5 549.5,-0.5 480.5,-0.5"/>
<text text-anchor="middle" x="515" y="-7.5" font-family="Helvetica,sans-Serif" font-size="10.00">arpa/inet.h</text>
</a>
</g>
</g>
<!-- Node25&#45;&gt;Node26 -->
<g id="edge27" class="edge">
<title>Node25&#45;&gt;Node26</title>
<path fill="none" stroke="midnightblue" d="M639.55,-56.44C614.87,-47.44 575.81,-33.19 548.02,-23.05"/>
<polygon fill="midnightblue" stroke="midnightblue" points="548.94,-19.66 538.34,-19.52 546.54,-26.23 548.94,-19.66"/>
</g>
<!-- Node27 -->
<g id="node27" class="node">
<title>Node27</title>
<g id="a_node27"><a xlink:title=" ">
<polygon fill="white" stroke="#bfbfbf" points="567.5,-0.5 567.5,-19.5 614.5,-19.5 614.5,-0.5 567.5,-0.5"/>
<text text-anchor="middle" x="591" y="-7.5" font-family="Helvetica,sans-Serif" font-size="10.00">cerrno</text>
</a>
</g>
</g>
<!-- Node25&#45;&gt;Node27 -->
<g id="edge29" class="edge">
<title>Node25&#45;&gt;Node27</title>
<path fill="none" stroke="midnightblue" d="M651.43,-56.32C640.58,-48.18 624.12,-35.84 611.12,-26.09"/>
<polygon fill="midnightblue" stroke="midnightblue" points="612.88,-23.03 602.78,-19.83 608.68,-28.63 612.88,-23.03"/>
</g>
<!-- Node28 -->
<g id="node28" class="node">
<title>Node28</title>
<g id="a_node28"><a xlink:title=" ">
<polygon fill="white" stroke="#bfbfbf" points="779,-0.5 779,-19.5 829,-19.5 829,-0.5 779,-0.5"/>
<text text-anchor="middle" x="804" y="-7.5" font-family="Helvetica,sans-Serif" font-size="10.00">cstring</text>
</a>
</g>
</g>
<!-- Node25&#45;&gt;Node28 -->
<g id="edge30" class="edge">
<title>Node25&#45;&gt;Node28</title>
<path fill="none" stroke="midnightblue" d="M685.34,-56.44C708.75,-47.48 745.74,-33.31 772.19,-23.18"/>
<polygon fill="midnightblue" stroke="midnightblue" points="773.68,-26.36 781.76,-19.52 771.17,-19.82 773.68,-26.36"/>
</g>
<!-- Node29&#45;&gt;Node3 -->
<g id="edge40" class="edge">
<title>Node29&#45;&gt;Node3</title>
<path fill="none" stroke="midnightblue" d="M1181.97,-56.44C1202.61,-47.6 1235.06,-33.69 1258.63,-23.59"/>
<polygon fill="midnightblue" stroke="midnightblue" points="1260.32,-26.67 1268.13,-19.52 1257.56,-20.24 1260.32,-26.67"/>
</g>
<!-- Node29&#45;&gt;Node14 -->
<g id="edge39" class="edge">
<title>Node29&#45;&gt;Node14</title>
<path fill="none" stroke="midnightblue" d="M1192.58,-56.44C1227.27,-46.74 1283.71,-30.95 1320.1,-20.77"/>
<polygon fill="midnightblue" stroke="midnightblue" points="1321.1,-24.12 1329.79,-18.05 1319.22,-17.38 1321.1,-24.12"/>
</g>
<!-- Node29&#45;&gt;Node21 -->
<g id="edge38" class="edge">
<title>Node29&#45;&gt;Node21</title>
<path fill="none" stroke="midnightblue" d="M1109.96,-61.43C1036.45,-55.86 897.92,-43.42 771.05,-19.95"/>
<polygon fill="midnightblue" stroke="midnightblue" points="771.63,-16.5 761.16,-18.09 770.34,-23.38 771.63,-16.5"/>
</g>
<!-- Node29&#45;&gt;Node22 -->
<g id="edge35" class="edge">
<title>Node29&#45;&gt;Node22</title>
<path fill="none" stroke="midnightblue" d="M1109.64,-60.74C1010.01,-52.49 795.55,-34.04 703.04,-19.93"/>
<polygon fill="midnightblue" stroke="midnightblue" points="703.58,-16.48 693.16,-18.36 702.48,-23.39 703.58,-16.48"/>
</g>
<!-- Node29&#45;&gt;Node28 -->
<g id="edge37" class="edge">
<title>Node29&#45;&gt;Node28</title>
<path fill="none" stroke="midnightblue" d="M1109.77,-59.71C1047.53,-52.97 940.26,-39.98 839.24,-20.04"/>
<polygon fill="midnightblue" stroke="midnightblue" points="839.66,-16.56 829.17,-18.03 838.29,-23.42 839.66,-16.56"/>
</g>
<!-- Node30 -->
<g id="node30" class="node">
<title>Node30</title>
<g id="a_node30"><a xlink:title=" ">
<polygon fill="white" stroke="#bfbfbf" points="1106,-0.5 1106,-19.5 1172,-19.5 1172,-0.5 1106,-0.5"/>
<text text-anchor="middle" x="1139" y="-7.5" font-family="Helvetica,sans-Serif" font-size="10.00">sys/ioctl.h</text>
</a>
</g>
</g>
<!-- Node29&#45;&gt;Node30 -->
<g id="edge34" class="edge">
<title>Node29&#45;&gt;Node30</title>
<path fill="none" stroke="midnightblue" d="M1158.2,-56.08C1155.09,-48.77 1150.58,-38.18 1146.71,-29.1"/>
<polygon fill="midnightblue" stroke="midnightblue" points="1149.87,-27.58 1142.73,-19.75 1143.43,-30.32 1149.87,-27.58"/>
</g>
<!-- Node31 -->
<g id="node31" class="node">
<title>Node31</title>
<g id="a_node31"><a xlink:title=" ">
<polygon fill="white" stroke="#bfbfbf" points="1190,-0.5 1190,-19.5 1246,-19.5 1246,-0.5 1190,-0.5"/>
<text text-anchor="middle" x="1218" y="-7.5" font-family="Helvetica,sans-Serif" font-size="10.00">iomanip</text>
</a>
</g>
</g>
<!-- Node29&#45;&gt;Node31 -->
<g id="edge36" class="edge">
<title>Node29&#45;&gt;Node31</title>
<path fill="none" stroke="midnightblue" d="M1171,-56.32C1179.19,-48.42 1191.51,-36.55 1201.47,-26.94"/>
<polygon fill="midnightblue" stroke="midnightblue" points="1204.07,-29.29 1208.84,-19.83 1199.21,-24.26 1204.07,-29.29"/>
</g>
<!-- Node34&#45;&gt;Node7 -->
<g id="edge44" class="edge">
<title>Node34&#45;&gt;Node7</title>
<path fill="none" stroke="midnightblue" d="M1006.93,-56.32C1017.17,-48.18 1032.72,-35.84 1045,-26.09"/>
<polygon fill="midnightblue" stroke="midnightblue" points="1047.22,-28.79 1052.88,-19.83 1042.87,-23.31 1047.22,-28.79"/>
</g>
<!-- Node34&#45;&gt;Node21 -->
<g id="edge45" class="edge">
<title>Node34&#45;&gt;Node21</title>
<path fill="none" stroke="midnightblue" d="M963.68,-59.22C921.58,-51.55 845.5,-37.19 771.2,-20.17"/>
<polygon fill="midnightblue" stroke="midnightblue" points="771.74,-16.7 761.21,-17.86 770.16,-23.52 771.74,-16.7"/>
</g>
<!-- Node35 -->
<g id="node35" class="node">
<title>Node35</title>
<g id="a_node35"><a xlink:title=" ">
<polygon fill="white" stroke="#bfbfbf" points="909,-0.5 909,-19.5 951,-19.5 951,-0.5 909,-0.5"/>
<text text-anchor="middle" x="930" y="-7.5" font-family="Helvetica,sans-Serif" font-size="10.00">array</text>
</a>
</g>
</g>
<!-- Node34&#45;&gt;Node35 -->
<g id="edge46" class="edge">
<title>Node34&#45;&gt;Node35</title>
<path fill="none" stroke="midnightblue" d="M985.4,-56.32C975.54,-48.26 960.65,-36.08 948.78,-26.37"/>
<polygon fill="midnightblue" stroke="midnightblue" points="950.75,-23.46 940.8,-19.83 946.32,-28.88 950.75,-23.46"/>
</g>
<!-- Node36 -->
<g id="node36" class="node">
<title>Node36</title>
<g id="a_node36"><a xlink:title=" ">
<polygon fill="white" stroke="#bfbfbf" points="969.5,-0.5 969.5,-19.5 1022.5,-19.5 1022.5,-0.5 969.5,-0.5"/>
<text text-anchor="middle" x="996" y="-7.5" font-family="Helvetica,sans-Serif" font-size="10.00">stdlib.h</text>
</a>
</g>
</g>
<!-- Node34&#45;&gt;Node36 -->
<g id="edge47" class="edge">
<title>Node34&#45;&gt;Node36</title>
<path fill="none" stroke="midnightblue" d="M996,-56.08C996,-49.01 996,-38.86 996,-29.99"/>
<polygon fill="midnightblue" stroke="midnightblue" points="999.5,-29.75 996,-19.75 992.5,-29.75 999.5,-29.75"/>
</g>
<!-- Node37&#45;&gt;Node5 -->
<g id="edge51" class="edge">
<title>Node37&#45;&gt;Node5</title>
<path fill="none" stroke="midnightblue" d="M1424.66,-56.08C1425.18,-49.01 1425.94,-38.86 1426.59,-29.99"/>
<polygon fill="midnightblue" stroke="midnightblue" points="1430.1,-29.98 1427.35,-19.75 1423.12,-29.47 1430.1,-29.98"/>
</g>
<!-- Node37&#45;&gt;Node7 -->
<g id="edge50" class="edge">
<title>Node37&#45;&gt;Node7</title>
<path fill="none" stroke="midnightblue" d="M1391.27,-61.91C1333.81,-56.19 1210.9,-42.59 1097.59,-19.87"/>
<polygon fill="midnightblue" stroke="midnightblue" points="1098.2,-16.42 1087.7,-17.86 1096.81,-23.28 1098.2,-16.42"/>
</g>
<!-- Node37&#45;&gt;Node8 -->
<g id="edge49" class="edge">
<title>Node37&#45;&gt;Node8</title>
<path fill="none" stroke="midnightblue" d="M1391.32,-63.04C1295.07,-57.14 1012.95,-38.87 901.18,-19.81"/>
<polygon fill="midnightblue" stroke="midnightblue" points="901.69,-16.34 891.22,-18.02 900.45,-23.23 901.69,-16.34"/>
</g>
<!-- Node37&#45;&gt;Node23 -->
<g id="edge57" class="edge">
<title>Node37&#45;&gt;Node23</title>
<path fill="none" stroke="midnightblue" d="M1440.55,-56.32C1456.99,-47.7 1482.43,-34.36 1501.47,-24.39"/>
<polygon fill="midnightblue" stroke="midnightblue" points="1503.26,-27.4 1510.49,-19.65 1500.01,-21.2 1503.26,-27.4"/>
</g>
<!-- Node38 -->
<g id="node38" class="node">
<title>Node38</title>
<g id="a_node38"><a xlink:title=" ">
<polygon fill="white" stroke="#bfbfbf" points="1964,-0.5 1964,-19.5 2032,-19.5 2032,-0.5 1964,-0.5"/>
<text text-anchor="middle" x="1998" y="-7.5" font-family="Helvetica,sans-Serif" font-size="10.00">filesystem</text>
</a>
</g>
</g>
<!-- Node37&#45;&gt;Node38 -->
<g id="edge52" class="edge">
<title>Node37&#45;&gt;Node38</title>
<path fill="none" stroke="midnightblue" d="M1456.94,-57.49C1459.99,-56.93 1463.05,-56.42 1466,-56 1678.45,-25.56 1737.43,-49.64 1953.72,-19.99"/>
<polygon fill="midnightblue" stroke="midnightblue" points="1954.38,-23.43 1963.8,-18.58 1953.42,-16.5 1954.38,-23.43"/>
</g>
<!-- Node39 -->
<g id="node39" class="node">
<title>Node39</title>
<g id="a_node39"><a xlink:title=" ">
<polygon fill="white" stroke="#bfbfbf" points="1596,-0.5 1596,-19.5 1676,-19.5 1676,-0.5 1596,-0.5"/>
<text text-anchor="middle" x="1636" y="-7.5" font-family="Helvetica,sans-Serif" font-size="10.00">SDL_image.h</text>
</a>
</g>
</g>
<!-- Node37&#45;&gt;Node39 -->
<g id="edge53" class="edge">
<title>Node37&#45;&gt;Node39</title>
<path fill="none" stroke="midnightblue" d="M1456.66,-56.68C1493.17,-47.38 1552.46,-32.28 1592.78,-22.01"/>
<polygon fill="midnightblue" stroke="midnightblue" points="1593.78,-25.37 1602.6,-19.51 1592.05,-18.58 1593.78,-25.37"/>
</g>
<!-- Node40 -->
<g id="node40" class="node">
<title>Node40</title>
<g id="a_node40"><a xlink:title=" ">
<polygon fill="white" stroke="#bfbfbf" points="1694.5,-0.5 1694.5,-19.5 1747.5,-19.5 1747.5,-0.5 1694.5,-0.5"/>
<text text-anchor="middle" x="1721" y="-7.5" font-family="Helvetica,sans-Serif" font-size="10.00">imgui.h</text>
</a>
</g>
</g>
<!-- Node37&#45;&gt;Node40 -->
<g id="edge54" class="edge">
<title>Node37&#45;&gt;Node40</title>
<path fill="none" stroke="midnightblue" d="M1456.53,-57.87C1459.72,-57.22 1462.92,-56.58 1466,-56 1559.8,-38.25 1586.69,-39.85 1684.33,-19.99"/>
<polygon fill="midnightblue" stroke="midnightblue" points="1685.23,-23.37 1694.32,-17.93 1683.82,-16.52 1685.23,-23.37"/>
</g>
<!-- Node41 -->
<g id="node41" class="node">
<title>Node41</title>
<g id="a_node41"><a xlink:title=" ">
<polygon fill="white" stroke="#bfbfbf" points="1766,-0.5 1766,-19.5 1862,-19.5 1862,-0.5 1766,-0.5"/>
<text text-anchor="middle" x="1814" y="-7.5" font-family="Helvetica,sans-Serif" font-size="10.00">imgui_internal.h</text>
</a>
</g>
</g>
<!-- Node37&#45;&gt;Node41 -->
<g id="edge55" class="edge">
<title>Node37&#45;&gt;Node41</title>
<path fill="none" stroke="midnightblue" d="M1456.51,-57.74C1459.71,-57.11 1462.91,-56.52 1466,-56 1591.37,-34.86 1626.26,-37.99 1755.9,-20.11"/>
<polygon fill="midnightblue" stroke="midnightblue" points="1756.39,-23.57 1765.81,-18.72 1755.43,-16.64 1756.39,-23.57"/>
</g>
<!-- Node42 -->
<g id="node42" class="node">
<title>Node42</title>
<g id="a_node42"><a xlink:title=" ">
<polygon fill="white" stroke="#bfbfbf" points="1880,-0.5 1880,-19.5 1946,-19.5 1946,-0.5 1880,-0.5"/>
<text text-anchor="middle" x="1913" y="-7.5" font-family="Helvetica,sans-Serif" font-size="10.00">libnpy.hpp</text>
</a>
</g>
</g>
<!-- Node37&#45;&gt;Node42 -->
<g id="edge56" class="edge">
<title>Node37&#45;&gt;Node42</title>
<path fill="none" stroke="midnightblue" d="M1456.95,-57.54C1460,-56.97 1463.05,-56.45 1466,-56 1641.46,-29.5 1690.55,-46.35 1869.58,-20.04"/>
<polygon fill="midnightblue" stroke="midnightblue" points="1870.22,-23.48 1879.6,-18.54 1869.19,-16.56 1870.22,-23.48"/>
</g>
</g>
</svg>
