<?xml version="1.0" encoding="UTF-8" standalone="no"?>
<!DOCTYPE svg PUBLIC "-//W3C//DTD SVG 1.1//EN"
 "http://www.w3.org/Graphics/SVG/1.1/DTD/svg11.dtd">
<!-- Generated by graphviz version 2.43.0 (0)
 -->
<!-- Title: src/Ricom.h Pages: 1 -->
<svg width="1966pt" height="140pt"
 viewBox="0.00 0.00 1965.50 140.00" xmlns="http://www.w3.org/2000/svg" xmlns:xlink="http://www.w3.org/1999/xlink">
<g id="graph0" class="graph" transform="scale(1 1) rotate(0) translate(4 136)">
<title>src/Ricom.h</title>
<polygon fill="white" stroke="transparent" points="-4,4 -4,-136 1961.5,-136 1961.5,4 -4,4"/>
<!-- Node1 -->
<g id="node1" class="node">
<title>Node1</title>
<g id="a_node1"><a xlink:title=" ">
<polygon fill="#bfbfbf" stroke="black" points="1039,-112.5 1039,-131.5 1113,-131.5 1113,-112.5 1039,-112.5"/>
<text text-anchor="middle" x="1076" y="-119.5" font-family="Helvetica,sans-Serif" font-size="10.00">src/Ricom.h</text>
</a>
</g>
</g>
<!-- Node2 -->
<g id="node2" class="node">
<title>Node2</title>
<g id="a_node2"><a xlink:title=" ">
<polygon fill="white" stroke="#bfbfbf" points="406,-0.5 406,-19.5 462,-19.5 462,-0.5 406,-0.5"/>
<text text-anchor="middle" x="434" y="-7.5" font-family="Helvetica,sans-Serif" font-size="10.00">unistd.h</text>
</a>
</g>
</g>
<!-- Node1&#45;&gt;Node2 -->
<g id="edge1" class="edge">
<title>Node1&#45;&gt;Node2</title>
<path fill="none" stroke="midnightblue" d="M1038.66,-119.83C934.49,-116.24 642.43,-103.91 551,-76 514.28,-64.79 476.22,-40.97 453.85,-25.49"/>
<polygon fill="midnightblue" stroke="midnightblue" points="455.72,-22.53 445.54,-19.62 451.68,-28.25 455.72,-22.53"/>
</g>
<!-- Node3 -->
<g id="node3" class="node">
<title>Node3</title>
<g id="a_node3"><a xlink:title=" ">
<polygon fill="white" stroke="#bfbfbf" points="841.5,-0.5 841.5,-19.5 888.5,-19.5 888.5,-0.5 841.5,-0.5"/>
<text text-anchor="middle" x="865" y="-7.5" font-family="Helvetica,sans-Serif" font-size="10.00">cmath</text>
</a>
</g>
</g>
<!-- Node1&#45;&gt;Node3 -->
<g id="edge2" class="edge">
<title>Node1&#45;&gt;Node3</title>
<path fill="none" stroke="midnightblue" d="M1038.76,-119.58C978.11,-116.39 862.2,-106.39 837,-76 825.07,-61.61 837.21,-41.37 849.02,-27.31"/>
<polygon fill="midnightblue" stroke="midnightblue" points="851.66,-29.61 855.76,-19.84 846.46,-24.92 851.66,-29.61"/>
</g>
<!-- Node4 -->
<g id="node4" class="node">
<title>Node4</title>
<g id="a_node4"><a xlink:title=" ">
<polygon fill="white" stroke="#bfbfbf" points="1126,-56.5 1126,-75.5 1176,-75.5 1176,-56.5 1126,-56.5"/>
<text text-anchor="middle" x="1151" y="-63.5" font-family="Helvetica,sans-Serif" font-size="10.00">stdio.h</text>
</a>
</g>
</g>
<!-- Node1&#45;&gt;Node4 -->
<g id="edge3" class="edge">
<title>Node1&#45;&gt;Node4</title>
<path fill="none" stroke="midnightblue" d="M1088.05,-112.32C1099.46,-104.11 1116.83,-91.6 1130.43,-81.81"/>
<polygon fill="midnightblue" stroke="midnightblue" points="1132.66,-84.52 1138.73,-75.83 1128.57,-78.84 1132.66,-84.52"/>
</g>
<!-- Node5 -->
<g id="node5" class="node">
<title>Node5</title>
<g id="a_node5"><a xlink:title=" ">
<polygon fill="white" stroke="#bfbfbf" points="1194.5,-56.5 1194.5,-75.5 1253.5,-75.5 1253.5,-56.5 1194.5,-56.5"/>
<text text-anchor="middle" x="1224" y="-63.5" font-family="Helvetica,sans-Serif" font-size="10.00">complex</text>
</a>
</g>
</g>
<!-- Node1&#45;&gt;Node5 -->
<g id="edge4" class="edge">
<title>Node1&#45;&gt;Node5</title>
<path fill="none" stroke="midnightblue" d="M1099.45,-112.44C1124.13,-103.44 1163.19,-89.19 1190.98,-79.05"/>
<polygon fill="midnightblue" stroke="midnightblue" points="1192.46,-82.23 1200.66,-75.52 1190.06,-75.66 1192.46,-82.23"/>
</g>
<!-- Node6 -->
<g id="node6" class="node">
<title>Node6</title>
<g id="a_node6"><a xlink:title=" ">
<polygon fill="white" stroke="#bfbfbf" points="1272,-56.5 1272,-75.5 1316,-75.5 1316,-56.5 1272,-56.5"/>
<text text-anchor="middle" x="1294" y="-63.5" font-family="Helvetica,sans-Serif" font-size="10.00">cfloat</text>
</a>
</g>
</g>
<!-- Node1&#45;&gt;Node6 -->
<g id="edge5" class="edge">
<title>Node1&#45;&gt;Node6</title>
<path fill="none" stroke="midnightblue" d="M1113.03,-112.62C1148.78,-104.42 1204.66,-91.28 1261.76,-76.24"/>
<polygon fill="midnightblue" stroke="midnightblue" points="1262.91,-79.56 1271.68,-73.61 1261.12,-72.79 1262.91,-79.56"/>
</g>
<!-- Node7 -->
<g id="node7" class="node">
<title>Node7</title>
<g id="a_node7"><a xlink:title=" ">
<polygon fill="white" stroke="#bfbfbf" points="1201.5,-0.5 1201.5,-19.5 1248.5,-19.5 1248.5,-0.5 1201.5,-0.5"/>
<text text-anchor="middle" x="1225" y="-7.5" font-family="Helvetica,sans-Serif" font-size="10.00">vector</text>
</a>
</g>
</g>
<!-- Node1&#45;&gt;Node7 -->
<g id="edge6" class="edge">
<title>Node1&#45;&gt;Node7</title>
<path fill="none" stroke="midnightblue" d="M1063.63,-112.4C1046.68,-99.56 1019.95,-74.89 1035,-56 1077.69,-2.41 1118.87,-34.38 1191.29,-19.85"/>
<polygon fill="midnightblue" stroke="midnightblue" points="1192.26,-23.22 1201.24,-17.61 1190.71,-16.4 1192.26,-23.22"/>
</g>
<!-- Node8 -->
<g id="node8" class="node">
<title>Node8</title>
<g id="a_node8"><a xlink:title=" ">
<polygon fill="white" stroke="#bfbfbf" points="480,-0.5 480,-19.5 524,-19.5 524,-0.5 480,-0.5"/>
<text text-anchor="middle" x="502" y="-7.5" font-family="Helvetica,sans-Serif" font-size="10.00">string</text>
</a>
</g>
</g>
<!-- Node1&#45;&gt;Node8 -->
<g id="edge7" class="edge">
<title>Node1&#45;&gt;Node8</title>
<path fill="none" stroke="midnightblue" d="M1038.94,-120.07C940.4,-117.2 673.87,-106.73 592,-76 562.85,-65.06 534.64,-42.04 517.8,-26.54"/>
<polygon fill="midnightblue" stroke="midnightblue" points="520.17,-23.96 510.5,-19.63 515.35,-29.04 520.17,-23.96"/>
</g>
<!-- Node9 -->
<g id="node9" class="node">
<title>Node9</title>
<g id="a_node9"><a xlink:title=" ">
<polygon fill="white" stroke="#bfbfbf" points="1334,-56.5 1334,-75.5 1378,-75.5 1378,-56.5 1334,-56.5"/>
<text text-anchor="middle" x="1356" y="-63.5" font-family="Helvetica,sans-Serif" font-size="10.00">SDL.h</text>
</a>
</g>
</g>
<!-- Node1&#45;&gt;Node9 -->
<g id="edge8" class="edge">
<title>Node1&#45;&gt;Node9</title>
<path fill="none" stroke="midnightblue" d="M1113.37,-115.49C1160.39,-108.28 1243.75,-94.6 1323.96,-76.05"/>
<polygon fill="midnightblue" stroke="midnightblue" points="1324.78,-79.45 1333.72,-73.77 1323.19,-72.64 1324.78,-79.45"/>
</g>
<!-- Node10 -->
<g id="node10" class="node">
<title>Node10</title>
<g id="a_node10"><a xlink:title=" ">
<polygon fill="white" stroke="#bfbfbf" points="0,-0.5 0,-19.5 48,-19.5 48,-0.5 0,-0.5"/>
<text text-anchor="middle" x="24" y="-7.5" font-family="Helvetica,sans-Serif" font-size="10.00">mutex</text>
</a>
</g>
</g>
<!-- Node1&#45;&gt;Node10 -->
<g id="edge9" class="edge">
<title>Node1&#45;&gt;Node10</title>
<path fill="none" stroke="midnightblue" d="M1038.95,-120.28C897.03,-117.34 388,-104.94 229,-76 165.17,-64.38 93.54,-38.59 54.11,-23.21"/>
<polygon fill="midnightblue" stroke="midnightblue" points="55.39,-19.96 44.8,-19.55 52.82,-26.47 55.39,-19.96"/>
</g>
<!-- Node11 -->
<g id="node11" class="node">
<title>Node11</title>
<g id="a_node11"><a xlink:title=" ">
<polygon fill="white" stroke="#bfbfbf" points="1396,-56.5 1396,-75.5 1442,-75.5 1442,-56.5 1396,-56.5"/>
<text text-anchor="middle" x="1419" y="-63.5" font-family="Helvetica,sans-Serif" font-size="10.00">future</text>
</a>
</g>
</g>
<!-- Node1&#45;&gt;Node11 -->
<g id="edge10" class="edge">
<title>Node1&#45;&gt;Node11</title>
<path fill="none" stroke="midnightblue" d="M1113.14,-117.21C1169.91,-111.08 1281.79,-97.64 1385.65,-76.06"/>
<polygon fill="midnightblue" stroke="midnightblue" points="1386.61,-79.43 1395.67,-73.94 1385.16,-72.58 1386.61,-79.43"/>
</g>
<!-- Node12 -->
<g id="node12" class="node">
<title>Node12</title>
<g id="a_node12"><a xlink:title=" ">
<polygon fill="white" stroke="#bfbfbf" points="340,-0.5 340,-19.5 388,-19.5 388,-0.5 340,-0.5"/>
<text text-anchor="middle" x="364" y="-7.5" font-family="Helvetica,sans-Serif" font-size="10.00">thread</text>
</a>
</g>
</g>
<!-- Node1&#45;&gt;Node12 -->
<g id="edge11" class="edge">
<title>Node1&#45;&gt;Node12</title>
<path fill="none" stroke="midnightblue" d="M1038.73,-119.87C928,-116.23 602.33,-103.43 500,-76 457.68,-64.65 412.54,-40.34 386.37,-24.88"/>
<polygon fill="midnightblue" stroke="midnightblue" points="388,-21.78 377.63,-19.63 384.4,-27.78 388,-21.78"/>
</g>
<!-- Node13 -->
<g id="node13" class="node">
<title>Node13</title>
<g id="a_node13"><a xlink:title=" ">
<polygon fill="white" stroke="#bfbfbf" points="1460,-56.5 1460,-75.5 1510,-75.5 1510,-56.5 1460,-56.5"/>
<text text-anchor="middle" x="1485" y="-63.5" font-family="Helvetica,sans-Serif" font-size="10.00">fftw3.h</text>
</a>
</g>
</g>
<!-- Node1&#45;&gt;Node13 -->
<g id="edge12" class="edge">
<title>Node1&#45;&gt;Node13</title>
<path fill="none" stroke="midnightblue" d="M1113.26,-118.26C1179.23,-113.03 1321.03,-100.13 1449.8,-75.99"/>
<polygon fill="midnightblue" stroke="midnightblue" points="1450.67,-79.39 1459.84,-74.08 1449.36,-72.51 1450.67,-79.39"/>
</g>
<!-- Node14 -->
<g id="node14" class="node">
<title>Node14</title>
<g id="a_node14"><a xlink:title=" ">
<polygon fill="white" stroke="#bfbfbf" points="1133,-0.5 1133,-19.5 1183,-19.5 1183,-0.5 1133,-0.5"/>
<text text-anchor="middle" x="1158" y="-7.5" font-family="Helvetica,sans-Serif" font-size="10.00">chrono</text>
</a>
</g>
</g>
<!-- Node1&#45;&gt;Node14 -->
<g id="edge13" class="edge">
<title>Node1&#45;&gt;Node14</title>
<path fill="none" stroke="midnightblue" d="M1052.1,-112.39C1024.26,-101.01 984.22,-79.64 1002,-56 1003.88,-53.51 1077.82,-32.93 1123.22,-20.48"/>
<polygon fill="midnightblue" stroke="midnightblue" points="1124.26,-23.82 1132.98,-17.8 1122.42,-17.07 1124.26,-23.82"/>
</g>
<!-- Node15 -->
<g id="node15" class="node">
<title>Node15</title>
<g id="a_node15"><a xlink:title=" ">
<polygon fill="white" stroke="#bfbfbf" points="1528,-56.5 1528,-75.5 1592,-75.5 1592,-56.5 1528,-56.5"/>
<text text-anchor="middle" x="1560" y="-63.5" font-family="Helvetica,sans-Serif" font-size="10.00">algorithm</text>
</a>
</g>
</g>
<!-- Node1&#45;&gt;Node15 -->
<g id="edge14" class="edge">
<title>Node1&#45;&gt;Node15</title>
<path fill="none" stroke="midnightblue" d="M1113.23,-118.67C1188.01,-113.67 1361.89,-100.49 1517.61,-76.05"/>
<polygon fill="midnightblue" stroke="midnightblue" points="1518.51,-79.45 1527.84,-74.43 1517.41,-72.54 1518.51,-79.45"/>
</g>
<!-- Node16 -->
<g id="node16" class="node">
<title>Node16</title>
<g id="a_node16"><a xlink:href="../../d7/d50/BoundedThreadPool_8hpp.html" target="_top" xlink:title=" ">
<polygon fill="white" stroke="black" points="238.5,-56.5 238.5,-75.5 373.5,-75.5 373.5,-56.5 238.5,-56.5"/>
<text text-anchor="middle" x="306" y="-63.5" font-family="Helvetica,sans-Serif" font-size="10.00">BoundedThreadPool.hpp</text>
</a>
</g>
</g>
<!-- Node1&#45;&gt;Node16 -->
<g id="edge15" class="edge">
<title>Node1&#45;&gt;Node16</title>
<path fill="none" stroke="midnightblue" d="M1038.74,-118.98C936.16,-113.31 640.95,-96.35 396,-76 392.06,-75.67 388.03,-75.32 383.96,-74.96"/>
<polygon fill="midnightblue" stroke="midnightblue" points="384.07,-71.45 373.79,-74.03 383.43,-78.43 384.07,-71.45"/>
</g>
<!-- Node22 -->
<g id="node22" class="node">
<title>Node22</title>
<g id="a_node22"><a xlink:title=" ">
<polygon fill="white" stroke="#bfbfbf" points="1610,-56.5 1610,-75.5 1712,-75.5 1712,-56.5 1610,-56.5"/>
<text text-anchor="middle" x="1661" y="-63.5" font-family="Helvetica,sans-Serif" font-size="10.00">tinycolormap.hpp</text>
</a>
</g>
</g>
<!-- Node1&#45;&gt;Node22 -->
<g id="edge23" class="edge">
<title>Node1&#45;&gt;Node22</title>
<path fill="none" stroke="midnightblue" d="M1113.32,-118.62C1197.92,-113.04 1410.95,-98.01 1599.85,-76.06"/>
<polygon fill="midnightblue" stroke="midnightblue" points="1600.44,-79.52 1609.97,-74.88 1599.63,-72.57 1600.44,-79.52"/>
</g>
<!-- Node23 -->
<g id="node23" class="node">
<title>Node23</title>
<g id="a_node23"><a xlink:href="../../d0/d3c/SocketConnector_8h.html" target="_top" xlink:title=" ">
<polygon fill="white" stroke="black" points="601.5,-56.5 601.5,-75.5 708.5,-75.5 708.5,-56.5 601.5,-56.5"/>
<text text-anchor="middle" x="655" y="-63.5" font-family="Helvetica,sans-Serif" font-size="10.00">SocketConnector.h</text>
</a>
</g>
</g>
<!-- Node1&#45;&gt;Node23 -->
<g id="edge24" class="edge">
<title>Node1&#45;&gt;Node23</title>
<path fill="none" stroke="midnightblue" d="M1038.64,-116.21C966.56,-106.96 807.56,-86.57 718.55,-75.15"/>
<polygon fill="midnightblue" stroke="midnightblue" points="718.94,-71.67 708.57,-73.87 718.05,-78.62 718.94,-71.67"/>
</g>
<!-- Node27 -->
<g id="node27" class="node">
<title>Node27</title>
<g id="a_node27"><a xlink:href="../../da/dce/ProgressMonitor_8h.html" target="_top" xlink:title=" ">
<polygon fill="white" stroke="black" points="846,-56.5 846,-75.5 950,-75.5 950,-56.5 846,-56.5"/>
<text text-anchor="middle" x="898" y="-63.5" font-family="Helvetica,sans-Serif" font-size="10.00">ProgressMonitor.h</text>
</a>
</g>
</g>
<!-- Node1&#45;&gt;Node27 -->
<g id="edge31" class="edge">
<title>Node1&#45;&gt;Node27</title>
<path fill="none" stroke="midnightblue" d="M1047.8,-112.44C1017.59,-103.28 969.49,-88.69 935.97,-78.52"/>
<polygon fill="midnightblue" stroke="midnightblue" points="936.66,-75.07 926.07,-75.52 934.63,-81.77 936.66,-75.07"/>
</g>
<!-- Node30 -->
<g id="node30" class="node">
<title>Node30</title>
<g id="a_node30"><a xlink:title=" ">
<polygon fill="white" stroke="#bfbfbf" points="1730,-56.5 1730,-75.5 1830,-75.5 1830,-56.5 1730,-56.5"/>
<text text-anchor="middle" x="1780" y="-63.5" font-family="Helvetica,sans-Serif" font-size="10.00">MerlinInterface.h</text>
</a>
</g>
</g>
<!-- Node1&#45;&gt;Node30 -->
<g id="edge39" class="edge">
<title>Node1&#45;&gt;Node30</title>
<path fill="none" stroke="midnightblue" d="M1113.18,-119.47C1210.82,-115.23 1482.77,-101.95 1719.64,-76.06"/>
<polygon fill="midnightblue" stroke="midnightblue" points="1720.27,-79.51 1729.82,-74.94 1719.5,-72.56 1720.27,-79.51"/>
</g>
<!-- Node31 -->
<g id="node31" class="node">
<title>Node31</title>
<g id="a_node31"><a xlink:title=" ">
<polygon fill="white" stroke="#bfbfbf" points="1848.5,-56.5 1848.5,-75.5 1957.5,-75.5 1957.5,-56.5 1848.5,-56.5"/>
<text text-anchor="middle" x="1903" y="-63.5" font-family="Helvetica,sans-Serif" font-size="10.00">TimepixInterface.h</text>
</a>
</g>
</g>
<!-- Node1&#45;&gt;Node31 -->
<g id="edge40" class="edge">
<title>Node1&#45;&gt;Node31</title>
<path fill="none" stroke="midnightblue" d="M1113.01,-119.88C1222.22,-116.34 1552.85,-104.02 1838.09,-76"/>
<polygon fill="midnightblue" stroke="midnightblue" points="1838.62,-79.47 1848.22,-75 1837.93,-72.5 1838.62,-79.47"/>
</g>
<!-- Node32 -->
<g id="node32" class="node">
<title>Node32</title>
<g id="a_node32"><a xlink:href="../../dd/de4/Camera_8h.html" target="_top" xlink:title=" ">
<polygon fill="white" stroke="black" points="1044,-56.5 1044,-75.5 1108,-75.5 1108,-56.5 1044,-56.5"/>
<text text-anchor="middle" x="1076" y="-63.5" font-family="Helvetica,sans-Serif" font-size="10.00">Camera.h</text>
</a>
</g>
</g>
<!-- Node1&#45;&gt;Node32 -->
<g id="edge41" class="edge">
<title>Node1&#45;&gt;Node32</title>
<path fill="none" stroke="midnightblue" d="M1076,-112.08C1076,-105.01 1076,-94.86 1076,-85.99"/>
<polygon fill="midnightblue" stroke="midnightblue" points="1079.5,-85.75 1076,-75.75 1072.5,-85.75 1079.5,-85.75"/>
</g>
<!-- Node16&#45;&gt;Node10 -->
<g id="edge19" class="edge">
<title>Node16&#45;&gt;Node10</title>
<path fill="none" stroke="midnightblue" d="M250.83,-56.45C202.46,-48.64 130.06,-36.16 58.22,-20.12"/>
<polygon fill="midnightblue" stroke="midnightblue" points="58.61,-16.62 48.09,-17.83 57.07,-23.45 58.61,-16.62"/>
</g>
<!-- Node16&#45;&gt;Node12 -->
<g id="edge16" class="edge">
<title>Node16&#45;&gt;Node12</title>
<path fill="none" stroke="midnightblue" d="M315.32,-56.32C323.89,-48.34 336.81,-36.31 347.19,-26.65"/>
<polygon fill="midnightblue" stroke="midnightblue" points="349.58,-29.21 354.51,-19.83 344.81,-24.09 349.58,-29.21"/>
</g>
<!-- Node17 -->
<g id="node17" class="node">
<title>Node17</title>
<g id="a_node17"><a xlink:title=" ">
<polygon fill="white" stroke="#bfbfbf" points="274.5,-0.5 274.5,-19.5 321.5,-19.5 321.5,-0.5 274.5,-0.5"/>
<text text-anchor="middle" x="298" y="-7.5" font-family="Helvetica,sans-Serif" font-size="10.00">queue</text>
</a>
</g>
</g>
<!-- Node16&#45;&gt;Node17 -->
<g id="edge17" class="edge">
<title>Node16&#45;&gt;Node17</title>
<path fill="none" stroke="midnightblue" d="M304.68,-56.08C303.62,-48.93 302.09,-38.64 300.77,-29.69"/>
<polygon fill="midnightblue" stroke="midnightblue" points="304.22,-29.13 299.3,-19.75 297.3,-30.16 304.22,-29.13"/>
</g>
<!-- Node18 -->
<g id="node18" class="node">
<title>Node18</title>
<g id="a_node18"><a xlink:title=" ">
<polygon fill="white" stroke="#bfbfbf" points="66.5,-0.5 66.5,-19.5 131.5,-19.5 131.5,-0.5 66.5,-0.5"/>
<text text-anchor="middle" x="99" y="-7.5" font-family="Helvetica,sans-Serif" font-size="10.00">functional</text>
</a>
</g>
</g>
<!-- Node16&#45;&gt;Node18 -->
<g id="edge18" class="edge">
<title>Node16&#45;&gt;Node18</title>
<path fill="none" stroke="midnightblue" d="M273.2,-56.44C237.62,-47.16 180.69,-32.31 141.65,-22.13"/>
<polygon fill="midnightblue" stroke="midnightblue" points="142.21,-18.65 131.65,-19.52 140.44,-25.43 142.21,-18.65"/>
</g>
<!-- Node19 -->
<g id="node19" class="node">
<title>Node19</title>
<g id="a_node19"><a xlink:title=" ">
<polygon fill="white" stroke="#bfbfbf" points="149.5,-0.5 149.5,-19.5 256.5,-19.5 256.5,-0.5 149.5,-0.5"/>
<text text-anchor="middle" x="203" y="-7.5" font-family="Helvetica,sans-Serif" font-size="10.00">condition_variable</text>
</a>
</g>
</g>
<!-- Node16&#45;&gt;Node19 -->
<g id="edge20" class="edge">
<title>Node16&#45;&gt;Node19</title>
<path fill="none" stroke="midnightblue" d="M289.45,-56.32C273.01,-47.7 247.57,-34.36 228.53,-24.39"/>
<polygon fill="midnightblue" stroke="midnightblue" points="229.99,-21.2 219.51,-19.65 226.74,-27.4 229.99,-21.2"/>
</g>
<!-- Node20 -->
<g id="node20" class="node">
<title>Node20</title>
<g id="a_node20"><a xlink:title=" ">
<polygon fill="white" stroke="#bfbfbf" points="907,-0.5 907,-19.5 957,-19.5 957,-0.5 907,-0.5"/>
<text text-anchor="middle" x="932" y="-7.5" font-family="Helvetica,sans-Serif" font-size="10.00">atomic</text>
</a>
</g>
</g>
<!-- Node16&#45;&gt;Node20 -->
<g id="edge21" class="edge">
<title>Node16&#45;&gt;Node20</title>
<path fill="none" stroke="midnightblue" d="M373.82,-63.7C484.18,-60.72 709.18,-51.05 897,-20 897.1,-19.98 897.2,-19.97 897.3,-19.95"/>
<polygon fill="midnightblue" stroke="midnightblue" points="897.76,-23.43 906.88,-18.02 896.38,-16.56 897.76,-23.43"/>
</g>
<!-- Node21 -->
<g id="node21" class="node">
<title>Node21</title>
<g id="a_node21"><a xlink:title=" ">
<polygon fill="white" stroke="#bfbfbf" points="542,-0.5 542,-19.5 602,-19.5 602,-0.5 542,-0.5"/>
<text text-anchor="middle" x="572" y="-7.5" font-family="Helvetica,sans-Serif" font-size="10.00">iostream</text>
</a>
</g>
</g>
<!-- Node16&#45;&gt;Node21 -->
<g id="edge22" class="edge">
<title>Node16&#45;&gt;Node21</title>
<path fill="none" stroke="midnightblue" d="M351.31,-56.45C395.04,-48.1 463.37,-34.8 531.71,-20.23"/>
<polygon fill="midnightblue" stroke="midnightblue" points="532.74,-23.59 541.79,-18.07 531.28,-16.74 532.74,-23.59"/>
</g>
<!-- Node23&#45;&gt;Node2 -->
<g id="edge26" class="edge">
<title>Node23&#45;&gt;Node2</title>
<path fill="none" stroke="midnightblue" d="M619.98,-56.44C579.62,-46.58 513.51,-30.43 471.94,-20.27"/>
<polygon fill="midnightblue" stroke="midnightblue" points="472.74,-16.86 462.19,-17.89 471.08,-23.66 472.74,-16.86"/>
</g>
<!-- Node23&#45;&gt;Node8 -->
<g id="edge29" class="edge">
<title>Node23&#45;&gt;Node8</title>
<path fill="none" stroke="midnightblue" d="M630.76,-56.44C604.53,-47.19 562.6,-32.39 533.75,-22.21"/>
<polygon fill="midnightblue" stroke="midnightblue" points="534.74,-18.84 524.14,-18.82 532.41,-25.44 534.74,-18.84"/>
</g>
<!-- Node23&#45;&gt;Node21 -->
<g id="edge30" class="edge">
<title>Node23&#45;&gt;Node21</title>
<path fill="none" stroke="midnightblue" d="M641.66,-56.32C628.84,-47.98 609.22,-35.21 594.06,-25.35"/>
<polygon fill="midnightblue" stroke="midnightblue" points="595.59,-22.17 585.3,-19.65 591.78,-28.04 595.59,-22.17"/>
</g>
<!-- Node24 -->
<g id="node24" class="node">
<title>Node24</title>
<g id="a_node24"><a xlink:title=" ">
<polygon fill="white" stroke="#bfbfbf" points="620.5,-0.5 620.5,-19.5 689.5,-19.5 689.5,-0.5 620.5,-0.5"/>
<text text-anchor="middle" x="655" y="-7.5" font-family="Helvetica,sans-Serif" font-size="10.00">arpa/inet.h</text>
</a>
</g>
</g>
<!-- Node23&#45;&gt;Node24 -->
<g id="edge25" class="edge">
<title>Node23&#45;&gt;Node24</title>
<path fill="none" stroke="midnightblue" d="M655,-56.08C655,-49.01 655,-38.86 655,-29.99"/>
<polygon fill="midnightblue" stroke="midnightblue" points="658.5,-29.75 655,-19.75 651.5,-29.75 658.5,-29.75"/>
</g>
<!-- Node25 -->
<g id="node25" class="node">
<title>Node25</title>
<g id="a_node25"><a xlink:title=" ">
<polygon fill="white" stroke="#bfbfbf" points="707.5,-0.5 707.5,-19.5 754.5,-19.5 754.5,-0.5 707.5,-0.5"/>
<text text-anchor="middle" x="731" y="-7.5" font-family="Helvetica,sans-Serif" font-size="10.00">cerrno</text>
</a>
</g>
</g>
<!-- Node23&#45;&gt;Node25 -->
<g id="edge27" class="edge">
<title>Node23&#45;&gt;Node25</title>
<path fill="none" stroke="midnightblue" d="M667.21,-56.32C678.78,-48.11 696.38,-35.6 710.16,-25.81"/>
<polygon fill="midnightblue" stroke="midnightblue" points="712.44,-28.48 718.57,-19.83 708.39,-22.77 712.44,-28.48"/>
</g>
<!-- Node26 -->
<g id="node26" class="node">
<title>Node26</title>
<g id="a_node26"><a xlink:title=" ">
<polygon fill="white" stroke="#bfbfbf" points="773,-0.5 773,-19.5 823,-19.5 823,-0.5 773,-0.5"/>
<text text-anchor="middle" x="798" y="-7.5" font-family="Helvetica,sans-Serif" font-size="10.00">cstring</text>
</a>
</g>
</g>
<!-- Node23&#45;&gt;Node26 -->
<g id="edge28" class="edge">
<title>Node23&#45;&gt;Node26</title>
<path fill="none" stroke="midnightblue" d="M677.66,-56.44C701.4,-47.48 738.91,-33.31 765.74,-23.18"/>
<polygon fill="midnightblue" stroke="midnightblue" points="767.33,-26.32 775.45,-19.52 764.86,-19.77 767.33,-26.32"/>
</g>
<!-- Node27&#45;&gt;Node3 -->
<g id="edge38" class="edge">
<title>Node27&#45;&gt;Node3</title>
<path fill="none" stroke="midnightblue" d="M892.55,-56.08C887.99,-48.61 881.33,-37.72 875.71,-28.52"/>
<polygon fill="midnightblue" stroke="midnightblue" points="878.55,-26.46 870.35,-19.75 872.58,-30.11 878.55,-26.46"/>
</g>
<!-- Node27&#45;&gt;Node14 -->
<g id="edge37" class="edge">
<title>Node27&#45;&gt;Node14</title>
<path fill="none" stroke="midnightblue" d="M945.36,-56.46C989.07,-48.37 1055.98,-35.5 1122.92,-20.14"/>
<polygon fill="midnightblue" stroke="midnightblue" points="1123.84,-23.52 1132.79,-17.86 1122.26,-16.7 1123.84,-23.52"/>
</g>
<!-- Node27&#45;&gt;Node20 -->
<g id="edge36" class="edge">
<title>Node27&#45;&gt;Node20</title>
<path fill="none" stroke="midnightblue" d="M903.61,-56.08C908.37,-48.53 915.32,-37.49 921.15,-28.23"/>
<polygon fill="midnightblue" stroke="midnightblue" points="924.12,-30.08 926.49,-19.75 918.2,-26.35 924.12,-30.08"/>
</g>
<!-- Node27&#45;&gt;Node21 -->
<g id="edge33" class="edge">
<title>Node27&#45;&gt;Node21</title>
<path fill="none" stroke="midnightblue" d="M845.96,-57.98C790.39,-50.23 699.56,-36.82 612.02,-20.09"/>
<polygon fill="midnightblue" stroke="midnightblue" points="612.67,-16.65 602.19,-18.19 611.34,-23.52 612.67,-16.65"/>
</g>
<!-- Node27&#45;&gt;Node26 -->
<g id="edge35" class="edge">
<title>Node27&#45;&gt;Node26</title>
<path fill="none" stroke="midnightblue" d="M881.93,-56.32C866.04,-47.74 841.49,-34.49 823.04,-24.52"/>
<polygon fill="midnightblue" stroke="midnightblue" points="824.49,-21.33 814.03,-19.65 821.16,-27.49 824.49,-21.33"/>
</g>
<!-- Node28 -->
<g id="node28" class="node">
<title>Node28</title>
<g id="a_node28"><a xlink:title=" ">
<polygon fill="white" stroke="#bfbfbf" points="975,-0.5 975,-19.5 1041,-19.5 1041,-0.5 975,-0.5"/>
<text text-anchor="middle" x="1008" y="-7.5" font-family="Helvetica,sans-Serif" font-size="10.00">sys/ioctl.h</text>
</a>
</g>
</g>
<!-- Node27&#45;&gt;Node28 -->
<g id="edge32" class="edge">
<title>Node27&#45;&gt;Node28</title>
<path fill="none" stroke="midnightblue" d="M915.67,-56.32C933.39,-47.62 960.9,-34.12 981.29,-24.11"/>
<polygon fill="midnightblue" stroke="midnightblue" points="982.94,-27.2 990.37,-19.65 979.85,-20.92 982.94,-27.2"/>
</g>
<!-- Node29 -->
<g id="node29" class="node">
<title>Node29</title>
<g id="a_node29"><a xlink:title=" ">
<polygon fill="white" stroke="#bfbfbf" points="1059,-0.5 1059,-19.5 1115,-19.5 1115,-0.5 1059,-0.5"/>
<text text-anchor="middle" x="1087" y="-7.5" font-family="Helvetica,sans-Serif" font-size="10.00">iomanip</text>
</a>
</g>
</g>
<!-- Node27&#45;&gt;Node29 -->
<g id="edge34" class="edge">
<title>Node27&#45;&gt;Node29</title>
<path fill="none" stroke="midnightblue" d="M927.95,-56.44C960.63,-47.11 1013.05,-32.13 1048.7,-21.94"/>
<polygon fill="midnightblue" stroke="midnightblue" points="1050.08,-25.19 1058.74,-19.08 1048.16,-18.46 1050.08,-25.19"/>
</g>
<!-- Node32&#45;&gt;Node7 -->
<g id="edge42" class="edge">
<title>Node32&#45;&gt;Node7</title>
<path fill="none" stroke="midnightblue" d="M1099.61,-56.44C1124.46,-47.44 1163.77,-33.19 1191.75,-23.05"/>
<polygon fill="midnightblue" stroke="midnightblue" points="1193.29,-26.21 1201.5,-19.52 1190.91,-19.63 1193.29,-26.21"/>
</g>
<!-- Node32&#45;&gt;Node20 -->
<g id="edge43" class="edge">
<title>Node32&#45;&gt;Node20</title>
<path fill="none" stroke="midnightblue" d="M1053.18,-56.44C1029.17,-47.44 991.17,-33.19 964.13,-23.05"/>
<polygon fill="midnightblue" stroke="midnightblue" points="965.3,-19.75 954.71,-19.52 962.84,-26.3 965.3,-19.75"/>
</g>
<!-- Node33 -->
<g id="node33" class="node">
<title>Node33</title>
<g id="a_node33"><a xlink:title=" ">
<polygon fill="white" stroke="#bfbfbf" points="1338,-0.5 1338,-19.5 1380,-19.5 1380,-0.5 1338,-0.5"/>
<text text-anchor="middle" x="1359" y="-7.5" font-family="Helvetica,sans-Serif" font-size="10.00">array</text>
</a>
</g>
</g>
<!-- Node32&#45;&gt;Node33 -->
<g id="edge44" class="edge">
<title>Node32&#45;&gt;Node33</title>
<path fill="none" stroke="midnightblue" d="M1108.2,-57.78C1111.17,-57.16 1114.14,-56.56 1117,-56 1207.7,-38.36 1234.2,-41.53 1327.89,-20.02"/>
<polygon fill="midnightblue" stroke="midnightblue" points="1328.84,-23.4 1337.78,-17.72 1327.25,-16.58 1328.84,-23.4"/>
</g>
<!-- Node34 -->
<g id="node34" class="node">
<title>Node34</title>
<g id="a_node34"><a xlink:title=" ">
<polygon fill="white" stroke="#bfbfbf" points="1266.5,-0.5 1266.5,-19.5 1319.5,-19.5 1319.5,-0.5 1266.5,-0.5"/>
<text text-anchor="middle" x="1293" y="-7.5" font-family="Helvetica,sans-Serif" font-size="10.00">stdlib.h</text>
</a>
</g>
</g>
<!-- Node32&#45;&gt;Node34 -->
<g id="edge45" class="edge">
<title>Node32&#45;&gt;Node34</title>
<path fill="none" stroke="midnightblue" d="M1108.24,-57.12C1142.65,-48.7 1199.01,-34.83 1256.31,-20.41"/>
<polygon fill="midnightblue" stroke="midnightblue" points="1257.41,-23.74 1266.25,-17.9 1255.7,-16.96 1257.41,-23.74"/>
</g>
</g>
</svg>
