<?xml version="1.0" encoding="UTF-8" standalone="no"?>
<!DOCTYPE svg PUBLIC "-//W3C//DTD SVG 1.1//EN"
 "http://www.w3.org/Graphics/SVG/1.1/DTD/svg11.dtd">
<!-- Generated by graphviz version 2.43.0 (0)
 -->
<!-- Title: CAMERA::Camera_BASE Pages: 1 -->
<svg width="377pt" height="137pt"
 viewBox="0.00 0.00 377.00 137.00" xmlns="http://www.w3.org/2000/svg" xmlns:xlink="http://www.w3.org/1999/xlink">
<g id="graph0" class="graph" transform="scale(1 1) rotate(0) translate(4 133)">
<title>CAMERA::Camera_BASE</title>
<polygon fill="white" stroke="transparent" points="-4,4 -4,-133 373,-133 373,4 -4,4"/>
<!-- Node1 -->
<g id="node1" class="node">
<title>Node1</title>
<g id="a_node1"><a xlink:title=" ">
<polygon fill="#bfbfbf" stroke="black" points="0,-55 0,-74 134,-74 134,-55 0,-55"/>
<text text-anchor="middle" x="67" y="-62" font-family="Helvetica,sans-Serif" font-size="10.00">CAMERA::Camera_BASE</text>
</a>
</g>
</g>
<!-- Node2 -->
<g id="node2" class="node">
<title>Node2</title>
<g id="a_node2"><a xlink:href="../../d4/d8c/classCAMERA_1_1Camera.html" target="_top" xlink:title=" ">
<polygon fill="white" stroke="black" points="170,-98.5 170,-128.5 369,-128.5 369,-98.5 170,-98.5"/>
<text text-anchor="start" x="178" y="-116.5" font-family="Helvetica,sans-Serif" font-size="10.00">CAMERA::Camera&lt; CameraInterface,</text>
<text text-anchor="middle" x="269.5" y="-105.5" font-family="Helvetica,sans-Serif" font-size="10.00"> cam_type &gt;</text>
</a>
</g>
</g>
<!-- Node1&#45;&gt;Node2 -->
<g id="edge1" class="edge">
<title>Node1&#45;&gt;Node2</title>
<path fill="none" stroke="midnightblue" d="M116.91,-76.5C133.74,-80.63 152.69,-85.27 170,-89.5 181.88,-92.4 194.57,-95.5 206.76,-98.47"/>
<polygon fill="midnightblue" stroke="midnightblue" points="117.29,-72.99 106.75,-74.01 115.62,-79.79 117.29,-72.99"/>
</g>
<!-- Node3 -->
<g id="node3" class="node">
<title>Node3</title>
<g id="a_node3"><a xlink:href="../../da/df9/classCAMERA_1_1Camera_3_01CameraInterface_00_01EVENT__BASED_01_4.html" target="_top" xlink:title=" ">
<polygon fill="white" stroke="black" points="170,-49.5 170,-79.5 369,-79.5 369,-49.5 170,-49.5"/>
<text text-anchor="start" x="178" y="-67.5" font-family="Helvetica,sans-Serif" font-size="10.00">CAMERA::Camera&lt; CameraInterface,</text>
<text text-anchor="middle" x="269.5" y="-56.5" font-family="Helvetica,sans-Serif" font-size="10.00"> EVENT_BASED &gt;</text>
</a>
</g>
</g>
<!-- Node1&#45;&gt;Node3 -->
<g id="edge2" class="edge">
<title>Node1&#45;&gt;Node3</title>
<path fill="none" stroke="midnightblue" d="M144.25,-64.5C152.59,-64.5 161.17,-64.5 169.73,-64.5"/>
<polygon fill="midnightblue" stroke="midnightblue" points="144.21,-61 134.21,-64.5 144.21,-68 144.21,-61"/>
</g>
<!-- Node4 -->
<g id="node4" class="node">
<title>Node4</title>
<g id="a_node4"><a xlink:href="../../d6/d0f/classCAMERA_1_1Camera_3_01CameraInterface_00_01FRAME__BASED_01_4.html" target="_top" xlink:title=" ">
<polygon fill="white" stroke="black" points="170,-0.5 170,-30.5 369,-30.5 369,-0.5 170,-0.5"/>
<text text-anchor="start" x="178" y="-18.5" font-family="Helvetica,sans-Serif" font-size="10.00">CAMERA::Camera&lt; CameraInterface,</text>
<text text-anchor="middle" x="269.5" y="-7.5" font-family="Helvetica,sans-Serif" font-size="10.00"> FRAME_BASED &gt;</text>
</a>
</g>
</g>
<!-- Node1&#45;&gt;Node4 -->
<g id="edge3" class="edge">
<title>Node1&#45;&gt;Node4</title>
<path fill="none" stroke="midnightblue" d="M117.16,-52.49C144.25,-45.86 178.14,-37.58 206.97,-30.54"/>
<polygon fill="midnightblue" stroke="midnightblue" points="116.02,-49.16 107.13,-54.94 117.68,-55.96 116.02,-49.16"/>
</g>
</g>
</svg>
