<?xml version="1.0" encoding="UTF-8" standalone="no"?>
<!DOCTYPE svg PUBLIC "-//W3C//DTD SVG 1.1//EN"
 "http://www.w3.org/Graphics/SVG/1.1/DTD/svg11.dtd">
<!-- Generated by graphviz version 2.43.0 (0)
 -->
<!-- Title: src/Gui_utils.h Pages: 1 -->
<svg width="1551pt" height="84pt"
 viewBox="0.00 0.00 1551.00 84.00" xmlns="http://www.w3.org/2000/svg" xmlns:xlink="http://www.w3.org/1999/xlink">
<g id="graph0" class="graph" transform="scale(1 1) rotate(0) translate(4 80)">
<title>src/Gui_utils.h</title>
<polygon fill="white" stroke="transparent" points="-4,4 -4,-80 1547,-80 1547,4 -4,4"/>
<!-- Node1 -->
<g id="node1" class="node">
<title>Node1</title>
<g id="a_node1"><a xlink:title=" ">
<polygon fill="#bfbfbf" stroke="black" points="601,-56.5 601,-75.5 687,-75.5 687,-56.5 601,-56.5"/>
<text text-anchor="middle" x="644" y="-63.5" font-family="Helvetica,sans-Serif" font-size="10.00">src/Gui_utils.h</text>
</a>
</g>
</g>
<!-- Node2 -->
<g id="node2" class="node">
<title>Node2</title>
<g id="a_node2"><a xlink:title=" ">
<polygon fill="white" stroke="#bfbfbf" points="0,-0.5 0,-19.5 44,-19.5 44,-0.5 0,-0.5"/>
<text text-anchor="middle" x="22" y="-7.5" font-family="Helvetica,sans-Serif" font-size="10.00">string</text>
</a>
</g>
</g>
<!-- Node1&#45;&gt;Node2 -->
<g id="edge1" class="edge">
<title>Node1&#45;&gt;Node2</title>
<path fill="none" stroke="midnightblue" d="M600.97,-64.75C504.46,-63.56 263.44,-56.95 54.16,-19.84"/>
<polygon fill="midnightblue" stroke="midnightblue" points="54.68,-16.38 44.22,-18.05 53.44,-23.26 54.68,-16.38"/>
</g>
<!-- Node3 -->
<g id="node3" class="node">
<title>Node3</title>
<g id="a_node3"><a xlink:title=" ">
<polygon fill="white" stroke="#bfbfbf" points="62,-0.5 62,-19.5 122,-19.5 122,-0.5 62,-0.5"/>
<text text-anchor="middle" x="92" y="-7.5" font-family="Helvetica,sans-Serif" font-size="10.00">iostream</text>
</a>
</g>
</g>
<!-- Node1&#45;&gt;Node3 -->
<g id="edge2" class="edge">
<title>Node1&#45;&gt;Node3</title>
<path fill="none" stroke="midnightblue" d="M600.85,-63.25C513.95,-59.28 311.55,-47.82 132.29,-19.99"/>
<polygon fill="midnightblue" stroke="midnightblue" points="132.57,-16.49 122.15,-18.4 131.49,-23.41 132.57,-16.49"/>
</g>
<!-- Node4 -->
<g id="node4" class="node">
<title>Node4</title>
<g id="a_node4"><a xlink:title=" ">
<polygon fill="white" stroke="#bfbfbf" points="140.5,-0.5 140.5,-19.5 187.5,-19.5 187.5,-0.5 140.5,-0.5"/>
<text text-anchor="middle" x="164" y="-7.5" font-family="Helvetica,sans-Serif" font-size="10.00">vector</text>
</a>
</g>
</g>
<!-- Node1&#45;&gt;Node4 -->
<g id="edge3" class="edge">
<title>Node1&#45;&gt;Node4</title>
<path fill="none" stroke="midnightblue" d="M600.83,-63.04C522.39,-58.96 351.23,-47.69 197.77,-19.82"/>
<polygon fill="midnightblue" stroke="midnightblue" points="198.15,-16.34 187.68,-17.96 196.88,-23.22 198.15,-16.34"/>
</g>
<!-- Node5 -->
<g id="node5" class="node">
<title>Node5</title>
<g id="a_node5"><a xlink:title=" ">
<polygon fill="white" stroke="#bfbfbf" points="206,-0.5 206,-19.5 270,-19.5 270,-0.5 206,-0.5"/>
<text text-anchor="middle" x="238" y="-7.5" font-family="Helvetica,sans-Serif" font-size="10.00">algorithm</text>
</a>
</g>
</g>
<!-- Node1&#45;&gt;Node5 -->
<g id="edge4" class="edge">
<title>Node1&#45;&gt;Node5</title>
<path fill="none" stroke="midnightblue" d="M600.82,-61C534.13,-54.52 401.85,-40.54 280.04,-20.04"/>
<polygon fill="midnightblue" stroke="midnightblue" points="280.62,-16.59 270.17,-18.36 279.44,-23.49 280.62,-16.59"/>
</g>
<!-- Node6 -->
<g id="node6" class="node">
<title>Node6</title>
<g id="a_node6"><a xlink:title=" ">
<polygon fill="white" stroke="#bfbfbf" points="288,-0.5 288,-19.5 338,-19.5 338,-0.5 288,-0.5"/>
<text text-anchor="middle" x="313" y="-7.5" font-family="Helvetica,sans-Serif" font-size="10.00">stdio.h</text>
</a>
</g>
</g>
<!-- Node1&#45;&gt;Node6 -->
<g id="edge5" class="edge">
<title>Node1&#45;&gt;Node6</title>
<path fill="none" stroke="midnightblue" d="M600.95,-59.96C544.87,-53.08 443.62,-39.53 348.01,-20.02"/>
<polygon fill="midnightblue" stroke="midnightblue" points="348.68,-16.59 338.18,-17.99 347.26,-23.44 348.68,-16.59"/>
</g>
<!-- Node7 -->
<g id="node7" class="node">
<title>Node7</title>
<g id="a_node7"><a xlink:title=" ">
<polygon fill="white" stroke="#bfbfbf" points="356,-0.5 356,-19.5 400,-19.5 400,-0.5 356,-0.5"/>
<text text-anchor="middle" x="378" y="-7.5" font-family="Helvetica,sans-Serif" font-size="10.00">SDL.h</text>
</a>
</g>
</g>
<!-- Node1&#45;&gt;Node7 -->
<g id="edge6" class="edge">
<title>Node1&#45;&gt;Node7</title>
<path fill="none" stroke="midnightblue" d="M600.86,-57.98C555.65,-50.36 482.39,-37.22 410.43,-20.17"/>
<polygon fill="midnightblue" stroke="midnightblue" points="410.82,-16.67 400.28,-17.74 409.19,-23.47 410.82,-16.67"/>
</g>
<!-- Node8 -->
<g id="node8" class="node">
<title>Node8</title>
<g id="a_node8"><a xlink:title=" ">
<polygon fill="white" stroke="#bfbfbf" points="418,-0.5 418,-19.5 498,-19.5 498,-0.5 418,-0.5"/>
<text text-anchor="middle" x="458" y="-7.5" font-family="Helvetica,sans-Serif" font-size="10.00">SDL_image.h</text>
</a>
</g>
</g>
<!-- Node1&#45;&gt;Node8 -->
<g id="edge7" class="edge">
<title>Node1&#45;&gt;Node8</title>
<path fill="none" stroke="midnightblue" d="M614.53,-56.44C582.83,-47.24 532.27,-32.56 497.23,-22.39"/>
<polygon fill="midnightblue" stroke="midnightblue" points="497.91,-18.94 487.33,-19.52 495.96,-25.67 497.91,-18.94"/>
</g>
<!-- Node9 -->
<g id="node9" class="node">
<title>Node9</title>
<g id="a_node9"><a xlink:title=" ">
<polygon fill="white" stroke="#bfbfbf" points="516.5,-0.5 516.5,-19.5 599.5,-19.5 599.5,-0.5 516.5,-0.5"/>
<text text-anchor="middle" x="558" y="-7.5" font-family="Helvetica,sans-Serif" font-size="10.00">SDL_opengl.h</text>
</a>
</g>
</g>
<!-- Node1&#45;&gt;Node9 -->
<g id="edge8" class="edge">
<title>Node1&#45;&gt;Node9</title>
<path fill="none" stroke="midnightblue" d="M630.18,-56.32C616.77,-47.9 596.18,-34.97 580.41,-25.07"/>
<polygon fill="midnightblue" stroke="midnightblue" points="582.11,-22.01 571.78,-19.65 578.39,-27.94 582.11,-22.01"/>
</g>
<!-- Node10 -->
<g id="node10" class="node">
<title>Node10</title>
<g id="a_node10"><a xlink:title=" ">
<polygon fill="white" stroke="#bfbfbf" points="617.5,-0.5 617.5,-19.5 670.5,-19.5 670.5,-0.5 617.5,-0.5"/>
<text text-anchor="middle" x="644" y="-7.5" font-family="Helvetica,sans-Serif" font-size="10.00">imgui.h</text>
</a>
</g>
</g>
<!-- Node1&#45;&gt;Node10 -->
<g id="edge9" class="edge">
<title>Node1&#45;&gt;Node10</title>
<path fill="none" stroke="midnightblue" d="M644,-56.08C644,-49.01 644,-38.86 644,-29.99"/>
<polygon fill="midnightblue" stroke="midnightblue" points="647.5,-29.75 644,-19.75 640.5,-29.75 647.5,-29.75"/>
</g>
<!-- Node11 -->
<g id="node11" class="node">
<title>Node11</title>
<g id="a_node11"><a xlink:title=" ">
<polygon fill="white" stroke="#bfbfbf" points="689,-0.5 689,-19.5 789,-19.5 789,-0.5 689,-0.5"/>
<text text-anchor="middle" x="739" y="-7.5" font-family="Helvetica,sans-Serif" font-size="10.00">imgui_impl_sdl.h</text>
</a>
</g>
</g>
<!-- Node1&#45;&gt;Node11 -->
<g id="edge10" class="edge">
<title>Node1&#45;&gt;Node11</title>
<path fill="none" stroke="midnightblue" d="M659.26,-56.32C674.22,-47.82 697.25,-34.73 714.73,-24.8"/>
<polygon fill="midnightblue" stroke="midnightblue" points="716.81,-27.64 723.77,-19.65 713.35,-21.55 716.81,-27.64"/>
</g>
<!-- Node12 -->
<g id="node12" class="node">
<title>Node12</title>
<g id="a_node12"><a xlink:title=" ">
<polygon fill="white" stroke="#bfbfbf" points="807.5,-0.5 807.5,-19.5 932.5,-19.5 932.5,-0.5 807.5,-0.5"/>
<text text-anchor="middle" x="870" y="-7.5" font-family="Helvetica,sans-Serif" font-size="10.00">imgui_impl_opengl3.h</text>
</a>
</g>
</g>
<!-- Node1&#45;&gt;Node12 -->
<g id="edge11" class="edge">
<title>Node1&#45;&gt;Node12</title>
<path fill="none" stroke="midnightblue" d="M679.81,-56.44C718.99,-47.08 781.88,-32.06 824.52,-21.87"/>
<polygon fill="midnightblue" stroke="midnightblue" points="825.44,-25.24 834.36,-19.52 823.82,-18.44 825.44,-25.24"/>
</g>
<!-- Node13 -->
<g id="node13" class="node">
<title>Node13</title>
<g id="a_node13"><a xlink:title=" ">
<polygon fill="white" stroke="#bfbfbf" points="951,-0.5 951,-19.5 1037,-19.5 1037,-0.5 951,-0.5"/>
<text text-anchor="middle" x="994" y="-7.5" font-family="Helvetica,sans-Serif" font-size="10.00">imgui_stdlib.h</text>
</a>
</g>
</g>
<!-- Node1&#45;&gt;Node13 -->
<g id="edge12" class="edge">
<title>Node1&#45;&gt;Node13</title>
<path fill="none" stroke="midnightblue" d="M687.48,-58.73C743.62,-50.58 844.62,-35.68 940.97,-20.14"/>
<polygon fill="midnightblue" stroke="midnightblue" points="941.57,-23.59 950.88,-18.54 940.45,-16.68 941.57,-23.59"/>
</g>
<!-- Node14 -->
<g id="node14" class="node">
<title>Node14</title>
<g id="a_node14"><a xlink:title=" ">
<polygon fill="white" stroke="#bfbfbf" points="1055,-0.5 1055,-19.5 1151,-19.5 1151,-0.5 1055,-0.5"/>
<text text-anchor="middle" x="1103" y="-7.5" font-family="Helvetica,sans-Serif" font-size="10.00">imgui_internal.h</text>
</a>
</g>
</g>
<!-- Node1&#45;&gt;Node14 -->
<g id="edge13" class="edge">
<title>Node1&#45;&gt;Node14</title>
<path fill="none" stroke="midnightblue" d="M687.21,-60.81C759.13,-53.69 908.17,-38.35 1044.6,-20.14"/>
<polygon fill="midnightblue" stroke="midnightblue" points="1045.38,-23.56 1054.82,-18.76 1044.44,-16.63 1045.38,-23.56"/>
</g>
<!-- Node15 -->
<g id="node15" class="node">
<title>Node15</title>
<g id="a_node15"><a xlink:title=" ">
<polygon fill="white" stroke="#bfbfbf" points="1169,-0.5 1169,-19.5 1261,-19.5 1261,-0.5 1169,-0.5"/>
<text text-anchor="middle" x="1215" y="-7.5" font-family="Helvetica,sans-Serif" font-size="10.00">imfilebrowser.h</text>
</a>
</g>
</g>
<!-- Node1&#45;&gt;Node15 -->
<g id="edge14" class="edge">
<title>Node1&#45;&gt;Node15</title>
<path fill="none" stroke="midnightblue" d="M687.27,-62.33C774.48,-56.71 977.82,-42.4 1158.85,-20.06"/>
<polygon fill="midnightblue" stroke="midnightblue" points="1159.33,-23.52 1168.82,-18.81 1158.47,-16.58 1159.33,-23.52"/>
</g>
<!-- Node16 -->
<g id="node16" class="node">
<title>Node16</title>
<g id="a_node16"><a xlink:title=" ">
<polygon fill="white" stroke="#bfbfbf" points="1279,-0.5 1279,-19.5 1345,-19.5 1345,-0.5 1279,-0.5"/>
<text text-anchor="middle" x="1312" y="-7.5" font-family="Helvetica,sans-Serif" font-size="10.00">libnpy.hpp</text>
</a>
</g>
</g>
<!-- Node1&#45;&gt;Node16 -->
<g id="edge15" class="edge">
<title>Node1&#45;&gt;Node16</title>
<path fill="none" stroke="midnightblue" d="M687.1,-63.97C787.47,-61.12 1044.68,-51.28 1268.64,-20"/>
<polygon fill="midnightblue" stroke="midnightblue" points="1269.19,-23.46 1278.6,-18.6 1268.21,-16.53 1269.19,-23.46"/>
</g>
<!-- Node17 -->
<g id="node17" class="node">
<title>Node17</title>
<g id="a_node17"><a xlink:title=" ">
<polygon fill="white" stroke="#bfbfbf" points="1363,-0.5 1363,-19.5 1465,-19.5 1465,-0.5 1363,-0.5"/>
<text text-anchor="middle" x="1414" y="-7.5" font-family="Helvetica,sans-Serif" font-size="10.00">tinycolormap.hpp</text>
</a>
</g>
</g>
<!-- Node1&#45;&gt;Node17 -->
<g id="edge16" class="edge">
<title>Node1&#45;&gt;Node17</title>
<path fill="none" stroke="midnightblue" d="M687.33,-63.55C796.99,-59.59 1094.54,-47.13 1353.02,-20.01"/>
<polygon fill="midnightblue" stroke="midnightblue" points="1353.4,-23.49 1362.98,-18.96 1352.66,-16.53 1353.4,-23.49"/>
</g>
<!-- Node18 -->
<g id="node18" class="node">
<title>Node18</title>
<g id="a_node18"><a xlink:title=" ">
<polygon fill="white" stroke="#bfbfbf" points="1483,-0.5 1483,-19.5 1543,-19.5 1543,-0.5 1483,-0.5"/>
<text text-anchor="middle" x="1513" y="-7.5" font-family="Helvetica,sans-Serif" font-size="10.00">fft2d.hpp</text>
</a>
</g>
</g>
<!-- Node1&#45;&gt;Node18 -->
<g id="edge17" class="edge">
<title>Node1&#45;&gt;Node18</title>
<path fill="none" stroke="midnightblue" d="M687.02,-65.28C808.94,-65.51 1167.2,-62.35 1472.92,-19.89"/>
<polygon fill="midnightblue" stroke="midnightblue" points="1473.45,-23.35 1482.86,-18.5 1472.47,-16.42 1473.45,-23.35"/>
</g>
</g>
</svg>
