<?xml version="1.0" encoding="UTF-8" standalone="no"?>
<!DOCTYPE svg PUBLIC "-//W3C//DTD SVG 1.1//EN"
 "http://www.w3.org/Graphics/SVG/1.1/DTD/svg11.dtd">
<!-- Generated by graphviz version 2.43.0 (0)
 -->
<!-- Title: src/Camera.h Pages: 1 -->
<svg width="415pt" height="140pt"
 viewBox="0.00 0.00 414.50 140.00" xmlns="http://www.w3.org/2000/svg" xmlns:xlink="http://www.w3.org/1999/xlink">
<g id="graph0" class="graph" transform="scale(1 1) rotate(0) translate(4 136)">
<title>src/Camera.h</title>
<polygon fill="white" stroke="transparent" points="-4,4 -4,-136 410.5,-136 410.5,4 -4,4"/>
<!-- Node1 -->
<g id="node1" class="node">
<title>Node1</title>
<g id="a_node1"><a xlink:title=" ">
<polygon fill="#bfbfbf" stroke="black" points="111.5,-112.5 111.5,-131.5 192.5,-131.5 192.5,-112.5 111.5,-112.5"/>
<text text-anchor="middle" x="152" y="-119.5" font-family="Helvetica,sans-Serif" font-size="10.00">src/Camera.h</text>
</a>
</g>
</g>
<!-- Node2 -->
<g id="node2" class="node">
<title>Node2</title>
<g id="a_node2"><a xlink:href="../../da/d8c/Camera_8cpp.html" target="_top" xlink:title=" ">
<polygon fill="white" stroke="black" points="0,-56.5 0,-75.5 92,-75.5 92,-56.5 0,-56.5"/>
<text text-anchor="middle" x="46" y="-63.5" font-family="Helvetica,sans-Serif" font-size="10.00">src/Camera.cpp</text>
</a>
</g>
</g>
<!-- Node1&#45;&gt;Node2 -->
<g id="edge1" class="edge">
<title>Node1&#45;&gt;Node2</title>
<path fill="none" stroke="midnightblue" d="M125.94,-107.73C106.32,-97.73 79.97,-84.31 62.99,-75.65"/>
<polygon fill="midnightblue" stroke="midnightblue" points="124.47,-110.9 134.97,-112.32 127.65,-104.67 124.47,-110.9"/>
</g>
<!-- Node3 -->
<g id="node3" class="node">
<title>Node3</title>
<g id="a_node3"><a xlink:href="../../df/d0a/main_8cpp.html" target="_top" xlink:title=" ">
<polygon fill="white" stroke="black" points="8.5,-0.5 8.5,-19.5 87.5,-19.5 87.5,-0.5 8.5,-0.5"/>
<text text-anchor="middle" x="48" y="-7.5" font-family="Helvetica,sans-Serif" font-size="10.00">src/main.cpp</text>
</a>
</g>
</g>
<!-- Node1&#45;&gt;Node3 -->
<g id="edge2" class="edge">
<title>Node1&#45;&gt;Node3</title>
<path fill="none" stroke="midnightblue" d="M139.94,-103.74C130.12,-90.18 115.54,-71.12 101,-56 87.78,-42.26 70.69,-28.34 59.54,-19.69"/>
<polygon fill="midnightblue" stroke="midnightblue" points="137.26,-106.02 145.92,-112.13 142.97,-101.96 137.26,-106.02"/>
</g>
<!-- Node4 -->
<g id="node4" class="node">
<title>Node4</title>
<g id="a_node4"><a xlink:href="../../de/dfc/Ricom_8h.html" target="_top" xlink:title=" ">
<polygon fill="white" stroke="black" points="148,-56.5 148,-75.5 222,-75.5 222,-56.5 148,-56.5"/>
<text text-anchor="middle" x="185" y="-63.5" font-family="Helvetica,sans-Serif" font-size="10.00">src/Ricom.h</text>
</a>
</g>
</g>
<!-- Node1&#45;&gt;Node4 -->
<g id="edge3" class="edge">
<title>Node1&#45;&gt;Node4</title>
<path fill="none" stroke="midnightblue" d="M162.83,-103.27C168.47,-94.05 175.12,-83.17 179.65,-75.75"/>
<polygon fill="midnightblue" stroke="midnightblue" points="159.68,-101.73 157.45,-112.08 165.65,-105.38 159.68,-101.73"/>
</g>
<!-- Node7 -->
<g id="node7" class="node">
<title>Node7</title>
<g id="a_node7"><a xlink:href="../../d2/d30/RunGUI_8cpp.html" target="_top" xlink:title=" ">
<polygon fill="white" stroke="black" points="315.5,-0.5 315.5,-19.5 406.5,-19.5 406.5,-0.5 315.5,-0.5"/>
<text text-anchor="middle" x="361" y="-7.5" font-family="Helvetica,sans-Serif" font-size="10.00">src/RunGUI.cpp</text>
</a>
</g>
</g>
<!-- Node1&#45;&gt;Node7 -->
<g id="edge8" class="edge">
<title>Node1&#45;&gt;Node7</title>
<path fill="none" stroke="midnightblue" d="M177.48,-107.59C220.99,-84.69 308.43,-38.67 344.68,-19.59"/>
<polygon fill="midnightblue" stroke="midnightblue" points="175.62,-104.61 168.4,-112.37 178.88,-110.81 175.62,-104.61"/>
</g>
<!-- Node4&#45;&gt;Node3 -->
<g id="edge4" class="edge">
<title>Node4&#45;&gt;Node3</title>
<path fill="none" stroke="midnightblue" d="M153.98,-52.77C128.24,-42.63 92.31,-28.47 69.61,-19.52"/>
<polygon fill="midnightblue" stroke="midnightblue" points="152.71,-56.03 163.29,-56.44 155.27,-49.52 152.71,-56.03"/>
</g>
<!-- Node5 -->
<g id="node5" class="node">
<title>Node5</title>
<g id="a_node5"><a xlink:href="../../d4/d9b/Ricom_8cpp.html" target="_top" xlink:title=" ">
<polygon fill="white" stroke="black" points="105.5,-0.5 105.5,-19.5 190.5,-19.5 190.5,-0.5 105.5,-0.5"/>
<text text-anchor="middle" x="148" y="-7.5" font-family="Helvetica,sans-Serif" font-size="10.00">src/Ricom.cpp</text>
</a>
</g>
</g>
<!-- Node4&#45;&gt;Node5 -->
<g id="edge5" class="edge">
<title>Node4&#45;&gt;Node5</title>
<path fill="none" stroke="midnightblue" d="M173.05,-47.57C166.69,-38.27 159.13,-27.25 154,-19.75"/>
<polygon fill="midnightblue" stroke="midnightblue" points="170.35,-49.81 178.89,-56.08 176.13,-45.86 170.35,-49.81"/>
</g>
<!-- Node6 -->
<g id="node6" class="node">
<title>Node6</title>
<g id="a_node6"><a xlink:href="../../d5/d6c/RunCLI_8cpp.html" target="_top" xlink:title=" ">
<polygon fill="white" stroke="black" points="209,-0.5 209,-19.5 297,-19.5 297,-0.5 209,-0.5"/>
<text text-anchor="middle" x="253" y="-7.5" font-family="Helvetica,sans-Serif" font-size="10.00">src/RunCLI.cpp</text>
</a>
</g>
</g>
<!-- Node4&#45;&gt;Node6 -->
<g id="edge6" class="edge">
<title>Node4&#45;&gt;Node6</title>
<path fill="none" stroke="midnightblue" d="M203.76,-50.1C216,-40.38 231.56,-28.03 241.88,-19.83"/>
<polygon fill="midnightblue" stroke="midnightblue" points="201.58,-47.36 195.93,-56.32 205.93,-52.85 201.58,-47.36"/>
</g>
<!-- Node4&#45;&gt;Node7 -->
<g id="edge7" class="edge">
<title>Node4&#45;&gt;Node7</title>
<path fill="none" stroke="midnightblue" d="M222.69,-53.44C255.87,-43.26 303.43,-28.66 333.24,-19.52"/>
<polygon fill="midnightblue" stroke="midnightblue" points="221.42,-50.16 212.89,-56.44 223.47,-56.86 221.42,-50.16"/>
</g>
</g>
</svg>
