<?xml version="1.0" encoding="UTF-8" standalone="no"?>
<!DOCTYPE svg PUBLIC "-//W3C//DTD SVG 1.1//EN"
 "http://www.w3.org/Graphics/SVG/1.1/DTD/svg11.dtd">
<!-- Generated by graphviz version 2.43.0 (0)
 -->
<!-- Title: src/Ricom.cpp Pages: 1 -->
<svg width="2195pt" height="196pt"
 viewBox="0.00 0.00 2194.50 196.00" xmlns="http://www.w3.org/2000/svg" xmlns:xlink="http://www.w3.org/1999/xlink">
<g id="graph0" class="graph" transform="scale(1 1) rotate(0) translate(4 192)">
<title>src/Ricom.cpp</title>
<polygon fill="white" stroke="transparent" points="-4,4 -4,-192 2190.5,-192 2190.5,4 -4,4"/>
<!-- Node1 -->
<g id="node1" class="node">
<title>Node1</title>
<g id="a_node1"><a xlink:title=" ">
<polygon fill="#bfbfbf" stroke="black" points="1282.5,-168.5 1282.5,-187.5 1367.5,-187.5 1367.5,-168.5 1282.5,-168.5"/>
<text text-anchor="middle" x="1325" y="-175.5" font-family="Helvetica,sans-Serif" font-size="10.00">src/Ricom.cpp</text>
</a>
</g>
</g>
<!-- Node2 -->
<g id="node2" class="node">
<title>Node2</title>
<g id="a_node2"><a xlink:href="../../de/dfc/Ricom_8h.html" target="_top" xlink:title=" ">
<polygon fill="white" stroke="black" points="1297,-112.5 1297,-131.5 1353,-131.5 1353,-112.5 1297,-112.5"/>
<text text-anchor="middle" x="1325" y="-119.5" font-family="Helvetica,sans-Serif" font-size="10.00">Ricom.h</text>
</a>
</g>
</g>
<!-- Node1&#45;&gt;Node2 -->
<g id="edge1" class="edge">
<title>Node1&#45;&gt;Node2</title>
<path fill="none" stroke="midnightblue" d="M1325,-168.08C1325,-161.01 1325,-150.86 1325,-141.99"/>
<polygon fill="midnightblue" stroke="midnightblue" points="1328.5,-141.75 1325,-131.75 1321.5,-141.75 1328.5,-141.75"/>
</g>
<!-- Node3 -->
<g id="node3" class="node">
<title>Node3</title>
<g id="a_node3"><a xlink:title=" ">
<polygon fill="white" stroke="#bfbfbf" points="406,-0.5 406,-19.5 462,-19.5 462,-0.5 406,-0.5"/>
<text text-anchor="middle" x="434" y="-7.5" font-family="Helvetica,sans-Serif" font-size="10.00">unistd.h</text>
</a>
</g>
</g>
<!-- Node2&#45;&gt;Node3 -->
<g id="edge2" class="edge">
<title>Node2&#45;&gt;Node3</title>
<path fill="none" stroke="midnightblue" d="M1296.72,-120.36C1180.76,-117.54 741.42,-105.13 606,-76 552.83,-64.56 494.25,-39.56 461.01,-24.11"/>
<polygon fill="midnightblue" stroke="midnightblue" points="462.08,-20.75 451.54,-19.65 459.1,-27.08 462.08,-20.75"/>
</g>
<!-- Node4 -->
<g id="node4" class="node">
<title>Node4</title>
<g id="a_node4"><a xlink:title=" ">
<polygon fill="white" stroke="#bfbfbf" points="1264.5,-0.5 1264.5,-19.5 1311.5,-19.5 1311.5,-0.5 1264.5,-0.5"/>
<text text-anchor="middle" x="1288" y="-7.5" font-family="Helvetica,sans-Serif" font-size="10.00">cmath</text>
</a>
</g>
</g>
<!-- Node2&#45;&gt;Node4 -->
<g id="edge3" class="edge">
<title>Node2&#45;&gt;Node4</title>
<path fill="none" stroke="midnightblue" d="M1320.29,-112.25C1315.64,-103.33 1308.59,-89.01 1304,-76 1298.62,-60.74 1294.36,-42.86 1291.59,-29.71"/>
<polygon fill="midnightblue" stroke="midnightblue" points="1294.96,-28.68 1289.55,-19.57 1288.09,-30.06 1294.96,-28.68"/>
</g>
<!-- Node5 -->
<g id="node5" class="node">
<title>Node5</title>
<g id="a_node5"><a xlink:title=" ">
<polygon fill="white" stroke="#bfbfbf" points="1475,-56.5 1475,-75.5 1525,-75.5 1525,-56.5 1475,-56.5"/>
<text text-anchor="middle" x="1500" y="-63.5" font-family="Helvetica,sans-Serif" font-size="10.00">stdio.h</text>
</a>
</g>
</g>
<!-- Node2&#45;&gt;Node5 -->
<g id="edge4" class="edge">
<title>Node2&#45;&gt;Node5</title>
<path fill="none" stroke="midnightblue" d="M1352.73,-112.44C1383.21,-103.04 1432.23,-87.91 1465.26,-77.72"/>
<polygon fill="midnightblue" stroke="midnightblue" points="1466.43,-81.02 1474.95,-74.73 1464.36,-74.33 1466.43,-81.02"/>
</g>
<!-- Node6 -->
<g id="node6" class="node">
<title>Node6</title>
<g id="a_node6"><a xlink:title=" ">
<polygon fill="white" stroke="#bfbfbf" points="1398.5,-0.5 1398.5,-19.5 1457.5,-19.5 1457.5,-0.5 1398.5,-0.5"/>
<text text-anchor="middle" x="1428" y="-7.5" font-family="Helvetica,sans-Serif" font-size="10.00">complex</text>
</a>
</g>
</g>
<!-- Node2&#45;&gt;Node6 -->
<g id="edge5" class="edge">
<title>Node2&#45;&gt;Node6</title>
<path fill="none" stroke="midnightblue" d="M1326.23,-112.47C1328.55,-99.07 1334.68,-72.88 1349,-56 1361.09,-41.74 1378.9,-31.05 1394.55,-23.67"/>
<polygon fill="midnightblue" stroke="midnightblue" points="1396.22,-26.76 1403.94,-19.5 1393.38,-20.36 1396.22,-26.76"/>
</g>
<!-- Node7 -->
<g id="node7" class="node">
<title>Node7</title>
<g id="a_node7"><a xlink:title=" ">
<polygon fill="white" stroke="#bfbfbf" points="1543,-56.5 1543,-75.5 1587,-75.5 1587,-56.5 1543,-56.5"/>
<text text-anchor="middle" x="1565" y="-63.5" font-family="Helvetica,sans-Serif" font-size="10.00">cfloat</text>
</a>
</g>
</g>
<!-- Node2&#45;&gt;Node7 -->
<g id="edge6" class="edge">
<title>Node2&#45;&gt;Node7</title>
<path fill="none" stroke="midnightblue" d="M1353.2,-115.58C1391.69,-108.05 1462.98,-93.59 1532.85,-76.16"/>
<polygon fill="midnightblue" stroke="midnightblue" points="1533.86,-79.51 1542.7,-73.68 1532.15,-72.73 1533.86,-79.51"/>
</g>
<!-- Node8 -->
<g id="node8" class="node">
<title>Node8</title>
<g id="a_node8"><a xlink:title=" ">
<polygon fill="white" stroke="#bfbfbf" points="1040.5,-0.5 1040.5,-19.5 1087.5,-19.5 1087.5,-0.5 1040.5,-0.5"/>
<text text-anchor="middle" x="1064" y="-7.5" font-family="Helvetica,sans-Serif" font-size="10.00">vector</text>
</a>
</g>
</g>
<!-- Node2&#45;&gt;Node8 -->
<g id="edge7" class="edge">
<title>Node2&#45;&gt;Node8</title>
<path fill="none" stroke="midnightblue" d="M1296.62,-118.24C1243.59,-112.61 1132.02,-98.42 1101,-76 1085.25,-64.62 1075.27,-44.33 1069.69,-29.43"/>
<polygon fill="midnightblue" stroke="midnightblue" points="1072.93,-28.09 1066.4,-19.75 1066.31,-30.34 1072.93,-28.09"/>
</g>
<!-- Node9 -->
<g id="node9" class="node">
<title>Node9</title>
<g id="a_node9"><a xlink:title=" ">
<polygon fill="white" stroke="#bfbfbf" points="847,-0.5 847,-19.5 891,-19.5 891,-0.5 847,-0.5"/>
<text text-anchor="middle" x="869" y="-7.5" font-family="Helvetica,sans-Serif" font-size="10.00">string</text>
</a>
</g>
</g>
<!-- Node2&#45;&gt;Node9 -->
<g id="edge8" class="edge">
<title>Node2&#45;&gt;Node9</title>
<path fill="none" stroke="midnightblue" d="M1296.89,-119.48C1221.67,-115.1 1017.24,-101.16 955,-76 927.22,-64.77 900.55,-42.17 884.47,-26.81"/>
<polygon fill="midnightblue" stroke="midnightblue" points="886.66,-24.05 877.08,-19.53 881.75,-29.04 886.66,-24.05"/>
</g>
<!-- Node10 -->
<g id="node10" class="node">
<title>Node10</title>
<g id="a_node10"><a xlink:title=" ">
<polygon fill="white" stroke="#bfbfbf" points="1605,-56.5 1605,-75.5 1649,-75.5 1649,-56.5 1605,-56.5"/>
<text text-anchor="middle" x="1627" y="-63.5" font-family="Helvetica,sans-Serif" font-size="10.00">SDL.h</text>
</a>
</g>
</g>
<!-- Node2&#45;&gt;Node10 -->
<g id="edge9" class="edge">
<title>Node2&#45;&gt;Node10</title>
<path fill="none" stroke="midnightblue" d="M1353.3,-117.42C1401.15,-111.13 1501.19,-96.94 1594.82,-76.05"/>
<polygon fill="midnightblue" stroke="midnightblue" points="1595.75,-79.43 1604.73,-73.81 1594.21,-72.6 1595.75,-79.43"/>
</g>
<!-- Node11 -->
<g id="node11" class="node">
<title>Node11</title>
<g id="a_node11"><a xlink:title=" ">
<polygon fill="white" stroke="#bfbfbf" points="0,-0.5 0,-19.5 48,-19.5 48,-0.5 0,-0.5"/>
<text text-anchor="middle" x="24" y="-7.5" font-family="Helvetica,sans-Serif" font-size="10.00">mutex</text>
</a>
</g>
</g>
<!-- Node2&#45;&gt;Node11 -->
<g id="edge10" class="edge">
<title>Node2&#45;&gt;Node11</title>
<path fill="none" stroke="midnightblue" d="M1296.97,-120.79C1148.35,-119.56 451.34,-111.9 239,-76 171.87,-64.65 96.29,-38.54 55.02,-23.09"/>
<polygon fill="midnightblue" stroke="midnightblue" points="56.13,-19.77 45.54,-19.5 53.65,-26.32 56.13,-19.77"/>
</g>
<!-- Node12 -->
<g id="node12" class="node">
<title>Node12</title>
<g id="a_node12"><a xlink:title=" ">
<polygon fill="white" stroke="#bfbfbf" points="1667,-56.5 1667,-75.5 1713,-75.5 1713,-56.5 1667,-56.5"/>
<text text-anchor="middle" x="1690" y="-63.5" font-family="Helvetica,sans-Serif" font-size="10.00">future</text>
</a>
</g>
</g>
<!-- Node2&#45;&gt;Node12 -->
<g id="edge11" class="edge">
<title>Node2&#45;&gt;Node12</title>
<path fill="none" stroke="midnightblue" d="M1353.29,-118.52C1409.43,-113.32 1538.98,-99.89 1656.77,-76.01"/>
<polygon fill="midnightblue" stroke="midnightblue" points="1657.59,-79.41 1666.67,-73.97 1656.17,-72.56 1657.59,-79.41"/>
</g>
<!-- Node13 -->
<g id="node13" class="node">
<title>Node13</title>
<g id="a_node13"><a xlink:title=" ">
<polygon fill="white" stroke="#bfbfbf" points="340,-0.5 340,-19.5 388,-19.5 388,-0.5 340,-0.5"/>
<text text-anchor="middle" x="364" y="-7.5" font-family="Helvetica,sans-Serif" font-size="10.00">thread</text>
</a>
</g>
</g>
<!-- Node2&#45;&gt;Node13 -->
<g id="edge12" class="edge">
<title>Node2&#45;&gt;Node13</title>
<path fill="none" stroke="midnightblue" d="M1296.88,-120.55C1174.17,-118.4 684.97,-107.98 535,-76 482.08,-64.72 423.86,-39.66 390.83,-24.16"/>
<polygon fill="midnightblue" stroke="midnightblue" points="391.96,-20.82 381.43,-19.69 388.95,-27.14 391.96,-20.82"/>
</g>
<!-- Node14 -->
<g id="node14" class="node">
<title>Node14</title>
<g id="a_node14"><a xlink:title=" ">
<polygon fill="white" stroke="#bfbfbf" points="1731,-56.5 1731,-75.5 1781,-75.5 1781,-56.5 1731,-56.5"/>
<text text-anchor="middle" x="1756" y="-63.5" font-family="Helvetica,sans-Serif" font-size="10.00">fftw3.h</text>
</a>
</g>
</g>
<!-- Node2&#45;&gt;Node14 -->
<g id="edge13" class="edge">
<title>Node2&#45;&gt;Node14</title>
<path fill="none" stroke="midnightblue" d="M1353.13,-119.23C1416.92,-114.91 1577.54,-102.34 1720.98,-75.94"/>
<polygon fill="midnightblue" stroke="midnightblue" points="1721.66,-79.37 1730.84,-74.1 1720.37,-72.49 1721.66,-79.37"/>
</g>
<!-- Node15 -->
<g id="node15" class="node">
<title>Node15</title>
<g id="a_node15"><a xlink:title=" ">
<polygon fill="white" stroke="#bfbfbf" points="1330,-0.5 1330,-19.5 1380,-19.5 1380,-0.5 1330,-0.5"/>
<text text-anchor="middle" x="1355" y="-7.5" font-family="Helvetica,sans-Serif" font-size="10.00">chrono</text>
</a>
</g>
</g>
<!-- Node2&#45;&gt;Node15 -->
<g id="edge14" class="edge">
<title>Node2&#45;&gt;Node15</title>
<path fill="none" stroke="midnightblue" d="M1319.96,-112.3C1313.26,-99.56 1303.16,-75.24 1311,-56 1315.8,-44.23 1325.33,-33.86 1334.29,-26.05"/>
<polygon fill="midnightblue" stroke="midnightblue" points="1336.65,-28.64 1342.22,-19.63 1332.25,-23.2 1336.65,-28.64"/>
</g>
<!-- Node16 -->
<g id="node16" class="node">
<title>Node16</title>
<g id="a_node16"><a xlink:title=" ">
<polygon fill="white" stroke="#bfbfbf" points="1799,-56.5 1799,-75.5 1863,-75.5 1863,-56.5 1799,-56.5"/>
<text text-anchor="middle" x="1831" y="-63.5" font-family="Helvetica,sans-Serif" font-size="10.00">algorithm</text>
</a>
</g>
</g>
<!-- Node2&#45;&gt;Node16 -->
<g id="edge15" class="edge">
<title>Node2&#45;&gt;Node16</title>
<path fill="none" stroke="midnightblue" d="M1353.19,-119.45C1424.51,-115.28 1618,-102.41 1788.91,-75.99"/>
<polygon fill="midnightblue" stroke="midnightblue" points="1789.5,-79.44 1798.84,-74.44 1788.42,-72.53 1789.5,-79.44"/>
</g>
<!-- Node17 -->
<g id="node17" class="node">
<title>Node17</title>
<g id="a_node17"><a xlink:href="../../d7/d50/BoundedThreadPool_8hpp.html" target="_top" xlink:title=" ">
<polygon fill="white" stroke="black" points="248.5,-56.5 248.5,-75.5 383.5,-75.5 383.5,-56.5 248.5,-56.5"/>
<text text-anchor="middle" x="316" y="-63.5" font-family="Helvetica,sans-Serif" font-size="10.00">BoundedThreadPool.hpp</text>
</a>
</g>
</g>
<!-- Node2&#45;&gt;Node17 -->
<g id="edge16" class="edge">
<title>Node2&#45;&gt;Node17</title>
<path fill="none" stroke="midnightblue" d="M1296.92,-119.59C1189.51,-114.17 794.4,-94.12 469,-76 444.59,-74.64 418,-73.1 393.93,-71.68"/>
<polygon fill="midnightblue" stroke="midnightblue" points="393.97,-68.17 383.78,-71.08 393.56,-75.16 393.97,-68.17"/>
</g>
<!-- Node23 -->
<g id="node23" class="node">
<title>Node23</title>
<g id="a_node23"><a xlink:title=" ">
<polygon fill="white" stroke="#bfbfbf" points="1476,-0.5 1476,-19.5 1578,-19.5 1578,-0.5 1476,-0.5"/>
<text text-anchor="middle" x="1527" y="-7.5" font-family="Helvetica,sans-Serif" font-size="10.00">tinycolormap.hpp</text>
</a>
</g>
</g>
<!-- Node2&#45;&gt;Node23 -->
<g id="edge24" class="edge">
<title>Node2&#45;&gt;Node23</title>
<path fill="none" stroke="midnightblue" d="M1330.33,-112.5C1339.45,-98.65 1359.36,-71.24 1383,-56 1408.49,-39.57 1440.38,-28.8 1467.66,-21.92"/>
<polygon fill="midnightblue" stroke="midnightblue" points="1468.58,-25.3 1477.49,-19.57 1466.95,-18.5 1468.58,-25.3"/>
</g>
<!-- Node24 -->
<g id="node24" class="node">
<title>Node24</title>
<g id="a_node24"><a xlink:title=" ">
<polygon fill="white" stroke="#bfbfbf" points="1881,-56.5 1881,-75.5 1941,-75.5 1941,-56.5 1881,-56.5"/>
<text text-anchor="middle" x="1911" y="-63.5" font-family="Helvetica,sans-Serif" font-size="10.00">fft2d.hpp</text>
</a>
</g>
</g>
<!-- Node2&#45;&gt;Node24 -->
<g id="edge25" class="edge">
<title>Node2&#45;&gt;Node24</title>
<path fill="none" stroke="midnightblue" d="M1353.06,-120.12C1432.71,-117.34 1667.03,-107.05 1870.86,-75.96"/>
<polygon fill="midnightblue" stroke="midnightblue" points="1871.5,-79.4 1880.85,-74.41 1870.43,-72.48 1871.5,-79.4"/>
</g>
<!-- Node25 -->
<g id="node25" class="node">
<title>Node25</title>
<g id="a_node25"><a xlink:href="../../d0/d3c/SocketConnector_8h.html" target="_top" xlink:title=" ">
<polygon fill="white" stroke="black" points="615.5,-56.5 615.5,-75.5 722.5,-75.5 722.5,-56.5 615.5,-56.5"/>
<text text-anchor="middle" x="669" y="-63.5" font-family="Helvetica,sans-Serif" font-size="10.00">SocketConnector.h</text>
</a>
</g>
</g>
<!-- Node2&#45;&gt;Node25 -->
<g id="edge26" class="edge">
<title>Node2&#45;&gt;Node25</title>
<path fill="none" stroke="midnightblue" d="M1296.81,-118.68C1198.96,-110.62 872.32,-83.74 732.93,-72.26"/>
<polygon fill="midnightblue" stroke="midnightblue" points="733.08,-68.76 722.82,-71.43 732.5,-75.74 733.08,-68.76"/>
</g>
<!-- Node29 -->
<g id="node29" class="node">
<title>Node29</title>
<g id="a_node29"><a xlink:href="../../da/dce/ProgressMonitor_8h.html" target="_top" xlink:title=" ">
<polygon fill="white" stroke="black" points="1110,-56.5 1110,-75.5 1214,-75.5 1214,-56.5 1110,-56.5"/>
<text text-anchor="middle" x="1162" y="-63.5" font-family="Helvetica,sans-Serif" font-size="10.00">ProgressMonitor.h</text>
</a>
</g>
</g>
<!-- Node2&#45;&gt;Node29 -->
<g id="edge33" class="edge">
<title>Node2&#45;&gt;Node29</title>
<path fill="none" stroke="midnightblue" d="M1299.17,-112.44C1271.75,-103.36 1228.22,-88.94 1197.57,-78.78"/>
<polygon fill="midnightblue" stroke="midnightblue" points="1198.3,-75.34 1187.71,-75.52 1196.1,-81.98 1198.3,-75.34"/>
</g>
<!-- Node32 -->
<g id="node32" class="node">
<title>Node32</title>
<g id="a_node32"><a xlink:title=" ">
<polygon fill="white" stroke="#bfbfbf" points="1959,-56.5 1959,-75.5 2059,-75.5 2059,-56.5 1959,-56.5"/>
<text text-anchor="middle" x="2009" y="-63.5" font-family="Helvetica,sans-Serif" font-size="10.00">MerlinInterface.h</text>
</a>
</g>
</g>
<!-- Node2&#45;&gt;Node32 -->
<g id="edge41" class="edge">
<title>Node2&#45;&gt;Node32</title>
<path fill="none" stroke="midnightblue" d="M1353.11,-119.77C1440.03,-115.81 1712.4,-102.15 1948.67,-76.06"/>
<polygon fill="midnightblue" stroke="midnightblue" points="1949.27,-79.52 1958.82,-74.93 1948.5,-72.56 1949.27,-79.52"/>
</g>
<!-- Node33 -->
<g id="node33" class="node">
<title>Node33</title>
<g id="a_node33"><a xlink:title=" ">
<polygon fill="white" stroke="#bfbfbf" points="2077.5,-56.5 2077.5,-75.5 2186.5,-75.5 2186.5,-56.5 2077.5,-56.5"/>
<text text-anchor="middle" x="2132" y="-63.5" font-family="Helvetica,sans-Serif" font-size="10.00">TimepixInterface.h</text>
</a>
</g>
</g>
<!-- Node2&#45;&gt;Node33 -->
<g id="edge42" class="edge">
<title>Node2&#45;&gt;Node33</title>
<path fill="none" stroke="midnightblue" d="M1353.07,-120.1C1450.32,-116.82 1782.04,-104.23 2067.1,-76"/>
<polygon fill="midnightblue" stroke="midnightblue" points="2067.62,-79.47 2077.22,-74.99 2066.92,-72.51 2067.62,-79.47"/>
</g>
<!-- Node34 -->
<g id="node34" class="node">
<title>Node34</title>
<g id="a_node34"><a xlink:href="../../dd/de4/Camera_8h.html" target="_top" xlink:title=" ">
<polygon fill="white" stroke="black" points="964,-56.5 964,-75.5 1028,-75.5 1028,-56.5 964,-56.5"/>
<text text-anchor="middle" x="996" y="-63.5" font-family="Helvetica,sans-Serif" font-size="10.00">Camera.h</text>
</a>
</g>
</g>
<!-- Node2&#45;&gt;Node34 -->
<g id="edge43" class="edge">
<title>Node2&#45;&gt;Node34</title>
<path fill="none" stroke="midnightblue" d="M1296.95,-116.4C1239.16,-106.91 1106.53,-85.14 1038.28,-73.94"/>
<polygon fill="midnightblue" stroke="midnightblue" points="1038.73,-70.47 1028.3,-72.3 1037.6,-77.38 1038.73,-70.47"/>
</g>
<!-- Node37 -->
<g id="node37" class="node">
<title>Node37</title>
<g id="a_node37"><a xlink:href="../../d7/db2/GuiUtils_8h.html" target="_top" xlink:title=" ">
<polygon fill="white" stroke="black" points="1391.5,-56.5 1391.5,-75.5 1456.5,-75.5 1456.5,-56.5 1391.5,-56.5"/>
<text text-anchor="middle" x="1424" y="-63.5" font-family="Helvetica,sans-Serif" font-size="10.00">GuiUtils.h</text>
</a>
</g>
</g>
<!-- Node2&#45;&gt;Node37 -->
<g id="edge48" class="edge">
<title>Node2&#45;&gt;Node37</title>
<path fill="none" stroke="midnightblue" d="M1340.91,-112.32C1356.64,-103.74 1380.94,-90.49 1399.21,-80.52"/>
<polygon fill="midnightblue" stroke="midnightblue" points="1401.03,-83.52 1408.13,-75.65 1397.68,-77.37 1401.03,-83.52"/>
</g>
<!-- Node17&#45;&gt;Node11 -->
<g id="edge20" class="edge">
<title>Node17&#45;&gt;Node11</title>
<path fill="none" stroke="midnightblue" d="M257.83,-56.5C207.4,-48.76 132.29,-36.38 58.07,-20.07"/>
<polygon fill="midnightblue" stroke="midnightblue" points="58.61,-16.6 48.09,-17.85 57.09,-23.44 58.61,-16.6"/>
</g>
<!-- Node17&#45;&gt;Node13 -->
<g id="edge17" class="edge">
<title>Node17&#45;&gt;Node13</title>
<path fill="none" stroke="midnightblue" d="M323.93,-56.08C330.85,-48.3 341.07,-36.8 349.45,-27.37"/>
<polygon fill="midnightblue" stroke="midnightblue" points="352.19,-29.55 356.22,-19.75 346.96,-24.9 352.19,-29.55"/>
</g>
<!-- Node18 -->
<g id="node18" class="node">
<title>Node18</title>
<g id="a_node18"><a xlink:title=" ">
<polygon fill="white" stroke="#bfbfbf" points="66.5,-0.5 66.5,-19.5 113.5,-19.5 113.5,-0.5 66.5,-0.5"/>
<text text-anchor="middle" x="90" y="-7.5" font-family="Helvetica,sans-Serif" font-size="10.00">queue</text>
</a>
</g>
</g>
<!-- Node17&#45;&gt;Node18 -->
<g id="edge18" class="edge">
<title>Node17&#45;&gt;Node18</title>
<path fill="none" stroke="midnightblue" d="M276.85,-56.48C239.65,-48.25 181.91,-35.17 123.49,-20.31"/>
<polygon fill="midnightblue" stroke="midnightblue" points="124.29,-16.9 113.73,-17.81 122.55,-23.68 124.29,-16.9"/>
</g>
<!-- Node19 -->
<g id="node19" class="node">
<title>Node19</title>
<g id="a_node19"><a xlink:title=" ">
<polygon fill="white" stroke="#bfbfbf" points="131.5,-0.5 131.5,-19.5 196.5,-19.5 196.5,-0.5 131.5,-0.5"/>
<text text-anchor="middle" x="164" y="-7.5" font-family="Helvetica,sans-Serif" font-size="10.00">functional</text>
</a>
</g>
</g>
<!-- Node17&#45;&gt;Node19 -->
<g id="edge19" class="edge">
<title>Node17&#45;&gt;Node19</title>
<path fill="none" stroke="midnightblue" d="M291.92,-56.44C266.46,-47.4 226.11,-33.06 197.54,-22.92"/>
<polygon fill="midnightblue" stroke="midnightblue" points="198.57,-19.57 187.97,-19.52 196.22,-26.16 198.57,-19.57"/>
</g>
<!-- Node20 -->
<g id="node20" class="node">
<title>Node20</title>
<g id="a_node20"><a xlink:title=" ">
<polygon fill="white" stroke="#bfbfbf" points="214.5,-0.5 214.5,-19.5 321.5,-19.5 321.5,-0.5 214.5,-0.5"/>
<text text-anchor="middle" x="268" y="-7.5" font-family="Helvetica,sans-Serif" font-size="10.00">condition_variable</text>
</a>
</g>
</g>
<!-- Node17&#45;&gt;Node20 -->
<g id="edge21" class="edge">
<title>Node17&#45;&gt;Node20</title>
<path fill="none" stroke="midnightblue" d="M308.07,-56.08C301.15,-48.3 290.93,-36.8 282.55,-27.37"/>
<polygon fill="midnightblue" stroke="midnightblue" points="285.04,-24.9 275.78,-19.75 279.81,-29.55 285.04,-24.9"/>
</g>
<!-- Node21 -->
<g id="node21" class="node">
<title>Node21</title>
<g id="a_node21"><a xlink:title=" ">
<polygon fill="white" stroke="#bfbfbf" points="711,-0.5 711,-19.5 761,-19.5 761,-0.5 711,-0.5"/>
<text text-anchor="middle" x="736" y="-7.5" font-family="Helvetica,sans-Serif" font-size="10.00">atomic</text>
</a>
</g>
</g>
<!-- Node17&#45;&gt;Node21 -->
<g id="edge22" class="edge">
<title>Node17&#45;&gt;Node21</title>
<path fill="none" stroke="midnightblue" d="M383.53,-59.89C460.73,-53.41 590.68,-40.53 701,-20 701.1,-19.98 701.2,-19.96 701.3,-19.94"/>
<polygon fill="midnightblue" stroke="midnightblue" points="701.81,-23.41 710.86,-17.9 700.34,-16.57 701.81,-23.41"/>
</g>
<!-- Node22 -->
<g id="node22" class="node">
<title>Node22</title>
<g id="a_node22"><a xlink:title=" ">
<polygon fill="white" stroke="#bfbfbf" points="480,-0.5 480,-19.5 540,-19.5 540,-0.5 480,-0.5"/>
<text text-anchor="middle" x="510" y="-7.5" font-family="Helvetica,sans-Serif" font-size="10.00">iostream</text>
</a>
</g>
</g>
<!-- Node17&#45;&gt;Node22 -->
<g id="edge23" class="edge">
<title>Node17&#45;&gt;Node22</title>
<path fill="none" stroke="midnightblue" d="M346.74,-56.44C380.04,-47.17 433.3,-32.35 469.88,-22.17"/>
<polygon fill="midnightblue" stroke="midnightblue" points="471.03,-25.48 479.72,-19.43 469.15,-18.74 471.03,-25.48"/>
</g>
<!-- Node25&#45;&gt;Node3 -->
<g id="edge28" class="edge">
<title>Node25&#45;&gt;Node3</title>
<path fill="none" stroke="midnightblue" d="M630.63,-56.46C592.74,-47.99 532.89,-34.49 472.04,-20.22"/>
<polygon fill="midnightblue" stroke="midnightblue" points="472.81,-16.8 462.27,-17.92 471.2,-23.62 472.81,-16.8"/>
</g>
<!-- Node25&#45;&gt;Node9 -->
<g id="edge31" class="edge">
<title>Node25&#45;&gt;Node9</title>
<path fill="none" stroke="midnightblue" d="M702.09,-56.42C734.2,-48.05 784.57,-34.78 836.88,-20.27"/>
<polygon fill="midnightblue" stroke="midnightblue" points="837.97,-23.6 846.67,-17.55 836.09,-16.86 837.97,-23.6"/>
</g>
<!-- Node25&#45;&gt;Node22 -->
<g id="edge32" class="edge">
<title>Node25&#45;&gt;Node22</title>
<path fill="none" stroke="midnightblue" d="M643.81,-56.44C617.06,-47.36 574.6,-32.94 544.69,-22.78"/>
<polygon fill="midnightblue" stroke="midnightblue" points="545.67,-19.42 535.08,-19.52 543.42,-26.05 545.67,-19.42"/>
</g>
<!-- Node26 -->
<g id="node26" class="node">
<title>Node26</title>
<g id="a_node26"><a xlink:title=" ">
<polygon fill="white" stroke="#bfbfbf" points="558.5,-0.5 558.5,-19.5 627.5,-19.5 627.5,-0.5 558.5,-0.5"/>
<text text-anchor="middle" x="593" y="-7.5" font-family="Helvetica,sans-Serif" font-size="10.00">arpa/inet.h</text>
</a>
</g>
</g>
<!-- Node25&#45;&gt;Node26 -->
<g id="edge27" class="edge">
<title>Node25&#45;&gt;Node26</title>
<path fill="none" stroke="midnightblue" d="M656.79,-56.32C645.22,-48.11 627.62,-35.6 613.84,-25.81"/>
<polygon fill="midnightblue" stroke="midnightblue" points="615.61,-22.77 605.43,-19.83 611.56,-28.48 615.61,-22.77"/>
</g>
<!-- Node27 -->
<g id="node27" class="node">
<title>Node27</title>
<g id="a_node27"><a xlink:title=" ">
<polygon fill="white" stroke="#bfbfbf" points="645.5,-0.5 645.5,-19.5 692.5,-19.5 692.5,-0.5 645.5,-0.5"/>
<text text-anchor="middle" x="669" y="-7.5" font-family="Helvetica,sans-Serif" font-size="10.00">cerrno</text>
</a>
</g>
</g>
<!-- Node25&#45;&gt;Node27 -->
<g id="edge29" class="edge">
<title>Node25&#45;&gt;Node27</title>
<path fill="none" stroke="midnightblue" d="M669,-56.08C669,-49.01 669,-38.86 669,-29.99"/>
<polygon fill="midnightblue" stroke="midnightblue" points="672.5,-29.75 669,-19.75 665.5,-29.75 672.5,-29.75"/>
</g>
<!-- Node28 -->
<g id="node28" class="node">
<title>Node28</title>
<g id="a_node28"><a xlink:title=" ">
<polygon fill="white" stroke="#bfbfbf" points="779,-0.5 779,-19.5 829,-19.5 829,-0.5 779,-0.5"/>
<text text-anchor="middle" x="804" y="-7.5" font-family="Helvetica,sans-Serif" font-size="10.00">cstring</text>
</a>
</g>
</g>
<!-- Node25&#45;&gt;Node28 -->
<g id="edge30" class="edge">
<title>Node25&#45;&gt;Node28</title>
<path fill="none" stroke="midnightblue" d="M690.39,-56.44C712.71,-47.52 747.9,-33.44 773.21,-23.32"/>
<polygon fill="midnightblue" stroke="midnightblue" points="774.72,-26.48 782.71,-19.52 772.12,-19.98 774.72,-26.48"/>
</g>
<!-- Node29&#45;&gt;Node4 -->
<g id="edge40" class="edge">
<title>Node29&#45;&gt;Node4</title>
<path fill="none" stroke="midnightblue" d="M1181.97,-56.44C1202.61,-47.6 1235.06,-33.69 1258.63,-23.59"/>
<polygon fill="midnightblue" stroke="midnightblue" points="1260.32,-26.67 1268.13,-19.52 1257.56,-20.24 1260.32,-26.67"/>
</g>
<!-- Node29&#45;&gt;Node15 -->
<g id="edge39" class="edge">
<title>Node29&#45;&gt;Node15</title>
<path fill="none" stroke="midnightblue" d="M1192.58,-56.44C1227.27,-46.74 1283.71,-30.95 1320.1,-20.77"/>
<polygon fill="midnightblue" stroke="midnightblue" points="1321.1,-24.12 1329.79,-18.05 1319.22,-17.38 1321.1,-24.12"/>
</g>
<!-- Node29&#45;&gt;Node21 -->
<g id="edge38" class="edge">
<title>Node29&#45;&gt;Node21</title>
<path fill="none" stroke="midnightblue" d="M1109.96,-61.43C1036.45,-55.86 897.92,-43.42 771.05,-19.95"/>
<polygon fill="midnightblue" stroke="midnightblue" points="771.63,-16.5 761.16,-18.09 770.34,-23.38 771.63,-16.5"/>
</g>
<!-- Node29&#45;&gt;Node22 -->
<g id="edge35" class="edge">
<title>Node29&#45;&gt;Node22</title>
<path fill="none" stroke="midnightblue" d="M1109.88,-61.23C974.2,-51.4 616.42,-25.44 550.27,-19.48"/>
<polygon fill="midnightblue" stroke="midnightblue" points="550.45,-15.98 540.15,-18.44 549.73,-22.95 550.45,-15.98"/>
</g>
<!-- Node29&#45;&gt;Node28 -->
<g id="edge37" class="edge">
<title>Node29&#45;&gt;Node28</title>
<path fill="none" stroke="midnightblue" d="M1109.77,-59.71C1047.53,-52.97 940.26,-39.98 839.24,-20.04"/>
<polygon fill="midnightblue" stroke="midnightblue" points="839.66,-16.56 829.17,-18.03 838.29,-23.42 839.66,-16.56"/>
</g>
<!-- Node30 -->
<g id="node30" class="node">
<title>Node30</title>
<g id="a_node30"><a xlink:title=" ">
<polygon fill="white" stroke="#bfbfbf" points="1106,-0.5 1106,-19.5 1172,-19.5 1172,-0.5 1106,-0.5"/>
<text text-anchor="middle" x="1139" y="-7.5" font-family="Helvetica,sans-Serif" font-size="10.00">sys/ioctl.h</text>
</a>
</g>
</g>
<!-- Node29&#45;&gt;Node30 -->
<g id="edge34" class="edge">
<title>Node29&#45;&gt;Node30</title>
<path fill="none" stroke="midnightblue" d="M1158.2,-56.08C1155.09,-48.77 1150.58,-38.18 1146.71,-29.1"/>
<polygon fill="midnightblue" stroke="midnightblue" points="1149.87,-27.58 1142.73,-19.75 1143.43,-30.32 1149.87,-27.58"/>
</g>
<!-- Node31 -->
<g id="node31" class="node">
<title>Node31</title>
<g id="a_node31"><a xlink:title=" ">
<polygon fill="white" stroke="#bfbfbf" points="1190,-0.5 1190,-19.5 1246,-19.5 1246,-0.5 1190,-0.5"/>
<text text-anchor="middle" x="1218" y="-7.5" font-family="Helvetica,sans-Serif" font-size="10.00">iomanip</text>
</a>
</g>
</g>
<!-- Node29&#45;&gt;Node31 -->
<g id="edge36" class="edge">
<title>Node29&#45;&gt;Node31</title>
<path fill="none" stroke="midnightblue" d="M1171,-56.32C1179.19,-48.42 1191.51,-36.55 1201.47,-26.94"/>
<polygon fill="midnightblue" stroke="midnightblue" points="1204.07,-29.29 1208.84,-19.83 1199.21,-24.26 1204.07,-29.29"/>
</g>
<!-- Node34&#45;&gt;Node8 -->
<g id="edge44" class="edge">
<title>Node34&#45;&gt;Node8</title>
<path fill="none" stroke="midnightblue" d="M1006.93,-56.32C1017.17,-48.18 1032.72,-35.84 1045,-26.09"/>
<polygon fill="midnightblue" stroke="midnightblue" points="1047.22,-28.79 1052.88,-19.83 1042.87,-23.31 1047.22,-28.79"/>
</g>
<!-- Node34&#45;&gt;Node21 -->
<g id="edge45" class="edge">
<title>Node34&#45;&gt;Node21</title>
<path fill="none" stroke="midnightblue" d="M963.68,-59.22C921.58,-51.55 845.5,-37.19 771.2,-20.17"/>
<polygon fill="midnightblue" stroke="midnightblue" points="771.74,-16.7 761.21,-17.86 770.16,-23.52 771.74,-16.7"/>
</g>
<!-- Node35 -->
<g id="node35" class="node">
<title>Node35</title>
<g id="a_node35"><a xlink:title=" ">
<polygon fill="white" stroke="#bfbfbf" points="909,-0.5 909,-19.5 951,-19.5 951,-0.5 909,-0.5"/>
<text text-anchor="middle" x="930" y="-7.5" font-family="Helvetica,sans-Serif" font-size="10.00">array</text>
</a>
</g>
</g>
<!-- Node34&#45;&gt;Node35 -->
<g id="edge46" class="edge">
<title>Node34&#45;&gt;Node35</title>
<path fill="none" stroke="midnightblue" d="M985.4,-56.32C975.54,-48.26 960.65,-36.08 948.78,-26.37"/>
<polygon fill="midnightblue" stroke="midnightblue" points="950.75,-23.46 940.8,-19.83 946.32,-28.88 950.75,-23.46"/>
</g>
<!-- Node36 -->
<g id="node36" class="node">
<title>Node36</title>
<g id="a_node36"><a xlink:title=" ">
<polygon fill="white" stroke="#bfbfbf" points="969.5,-0.5 969.5,-19.5 1022.5,-19.5 1022.5,-0.5 969.5,-0.5"/>
<text text-anchor="middle" x="996" y="-7.5" font-family="Helvetica,sans-Serif" font-size="10.00">stdlib.h</text>
</a>
</g>
</g>
<!-- Node34&#45;&gt;Node36 -->
<g id="edge47" class="edge">
<title>Node34&#45;&gt;Node36</title>
<path fill="none" stroke="midnightblue" d="M996,-56.08C996,-49.01 996,-38.86 996,-29.99"/>
<polygon fill="midnightblue" stroke="midnightblue" points="999.5,-29.75 996,-19.75 992.5,-29.75 999.5,-29.75"/>
</g>
<!-- Node37&#45;&gt;Node6 -->
<g id="edge51" class="edge">
<title>Node37&#45;&gt;Node6</title>
<path fill="none" stroke="midnightblue" d="M1424.66,-56.08C1425.18,-49.01 1425.94,-38.86 1426.59,-29.99"/>
<polygon fill="midnightblue" stroke="midnightblue" points="1430.1,-29.98 1427.35,-19.75 1423.12,-29.47 1430.1,-29.98"/>
</g>
<!-- Node37&#45;&gt;Node8 -->
<g id="edge50" class="edge">
<title>Node37&#45;&gt;Node8</title>
<path fill="none" stroke="midnightblue" d="M1391.27,-61.91C1333.81,-56.19 1210.9,-42.59 1097.59,-19.87"/>
<polygon fill="midnightblue" stroke="midnightblue" points="1098.2,-16.42 1087.7,-17.86 1096.81,-23.28 1098.2,-16.42"/>
</g>
<!-- Node37&#45;&gt;Node9 -->
<g id="edge49" class="edge">
<title>Node37&#45;&gt;Node9</title>
<path fill="none" stroke="midnightblue" d="M1391.32,-63.04C1295.07,-57.14 1012.95,-38.87 901.18,-19.81"/>
<polygon fill="midnightblue" stroke="midnightblue" points="901.69,-16.34 891.22,-18.02 900.45,-23.23 901.69,-16.34"/>
</g>
<!-- Node37&#45;&gt;Node23 -->
<g id="edge57" class="edge">
<title>Node37&#45;&gt;Node23</title>
<path fill="none" stroke="midnightblue" d="M1440.55,-56.32C1456.99,-47.7 1482.43,-34.36 1501.47,-24.39"/>
<polygon fill="midnightblue" stroke="midnightblue" points="1503.26,-27.4 1510.49,-19.65 1500.01,-21.2 1503.26,-27.4"/>
</g>
<!-- Node38 -->
<g id="node38" class="node">
<title>Node38</title>
<g id="a_node38"><a xlink:title=" ">
<polygon fill="white" stroke="#bfbfbf" points="1964,-0.5 1964,-19.5 2032,-19.5 2032,-0.5 1964,-0.5"/>
<text text-anchor="middle" x="1998" y="-7.5" font-family="Helvetica,sans-Serif" font-size="10.00">filesystem</text>
</a>
</g>
</g>
<!-- Node37&#45;&gt;Node38 -->
<g id="edge52" class="edge">
<title>Node37&#45;&gt;Node38</title>
<path fill="none" stroke="midnightblue" d="M1456.94,-57.49C1459.99,-56.93 1463.05,-56.42 1466,-56 1678.45,-25.56 1737.43,-49.64 1953.72,-19.99"/>
<polygon fill="midnightblue" stroke="midnightblue" points="1954.38,-23.43 1963.8,-18.58 1953.42,-16.5 1954.38,-23.43"/>
</g>
<!-- Node39 -->
<g id="node39" class="node">
<title>Node39</title>
<g id="a_node39"><a xlink:title=" ">
<polygon fill="white" stroke="#bfbfbf" points="1596,-0.5 1596,-19.5 1676,-19.5 1676,-0.5 1596,-0.5"/>
<text text-anchor="middle" x="1636" y="-7.5" font-family="Helvetica,sans-Serif" font-size="10.00">SDL_image.h</text>
</a>
</g>
</g>
<!-- Node37&#45;&gt;Node39 -->
<g id="edge53" class="edge">
<title>Node37&#45;&gt;Node39</title>
<path fill="none" stroke="midnightblue" d="M1456.66,-56.68C1493.17,-47.38 1552.46,-32.28 1592.78,-22.01"/>
<polygon fill="midnightblue" stroke="midnightblue" points="1593.78,-25.37 1602.6,-19.51 1592.05,-18.58 1593.78,-25.37"/>
</g>
<!-- Node40 -->
<g id="node40" class="node">
<title>Node40</title>
<g id="a_node40"><a xlink:title=" ">
<polygon fill="white" stroke="#bfbfbf" points="1694.5,-0.5 1694.5,-19.5 1747.5,-19.5 1747.5,-0.5 1694.5,-0.5"/>
<text text-anchor="middle" x="1721" y="-7.5" font-family="Helvetica,sans-Serif" font-size="10.00">imgui.h</text>
</a>
</g>
</g>
<!-- Node37&#45;&gt;Node40 -->
<g id="edge54" class="edge">
<title>Node37&#45;&gt;Node40</title>
<path fill="none" stroke="midnightblue" d="M1456.53,-57.87C1459.72,-57.22 1462.92,-56.58 1466,-56 1559.8,-38.25 1586.69,-39.85 1684.33,-19.99"/>
<polygon fill="midnightblue" stroke="midnightblue" points="1685.23,-23.37 1694.32,-17.93 1683.82,-16.52 1685.23,-23.37"/>
</g>
<!-- Node41 -->
<g id="node41" class="node">
<title>Node41</title>
<g id="a_node41"><a xlink:title=" ">
<polygon fill="white" stroke="#bfbfbf" points="1766,-0.5 1766,-19.5 1862,-19.5 1862,-0.5 1766,-0.5"/>
<text text-anchor="middle" x="1814" y="-7.5" font-family="Helvetica,sans-Serif" font-size="10.00">imgui_internal.h</text>
</a>
</g>
</g>
<!-- Node37&#45;&gt;Node41 -->
<g id="edge55" class="edge">
<title>Node37&#45;&gt;Node41</title>
<path fill="none" stroke="midnightblue" d="M1456.51,-57.74C1459.71,-57.11 1462.91,-56.52 1466,-56 1591.37,-34.86 1626.26,-37.99 1755.9,-20.11"/>
<polygon fill="midnightblue" stroke="midnightblue" points="1756.39,-23.57 1765.81,-18.72 1755.43,-16.64 1756.39,-23.57"/>
</g>
<!-- Node42 -->
<g id="node42" class="node">
<title>Node42</title>
<g id="a_node42"><a xlink:title=" ">
<polygon fill="white" stroke="#bfbfbf" points="1880,-0.5 1880,-19.5 1946,-19.5 1946,-0.5 1880,-0.5"/>
<text text-anchor="middle" x="1913" y="-7.5" font-family="Helvetica,sans-Serif" font-size="10.00">libnpy.hpp</text>
</a>
</g>
</g>
<!-- Node37&#45;&gt;Node42 -->
<g id="edge56" class="edge">
<title>Node37&#45;&gt;Node42</title>
<path fill="none" stroke="midnightblue" d="M1456.95,-57.54C1460,-56.97 1463.05,-56.45 1466,-56 1641.46,-29.5 1690.55,-46.35 1869.58,-20.04"/>
<polygon fill="midnightblue" stroke="midnightblue" points="1870.22,-23.48 1879.6,-18.54 1869.19,-16.56 1870.22,-23.48"/>
</g>
</g>
</svg>
