<?xml version="1.0" encoding="UTF-8" standalone="no"?>
<!DOCTYPE svg PUBLIC "-//W3C//DTD SVG 1.1//EN"
 "http://www.w3.org/Graphics/SVG/1.1/DTD/svg11.dtd">
<!-- Generated by graphviz version 2.43.0 (0)
 -->
<!-- Title: src/Ricom.cpp Pages: 1 -->
<svg width="2399pt" height="196pt"
 viewBox="0.00 0.00 2399.00 196.00" xmlns="http://www.w3.org/2000/svg" xmlns:xlink="http://www.w3.org/1999/xlink">
<g id="graph0" class="graph" transform="scale(1 1) rotate(0) translate(4 192)">
<title>src/Ricom.cpp</title>
<polygon fill="white" stroke="transparent" points="-4,4 -4,-192 2395,-192 2395,4 -4,4"/>
<!-- Node1 -->
<g id="node1" class="node">
<title>Node1</title>
<g id="a_node1"><a xlink:title=" ">
<polygon fill="#bfbfbf" stroke="black" points="1487,-168.5 1487,-187.5 1572,-187.5 1572,-168.5 1487,-168.5"/>
<text text-anchor="middle" x="1529.5" y="-175.5" font-family="Helvetica,sans-Serif" font-size="10.00">src/Ricom.cpp</text>
</a>
</g>
</g>
<!-- Node2 -->
<g id="node2" class="node">
<title>Node2</title>
<g id="a_node2"><a xlink:href="../../de/dfc/Ricom_8h.html" target="_top" xlink:title=" ">
<polygon fill="white" stroke="black" points="1501.5,-112.5 1501.5,-131.5 1557.5,-131.5 1557.5,-112.5 1501.5,-112.5"/>
<text text-anchor="middle" x="1529.5" y="-119.5" font-family="Helvetica,sans-Serif" font-size="10.00">Ricom.h</text>
</a>
</g>
</g>
<!-- Node1&#45;&gt;Node2 -->
<g id="edge1" class="edge">
<title>Node1&#45;&gt;Node2</title>
<path fill="none" stroke="midnightblue" d="M1529.5,-168.08C1529.5,-161.01 1529.5,-150.86 1529.5,-141.99"/>
<polygon fill="midnightblue" stroke="midnightblue" points="1533,-141.75 1529.5,-131.75 1526,-141.75 1533,-141.75"/>
</g>
<!-- Node3 -->
<g id="node3" class="node">
<title>Node3</title>
<g id="a_node3"><a xlink:title=" ">
<polygon fill="white" stroke="#bfbfbf" points="1183.5,-0.5 1183.5,-19.5 1239.5,-19.5 1239.5,-0.5 1183.5,-0.5"/>
<text text-anchor="middle" x="1211.5" y="-7.5" font-family="Helvetica,sans-Serif" font-size="10.00">unistd.h</text>
</a>
</g>
</g>
<!-- Node2&#45;&gt;Node3 -->
<g id="edge2" class="edge">
<title>Node2&#45;&gt;Node3</title>
<path fill="none" stroke="midnightblue" d="M1501.2,-119.81C1437.29,-116.61 1284.18,-105.95 1243.5,-76 1228.34,-64.84 1219.97,-44.51 1215.63,-29.55"/>
<polygon fill="midnightblue" stroke="midnightblue" points="1219.01,-28.63 1213.14,-19.81 1212.23,-30.37 1219.01,-28.63"/>
</g>
<!-- Node4 -->
<g id="node4" class="node">
<title>Node4</title>
<g id="a_node4"><a xlink:title=" ">
<polygon fill="white" stroke="#bfbfbf" points="1783,-0.5 1783,-19.5 1830,-19.5 1830,-0.5 1783,-0.5"/>
<text text-anchor="middle" x="1806.5" y="-7.5" font-family="Helvetica,sans-Serif" font-size="10.00">cmath</text>
</a>
</g>
</g>
<!-- Node2&#45;&gt;Node4 -->
<g id="edge3" class="edge">
<title>Node2&#45;&gt;Node4</title>
<path fill="none" stroke="midnightblue" d="M1527.1,-112.09C1523.94,-98.16 1520.32,-71.25 1534.5,-56 1569.22,-18.66 1706.02,-29.76 1772.71,-19.64"/>
<polygon fill="midnightblue" stroke="midnightblue" points="1773.57,-23.04 1782.79,-17.82 1772.33,-16.15 1773.57,-23.04"/>
</g>
<!-- Node5 -->
<g id="node5" class="node">
<title>Node5</title>
<g id="a_node5"><a xlink:title=" ">
<polygon fill="white" stroke="#bfbfbf" points="1576.5,-56.5 1576.5,-75.5 1626.5,-75.5 1626.5,-56.5 1576.5,-56.5"/>
<text text-anchor="middle" x="1601.5" y="-63.5" font-family="Helvetica,sans-Serif" font-size="10.00">stdio.h</text>
</a>
</g>
</g>
<!-- Node2&#45;&gt;Node5 -->
<g id="edge4" class="edge">
<title>Node2&#45;&gt;Node5</title>
<path fill="none" stroke="midnightblue" d="M1541.07,-112.32C1551.92,-104.18 1568.38,-91.84 1581.38,-82.09"/>
<polygon fill="midnightblue" stroke="midnightblue" points="1583.82,-84.63 1589.72,-75.83 1579.62,-79.03 1583.82,-84.63"/>
</g>
<!-- Node6 -->
<g id="node6" class="node">
<title>Node6</title>
<g id="a_node6"><a xlink:title=" ">
<polygon fill="white" stroke="#bfbfbf" points="0,-0.5 0,-19.5 59,-19.5 59,-0.5 0,-0.5"/>
<text text-anchor="middle" x="29.5" y="-7.5" font-family="Helvetica,sans-Serif" font-size="10.00">complex</text>
</a>
</g>
</g>
<!-- Node2&#45;&gt;Node6 -->
<g id="edge5" class="edge">
<title>Node2&#45;&gt;Node6</title>
<path fill="none" stroke="midnightblue" d="M1501.37,-120.93C1337.93,-120.39 508.92,-115.68 257.5,-76 186.21,-64.75 105.62,-38.42 61.91,-22.94"/>
<polygon fill="midnightblue" stroke="midnightblue" points="62.98,-19.61 52.39,-19.53 60.62,-26.2 62.98,-19.61"/>
</g>
<!-- Node7 -->
<g id="node7" class="node">
<title>Node7</title>
<g id="a_node7"><a xlink:title=" ">
<polygon fill="white" stroke="#bfbfbf" points="1644.5,-56.5 1644.5,-75.5 1688.5,-75.5 1688.5,-56.5 1644.5,-56.5"/>
<text text-anchor="middle" x="1666.5" y="-63.5" font-family="Helvetica,sans-Serif" font-size="10.00">cfloat</text>
</a>
</g>
</g>
<!-- Node2&#45;&gt;Node7 -->
<g id="edge6" class="edge">
<title>Node2&#45;&gt;Node7</title>
<path fill="none" stroke="midnightblue" d="M1551.21,-112.44C1573.85,-103.52 1609.57,-89.44 1635.25,-79.32"/>
<polygon fill="midnightblue" stroke="midnightblue" points="1636.87,-82.44 1644.89,-75.52 1634.31,-75.93 1636.87,-82.44"/>
</g>
<!-- Node8 -->
<g id="node8" class="node">
<title>Node8</title>
<g id="a_node8"><a xlink:title=" ">
<polygon fill="white" stroke="#bfbfbf" points="77,-0.5 77,-19.5 124,-19.5 124,-0.5 77,-0.5"/>
<text text-anchor="middle" x="100.5" y="-7.5" font-family="Helvetica,sans-Serif" font-size="10.00">vector</text>
</a>
</g>
</g>
<!-- Node2&#45;&gt;Node8 -->
<g id="edge7" class="edge">
<title>Node2&#45;&gt;Node8</title>
<path fill="none" stroke="midnightblue" d="M1501.25,-120.67C1345.8,-118.76 593.37,-107.97 363.5,-76 279.56,-64.32 183.49,-36.88 133.95,-21.65"/>
<polygon fill="midnightblue" stroke="midnightblue" points="134.7,-18.22 124.11,-18.6 132.62,-24.91 134.7,-18.22"/>
</g>
<!-- Node9 -->
<g id="node9" class="node">
<title>Node9</title>
<g id="a_node9"><a xlink:title=" ">
<polygon fill="white" stroke="#bfbfbf" points="715.5,-0.5 715.5,-19.5 759.5,-19.5 759.5,-0.5 715.5,-0.5"/>
<text text-anchor="middle" x="737.5" y="-7.5" font-family="Helvetica,sans-Serif" font-size="10.00">string</text>
</a>
</g>
</g>
<!-- Node2&#45;&gt;Node9 -->
<g id="edge8" class="edge">
<title>Node2&#45;&gt;Node9</title>
<path fill="none" stroke="midnightblue" d="M1501.34,-120.1C1395.26,-116.54 1019.87,-102.33 903.5,-76 852.07,-64.36 795.57,-39.43 763.53,-24.05"/>
<polygon fill="midnightblue" stroke="midnightblue" points="764.93,-20.83 754.4,-19.6 761.86,-27.13 764.93,-20.83"/>
</g>
<!-- Node10 -->
<g id="node10" class="node">
<title>Node10</title>
<g id="a_node10"><a xlink:title=" ">
<polygon fill="white" stroke="#bfbfbf" points="1706.5,-56.5 1706.5,-75.5 1750.5,-75.5 1750.5,-56.5 1706.5,-56.5"/>
<text text-anchor="middle" x="1728.5" y="-63.5" font-family="Helvetica,sans-Serif" font-size="10.00">SDL.h</text>
</a>
</g>
</g>
<!-- Node2&#45;&gt;Node10 -->
<g id="edge9" class="edge">
<title>Node2&#45;&gt;Node10</title>
<path fill="none" stroke="midnightblue" d="M1557.79,-113.62C1589.32,-105.34 1642.08,-91.37 1696.37,-76.28"/>
<polygon fill="midnightblue" stroke="midnightblue" points="1697.47,-79.6 1706.16,-73.54 1695.59,-72.86 1697.47,-79.6"/>
</g>
<!-- Node11 -->
<g id="node11" class="node">
<title>Node11</title>
<g id="a_node11"><a xlink:title=" ">
<polygon fill="white" stroke="#bfbfbf" points="777.5,-0.5 777.5,-19.5 825.5,-19.5 825.5,-0.5 777.5,-0.5"/>
<text text-anchor="middle" x="801.5" y="-7.5" font-family="Helvetica,sans-Serif" font-size="10.00">mutex</text>
</a>
</g>
</g>
<!-- Node2&#45;&gt;Node11 -->
<g id="edge10" class="edge">
<title>Node2&#45;&gt;Node11</title>
<path fill="none" stroke="midnightblue" d="M1501.34,-121.61C1418.47,-122.78 1168.73,-121.96 968.5,-76 916.84,-64.14 859.97,-39.28 827.71,-23.97"/>
<polygon fill="midnightblue" stroke="midnightblue" points="829.05,-20.73 818.52,-19.55 826.02,-27.04 829.05,-20.73"/>
</g>
<!-- Node12 -->
<g id="node12" class="node">
<title>Node12</title>
<g id="a_node12"><a xlink:title=" ">
<polygon fill="white" stroke="#bfbfbf" points="1768.5,-56.5 1768.5,-75.5 1814.5,-75.5 1814.5,-56.5 1768.5,-56.5"/>
<text text-anchor="middle" x="1791.5" y="-63.5" font-family="Helvetica,sans-Serif" font-size="10.00">future</text>
</a>
</g>
</g>
<!-- Node2&#45;&gt;Node12 -->
<g id="edge11" class="edge">
<title>Node2&#45;&gt;Node12</title>
<path fill="none" stroke="midnightblue" d="M1557.63,-116.25C1599.35,-109.05 1680.27,-94.46 1758.47,-76.09"/>
<polygon fill="midnightblue" stroke="midnightblue" points="1759.56,-79.43 1768.49,-73.71 1757.95,-72.62 1759.56,-79.43"/>
</g>
<!-- Node13 -->
<g id="node13" class="node">
<title>Node13</title>
<g id="a_node13"><a xlink:title=" ">
<polygon fill="white" stroke="#bfbfbf" points="1117.5,-0.5 1117.5,-19.5 1165.5,-19.5 1165.5,-0.5 1117.5,-0.5"/>
<text text-anchor="middle" x="1141.5" y="-7.5" font-family="Helvetica,sans-Serif" font-size="10.00">thread</text>
</a>
</g>
</g>
<!-- Node2&#45;&gt;Node13 -->
<g id="edge12" class="edge">
<title>Node2&#45;&gt;Node13</title>
<path fill="none" stroke="midnightblue" d="M1501.17,-121.64C1445.54,-121.87 1319.11,-117.35 1223.5,-76 1197.09,-64.58 1171.97,-42.41 1156.65,-27.16"/>
<polygon fill="midnightblue" stroke="midnightblue" points="1159.07,-24.63 1149.58,-19.91 1154.06,-29.52 1159.07,-24.63"/>
</g>
<!-- Node14 -->
<g id="node14" class="node">
<title>Node14</title>
<g id="a_node14"><a xlink:title=" ">
<polygon fill="white" stroke="#bfbfbf" points="1832.5,-56.5 1832.5,-75.5 1882.5,-75.5 1882.5,-56.5 1832.5,-56.5"/>
<text text-anchor="middle" x="1857.5" y="-63.5" font-family="Helvetica,sans-Serif" font-size="10.00">fftw3.h</text>
</a>
</g>
</g>
<!-- Node2&#45;&gt;Node14 -->
<g id="edge13" class="edge">
<title>Node2&#45;&gt;Node14</title>
<path fill="none" stroke="midnightblue" d="M1557.65,-117.71C1608.56,-111.54 1719.48,-97.1 1822.39,-76.04"/>
<polygon fill="midnightblue" stroke="midnightblue" points="1823.24,-79.44 1832.32,-73.99 1821.82,-72.59 1823.24,-79.44"/>
</g>
<!-- Node15 -->
<g id="node15" class="node">
<title>Node15</title>
<g id="a_node15"><a xlink:title=" ">
<polygon fill="white" stroke="#bfbfbf" points="1848.5,-0.5 1848.5,-19.5 1898.5,-19.5 1898.5,-0.5 1848.5,-0.5"/>
<text text-anchor="middle" x="1873.5" y="-7.5" font-family="Helvetica,sans-Serif" font-size="10.00">chrono</text>
</a>
</g>
</g>
<!-- Node2&#45;&gt;Node15 -->
<g id="edge14" class="edge">
<title>Node2&#45;&gt;Node15</title>
<path fill="none" stroke="midnightblue" d="M1531.93,-112.1C1536.37,-97.67 1547.25,-69.46 1567.5,-56 1666.37,9.73 1717.16,-40.83 1838.33,-19.9"/>
<polygon fill="midnightblue" stroke="midnightblue" points="1839.14,-23.31 1848.33,-18.04 1837.86,-16.43 1839.14,-23.31"/>
</g>
<!-- Node16 -->
<g id="node16" class="node">
<title>Node16</title>
<g id="a_node16"><a xlink:title=" ">
<polygon fill="white" stroke="#bfbfbf" points="1900.5,-56.5 1900.5,-75.5 1964.5,-75.5 1964.5,-56.5 1900.5,-56.5"/>
<text text-anchor="middle" x="1932.5" y="-63.5" font-family="Helvetica,sans-Serif" font-size="10.00">algorithm</text>
</a>
</g>
</g>
<!-- Node2&#45;&gt;Node16 -->
<g id="edge15" class="edge">
<title>Node2&#45;&gt;Node16</title>
<path fill="none" stroke="midnightblue" d="M1557.79,-118.38C1617.4,-112.67 1760.4,-97.97 1890.21,-76.08"/>
<polygon fill="midnightblue" stroke="midnightblue" points="1891.06,-79.49 1900.33,-74.36 1889.88,-72.59 1891.06,-79.49"/>
</g>
<!-- Node17 -->
<g id="node17" class="node">
<title>Node17</title>
<g id="a_node17"><a xlink:title=" ">
<polygon fill="white" stroke="#bfbfbf" points="1982.5,-56.5 1982.5,-75.5 2026.5,-75.5 2026.5,-56.5 1982.5,-56.5"/>
<text text-anchor="middle" x="2004.5" y="-63.5" font-family="Helvetica,sans-Serif" font-size="10.00">ctime</text>
</a>
</g>
</g>
<!-- Node2&#45;&gt;Node17 -->
<g id="edge16" class="edge">
<title>Node2&#45;&gt;Node17</title>
<path fill="none" stroke="midnightblue" d="M1557.55,-119.92C1626.61,-116.9 1810.41,-106.6 1972.14,-75.93"/>
<polygon fill="midnightblue" stroke="midnightblue" points="1973.11,-79.31 1982.27,-73.98 1971.79,-72.44 1973.11,-79.31"/>
</g>
<!-- Node18 -->
<g id="node18" class="node">
<title>Node18</title>
<g id="a_node18"><a xlink:href="../../d7/d50/BoundedThreadPool_8hpp.html" target="_top" xlink:title=" ">
<polygon fill="white" stroke="black" points="978,-56.5 978,-75.5 1113,-75.5 1113,-56.5 978,-56.5"/>
<text text-anchor="middle" x="1045.5" y="-63.5" font-family="Helvetica,sans-Serif" font-size="10.00">BoundedThreadPool.hpp</text>
</a>
</g>
</g>
<!-- Node2&#45;&gt;Node18 -->
<g id="edge17" class="edge">
<title>Node2&#45;&gt;Node18</title>
<path fill="none" stroke="midnightblue" d="M1501.39,-117.86C1428.8,-109.77 1233.13,-87.93 1123.19,-75.67"/>
<polygon fill="midnightblue" stroke="midnightblue" points="1123.48,-72.18 1113.15,-74.55 1122.7,-79.14 1123.48,-72.18"/>
</g>
<!-- Node24 -->
<g id="node24" class="node">
<title>Node24</title>
<g id="a_node24"><a xlink:title=" ">
<polygon fill="white" stroke="#bfbfbf" points="595.5,-0.5 595.5,-19.5 697.5,-19.5 697.5,-0.5 595.5,-0.5"/>
<text text-anchor="middle" x="646.5" y="-7.5" font-family="Helvetica,sans-Serif" font-size="10.00">tinycolormap.hpp</text>
</a>
</g>
</g>
<!-- Node2&#45;&gt;Node24 -->
<g id="edge25" class="edge">
<title>Node2&#45;&gt;Node24</title>
<path fill="none" stroke="midnightblue" d="M1501.25,-120.14C1388.36,-116.53 969.49,-101.67 839.5,-76 779.64,-64.18 712.78,-38.76 675.56,-23.44"/>
<polygon fill="midnightblue" stroke="midnightblue" points="676.89,-20.21 666.32,-19.6 674.2,-26.67 676.89,-20.21"/>
</g>
<!-- Node25 -->
<g id="node25" class="node">
<title>Node25</title>
<g id="a_node25"><a xlink:title=" ">
<polygon fill="white" stroke="#bfbfbf" points="2044.5,-56.5 2044.5,-75.5 2104.5,-75.5 2104.5,-56.5 2044.5,-56.5"/>
<text text-anchor="middle" x="2074.5" y="-63.5" font-family="Helvetica,sans-Serif" font-size="10.00">fft2d.hpp</text>
</a>
</g>
</g>
<!-- Node2&#45;&gt;Node25 -->
<g id="edge26" class="edge">
<title>Node2&#45;&gt;Node25</title>
<path fill="none" stroke="midnightblue" d="M1557.64,-119.86C1633.23,-116.52 1847.07,-105.16 2034.32,-75.98"/>
<polygon fill="midnightblue" stroke="midnightblue" points="2035.02,-79.41 2044.35,-74.39 2033.92,-72.49 2035.02,-79.41"/>
</g>
<!-- Node26 -->
<g id="node26" class="node">
<title>Node26</title>
<g id="a_node26"><a xlink:href="../../d0/d3c/SocketConnector_8h.html" target="_top" xlink:title=" ">
<polygon fill="white" stroke="black" points="1253,-56.5 1253,-75.5 1360,-75.5 1360,-56.5 1253,-56.5"/>
<text text-anchor="middle" x="1306.5" y="-63.5" font-family="Helvetica,sans-Serif" font-size="10.00">SocketConnector.h</text>
</a>
</g>
</g>
<!-- Node2&#45;&gt;Node26 -->
<g id="edge27" class="edge">
<title>Node2&#45;&gt;Node26</title>
<path fill="none" stroke="midnightblue" d="M1501.26,-114.16C1463.56,-105.03 1396.35,-88.76 1351.6,-77.92"/>
<polygon fill="midnightblue" stroke="midnightblue" points="1352.4,-74.51 1341.85,-75.56 1350.75,-81.32 1352.4,-74.51"/>
</g>
<!-- Node30 -->
<g id="node30" class="node">
<title>Node30</title>
<g id="a_node30"><a xlink:href="../../da/dce/ProgressMonitor_8h.html" target="_top" xlink:title=" ">
<polygon fill="white" stroke="black" points="1378.5,-56.5 1378.5,-75.5 1482.5,-75.5 1482.5,-56.5 1378.5,-56.5"/>
<text text-anchor="middle" x="1430.5" y="-63.5" font-family="Helvetica,sans-Serif" font-size="10.00">ProgressMonitor.h</text>
</a>
</g>
</g>
<!-- Node2&#45;&gt;Node30 -->
<g id="edge34" class="edge">
<title>Node2&#45;&gt;Node30</title>
<path fill="none" stroke="midnightblue" d="M1513.59,-112.32C1497.86,-103.74 1473.56,-90.49 1455.29,-80.52"/>
<polygon fill="midnightblue" stroke="midnightblue" points="1456.82,-77.37 1446.37,-75.65 1453.47,-83.52 1456.82,-77.37"/>
</g>
<!-- Node33 -->
<g id="node33" class="node">
<title>Node33</title>
<g id="a_node33"><a xlink:title=" ">
<polygon fill="white" stroke="#bfbfbf" points="2122.5,-56.5 2122.5,-75.5 2200.5,-75.5 2200.5,-56.5 2122.5,-56.5"/>
<text text-anchor="middle" x="2161.5" y="-63.5" font-family="Helvetica,sans-Serif" font-size="10.00">Cheetah.hpp</text>
</a>
</g>
</g>
<!-- Node2&#45;&gt;Node33 -->
<g id="edge42" class="edge">
<title>Node2&#45;&gt;Node33</title>
<path fill="none" stroke="midnightblue" d="M1557.57,-119.92C1640.7,-116.49 1892.98,-104.43 2112.18,-76.04"/>
<polygon fill="midnightblue" stroke="midnightblue" points="2112.8,-79.48 2122.26,-74.72 2111.89,-72.54 2112.8,-79.48"/>
</g>
<!-- Node34 -->
<g id="node34" class="node">
<title>Node34</title>
<g id="a_node34"><a xlink:title=" ">
<polygon fill="white" stroke="#bfbfbf" points="2219,-56.5 2219,-75.5 2296,-75.5 2296,-56.5 2219,-56.5"/>
<text text-anchor="middle" x="2257.5" y="-63.5" font-family="Helvetica,sans-Serif" font-size="10.00">Timepix.hpp</text>
</a>
</g>
</g>
<!-- Node2&#45;&gt;Node34 -->
<g id="edge43" class="edge">
<title>Node2&#45;&gt;Node34</title>
<path fill="none" stroke="midnightblue" d="M1557.79,-120.34C1650,-117.92 1950.26,-108.04 2208.84,-75.92"/>
<polygon fill="midnightblue" stroke="midnightblue" points="2209.3,-79.39 2218.79,-74.67 2208.43,-72.44 2209.3,-79.39"/>
</g>
<!-- Node35 -->
<g id="node35" class="node">
<title>Node35</title>
<g id="a_node35"><a xlink:title=" ">
<polygon fill="white" stroke="#bfbfbf" points="2314,-56.5 2314,-75.5 2391,-75.5 2391,-56.5 2314,-56.5"/>
<text text-anchor="middle" x="2352.5" y="-63.5" font-family="Helvetica,sans-Serif" font-size="10.00">Advapix.hpp</text>
</a>
</g>
</g>
<!-- Node2&#45;&gt;Node35 -->
<g id="edge44" class="edge">
<title>Node2&#45;&gt;Node35</title>
<path fill="none" stroke="midnightblue" d="M1557.81,-120.7C1658.24,-119.35 2006.94,-112.25 2303.74,-76.07"/>
<polygon fill="midnightblue" stroke="midnightblue" points="2304.34,-79.52 2313.84,-74.82 2303.48,-72.57 2304.34,-79.52"/>
</g>
<!-- Node36 -->
<g id="node36" class="node">
<title>Node36</title>
<g id="a_node36"><a xlink:href="../../d7/db2/GuiUtils_8h.html" target="_top" xlink:title=" ">
<polygon fill="white" stroke="black" points="373,-56.5 373,-75.5 438,-75.5 438,-56.5 373,-56.5"/>
<text text-anchor="middle" x="405.5" y="-63.5" font-family="Helvetica,sans-Serif" font-size="10.00">GuiUtils.h</text>
</a>
</g>
</g>
<!-- Node2&#45;&gt;Node36 -->
<g id="edge45" class="edge">
<title>Node2&#45;&gt;Node36</title>
<path fill="none" stroke="midnightblue" d="M1501.44,-119.65C1350.09,-112.38 631.3,-77.85 448.08,-69.05"/>
<polygon fill="midnightblue" stroke="midnightblue" points="448.18,-65.55 438.02,-68.56 447.85,-72.54 448.18,-65.55"/>
</g>
<!-- Node18&#45;&gt;Node11 -->
<g id="edge21" class="edge">
<title>Node18&#45;&gt;Node11</title>
<path fill="none" stroke="midnightblue" d="M1002.1,-56.49C961.42,-48.34 898.69,-35.35 835.36,-20.11"/>
<polygon fill="midnightblue" stroke="midnightblue" points="836.15,-16.7 825.61,-17.74 834.5,-23.5 836.15,-16.7"/>
</g>
<!-- Node18&#45;&gt;Node13 -->
<g id="edge18" class="edge">
<title>Node18&#45;&gt;Node13</title>
<path fill="none" stroke="midnightblue" d="M1060.92,-56.32C1076.04,-47.82 1099.32,-34.73 1116.97,-24.8"/>
<polygon fill="midnightblue" stroke="midnightblue" points="1119.11,-27.61 1126.11,-19.65 1115.68,-21.51 1119.11,-27.61"/>
</g>
<!-- Node19 -->
<g id="node19" class="node">
<title>Node19</title>
<g id="a_node19"><a xlink:title=" ">
<polygon fill="white" stroke="#bfbfbf" points="844,-0.5 844,-19.5 891,-19.5 891,-0.5 844,-0.5"/>
<text text-anchor="middle" x="867.5" y="-7.5" font-family="Helvetica,sans-Serif" font-size="10.00">queue</text>
</a>
</g>
</g>
<!-- Node18&#45;&gt;Node19 -->
<g id="edge19" class="edge">
<title>Node18&#45;&gt;Node19</title>
<path fill="none" stroke="midnightblue" d="M1017.3,-56.44C985.67,-46.85 934.42,-31.3 900.84,-21.11"/>
<polygon fill="midnightblue" stroke="midnightblue" points="901.61,-17.69 891.03,-18.14 899.58,-24.39 901.61,-17.69"/>
</g>
<!-- Node20 -->
<g id="node20" class="node">
<title>Node20</title>
<g id="a_node20"><a xlink:title=" ">
<polygon fill="white" stroke="#bfbfbf" points="909,-0.5 909,-19.5 974,-19.5 974,-0.5 909,-0.5"/>
<text text-anchor="middle" x="941.5" y="-7.5" font-family="Helvetica,sans-Serif" font-size="10.00">functional</text>
</a>
</g>
</g>
<!-- Node18&#45;&gt;Node20 -->
<g id="edge20" class="edge">
<title>Node18&#45;&gt;Node20</title>
<path fill="none" stroke="midnightblue" d="M1028.79,-56.32C1012.19,-47.7 986.5,-34.36 967.28,-24.39"/>
<polygon fill="midnightblue" stroke="midnightblue" points="968.66,-21.16 958.17,-19.65 965.43,-27.37 968.66,-21.16"/>
</g>
<!-- Node21 -->
<g id="node21" class="node">
<title>Node21</title>
<g id="a_node21"><a xlink:title=" ">
<polygon fill="white" stroke="#bfbfbf" points="992,-0.5 992,-19.5 1099,-19.5 1099,-0.5 992,-0.5"/>
<text text-anchor="middle" x="1045.5" y="-7.5" font-family="Helvetica,sans-Serif" font-size="10.00">condition_variable</text>
</a>
</g>
</g>
<!-- Node18&#45;&gt;Node21 -->
<g id="edge22" class="edge">
<title>Node18&#45;&gt;Node21</title>
<path fill="none" stroke="midnightblue" d="M1045.5,-56.08C1045.5,-49.01 1045.5,-38.86 1045.5,-29.99"/>
<polygon fill="midnightblue" stroke="midnightblue" points="1049,-29.75 1045.5,-19.75 1042,-29.75 1049,-29.75"/>
</g>
<!-- Node22 -->
<g id="node22" class="node">
<title>Node22</title>
<g id="a_node22"><a xlink:title=" ">
<polygon fill="white" stroke="#bfbfbf" points="1410.5,-0.5 1410.5,-19.5 1460.5,-19.5 1460.5,-0.5 1410.5,-0.5"/>
<text text-anchor="middle" x="1435.5" y="-7.5" font-family="Helvetica,sans-Serif" font-size="10.00">atomic</text>
</a>
</g>
</g>
<!-- Node18&#45;&gt;Node22 -->
<g id="edge23" class="edge">
<title>Node18&#45;&gt;Node22</title>
<path fill="none" stroke="midnightblue" d="M1113.29,-58.96C1185.03,-51.98 1301.34,-38.96 1400.5,-20 1400.6,-19.98 1400.7,-19.96 1400.8,-19.94"/>
<polygon fill="midnightblue" stroke="midnightblue" points="1401.32,-23.41 1410.35,-17.87 1399.84,-16.57 1401.32,-23.41"/>
</g>
<!-- Node23 -->
<g id="node23" class="node">
<title>Node23</title>
<g id="a_node23"><a xlink:title=" ">
<polygon fill="white" stroke="#bfbfbf" points="1478.5,-0.5 1478.5,-19.5 1538.5,-19.5 1538.5,-0.5 1478.5,-0.5"/>
<text text-anchor="middle" x="1508.5" y="-7.5" font-family="Helvetica,sans-Serif" font-size="10.00">iostream</text>
</a>
</g>
</g>
<!-- Node18&#45;&gt;Node23 -->
<g id="edge24" class="edge">
<title>Node18&#45;&gt;Node23</title>
<path fill="none" stroke="midnightblue" d="M1113.03,-60.37C1194.86,-54.19 1337.03,-41.64 1468.12,-20.05"/>
<polygon fill="midnightblue" stroke="midnightblue" points="1469.05,-23.44 1478.34,-18.34 1467.9,-16.53 1469.05,-23.44"/>
</g>
<!-- Node26&#45;&gt;Node3 -->
<g id="edge29" class="edge">
<title>Node26&#45;&gt;Node3</title>
<path fill="none" stroke="midnightblue" d="M1291.24,-56.32C1276.28,-47.82 1253.25,-34.73 1235.77,-24.8"/>
<polygon fill="midnightblue" stroke="midnightblue" points="1237.15,-21.55 1226.73,-19.65 1233.69,-27.64 1237.15,-21.55"/>
</g>
<!-- Node26&#45;&gt;Node9 -->
<g id="edge32" class="edge">
<title>Node26&#45;&gt;Node9</title>
<path fill="none" stroke="midnightblue" d="M1252.88,-61.88C1139.47,-55.06 877.49,-38.12 769.67,-19.8"/>
<polygon fill="midnightblue" stroke="midnightblue" points="770.18,-16.34 759.72,-18.03 768.95,-23.23 770.18,-16.34"/>
</g>
<!-- Node26&#45;&gt;Node23 -->
<g id="edge33" class="edge">
<title>Node26&#45;&gt;Node23</title>
<path fill="none" stroke="midnightblue" d="M1338.51,-56.44C1373.74,-47.03 1430.43,-31.87 1468.55,-21.68"/>
<polygon fill="midnightblue" stroke="midnightblue" points="1469.53,-25.04 1478.29,-19.08 1467.73,-18.28 1469.53,-25.04"/>
</g>
<!-- Node27 -->
<g id="node27" class="node">
<title>Node27</title>
<g id="a_node27"><a xlink:title=" ">
<polygon fill="white" stroke="#bfbfbf" points="1258,-0.5 1258,-19.5 1327,-19.5 1327,-0.5 1258,-0.5"/>
<text text-anchor="middle" x="1292.5" y="-7.5" font-family="Helvetica,sans-Serif" font-size="10.00">arpa/inet.h</text>
</a>
</g>
</g>
<!-- Node26&#45;&gt;Node27 -->
<g id="edge28" class="edge">
<title>Node26&#45;&gt;Node27</title>
<path fill="none" stroke="midnightblue" d="M1304.19,-56.08C1302.33,-48.93 1299.66,-38.64 1297.35,-29.69"/>
<polygon fill="midnightblue" stroke="midnightblue" points="1300.67,-28.55 1294.77,-19.75 1293.89,-30.31 1300.67,-28.55"/>
</g>
<!-- Node28 -->
<g id="node28" class="node">
<title>Node28</title>
<g id="a_node28"><a xlink:title=" ">
<polygon fill="white" stroke="#bfbfbf" points="1345,-0.5 1345,-19.5 1392,-19.5 1392,-0.5 1345,-0.5"/>
<text text-anchor="middle" x="1368.5" y="-7.5" font-family="Helvetica,sans-Serif" font-size="10.00">cerrno</text>
</a>
</g>
</g>
<!-- Node26&#45;&gt;Node28 -->
<g id="edge30" class="edge">
<title>Node26&#45;&gt;Node28</title>
<path fill="none" stroke="midnightblue" d="M1316.46,-56.32C1325.63,-48.34 1339.44,-36.31 1350.53,-26.65"/>
<polygon fill="midnightblue" stroke="midnightblue" points="1353.12,-29.04 1358.36,-19.83 1348.52,-23.76 1353.12,-29.04"/>
</g>
<!-- Node29 -->
<g id="node29" class="node">
<title>Node29</title>
<g id="a_node29"><a xlink:title=" ">
<polygon fill="white" stroke="#bfbfbf" points="1556.5,-0.5 1556.5,-19.5 1606.5,-19.5 1606.5,-0.5 1556.5,-0.5"/>
<text text-anchor="middle" x="1581.5" y="-7.5" font-family="Helvetica,sans-Serif" font-size="10.00">cstring</text>
</a>
</g>
</g>
<!-- Node26&#45;&gt;Node29 -->
<g id="edge31" class="edge">
<title>Node26&#45;&gt;Node29</title>
<path fill="none" stroke="midnightblue" d="M1358.44,-56.45C1405.2,-48.49 1476.01,-35.8 1546.38,-20.13"/>
<polygon fill="midnightblue" stroke="midnightblue" points="1547.31,-23.5 1556.3,-17.89 1545.78,-16.67 1547.31,-23.5"/>
</g>
<!-- Node30&#45;&gt;Node4 -->
<g id="edge41" class="edge">
<title>Node30&#45;&gt;Node4</title>
<path fill="none" stroke="midnightblue" d="M1482.73,-57.85C1487.39,-57.22 1492.03,-56.6 1496.5,-56 1616.32,-40.05 1650.01,-44.15 1772.64,-19.91"/>
<polygon fill="midnightblue" stroke="midnightblue" points="1773.68,-23.27 1782.8,-17.88 1772.31,-16.41 1773.68,-23.27"/>
</g>
<!-- Node30&#45;&gt;Node15 -->
<g id="edge40" class="edge">
<title>Node30&#45;&gt;Node15</title>
<path fill="none" stroke="midnightblue" d="M1482.5,-60.26C1572.88,-51.85 1756.39,-34.07 1838.39,-19.9"/>
<polygon fill="midnightblue" stroke="midnightblue" points="1839.13,-23.33 1848.34,-18.11 1837.88,-16.44 1839.13,-23.33"/>
</g>
<!-- Node30&#45;&gt;Node22 -->
<g id="edge39" class="edge">
<title>Node30&#45;&gt;Node22</title>
<path fill="none" stroke="midnightblue" d="M1431.33,-56.08C1431.98,-49.01 1432.92,-38.86 1433.74,-29.99"/>
<polygon fill="midnightblue" stroke="midnightblue" points="1437.25,-30.03 1434.69,-19.75 1430.28,-29.39 1437.25,-30.03"/>
</g>
<!-- Node30&#45;&gt;Node23 -->
<g id="edge36" class="edge">
<title>Node30&#45;&gt;Node23</title>
<path fill="none" stroke="midnightblue" d="M1443.03,-56.32C1455.09,-47.98 1473.53,-35.21 1487.77,-25.35"/>
<polygon fill="midnightblue" stroke="midnightblue" points="1489.77,-28.22 1496,-19.65 1485.78,-22.47 1489.77,-28.22"/>
</g>
<!-- Node30&#45;&gt;Node29 -->
<g id="edge38" class="edge">
<title>Node30&#45;&gt;Node29</title>
<path fill="none" stroke="midnightblue" d="M1454.43,-56.44C1479.72,-47.4 1519.8,-33.06 1548.18,-22.92"/>
<polygon fill="midnightblue" stroke="midnightblue" points="1549.45,-26.18 1557.69,-19.52 1547.09,-19.59 1549.45,-26.18"/>
</g>
<!-- Node31 -->
<g id="node31" class="node">
<title>Node31</title>
<g id="a_node31"><a xlink:title=" ">
<polygon fill="white" stroke="#bfbfbf" points="1624.5,-0.5 1624.5,-19.5 1690.5,-19.5 1690.5,-0.5 1624.5,-0.5"/>
<text text-anchor="middle" x="1657.5" y="-7.5" font-family="Helvetica,sans-Serif" font-size="10.00">sys/ioctl.h</text>
</a>
</g>
</g>
<!-- Node30&#45;&gt;Node31 -->
<g id="edge35" class="edge">
<title>Node30&#45;&gt;Node31</title>
<path fill="none" stroke="midnightblue" d="M1466.47,-56.44C1506.63,-46.89 1571.6,-31.43 1614.43,-21.24"/>
<polygon fill="midnightblue" stroke="midnightblue" points="1615.37,-24.62 1624.28,-18.9 1613.75,-17.81 1615.37,-24.62"/>
</g>
<!-- Node32 -->
<g id="node32" class="node">
<title>Node32</title>
<g id="a_node32"><a xlink:title=" ">
<polygon fill="white" stroke="#bfbfbf" points="1708.5,-0.5 1708.5,-19.5 1764.5,-19.5 1764.5,-0.5 1708.5,-0.5"/>
<text text-anchor="middle" x="1736.5" y="-7.5" font-family="Helvetica,sans-Serif" font-size="10.00">iomanip</text>
</a>
</g>
</g>
<!-- Node30&#45;&gt;Node32 -->
<g id="edge37" class="edge">
<title>Node30&#45;&gt;Node32</title>
<path fill="none" stroke="midnightblue" d="M1482.53,-57.45C1534.74,-49.61 1617.68,-36.46 1698.43,-20.1"/>
<polygon fill="midnightblue" stroke="midnightblue" points="1699.17,-23.52 1708.27,-18.09 1697.77,-16.67 1699.17,-23.52"/>
</g>
<!-- Node36&#45;&gt;Node6 -->
<g id="edge48" class="edge">
<title>Node36&#45;&gt;Node6</title>
<path fill="none" stroke="midnightblue" d="M372.7,-61.74C313.83,-55.65 186.19,-41.36 69.49,-20.22"/>
<polygon fill="midnightblue" stroke="midnightblue" points="69.78,-16.72 59.31,-18.36 68.52,-23.6 69.78,-16.72"/>
</g>
<!-- Node36&#45;&gt;Node8 -->
<g id="edge47" class="edge">
<title>Node36&#45;&gt;Node8</title>
<path fill="none" stroke="midnightblue" d="M372.92,-60.82C323.31,-54.2 225.72,-40.16 134.17,-20.19"/>
<polygon fill="midnightblue" stroke="midnightblue" points="134.71,-16.72 124.19,-17.98 133.2,-23.56 134.71,-16.72"/>
</g>
<!-- Node36&#45;&gt;Node9 -->
<g id="edge46" class="edge">
<title>Node36&#45;&gt;Node9</title>
<path fill="none" stroke="midnightblue" d="M438.28,-61.56C492.12,-55.59 602.78,-42.01 705.34,-20.01"/>
<polygon fill="midnightblue" stroke="midnightblue" points="706.21,-23.4 715.24,-17.85 704.72,-16.56 706.21,-23.4"/>
</g>
<!-- Node36&#45;&gt;Node24 -->
<g id="edge54" class="edge">
<title>Node36&#45;&gt;Node24</title>
<path fill="none" stroke="midnightblue" d="M438,-57.72C479.27,-48.47 550.8,-32.44 598.39,-21.78"/>
<polygon fill="midnightblue" stroke="midnightblue" points="599.17,-25.19 608.16,-19.59 597.64,-18.36 599.17,-25.19"/>
</g>
<!-- Node37 -->
<g id="node37" class="node">
<title>Node37</title>
<g id="a_node37"><a xlink:title=" ">
<polygon fill="white" stroke="#bfbfbf" points="411.5,-0.5 411.5,-19.5 479.5,-19.5 479.5,-0.5 411.5,-0.5"/>
<text text-anchor="middle" x="445.5" y="-7.5" font-family="Helvetica,sans-Serif" font-size="10.00">filesystem</text>
</a>
</g>
</g>
<!-- Node36&#45;&gt;Node37 -->
<g id="edge49" class="edge">
<title>Node36&#45;&gt;Node37</title>
<path fill="none" stroke="midnightblue" d="M412.11,-56.08C417.76,-48.46 426.04,-37.26 432.95,-27.94"/>
<polygon fill="midnightblue" stroke="midnightblue" points="435.88,-29.87 439.02,-19.75 430.25,-25.7 435.88,-29.87"/>
</g>
<!-- Node38 -->
<g id="node38" class="node">
<title>Node38</title>
<g id="a_node38"><a xlink:title=" ">
<polygon fill="white" stroke="#bfbfbf" points="497.5,-0.5 497.5,-19.5 577.5,-19.5 577.5,-0.5 497.5,-0.5"/>
<text text-anchor="middle" x="537.5" y="-7.5" font-family="Helvetica,sans-Serif" font-size="10.00">SDL_image.h</text>
</a>
</g>
</g>
<!-- Node36&#45;&gt;Node38 -->
<g id="edge50" class="edge">
<title>Node36&#45;&gt;Node38</title>
<path fill="none" stroke="midnightblue" d="M426.42,-56.44C448.24,-47.52 482.65,-33.44 507.39,-23.32"/>
<polygon fill="midnightblue" stroke="midnightblue" points="508.75,-26.54 516.68,-19.52 506.1,-20.06 508.75,-26.54"/>
</g>
<!-- Node39 -->
<g id="node39" class="node">
<title>Node39</title>
<g id="a_node39"><a xlink:title=" ">
<polygon fill="white" stroke="#bfbfbf" points="142,-0.5 142,-19.5 195,-19.5 195,-0.5 142,-0.5"/>
<text text-anchor="middle" x="168.5" y="-7.5" font-family="Helvetica,sans-Serif" font-size="10.00">imgui.h</text>
</a>
</g>
</g>
<!-- Node36&#45;&gt;Node39 -->
<g id="edge51" class="edge">
<title>Node36&#45;&gt;Node39</title>
<path fill="none" stroke="midnightblue" d="M372.72,-57.92C334.83,-49.68 270.34,-35.49 205.25,-20.13"/>
<polygon fill="midnightblue" stroke="midnightblue" points="205.76,-16.66 195.22,-17.76 204.14,-23.47 205.76,-16.66"/>
</g>
<!-- Node40 -->
<g id="node40" class="node">
<title>Node40</title>
<g id="a_node40"><a xlink:title=" ">
<polygon fill="white" stroke="#bfbfbf" points="213.5,-0.5 213.5,-19.5 309.5,-19.5 309.5,-0.5 213.5,-0.5"/>
<text text-anchor="middle" x="261.5" y="-7.5" font-family="Helvetica,sans-Serif" font-size="10.00">imgui_internal.h</text>
</a>
</g>
</g>
<!-- Node36&#45;&gt;Node40 -->
<g id="edge52" class="edge">
<title>Node36&#45;&gt;Node40</title>
<path fill="none" stroke="midnightblue" d="M382.68,-56.44C358.67,-47.44 320.67,-33.19 293.63,-23.05"/>
<polygon fill="midnightblue" stroke="midnightblue" points="294.8,-19.75 284.21,-19.52 292.34,-26.3 294.8,-19.75"/>
</g>
<!-- Node41 -->
<g id="node41" class="node">
<title>Node41</title>
<g id="a_node41"><a xlink:title=" ">
<polygon fill="white" stroke="#bfbfbf" points="327.5,-0.5 327.5,-19.5 393.5,-19.5 393.5,-0.5 327.5,-0.5"/>
<text text-anchor="middle" x="360.5" y="-7.5" font-family="Helvetica,sans-Serif" font-size="10.00">libnpy.hpp</text>
</a>
</g>
</g>
<!-- Node36&#45;&gt;Node41 -->
<g id="edge53" class="edge">
<title>Node36&#45;&gt;Node41</title>
<path fill="none" stroke="midnightblue" d="M398.07,-56.08C391.65,-48.38 382.19,-37.03 374.38,-27.65"/>
<polygon fill="midnightblue" stroke="midnightblue" points="376.88,-25.19 367.79,-19.75 371.51,-29.67 376.88,-25.19"/>
</g>
</g>
</svg>
