<?xml version="1.0" encoding="UTF-8" standalone="no"?>
<!DOCTYPE svg PUBLIC "-//W3C//DTD SVG 1.1//EN"
 "http://www.w3.org/Graphics/SVG/1.1/DTD/svg11.dtd">
<!-- Generated by graphviz version 2.43.0 (0)
 -->
<!-- Title: src/ImGuiImageWindow.h Pages: 1 -->
<svg width="1349pt" height="140pt"
 viewBox="0.00 0.00 1348.50 140.00" xmlns="http://www.w3.org/2000/svg" xmlns:xlink="http://www.w3.org/1999/xlink">
<g id="graph0" class="graph" transform="scale(1 1) rotate(0) translate(4 136)">
<title>src/ImGuiImageWindow.h</title>
<polygon fill="white" stroke="transparent" points="-4,4 -4,-136 1344.5,-136 1344.5,4 -4,4"/>
<!-- Node1 -->
<g id="node1" class="node">
<title>Node1</title>
<g id="a_node1"><a xlink:title=" ">
<polygon fill="#bfbfbf" stroke="black" points="456,-112.5 456,-131.5 597,-131.5 597,-112.5 456,-112.5"/>
<text text-anchor="middle" x="526.5" y="-119.5" font-family="Helvetica,sans-Serif" font-size="10.00">src/ImGuiImageWindow.h</text>
</a>
</g>
</g>
<!-- Node2 -->
<g id="node2" class="node">
<title>Node2</title>
<g id="a_node2"><a xlink:title=" ">
<polygon fill="white" stroke="#bfbfbf" points="0,-0.5 0,-19.5 47,-19.5 47,-0.5 0,-0.5"/>
<text text-anchor="middle" x="23.5" y="-7.5" font-family="Helvetica,sans-Serif" font-size="10.00">vector</text>
</a>
</g>
</g>
<!-- Node1&#45;&gt;Node2 -->
<g id="edge1" class="edge">
<title>Node1&#45;&gt;Node2</title>
<path fill="none" stroke="midnightblue" d="M455.9,-115.27C390.33,-108.97 290.34,-96.86 205.5,-76 150.11,-62.38 88.02,-38.18 52.56,-23.46"/>
<polygon fill="midnightblue" stroke="midnightblue" points="53.86,-20.22 43.29,-19.58 51.16,-26.67 53.86,-20.22"/>
</g>
<!-- Node3 -->
<g id="node3" class="node">
<title>Node3</title>
<g id="a_node3"><a xlink:title=" ">
<polygon fill="white" stroke="#bfbfbf" points="65.5,-0.5 65.5,-19.5 109.5,-19.5 109.5,-0.5 65.5,-0.5"/>
<text text-anchor="middle" x="87.5" y="-7.5" font-family="Helvetica,sans-Serif" font-size="10.00">string</text>
</a>
</g>
</g>
<!-- Node1&#45;&gt;Node3 -->
<g id="edge2" class="edge">
<title>Node1&#45;&gt;Node3</title>
<path fill="none" stroke="midnightblue" d="M459.81,-112.49C407.53,-105.06 333.22,-92.83 269.5,-76 214.64,-61.51 152.85,-37.8 117.21,-23.38"/>
<polygon fill="midnightblue" stroke="midnightblue" points="118.47,-20.11 107.88,-19.57 115.82,-26.59 118.47,-20.11"/>
</g>
<!-- Node4 -->
<g id="node4" class="node">
<title>Node4</title>
<g id="a_node4"><a xlink:title=" ">
<polygon fill="white" stroke="#bfbfbf" points="127.5,-0.5 127.5,-19.5 177.5,-19.5 177.5,-0.5 127.5,-0.5"/>
<text text-anchor="middle" x="152.5" y="-7.5" font-family="Helvetica,sans-Serif" font-size="10.00">stdio.h</text>
</a>
</g>
</g>
<!-- Node1&#45;&gt;Node4 -->
<g id="edge3" class="edge">
<title>Node1&#45;&gt;Node4</title>
<path fill="none" stroke="midnightblue" d="M483.58,-112.48C444.23,-104.32 384.48,-91.04 333.5,-76 279.79,-60.15 218.76,-37.17 183.06,-23.2"/>
<polygon fill="midnightblue" stroke="midnightblue" points="184.28,-19.92 173.69,-19.52 181.71,-26.43 184.28,-19.92"/>
</g>
<!-- Node5 -->
<g id="node5" class="node">
<title>Node5</title>
<g id="a_node5"><a xlink:title=" ">
<polygon fill="white" stroke="#bfbfbf" points="729.5,-56.5 729.5,-75.5 793.5,-75.5 793.5,-56.5 729.5,-56.5"/>
<text text-anchor="middle" x="761.5" y="-63.5" font-family="Helvetica,sans-Serif" font-size="10.00">algorithm</text>
</a>
</g>
</g>
<!-- Node1&#45;&gt;Node5 -->
<g id="edge4" class="edge">
<title>Node1&#45;&gt;Node5</title>
<path fill="none" stroke="midnightblue" d="M563.74,-112.44C606.12,-102.7 675.19,-86.83 719.47,-76.66"/>
<polygon fill="midnightblue" stroke="midnightblue" points="720.38,-80.04 729.35,-74.39 718.82,-73.22 720.38,-80.04"/>
</g>
<!-- Node6 -->
<g id="node6" class="node">
<title>Node6</title>
<g id="a_node6"><a xlink:title=" ">
<polygon fill="white" stroke="#bfbfbf" points="195.5,-0.5 195.5,-19.5 239.5,-19.5 239.5,-0.5 195.5,-0.5"/>
<text text-anchor="middle" x="217.5" y="-7.5" font-family="Helvetica,sans-Serif" font-size="10.00">SDL.h</text>
</a>
</g>
</g>
<!-- Node1&#45;&gt;Node6 -->
<g id="edge5" class="edge">
<title>Node1&#45;&gt;Node6</title>
<path fill="none" stroke="midnightblue" d="M499.35,-112.47C471.62,-103.67 427.39,-89.37 389.5,-76 339.91,-58.5 282.92,-36.6 248.59,-23.22"/>
<polygon fill="midnightblue" stroke="midnightblue" points="249.7,-19.9 239.11,-19.52 247.15,-26.42 249.7,-19.9"/>
</g>
<!-- Node7 -->
<g id="node7" class="node">
<title>Node7</title>
<g id="a_node7"><a xlink:title=" ">
<polygon fill="white" stroke="#bfbfbf" points="258,-0.5 258,-19.5 341,-19.5 341,-0.5 258,-0.5"/>
<text text-anchor="middle" x="299.5" y="-7.5" font-family="Helvetica,sans-Serif" font-size="10.00">SDL_opengl.h</text>
</a>
</g>
</g>
<!-- Node1&#45;&gt;Node7 -->
<g id="edge6" class="edge">
<title>Node1&#45;&gt;Node7</title>
<path fill="none" stroke="midnightblue" d="M508.69,-112.37C469.07,-93.17 373.46,-46.84 326.48,-24.07"/>
<polygon fill="midnightblue" stroke="midnightblue" points="327.75,-20.8 317.23,-19.59 324.7,-27.1 327.75,-20.8"/>
</g>
<!-- Node8 -->
<g id="node8" class="node">
<title>Node8</title>
<g id="a_node8"><a xlink:title=" ">
<polygon fill="white" stroke="#bfbfbf" points="811.5,-56.5 811.5,-75.5 913.5,-75.5 913.5,-56.5 811.5,-56.5"/>
<text text-anchor="middle" x="862.5" y="-63.5" font-family="Helvetica,sans-Serif" font-size="10.00">tinycolormap.hpp</text>
</a>
</g>
</g>
<!-- Node1&#45;&gt;Node8 -->
<g id="edge7" class="edge">
<title>Node1&#45;&gt;Node8</title>
<path fill="none" stroke="midnightblue" d="M579.74,-112.44C639.95,-102.77 737.83,-87.04 801.19,-76.85"/>
<polygon fill="midnightblue" stroke="midnightblue" points="802.12,-80.25 811.44,-75.21 801.01,-73.34 802.12,-80.25"/>
</g>
<!-- Node9 -->
<g id="node9" class="node">
<title>Node9</title>
<g id="a_node9"><a xlink:title=" ">
<polygon fill="white" stroke="#bfbfbf" points="931.5,-56.5 931.5,-75.5 991.5,-75.5 991.5,-56.5 931.5,-56.5"/>
<text text-anchor="middle" x="961.5" y="-63.5" font-family="Helvetica,sans-Serif" font-size="10.00">fft2d.hpp</text>
</a>
</g>
</g>
<!-- Node1&#45;&gt;Node9 -->
<g id="edge8" class="edge">
<title>Node1&#45;&gt;Node9</title>
<path fill="none" stroke="midnightblue" d="M597.3,-115.4C674.62,-108.73 802.25,-96.11 921.31,-76.03"/>
<polygon fill="midnightblue" stroke="midnightblue" points="922.07,-79.45 931.33,-74.32 920.89,-72.55 922.07,-79.45"/>
</g>
<!-- Node10 -->
<g id="node10" class="node">
<title>Node10</title>
<g id="a_node10"><a xlink:title=" ">
<polygon fill="white" stroke="#bfbfbf" points="359,-0.5 359,-19.5 412,-19.5 412,-0.5 359,-0.5"/>
<text text-anchor="middle" x="385.5" y="-7.5" font-family="Helvetica,sans-Serif" font-size="10.00">imgui.h</text>
</a>
</g>
</g>
<!-- Node1&#45;&gt;Node10 -->
<g id="edge9" class="edge">
<title>Node1&#45;&gt;Node10</title>
<path fill="none" stroke="midnightblue" d="M515.44,-112.37C491.45,-93.65 434.4,-49.15 404.51,-25.83"/>
<polygon fill="midnightblue" stroke="midnightblue" points="406.55,-22.98 396.51,-19.59 402.24,-28.5 406.55,-22.98"/>
</g>
<!-- Node11 -->
<g id="node11" class="node">
<title>Node11</title>
<g id="a_node11"><a xlink:title=" ">
<polygon fill="white" stroke="#bfbfbf" points="430.5,-0.5 430.5,-19.5 530.5,-19.5 530.5,-0.5 430.5,-0.5"/>
<text text-anchor="middle" x="480.5" y="-7.5" font-family="Helvetica,sans-Serif" font-size="10.00">imgui_impl_sdl.h</text>
</a>
</g>
</g>
<!-- Node1&#45;&gt;Node11 -->
<g id="edge10" class="edge">
<title>Node1&#45;&gt;Node11</title>
<path fill="none" stroke="midnightblue" d="M514.91,-112.46C504.88,-104.33 491,-91.12 484.5,-76 478.22,-61.39 477.63,-43.22 478.38,-29.81"/>
<polygon fill="midnightblue" stroke="midnightblue" points="481.86,-30.1 479.22,-19.84 474.89,-29.51 481.86,-30.1"/>
</g>
<!-- Node12 -->
<g id="node12" class="node">
<title>Node12</title>
<g id="a_node12"><a xlink:title=" ">
<polygon fill="white" stroke="#bfbfbf" points="887,-0.5 887,-19.5 1012,-19.5 1012,-0.5 887,-0.5"/>
<text text-anchor="middle" x="949.5" y="-7.5" font-family="Helvetica,sans-Serif" font-size="10.00">imgui_impl_opengl3.h</text>
</a>
</g>
</g>
<!-- Node1&#45;&gt;Node12 -->
<g id="edge11" class="edge">
<title>Node1&#45;&gt;Node12</title>
<path fill="none" stroke="midnightblue" d="M534.93,-112.04C549.17,-97.54 579.58,-69.22 611.5,-56 617.6,-53.47 779.41,-32.61 876.9,-20.19"/>
<polygon fill="midnightblue" stroke="midnightblue" points="877.52,-23.64 887,-18.91 876.63,-16.7 877.52,-23.64"/>
</g>
<!-- Node13 -->
<g id="node13" class="node">
<title>Node13</title>
<g id="a_node13"><a xlink:title=" ">
<polygon fill="white" stroke="#bfbfbf" points="1030.5,-0.5 1030.5,-19.5 1116.5,-19.5 1116.5,-0.5 1030.5,-0.5"/>
<text text-anchor="middle" x="1073.5" y="-7.5" font-family="Helvetica,sans-Serif" font-size="10.00">imgui_stdlib.h</text>
</a>
</g>
</g>
<!-- Node1&#45;&gt;Node13 -->
<g id="edge12" class="edge">
<title>Node1&#45;&gt;Node13</title>
<path fill="none" stroke="midnightblue" d="M542.67,-112.24C574.74,-94.9 643.83,-57.7 649.5,-56 805.5,-9.22 854.95,-40.89 1020.38,-20.02"/>
<polygon fill="midnightblue" stroke="midnightblue" points="1020.95,-23.48 1030.41,-18.71 1020.04,-16.54 1020.95,-23.48"/>
</g>
<!-- Node14 -->
<g id="node14" class="node">
<title>Node14</title>
<g id="a_node14"><a xlink:title=" ">
<polygon fill="white" stroke="#bfbfbf" points="1134.5,-0.5 1134.5,-19.5 1230.5,-19.5 1230.5,-0.5 1134.5,-0.5"/>
<text text-anchor="middle" x="1182.5" y="-7.5" font-family="Helvetica,sans-Serif" font-size="10.00">imgui_internal.h</text>
</a>
</g>
</g>
<!-- Node1&#45;&gt;Node14 -->
<g id="edge13" class="edge">
<title>Node1&#45;&gt;Node14</title>
<path fill="none" stroke="midnightblue" d="M550.89,-112.45C575.11,-103.8 613.19,-89.77 645.5,-76 664.52,-67.89 667.54,-61.38 687.5,-56 872.96,-6.02 929.69,-42.01 1124.35,-20.03"/>
<polygon fill="midnightblue" stroke="midnightblue" points="1124.81,-23.5 1134.33,-18.86 1124,-16.55 1124.81,-23.5"/>
</g>
<!-- Node15 -->
<g id="node15" class="node">
<title>Node15</title>
<g id="a_node15"><a xlink:title=" ">
<polygon fill="white" stroke="#bfbfbf" points="1248.5,-0.5 1248.5,-19.5 1340.5,-19.5 1340.5,-0.5 1248.5,-0.5"/>
<text text-anchor="middle" x="1294.5" y="-7.5" font-family="Helvetica,sans-Serif" font-size="10.00">imfilebrowser.h</text>
</a>
</g>
</g>
<!-- Node1&#45;&gt;Node15 -->
<g id="edge14" class="edge">
<title>Node1&#45;&gt;Node15</title>
<path fill="none" stroke="midnightblue" d="M562.27,-112.49C593.88,-104.52 640.96,-91.52 680.5,-76 699,-68.74 701.33,-61.23 720.5,-56 940.4,4.02 1007.92,-45.26 1238.3,-20.01"/>
<polygon fill="midnightblue" stroke="midnightblue" points="1238.79,-23.48 1248.33,-18.87 1238,-16.52 1238.79,-23.48"/>
</g>
<!-- Node16 -->
<g id="node16" class="node">
<title>Node16</title>
<g id="a_node16"><a xlink:href="../../d7/db2/GuiUtils_8h.html" target="_top" xlink:title=" ">
<polygon fill="white" stroke="black" points="494,-56.5 494,-75.5 559,-75.5 559,-56.5 494,-56.5"/>
<text text-anchor="middle" x="526.5" y="-63.5" font-family="Helvetica,sans-Serif" font-size="10.00">GuiUtils.h</text>
</a>
</g>
</g>
<!-- Node1&#45;&gt;Node16 -->
<g id="edge15" class="edge">
<title>Node1&#45;&gt;Node16</title>
<path fill="none" stroke="midnightblue" d="M526.5,-112.08C526.5,-105.01 526.5,-94.86 526.5,-85.99"/>
<polygon fill="midnightblue" stroke="midnightblue" points="530,-85.75 526.5,-75.75 523,-85.75 530,-85.75"/>
</g>
<!-- Node16&#45;&gt;Node2 -->
<g id="edge18" class="edge">
<title>Node16&#45;&gt;Node2</title>
<path fill="none" stroke="midnightblue" d="M493.76,-63.79C418.33,-60.59 226.47,-50.12 57.02,-19.77"/>
<polygon fill="midnightblue" stroke="midnightblue" points="57.65,-16.32 47.18,-17.98 56.39,-23.21 57.65,-16.32"/>
</g>
<!-- Node16&#45;&gt;Node3 -->
<g id="edge16" class="edge">
<title>Node16&#45;&gt;Node3</title>
<path fill="none" stroke="midnightblue" d="M493.95,-63.32C425.99,-59.41 264.04,-47.97 119.66,-19.91"/>
<polygon fill="midnightblue" stroke="midnightblue" points="120.23,-16.46 109.74,-17.95 118.87,-23.33 120.23,-16.46"/>
</g>
<!-- Node16&#45;&gt;Node4 -->
<g id="edge20" class="edge">
<title>Node16&#45;&gt;Node4</title>
<path fill="none" stroke="midnightblue" d="M493.93,-62.08C434.78,-56.48 305.67,-42.88 187.6,-20"/>
<polygon fill="midnightblue" stroke="midnightblue" points="188.16,-16.54 177.67,-18.04 186.8,-23.41 188.16,-16.54"/>
</g>
<!-- Node16&#45;&gt;Node6 -->
<g id="edge21" class="edge">
<title>Node16&#45;&gt;Node6</title>
<path fill="none" stroke="midnightblue" d="M493.73,-61.01C443.27,-54.59 343.39,-40.75 249.69,-20.04"/>
<polygon fill="midnightblue" stroke="midnightblue" points="250.29,-16.59 239.77,-17.82 248.76,-23.42 250.29,-16.59"/>
</g>
<!-- Node16&#45;&gt;Node7 -->
<g id="edge23" class="edge">
<title>Node16&#45;&gt;Node7</title>
<path fill="none" stroke="midnightblue" d="M493.98,-57.26C454.97,-47.98 389.32,-32.37 345.22,-21.88"/>
<polygon fill="midnightblue" stroke="midnightblue" points="345.87,-18.43 335.33,-19.52 344.25,-25.24 345.87,-18.43"/>
</g>
<!-- Node16&#45;&gt;Node10 -->
<g id="edge24" class="edge">
<title>Node16&#45;&gt;Node10</title>
<path fill="none" stroke="midnightblue" d="M504.16,-56.44C480.75,-47.48 443.76,-33.31 417.31,-23.18"/>
<polygon fill="midnightblue" stroke="midnightblue" points="418.33,-19.82 407.74,-19.52 415.82,-26.36 418.33,-19.82"/>
</g>
<!-- Node16&#45;&gt;Node11 -->
<g id="edge25" class="edge">
<title>Node16&#45;&gt;Node11</title>
<path fill="none" stroke="midnightblue" d="M518.9,-56.08C512.27,-48.3 502.48,-36.8 494.44,-27.37"/>
<polygon fill="midnightblue" stroke="midnightblue" points="497.1,-25.09 487.95,-19.75 491.77,-29.63 497.1,-25.09"/>
</g>
<!-- Node16&#45;&gt;Node12 -->
<g id="edge26" class="edge">
<title>Node16&#45;&gt;Node12</title>
<path fill="none" stroke="midnightblue" d="M559.06,-58.45C563.89,-57.57 568.82,-56.72 573.5,-56 704.8,-35.68 740.77,-36.39 876.71,-20.08"/>
<polygon fill="midnightblue" stroke="midnightblue" points="877.17,-23.55 886.67,-18.88 876.33,-16.6 877.17,-23.55"/>
</g>
<!-- Node16&#45;&gt;Node13 -->
<g id="edge27" class="edge">
<title>Node16&#45;&gt;Node13</title>
<path fill="none" stroke="midnightblue" d="M559.18,-61.4C574.98,-59.7 594.22,-57.67 611.5,-56 790.28,-38.69 838.38,-43.44 1020.24,-20.06"/>
<polygon fill="midnightblue" stroke="midnightblue" points="1020.95,-23.5 1030.41,-18.74 1020.05,-16.56 1020.95,-23.5"/>
</g>
<!-- Node16&#45;&gt;Node14 -->
<g id="edge28" class="edge">
<title>Node16&#45;&gt;Node14</title>
<path fill="none" stroke="midnightblue" d="M559.11,-62.59C673.65,-54.1 1054.05,-25.9 1124.15,-19.85"/>
<polygon fill="midnightblue" stroke="midnightblue" points="1124.71,-23.31 1134.34,-18.89 1124.05,-16.34 1124.71,-23.31"/>
</g>
<!-- Node16&#45;&gt;Node15 -->
<g id="edge29" class="edge">
<title>Node16&#45;&gt;Node15</title>
<path fill="none" stroke="midnightblue" d="M559.02,-63.14C684.67,-55.92 1136.13,-29.75 1238.13,-19.95"/>
<polygon fill="midnightblue" stroke="midnightblue" points="1238.75,-23.41 1248.33,-18.9 1238.02,-16.45 1238.75,-23.41"/>
</g>
<!-- Node17 -->
<g id="node17" class="node">
<title>Node17</title>
<g id="a_node17"><a xlink:title=" ">
<polygon fill="white" stroke="#bfbfbf" points="808.5,-0.5 808.5,-19.5 868.5,-19.5 868.5,-0.5 808.5,-0.5"/>
<text text-anchor="middle" x="838.5" y="-7.5" font-family="Helvetica,sans-Serif" font-size="10.00">iostream</text>
</a>
</g>
</g>
<!-- Node16&#45;&gt;Node17 -->
<g id="edge17" class="edge">
<title>Node16&#45;&gt;Node17</title>
<path fill="none" stroke="midnightblue" d="M559.09,-58.62C563.92,-57.72 568.84,-56.82 573.5,-56 670.55,-38.98 697.97,-39.4 798.36,-20.11"/>
<polygon fill="midnightblue" stroke="midnightblue" points="799.16,-23.52 808.31,-18.18 797.83,-16.65 799.16,-23.52"/>
</g>
<!-- Node18 -->
<g id="node18" class="node">
<title>Node18</title>
<g id="a_node18"><a xlink:title=" ">
<polygon fill="white" stroke="#bfbfbf" points="549,-0.5 549,-19.5 608,-19.5 608,-0.5 549,-0.5"/>
<text text-anchor="middle" x="578.5" y="-7.5" font-family="Helvetica,sans-Serif" font-size="10.00">complex</text>
</a>
</g>
</g>
<!-- Node16&#45;&gt;Node18 -->
<g id="edge19" class="edge">
<title>Node16&#45;&gt;Node18</title>
<path fill="none" stroke="midnightblue" d="M535.09,-56.08C542.66,-48.22 553.88,-36.57 563.01,-27.08"/>
<polygon fill="midnightblue" stroke="midnightblue" points="565.66,-29.38 570.07,-19.75 560.62,-24.53 565.66,-29.38"/>
</g>
<!-- Node19 -->
<g id="node19" class="node">
<title>Node19</title>
<g id="a_node19"><a xlink:title=" ">
<polygon fill="white" stroke="#bfbfbf" points="626.5,-0.5 626.5,-19.5 706.5,-19.5 706.5,-0.5 626.5,-0.5"/>
<text text-anchor="middle" x="666.5" y="-7.5" font-family="Helvetica,sans-Serif" font-size="10.00">SDL_image.h</text>
</a>
</g>
</g>
<!-- Node16&#45;&gt;Node19 -->
<g id="edge22" class="edge">
<title>Node16&#45;&gt;Node19</title>
<path fill="none" stroke="midnightblue" d="M548.68,-56.44C571.93,-47.48 608.65,-33.31 634.92,-23.18"/>
<polygon fill="midnightblue" stroke="midnightblue" points="636.35,-26.38 644.42,-19.52 633.83,-19.85 636.35,-26.38"/>
</g>
<!-- Node20 -->
<g id="node20" class="node">
<title>Node20</title>
<g id="a_node20"><a xlink:title=" ">
<polygon fill="white" stroke="#bfbfbf" points="724.5,-0.5 724.5,-19.5 790.5,-19.5 790.5,-0.5 724.5,-0.5"/>
<text text-anchor="middle" x="757.5" y="-7.5" font-family="Helvetica,sans-Serif" font-size="10.00">libnpy.hpp</text>
</a>
</g>
</g>
<!-- Node16&#45;&gt;Node20 -->
<g id="edge30" class="edge">
<title>Node16&#45;&gt;Node20</title>
<path fill="none" stroke="midnightblue" d="M559.11,-57.38C599.81,-47.86 669.53,-31.57 714.54,-21.04"/>
<polygon fill="midnightblue" stroke="midnightblue" points="715.37,-24.44 724.31,-18.76 713.78,-17.63 715.37,-24.44"/>
</g>
</g>
</svg>
