<?xml version="1.0" encoding="UTF-8" standalone="no"?>
<!DOCTYPE svg PUBLIC "-//W3C//DTD SVG 1.1//EN"
 "http://www.w3.org/Graphics/SVG/1.1/DTD/svg11.dtd">
<!-- Generated by graphviz version 2.43.0 (0)
 -->
<!-- Title: src/ImGuiImageWindow.h Pages: 1 -->
<svg width="1280pt" height="140pt"
 viewBox="0.00 0.00 1279.50 140.00" xmlns="http://www.w3.org/2000/svg" xmlns:xlink="http://www.w3.org/1999/xlink">
<g id="graph0" class="graph" transform="scale(1 1) rotate(0) translate(4 136)">
<title>src/ImGuiImageWindow.h</title>
<polygon fill="white" stroke="transparent" points="-4,4 -4,-136 1275.5,-136 1275.5,4 -4,4"/>
<!-- Node1 -->
<g id="node1" class="node">
<title>Node1</title>
<g id="a_node1"><a xlink:title=" ">
<polygon fill="#bfbfbf" stroke="black" points="403,-112.5 403,-131.5 544,-131.5 544,-112.5 403,-112.5"/>
<text text-anchor="middle" x="473.5" y="-119.5" font-family="Helvetica,sans-Serif" font-size="10.00">src/ImGuiImageWindow.h</text>
</a>
</g>
</g>
<!-- Node2 -->
<g id="node2" class="node">
<title>Node2</title>
<g id="a_node2"><a xlink:title=" ">
<polygon fill="white" stroke="#bfbfbf" points="0,-0.5 0,-19.5 47,-19.5 47,-0.5 0,-0.5"/>
<text text-anchor="middle" x="23.5" y="-7.5" font-family="Helvetica,sans-Serif" font-size="10.00">vector</text>
</a>
</g>
</g>
<!-- Node1&#45;&gt;Node2 -->
<g id="edge1" class="edge">
<title>Node1&#45;&gt;Node2</title>
<path fill="none" stroke="midnightblue" d="M402.78,-119.26C333.74,-115.77 226.53,-105.56 138.5,-76 102.77,-64 65.52,-40.62 43.42,-25.41"/>
<polygon fill="midnightblue" stroke="midnightblue" points="45.4,-22.52 35.2,-19.65 41.38,-28.25 45.4,-22.52"/>
</g>
<!-- Node3 -->
<g id="node3" class="node">
<title>Node3</title>
<g id="a_node3"><a xlink:title=" ">
<polygon fill="white" stroke="#bfbfbf" points="65.5,-0.5 65.5,-19.5 109.5,-19.5 109.5,-0.5 65.5,-0.5"/>
<text text-anchor="middle" x="87.5" y="-7.5" font-family="Helvetica,sans-Serif" font-size="10.00">string</text>
</a>
</g>
</g>
<!-- Node1&#45;&gt;Node3 -->
<g id="edge2" class="edge">
<title>Node1&#45;&gt;Node3</title>
<path fill="none" stroke="midnightblue" d="M402.9,-119.87C340.85,-116.68 249.21,-106.56 175.5,-76 147.71,-64.48 120.62,-42.33 104,-27.12"/>
<polygon fill="midnightblue" stroke="midnightblue" points="106,-24.19 96.32,-19.89 101.2,-29.29 106,-24.19"/>
</g>
<!-- Node4 -->
<g id="node4" class="node">
<title>Node4</title>
<g id="a_node4"><a xlink:title=" ">
<polygon fill="white" stroke="#bfbfbf" points="301.5,-56.5 301.5,-75.5 351.5,-75.5 351.5,-56.5 301.5,-56.5"/>
<text text-anchor="middle" x="326.5" y="-63.5" font-family="Helvetica,sans-Serif" font-size="10.00">stdio.h</text>
</a>
</g>
</g>
<!-- Node1&#45;&gt;Node4 -->
<g id="edge3" class="edge">
<title>Node1&#45;&gt;Node4</title>
<path fill="none" stroke="midnightblue" d="M450.21,-112.44C425.69,-103.44 386.9,-89.19 359.3,-79.05"/>
<polygon fill="midnightblue" stroke="midnightblue" points="360.28,-75.68 349.68,-75.52 357.86,-82.25 360.28,-75.68"/>
</g>
<!-- Node5 -->
<g id="node5" class="node">
<title>Node5</title>
<g id="a_node5"><a xlink:title=" ">
<polygon fill="white" stroke="#bfbfbf" points="369.5,-56.5 369.5,-75.5 433.5,-75.5 433.5,-56.5 369.5,-56.5"/>
<text text-anchor="middle" x="401.5" y="-63.5" font-family="Helvetica,sans-Serif" font-size="10.00">algorithm</text>
</a>
</g>
</g>
<!-- Node1&#45;&gt;Node5 -->
<g id="edge4" class="edge">
<title>Node1&#45;&gt;Node5</title>
<path fill="none" stroke="midnightblue" d="M461.93,-112.32C451.08,-104.18 434.62,-91.84 421.62,-82.09"/>
<polygon fill="midnightblue" stroke="midnightblue" points="423.38,-79.03 413.28,-75.83 419.18,-84.63 423.38,-79.03"/>
</g>
<!-- Node6 -->
<g id="node6" class="node">
<title>Node6</title>
<g id="a_node6"><a xlink:title=" ">
<polygon fill="white" stroke="#bfbfbf" points="451.5,-56.5 451.5,-75.5 495.5,-75.5 495.5,-56.5 451.5,-56.5"/>
<text text-anchor="middle" x="473.5" y="-63.5" font-family="Helvetica,sans-Serif" font-size="10.00">SDL.h</text>
</a>
</g>
</g>
<!-- Node1&#45;&gt;Node6 -->
<g id="edge5" class="edge">
<title>Node1&#45;&gt;Node6</title>
<path fill="none" stroke="midnightblue" d="M473.5,-112.08C473.5,-105.01 473.5,-94.86 473.5,-85.99"/>
<polygon fill="midnightblue" stroke="midnightblue" points="477,-85.75 473.5,-75.75 470,-85.75 477,-85.75"/>
</g>
<!-- Node7 -->
<g id="node7" class="node">
<title>Node7</title>
<g id="a_node7"><a xlink:title=" ">
<polygon fill="white" stroke="#bfbfbf" points="514,-56.5 514,-75.5 597,-75.5 597,-56.5 514,-56.5"/>
<text text-anchor="middle" x="555.5" y="-63.5" font-family="Helvetica,sans-Serif" font-size="10.00">SDL_opengl.h</text>
</a>
</g>
</g>
<!-- Node1&#45;&gt;Node7 -->
<g id="edge6" class="edge">
<title>Node1&#45;&gt;Node7</title>
<path fill="none" stroke="midnightblue" d="M486.67,-112.32C499.35,-103.98 518.73,-91.21 533.71,-81.35"/>
<polygon fill="midnightblue" stroke="midnightblue" points="535.93,-84.08 542.36,-75.65 532.08,-78.23 535.93,-84.08"/>
</g>
<!-- Node8 -->
<g id="node8" class="node">
<title>Node8</title>
<g id="a_node8"><a xlink:title=" ">
<polygon fill="white" stroke="#bfbfbf" points="615.5,-56.5 615.5,-75.5 717.5,-75.5 717.5,-56.5 615.5,-56.5"/>
<text text-anchor="middle" x="666.5" y="-63.5" font-family="Helvetica,sans-Serif" font-size="10.00">tinycolormap.hpp</text>
</a>
</g>
</g>
<!-- Node1&#45;&gt;Node8 -->
<g id="edge7" class="edge">
<title>Node1&#45;&gt;Node8</title>
<path fill="none" stroke="midnightblue" d="M504.08,-112.44C537.11,-103.2 589.89,-88.44 626.27,-78.26"/>
<polygon fill="midnightblue" stroke="midnightblue" points="627.37,-81.58 636.06,-75.52 625.49,-74.84 627.37,-81.58"/>
</g>
<!-- Node9 -->
<g id="node9" class="node">
<title>Node9</title>
<g id="a_node9"><a xlink:title=" ">
<polygon fill="white" stroke="#bfbfbf" points="735.5,-56.5 735.5,-75.5 795.5,-75.5 795.5,-56.5 735.5,-56.5"/>
<text text-anchor="middle" x="765.5" y="-63.5" font-family="Helvetica,sans-Serif" font-size="10.00">fft2d.hpp</text>
</a>
</g>
</g>
<!-- Node1&#45;&gt;Node9 -->
<g id="edge8" class="edge">
<title>Node1&#45;&gt;Node9</title>
<path fill="none" stroke="midnightblue" d="M525.98,-112.46C575.05,-104.3 650.6,-91.28 725.25,-76.18"/>
<polygon fill="midnightblue" stroke="midnightblue" points="726.2,-79.55 735.3,-74.13 724.8,-72.7 726.2,-79.55"/>
</g>
<!-- Node10 -->
<g id="node10" class="node">
<title>Node10</title>
<g id="a_node10"><a xlink:title=" ">
<polygon fill="white" stroke="#bfbfbf" points="128,-0.5 128,-19.5 181,-19.5 181,-0.5 128,-0.5"/>
<text text-anchor="middle" x="154.5" y="-7.5" font-family="Helvetica,sans-Serif" font-size="10.00">imgui.h</text>
</a>
</g>
</g>
<!-- Node1&#45;&gt;Node10 -->
<g id="edge9" class="edge">
<title>Node1&#45;&gt;Node10</title>
<path fill="none" stroke="midnightblue" d="M402.81,-115.54C333.43,-109.1 233.38,-96.58 200.5,-76 182.79,-64.92 169.96,-44.27 162.42,-29.21"/>
<polygon fill="midnightblue" stroke="midnightblue" points="165.45,-27.44 158.05,-19.86 159.11,-30.4 165.45,-27.44"/>
</g>
<!-- Node11 -->
<g id="node11" class="node">
<title>Node11</title>
<g id="a_node11"><a xlink:title=" ">
<polygon fill="white" stroke="#bfbfbf" points="813.5,-56.5 813.5,-75.5 913.5,-75.5 913.5,-56.5 813.5,-56.5"/>
<text text-anchor="middle" x="863.5" y="-63.5" font-family="Helvetica,sans-Serif" font-size="10.00">imgui_impl_sdl.h</text>
</a>
</g>
</g>
<!-- Node1&#45;&gt;Node11 -->
<g id="edge10" class="edge">
<title>Node1&#45;&gt;Node11</title>
<path fill="none" stroke="midnightblue" d="M538.55,-112.47C603.11,-103.94 705.17,-90.25 803.21,-76.17"/>
<polygon fill="midnightblue" stroke="midnightblue" points="803.9,-79.61 813.3,-74.71 802.9,-72.68 803.9,-79.61"/>
</g>
<!-- Node12 -->
<g id="node12" class="node">
<title>Node12</title>
<g id="a_node12"><a xlink:title=" ">
<polygon fill="white" stroke="#bfbfbf" points="932,-56.5 932,-75.5 1057,-75.5 1057,-56.5 932,-56.5"/>
<text text-anchor="middle" x="994.5" y="-63.5" font-family="Helvetica,sans-Serif" font-size="10.00">imgui_impl_opengl3.h</text>
</a>
</g>
</g>
<!-- Node1&#45;&gt;Node12 -->
<g id="edge11" class="edge">
<title>Node1&#45;&gt;Node12</title>
<path fill="none" stroke="midnightblue" d="M544.32,-114.44C630.78,-106.31 781.71,-91.74 921.63,-76.07"/>
<polygon fill="midnightblue" stroke="midnightblue" points="922.14,-79.54 931.68,-74.94 921.35,-72.58 922.14,-79.54"/>
</g>
<!-- Node13 -->
<g id="node13" class="node">
<title>Node13</title>
<g id="a_node13"><a xlink:title=" ">
<polygon fill="white" stroke="#bfbfbf" points="1075.5,-56.5 1075.5,-75.5 1161.5,-75.5 1161.5,-56.5 1075.5,-56.5"/>
<text text-anchor="middle" x="1118.5" y="-63.5" font-family="Helvetica,sans-Serif" font-size="10.00">imgui_stdlib.h</text>
</a>
</g>
</g>
<!-- Node1&#45;&gt;Node13 -->
<g id="edge12" class="edge">
<title>Node1&#45;&gt;Node13</title>
<path fill="none" stroke="midnightblue" d="M544.01,-117.84C653.42,-112.44 870.89,-99.79 1065.3,-76.03"/>
<polygon fill="midnightblue" stroke="midnightblue" points="1065.92,-79.48 1075.42,-74.78 1065.06,-72.54 1065.92,-79.48"/>
</g>
<!-- Node14 -->
<g id="node14" class="node">
<title>Node14</title>
<g id="a_node14"><a xlink:title=" ">
<polygon fill="white" stroke="#bfbfbf" points="199.5,-0.5 199.5,-19.5 295.5,-19.5 295.5,-0.5 199.5,-0.5"/>
<text text-anchor="middle" x="247.5" y="-7.5" font-family="Helvetica,sans-Serif" font-size="10.00">imgui_internal.h</text>
</a>
</g>
</g>
<!-- Node1&#45;&gt;Node14 -->
<g id="edge13" class="edge">
<title>Node1&#45;&gt;Node14</title>
<path fill="none" stroke="midnightblue" d="M402.68,-118.9C333.06,-115.16 233.79,-104.78 209.5,-76 196.43,-60.52 213.12,-39.96 228.32,-26.14"/>
<polygon fill="midnightblue" stroke="midnightblue" points="230.64,-28.76 235.96,-19.6 226.09,-23.44 230.64,-28.76"/>
</g>
<!-- Node15 -->
<g id="node15" class="node">
<title>Node15</title>
<g id="a_node15"><a xlink:title=" ">
<polygon fill="white" stroke="#bfbfbf" points="1179.5,-56.5 1179.5,-75.5 1271.5,-75.5 1271.5,-56.5 1179.5,-56.5"/>
<text text-anchor="middle" x="1225.5" y="-63.5" font-family="Helvetica,sans-Serif" font-size="10.00">imfilebrowser.h</text>
</a>
</g>
</g>
<!-- Node1&#45;&gt;Node15 -->
<g id="edge14" class="edge">
<title>Node1&#45;&gt;Node15</title>
<path fill="none" stroke="midnightblue" d="M544.44,-118.71C668.9,-114.19 934.82,-102.3 1169.25,-76.03"/>
<polygon fill="midnightblue" stroke="midnightblue" points="1169.79,-79.49 1179.33,-74.89 1169,-72.54 1169.79,-79.49"/>
</g>
<!-- Node16 -->
<g id="node16" class="node">
<title>Node16</title>
<g id="a_node16"><a xlink:href="../../d7/db2/GuiUtils_8h.html" target="_top" xlink:title=" ">
<polygon fill="white" stroke="black" points="218,-56.5 218,-75.5 283,-75.5 283,-56.5 218,-56.5"/>
<text text-anchor="middle" x="250.5" y="-63.5" font-family="Helvetica,sans-Serif" font-size="10.00">GuiUtils.h</text>
</a>
</g>
</g>
<!-- Node1&#45;&gt;Node16 -->
<g id="edge15" class="edge">
<title>Node1&#45;&gt;Node16</title>
<path fill="none" stroke="midnightblue" d="M438.16,-112.44C398.8,-102.91 335.16,-87.5 293.07,-77.31"/>
<polygon fill="midnightblue" stroke="midnightblue" points="293.67,-73.85 283.13,-74.9 292.03,-80.66 293.67,-73.85"/>
</g>
<!-- Node16&#45;&gt;Node2 -->
<g id="edge17" class="edge">
<title>Node16&#45;&gt;Node2</title>
<path fill="none" stroke="midnightblue" d="M217.8,-57.82C181.12,-49.67 119.64,-35.75 57.28,-20.12"/>
<polygon fill="midnightblue" stroke="midnightblue" points="57.82,-16.65 47.26,-17.6 56.11,-23.44 57.82,-16.65"/>
</g>
<!-- Node16&#45;&gt;Node3 -->
<g id="edge16" class="edge">
<title>Node16&#45;&gt;Node3</title>
<path fill="none" stroke="midnightblue" d="M224.67,-56.44C196.12,-46.99 150.11,-31.74 119.35,-21.55"/>
<polygon fill="midnightblue" stroke="midnightblue" points="120.14,-18.13 109.55,-18.3 117.94,-24.77 120.14,-18.13"/>
</g>
<!-- Node16&#45;&gt;Node10 -->
<g id="edge21" class="edge">
<title>Node16&#45;&gt;Node10</title>
<path fill="none" stroke="midnightblue" d="M235.08,-56.32C219.96,-47.82 196.68,-34.73 179.03,-24.8"/>
<polygon fill="midnightblue" stroke="midnightblue" points="180.32,-21.51 169.89,-19.65 176.89,-27.61 180.32,-21.51"/>
</g>
<!-- Node16&#45;&gt;Node14 -->
<g id="edge22" class="edge">
<title>Node16&#45;&gt;Node14</title>
<path fill="none" stroke="midnightblue" d="M250,-56.08C249.61,-49.01 249.05,-38.86 248.55,-29.99"/>
<polygon fill="midnightblue" stroke="midnightblue" points="252.04,-29.54 247.99,-19.75 245.05,-29.93 252.04,-29.54"/>
</g>
<!-- Node17 -->
<g id="node17" class="node">
<title>Node17</title>
<g id="a_node17"><a xlink:title=" ">
<polygon fill="white" stroke="#bfbfbf" points="314,-0.5 314,-19.5 373,-19.5 373,-0.5 314,-0.5"/>
<text text-anchor="middle" x="343.5" y="-7.5" font-family="Helvetica,sans-Serif" font-size="10.00">complex</text>
</a>
</g>
</g>
<!-- Node16&#45;&gt;Node17 -->
<g id="edge18" class="edge">
<title>Node16&#45;&gt;Node17</title>
<path fill="none" stroke="midnightblue" d="M265.44,-56.32C280.09,-47.82 302.63,-34.73 319.74,-24.8"/>
<polygon fill="midnightblue" stroke="midnightblue" points="321.7,-27.7 328.6,-19.65 318.19,-21.65 321.7,-27.7"/>
</g>
<!-- Node18 -->
<g id="node18" class="node">
<title>Node18</title>
<g id="a_node18"><a xlink:title=" ">
<polygon fill="white" stroke="#bfbfbf" points="391.5,-0.5 391.5,-19.5 459.5,-19.5 459.5,-0.5 391.5,-0.5"/>
<text text-anchor="middle" x="425.5" y="-7.5" font-family="Helvetica,sans-Serif" font-size="10.00">filesystem</text>
</a>
</g>
</g>
<!-- Node16&#45;&gt;Node18 -->
<g id="edge19" class="edge">
<title>Node16&#45;&gt;Node18</title>
<path fill="none" stroke="midnightblue" d="M278.23,-56.44C307.93,-47.28 355.22,-32.69 388.17,-22.52"/>
<polygon fill="midnightblue" stroke="midnightblue" points="389.38,-25.81 397.9,-19.52 387.31,-19.12 389.38,-25.81"/>
</g>
<!-- Node19 -->
<g id="node19" class="node">
<title>Node19</title>
<g id="a_node19"><a xlink:title=" ">
<polygon fill="white" stroke="#bfbfbf" points="477.5,-0.5 477.5,-19.5 557.5,-19.5 557.5,-0.5 477.5,-0.5"/>
<text text-anchor="middle" x="517.5" y="-7.5" font-family="Helvetica,sans-Serif" font-size="10.00">SDL_image.h</text>
</a>
</g>
</g>
<!-- Node16&#45;&gt;Node19 -->
<g id="edge20" class="edge">
<title>Node16&#45;&gt;Node19</title>
<path fill="none" stroke="midnightblue" d="M283.05,-57.98C286.24,-57.3 289.43,-56.64 292.5,-56 352.52,-43.57 421.67,-29.82 467.29,-20.84"/>
<polygon fill="midnightblue" stroke="midnightblue" points="468.09,-24.25 477.23,-18.88 466.74,-17.38 468.09,-24.25"/>
</g>
<!-- Node20 -->
<g id="node20" class="node">
<title>Node20</title>
<g id="a_node20"><a xlink:title=" ">
<polygon fill="white" stroke="#bfbfbf" points="575.5,-0.5 575.5,-19.5 641.5,-19.5 641.5,-0.5 575.5,-0.5"/>
<text text-anchor="middle" x="608.5" y="-7.5" font-family="Helvetica,sans-Serif" font-size="10.00">libnpy.hpp</text>
</a>
</g>
</g>
<!-- Node16&#45;&gt;Node20 -->
<g id="edge23" class="edge">
<title>Node16&#45;&gt;Node20</title>
<path fill="none" stroke="midnightblue" d="M283.01,-57.76C286.21,-57.13 289.41,-56.53 292.5,-56 410.34,-35.67 443.72,-40.6 565.02,-20.14"/>
<polygon fill="midnightblue" stroke="midnightblue" points="565.81,-23.55 575.08,-18.42 564.63,-16.65 565.81,-23.55"/>
</g>
</g>
</svg>
