<?xml version="1.0" encoding="UTF-8" standalone="no"?>
<!DOCTYPE svg PUBLIC "-//W3C//DTD SVG 1.1//EN"
 "http://www.w3.org/Graphics/SVG/1.1/DTD/svg11.dtd">
<!-- Generated by graphviz version 2.43.0 (0)
 -->
<!-- Title: src/Camera.cpp Pages: 1 -->
<svg width="537pt" height="140pt"
 viewBox="0.00 0.00 536.50 140.00" xmlns="http://www.w3.org/2000/svg" xmlns:xlink="http://www.w3.org/1999/xlink">
<g id="graph0" class="graph" transform="scale(1 1) rotate(0) translate(4 136)">
<title>src/Camera.cpp</title>
<polygon fill="white" stroke="transparent" points="-4,4 -4,-136 532.5,-136 532.5,4 -4,4"/>
<!-- Node1 -->
<g id="node1" class="node">
<title>Node1</title>
<g id="a_node1"><a xlink:title=" ">
<polygon fill="#bfbfbf" stroke="black" points="237.5,-112.5 237.5,-131.5 329.5,-131.5 329.5,-112.5 237.5,-112.5"/>
<text text-anchor="middle" x="283.5" y="-119.5" font-family="Helvetica,sans-Serif" font-size="10.00">src/Camera.cpp</text>
</a>
</g>
</g>
<!-- Node2 -->
<g id="node2" class="node">
<title>Node2</title>
<g id="a_node2"><a xlink:href="../../dd/de4/Camera_8h.html" target="_top" xlink:title=" ">
<polygon fill="white" stroke="black" points="90.5,-56.5 90.5,-75.5 154.5,-75.5 154.5,-56.5 90.5,-56.5"/>
<text text-anchor="middle" x="122.5" y="-63.5" font-family="Helvetica,sans-Serif" font-size="10.00">Camera.h</text>
</a>
</g>
</g>
<!-- Node1&#45;&gt;Node2 -->
<g id="edge1" class="edge">
<title>Node1&#45;&gt;Node2</title>
<path fill="none" stroke="midnightblue" d="M257.99,-112.44C230.9,-103.36 187.91,-88.94 157.63,-78.78"/>
<polygon fill="midnightblue" stroke="midnightblue" points="158.49,-75.38 147.89,-75.52 156.26,-82.01 158.49,-75.38"/>
</g>
<!-- Node7 -->
<g id="node7" class="node">
<title>Node7</title>
<g id="a_node7"><a xlink:title=" ">
<polygon fill="white" stroke="#bfbfbf" points="172.5,-56.5 172.5,-75.5 272.5,-75.5 272.5,-56.5 172.5,-56.5"/>
<text text-anchor="middle" x="222.5" y="-63.5" font-family="Helvetica,sans-Serif" font-size="10.00">MerlinInterface.h</text>
</a>
</g>
</g>
<!-- Node1&#45;&gt;Node7 -->
<g id="edge6" class="edge">
<title>Node1&#45;&gt;Node7</title>
<path fill="none" stroke="midnightblue" d="M273.7,-112.32C264.68,-104.34 251.09,-92.31 240.18,-82.65"/>
<polygon fill="midnightblue" stroke="midnightblue" points="242.29,-79.84 232.48,-75.83 237.65,-85.08 242.29,-79.84"/>
</g>
<!-- Node8 -->
<g id="node8" class="node">
<title>Node8</title>
<g id="a_node8"><a xlink:title=" ">
<polygon fill="white" stroke="#bfbfbf" points="291,-56.5 291,-75.5 400,-75.5 400,-56.5 291,-56.5"/>
<text text-anchor="middle" x="345.5" y="-63.5" font-family="Helvetica,sans-Serif" font-size="10.00">TimepixInterface.h</text>
</a>
</g>
</g>
<!-- Node1&#45;&gt;Node8 -->
<g id="edge7" class="edge">
<title>Node1&#45;&gt;Node8</title>
<path fill="none" stroke="midnightblue" d="M293.46,-112.32C302.63,-104.34 316.44,-92.31 327.53,-82.65"/>
<polygon fill="midnightblue" stroke="midnightblue" points="330.12,-85.04 335.36,-75.83 325.52,-79.76 330.12,-85.04"/>
</g>
<!-- Node9 -->
<g id="node9" class="node">
<title>Node9</title>
<g id="a_node9"><a xlink:title=" ">
<polygon fill="white" stroke="#bfbfbf" points="418.5,-56.5 418.5,-75.5 528.5,-75.5 528.5,-56.5 418.5,-56.5"/>
<text text-anchor="middle" x="473.5" y="-63.5" font-family="Helvetica,sans-Serif" font-size="10.00">CheetahInterface.h</text>
</a>
</g>
</g>
<!-- Node1&#45;&gt;Node9 -->
<g id="edge8" class="edge">
<title>Node1&#45;&gt;Node9</title>
<path fill="none" stroke="midnightblue" d="M313.61,-112.44C346.13,-103.2 398.08,-88.44 433.89,-78.26"/>
<polygon fill="midnightblue" stroke="midnightblue" points="434.87,-81.62 443.53,-75.52 432.96,-74.88 434.87,-81.62"/>
</g>
<!-- Node3 -->
<g id="node3" class="node">
<title>Node3</title>
<g id="a_node3"><a xlink:title=" ">
<polygon fill="white" stroke="#bfbfbf" points="0,-0.5 0,-19.5 47,-19.5 47,-0.5 0,-0.5"/>
<text text-anchor="middle" x="23.5" y="-7.5" font-family="Helvetica,sans-Serif" font-size="10.00">vector</text>
</a>
</g>
</g>
<!-- Node2&#45;&gt;Node3 -->
<g id="edge2" class="edge">
<title>Node2&#45;&gt;Node3</title>
<path fill="none" stroke="midnightblue" d="M106.59,-56.32C90.86,-47.74 66.56,-34.49 48.29,-24.52"/>
<polygon fill="midnightblue" stroke="midnightblue" points="49.82,-21.37 39.37,-19.65 46.47,-27.52 49.82,-21.37"/>
</g>
<!-- Node4 -->
<g id="node4" class="node">
<title>Node4</title>
<g id="a_node4"><a xlink:title=" ">
<polygon fill="white" stroke="#bfbfbf" points="65.5,-0.5 65.5,-19.5 115.5,-19.5 115.5,-0.5 65.5,-0.5"/>
<text text-anchor="middle" x="90.5" y="-7.5" font-family="Helvetica,sans-Serif" font-size="10.00">atomic</text>
</a>
</g>
</g>
<!-- Node2&#45;&gt;Node4 -->
<g id="edge3" class="edge">
<title>Node2&#45;&gt;Node4</title>
<path fill="none" stroke="midnightblue" d="M117.22,-56.08C112.79,-48.61 106.34,-37.72 100.88,-28.52"/>
<polygon fill="midnightblue" stroke="midnightblue" points="103.79,-26.57 95.69,-19.75 97.77,-30.14 103.79,-26.57"/>
</g>
<!-- Node5 -->
<g id="node5" class="node">
<title>Node5</title>
<g id="a_node5"><a xlink:title=" ">
<polygon fill="white" stroke="#bfbfbf" points="133.5,-0.5 133.5,-19.5 175.5,-19.5 175.5,-0.5 133.5,-0.5"/>
<text text-anchor="middle" x="154.5" y="-7.5" font-family="Helvetica,sans-Serif" font-size="10.00">array</text>
</a>
</g>
</g>
<!-- Node2&#45;&gt;Node5 -->
<g id="edge4" class="edge">
<title>Node2&#45;&gt;Node5</title>
<path fill="none" stroke="midnightblue" d="M127.78,-56.08C132.21,-48.61 138.66,-37.72 144.12,-28.52"/>
<polygon fill="midnightblue" stroke="midnightblue" points="147.23,-30.14 149.31,-19.75 141.21,-26.57 147.23,-30.14"/>
</g>
<!-- Node6 -->
<g id="node6" class="node">
<title>Node6</title>
<g id="a_node6"><a xlink:title=" ">
<polygon fill="white" stroke="#bfbfbf" points="194,-0.5 194,-19.5 247,-19.5 247,-0.5 194,-0.5"/>
<text text-anchor="middle" x="220.5" y="-7.5" font-family="Helvetica,sans-Serif" font-size="10.00">stdlib.h</text>
</a>
</g>
</g>
<!-- Node2&#45;&gt;Node6 -->
<g id="edge5" class="edge">
<title>Node2&#45;&gt;Node6</title>
<path fill="none" stroke="midnightblue" d="M138.25,-56.32C153.82,-47.74 177.88,-34.49 195.96,-24.52"/>
<polygon fill="midnightblue" stroke="midnightblue" points="197.72,-27.55 204.79,-19.65 194.35,-21.42 197.72,-27.55"/>
</g>
</g>
</svg>
