<?xml version="1.0" encoding="UTF-8" standalone="no"?>
<!DOCTYPE svg PUBLIC "-//W3C//DTD SVG 1.1//EN"
 "http://www.w3.org/Graphics/SVG/1.1/DTD/svg11.dtd">
<!-- Generated by graphviz version 2.43.0 (0)
 -->
<!-- Title: src/RunGUI.cpp Pages: 1 -->
<svg width="2852pt" height="196pt"
 viewBox="0.00 0.00 2852.32 196.00" xmlns="http://www.w3.org/2000/svg" xmlns:xlink="http://www.w3.org/1999/xlink">
<g id="graph0" class="graph" transform="scale(1 1) rotate(0) translate(4 192)">
<title>src/RunGUI.cpp</title>
<polygon fill="white" stroke="transparent" points="-4,4 -4,-192 2848.32,-192 2848.32,4 -4,4"/>
<!-- Node1 -->
<g id="node1" class="node">
<title>Node1</title>
<g id="a_node1"><a xlink:title=" ">
<polygon fill="#bfbfbf" stroke="black" points="1570.5,-168.5 1570.5,-187.5 1661.5,-187.5 1661.5,-168.5 1570.5,-168.5"/>
<text text-anchor="middle" x="1616" y="-175.5" font-family="Helvetica,sans-Serif" font-size="10.00">src/RunGUI.cpp</text>
</a>
</g>
</g>
<!-- Node2 -->
<g id="node2" class="node">
<title>Node2</title>
<g id="a_node2"><a xlink:title=" ">
<polygon fill="white" stroke="#bfbfbf" points="964,-0.5 964,-19.5 1008,-19.5 1008,-0.5 964,-0.5"/>
<text text-anchor="middle" x="986" y="-7.5" font-family="Helvetica,sans-Serif" font-size="10.00">string</text>
</a>
</g>
</g>
<!-- Node1&#45;&gt;Node2 -->
<g id="edge1" class="edge">
<title>Node1&#45;&gt;Node2</title>
<path fill="none" stroke="midnightblue" d="M1570.48,-174.27C1417.52,-164.61 929.2,-129.76 886,-76 863.59,-48.12 916.97,-28.26 954.05,-18.3"/>
<polygon fill="midnightblue" stroke="midnightblue" points="955.18,-21.63 964,-15.76 953.44,-14.85 955.18,-21.63"/>
</g>
<!-- Node3 -->
<g id="node3" class="node">
<title>Node3</title>
<g id="a_node3"><a xlink:title=" ">
<polygon fill="white" stroke="#bfbfbf" points="0,-0.5 0,-19.5 48,-19.5 48,-0.5 0,-0.5"/>
<text text-anchor="middle" x="24" y="-7.5" font-family="Helvetica,sans-Serif" font-size="10.00">thread</text>
</a>
</g>
</g>
<!-- Node1&#45;&gt;Node3 -->
<g id="edge2" class="edge">
<title>Node1&#45;&gt;Node3</title>
<path fill="none" stroke="midnightblue" d="M1570.3,-177.17C1364.3,-177.7 520.9,-177 261,-132 180.53,-118.07 155.22,-119.33 86,-76 65.86,-63.39 47.73,-42.76 36.35,-28.13"/>
<polygon fill="midnightblue" stroke="midnightblue" points="38.99,-25.81 30.18,-19.92 33.39,-30.02 38.99,-25.81"/>
</g>
<!-- Node4 -->
<g id="node4" class="node">
<title>Node4</title>
<g id="a_node4"><a xlink:title=" ">
<polygon fill="white" stroke="#bfbfbf" points="406,-0.5 406,-19.5 466,-19.5 466,-0.5 406,-0.5"/>
<text text-anchor="middle" x="436" y="-7.5" font-family="Helvetica,sans-Serif" font-size="10.00">iostream</text>
</a>
</g>
</g>
<!-- Node1&#45;&gt;Node4 -->
<g id="edge3" class="edge">
<title>Node1&#45;&gt;Node4</title>
<path fill="none" stroke="midnightblue" d="M1570.38,-176.06C1405.36,-172.47 839.76,-158.49 661,-132 560.34,-117.09 503.37,-154.81 439,-76 428.62,-63.3 429.05,-44.1 431.37,-29.85"/>
<polygon fill="midnightblue" stroke="midnightblue" points="434.87,-30.21 433.46,-19.71 428.01,-28.8 434.87,-30.21"/>
</g>
<!-- Node5 -->
<g id="node5" class="node">
<title>Node5</title>
<g id="a_node5"><a xlink:title=" ">
<polygon fill="white" stroke="#bfbfbf" points="1439.5,-0.5 1439.5,-19.5 1498.5,-19.5 1498.5,-0.5 1439.5,-0.5"/>
<text text-anchor="middle" x="1469" y="-7.5" font-family="Helvetica,sans-Serif" font-size="10.00">complex</text>
</a>
</g>
</g>
<!-- Node1&#45;&gt;Node5 -->
<g id="edge4" class="edge">
<title>Node1&#45;&gt;Node5</title>
<path fill="none" stroke="midnightblue" d="M1603.3,-168.25C1580.63,-152.13 1532.71,-115.76 1502,-76 1490.78,-61.47 1481.68,-42.55 1475.9,-28.86"/>
<polygon fill="midnightblue" stroke="midnightblue" points="1479.14,-27.54 1472.15,-19.58 1472.65,-30.17 1479.14,-27.54"/>
</g>
<!-- Node6 -->
<g id="node6" class="node">
<title>Node6</title>
<g id="a_node6"><a xlink:title=" ">
<polygon fill="white" stroke="#bfbfbf" points="768,-112.5 768,-131.5 806,-131.5 806,-112.5 768,-112.5"/>
<text text-anchor="middle" x="787" y="-119.5" font-family="Helvetica,sans-Serif" font-size="10.00">map</text>
</a>
</g>
</g>
<!-- Node1&#45;&gt;Node6 -->
<g id="edge5" class="edge">
<title>Node1&#45;&gt;Node6</title>
<path fill="none" stroke="midnightblue" d="M1570.3,-175.68C1423.67,-171.24 966.09,-155.78 820,-132 818.71,-131.79 817.41,-131.55 816.09,-131.29"/>
<polygon fill="midnightblue" stroke="midnightblue" points="816.58,-127.81 806.05,-128.92 814.98,-134.62 816.58,-127.81"/>
</g>
<!-- Node7 -->
<g id="node7" class="node">
<title>Node7</title>
<g id="a_node7"><a xlink:title=" ">
<polygon fill="white" stroke="#bfbfbf" points="1739.5,-0.5 1739.5,-19.5 1792.5,-19.5 1792.5,-0.5 1739.5,-0.5"/>
<text text-anchor="middle" x="1766" y="-7.5" font-family="Helvetica,sans-Serif" font-size="10.00">imgui.h</text>
</a>
</g>
</g>
<!-- Node1&#45;&gt;Node7 -->
<g id="edge6" class="edge">
<title>Node1&#45;&gt;Node7</title>
<path fill="none" stroke="midnightblue" d="M1616.79,-168.46C1619.22,-146.84 1628.46,-89.24 1660,-56 1678.58,-36.42 1707.05,-24.97 1729.8,-18.53"/>
<polygon fill="midnightblue" stroke="midnightblue" points="1730.7,-21.91 1739.48,-15.99 1728.92,-15.14 1730.7,-21.91"/>
</g>
<!-- Node8 -->
<g id="node8" class="node">
<title>Node8</title>
<g id="a_node8"><a xlink:title=" ">
<polygon fill="white" stroke="#bfbfbf" points="1959,-56.5 1959,-75.5 2059,-75.5 2059,-56.5 1959,-56.5"/>
<text text-anchor="middle" x="2009" y="-63.5" font-family="Helvetica,sans-Serif" font-size="10.00">imgui_impl_sdl.h</text>
</a>
</g>
</g>
<!-- Node1&#45;&gt;Node8 -->
<g id="edge7" class="edge">
<title>Node1&#45;&gt;Node8</title>
<path fill="none" stroke="midnightblue" d="M1646.51,-168.46C1716.67,-148.82 1889.49,-100.45 1968.46,-78.35"/>
<polygon fill="midnightblue" stroke="midnightblue" points="1969.82,-81.6 1978.51,-75.53 1967.94,-74.86 1969.82,-81.6"/>
</g>
<!-- Node9 -->
<g id="node9" class="node">
<title>Node9</title>
<g id="a_node9"><a xlink:title=" ">
<polygon fill="white" stroke="#bfbfbf" points="2077.5,-56.5 2077.5,-75.5 2202.5,-75.5 2202.5,-56.5 2077.5,-56.5"/>
<text text-anchor="middle" x="2140" y="-63.5" font-family="Helvetica,sans-Serif" font-size="10.00">imgui_impl_opengl3.h</text>
</a>
</g>
</g>
<!-- Node1&#45;&gt;Node9 -->
<g id="edge8" class="edge">
<title>Node1&#45;&gt;Node9</title>
<path fill="none" stroke="midnightblue" d="M1656.68,-168.46C1751.28,-148.6 1985.85,-99.36 2089.44,-77.61"/>
<polygon fill="midnightblue" stroke="midnightblue" points="2090.28,-81.01 2099.34,-75.53 2088.84,-74.16 2090.28,-81.01"/>
</g>
<!-- Node10 -->
<g id="node10" class="node">
<title>Node10</title>
<g id="a_node10"><a xlink:title=" ">
<polygon fill="white" stroke="#bfbfbf" points="2635,-56.5 2635,-75.5 2721,-75.5 2721,-56.5 2635,-56.5"/>
<text text-anchor="middle" x="2678" y="-63.5" font-family="Helvetica,sans-Serif" font-size="10.00">imgui_stdlib.h</text>
</a>
</g>
</g>
<!-- Node1&#45;&gt;Node10 -->
<g id="edge9" class="edge">
<title>Node1&#45;&gt;Node10</title>
<path fill="none" stroke="midnightblue" d="M1661.58,-175.9C1798.01,-172.32 2201.59,-159.62 2330,-132 2354.61,-126.71 2358.63,-118.33 2383,-112 2485.58,-85.37 2516.41,-92.83 2624.85,-76.13"/>
<polygon fill="midnightblue" stroke="midnightblue" points="2625.55,-79.56 2634.88,-74.55 2624.46,-72.64 2625.55,-79.56"/>
</g>
<!-- Node11 -->
<g id="node11" class="node">
<title>Node11</title>
<g id="a_node11"><a xlink:title=" ">
<polygon fill="white" stroke="#bfbfbf" points="2536,-0.5 2536,-19.5 2632,-19.5 2632,-0.5 2536,-0.5"/>
<text text-anchor="middle" x="2584" y="-7.5" font-family="Helvetica,sans-Serif" font-size="10.00">imgui_internal.h</text>
</a>
</g>
</g>
<!-- Node1&#45;&gt;Node11 -->
<g id="edge10" class="edge">
<title>Node1&#45;&gt;Node11</title>
<path fill="none" stroke="midnightblue" d="M1661.71,-176.93C1874.63,-176.11 2762.02,-167.21 2840,-76 2845.78,-69.24 2845.72,-62.81 2840,-56 2815.26,-26.54 2709.92,-16.36 2642.32,-12.85"/>
<polygon fill="midnightblue" stroke="midnightblue" points="2642.38,-9.35 2632.22,-12.36 2642.04,-16.34 2642.38,-9.35"/>
</g>
<!-- Node12 -->
<g id="node12" class="node">
<title>Node12</title>
<g id="a_node12"><a xlink:title=" ">
<polygon fill="white" stroke="#bfbfbf" points="2739,-56.5 2739,-75.5 2831,-75.5 2831,-56.5 2739,-56.5"/>
<text text-anchor="middle" x="2785" y="-63.5" font-family="Helvetica,sans-Serif" font-size="10.00">imfilebrowser.h</text>
</a>
</g>
</g>
<!-- Node1&#45;&gt;Node12 -->
<g id="edge11" class="edge">
<title>Node1&#45;&gt;Node12</title>
<path fill="none" stroke="midnightblue" d="M1661.67,-176.36C1803.41,-174.05 2234.33,-164.46 2370,-132 2391.68,-126.81 2394.47,-117.78 2416,-112 2548.49,-76.45 2588.98,-94.45 2728.59,-76.11"/>
<polygon fill="midnightblue" stroke="midnightblue" points="2729.37,-79.53 2738.81,-74.72 2728.43,-72.6 2729.37,-79.53"/>
</g>
<!-- Node13 -->
<g id="node13" class="node">
<title>Node13</title>
<g id="a_node13"><a xlink:title=" ">
<polygon fill="white" stroke="#bfbfbf" points="95,-56.5 95,-75.5 133,-75.5 133,-56.5 95,-56.5"/>
<text text-anchor="middle" x="114" y="-63.5" font-family="Helvetica,sans-Serif" font-size="10.00">ini.h</text>
</a>
</g>
</g>
<!-- Node1&#45;&gt;Node13 -->
<g id="edge12" class="edge">
<title>Node1&#45;&gt;Node13</title>
<path fill="none" stroke="midnightblue" d="M1570.42,-176.53C1375.92,-174.33 614.47,-163.83 377,-132 272.14,-117.95 244.08,-108.26 142.76,-77.35"/>
<polygon fill="midnightblue" stroke="midnightblue" points="143.64,-73.96 133.05,-74.4 141.6,-80.66 143.64,-73.96"/>
</g>
<!-- Node14 -->
<g id="node14" class="node">
<title>Node14</title>
<g id="a_node14"><a xlink:href="../../de/ded/ImGuiINI_8hpp.html" target="_top" xlink:title=" ">
<polygon fill="white" stroke="black" points="670,-112.5 670,-131.5 750,-131.5 750,-112.5 670,-112.5"/>
<text text-anchor="middle" x="710" y="-119.5" font-family="Helvetica,sans-Serif" font-size="10.00">ImGuiINI.hpp</text>
</a>
</g>
</g>
<!-- Node1&#45;&gt;Node14 -->
<g id="edge13" class="edge">
<title>Node1&#45;&gt;Node14</title>
<path fill="none" stroke="midnightblue" d="M1570.3,-176.67C1443.34,-175.33 1075.53,-168.43 760.3,-131.99"/>
<polygon fill="midnightblue" stroke="midnightblue" points="760.39,-128.48 750.05,-130.79 759.57,-135.43 760.39,-128.48"/>
</g>
<!-- Node15 -->
<g id="node15" class="node">
<title>Node15</title>
<g id="a_node15"><a xlink:href="../../de/dfc/Ricom_8h.html" target="_top" xlink:title=" ">
<polygon fill="white" stroke="black" points="1149,-112.5 1149,-131.5 1205,-131.5 1205,-112.5 1149,-112.5"/>
<text text-anchor="middle" x="1177" y="-119.5" font-family="Helvetica,sans-Serif" font-size="10.00">Ricom.h</text>
</a>
</g>
</g>
<!-- Node1&#45;&gt;Node15 -->
<g id="edge17" class="edge">
<title>Node1&#45;&gt;Node15</title>
<path fill="none" stroke="midnightblue" d="M1570.26,-171.37C1483.46,-160.7 1296.31,-137.68 1215.48,-127.73"/>
<polygon fill="midnightblue" stroke="midnightblue" points="1215.6,-124.22 1205.25,-126.48 1214.75,-131.17 1215.6,-124.22"/>
</g>
<!-- Node44 -->
<g id="node41" class="node">
<title>Node44</title>
<g id="a_node41"><a xlink:href="../../dd/de4/Camera_8h.html" target="_top" xlink:title=" ">
<polygon fill="white" stroke="black" points="1511,-56.5 1511,-75.5 1575,-75.5 1575,-56.5 1511,-56.5"/>
<text text-anchor="middle" x="1543" y="-63.5" font-family="Helvetica,sans-Serif" font-size="10.00">Camera.h</text>
</a>
</g>
</g>
<!-- Node1&#45;&gt;Node44 -->
<g id="edge72" class="edge">
<title>Node1&#45;&gt;Node44</title>
<path fill="none" stroke="midnightblue" d="M1610.27,-168.37C1598.22,-150.22 1570.08,-107.8 1554.28,-83.99"/>
<polygon fill="midnightblue" stroke="midnightblue" points="1557.15,-81.99 1548.7,-75.59 1551.31,-85.86 1557.15,-81.99"/>
</g>
<!-- Node47 -->
<g id="node44" class="node">
<title>Node47</title>
<g id="a_node44"><a xlink:href="../../d7/db2/GuiUtils_8h.html" target="_top" xlink:title=" ">
<polygon fill="white" stroke="black" points="2335.5,-56.5 2335.5,-75.5 2400.5,-75.5 2400.5,-56.5 2335.5,-56.5"/>
<text text-anchor="middle" x="2368" y="-63.5" font-family="Helvetica,sans-Serif" font-size="10.00">GuiUtils.h</text>
</a>
</g>
</g>
<!-- Node1&#45;&gt;Node47 -->
<g id="edge73" class="edge">
<title>Node1&#45;&gt;Node47</title>
<path fill="none" stroke="midnightblue" d="M1661.64,-175.85C1805.57,-171.96 2243.87,-158.07 2302,-132 2325.06,-121.66 2344.68,-99.52 2356.39,-83.96"/>
<polygon fill="midnightblue" stroke="midnightblue" points="2359.34,-85.86 2362.34,-75.7 2353.66,-81.77 2359.34,-85.86"/>
</g>
<!-- Node51 -->
<g id="node48" class="node">
<title>Node51</title>
<g id="a_node48"><a xlink:title=" ">
<polygon fill="white" stroke="#bfbfbf" points="2425,-112.5 2425,-131.5 2475,-131.5 2475,-112.5 2425,-112.5"/>
<text text-anchor="middle" x="2450" y="-119.5" font-family="Helvetica,sans-Serif" font-size="10.00">fonts.h</text>
</a>
</g>
</g>
<!-- Node1&#45;&gt;Node51 -->
<g id="edge71" class="edge">
<title>Node1&#45;&gt;Node51</title>
<path fill="none" stroke="midnightblue" d="M1661.53,-177.13C1783.59,-176.88 2128.05,-172.36 2411,-132 2412.28,-131.82 2413.57,-131.61 2414.88,-131.39"/>
<polygon fill="midnightblue" stroke="midnightblue" points="2415.79,-134.78 2424.94,-129.44 2414.46,-127.91 2415.79,-134.78"/>
</g>
<!-- Node52 -->
<g id="node49" class="node">
<title>Node52</title>
<g id="a_node49"><a xlink:href="../../d4/d6e/ImGuiImageWindow_8h.html" target="_top" xlink:title=" ">
<polygon fill="white" stroke="black" points="2169,-112.5 2169,-131.5 2293,-131.5 2293,-112.5 2169,-112.5"/>
<text text-anchor="middle" x="2231" y="-119.5" font-family="Helvetica,sans-Serif" font-size="10.00">ImGuiImageWindow.h</text>
</a>
</g>
</g>
<!-- Node1&#45;&gt;Node52 -->
<g id="edge74" class="edge">
<title>Node1&#45;&gt;Node52</title>
<path fill="none" stroke="midnightblue" d="M1661.72,-172.99C1767.7,-163.68 2030.8,-140.58 2158.79,-129.34"/>
<polygon fill="midnightblue" stroke="midnightblue" points="2159.23,-132.82 2168.88,-128.45 2158.61,-125.84 2159.23,-132.82"/>
</g>
<!-- Node14&#45;&gt;Node2 -->
<g id="edge16" class="edge">
<title>Node14&#45;&gt;Node2</title>
<path fill="none" stroke="midnightblue" d="M716.33,-112.27C727.09,-98.09 750.42,-70.22 777,-56 807.25,-39.82 902.79,-23.54 953.55,-15.75"/>
<polygon fill="midnightblue" stroke="midnightblue" points="954.3,-19.17 963.67,-14.21 953.25,-12.25 954.3,-19.17"/>
</g>
<!-- Node14&#45;&gt;Node7 -->
<g id="edge14" class="edge">
<title>Node14&#45;&gt;Node7</title>
<path fill="none" stroke="midnightblue" d="M727.46,-112.5C758.49,-97.86 825.67,-68.28 886,-56 1214.32,10.82 1304.54,-39.84 1639,-20 1669.31,-18.2 1703.66,-15.74 1728.99,-13.85"/>
<polygon fill="midnightblue" stroke="midnightblue" points="1729.54,-17.32 1739.25,-13.07 1729.02,-10.34 1729.54,-17.32"/>
</g>
<!-- Node14&#45;&gt;Node13 -->
<g id="edge15" class="edge">
<title>Node14&#45;&gt;Node13</title>
<path fill="none" stroke="midnightblue" d="M669.74,-120.35C576.91,-118.3 340.91,-109.89 147,-76 145.72,-75.78 144.41,-75.52 143.1,-75.25"/>
<polygon fill="midnightblue" stroke="midnightblue" points="143.6,-71.77 133.06,-72.85 141.97,-78.58 143.6,-71.77"/>
</g>
<!-- Node15&#45;&gt;Node2 -->
<g id="edge24" class="edge">
<title>Node15&#45;&gt;Node2</title>
<path fill="none" stroke="midnightblue" d="M1148.68,-113.88C1123.2,-106.71 1085.39,-94.11 1056,-76 1034.28,-62.62 1013.39,-41.85 1000.18,-27.41"/>
<polygon fill="midnightblue" stroke="midnightblue" points="1002.6,-24.87 993.33,-19.73 997.38,-29.53 1002.6,-24.87"/>
</g>
<!-- Node15&#45;&gt;Node3 -->
<g id="edge28" class="edge">
<title>Node15&#45;&gt;Node3</title>
<path fill="none" stroke="midnightblue" d="M1148.81,-120.13C991.02,-115.2 222.82,-90.53 175,-76 158.59,-71.02 157.41,-63.53 142,-56 114.42,-42.52 81.72,-30.33 57.74,-22.04"/>
<polygon fill="midnightblue" stroke="midnightblue" points="58.63,-18.65 48.04,-18.74 56.38,-25.28 58.63,-18.65"/>
</g>
<!-- Node15&#45;&gt;Node5 -->
<g id="edge21" class="edge">
<title>Node15&#45;&gt;Node5</title>
<path fill="none" stroke="midnightblue" d="M1205.12,-117.09C1242.49,-111.27 1310.07,-98.5 1364,-76 1380.92,-68.94 1422.08,-42.31 1447.56,-25.4"/>
<polygon fill="midnightblue" stroke="midnightblue" points="1449.78,-28.13 1456.16,-19.67 1445.89,-22.31 1449.78,-28.13"/>
</g>
<!-- Node16 -->
<g id="node16" class="node">
<title>Node16</title>
<g id="a_node16"><a xlink:title=" ">
<polygon fill="white" stroke="#bfbfbf" points="838,-0.5 838,-19.5 894,-19.5 894,-0.5 838,-0.5"/>
<text text-anchor="middle" x="866" y="-7.5" font-family="Helvetica,sans-Serif" font-size="10.00">unistd.h</text>
</a>
</g>
</g>
<!-- Node15&#45;&gt;Node16 -->
<g id="edge18" class="edge">
<title>Node15&#45;&gt;Node16</title>
<path fill="none" stroke="midnightblue" d="M1148.83,-120.35C1083.66,-118.26 925.06,-109.77 886,-76 872.76,-64.56 868.15,-44.57 866.61,-29.78"/>
<polygon fill="midnightblue" stroke="midnightblue" points="870.1,-29.45 865.94,-19.7 863.11,-29.91 870.1,-29.45"/>
</g>
<!-- Node17 -->
<g id="node17" class="node">
<title>Node17</title>
<g id="a_node17"><a xlink:title=" ">
<polygon fill="white" stroke="#bfbfbf" points="620.5,-0.5 620.5,-19.5 667.5,-19.5 667.5,-0.5 620.5,-0.5"/>
<text text-anchor="middle" x="644" y="-7.5" font-family="Helvetica,sans-Serif" font-size="10.00">cmath</text>
</a>
</g>
</g>
<!-- Node15&#45;&gt;Node17 -->
<g id="edge19" class="edge">
<title>Node15&#45;&gt;Node17</title>
<path fill="none" stroke="midnightblue" d="M1148.98,-120.96C1039.52,-120.5 645.03,-116.07 608,-76 594.36,-61.24 610.66,-40.36 625.51,-26.28"/>
<polygon fill="midnightblue" stroke="midnightblue" points="627.86,-28.89 632.98,-19.61 623.19,-23.67 627.86,-28.89"/>
</g>
<!-- Node18 -->
<g id="node18" class="node">
<title>Node18</title>
<g id="a_node18"><a xlink:title=" ">
<polygon fill="white" stroke="#bfbfbf" points="1829,-56.5 1829,-75.5 1879,-75.5 1879,-56.5 1829,-56.5"/>
<text text-anchor="middle" x="1854" y="-63.5" font-family="Helvetica,sans-Serif" font-size="10.00">stdio.h</text>
</a>
</g>
</g>
<!-- Node15&#45;&gt;Node18 -->
<g id="edge20" class="edge">
<title>Node15&#45;&gt;Node18</title>
<path fill="none" stroke="midnightblue" d="M1205.11,-120.92C1293.96,-120.27 1576.7,-115.18 1818.82,-75.87"/>
<polygon fill="midnightblue" stroke="midnightblue" points="1819.57,-79.3 1828.86,-74.22 1818.43,-72.39 1819.57,-79.3"/>
</g>
<!-- Node19 -->
<g id="node19" class="node">
<title>Node19</title>
<g id="a_node19"><a xlink:title=" ">
<polygon fill="white" stroke="#bfbfbf" points="1411,-56.5 1411,-75.5 1455,-75.5 1455,-56.5 1411,-56.5"/>
<text text-anchor="middle" x="1433" y="-63.5" font-family="Helvetica,sans-Serif" font-size="10.00">cfloat</text>
</a>
</g>
</g>
<!-- Node15&#45;&gt;Node19 -->
<g id="edge22" class="edge">
<title>Node15&#45;&gt;Node19</title>
<path fill="none" stroke="midnightblue" d="M1205.21,-115.63C1247.16,-107.57 1328.38,-91.59 1397,-76 1398.27,-75.71 1399.57,-75.41 1400.88,-75.1"/>
<polygon fill="midnightblue" stroke="midnightblue" points="1402.05,-78.42 1410.95,-72.67 1400.41,-71.62 1402.05,-78.42"/>
</g>
<!-- Node20 -->
<g id="node20" class="node">
<title>Node20</title>
<g id="a_node20"><a xlink:title=" ">
<polygon fill="white" stroke="#bfbfbf" points="1991.5,-0.5 1991.5,-19.5 2038.5,-19.5 2038.5,-0.5 1991.5,-0.5"/>
<text text-anchor="middle" x="2015" y="-7.5" font-family="Helvetica,sans-Serif" font-size="10.00">vector</text>
</a>
</g>
</g>
<!-- Node15&#45;&gt;Node20 -->
<g id="edge23" class="edge">
<title>Node15&#45;&gt;Node20</title>
<path fill="none" stroke="midnightblue" d="M1205.34,-119.31C1271.88,-115.02 1443.16,-102.17 1584,-76 1618.34,-69.62 1625.71,-62.65 1660,-56 1776.74,-33.34 1917.39,-19.41 1980.92,-13.82"/>
<polygon fill="midnightblue" stroke="midnightblue" points="1981.49,-17.28 1991.15,-12.93 1980.88,-10.31 1981.49,-17.28"/>
</g>
<!-- Node21 -->
<g id="node21" class="node">
<title>Node21</title>
<g id="a_node21"><a xlink:title=" ">
<polygon fill="white" stroke="#bfbfbf" points="1897,-56.5 1897,-75.5 1941,-75.5 1941,-56.5 1897,-56.5"/>
<text text-anchor="middle" x="1919" y="-63.5" font-family="Helvetica,sans-Serif" font-size="10.00">SDL.h</text>
</a>
</g>
</g>
<!-- Node15&#45;&gt;Node21 -->
<g id="edge25" class="edge">
<title>Node15&#45;&gt;Node21</title>
<path fill="none" stroke="midnightblue" d="M1205.04,-121.42C1299.92,-122.38 1617.55,-121.86 1886.83,-75.81"/>
<polygon fill="midnightblue" stroke="midnightblue" points="1887.53,-79.24 1896.79,-74.08 1886.34,-72.34 1887.53,-79.24"/>
</g>
<!-- Node22 -->
<g id="node22" class="node">
<title>Node22</title>
<g id="a_node22"><a xlink:title=" ">
<polygon fill="white" stroke="#bfbfbf" points="66,-0.5 66,-19.5 114,-19.5 114,-0.5 66,-0.5"/>
<text text-anchor="middle" x="90" y="-7.5" font-family="Helvetica,sans-Serif" font-size="10.00">mutex</text>
</a>
</g>
</g>
<!-- Node15&#45;&gt;Node22 -->
<g id="edge26" class="edge">
<title>Node15&#45;&gt;Node22</title>
<path fill="none" stroke="midnightblue" d="M1148.88,-120.39C1000.3,-117.04 309.95,-100.3 218,-76 207.21,-73.15 148.83,-42.45 114.76,-24.28"/>
<polygon fill="midnightblue" stroke="midnightblue" points="116.32,-21.15 105.85,-19.52 113.02,-27.32 116.32,-21.15"/>
</g>
<!-- Node23 -->
<g id="node23" class="node">
<title>Node23</title>
<g id="a_node23"><a xlink:title=" ">
<polygon fill="white" stroke="#bfbfbf" points="895,-56.5 895,-75.5 941,-75.5 941,-56.5 895,-56.5"/>
<text text-anchor="middle" x="918" y="-63.5" font-family="Helvetica,sans-Serif" font-size="10.00">future</text>
</a>
</g>
</g>
<!-- Node15&#45;&gt;Node23 -->
<g id="edge27" class="edge">
<title>Node15&#45;&gt;Node23</title>
<path fill="none" stroke="midnightblue" d="M1148.89,-116.16C1107.61,-108.9 1027.99,-94.28 950.89,-76.06"/>
<polygon fill="midnightblue" stroke="midnightblue" points="951.55,-72.62 941.02,-73.71 949.93,-79.43 951.55,-72.62"/>
</g>
<!-- Node24 -->
<g id="node24" class="node">
<title>Node24</title>
<g id="a_node24"><a xlink:title=" ">
<polygon fill="white" stroke="#bfbfbf" points="959,-56.5 959,-75.5 1009,-75.5 1009,-56.5 959,-56.5"/>
<text text-anchor="middle" x="984" y="-63.5" font-family="Helvetica,sans-Serif" font-size="10.00">fftw3.h</text>
</a>
</g>
</g>
<!-- Node15&#45;&gt;Node24 -->
<g id="edge29" class="edge">
<title>Node15&#45;&gt;Node24</title>
<path fill="none" stroke="midnightblue" d="M1148.94,-113.15C1114.53,-103.52 1056.22,-87.21 1018.95,-76.78"/>
<polygon fill="midnightblue" stroke="midnightblue" points="1019.6,-73.33 1009.03,-74 1017.71,-80.07 1019.6,-73.33"/>
</g>
<!-- Node25 -->
<g id="node25" class="node">
<title>Node25</title>
<g id="a_node25"><a xlink:title=" ">
<polygon fill="white" stroke="#bfbfbf" points="484,-0.5 484,-19.5 534,-19.5 534,-0.5 484,-0.5"/>
<text text-anchor="middle" x="509" y="-7.5" font-family="Helvetica,sans-Serif" font-size="10.00">chrono</text>
</a>
</g>
</g>
<!-- Node15&#45;&gt;Node25 -->
<g id="edge30" class="edge">
<title>Node15&#45;&gt;Node25</title>
<path fill="none" stroke="midnightblue" d="M1148.59,-120.32C1017.05,-117.05 472.43,-101.98 448,-76 431.25,-58.18 458.42,-37.59 481.67,-24.45"/>
<polygon fill="midnightblue" stroke="midnightblue" points="483.47,-27.45 490.61,-19.63 480.15,-21.29 483.47,-27.45"/>
</g>
<!-- Node26 -->
<g id="node26" class="node">
<title>Node26</title>
<g id="a_node26"><a xlink:title=" ">
<polygon fill="white" stroke="#bfbfbf" points="1669,-56.5 1669,-75.5 1733,-75.5 1733,-56.5 1669,-56.5"/>
<text text-anchor="middle" x="1701" y="-63.5" font-family="Helvetica,sans-Serif" font-size="10.00">algorithm</text>
</a>
</g>
</g>
<!-- Node15&#45;&gt;Node26 -->
<g id="edge31" class="edge">
<title>Node15&#45;&gt;Node26</title>
<path fill="none" stroke="midnightblue" d="M1205.06,-118.18C1274.76,-111.16 1461.4,-92.29 1617,-76 1630.47,-74.59 1645.14,-73.03 1658.41,-71.6"/>
<polygon fill="midnightblue" stroke="midnightblue" points="1659.13,-75.05 1668.69,-70.5 1658.38,-68.09 1659.13,-75.05"/>
</g>
<!-- Node27 -->
<g id="node27" class="node">
<title>Node27</title>
<g id="a_node27"><a xlink:title=" ">
<polygon fill="white" stroke="#bfbfbf" points="1065,-56.5 1065,-75.5 1109,-75.5 1109,-56.5 1065,-56.5"/>
<text text-anchor="middle" x="1087" y="-63.5" font-family="Helvetica,sans-Serif" font-size="10.00">ctime</text>
</a>
</g>
</g>
<!-- Node15&#45;&gt;Node27 -->
<g id="edge32" class="edge">
<title>Node15&#45;&gt;Node27</title>
<path fill="none" stroke="midnightblue" d="M1162.54,-112.32C1148.5,-103.9 1126.95,-90.97 1110.46,-81.07"/>
<polygon fill="midnightblue" stroke="midnightblue" points="1111.8,-77.8 1101.42,-75.65 1108.2,-83.8 1111.8,-77.8"/>
</g>
<!-- Node28 -->
<g id="node28" class="node">
<title>Node28</title>
<g id="a_node28"><a xlink:href="../../d7/d50/BoundedThreadPool_8hpp.html" target="_top" xlink:title=" ">
<polygon fill="white" stroke="black" points="227.5,-56.5 227.5,-75.5 362.5,-75.5 362.5,-56.5 227.5,-56.5"/>
<text text-anchor="middle" x="295" y="-63.5" font-family="Helvetica,sans-Serif" font-size="10.00">BoundedThreadPool.hpp</text>
</a>
</g>
</g>
<!-- Node15&#45;&gt;Node28 -->
<g id="edge33" class="edge">
<title>Node15&#45;&gt;Node28</title>
<path fill="none" stroke="midnightblue" d="M1148.97,-119.51C1049.14,-114.15 701.6,-95.21 415,-76 401.33,-75.08 386.79,-74.05 372.72,-73.01"/>
<polygon fill="midnightblue" stroke="midnightblue" points="372.81,-69.51 362.58,-72.26 372.29,-76.49 372.81,-69.51"/>
</g>
<!-- Node33 -->
<g id="node33" class="node">
<title>Node33</title>
<g id="a_node33"><a xlink:title=" ">
<polygon fill="white" stroke="#bfbfbf" points="2416,-0.5 2416,-19.5 2518,-19.5 2518,-0.5 2416,-0.5"/>
<text text-anchor="middle" x="2467" y="-7.5" font-family="Helvetica,sans-Serif" font-size="10.00">tinycolormap.hpp</text>
</a>
</g>
</g>
<!-- Node15&#45;&gt;Node33 -->
<g id="edge41" class="edge">
<title>Node15&#45;&gt;Node33</title>
<path fill="none" stroke="midnightblue" d="M1205.13,-120.6C1383.7,-118.01 2353.8,-102.71 2410,-76 2431.1,-65.97 2447.62,-44.1 2457.32,-28.5"/>
<polygon fill="midnightblue" stroke="midnightblue" points="2460.41,-30.15 2462.47,-19.76 2454.38,-26.6 2460.41,-30.15"/>
</g>
<!-- Node34 -->
<g id="node34" class="node">
<title>Node34</title>
<g id="a_node34"><a xlink:title=" ">
<polygon fill="white" stroke="#bfbfbf" points="1751,-56.5 1751,-75.5 1811,-75.5 1811,-56.5 1751,-56.5"/>
<text text-anchor="middle" x="1781" y="-63.5" font-family="Helvetica,sans-Serif" font-size="10.00">fft2d.hpp</text>
</a>
</g>
</g>
<!-- Node15&#45;&gt;Node34 -->
<g id="edge42" class="edge">
<title>Node15&#45;&gt;Node34</title>
<path fill="none" stroke="midnightblue" d="M1205.09,-120.23C1286.53,-117.67 1529.77,-107.87 1740.83,-75.96"/>
<polygon fill="midnightblue" stroke="midnightblue" points="1741.5,-79.39 1750.85,-74.42 1740.44,-72.47 1741.5,-79.39"/>
</g>
<!-- Node35 -->
<g id="node35" class="node">
<title>Node35</title>
<g id="a_node35"><a xlink:href="../../d0/d3c/SocketConnector_8h.html" target="_top" xlink:title=" ">
<polygon fill="white" stroke="red" points="617.5,-56.5 617.5,-75.5 724.5,-75.5 724.5,-56.5 617.5,-56.5"/>
<text text-anchor="middle" x="671" y="-63.5" font-family="Helvetica,sans-Serif" font-size="10.00">SocketConnector.h</text>
</a>
</g>
</g>
<!-- Node15&#45;&gt;Node35 -->
<g id="edge43" class="edge">
<title>Node15&#45;&gt;Node35</title>
<path fill="none" stroke="midnightblue" d="M1148.71,-117.98C1069.8,-109.56 845.78,-85.65 734.85,-73.81"/>
<polygon fill="midnightblue" stroke="midnightblue" points="735.11,-70.32 724.8,-72.74 734.37,-77.28 735.11,-70.32"/>
</g>
<!-- Node39 -->
<g id="node38" class="node">
<title>Node39</title>
<g id="a_node38"><a xlink:href="../../da/dce/ProgressMonitor_8h.html" target="_top" xlink:title=" ">
<polygon fill="white" stroke="red" points="457,-56.5 457,-75.5 561,-75.5 561,-56.5 457,-56.5"/>
<text text-anchor="middle" x="509" y="-63.5" font-family="Helvetica,sans-Serif" font-size="10.00">ProgressMonitor.h</text>
</a>
</g>
</g>
<!-- Node15&#45;&gt;Node39 -->
<g id="edge49" class="edge">
<title>Node15&#45;&gt;Node39</title>
<path fill="none" stroke="midnightblue" d="M1148.74,-119.5C1062.54,-114.8 795.44,-99.25 575,-76 573.74,-75.87 572.46,-75.73 571.18,-75.59"/>
<polygon fill="midnightblue" stroke="midnightblue" points="571.54,-72.1 561.2,-74.42 570.73,-79.06 571.54,-72.1"/>
</g>
<!-- Node42 -->
<g id="node39" class="node">
<title>Node42</title>
<g id="a_node39"><a xlink:title=" ">
<polygon fill="white" stroke="#bfbfbf" points="1127,-56.5 1127,-75.5 1227,-75.5 1227,-56.5 1127,-56.5"/>
<text text-anchor="middle" x="1177" y="-63.5" font-family="Helvetica,sans-Serif" font-size="10.00">MerlinInterface.h</text>
</a>
</g>
</g>
<!-- Node15&#45;&gt;Node42 -->
<g id="edge54" class="edge">
<title>Node15&#45;&gt;Node42</title>
<path fill="none" stroke="midnightblue" d="M1177,-112.08C1177,-105.01 1177,-94.86 1177,-85.99"/>
<polygon fill="midnightblue" stroke="midnightblue" points="1180.5,-85.75 1177,-75.75 1173.5,-85.75 1180.5,-85.75"/>
</g>
<!-- Node43 -->
<g id="node40" class="node">
<title>Node43</title>
<g id="a_node40"><a xlink:title=" ">
<polygon fill="white" stroke="#bfbfbf" points="1245.5,-56.5 1245.5,-75.5 1354.5,-75.5 1354.5,-56.5 1245.5,-56.5"/>
<text text-anchor="middle" x="1300" y="-63.5" font-family="Helvetica,sans-Serif" font-size="10.00">TimepixInterface.h</text>
</a>
</g>
</g>
<!-- Node15&#45;&gt;Node43 -->
<g id="edge55" class="edge">
<title>Node15&#45;&gt;Node43</title>
<path fill="none" stroke="midnightblue" d="M1196.49,-112.44C1216.64,-103.6 1248.32,-89.69 1271.33,-79.59"/>
<polygon fill="midnightblue" stroke="midnightblue" points="1272.85,-82.74 1280.6,-75.52 1270.04,-76.33 1272.85,-82.74"/>
</g>
<!-- Node15&#45;&gt;Node44 -->
<g id="edge56" class="edge">
<title>Node15&#45;&gt;Node44</title>
<path fill="none" stroke="midnightblue" d="M1205.11,-116.85C1268.98,-107.43 1425.3,-84.36 1500.81,-73.22"/>
<polygon fill="midnightblue" stroke="midnightblue" points="1501.53,-76.66 1510.92,-71.73 1500.51,-69.73 1501.53,-76.66"/>
</g>
<!-- Node15&#45;&gt;Node47 -->
<g id="edge61" class="edge">
<title>Node15&#45;&gt;Node47</title>
<path fill="none" stroke="midnightblue" d="M1205.41,-119.91C1326.65,-115.24 1812.78,-96.19 2212,-76 2250.34,-74.06 2293.96,-71.52 2325.3,-69.63"/>
<polygon fill="midnightblue" stroke="midnightblue" points="2325.67,-73.11 2335.44,-69.01 2325.25,-66.12 2325.67,-73.11"/>
</g>
<!-- Node28&#45;&gt;Node3 -->
<g id="edge34" class="edge">
<title>Node28&#45;&gt;Node3</title>
<path fill="none" stroke="midnightblue" d="M243.22,-56.43C197.02,-48.51 127.33,-35.89 57.89,-20.06"/>
<polygon fill="midnightblue" stroke="midnightblue" points="58.62,-16.64 48.09,-17.81 57.06,-23.46 58.62,-16.64"/>
</g>
<!-- Node28&#45;&gt;Node4 -->
<g id="edge40" class="edge">
<title>Node28&#45;&gt;Node4</title>
<path fill="none" stroke="midnightblue" d="M317.34,-56.44C340.75,-47.48 377.74,-33.31 404.19,-23.18"/>
<polygon fill="midnightblue" stroke="midnightblue" points="405.68,-26.36 413.76,-19.52 403.17,-19.82 405.68,-26.36"/>
</g>
<!-- Node28&#45;&gt;Node22 -->
<g id="edge37" class="edge">
<title>Node28&#45;&gt;Node22</title>
<path fill="none" stroke="midnightblue" d="M262,-56.47C229.32,-48.01 177.59,-34.54 123.84,-20.21"/>
<polygon fill="midnightblue" stroke="midnightblue" points="124.71,-16.81 114.14,-17.62 122.9,-23.58 124.71,-16.81"/>
</g>
<!-- Node29 -->
<g id="node29" class="node">
<title>Node29</title>
<g id="a_node29"><a xlink:title=" ">
<polygon fill="white" stroke="#bfbfbf" points="132.5,-0.5 132.5,-19.5 179.5,-19.5 179.5,-0.5 132.5,-0.5"/>
<text text-anchor="middle" x="156" y="-7.5" font-family="Helvetica,sans-Serif" font-size="10.00">queue</text>
</a>
</g>
</g>
<!-- Node28&#45;&gt;Node29 -->
<g id="edge35" class="edge">
<title>Node28&#45;&gt;Node29</title>
<path fill="none" stroke="midnightblue" d="M272.98,-56.44C249.9,-47.48 213.44,-33.31 187.36,-23.18"/>
<polygon fill="midnightblue" stroke="midnightblue" points="188.51,-19.88 177.92,-19.52 185.98,-26.4 188.51,-19.88"/>
</g>
<!-- Node30 -->
<g id="node30" class="node">
<title>Node30</title>
<g id="a_node30"><a xlink:title=" ">
<polygon fill="white" stroke="#bfbfbf" points="197.5,-0.5 197.5,-19.5 262.5,-19.5 262.5,-0.5 197.5,-0.5"/>
<text text-anchor="middle" x="230" y="-7.5" font-family="Helvetica,sans-Serif" font-size="10.00">functional</text>
</a>
</g>
</g>
<!-- Node28&#45;&gt;Node30 -->
<g id="edge36" class="edge">
<title>Node28&#45;&gt;Node30</title>
<path fill="none" stroke="midnightblue" d="M284.56,-56.32C274.85,-48.26 260.18,-36.08 248.5,-26.37"/>
<polygon fill="midnightblue" stroke="midnightblue" points="250.56,-23.53 240.63,-19.83 246.09,-28.92 250.56,-23.53"/>
</g>
<!-- Node31 -->
<g id="node31" class="node">
<title>Node31</title>
<g id="a_node31"><a xlink:title=" ">
<polygon fill="white" stroke="#bfbfbf" points="280.5,-0.5 280.5,-19.5 387.5,-19.5 387.5,-0.5 280.5,-0.5"/>
<text text-anchor="middle" x="334" y="-7.5" font-family="Helvetica,sans-Serif" font-size="10.00">condition_variable</text>
</a>
</g>
</g>
<!-- Node28&#45;&gt;Node31 -->
<g id="edge38" class="edge">
<title>Node28&#45;&gt;Node31</title>
<path fill="none" stroke="midnightblue" d="M301.44,-56.08C306.95,-48.46 315.03,-37.26 321.76,-27.94"/>
<polygon fill="midnightblue" stroke="midnightblue" points="324.66,-29.91 327.68,-19.75 318.99,-25.81 324.66,-29.91"/>
</g>
<!-- Node32 -->
<g id="node32" class="node">
<title>Node32</title>
<g id="a_node32"><a xlink:title=" ">
<polygon fill="white" stroke="#bfbfbf" points="552,-0.5 552,-19.5 602,-19.5 602,-0.5 552,-0.5"/>
<text text-anchor="middle" x="577" y="-7.5" font-family="Helvetica,sans-Serif" font-size="10.00">atomic</text>
</a>
</g>
</g>
<!-- Node28&#45;&gt;Node32 -->
<g id="edge39" class="edge">
<title>Node28&#45;&gt;Node32</title>
<path fill="none" stroke="midnightblue" d="M348.95,-56.48C397.09,-48.59 469.7,-35.99 541.66,-20.16"/>
<polygon fill="midnightblue" stroke="midnightblue" points="542.8,-23.49 551.8,-17.91 541.28,-16.66 542.8,-23.49"/>
</g>
<!-- Node35&#45;&gt;Node2 -->
<g id="edge47" class="edge">
<title>Node35&#45;&gt;Node2</title>
<path fill="none" stroke="midnightblue" d="M720.91,-56.44C786.27,-45.24 898.96,-25.92 953.95,-16.49"/>
<polygon fill="midnightblue" stroke="midnightblue" points="954.57,-19.94 963.83,-14.8 953.39,-13.04 954.57,-19.94"/>
</g>
<!-- Node35&#45;&gt;Node4 -->
<g id="edge48" class="edge">
<title>Node35&#45;&gt;Node4</title>
<path fill="none" stroke="midnightblue" d="M633.79,-56.47C596.36,-47.89 536.73,-34.2 475.99,-20.23"/>
<polygon fill="midnightblue" stroke="midnightblue" points="476.76,-16.81 466.23,-17.98 475.19,-23.63 476.76,-16.81"/>
</g>
<!-- Node35&#45;&gt;Node16 -->
<g id="edge45" class="edge">
<title>Node35&#45;&gt;Node16</title>
<path fill="none" stroke="midnightblue" d="M701.9,-56.44C736.06,-46.98 791.11,-31.74 827.92,-21.55"/>
<polygon fill="midnightblue" stroke="midnightblue" points="829.08,-24.86 837.78,-18.82 827.21,-18.11 829.08,-24.86"/>
</g>
<!-- Node36 -->
<g id="node36" class="node">
<title>Node36</title>
<g id="a_node36"><a xlink:title=" ">
<polygon fill="white" stroke="#bfbfbf" points="685.5,-0.5 685.5,-19.5 754.5,-19.5 754.5,-0.5 685.5,-0.5"/>
<text text-anchor="middle" x="720" y="-7.5" font-family="Helvetica,sans-Serif" font-size="10.00">arpa/inet.h</text>
</a>
</g>
</g>
<!-- Node35&#45;&gt;Node36 -->
<g id="edge44" class="edge">
<title>Node35&#45;&gt;Node36</title>
<path fill="none" stroke="midnightblue" d="M679.09,-56.08C686.16,-48.3 696.59,-36.8 705.15,-27.37"/>
<polygon fill="midnightblue" stroke="midnightblue" points="707.93,-29.51 712.06,-19.75 702.75,-24.8 707.93,-29.51"/>
</g>
<!-- Node37 -->
<g id="node37" class="node">
<title>Node37</title>
<g id="a_node37"><a xlink:title=" ">
<polygon fill="white" stroke="#bfbfbf" points="772.5,-0.5 772.5,-19.5 819.5,-19.5 819.5,-0.5 772.5,-0.5"/>
<text text-anchor="middle" x="796" y="-7.5" font-family="Helvetica,sans-Serif" font-size="10.00">cerrno</text>
</a>
</g>
</g>
<!-- Node35&#45;&gt;Node37 -->
<g id="edge46" class="edge">
<title>Node35&#45;&gt;Node37</title>
<path fill="none" stroke="midnightblue" d="M690.81,-56.44C711.29,-47.6 743.48,-33.69 766.86,-23.59"/>
<polygon fill="midnightblue" stroke="midnightblue" points="768.49,-26.7 776.29,-19.52 765.72,-20.27 768.49,-26.7"/>
</g>
<!-- Node39&#45;&gt;Node4 -->
<g id="edge50" class="edge">
<title>Node39&#45;&gt;Node4</title>
<path fill="none" stroke="midnightblue" d="M497.27,-56.32C486.16,-48.11 469.26,-35.6 456.02,-25.81"/>
<polygon fill="midnightblue" stroke="midnightblue" points="458.06,-22.97 447.94,-19.83 453.9,-28.59 458.06,-22.97"/>
</g>
<!-- Node39&#45;&gt;Node17 -->
<g id="edge53" class="edge">
<title>Node39&#45;&gt;Node17</title>
<path fill="none" stroke="midnightblue" d="M530.39,-56.44C552.71,-47.52 587.9,-33.44 613.21,-23.32"/>
<polygon fill="midnightblue" stroke="midnightblue" points="614.72,-26.48 622.71,-19.52 612.12,-19.98 614.72,-26.48"/>
</g>
<!-- Node39&#45;&gt;Node25 -->
<g id="edge52" class="edge">
<title>Node39&#45;&gt;Node25</title>
<path fill="none" stroke="midnightblue" d="M509,-56.08C509,-49.01 509,-38.86 509,-29.99"/>
<polygon fill="midnightblue" stroke="midnightblue" points="512.5,-29.75 509,-19.75 505.5,-29.75 512.5,-29.75"/>
</g>
<!-- Node39&#45;&gt;Node32 -->
<g id="edge51" class="edge">
<title>Node39&#45;&gt;Node32</title>
<path fill="none" stroke="midnightblue" d="M519.93,-56.32C530.17,-48.18 545.72,-35.84 558,-26.09"/>
<polygon fill="midnightblue" stroke="midnightblue" points="560.22,-28.79 565.88,-19.83 555.87,-23.31 560.22,-28.79"/>
</g>
<!-- Node44&#45;&gt;Node20 -->
<g id="edge57" class="edge">
<title>Node44&#45;&gt;Node20</title>
<path fill="none" stroke="midnightblue" d="M1575.11,-58.34C1579.76,-57.49 1584.49,-56.68 1589,-56 1734.15,-34.18 1908.7,-19.26 1981.04,-13.57"/>
<polygon fill="midnightblue" stroke="midnightblue" points="1981.66,-17.03 1991.35,-12.76 1981.11,-10.05 1981.66,-17.03"/>
</g>
<!-- Node44&#45;&gt;Node32 -->
<g id="edge58" class="edge">
<title>Node44&#45;&gt;Node32</title>
<path fill="none" stroke="midnightblue" d="M1510.76,-60.8C1496.46,-59.07 1479.41,-57.2 1464,-56 1089.02,-26.77 987.93,-76 612.18,-19.82"/>
<polygon fill="midnightblue" stroke="midnightblue" points="612.53,-16.33 602.12,-18.3 611.49,-23.25 612.53,-16.33"/>
</g>
<!-- Node45 -->
<g id="node42" class="node">
<title>Node45</title>
<g id="a_node42"><a xlink:title=" ">
<polygon fill="white" stroke="#bfbfbf" points="1588,-0.5 1588,-19.5 1630,-19.5 1630,-0.5 1588,-0.5"/>
<text text-anchor="middle" x="1609" y="-7.5" font-family="Helvetica,sans-Serif" font-size="10.00">array</text>
</a>
</g>
</g>
<!-- Node44&#45;&gt;Node45 -->
<g id="edge59" class="edge">
<title>Node44&#45;&gt;Node45</title>
<path fill="none" stroke="midnightblue" d="M1553.6,-56.32C1563.46,-48.26 1578.35,-36.08 1590.22,-26.37"/>
<polygon fill="midnightblue" stroke="midnightblue" points="1592.68,-28.88 1598.2,-19.83 1588.25,-23.46 1592.68,-28.88"/>
</g>
<!-- Node46 -->
<g id="node43" class="node">
<title>Node46</title>
<g id="a_node43"><a xlink:title=" ">
<polygon fill="white" stroke="#bfbfbf" points="1516.5,-0.5 1516.5,-19.5 1569.5,-19.5 1569.5,-0.5 1516.5,-0.5"/>
<text text-anchor="middle" x="1543" y="-7.5" font-family="Helvetica,sans-Serif" font-size="10.00">stdlib.h</text>
</a>
</g>
</g>
<!-- Node44&#45;&gt;Node46 -->
<g id="edge60" class="edge">
<title>Node44&#45;&gt;Node46</title>
<path fill="none" stroke="midnightblue" d="M1543,-56.08C1543,-49.01 1543,-38.86 1543,-29.99"/>
<polygon fill="midnightblue" stroke="midnightblue" points="1546.5,-29.75 1543,-19.75 1539.5,-29.75 1546.5,-29.75"/>
</g>
<!-- Node47&#45;&gt;Node2 -->
<g id="edge62" class="edge">
<title>Node47&#45;&gt;Node2</title>
<path fill="none" stroke="midnightblue" d="M2335.39,-62.28C2310.61,-60.3 2275.68,-57.67 2245,-56 1757.58,-29.47 1163.12,-14.99 1018.73,-11.72"/>
<polygon fill="midnightblue" stroke="midnightblue" points="1018.45,-8.21 1008.37,-11.49 1018.29,-15.21 1018.45,-8.21"/>
</g>
<!-- Node47&#45;&gt;Node5 -->
<g id="edge64" class="edge">
<title>Node47&#45;&gt;Node5</title>
<path fill="none" stroke="midnightblue" d="M2335.38,-62.4C2310.6,-60.47 2275.67,-57.87 2245,-56 1921.02,-36.24 1834.6,-64.46 1508.91,-19.84"/>
<polygon fill="midnightblue" stroke="midnightblue" points="1509.09,-16.33 1498.71,-18.43 1508.14,-23.27 1509.09,-16.33"/>
</g>
<!-- Node47&#45;&gt;Node7 -->
<g id="edge67" class="edge">
<title>Node47&#45;&gt;Node7</title>
<path fill="none" stroke="midnightblue" d="M2335.32,-61.4C2319.52,-59.69 2300.28,-57.67 2283,-56 2103.04,-38.64 1887.54,-20.85 1802.8,-13.97"/>
<polygon fill="midnightblue" stroke="midnightblue" points="1802.9,-10.46 1792.65,-13.14 1802.34,-17.44 1802.9,-10.46"/>
</g>
<!-- Node47&#45;&gt;Node11 -->
<g id="edge68" class="edge">
<title>Node47&#45;&gt;Node11</title>
<path fill="none" stroke="midnightblue" d="M2400.81,-56.8C2437.98,-47.5 2498.76,-32.31 2540.03,-21.99"/>
<polygon fill="midnightblue" stroke="midnightblue" points="2540.96,-25.37 2549.81,-19.55 2539.26,-18.58 2540.96,-25.37"/>
</g>
<!-- Node47&#45;&gt;Node20 -->
<g id="edge63" class="edge">
<title>Node47&#45;&gt;Node20</title>
<path fill="none" stroke="midnightblue" d="M2335.42,-58.57C2330.59,-57.67 2325.67,-56.79 2321,-56 2222.52,-39.34 2105.6,-23.13 2049.03,-15.52"/>
<polygon fill="midnightblue" stroke="midnightblue" points="2049.24,-12.01 2038.86,-14.15 2048.31,-18.95 2049.24,-12.01"/>
</g>
<!-- Node47&#45;&gt;Node33 -->
<g id="edge70" class="edge">
<title>Node47&#45;&gt;Node33</title>
<path fill="none" stroke="midnightblue" d="M2383.91,-56.32C2399.64,-47.74 2423.94,-34.49 2442.21,-24.52"/>
<polygon fill="midnightblue" stroke="midnightblue" points="2444.03,-27.52 2451.13,-19.65 2440.68,-21.37 2444.03,-27.52"/>
</g>
<!-- Node48 -->
<g id="node45" class="node">
<title>Node48</title>
<g id="a_node45"><a xlink:title=" ">
<polygon fill="white" stroke="#bfbfbf" points="2330,-0.5 2330,-19.5 2398,-19.5 2398,-0.5 2330,-0.5"/>
<text text-anchor="middle" x="2364" y="-7.5" font-family="Helvetica,sans-Serif" font-size="10.00">filesystem</text>
</a>
</g>
</g>
<!-- Node47&#45;&gt;Node48 -->
<g id="edge65" class="edge">
<title>Node47&#45;&gt;Node48</title>
<path fill="none" stroke="midnightblue" d="M2367.34,-56.08C2366.82,-49.01 2366.06,-38.86 2365.41,-29.99"/>
<polygon fill="midnightblue" stroke="midnightblue" points="2368.88,-29.47 2364.65,-19.75 2361.9,-29.98 2368.88,-29.47"/>
</g>
<!-- Node49 -->
<g id="node46" class="node">
<title>Node49</title>
<g id="a_node46"><a xlink:title=" ">
<polygon fill="white" stroke="#bfbfbf" points="2148,-0.5 2148,-19.5 2228,-19.5 2228,-0.5 2148,-0.5"/>
<text text-anchor="middle" x="2188" y="-7.5" font-family="Helvetica,sans-Serif" font-size="10.00">SDL_image.h</text>
</a>
</g>
</g>
<!-- Node47&#45;&gt;Node49 -->
<g id="edge66" class="edge">
<title>Node47&#45;&gt;Node49</title>
<path fill="none" stroke="midnightblue" d="M2339.48,-56.44C2308.93,-47.28 2260.29,-32.69 2226.4,-22.52"/>
<polygon fill="midnightblue" stroke="midnightblue" points="2226.97,-19.04 2216.39,-19.52 2224.96,-25.74 2226.97,-19.04"/>
</g>
<!-- Node50 -->
<g id="node47" class="node">
<title>Node50</title>
<g id="a_node47"><a xlink:title=" ">
<polygon fill="white" stroke="#bfbfbf" points="2246,-0.5 2246,-19.5 2312,-19.5 2312,-0.5 2246,-0.5"/>
<text text-anchor="middle" x="2279" y="-7.5" font-family="Helvetica,sans-Serif" font-size="10.00">libnpy.hpp</text>
</a>
</g>
</g>
<!-- Node47&#45;&gt;Node50 -->
<g id="edge69" class="edge">
<title>Node47&#45;&gt;Node50</title>
<path fill="none" stroke="midnightblue" d="M2353.7,-56.32C2339.82,-47.9 2318.51,-34.97 2302.2,-25.07"/>
<polygon fill="midnightblue" stroke="midnightblue" points="2303.63,-21.85 2293.26,-19.65 2300,-27.83 2303.63,-21.85"/>
</g>
<!-- Node52&#45;&gt;Node2 -->
<g id="edge76" class="edge">
<title>Node52&#45;&gt;Node2</title>
<path fill="none" stroke="midnightblue" d="M2231.39,-112.09C2231.47,-97.66 2229.25,-69.43 2212,-56 2187.75,-37.12 1209.93,-15.69 1018.36,-11.67"/>
<polygon fill="midnightblue" stroke="midnightblue" points="1018.18,-8.16 1008.11,-11.45 1018.03,-15.16 1018.18,-8.16"/>
</g>
<!-- Node52&#45;&gt;Node7 -->
<g id="edge83" class="edge">
<title>Node52&#45;&gt;Node7</title>
<path fill="none" stroke="midnightblue" d="M2237.09,-112.19C2245.81,-98.41 2259.3,-71.71 2245,-56 2230.14,-39.67 1913.01,-19.62 1803.11,-13.13"/>
<polygon fill="midnightblue" stroke="midnightblue" points="1803.02,-9.62 1792.83,-12.53 1802.61,-16.61 1803.02,-9.62"/>
</g>
<!-- Node52&#45;&gt;Node8 -->
<g id="edge84" class="edge">
<title>Node52&#45;&gt;Node8</title>
<path fill="none" stroke="midnightblue" d="M2195.82,-112.44C2157.42,-103.1 2095.82,-88.12 2053.94,-77.93"/>
<polygon fill="midnightblue" stroke="midnightblue" points="2054.56,-74.48 2044.01,-75.52 2052.9,-81.28 2054.56,-74.48"/>
</g>
<!-- Node52&#45;&gt;Node9 -->
<g id="edge85" class="edge">
<title>Node52&#45;&gt;Node9</title>
<path fill="none" stroke="midnightblue" d="M2216.38,-112.32C2202.05,-103.82 2179.99,-90.73 2163.25,-80.8"/>
<polygon fill="midnightblue" stroke="midnightblue" points="2164.97,-77.75 2154.58,-75.65 2161.4,-83.77 2164.97,-77.75"/>
</g>
<!-- Node52&#45;&gt;Node10 -->
<g id="edge86" class="edge">
<title>Node52&#45;&gt;Node10</title>
<path fill="none" stroke="midnightblue" d="M2293.06,-115.05C2368.92,-107.53 2501.44,-93.58 2624.89,-76.09"/>
<polygon fill="midnightblue" stroke="midnightblue" points="2625.5,-79.54 2634.9,-74.66 2624.51,-72.61 2625.5,-79.54"/>
</g>
<!-- Node52&#45;&gt;Node11 -->
<g id="edge87" class="edge">
<title>Node52&#45;&gt;Node11</title>
<path fill="none" stroke="midnightblue" d="M2293.41,-114.08C2340.9,-107.59 2407.35,-95.83 2463,-76 2499.88,-62.86 2539.23,-39.83 2562.71,-25.01"/>
<polygon fill="midnightblue" stroke="midnightblue" points="2564.65,-27.93 2571.18,-19.58 2560.87,-22.03 2564.65,-27.93"/>
</g>
<!-- Node52&#45;&gt;Node12 -->
<g id="edge88" class="edge">
<title>Node52&#45;&gt;Node12</title>
<path fill="none" stroke="midnightblue" d="M2293,-116.86C2385.57,-110.35 2565.59,-96.46 2728.61,-76.09"/>
<polygon fill="midnightblue" stroke="midnightblue" points="2729.34,-79.53 2738.82,-74.8 2728.46,-72.58 2729.34,-79.53"/>
</g>
<!-- Node52&#45;&gt;Node18 -->
<g id="edge77" class="edge">
<title>Node52&#45;&gt;Node18</title>
<path fill="none" stroke="midnightblue" d="M2168.96,-115.28C2102.11,-108.57 1992.49,-96.01 1889.15,-76.01"/>
<polygon fill="midnightblue" stroke="midnightblue" points="1889.65,-72.54 1879.17,-74.05 1888.31,-79.41 1889.65,-72.54"/>
</g>
<!-- Node52&#45;&gt;Node20 -->
<g id="edge75" class="edge">
<title>Node52&#45;&gt;Node20</title>
<path fill="none" stroke="midnightblue" d="M2246.47,-112.47C2267.27,-99.93 2299.8,-75.86 2283,-56 2267.99,-38.26 2117.44,-21.18 2048.79,-14.25"/>
<polygon fill="midnightblue" stroke="midnightblue" points="2048.81,-10.73 2038.51,-13.22 2048.11,-17.7 2048.81,-10.73"/>
</g>
<!-- Node52&#45;&gt;Node21 -->
<g id="edge79" class="edge">
<title>Node52&#45;&gt;Node21</title>
<path fill="none" stroke="midnightblue" d="M2168.91,-113.3C2113.93,-105.98 2031.36,-93.74 1951.05,-76.01"/>
<polygon fill="midnightblue" stroke="midnightblue" points="1951.79,-72.59 1941.27,-73.82 1950.26,-79.42 1951.79,-72.59"/>
</g>
<!-- Node52&#45;&gt;Node26 -->
<g id="edge78" class="edge">
<title>Node52&#45;&gt;Node26</title>
<path fill="none" stroke="midnightblue" d="M2168.94,-117.77C2077.71,-112.47 1901.89,-100.18 1743.11,-75.99"/>
<polygon fill="midnightblue" stroke="midnightblue" points="1743.57,-72.52 1733.16,-74.45 1742.51,-79.44 1743.57,-72.52"/>
</g>
<!-- Node52&#45;&gt;Node33 -->
<g id="edge81" class="edge">
<title>Node52&#45;&gt;Node33</title>
<path fill="none" stroke="midnightblue" d="M2293.14,-114.49C2347.41,-107.63 2420.87,-95.14 2443,-76 2456.49,-64.34 2462.4,-44.39 2464.99,-29.66"/>
<polygon fill="midnightblue" stroke="midnightblue" points="2468.47,-30.03 2466.39,-19.64 2461.54,-29.06 2468.47,-30.03"/>
</g>
<!-- Node52&#45;&gt;Node34 -->
<g id="edge82" class="edge">
<title>Node52&#45;&gt;Node34</title>
<path fill="none" stroke="midnightblue" d="M2168.71,-116.48C2089.97,-110.25 1950.12,-97.48 1821.21,-76.03"/>
<polygon fill="midnightblue" stroke="midnightblue" points="1821.61,-72.54 1811.16,-74.33 1820.44,-79.44 1821.61,-72.54"/>
</g>
<!-- Node52&#45;&gt;Node47 -->
<g id="edge89" class="edge">
<title>Node52&#45;&gt;Node47</title>
<path fill="none" stroke="midnightblue" d="M2252.71,-112.44C2275.35,-103.52 2311.07,-89.44 2336.75,-79.32"/>
<polygon fill="midnightblue" stroke="midnightblue" points="2338.37,-82.44 2346.39,-75.52 2335.81,-75.93 2338.37,-82.44"/>
</g>
<!-- Node53 -->
<g id="node50" class="node">
<title>Node53</title>
<g id="a_node50"><a xlink:title=" ">
<polygon fill="white" stroke="#bfbfbf" points="2533.5,-56.5 2533.5,-75.5 2616.5,-75.5 2616.5,-56.5 2533.5,-56.5"/>
<text text-anchor="middle" x="2575" y="-63.5" font-family="Helvetica,sans-Serif" font-size="10.00">SDL_opengl.h</text>
</a>
</g>
</g>
<!-- Node52&#45;&gt;Node53 -->
<g id="edge80" class="edge">
<title>Node52&#45;&gt;Node53</title>
<path fill="none" stroke="midnightblue" d="M2285.95,-112.49C2343.92,-103.49 2437.9,-88.85 2519,-76 2520.46,-75.77 2521.94,-75.53 2523.43,-75.3"/>
<polygon fill="midnightblue" stroke="midnightblue" points="2524.09,-78.74 2533.41,-73.7 2522.99,-71.82 2524.09,-78.74"/>
</g>
</g>
</svg>
