<?xml version="1.0" encoding="UTF-8" standalone="no"?>
<!DOCTYPE svg PUBLIC "-//W3C//DTD SVG 1.1//EN"
 "http://www.w3.org/Graphics/SVG/1.1/DTD/svg11.dtd">
<!-- Generated by graphviz version 2.43.0 (0)
 -->
<!-- Title: src/RunGUI.cpp Pages: 1 -->
<svg width="3033pt" height="196pt"
 viewBox="0.00 0.00 3033.24 196.00" xmlns="http://www.w3.org/2000/svg" xmlns:xlink="http://www.w3.org/1999/xlink">
<g id="graph0" class="graph" transform="scale(1 1) rotate(0) translate(4 192)">
<title>src/RunGUI.cpp</title>
<polygon fill="white" stroke="transparent" points="-4,4 -4,-192 3029.24,-192 3029.24,4 -4,4"/>
<!-- Node1 -->
<g id="node1" class="node">
<title>Node1</title>
<g id="a_node1"><a xlink:title=" ">
<polygon fill="#bfbfbf" stroke="black" points="557.74,-168.5 557.74,-187.5 648.74,-187.5 648.74,-168.5 557.74,-168.5"/>
<text text-anchor="middle" x="603.24" y="-175.5" font-family="Helvetica,sans-Serif" font-size="10.00">src/RunGUI.cpp</text>
</a>
</g>
</g>
<!-- Node2 -->
<g id="node2" class="node">
<title>Node2</title>
<g id="a_node2"><a xlink:title=" ">
<polygon fill="white" stroke="#bfbfbf" points="843.24,-0.5 843.24,-19.5 887.24,-19.5 887.24,-0.5 843.24,-0.5"/>
<text text-anchor="middle" x="865.24" y="-7.5" font-family="Helvetica,sans-Serif" font-size="10.00">string</text>
</a>
</g>
</g>
<!-- Node1&#45;&gt;Node2 -->
<g id="edge1" class="edge">
<title>Node1&#45;&gt;Node2</title>
<path fill="none" stroke="midnightblue" d="M557.6,-177.74C429.45,-178.43 82.54,-170.1 190.24,-56 237.84,-5.58 744.36,-27.93 813.24,-20 819.69,-19.26 826.56,-18.24 833.11,-17.15"/>
<polygon fill="midnightblue" stroke="midnightblue" points="833.81,-20.58 843.06,-15.41 832.6,-13.68 833.81,-20.58"/>
</g>
<!-- Node3 -->
<g id="node3" class="node">
<title>Node3</title>
<g id="a_node3"><a xlink:title=" ">
<polygon fill="white" stroke="#bfbfbf" points="2397.24,-0.5 2397.24,-19.5 2445.24,-19.5 2445.24,-0.5 2397.24,-0.5"/>
<text text-anchor="middle" x="2421.24" y="-7.5" font-family="Helvetica,sans-Serif" font-size="10.00">thread</text>
</a>
</g>
</g>
<!-- Node1&#45;&gt;Node3 -->
<g id="edge2" class="edge">
<title>Node1&#45;&gt;Node3</title>
<path fill="none" stroke="midnightblue" d="M648.8,-175.99C805.54,-172.36 1337,-158.74 1775.24,-132 1924.15,-122.91 2343.25,-185.8 2444.24,-76 2456.59,-62.58 2446.09,-42.1 2435.57,-27.73"/>
<polygon fill="midnightblue" stroke="midnightblue" points="2438.16,-25.37 2429.22,-19.69 2432.67,-29.7 2438.16,-25.37"/>
</g>
<!-- Node4 -->
<g id="node4" class="node">
<title>Node4</title>
<g id="a_node4"><a xlink:title=" ">
<polygon fill="white" stroke="#bfbfbf" points="2463.24,-0.5 2463.24,-19.5 2523.24,-19.5 2523.24,-0.5 2463.24,-0.5"/>
<text text-anchor="middle" x="2493.24" y="-7.5" font-family="Helvetica,sans-Serif" font-size="10.00">iostream</text>
</a>
</g>
</g>
<!-- Node1&#45;&gt;Node4 -->
<g id="edge3" class="edge">
<title>Node1&#45;&gt;Node4</title>
<path fill="none" stroke="midnightblue" d="M648.89,-176.36C866.68,-173.22 1801.68,-158.4 2092.24,-132 2257,-117.03 2326.18,-172.93 2460.24,-76 2475.59,-64.9 2484.28,-44.56 2488.84,-29.58"/>
<polygon fill="midnightblue" stroke="midnightblue" points="2492.24,-30.39 2491.47,-19.83 2485.49,-28.57 2492.24,-30.39"/>
</g>
<!-- Node5 -->
<g id="node5" class="node">
<title>Node5</title>
<g id="a_node5"><a xlink:title=" ">
<polygon fill="white" stroke="#bfbfbf" points="1193.74,-0.5 1193.74,-19.5 1252.74,-19.5 1252.74,-0.5 1193.74,-0.5"/>
<text text-anchor="middle" x="1223.24" y="-7.5" font-family="Helvetica,sans-Serif" font-size="10.00">complex</text>
</a>
</g>
</g>
<!-- Node1&#45;&gt;Node5 -->
<g id="edge4" class="edge">
<title>Node1&#45;&gt;Node5</title>
<path fill="none" stroke="midnightblue" d="M557.64,-176.77C436.64,-174.77 123.34,-159.72 223.24,-56 258.93,-18.95 1067.79,-26.4 1183.35,-19.35"/>
<polygon fill="midnightblue" stroke="midnightblue" points="1183.88,-22.82 1193.54,-18.47 1183.27,-15.84 1183.88,-22.82"/>
</g>
<!-- Node6 -->
<g id="node6" class="node">
<title>Node6</title>
<g id="a_node6"><a xlink:title=" ">
<polygon fill="white" stroke="#bfbfbf" points="2550.24,-112.5 2550.24,-131.5 2588.24,-131.5 2588.24,-112.5 2550.24,-112.5"/>
<text text-anchor="middle" x="2569.24" y="-119.5" font-family="Helvetica,sans-Serif" font-size="10.00">map</text>
</a>
</g>
</g>
<!-- Node1&#45;&gt;Node6 -->
<g id="edge5" class="edge">
<title>Node1&#45;&gt;Node6</title>
<path fill="none" stroke="midnightblue" d="M649.01,-176.6C923.35,-174.12 2344.31,-159.98 2536.24,-132 2537.53,-131.81 2538.84,-131.59 2540.16,-131.34"/>
<polygon fill="midnightblue" stroke="midnightblue" points="2541.25,-134.68 2550.22,-129.03 2539.69,-127.86 2541.25,-134.68"/>
</g>
<!-- Node7 -->
<g id="node7" class="node">
<title>Node7</title>
<g id="a_node7"><a xlink:title=" ">
<polygon fill="white" stroke="#bfbfbf" points="303.74,-0.5 303.74,-19.5 356.74,-19.5 356.74,-0.5 303.74,-0.5"/>
<text text-anchor="middle" x="330.24" y="-7.5" font-family="Helvetica,sans-Serif" font-size="10.00">imgui.h</text>
</a>
</g>
</g>
<!-- Node1&#45;&gt;Node7 -->
<g id="edge6" class="edge">
<title>Node1&#45;&gt;Node7</title>
<path fill="none" stroke="midnightblue" d="M557.67,-176.98C426.12,-176.45 52.79,-171.46 16.24,-132 -66.59,-42.57 194.18,-18.54 293.49,-12.71"/>
<polygon fill="midnightblue" stroke="midnightblue" points="293.88,-16.19 303.67,-12.14 293.49,-9.2 293.88,-16.19"/>
</g>
<!-- Node8 -->
<g id="node8" class="node">
<title>Node8</title>
<g id="a_node8"><a xlink:title=" ">
<polygon fill="white" stroke="#bfbfbf" points="232.24,-56.5 232.24,-75.5 332.24,-75.5 332.24,-56.5 232.24,-56.5"/>
<text text-anchor="middle" x="282.24" y="-63.5" font-family="Helvetica,sans-Serif" font-size="10.00">imgui_impl_sdl.h</text>
</a>
</g>
</g>
<!-- Node1&#45;&gt;Node8 -->
<g id="edge7" class="edge">
<title>Node1&#45;&gt;Node8</title>
<path fill="none" stroke="midnightblue" d="M578.32,-168.46C521.55,-149.01 382.5,-101.36 317.19,-78.98"/>
<polygon fill="midnightblue" stroke="midnightblue" points="317.97,-75.54 307.37,-75.61 315.7,-82.16 317.97,-75.54"/>
</g>
<!-- Node9 -->
<g id="node9" class="node">
<title>Node9</title>
<g id="a_node9"><a xlink:title=" ">
<polygon fill="white" stroke="#bfbfbf" points="350.74,-56.5 350.74,-75.5 475.74,-75.5 475.74,-56.5 350.74,-56.5"/>
<text text-anchor="middle" x="413.24" y="-63.5" font-family="Helvetica,sans-Serif" font-size="10.00">imgui_impl_opengl3.h</text>
</a>
</g>
</g>
<!-- Node1&#45;&gt;Node9 -->
<g id="edge8" class="edge">
<title>Node1&#45;&gt;Node9</title>
<path fill="none" stroke="midnightblue" d="M588.33,-168.37C555.45,-149.33 476.49,-103.62 436.82,-80.65"/>
<polygon fill="midnightblue" stroke="midnightblue" points="438.49,-77.57 428.08,-75.59 434.98,-83.63 438.49,-77.57"/>
</g>
<!-- Node10 -->
<g id="node10" class="node">
<title>Node10</title>
<g id="a_node10"><a xlink:title=" ">
<polygon fill="white" stroke="#bfbfbf" points="494.24,-56.5 494.24,-75.5 580.24,-75.5 580.24,-56.5 494.24,-56.5"/>
<text text-anchor="middle" x="537.24" y="-63.5" font-family="Helvetica,sans-Serif" font-size="10.00">imgui_stdlib.h</text>
</a>
</g>
</g>
<!-- Node1&#45;&gt;Node10 -->
<g id="edge9" class="edge">
<title>Node1&#45;&gt;Node10</title>
<path fill="none" stroke="midnightblue" d="M598.06,-168.37C587.22,-150.3 561.95,-108.18 547.63,-84.31"/>
<polygon fill="midnightblue" stroke="midnightblue" points="550.54,-82.37 542.4,-75.59 544.54,-85.97 550.54,-82.37"/>
</g>
<!-- Node11 -->
<g id="node11" class="node">
<title>Node11</title>
<g id="a_node11"><a xlink:title=" ">
<polygon fill="white" stroke="#bfbfbf" points="708.24,-0.5 708.24,-19.5 804.24,-19.5 804.24,-0.5 708.24,-0.5"/>
<text text-anchor="middle" x="756.24" y="-7.5" font-family="Helvetica,sans-Serif" font-size="10.00">imgui_internal.h</text>
</a>
</g>
</g>
<!-- Node1&#45;&gt;Node11 -->
<g id="edge10" class="edge">
<title>Node1&#45;&gt;Node11</title>
<path fill="none" stroke="midnightblue" d="M557.28,-176.93C426.48,-176.27 59.26,-170.92 23.24,-132 17.21,-125.48 20.03,-120.29 23.24,-112 35.4,-80.61 43.92,-70.61 74.24,-56 129.66,-29.3 542.76,-16.33 697.74,-12.36"/>
<polygon fill="midnightblue" stroke="midnightblue" points="698.1,-15.86 708.01,-12.11 697.92,-8.86 698.1,-15.86"/>
</g>
<!-- Node12 -->
<g id="node12" class="node">
<title>Node12</title>
<g id="a_node12"><a xlink:title=" ">
<polygon fill="white" stroke="#bfbfbf" points="598.24,-56.5 598.24,-75.5 690.24,-75.5 690.24,-56.5 598.24,-56.5"/>
<text text-anchor="middle" x="644.24" y="-63.5" font-family="Helvetica,sans-Serif" font-size="10.00">imfilebrowser.h</text>
</a>
</g>
</g>
<!-- Node1&#45;&gt;Node12 -->
<g id="edge11" class="edge">
<title>Node1&#45;&gt;Node12</title>
<path fill="none" stroke="midnightblue" d="M606.46,-168.37C613.11,-150.54 628.48,-109.3 637.43,-85.27"/>
<polygon fill="midnightblue" stroke="midnightblue" points="640.83,-86.18 641.04,-75.59 634.27,-83.74 640.83,-86.18"/>
</g>
<!-- Node13 -->
<g id="node13" class="node">
<title>Node13</title>
<g id="a_node13"><a xlink:title=" ">
<polygon fill="white" stroke="#bfbfbf" points="100.24,-56.5 100.24,-75.5 138.24,-75.5 138.24,-56.5 100.24,-56.5"/>
<text text-anchor="middle" x="119.24" y="-63.5" font-family="Helvetica,sans-Serif" font-size="10.00">ini.h</text>
</a>
</g>
</g>
<!-- Node1&#45;&gt;Node13 -->
<g id="edge12" class="edge">
<title>Node1&#45;&gt;Node13</title>
<path fill="none" stroke="midnightblue" d="M557.41,-177.07C458.74,-176.46 229.87,-170.78 164.24,-132 146.19,-121.33 133.66,-100.26 126.49,-84.99"/>
<polygon fill="midnightblue" stroke="midnightblue" points="129.58,-83.32 122.38,-75.54 123.16,-86.11 129.58,-83.32"/>
</g>
<!-- Node14 -->
<g id="node14" class="node">
<title>Node14</title>
<g id="a_node14"><a xlink:href="../../de/ded/ImGuiINI_8hpp.html" target="_top" xlink:title=" ">
<polygon fill="white" stroke="black" points="32.24,-112.5 32.24,-131.5 112.24,-131.5 112.24,-112.5 32.24,-112.5"/>
<text text-anchor="middle" x="72.24" y="-119.5" font-family="Helvetica,sans-Serif" font-size="10.00">ImGuiINI.hpp</text>
</a>
</g>
</g>
<!-- Node1&#45;&gt;Node14 -->
<g id="edge13" class="edge">
<title>Node1&#45;&gt;Node14</title>
<path fill="none" stroke="midnightblue" d="M557.74,-173.79C472.75,-167.55 284.2,-152.59 126.24,-132 124.97,-131.83 123.68,-131.66 122.38,-131.48"/>
<polygon fill="midnightblue" stroke="midnightblue" points="122.7,-127.99 112.3,-130 121.69,-134.92 122.7,-127.99"/>
</g>
<!-- Node15 -->
<g id="node15" class="node">
<title>Node15</title>
<g id="a_node15"><a xlink:href="../../de/dfc/Ricom_8h.html" target="_top" xlink:title=" ">
<polygon fill="white" stroke="black" points="1710.24,-112.5 1710.24,-131.5 1766.24,-131.5 1766.24,-112.5 1710.24,-112.5"/>
<text text-anchor="middle" x="1738.24" y="-119.5" font-family="Helvetica,sans-Serif" font-size="10.00">Ricom.h</text>
</a>
</g>
</g>
<!-- Node1&#45;&gt;Node15 -->
<g id="edge17" class="edge">
<title>Node1&#45;&gt;Node15</title>
<path fill="none" stroke="midnightblue" d="M648.79,-174.83C833.89,-166.03 1528.06,-133 1699.69,-124.83"/>
<polygon fill="midnightblue" stroke="midnightblue" points="1699.95,-128.33 1709.77,-124.35 1699.62,-121.33 1699.95,-128.33"/>
</g>
<!-- Node45 -->
<g id="node41" class="node">
<title>Node45</title>
<g id="a_node41"><a xlink:href="../../dd/de4/Camera_8h.html" target="_top" xlink:title=" ">
<polygon fill="white" stroke="black" points="1526.24,-56.5 1526.24,-75.5 1590.24,-75.5 1590.24,-56.5 1526.24,-56.5"/>
<text text-anchor="middle" x="1558.24" y="-63.5" font-family="Helvetica,sans-Serif" font-size="10.00">Camera.h</text>
</a>
</g>
</g>
<!-- Node1&#45;&gt;Node45 -->
<g id="edge72" class="edge">
<title>Node1&#45;&gt;Node45</title>
<path fill="none" stroke="midnightblue" d="M648.98,-171.73C811.37,-153.03 1358.85,-89.97 1515.84,-71.88"/>
<polygon fill="midnightblue" stroke="midnightblue" points="1516.5,-75.33 1526.03,-70.71 1515.7,-68.38 1516.5,-75.33"/>
</g>
<!-- Node48 -->
<g id="node44" class="node">
<title>Node48</title>
<g id="a_node44"><a xlink:href="../../d7/db2/GuiUtils_8h.html" target="_top" xlink:title=" ">
<polygon fill="white" stroke="black" points="1108.74,-56.5 1108.74,-75.5 1173.74,-75.5 1173.74,-56.5 1108.74,-56.5"/>
<text text-anchor="middle" x="1141.24" y="-63.5" font-family="Helvetica,sans-Serif" font-size="10.00">GuiUtils.h</text>
</a>
</g>
</g>
<!-- Node1&#45;&gt;Node48 -->
<g id="edge73" class="edge">
<title>Node1&#45;&gt;Node48</title>
<path fill="none" stroke="midnightblue" d="M648.81,-171.72C707.35,-164.57 811.95,-150.53 900.24,-132 973.14,-116.7 1056.8,-92.64 1103.9,-78.48"/>
<polygon fill="midnightblue" stroke="midnightblue" points="1105.1,-81.78 1113.66,-75.54 1103.07,-75.08 1105.1,-81.78"/>
</g>
<!-- Node52 -->
<g id="node48" class="node">
<title>Node52</title>
<g id="a_node48"><a xlink:title=" ">
<polygon fill="white" stroke="#bfbfbf" points="2606.24,-112.5 2606.24,-131.5 2656.24,-131.5 2656.24,-112.5 2606.24,-112.5"/>
<text text-anchor="middle" x="2631.24" y="-119.5" font-family="Helvetica,sans-Serif" font-size="10.00">fonts.h</text>
</a>
</g>
</g>
<!-- Node1&#45;&gt;Node52 -->
<g id="edge71" class="edge">
<title>Node1&#45;&gt;Node52</title>
<path fill="none" stroke="midnightblue" d="M649.09,-176.61C924.43,-174.21 2354.59,-160.52 2595.86,-131.7"/>
<polygon fill="midnightblue" stroke="midnightblue" points="2596.67,-135.12 2606.13,-130.36 2595.76,-128.18 2596.67,-135.12"/>
</g>
<!-- Node53 -->
<g id="node49" class="node">
<title>Node53</title>
<g id="a_node49"><a xlink:href="../../d4/d6e/ImGuiImageWindow_8h.html" target="_top" xlink:title=" ">
<polygon fill="white" stroke="black" points="767.24,-112.5 767.24,-131.5 891.24,-131.5 891.24,-112.5 767.24,-112.5"/>
<text text-anchor="middle" x="829.24" y="-119.5" font-family="Helvetica,sans-Serif" font-size="10.00">ImGuiImageWindow.h</text>
</a>
</g>
</g>
<!-- Node1&#45;&gt;Node53 -->
<g id="edge74" class="edge">
<title>Node1&#45;&gt;Node53</title>
<path fill="none" stroke="midnightblue" d="M639.05,-168.44C678.23,-159.08 741.12,-144.06 783.76,-133.87"/>
<polygon fill="midnightblue" stroke="midnightblue" points="784.69,-137.24 793.6,-131.52 783.06,-130.44 784.69,-137.24"/>
</g>
<!-- Node14&#45;&gt;Node2 -->
<g id="edge16" class="edge">
<title>Node14&#45;&gt;Node2</title>
<path fill="none" stroke="midnightblue" d="M71.88,-112.12C71.83,-97.72 74.08,-69.55 91.24,-56 154.3,-6.24 733.41,-28.87 813.24,-20 819.7,-19.28 826.56,-18.27 833.12,-17.19"/>
<polygon fill="midnightblue" stroke="midnightblue" points="833.81,-20.62 843.06,-15.45 832.61,-13.72 833.81,-20.62"/>
</g>
<!-- Node14&#45;&gt;Node7 -->
<g id="edge14" class="edge">
<title>Node14&#45;&gt;Node7</title>
<path fill="none" stroke="midnightblue" d="M66.28,-112.31C57.75,-98.69 44.51,-72.2 58.24,-56 88,-20.92 226.42,-13.15 293.54,-11.45"/>
<polygon fill="midnightblue" stroke="midnightblue" points="293.76,-14.95 303.68,-11.23 293.6,-7.95 293.76,-14.95"/>
</g>
<!-- Node14&#45;&gt;Node13 -->
<g id="edge15" class="edge">
<title>Node14&#45;&gt;Node13</title>
<path fill="none" stroke="midnightblue" d="M80,-112.08C86.78,-104.3 96.79,-92.8 105,-83.37"/>
<polygon fill="midnightblue" stroke="midnightblue" points="107.7,-85.59 111.63,-75.75 102.42,-81 107.7,-85.59"/>
</g>
<!-- Node15&#45;&gt;Node2 -->
<g id="edge24" class="edge">
<title>Node15&#45;&gt;Node2</title>
<path fill="none" stroke="midnightblue" d="M1710.19,-120.51C1602.76,-118.42 1217.62,-108.76 1100.24,-76 1081.48,-70.76 1079.54,-62.68 1061.24,-56 1031.44,-45.13 945.16,-27.01 897.62,-17.42"/>
<polygon fill="midnightblue" stroke="midnightblue" points="898.03,-13.93 887.54,-15.39 896.65,-20.79 898.03,-13.93"/>
</g>
<!-- Node15&#45;&gt;Node3 -->
<g id="edge28" class="edge">
<title>Node15&#45;&gt;Node3</title>
<path fill="none" stroke="midnightblue" d="M1766.52,-121.37C1890.45,-122.71 2381.45,-124.88 2427.24,-76 2438.72,-63.75 2434.91,-43.93 2429.66,-29.39"/>
<polygon fill="midnightblue" stroke="midnightblue" points="2432.81,-27.85 2425.78,-19.92 2426.34,-30.5 2432.81,-27.85"/>
</g>
<!-- Node15&#45;&gt;Node5 -->
<g id="edge21" class="edge">
<title>Node15&#45;&gt;Node5</title>
<path fill="none" stroke="midnightblue" d="M1709.86,-120.48C1655.26,-118.67 1532.48,-110.73 1436.24,-76 1420.11,-70.18 1419.07,-62.6 1403.24,-56 1390.3,-50.61 1311.7,-31.73 1262.74,-20.21"/>
<polygon fill="midnightblue" stroke="midnightblue" points="1263.31,-16.75 1252.78,-17.87 1261.71,-23.56 1263.31,-16.75"/>
</g>
<!-- Node16 -->
<g id="node16" class="node">
<title>Node16</title>
<g id="a_node16"><a xlink:title=" ">
<polygon fill="white" stroke="#bfbfbf" points="2969.24,-0.5 2969.24,-19.5 3025.24,-19.5 3025.24,-0.5 2969.24,-0.5"/>
<text text-anchor="middle" x="2997.24" y="-7.5" font-family="Helvetica,sans-Serif" font-size="10.00">unistd.h</text>
</a>
</g>
</g>
<!-- Node15&#45;&gt;Node16 -->
<g id="edge18" class="edge">
<title>Node15&#45;&gt;Node16</title>
<path fill="none" stroke="midnightblue" d="M1766.27,-121.18C1916.38,-121.96 2626.59,-123.03 2840.24,-76 2889.38,-65.18 2942.72,-39.93 2972.86,-24.28"/>
<polygon fill="midnightblue" stroke="midnightblue" points="2974.59,-27.33 2981.8,-19.56 2971.32,-21.13 2974.59,-27.33"/>
</g>
<!-- Node17 -->
<g id="node17" class="node">
<title>Node17</title>
<g id="a_node17"><a xlink:title=" ">
<polygon fill="white" stroke="#bfbfbf" points="1748.74,-0.5 1748.74,-19.5 1795.74,-19.5 1795.74,-0.5 1748.74,-0.5"/>
<text text-anchor="middle" x="1772.24" y="-7.5" font-family="Helvetica,sans-Serif" font-size="10.00">cmath</text>
</a>
</g>
</g>
<!-- Node15&#45;&gt;Node17 -->
<g id="edge19" class="edge">
<title>Node15&#45;&gt;Node17</title>
<path fill="none" stroke="midnightblue" d="M1743.07,-112.29C1747.82,-103.41 1754.94,-89.11 1759.24,-76 1764.24,-60.78 1767.65,-42.89 1769.71,-29.73"/>
<polygon fill="midnightblue" stroke="midnightblue" points="1773.22,-29.98 1771.19,-19.58 1766.29,-28.97 1773.22,-29.98"/>
</g>
<!-- Node18 -->
<g id="node18" class="node">
<title>Node18</title>
<g id="a_node18"><a xlink:title=" ">
<polygon fill="white" stroke="#bfbfbf" points="924.24,-56.5 924.24,-75.5 974.24,-75.5 974.24,-56.5 924.24,-56.5"/>
<text text-anchor="middle" x="949.24" y="-63.5" font-family="Helvetica,sans-Serif" font-size="10.00">stdio.h</text>
</a>
</g>
</g>
<!-- Node15&#45;&gt;Node18 -->
<g id="edge20" class="edge">
<title>Node15&#45;&gt;Node18</title>
<path fill="none" stroke="midnightblue" d="M1709.91,-121.33C1611.02,-122.08 1272.01,-121.08 984.58,-75.88"/>
<polygon fill="midnightblue" stroke="midnightblue" points="984.8,-72.37 974.37,-74.25 983.7,-79.28 984.8,-72.37"/>
</g>
<!-- Node19 -->
<g id="node19" class="node">
<title>Node19</title>
<g id="a_node19"><a xlink:title=" ">
<polygon fill="white" stroke="#bfbfbf" points="1806.24,-56.5 1806.24,-75.5 1850.24,-75.5 1850.24,-56.5 1806.24,-56.5"/>
<text text-anchor="middle" x="1828.24" y="-63.5" font-family="Helvetica,sans-Serif" font-size="10.00">cfloat</text>
</a>
</g>
</g>
<!-- Node15&#45;&gt;Node19 -->
<g id="edge22" class="edge">
<title>Node15&#45;&gt;Node19</title>
<path fill="none" stroke="midnightblue" d="M1752.7,-112.32C1766.74,-103.9 1788.29,-90.97 1804.79,-81.07"/>
<polygon fill="midnightblue" stroke="midnightblue" points="1807.05,-83.8 1813.82,-75.65 1803.44,-77.8 1807.05,-83.8"/>
</g>
<!-- Node20 -->
<g id="node20" class="node">
<title>Node20</title>
<g id="a_node20"><a xlink:title=" ">
<polygon fill="white" stroke="#bfbfbf" points="1394.74,-0.5 1394.74,-19.5 1441.74,-19.5 1441.74,-0.5 1394.74,-0.5"/>
<text text-anchor="middle" x="1418.24" y="-7.5" font-family="Helvetica,sans-Serif" font-size="10.00">vector</text>
</a>
</g>
</g>
<!-- Node15&#45;&gt;Node20 -->
<g id="edge23" class="edge">
<title>Node15&#45;&gt;Node20</title>
<path fill="none" stroke="midnightblue" d="M1710.04,-118.7C1667.03,-114.44 1583.13,-103.15 1517.24,-76 1486.58,-63.36 1455.26,-40.85 1436.28,-25.92"/>
<polygon fill="midnightblue" stroke="midnightblue" points="1438.46,-23.18 1428.47,-19.65 1434.08,-28.64 1438.46,-23.18"/>
</g>
<!-- Node21 -->
<g id="node21" class="node">
<title>Node21</title>
<g id="a_node21"><a xlink:title=" ">
<polygon fill="white" stroke="#bfbfbf" points="1350.24,-56.5 1350.24,-75.5 1394.24,-75.5 1394.24,-56.5 1350.24,-56.5"/>
<text text-anchor="middle" x="1372.24" y="-63.5" font-family="Helvetica,sans-Serif" font-size="10.00">SDL.h</text>
</a>
</g>
</g>
<!-- Node15&#45;&gt;Node21 -->
<g id="edge25" class="edge">
<title>Node15&#45;&gt;Node21</title>
<path fill="none" stroke="midnightblue" d="M1709.82,-118.18C1652.48,-112.27 1518.96,-97.32 1408.24,-76 1407,-75.76 1405.73,-75.5 1404.45,-75.24"/>
<polygon fill="midnightblue" stroke="midnightblue" points="1405.16,-71.81 1394.63,-73 1403.6,-78.63 1405.16,-71.81"/>
</g>
<!-- Node22 -->
<g id="node22" class="node">
<title>Node22</title>
<g id="a_node22"><a xlink:title=" ">
<polygon fill="white" stroke="#bfbfbf" points="2815.24,-0.5 2815.24,-19.5 2863.24,-19.5 2863.24,-0.5 2815.24,-0.5"/>
<text text-anchor="middle" x="2839.24" y="-7.5" font-family="Helvetica,sans-Serif" font-size="10.00">mutex</text>
</a>
</g>
</g>
<!-- Node15&#45;&gt;Node22 -->
<g id="edge26" class="edge">
<title>Node15&#45;&gt;Node22</title>
<path fill="none" stroke="midnightblue" d="M1766.5,-120.75C1932.73,-119.15 2777.54,-109.42 2820.24,-76 2833.97,-65.26 2838.17,-45.17 2839.27,-30.15"/>
<polygon fill="midnightblue" stroke="midnightblue" points="2842.78,-30.01 2839.62,-19.9 2835.78,-29.77 2842.78,-30.01"/>
</g>
<!-- Node23 -->
<g id="node23" class="node">
<title>Node23</title>
<g id="a_node23"><a xlink:title=" ">
<polygon fill="white" stroke="#bfbfbf" points="1868.24,-56.5 1868.24,-75.5 1914.24,-75.5 1914.24,-56.5 1868.24,-56.5"/>
<text text-anchor="middle" x="1891.24" y="-63.5" font-family="Helvetica,sans-Serif" font-size="10.00">future</text>
</a>
</g>
</g>
<!-- Node15&#45;&gt;Node23 -->
<g id="edge27" class="edge">
<title>Node15&#45;&gt;Node23</title>
<path fill="none" stroke="midnightblue" d="M1762.49,-112.44C1788.42,-103.29 1829.69,-88.73 1858.49,-78.56"/>
<polygon fill="midnightblue" stroke="midnightblue" points="1859.85,-81.79 1868.12,-75.16 1857.52,-75.19 1859.85,-81.79"/>
</g>
<!-- Node24 -->
<g id="node24" class="node">
<title>Node24</title>
<g id="a_node24"><a xlink:title=" ">
<polygon fill="white" stroke="#bfbfbf" points="1932.24,-56.5 1932.24,-75.5 1982.24,-75.5 1982.24,-56.5 1932.24,-56.5"/>
<text text-anchor="middle" x="1957.24" y="-63.5" font-family="Helvetica,sans-Serif" font-size="10.00">fftw3.h</text>
</a>
</g>
</g>
<!-- Node15&#45;&gt;Node24 -->
<g id="edge29" class="edge">
<title>Node15&#45;&gt;Node24</title>
<path fill="none" stroke="midnightblue" d="M1766.5,-114.32C1800.97,-106.12 1861.29,-91.64 1922.23,-76.22"/>
<polygon fill="midnightblue" stroke="midnightblue" points="1923.18,-79.59 1932.01,-73.74 1921.45,-72.81 1923.18,-79.59"/>
</g>
<!-- Node25 -->
<g id="node25" class="node">
<title>Node25</title>
<g id="a_node25"><a xlink:title=" ">
<polygon fill="white" stroke="#bfbfbf" points="1603.24,-0.5 1603.24,-19.5 1653.24,-19.5 1653.24,-0.5 1603.24,-0.5"/>
<text text-anchor="middle" x="1628.24" y="-7.5" font-family="Helvetica,sans-Serif" font-size="10.00">chrono</text>
</a>
</g>
</g>
<!-- Node15&#45;&gt;Node25 -->
<g id="edge30" class="edge">
<title>Node15&#45;&gt;Node25</title>
<path fill="none" stroke="midnightblue" d="M1710,-116.19C1686.67,-110.66 1654.66,-99.17 1637.24,-76 1627.3,-62.78 1625.74,-43.65 1626.26,-29.56"/>
<polygon fill="midnightblue" stroke="midnightblue" points="1629.75,-29.79 1626.99,-19.56 1622.77,-29.27 1629.75,-29.79"/>
</g>
<!-- Node26 -->
<g id="node26" class="node">
<title>Node26</title>
<g id="a_node26"><a xlink:title=" ">
<polygon fill="white" stroke="#bfbfbf" points="1268.24,-56.5 1268.24,-75.5 1332.24,-75.5 1332.24,-56.5 1268.24,-56.5"/>
<text text-anchor="middle" x="1300.24" y="-63.5" font-family="Helvetica,sans-Serif" font-size="10.00">algorithm</text>
</a>
</g>
</g>
<!-- Node15&#45;&gt;Node26 -->
<g id="edge31" class="edge">
<title>Node15&#45;&gt;Node26</title>
<path fill="none" stroke="midnightblue" d="M1710.19,-118.82C1646.55,-113.67 1486.21,-99.49 1342.3,-76.02"/>
<polygon fill="midnightblue" stroke="midnightblue" points="1342.85,-72.56 1332.41,-74.39 1341.71,-79.47 1342.85,-72.56"/>
</g>
<!-- Node27 -->
<g id="node27" class="node">
<title>Node27</title>
<g id="a_node27"><a xlink:title=" ">
<polygon fill="white" stroke="#bfbfbf" points="2000.24,-56.5 2000.24,-75.5 2044.24,-75.5 2044.24,-56.5 2000.24,-56.5"/>
<text text-anchor="middle" x="2022.24" y="-63.5" font-family="Helvetica,sans-Serif" font-size="10.00">ctime</text>
</a>
</g>
</g>
<!-- Node15&#45;&gt;Node27 -->
<g id="edge32" class="edge">
<title>Node15&#45;&gt;Node27</title>
<path fill="none" stroke="midnightblue" d="M1766.52,-116.98C1811.75,-110.33 1903.31,-95.98 1989.97,-76.1"/>
<polygon fill="midnightblue" stroke="midnightblue" points="1991.02,-79.45 1999.97,-73.78 1989.43,-72.63 1991.02,-79.45"/>
</g>
<!-- Node28 -->
<g id="node28" class="node">
<title>Node28</title>
<g id="a_node28"><a xlink:href="../../d7/d50/BoundedThreadPool_8hpp.html" target="_top" xlink:title=" ">
<polygon fill="white" stroke="black" points="2550.74,-56.5 2550.74,-75.5 2685.74,-75.5 2685.74,-56.5 2550.74,-56.5"/>
<text text-anchor="middle" x="2618.24" y="-63.5" font-family="Helvetica,sans-Serif" font-size="10.00">BoundedThreadPool.hpp</text>
</a>
</g>
</g>
<!-- Node15&#45;&gt;Node28 -->
<g id="edge33" class="edge">
<title>Node15&#45;&gt;Node28</title>
<path fill="none" stroke="midnightblue" d="M1766.53,-119.26C1886.27,-111.92 2353.86,-83.22 2540.6,-71.76"/>
<polygon fill="midnightblue" stroke="midnightblue" points="2540.85,-75.26 2550.61,-71.15 2540.42,-68.27 2540.85,-75.26"/>
</g>
<!-- Node33 -->
<g id="node33" class="node">
<title>Node33</title>
<g id="a_node33"><a xlink:title=" ">
<polygon fill="white" stroke="#bfbfbf" points="1271.24,-0.5 1271.24,-19.5 1373.24,-19.5 1373.24,-0.5 1271.24,-0.5"/>
<text text-anchor="middle" x="1322.24" y="-7.5" font-family="Helvetica,sans-Serif" font-size="10.00">tinycolormap.hpp</text>
</a>
</g>
</g>
<!-- Node15&#45;&gt;Node33 -->
<g id="edge41" class="edge">
<title>Node15&#45;&gt;Node33</title>
<path fill="none" stroke="midnightblue" d="M1709.92,-118.99C1660.97,-114.9 1557.87,-103.53 1475.24,-76 1456.76,-69.84 1453.99,-64.03 1436.24,-56 1409.56,-43.93 1378.62,-31.83 1355.71,-23.22"/>
<polygon fill="midnightblue" stroke="midnightblue" points="1356.7,-19.86 1346.11,-19.64 1354.25,-26.41 1356.7,-19.86"/>
</g>
<!-- Node34 -->
<g id="node34" class="node">
<title>Node34</title>
<g id="a_node34"><a xlink:title=" ">
<polygon fill="white" stroke="#bfbfbf" points="992.24,-56.5 992.24,-75.5 1052.24,-75.5 1052.24,-56.5 992.24,-56.5"/>
<text text-anchor="middle" x="1022.24" y="-63.5" font-family="Helvetica,sans-Serif" font-size="10.00">fft2d.hpp</text>
</a>
</g>
</g>
<!-- Node15&#45;&gt;Node34 -->
<g id="edge42" class="edge">
<title>Node15&#45;&gt;Node34</title>
<path fill="none" stroke="midnightblue" d="M1709.94,-120.47C1617.2,-118.44 1314.22,-109.51 1066.24,-76 1064.98,-75.83 1063.7,-75.64 1062.42,-75.45"/>
<polygon fill="midnightblue" stroke="midnightblue" points="1062.9,-71.98 1052.45,-73.74 1061.71,-78.88 1062.9,-71.98"/>
</g>
<!-- Node35 -->
<g id="node35" class="node">
<title>Node35</title>
<g id="a_node35"><a xlink:href="../../d0/d3c/SocketConnector_8h.html" target="_top" xlink:title=" ">
<polygon fill="white" stroke="red" points="2703.74,-56.5 2703.74,-75.5 2810.74,-75.5 2810.74,-56.5 2703.74,-56.5"/>
<text text-anchor="middle" x="2757.24" y="-63.5" font-family="Helvetica,sans-Serif" font-size="10.00">SocketConnector.h</text>
</a>
</g>
</g>
<!-- Node15&#45;&gt;Node35 -->
<g id="edge43" class="edge">
<title>Node15&#45;&gt;Node35</title>
<path fill="none" stroke="midnightblue" d="M1766.5,-120.67C1880.94,-119.14 2321.28,-111.22 2693.36,-76.09"/>
<polygon fill="midnightblue" stroke="midnightblue" points="2693.89,-79.56 2703.51,-75.13 2693.23,-72.59 2693.89,-79.56"/>
</g>
<!-- Node39 -->
<g id="node37" class="node">
<title>Node39</title>
<g id="a_node37"><a xlink:href="../../da/dce/ProgressMonitor_8h.html" target="_top" xlink:title=" ">
<polygon fill="white" stroke="red" points="1646.24,-56.5 1646.24,-75.5 1750.24,-75.5 1750.24,-56.5 1646.24,-56.5"/>
<text text-anchor="middle" x="1698.24" y="-63.5" font-family="Helvetica,sans-Serif" font-size="10.00">ProgressMonitor.h</text>
</a>
</g>
</g>
<!-- Node15&#45;&gt;Node39 -->
<g id="edge48" class="edge">
<title>Node15&#45;&gt;Node39</title>
<path fill="none" stroke="midnightblue" d="M1731.64,-112.08C1725.99,-104.46 1717.7,-93.26 1710.79,-83.94"/>
<polygon fill="midnightblue" stroke="midnightblue" points="1713.49,-81.7 1704.73,-75.75 1707.87,-85.87 1713.49,-81.7"/>
</g>
<!-- Node42 -->
<g id="node38" class="node">
<title>Node42</title>
<g id="a_node38"><a xlink:title=" ">
<polygon fill="white" stroke="#bfbfbf" points="2062.24,-56.5 2062.24,-75.5 2162.24,-75.5 2162.24,-56.5 2062.24,-56.5"/>
<text text-anchor="middle" x="2112.24" y="-63.5" font-family="Helvetica,sans-Serif" font-size="10.00">MerlinInterface.h</text>
</a>
</g>
</g>
<!-- Node15&#45;&gt;Node42 -->
<g id="edge53" class="edge">
<title>Node15&#45;&gt;Node42</title>
<path fill="none" stroke="midnightblue" d="M1766.49,-117.06C1820.03,-109.56 1940.18,-92.65 2051.94,-76.18"/>
<polygon fill="midnightblue" stroke="midnightblue" points="2052.65,-79.61 2062.04,-74.69 2051.63,-72.69 2052.65,-79.61"/>
</g>
<!-- Node43 -->
<g id="node39" class="node">
<title>Node43</title>
<g id="a_node39"><a xlink:title=" ">
<polygon fill="white" stroke="#bfbfbf" points="2180.24,-56.5 2180.24,-75.5 2290.24,-75.5 2290.24,-56.5 2180.24,-56.5"/>
<text text-anchor="middle" x="2235.24" y="-63.5" font-family="Helvetica,sans-Serif" font-size="10.00">CheetahInterface.h</text>
</a>
</g>
</g>
<!-- Node15&#45;&gt;Node43 -->
<g id="edge54" class="edge">
<title>Node15&#45;&gt;Node43</title>
<path fill="none" stroke="midnightblue" d="M1766.4,-118.43C1834.05,-112.18 2011.3,-95.35 2170.15,-76.1"/>
<polygon fill="midnightblue" stroke="midnightblue" points="2170.6,-79.57 2180.1,-74.88 2169.75,-72.62 2170.6,-79.57"/>
</g>
<!-- Node44 -->
<g id="node40" class="node">
<title>Node44</title>
<g id="a_node40"><a xlink:title=" ">
<polygon fill="white" stroke="#bfbfbf" points="2308.74,-56.5 2308.74,-75.5 2417.74,-75.5 2417.74,-56.5 2308.74,-56.5"/>
<text text-anchor="middle" x="2363.24" y="-63.5" font-family="Helvetica,sans-Serif" font-size="10.00">TimepixInterface.h</text>
</a>
</g>
</g>
<!-- Node15&#45;&gt;Node44 -->
<g id="edge55" class="edge">
<title>Node15&#45;&gt;Node44</title>
<path fill="none" stroke="midnightblue" d="M1766.32,-119.34C1847.16,-114.44 2087.62,-98.99 2298.44,-76.02"/>
<polygon fill="midnightblue" stroke="midnightblue" points="2298.9,-79.49 2308.46,-74.92 2298.14,-72.54 2298.9,-79.49"/>
</g>
<!-- Node15&#45;&gt;Node45 -->
<g id="edge56" class="edge">
<title>Node15&#45;&gt;Node45</title>
<path fill="none" stroke="midnightblue" d="M1710.12,-112.56C1679.52,-103.38 1630.43,-88.66 1596.38,-78.44"/>
<polygon fill="midnightblue" stroke="midnightblue" points="1597.35,-75.08 1586.77,-75.56 1595.34,-81.78 1597.35,-75.08"/>
</g>
<!-- Node15&#45;&gt;Node48 -->
<g id="edge61" class="edge">
<title>Node15&#45;&gt;Node48</title>
<path fill="none" stroke="midnightblue" d="M1709.85,-118.43C1613.56,-109.72 1299.05,-81.27 1183.94,-70.86"/>
<polygon fill="midnightblue" stroke="midnightblue" points="1184.03,-67.36 1173.76,-69.94 1183.4,-74.33 1184.03,-67.36"/>
</g>
<!-- Node28&#45;&gt;Node3 -->
<g id="edge34" class="edge">
<title>Node28&#45;&gt;Node3</title>
<path fill="none" stroke="midnightblue" d="M2587.03,-56.44C2551.13,-46.6 2492.39,-30.5 2455.32,-20.34"/>
<polygon fill="midnightblue" stroke="midnightblue" points="2456.05,-16.91 2445.48,-17.64 2454.2,-23.66 2456.05,-16.91"/>
</g>
<!-- Node28&#45;&gt;Node4 -->
<g id="edge40" class="edge">
<title>Node28&#45;&gt;Node4</title>
<path fill="none" stroke="midnightblue" d="M2598.44,-56.44C2577.96,-47.6 2545.76,-33.69 2522.38,-23.59"/>
<polygon fill="midnightblue" stroke="midnightblue" points="2523.53,-20.27 2512.96,-19.52 2520.75,-26.7 2523.53,-20.27"/>
</g>
<!-- Node28&#45;&gt;Node22 -->
<g id="edge37" class="edge">
<title>Node28&#45;&gt;Node22</title>
<path fill="none" stroke="midnightblue" d="M2655.43,-56.46C2691.34,-48.14 2747.5,-34.9 2805.11,-20.23"/>
<polygon fill="midnightblue" stroke="midnightblue" points="2806.3,-23.54 2815.12,-17.67 2804.56,-16.76 2806.3,-23.54"/>
</g>
<!-- Node29 -->
<g id="node29" class="node">
<title>Node29</title>
<g id="a_node29"><a xlink:title=" ">
<polygon fill="white" stroke="#bfbfbf" points="2666.74,-0.5 2666.74,-19.5 2713.74,-19.5 2713.74,-0.5 2666.74,-0.5"/>
<text text-anchor="middle" x="2690.24" y="-7.5" font-family="Helvetica,sans-Serif" font-size="10.00">queue</text>
</a>
</g>
</g>
<!-- Node28&#45;&gt;Node29 -->
<g id="edge35" class="edge">
<title>Node28&#45;&gt;Node29</title>
<path fill="none" stroke="midnightblue" d="M2629.81,-56.32C2640.66,-48.18 2657.12,-35.84 2670.13,-26.09"/>
<polygon fill="midnightblue" stroke="midnightblue" points="2672.57,-28.63 2678.47,-19.83 2668.37,-23.03 2672.57,-28.63"/>
</g>
<!-- Node30 -->
<g id="node30" class="node">
<title>Node30</title>
<g id="a_node30"><a xlink:title=" ">
<polygon fill="white" stroke="#bfbfbf" points="2731.74,-0.5 2731.74,-19.5 2796.74,-19.5 2796.74,-0.5 2731.74,-0.5"/>
<text text-anchor="middle" x="2764.24" y="-7.5" font-family="Helvetica,sans-Serif" font-size="10.00">functional</text>
</a>
</g>
</g>
<!-- Node28&#45;&gt;Node30 -->
<g id="edge36" class="edge">
<title>Node28&#45;&gt;Node30</title>
<path fill="none" stroke="midnightblue" d="M2641.38,-56.44C2665.73,-47.44 2704.25,-33.19 2731.67,-23.05"/>
<polygon fill="midnightblue" stroke="midnightblue" points="2733.05,-26.27 2741.22,-19.52 2730.62,-19.7 2733.05,-26.27"/>
</g>
<!-- Node31 -->
<g id="node31" class="node">
<title>Node31</title>
<g id="a_node31"><a xlink:title=" ">
<polygon fill="white" stroke="#bfbfbf" points="2541.74,-0.5 2541.74,-19.5 2648.74,-19.5 2648.74,-0.5 2541.74,-0.5"/>
<text text-anchor="middle" x="2595.24" y="-7.5" font-family="Helvetica,sans-Serif" font-size="10.00">condition_variable</text>
</a>
</g>
</g>
<!-- Node28&#45;&gt;Node31 -->
<g id="edge38" class="edge">
<title>Node28&#45;&gt;Node31</title>
<path fill="none" stroke="midnightblue" d="M2614.45,-56.08C2611.33,-48.77 2606.82,-38.18 2602.95,-29.1"/>
<polygon fill="midnightblue" stroke="midnightblue" points="2606.11,-27.58 2598.97,-19.75 2599.67,-30.32 2606.11,-27.58"/>
</g>
<!-- Node32 -->
<g id="node32" class="node">
<title>Node32</title>
<g id="a_node32"><a xlink:title=" ">
<polygon fill="white" stroke="#bfbfbf" points="1673.24,-0.5 1673.24,-19.5 1723.24,-19.5 1723.24,-0.5 1673.24,-0.5"/>
<text text-anchor="middle" x="1698.24" y="-7.5" font-family="Helvetica,sans-Serif" font-size="10.00">atomic</text>
</a>
</g>
</g>
<!-- Node28&#45;&gt;Node32 -->
<g id="edge39" class="edge">
<title>Node28&#45;&gt;Node32</title>
<path fill="none" stroke="midnightblue" d="M2550.45,-61.82C2351.41,-52.45 1780.18,-25.27 1740.24,-20 1738.02,-19.71 1735.74,-19.36 1733.45,-18.97"/>
<polygon fill="midnightblue" stroke="midnightblue" points="1733.92,-15.5 1723.45,-17.08 1732.63,-22.38 1733.92,-15.5"/>
</g>
<!-- Node35&#45;&gt;Node2 -->
<g id="edge46" class="edge">
<title>Node35&#45;&gt;Node2</title>
<path fill="none" stroke="midnightblue" d="M2703.52,-56.79C2700.73,-56.49 2697.95,-56.22 2695.24,-56 1907.09,8.93 1703.32,-96.95 916.24,-20 910.17,-19.41 903.73,-18.49 897.54,-17.47"/>
<polygon fill="midnightblue" stroke="midnightblue" points="897.94,-13.99 887.48,-15.69 896.72,-20.88 897.94,-13.99"/>
</g>
<!-- Node35&#45;&gt;Node4 -->
<g id="edge47" class="edge">
<title>Node35&#45;&gt;Node4</title>
<path fill="none" stroke="midnightblue" d="M2712.98,-56.42C2667.75,-47.58 2595.51,-33.26 2533.24,-20 2533.14,-19.98 2533.04,-19.96 2532.94,-19.94"/>
<polygon fill="midnightblue" stroke="midnightblue" points="2533.88,-16.56 2523.37,-17.86 2532.4,-23.4 2533.88,-16.56"/>
</g>
<!-- Node35&#45;&gt;Node16 -->
<g id="edge45" class="edge">
<title>Node35&#45;&gt;Node16</title>
<path fill="none" stroke="midnightblue" d="M2796.97,-56.44C2835.86,-48.02 2897.03,-34.61 2959.02,-20.25"/>
<polygon fill="midnightblue" stroke="midnightblue" points="2960.03,-23.61 2968.98,-17.94 2958.44,-16.79 2960.03,-23.61"/>
</g>
<!-- Node36 -->
<g id="node36" class="node">
<title>Node36</title>
<g id="a_node36"><a xlink:title=" ">
<polygon fill="white" stroke="#bfbfbf" points="2881.74,-0.5 2881.74,-19.5 2950.74,-19.5 2950.74,-0.5 2881.74,-0.5"/>
<text text-anchor="middle" x="2916.24" y="-7.5" font-family="Helvetica,sans-Serif" font-size="10.00">arpa/inet.h</text>
</a>
</g>
</g>
<!-- Node35&#45;&gt;Node36 -->
<g id="edge44" class="edge">
<title>Node35&#45;&gt;Node36</title>
<path fill="none" stroke="midnightblue" d="M2782.44,-56.44C2809.19,-47.36 2851.65,-32.94 2881.55,-22.78"/>
<polygon fill="midnightblue" stroke="midnightblue" points="2882.82,-26.05 2891.17,-19.52 2880.57,-19.42 2882.82,-26.05"/>
</g>
<!-- Node39&#45;&gt;Node4 -->
<g id="edge49" class="edge">
<title>Node39&#45;&gt;Node4</title>
<path fill="none" stroke="midnightblue" d="M1750.37,-59.91C1765.48,-58.53 1782.01,-57.11 1797.24,-56 2085.63,-35 2162.97,-60.45 2453.14,-19.9"/>
<polygon fill="midnightblue" stroke="midnightblue" points="2453.69,-23.36 2463.11,-18.49 2452.72,-16.43 2453.69,-23.36"/>
</g>
<!-- Node39&#45;&gt;Node17 -->
<g id="edge52" class="edge">
<title>Node39&#45;&gt;Node17</title>
<path fill="none" stroke="midnightblue" d="M1710.13,-56.32C1721.39,-48.11 1738.53,-35.6 1751.95,-25.81"/>
<polygon fill="midnightblue" stroke="midnightblue" points="1754.12,-28.56 1760.14,-19.83 1750,-22.9 1754.12,-28.56"/>
</g>
<!-- Node39&#45;&gt;Node25 -->
<g id="edge51" class="edge">
<title>Node39&#45;&gt;Node25</title>
<path fill="none" stroke="midnightblue" d="M1687,-56.32C1676.45,-48.18 1660.44,-35.84 1647.8,-26.09"/>
<polygon fill="midnightblue" stroke="midnightblue" points="1649.75,-23.17 1639.7,-19.83 1645.48,-28.71 1649.75,-23.17"/>
</g>
<!-- Node39&#45;&gt;Node32 -->
<g id="edge50" class="edge">
<title>Node39&#45;&gt;Node32</title>
<path fill="none" stroke="midnightblue" d="M1698.24,-56.08C1698.24,-49.01 1698.24,-38.86 1698.24,-29.99"/>
<polygon fill="midnightblue" stroke="midnightblue" points="1701.74,-29.75 1698.24,-19.75 1694.74,-29.75 1701.74,-29.75"/>
</g>
<!-- Node45&#45;&gt;Node20 -->
<g id="edge57" class="edge">
<title>Node45&#45;&gt;Node20</title>
<path fill="none" stroke="midnightblue" d="M1536.06,-56.44C1512.82,-47.48 1476.1,-33.31 1449.83,-23.18"/>
<polygon fill="midnightblue" stroke="midnightblue" points="1450.91,-19.85 1440.32,-19.52 1448.39,-26.38 1450.91,-19.85"/>
</g>
<!-- Node45&#45;&gt;Node32 -->
<g id="edge58" class="edge">
<title>Node45&#45;&gt;Node32</title>
<path fill="none" stroke="midnightblue" d="M1580.43,-56.44C1603.67,-47.48 1640.39,-33.31 1666.66,-23.18"/>
<polygon fill="midnightblue" stroke="midnightblue" points="1668.09,-26.38 1676.16,-19.52 1665.57,-19.85 1668.09,-26.38"/>
</g>
<!-- Node46 -->
<g id="node42" class="node">
<title>Node46</title>
<g id="a_node42"><a xlink:title=" ">
<polygon fill="white" stroke="#bfbfbf" points="1539.24,-0.5 1539.24,-19.5 1581.24,-19.5 1581.24,-0.5 1539.24,-0.5"/>
<text text-anchor="middle" x="1560.24" y="-7.5" font-family="Helvetica,sans-Serif" font-size="10.00">array</text>
</a>
</g>
</g>
<!-- Node45&#45;&gt;Node46 -->
<g id="edge59" class="edge">
<title>Node45&#45;&gt;Node46</title>
<path fill="none" stroke="midnightblue" d="M1558.57,-56.08C1558.84,-49.01 1559.21,-38.86 1559.54,-29.99"/>
<polygon fill="midnightblue" stroke="midnightblue" points="1563.05,-29.87 1559.92,-19.75 1556.05,-29.61 1563.05,-29.87"/>
</g>
<!-- Node47 -->
<g id="node43" class="node">
<title>Node47</title>
<g id="a_node43"><a xlink:title=" ">
<polygon fill="white" stroke="#bfbfbf" points="1467.74,-0.5 1467.74,-19.5 1520.74,-19.5 1520.74,-0.5 1467.74,-0.5"/>
<text text-anchor="middle" x="1494.24" y="-7.5" font-family="Helvetica,sans-Serif" font-size="10.00">stdlib.h</text>
</a>
</g>
</g>
<!-- Node45&#45;&gt;Node47 -->
<g id="edge60" class="edge">
<title>Node45&#45;&gt;Node47</title>
<path fill="none" stroke="midnightblue" d="M1547.96,-56.32C1538.41,-48.26 1523.96,-36.08 1512.46,-26.37"/>
<polygon fill="midnightblue" stroke="midnightblue" points="1514.61,-23.61 1504.71,-19.83 1510.1,-28.96 1514.61,-23.61"/>
</g>
<!-- Node48&#45;&gt;Node2 -->
<g id="edge62" class="edge">
<title>Node48&#45;&gt;Node2</title>
<path fill="none" stroke="midnightblue" d="M1108.5,-58.59C1055.22,-48.17 950.41,-27.66 897.47,-17.3"/>
<polygon fill="midnightblue" stroke="midnightblue" points="898.09,-13.86 887.6,-15.37 896.74,-20.73 898.09,-13.86"/>
</g>
<!-- Node48&#45;&gt;Node5 -->
<g id="edge64" class="edge">
<title>Node48&#45;&gt;Node5</title>
<path fill="none" stroke="midnightblue" d="M1154.42,-56.32C1167.09,-47.98 1186.48,-35.21 1201.45,-25.35"/>
<polygon fill="midnightblue" stroke="midnightblue" points="1203.68,-28.08 1210.1,-19.65 1199.83,-22.23 1203.68,-28.08"/>
</g>
<!-- Node48&#45;&gt;Node7 -->
<g id="edge67" class="edge">
<title>Node48&#45;&gt;Node7</title>
<path fill="none" stroke="midnightblue" d="M1108.59,-60.95C1094.1,-59.25 1076.84,-57.36 1061.24,-56 795.49,-32.89 474.38,-17.43 367.12,-12.61"/>
<polygon fill="midnightblue" stroke="midnightblue" points="366.98,-9.1 356.83,-12.15 366.67,-16.09 366.98,-9.1"/>
</g>
<!-- Node48&#45;&gt;Node11 -->
<g id="edge68" class="edge">
<title>Node48&#45;&gt;Node11</title>
<path fill="none" stroke="midnightblue" d="M1108.42,-60.4C1043.13,-51.24 896.24,-30.64 814.29,-19.14"/>
<polygon fill="midnightblue" stroke="midnightblue" points="814.77,-15.68 804.38,-17.75 813.8,-22.61 814.77,-15.68"/>
</g>
<!-- Node48&#45;&gt;Node20 -->
<g id="edge63" class="edge">
<title>Node48&#45;&gt;Node20</title>
<path fill="none" stroke="midnightblue" d="M1174.11,-59.51C1220.62,-51.6 1308.22,-36.15 1382.24,-20 1383.13,-19.81 1384.02,-19.61 1384.92,-19.41"/>
<polygon fill="midnightblue" stroke="midnightblue" points="1385.74,-22.81 1394.67,-17.11 1384.13,-16 1385.74,-22.81"/>
</g>
<!-- Node48&#45;&gt;Node33 -->
<g id="edge70" class="edge">
<title>Node48&#45;&gt;Node33</title>
<path fill="none" stroke="midnightblue" d="M1169.92,-56.44C1200.77,-47.24 1249.97,-32.56 1284.07,-22.39"/>
<polygon fill="midnightblue" stroke="midnightblue" points="1285.12,-25.73 1293.7,-19.52 1283.11,-19.02 1285.12,-25.73"/>
</g>
<!-- Node49 -->
<g id="node45" class="node">
<title>Node49</title>
<g id="a_node45"><a xlink:title=" ">
<polygon fill="white" stroke="#bfbfbf" points="1107.24,-0.5 1107.24,-19.5 1175.24,-19.5 1175.24,-0.5 1107.24,-0.5"/>
<text text-anchor="middle" x="1141.24" y="-7.5" font-family="Helvetica,sans-Serif" font-size="10.00">filesystem</text>
</a>
</g>
</g>
<!-- Node48&#45;&gt;Node49 -->
<g id="edge65" class="edge">
<title>Node48&#45;&gt;Node49</title>
<path fill="none" stroke="midnightblue" d="M1141.24,-56.08C1141.24,-49.01 1141.24,-38.86 1141.24,-29.99"/>
<polygon fill="midnightblue" stroke="midnightblue" points="1144.74,-29.75 1141.24,-19.75 1137.74,-29.75 1144.74,-29.75"/>
</g>
<!-- Node50 -->
<g id="node46" class="node">
<title>Node50</title>
<g id="a_node46"><a xlink:title=" ">
<polygon fill="white" stroke="#bfbfbf" points="925.24,-0.5 925.24,-19.5 1005.24,-19.5 1005.24,-0.5 925.24,-0.5"/>
<text text-anchor="middle" x="965.24" y="-7.5" font-family="Helvetica,sans-Serif" font-size="10.00">SDL_image.h</text>
</a>
</g>
</g>
<!-- Node48&#45;&gt;Node50 -->
<g id="edge66" class="edge">
<title>Node48&#45;&gt;Node50</title>
<path fill="none" stroke="midnightblue" d="M1113.36,-56.44C1083.49,-47.28 1035.93,-32.69 1002.79,-22.52"/>
<polygon fill="midnightblue" stroke="midnightblue" points="1003.59,-19.1 993,-19.52 1001.53,-25.8 1003.59,-19.1"/>
</g>
<!-- Node51 -->
<g id="node47" class="node">
<title>Node51</title>
<g id="a_node47"><a xlink:title=" ">
<polygon fill="white" stroke="#bfbfbf" points="1023.24,-0.5 1023.24,-19.5 1089.24,-19.5 1089.24,-0.5 1023.24,-0.5"/>
<text text-anchor="middle" x="1056.24" y="-7.5" font-family="Helvetica,sans-Serif" font-size="10.00">libnpy.hpp</text>
</a>
</g>
</g>
<!-- Node48&#45;&gt;Node51 -->
<g id="edge69" class="edge">
<title>Node48&#45;&gt;Node51</title>
<path fill="none" stroke="midnightblue" d="M1127.59,-56.32C1114.33,-47.9 1093.98,-34.97 1078.4,-25.07"/>
<polygon fill="midnightblue" stroke="midnightblue" points="1080.18,-22.06 1069.87,-19.65 1076.43,-27.97 1080.18,-22.06"/>
</g>
<!-- Node53&#45;&gt;Node2 -->
<g id="edge76" class="edge">
<title>Node53&#45;&gt;Node2</title>
<path fill="none" stroke="midnightblue" d="M823.8,-112.24C816.57,-99.42 805.67,-75 814.24,-56 819.86,-43.56 830.81,-33.17 841.12,-25.53"/>
<polygon fill="midnightblue" stroke="midnightblue" points="843.25,-28.31 849.51,-19.76 839.29,-22.54 843.25,-28.31"/>
</g>
<!-- Node53&#45;&gt;Node7 -->
<g id="edge83" class="edge">
<title>Node53&#45;&gt;Node7</title>
<path fill="none" stroke="midnightblue" d="M815.85,-112.34C792.97,-98.02 744.43,-69.61 699.24,-56 581.34,-20.5 434.22,-12.92 366.92,-11.36"/>
<polygon fill="midnightblue" stroke="midnightblue" points="366.89,-7.86 356.82,-11.16 366.75,-14.86 366.89,-7.86"/>
</g>
<!-- Node53&#45;&gt;Node8 -->
<g id="edge84" class="edge">
<title>Node53&#45;&gt;Node8</title>
<path fill="none" stroke="midnightblue" d="M767.11,-116.46C676.16,-109.55 501.25,-95.27 342.38,-76.07"/>
<polygon fill="midnightblue" stroke="midnightblue" points="342.78,-72.6 332.43,-74.86 341.93,-79.55 342.78,-72.6"/>
</g>
<!-- Node53&#45;&gt;Node9 -->
<g id="edge85" class="edge">
<title>Node53&#45;&gt;Node9</title>
<path fill="none" stroke="midnightblue" d="M766.96,-112.92C691.76,-103.15 565.47,-86.76 485.9,-76.43"/>
<polygon fill="midnightblue" stroke="midnightblue" points="486.32,-72.96 475.95,-75.14 485.42,-79.9 486.32,-72.96"/>
</g>
<!-- Node53&#45;&gt;Node10 -->
<g id="edge86" class="edge">
<title>Node53&#45;&gt;Node10</title>
<path fill="none" stroke="midnightblue" d="M782.98,-112.44C730.59,-102.76 645.41,-87 590.35,-76.82"/>
<polygon fill="midnightblue" stroke="midnightblue" points="590.91,-73.37 580.44,-74.99 589.64,-80.25 590.91,-73.37"/>
</g>
<!-- Node53&#45;&gt;Node11 -->
<g id="edge87" class="edge">
<title>Node53&#45;&gt;Node11</title>
<path fill="none" stroke="midnightblue" d="M823.52,-112.37C811.47,-94.22 783.32,-51.8 767.52,-27.99"/>
<polygon fill="midnightblue" stroke="midnightblue" points="770.39,-25.99 761.95,-19.59 764.56,-29.86 770.39,-25.99"/>
</g>
<!-- Node53&#45;&gt;Node12 -->
<g id="edge88" class="edge">
<title>Node53&#45;&gt;Node12</title>
<path fill="none" stroke="midnightblue" d="M799.93,-112.44C768.4,-103.24 718.11,-88.56 683.26,-78.39"/>
<polygon fill="midnightblue" stroke="midnightblue" points="684,-74.96 673.42,-75.52 682.04,-81.68 684,-74.96"/>
</g>
<!-- Node53&#45;&gt;Node18 -->
<g id="edge77" class="edge">
<title>Node53&#45;&gt;Node18</title>
<path fill="none" stroke="midnightblue" d="M848.26,-112.44C867.83,-103.64 898.55,-89.81 920.97,-79.72"/>
<polygon fill="midnightblue" stroke="midnightblue" points="922.64,-82.81 930.32,-75.52 919.76,-76.43 922.64,-82.81"/>
</g>
<!-- Node53&#45;&gt;Node20 -->
<g id="edge75" class="edge">
<title>Node53&#45;&gt;Node20</title>
<path fill="none" stroke="midnightblue" d="M891.28,-120.04C968.93,-117.44 1105.31,-108.18 1217.24,-76 1237.11,-70.29 1239.89,-63.29 1259.24,-56 1282.21,-47.35 1345.51,-30.16 1384.96,-19.71"/>
<polygon fill="midnightblue" stroke="midnightblue" points="1385.91,-23.08 1394.68,-17.14 1384.12,-16.31 1385.91,-23.08"/>
</g>
<!-- Node53&#45;&gt;Node21 -->
<g id="edge79" class="edge">
<title>Node53&#45;&gt;Node21</title>
<path fill="none" stroke="midnightblue" d="M891.24,-119.44C986.18,-116.2 1173.25,-106.45 1340.07,-75.87"/>
<polygon fill="midnightblue" stroke="midnightblue" points="1340.83,-79.29 1350.02,-74.02 1339.55,-72.41 1340.83,-79.29"/>
</g>
<!-- Node53&#45;&gt;Node26 -->
<g id="edge78" class="edge">
<title>Node53&#45;&gt;Node26</title>
<path fill="none" stroke="midnightblue" d="M891.4,-116.14C974.39,-109.25 1125.84,-95.32 1254.24,-76 1255.51,-75.81 1256.8,-75.61 1258.09,-75.4"/>
<polygon fill="midnightblue" stroke="midnightblue" points="1258.88,-78.81 1268.14,-73.65 1257.68,-71.92 1258.88,-78.81"/>
</g>
<!-- Node53&#45;&gt;Node33 -->
<g id="edge81" class="edge">
<title>Node53&#45;&gt;Node33</title>
<path fill="none" stroke="midnightblue" d="M891.5,-118.92C963.14,-115.19 1083.72,-104.83 1183.24,-76 1183.97,-75.79 1254.27,-42.86 1294.6,-23.96"/>
<polygon fill="midnightblue" stroke="midnightblue" points="1296.34,-27.01 1303.91,-19.6 1293.37,-20.67 1296.34,-27.01"/>
</g>
<!-- Node53&#45;&gt;Node34 -->
<g id="edge82" class="edge">
<title>Node53&#45;&gt;Node34</title>
<path fill="none" stroke="midnightblue" d="M859.83,-112.44C892.96,-103.17 945.94,-88.35 982.33,-78.17"/>
<polygon fill="midnightblue" stroke="midnightblue" points="983.44,-81.49 992.12,-75.43 981.55,-74.75 983.44,-81.49"/>
</g>
<!-- Node53&#45;&gt;Node48 -->
<g id="edge89" class="edge">
<title>Node53&#45;&gt;Node48</title>
<path fill="none" stroke="midnightblue" d="M878.68,-112.44C939.18,-101.97 1040.63,-84.41 1098.11,-74.47"/>
<polygon fill="midnightblue" stroke="midnightblue" points="1099.05,-77.85 1108.31,-72.7 1097.86,-70.96 1099.05,-77.85"/>
</g>
<!-- Node54 -->
<g id="node50" class="node">
<title>Node54</title>
<g id="a_node50"><a xlink:title=" ">
<polygon fill="white" stroke="#bfbfbf" points="822.74,-56.5 822.74,-75.5 905.74,-75.5 905.74,-56.5 822.74,-56.5"/>
<text text-anchor="middle" x="864.24" y="-63.5" font-family="Helvetica,sans-Serif" font-size="10.00">SDL_opengl.h</text>
</a>
</g>
</g>
<!-- Node53&#45;&gt;Node54 -->
<g id="edge80" class="edge">
<title>Node53&#45;&gt;Node54</title>
<path fill="none" stroke="midnightblue" d="M835.02,-112.08C839.92,-104.53 847.07,-93.49 853.08,-84.23"/>
<polygon fill="midnightblue" stroke="midnightblue" points="856.07,-86.05 858.57,-75.75 850.2,-82.24 856.07,-86.05"/>
</g>
</g>
</svg>
