<?xml version="1.0" encoding="UTF-8" standalone="no"?>
<!DOCTYPE svg PUBLIC "-//W3C//DTD SVG 1.1//EN"
 "http://www.w3.org/Graphics/SVG/1.1/DTD/svg11.dtd">
<!-- Generated by graphviz version 2.43.0 (0)
 -->
<!-- Title: src/RunGUI.cpp Pages: 1 -->
<svg width="2887pt" height="196pt"
 viewBox="0.00 0.00 2886.55 196.00" xmlns="http://www.w3.org/2000/svg" xmlns:xlink="http://www.w3.org/1999/xlink">
<g id="graph0" class="graph" transform="scale(1 1) rotate(0) translate(4 192)">
<title>src/RunGUI.cpp</title>
<polygon fill="white" stroke="transparent" points="-4,4 -4,-192 2882.55,-192 2882.55,4 -4,4"/>
<!-- Node1 -->
<g id="node1" class="node">
<title>Node1</title>
<g id="a_node1"><a xlink:title=" ">
<polygon fill="#bfbfbf" stroke="black" points="597.05,-168.5 597.05,-187.5 688.05,-187.5 688.05,-168.5 597.05,-168.5"/>
<text text-anchor="middle" x="642.55" y="-175.5" font-family="Helvetica,sans-Serif" font-size="10.00">src/RunGUI.cpp</text>
</a>
</g>
</g>
<!-- Node2 -->
<g id="node2" class="node">
<title>Node2</title>
<g id="a_node2"><a xlink:title=" ">
<polygon fill="white" stroke="#bfbfbf" points="768.55,-0.5 768.55,-19.5 812.55,-19.5 812.55,-0.5 768.55,-0.5"/>
<text text-anchor="middle" x="790.55" y="-7.5" font-family="Helvetica,sans-Serif" font-size="10.00">string</text>
</a>
</g>
</g>
<!-- Node1&#45;&gt;Node2 -->
<g id="edge1" class="edge">
<title>Node1&#45;&gt;Node2</title>
<path fill="none" stroke="midnightblue" d="M596.7,-171.77C476.97,-157.22 167.71,-113.55 221.55,-56 260.79,-14.04 665.28,-29.03 758.17,-19.44"/>
<polygon fill="midnightblue" stroke="midnightblue" points="758.89,-22.88 768.33,-18.07 757.95,-15.94 758.89,-22.88"/>
</g>
<!-- Node3 -->
<g id="node3" class="node">
<title>Node3</title>
<g id="a_node3"><a xlink:title=" ">
<polygon fill="white" stroke="#bfbfbf" points="2655.55,-0.5 2655.55,-19.5 2703.55,-19.5 2703.55,-0.5 2655.55,-0.5"/>
<text text-anchor="middle" x="2679.55" y="-7.5" font-family="Helvetica,sans-Serif" font-size="10.00">thread</text>
</a>
</g>
</g>
<!-- Node1&#45;&gt;Node3 -->
<g id="edge2" class="edge">
<title>Node1&#45;&gt;Node3</title>
<path fill="none" stroke="midnightblue" d="M688.13,-176.69C922.43,-174.98 1993.15,-165.42 2323.55,-132 2465.89,-117.6 2522.68,-157.09 2640.55,-76 2656.77,-64.84 2667.36,-44.51 2673.35,-29.55"/>
<polygon fill="midnightblue" stroke="midnightblue" points="2676.76,-30.4 2676.92,-19.81 2670.19,-28 2676.76,-30.4"/>
</g>
<!-- Node4 -->
<g id="node4" class="node">
<title>Node4</title>
<g id="a_node4"><a xlink:title=" ">
<polygon fill="white" stroke="#bfbfbf" points="2350.55,-0.5 2350.55,-19.5 2410.55,-19.5 2410.55,-0.5 2350.55,-0.5"/>
<text text-anchor="middle" x="2380.55" y="-7.5" font-family="Helvetica,sans-Serif" font-size="10.00">iostream</text>
</a>
</g>
</g>
<!-- Node1&#45;&gt;Node4 -->
<g id="edge3" class="edge">
<title>Node1&#45;&gt;Node4</title>
<path fill="none" stroke="midnightblue" d="M688.49,-176.43C978.36,-172.61 2543.74,-148.64 2611.55,-76 2655.97,-28.41 2720.54,-82 2420.55,-20 2420.45,-19.98 2420.35,-19.96 2420.25,-19.94"/>
<polygon fill="midnightblue" stroke="midnightblue" points="2421.17,-16.56 2410.66,-17.89 2419.71,-23.4 2421.17,-16.56"/>
</g>
<!-- Node5 -->
<g id="node5" class="node">
<title>Node5</title>
<g id="a_node5"><a xlink:title=" ">
<polygon fill="white" stroke="#bfbfbf" points="1390.05,-0.5 1390.05,-19.5 1449.05,-19.5 1449.05,-0.5 1390.05,-0.5"/>
<text text-anchor="middle" x="1419.55" y="-7.5" font-family="Helvetica,sans-Serif" font-size="10.00">complex</text>
</a>
</g>
</g>
<!-- Node1&#45;&gt;Node5 -->
<g id="edge4" class="edge">
<title>Node1&#45;&gt;Node5</title>
<path fill="none" stroke="midnightblue" d="M688.12,-174.74C827.32,-167.18 1244.68,-139.65 1362.55,-76 1382.89,-65.02 1399.39,-43.72 1409.3,-28.49"/>
<polygon fill="midnightblue" stroke="midnightblue" points="1412.31,-30.29 1414.6,-19.95 1406.36,-26.6 1412.31,-30.29"/>
</g>
<!-- Node6 -->
<g id="node6" class="node">
<title>Node6</title>
<g id="a_node6"><a xlink:title=" ">
<polygon fill="white" stroke="#bfbfbf" points="2772.55,-112.5 2772.55,-131.5 2810.55,-131.5 2810.55,-112.5 2772.55,-112.5"/>
<text text-anchor="middle" x="2791.55" y="-119.5" font-family="Helvetica,sans-Serif" font-size="10.00">map</text>
</a>
</g>
</g>
<!-- Node1&#45;&gt;Node6 -->
<g id="edge5" class="edge">
<title>Node1&#45;&gt;Node6</title>
<path fill="none" stroke="midnightblue" d="M688.35,-176.7C977.77,-174.71 2547.4,-162.56 2758.55,-132 2759.84,-131.81 2761.15,-131.59 2762.47,-131.35"/>
<polygon fill="midnightblue" stroke="midnightblue" points="2763.55,-134.69 2772.52,-129.04 2761.99,-127.86 2763.55,-134.69"/>
</g>
<!-- Node7 -->
<g id="node7" class="node">
<title>Node7</title>
<g id="a_node7"><a xlink:title=" ">
<polygon fill="white" stroke="#bfbfbf" points="321.05,-0.5 321.05,-19.5 374.05,-19.5 374.05,-0.5 321.05,-0.5"/>
<text text-anchor="middle" x="347.55" y="-7.5" font-family="Helvetica,sans-Serif" font-size="10.00">imgui.h</text>
</a>
</g>
</g>
<!-- Node1&#45;&gt;Node7 -->
<g id="edge6" class="edge">
<title>Node1&#45;&gt;Node7</title>
<path fill="none" stroke="midnightblue" d="M596.88,-176.39C463.09,-174.23 78.57,-165.18 33.55,-132 5.24,-111.14 -11.61,-82.46 11.55,-56 50.04,-12.01 231.12,-9.19 310.32,-10.14"/>
<polygon fill="midnightblue" stroke="midnightblue" points="310.74,-13.65 320.79,-10.29 310.84,-6.65 310.74,-13.65"/>
</g>
<!-- Node8 -->
<g id="node8" class="node">
<title>Node8</title>
<g id="a_node8"><a xlink:title=" ">
<polygon fill="white" stroke="#bfbfbf" points="230.55,-56.5 230.55,-75.5 330.55,-75.5 330.55,-56.5 230.55,-56.5"/>
<text text-anchor="middle" x="280.55" y="-63.5" font-family="Helvetica,sans-Serif" font-size="10.00">imgui_impl_sdl.h</text>
</a>
</g>
</g>
<!-- Node1&#45;&gt;Node8 -->
<g id="edge7" class="edge">
<title>Node1&#45;&gt;Node8</title>
<path fill="none" stroke="midnightblue" d="M614.44,-168.46C550.03,-148.89 391.67,-100.77 318.61,-78.57"/>
<polygon fill="midnightblue" stroke="midnightblue" points="319.47,-75.17 308.88,-75.61 317.43,-81.87 319.47,-75.17"/>
</g>
<!-- Node9 -->
<g id="node9" class="node">
<title>Node9</title>
<g id="a_node9"><a xlink:title=" ">
<polygon fill="white" stroke="#bfbfbf" points="349.05,-56.5 349.05,-75.5 474.05,-75.5 474.05,-56.5 349.05,-56.5"/>
<text text-anchor="middle" x="411.55" y="-63.5" font-family="Helvetica,sans-Serif" font-size="10.00">imgui_impl_opengl3.h</text>
</a>
</g>
</g>
<!-- Node1&#45;&gt;Node9 -->
<g id="edge8" class="edge">
<title>Node1&#45;&gt;Node9</title>
<path fill="none" stroke="midnightblue" d="M624.42,-168.37C584.02,-149.13 486.41,-102.65 438.7,-79.93"/>
<polygon fill="midnightblue" stroke="midnightblue" points="440.12,-76.73 429.59,-75.59 437.11,-83.05 440.12,-76.73"/>
</g>
<!-- Node10 -->
<g id="node10" class="node">
<title>Node10</title>
<g id="a_node10"><a xlink:title=" ">
<polygon fill="white" stroke="#bfbfbf" points="492.55,-56.5 492.55,-75.5 578.55,-75.5 578.55,-56.5 492.55,-56.5"/>
<text text-anchor="middle" x="535.55" y="-63.5" font-family="Helvetica,sans-Serif" font-size="10.00">imgui_stdlib.h</text>
</a>
</g>
</g>
<!-- Node1&#45;&gt;Node10 -->
<g id="edge9" class="edge">
<title>Node1&#45;&gt;Node10</title>
<path fill="none" stroke="midnightblue" d="M634.15,-168.37C616.26,-149.97 574.14,-106.67 551.16,-83.05"/>
<polygon fill="midnightblue" stroke="midnightblue" points="553.39,-80.32 543.9,-75.59 548.37,-85.2 553.39,-80.32"/>
</g>
<!-- Node11 -->
<g id="node11" class="node">
<title>Node11</title>
<g id="a_node11"><a xlink:title=" ">
<polygon fill="white" stroke="#bfbfbf" points="654.55,-0.5 654.55,-19.5 750.55,-19.5 750.55,-0.5 654.55,-0.5"/>
<text text-anchor="middle" x="702.55" y="-7.5" font-family="Helvetica,sans-Serif" font-size="10.00">imgui_internal.h</text>
</a>
</g>
</g>
<!-- Node1&#45;&gt;Node11 -->
<g id="edge10" class="edge">
<title>Node1&#45;&gt;Node11</title>
<path fill="none" stroke="midnightblue" d="M596.91,-175.88C487.19,-172.71 215.63,-161.9 188.55,-132 165.87,-106.97 165.73,-80.9 188.55,-56 218.85,-22.92 516.47,-14.06 644.49,-11.77"/>
<polygon fill="midnightblue" stroke="midnightblue" points="644.57,-15.27 654.51,-11.59 644.45,-8.27 644.57,-15.27"/>
</g>
<!-- Node12 -->
<g id="node12" class="node">
<title>Node12</title>
<g id="a_node12"><a xlink:title=" ">
<polygon fill="white" stroke="#bfbfbf" points="596.55,-56.5 596.55,-75.5 688.55,-75.5 688.55,-56.5 596.55,-56.5"/>
<text text-anchor="middle" x="642.55" y="-63.5" font-family="Helvetica,sans-Serif" font-size="10.00">imfilebrowser.h</text>
</a>
</g>
</g>
<!-- Node1&#45;&gt;Node12 -->
<g id="edge11" class="edge">
<title>Node1&#45;&gt;Node12</title>
<path fill="none" stroke="midnightblue" d="M642.55,-168.37C642.55,-150.62 642.55,-109.67 642.55,-85.6"/>
<polygon fill="midnightblue" stroke="midnightblue" points="646.05,-85.59 642.55,-75.59 639.05,-85.59 646.05,-85.59"/>
</g>
<!-- Node13 -->
<g id="node13" class="node">
<title>Node13</title>
<g id="a_node13"><a xlink:title=" ">
<polygon fill="white" stroke="#bfbfbf" points="20.55,-56.5 20.55,-75.5 58.55,-75.5 58.55,-56.5 20.55,-56.5"/>
<text text-anchor="middle" x="39.55" y="-63.5" font-family="Helvetica,sans-Serif" font-size="10.00">ini.h</text>
</a>
</g>
</g>
<!-- Node1&#45;&gt;Node13 -->
<g id="edge12" class="edge">
<title>Node1&#45;&gt;Node13</title>
<path fill="none" stroke="midnightblue" d="M596.58,-176.81C463.86,-175.8 86.99,-169.63 47.55,-132 35.35,-120.37 34.6,-100.42 36.12,-85.68"/>
<polygon fill="midnightblue" stroke="midnightblue" points="39.61,-86.05 37.58,-75.65 32.68,-85.04 39.61,-86.05"/>
</g>
<!-- Node14 -->
<g id="node14" class="node">
<title>Node14</title>
<g id="a_node14"><a xlink:href="../../de/ded/ImGuiINI_8hpp.html" target="_top" xlink:title=" ">
<polygon fill="white" stroke="black" points="56.55,-112.5 56.55,-131.5 136.55,-131.5 136.55,-112.5 56.55,-112.5"/>
<text text-anchor="middle" x="96.55" y="-119.5" font-family="Helvetica,sans-Serif" font-size="10.00">ImGuiINI.hpp</text>
</a>
</g>
</g>
<!-- Node1&#45;&gt;Node14 -->
<g id="edge13" class="edge">
<title>Node1&#45;&gt;Node14</title>
<path fill="none" stroke="midnightblue" d="M596.98,-173.96C509.98,-167.92 314.31,-153.11 150.55,-132 149.27,-131.84 147.99,-131.66 146.69,-131.49"/>
<polygon fill="midnightblue" stroke="midnightblue" points="147,-128 136.6,-130.01 145.99,-134.92 147,-128"/>
</g>
<!-- Node15 -->
<g id="node15" class="node">
<title>Node15</title>
<g id="a_node15"><a xlink:href="../../de/dfc/Ricom_8h.html" target="_top" xlink:title=" ">
<polygon fill="white" stroke="black" points="1734.55,-112.5 1734.55,-131.5 1790.55,-131.5 1790.55,-112.5 1734.55,-112.5"/>
<text text-anchor="middle" x="1762.55" y="-119.5" font-family="Helvetica,sans-Serif" font-size="10.00">Ricom.h</text>
</a>
</g>
</g>
<!-- Node1&#45;&gt;Node15 -->
<g id="edge17" class="edge">
<title>Node1&#45;&gt;Node15</title>
<path fill="none" stroke="midnightblue" d="M688.19,-174.8C871.82,-165.95 1554.9,-133.01 1724.33,-124.84"/>
<polygon fill="midnightblue" stroke="midnightblue" points="1724.69,-128.33 1734.51,-124.35 1724.35,-121.34 1724.69,-128.33"/>
</g>
<!-- Node45 -->
<g id="node44" class="node">
<title>Node45</title>
<g id="a_node44"><a xlink:href="../../d7/db2/GuiUtils_8h.html" target="_top" xlink:title=" ">
<polygon fill="white" stroke="black" points="922.05,-56.5 922.05,-75.5 987.05,-75.5 987.05,-56.5 922.05,-56.5"/>
<text text-anchor="middle" x="954.55" y="-63.5" font-family="Helvetica,sans-Serif" font-size="10.00">GuiUtils.h</text>
</a>
</g>
</g>
<!-- Node1&#45;&gt;Node45 -->
<g id="edge71" class="edge">
<title>Node1&#45;&gt;Node45</title>
<path fill="none" stroke="midnightblue" d="M688.43,-175.6C738.3,-172.48 819.21,-162.64 881.55,-132 905.45,-120.25 927.48,-98.48 940.95,-83.39"/>
<polygon fill="midnightblue" stroke="midnightblue" points="943.62,-85.65 947.51,-75.8 938.32,-81.08 943.62,-85.65"/>
</g>
<!-- Node49 -->
<g id="node48" class="node">
<title>Node49</title>
<g id="a_node48"><a xlink:title=" ">
<polygon fill="white" stroke="#bfbfbf" points="2828.55,-112.5 2828.55,-131.5 2878.55,-131.5 2878.55,-112.5 2828.55,-112.5"/>
<text text-anchor="middle" x="2853.55" y="-119.5" font-family="Helvetica,sans-Serif" font-size="10.00">fonts.h</text>
</a>
</g>
</g>
<!-- Node1&#45;&gt;Node49 -->
<g id="edge70" class="edge">
<title>Node1&#45;&gt;Node49</title>
<path fill="none" stroke="midnightblue" d="M688.24,-176.71C978.18,-174.78 2557.8,-162.95 2818.36,-131.67"/>
<polygon fill="midnightblue" stroke="midnightblue" points="2818.97,-135.12 2828.43,-130.36 2818.06,-128.18 2818.97,-135.12"/>
</g>
<!-- Node50 -->
<g id="node49" class="node">
<title>Node50</title>
<g id="a_node49"><a xlink:href="../../d4/d6e/ImGuiImageWindow_8h.html" target="_top" xlink:title=" ">
<polygon fill="white" stroke="black" points="748.55,-112.5 748.55,-131.5 872.55,-131.5 872.55,-112.5 748.55,-112.5"/>
<text text-anchor="middle" x="810.55" y="-119.5" font-family="Helvetica,sans-Serif" font-size="10.00">ImGuiImageWindow.h</text>
</a>
</g>
</g>
<!-- Node1&#45;&gt;Node50 -->
<g id="edge72" class="edge">
<title>Node1&#45;&gt;Node50</title>
<path fill="none" stroke="midnightblue" d="M669.17,-168.44C697.55,-159.32 742.68,-144.81 774.3,-134.65"/>
<polygon fill="midnightblue" stroke="midnightblue" points="775.6,-137.91 784.05,-131.52 773.46,-131.24 775.6,-137.91"/>
</g>
<!-- Node14&#45;&gt;Node2 -->
<g id="edge16" class="edge">
<title>Node14&#45;&gt;Node2</title>
<path fill="none" stroke="midnightblue" d="M105.23,-112.27C120.51,-97.55 153.87,-68.23 188.55,-56 305.52,-14.75 618.51,-40.52 758.18,-19.73"/>
<polygon fill="midnightblue" stroke="midnightblue" points="759.02,-23.14 768.33,-18.08 757.9,-16.23 759.02,-23.14"/>
</g>
<!-- Node14&#45;&gt;Node7 -->
<g id="edge14" class="edge">
<title>Node14&#45;&gt;Node7</title>
<path fill="none" stroke="midnightblue" d="M95.96,-112.42C95.53,-98.45 96.87,-70.88 112.55,-56 140.61,-29.36 252.3,-17.66 311.03,-13.27"/>
<polygon fill="midnightblue" stroke="midnightblue" points="311.28,-16.76 321,-12.55 310.78,-9.77 311.28,-16.76"/>
</g>
<!-- Node14&#45;&gt;Node13 -->
<g id="edge15" class="edge">
<title>Node14&#45;&gt;Node13</title>
<path fill="none" stroke="midnightblue" d="M87.39,-112.32C79.05,-104.42 66.51,-92.55 56.37,-82.94"/>
<polygon fill="midnightblue" stroke="midnightblue" points="58.54,-80.17 48.87,-75.83 53.72,-85.25 58.54,-80.17"/>
</g>
<!-- Node15&#45;&gt;Node2 -->
<g id="edge24" class="edge">
<title>Node15&#45;&gt;Node2</title>
<path fill="none" stroke="midnightblue" d="M1734.49,-121.52C1671.84,-121.83 1516.56,-117.91 1395.55,-76 1379.34,-70.39 1378.9,-61.16 1362.55,-56 1135.88,15.52 1060.91,-59.72 822.76,-19.8"/>
<polygon fill="midnightblue" stroke="midnightblue" points="823.21,-16.33 812.76,-18.07 822.02,-23.22 823.21,-16.33"/>
</g>
<!-- Node15&#45;&gt;Node3 -->
<g id="edge28" class="edge">
<title>Node15&#45;&gt;Node3</title>
<path fill="none" stroke="midnightblue" d="M1790.95,-120.93C1932.06,-120.38 2553.9,-115.72 2629.55,-76 2648.99,-65.79 2663.15,-44.3 2671.34,-28.81"/>
<polygon fill="midnightblue" stroke="midnightblue" points="2674.56,-30.2 2675.85,-19.69 2668.28,-27.1 2674.56,-30.2"/>
</g>
<!-- Node15&#45;&gt;Node5 -->
<g id="edge21" class="edge">
<title>Node15&#45;&gt;Node5</title>
<path fill="none" stroke="midnightblue" d="M1756.93,-112.11C1747.32,-97.69 1726.22,-69.5 1700.55,-56 1659.35,-34.35 1526.57,-20.19 1459.34,-14.22"/>
<polygon fill="midnightblue" stroke="midnightblue" points="1459.4,-10.72 1449.14,-13.34 1458.8,-17.69 1459.4,-10.72"/>
</g>
<!-- Node16 -->
<g id="node16" class="node">
<title>Node16</title>
<g id="a_node16"><a xlink:title=" ">
<polygon fill="white" stroke="#bfbfbf" points="2581.55,-0.5 2581.55,-19.5 2637.55,-19.5 2637.55,-0.5 2581.55,-0.5"/>
<text text-anchor="middle" x="2609.55" y="-7.5" font-family="Helvetica,sans-Serif" font-size="10.00">unistd.h</text>
</a>
</g>
</g>
<!-- Node15&#45;&gt;Node16 -->
<g id="edge18" class="edge">
<title>Node15&#45;&gt;Node16</title>
<path fill="none" stroke="midnightblue" d="M1790.7,-120.58C1934.63,-118.32 2582.66,-106.46 2611.55,-76 2623.06,-63.86 2620.57,-43.99 2616.44,-29.41"/>
<polygon fill="midnightblue" stroke="midnightblue" points="2619.62,-27.9 2613.15,-19.5 2612.98,-30.1 2619.62,-27.9"/>
</g>
<!-- Node17 -->
<g id="node17" class="node">
<title>Node17</title>
<g id="a_node17"><a xlink:title=" ">
<polygon fill="white" stroke="#bfbfbf" points="1725.05,-0.5 1725.05,-19.5 1772.05,-19.5 1772.05,-0.5 1725.05,-0.5"/>
<text text-anchor="middle" x="1748.55" y="-7.5" font-family="Helvetica,sans-Serif" font-size="10.00">cmath</text>
</a>
</g>
</g>
<!-- Node15&#45;&gt;Node17 -->
<g id="edge19" class="edge">
<title>Node15&#45;&gt;Node17</title>
<path fill="none" stroke="midnightblue" d="M1767.02,-112.5C1773.01,-100 1782.25,-75.98 1776.55,-56 1773.64,-45.84 1767.72,-35.75 1762.06,-27.7"/>
<polygon fill="midnightblue" stroke="midnightblue" points="1764.77,-25.48 1755.96,-19.59 1759.17,-29.69 1764.77,-25.48"/>
</g>
<!-- Node18 -->
<g id="node18" class="node">
<title>Node18</title>
<g id="a_node18"><a xlink:title=" ">
<polygon fill="white" stroke="#bfbfbf" points="1163.55,-56.5 1163.55,-75.5 1213.55,-75.5 1213.55,-56.5 1163.55,-56.5"/>
<text text-anchor="middle" x="1188.55" y="-63.5" font-family="Helvetica,sans-Serif" font-size="10.00">stdio.h</text>
</a>
</g>
</g>
<!-- Node15&#45;&gt;Node18 -->
<g id="edge20" class="edge">
<title>Node15&#45;&gt;Node18</title>
<path fill="none" stroke="midnightblue" d="M1734.51,-120.4C1655.51,-118.33 1424.38,-109.78 1223.82,-75.92"/>
<polygon fill="midnightblue" stroke="midnightblue" points="1224.14,-72.42 1213.69,-74.18 1222.95,-79.32 1224.14,-72.42"/>
</g>
<!-- Node19 -->
<g id="node19" class="node">
<title>Node19</title>
<g id="a_node19"><a xlink:title=" ">
<polygon fill="white" stroke="#bfbfbf" points="1950.55,-56.5 1950.55,-75.5 1994.55,-75.5 1994.55,-56.5 1950.55,-56.5"/>
<text text-anchor="middle" x="1972.55" y="-63.5" font-family="Helvetica,sans-Serif" font-size="10.00">cfloat</text>
</a>
</g>
</g>
<!-- Node15&#45;&gt;Node19 -->
<g id="edge22" class="edge">
<title>Node15&#45;&gt;Node19</title>
<path fill="none" stroke="midnightblue" d="M1790.84,-114.22C1824.33,-106.13 1882.01,-91.96 1940.46,-76.23"/>
<polygon fill="midnightblue" stroke="midnightblue" points="1941.48,-79.58 1950.22,-73.59 1939.66,-72.82 1941.48,-79.58"/>
</g>
<!-- Node20 -->
<g id="node20" class="node">
<title>Node20</title>
<g id="a_node20"><a xlink:title=" ">
<polygon fill="white" stroke="#bfbfbf" points="1219.05,-0.5 1219.05,-19.5 1266.05,-19.5 1266.05,-0.5 1219.05,-0.5"/>
<text text-anchor="middle" x="1242.55" y="-7.5" font-family="Helvetica,sans-Serif" font-size="10.00">vector</text>
</a>
</g>
</g>
<!-- Node15&#45;&gt;Node20 -->
<g id="edge23" class="edge">
<title>Node15&#45;&gt;Node20</title>
<path fill="none" stroke="midnightblue" d="M1750.49,-112.26C1727.02,-95.32 1676.69,-59.37 1667.55,-56 1631.13,-42.59 1370.45,-21.05 1276.33,-13.62"/>
<polygon fill="midnightblue" stroke="midnightblue" points="1276.46,-10.12 1266.21,-12.82 1275.91,-17.1 1276.46,-10.12"/>
</g>
<!-- Node21 -->
<g id="node21" class="node">
<title>Node21</title>
<g id="a_node21"><a xlink:title=" ">
<polygon fill="white" stroke="#bfbfbf" points="1231.55,-56.5 1231.55,-75.5 1275.55,-75.5 1275.55,-56.5 1231.55,-56.5"/>
<text text-anchor="middle" x="1253.55" y="-63.5" font-family="Helvetica,sans-Serif" font-size="10.00">SDL.h</text>
</a>
</g>
</g>
<!-- Node15&#45;&gt;Node21 -->
<g id="edge25" class="edge">
<title>Node15&#45;&gt;Node21</title>
<path fill="none" stroke="midnightblue" d="M1734.54,-120.21C1661.83,-117.76 1461.06,-108.52 1285.69,-75.87"/>
<polygon fill="midnightblue" stroke="midnightblue" points="1286.25,-72.42 1275.78,-74 1284.95,-79.3 1286.25,-72.42"/>
</g>
<!-- Node22 -->
<g id="node22" class="node">
<title>Node22</title>
<g id="a_node22"><a xlink:title=" ">
<polygon fill="white" stroke="#bfbfbf" points="2216.55,-0.5 2216.55,-19.5 2264.55,-19.5 2264.55,-0.5 2216.55,-0.5"/>
<text text-anchor="middle" x="2240.55" y="-7.5" font-family="Helvetica,sans-Serif" font-size="10.00">mutex</text>
</a>
</g>
</g>
<!-- Node15&#45;&gt;Node22 -->
<g id="edge26" class="edge">
<title>Node15&#45;&gt;Node22</title>
<path fill="none" stroke="midnightblue" d="M1790.55,-120.06C1885.08,-116.63 2188.3,-103.56 2221.55,-76 2234.96,-64.88 2239.21,-44.85 2240.41,-29.95"/>
<polygon fill="midnightblue" stroke="midnightblue" points="2243.92,-29.93 2240.84,-19.79 2236.92,-29.64 2243.92,-29.93"/>
</g>
<!-- Node23 -->
<g id="node23" class="node">
<title>Node23</title>
<g id="a_node23"><a xlink:title=" ">
<polygon fill="white" stroke="#bfbfbf" points="2012.55,-56.5 2012.55,-75.5 2058.55,-75.5 2058.55,-56.5 2012.55,-56.5"/>
<text text-anchor="middle" x="2035.55" y="-63.5" font-family="Helvetica,sans-Serif" font-size="10.00">future</text>
</a>
</g>
</g>
<!-- Node15&#45;&gt;Node23 -->
<g id="edge27" class="edge">
<title>Node15&#45;&gt;Node23</title>
<path fill="none" stroke="midnightblue" d="M1790.55,-116.61C1833.93,-109.62 1920.18,-95.02 2002.75,-76.02"/>
<polygon fill="midnightblue" stroke="midnightblue" points="2003.59,-79.41 2012.54,-73.74 2002.01,-72.6 2003.59,-79.41"/>
</g>
<!-- Node24 -->
<g id="node24" class="node">
<title>Node24</title>
<g id="a_node24"><a xlink:title=" ">
<polygon fill="white" stroke="#bfbfbf" points="2394.55,-56.5 2394.55,-75.5 2444.55,-75.5 2444.55,-56.5 2394.55,-56.5"/>
<text text-anchor="middle" x="2419.55" y="-63.5" font-family="Helvetica,sans-Serif" font-size="10.00">fftw3.h</text>
</a>
</g>
</g>
<!-- Node15&#45;&gt;Node24 -->
<g id="edge29" class="edge">
<title>Node15&#45;&gt;Node24</title>
<path fill="none" stroke="midnightblue" d="M1790.71,-120.83C1877.79,-119.92 2150.39,-114.12 2384.35,-75.88"/>
<polygon fill="midnightblue" stroke="midnightblue" points="2385.12,-79.3 2394.41,-74.21 2383.97,-72.4 2385.12,-79.3"/>
</g>
<!-- Node25 -->
<g id="node25" class="node">
<title>Node25</title>
<g id="a_node25"><a xlink:title=" ">
<polygon fill="white" stroke="#bfbfbf" points="1656.55,-0.5 1656.55,-19.5 1706.55,-19.5 1706.55,-0.5 1656.55,-0.5"/>
<text text-anchor="middle" x="1681.55" y="-7.5" font-family="Helvetica,sans-Serif" font-size="10.00">chrono</text>
</a>
</g>
</g>
<!-- Node15&#45;&gt;Node25 -->
<g id="edge30" class="edge">
<title>Node15&#45;&gt;Node25</title>
<path fill="none" stroke="midnightblue" d="M1760.91,-112.29C1758.11,-99.09 1751.41,-73.71 1738.55,-56 1729.66,-43.76 1716.59,-33.12 1705.21,-25.25"/>
<polygon fill="midnightblue" stroke="midnightblue" points="1706.83,-22.13 1696.55,-19.57 1702.99,-27.98 1706.83,-22.13"/>
</g>
<!-- Node26 -->
<g id="node26" class="node">
<title>Node26</title>
<g id="a_node26"><a xlink:title=" ">
<polygon fill="white" stroke="#bfbfbf" points="1081.55,-56.5 1081.55,-75.5 1145.55,-75.5 1145.55,-56.5 1081.55,-56.5"/>
<text text-anchor="middle" x="1113.55" y="-63.5" font-family="Helvetica,sans-Serif" font-size="10.00">algorithm</text>
</a>
</g>
</g>
<!-- Node15&#45;&gt;Node26 -->
<g id="edge31" class="edge">
<title>Node15&#45;&gt;Node26</title>
<path fill="none" stroke="midnightblue" d="M1734.52,-120.34C1649.1,-118.04 1384.49,-108.7 1155.87,-75.98"/>
<polygon fill="midnightblue" stroke="midnightblue" points="1156.09,-72.48 1145.7,-74.51 1155.09,-79.41 1156.09,-72.48"/>
</g>
<!-- Node27 -->
<g id="node27" class="node">
<title>Node27</title>
<g id="a_node27"><a xlink:title=" ">
<polygon fill="white" stroke="#bfbfbf" points="2462.55,-56.5 2462.55,-75.5 2506.55,-75.5 2506.55,-56.5 2462.55,-56.5"/>
<text text-anchor="middle" x="2484.55" y="-63.5" font-family="Helvetica,sans-Serif" font-size="10.00">ctime</text>
</a>
</g>
</g>
<!-- Node15&#45;&gt;Node27 -->
<g id="edge32" class="edge">
<title>Node15&#45;&gt;Node27</title>
<path fill="none" stroke="midnightblue" d="M1790.78,-121.35C1884.14,-122.04 2191.33,-120.68 2452.29,-75.83"/>
<polygon fill="midnightblue" stroke="midnightblue" points="2453.08,-79.24 2462.33,-74.08 2451.88,-72.35 2453.08,-79.24"/>
</g>
<!-- Node28 -->
<g id="node28" class="node">
<title>Node28</title>
<g id="a_node28"><a xlink:href="../../d7/d50/BoundedThreadPool_8hpp.html" target="_top" xlink:title=" ">
<polygon fill="white" stroke="black" points="2077.05,-56.5 2077.05,-75.5 2212.05,-75.5 2212.05,-56.5 2077.05,-56.5"/>
<text text-anchor="middle" x="2144.55" y="-63.5" font-family="Helvetica,sans-Serif" font-size="10.00">BoundedThreadPool.hpp</text>
</a>
</g>
</g>
<!-- Node15&#45;&gt;Node28 -->
<g id="edge33" class="edge">
<title>Node15&#45;&gt;Node28</title>
<path fill="none" stroke="midnightblue" d="M1790.64,-117.03C1849.83,-108.66 1988.92,-89 2074.04,-76.97"/>
<polygon fill="midnightblue" stroke="midnightblue" points="2074.73,-80.4 2084.14,-75.54 2073.75,-73.47 2074.73,-80.4"/>
</g>
<!-- Node33 -->
<g id="node33" class="node">
<title>Node33</title>
<g id="a_node33"><a xlink:title=" ">
<polygon fill="white" stroke="#bfbfbf" points="1098.55,-0.5 1098.55,-19.5 1200.55,-19.5 1200.55,-0.5 1098.55,-0.5"/>
<text text-anchor="middle" x="1149.55" y="-7.5" font-family="Helvetica,sans-Serif" font-size="10.00">tinycolormap.hpp</text>
</a>
</g>
</g>
<!-- Node15&#45;&gt;Node33 -->
<g id="edge41" class="edge">
<title>Node15&#45;&gt;Node33</title>
<path fill="none" stroke="midnightblue" d="M1734.5,-117.35C1683.24,-110.52 1571.11,-94.76 1477.55,-76 1440.77,-68.62 1432.23,-63.82 1395.55,-56 1332.78,-42.62 1260.48,-29.69 1210.58,-21.15"/>
<polygon fill="midnightblue" stroke="midnightblue" points="1211.05,-17.67 1200.6,-19.45 1209.87,-24.58 1211.05,-17.67"/>
</g>
<!-- Node34 -->
<g id="node34" class="node">
<title>Node34</title>
<g id="a_node34"><a xlink:title=" ">
<polygon fill="white" stroke="#bfbfbf" points="1293.55,-56.5 1293.55,-75.5 1353.55,-75.5 1353.55,-56.5 1293.55,-56.5"/>
<text text-anchor="middle" x="1323.55" y="-63.5" font-family="Helvetica,sans-Serif" font-size="10.00">fft2d.hpp</text>
</a>
</g>
</g>
<!-- Node15&#45;&gt;Node34 -->
<g id="edge42" class="edge">
<title>Node15&#45;&gt;Node34</title>
<path fill="none" stroke="midnightblue" d="M1734.17,-118.63C1669.1,-113.02 1504.22,-97.72 1367.55,-76 1366.29,-75.8 1365.02,-75.59 1363.73,-75.37"/>
<polygon fill="midnightblue" stroke="midnightblue" points="1364.25,-71.91 1353.78,-73.55 1362.99,-78.79 1364.25,-71.91"/>
</g>
<!-- Node35 -->
<g id="node35" class="node">
<title>Node35</title>
<g id="a_node35"><a xlink:href="../../d0/d3c/SocketConnector_8h.html" target="_top" xlink:title=" ">
<polygon fill="white" stroke="black" points="2269.05,-56.5 2269.05,-75.5 2376.05,-75.5 2376.05,-56.5 2269.05,-56.5"/>
<text text-anchor="middle" x="2322.55" y="-63.5" font-family="Helvetica,sans-Serif" font-size="10.00">SocketConnector.h</text>
</a>
</g>
</g>
<!-- Node15&#45;&gt;Node35 -->
<g id="edge43" class="edge">
<title>Node15&#45;&gt;Node35</title>
<path fill="none" stroke="midnightblue" d="M1790.6,-118.83C1865.83,-112.94 2078.31,-95.71 2254.55,-76 2255.84,-75.85 2257.16,-75.71 2258.48,-75.55"/>
<polygon fill="midnightblue" stroke="midnightblue" points="2259.24,-78.99 2268.75,-74.32 2258.4,-72.04 2259.24,-78.99"/>
</g>
<!-- Node39 -->
<g id="node39" class="node">
<title>Node39</title>
<g id="a_node39"><a xlink:href="../../da/dce/ProgressMonitor_8h.html" target="_top" xlink:title=" ">
<polygon fill="white" stroke="red" points="1828.55,-56.5 1828.55,-75.5 1932.55,-75.5 1932.55,-56.5 1828.55,-56.5"/>
<text text-anchor="middle" x="1880.55" y="-63.5" font-family="Helvetica,sans-Serif" font-size="10.00">ProgressMonitor.h</text>
</a>
</g>
</g>
<!-- Node15&#45;&gt;Node39 -->
<g id="edge50" class="edge">
<title>Node15&#45;&gt;Node39</title>
<path fill="none" stroke="midnightblue" d="M1781.24,-112.44C1800.49,-103.64 1830.7,-89.81 1852.75,-79.72"/>
<polygon fill="midnightblue" stroke="midnightblue" points="1854.3,-82.86 1861.94,-75.52 1851.39,-76.5 1854.3,-82.86"/>
</g>
<!-- Node42 -->
<g id="node41" class="node">
<title>Node42</title>
<g id="a_node41"><a xlink:title=" ">
<polygon fill="white" stroke="#bfbfbf" points="2524.55,-56.5 2524.55,-75.5 2602.55,-75.5 2602.55,-56.5 2524.55,-56.5"/>
<text text-anchor="middle" x="2563.55" y="-63.5" font-family="Helvetica,sans-Serif" font-size="10.00">Cheetah.hpp</text>
</a>
</g>
</g>
<!-- Node15&#45;&gt;Node42 -->
<g id="edge57" class="edge">
<title>Node15&#45;&gt;Node42</title>
<path fill="none" stroke="midnightblue" d="M1790.7,-120.59C1888.98,-118.9 2226.11,-110.84 2514.09,-76.02"/>
<polygon fill="midnightblue" stroke="midnightblue" points="2514.82,-79.46 2524.32,-74.77 2513.97,-72.51 2514.82,-79.46"/>
</g>
<!-- Node43 -->
<g id="node42" class="node">
<title>Node43</title>
<g id="a_node42"><a xlink:title=" ">
<polygon fill="white" stroke="#bfbfbf" points="1486.05,-56.5 1486.05,-75.5 1563.05,-75.5 1563.05,-56.5 1486.05,-56.5"/>
<text text-anchor="middle" x="1524.55" y="-63.5" font-family="Helvetica,sans-Serif" font-size="10.00">Timepix.hpp</text>
</a>
</g>
</g>
<!-- Node15&#45;&gt;Node43 -->
<g id="edge58" class="edge">
<title>Node15&#45;&gt;Node43</title>
<path fill="none" stroke="midnightblue" d="M1734.31,-114.59C1694.31,-105.52 1620.61,-88.8 1572.09,-77.79"/>
<polygon fill="midnightblue" stroke="midnightblue" points="1572.66,-74.33 1562.14,-75.53 1571.11,-81.15 1572.66,-74.33"/>
</g>
<!-- Node44 -->
<g id="node43" class="node">
<title>Node44</title>
<g id="a_node43"><a xlink:title=" ">
<polygon fill="white" stroke="#bfbfbf" points="1581.05,-56.5 1581.05,-75.5 1658.05,-75.5 1658.05,-56.5 1581.05,-56.5"/>
<text text-anchor="middle" x="1619.55" y="-63.5" font-family="Helvetica,sans-Serif" font-size="10.00">Advapix.hpp</text>
</a>
</g>
</g>
<!-- Node15&#45;&gt;Node44 -->
<g id="edge59" class="edge">
<title>Node15&#45;&gt;Node44</title>
<path fill="none" stroke="midnightblue" d="M1739.89,-112.44C1716.14,-103.48 1678.64,-89.31 1651.81,-79.18"/>
<polygon fill="midnightblue" stroke="midnightblue" points="1652.69,-75.77 1642.1,-75.52 1650.22,-82.32 1652.69,-75.77"/>
</g>
<!-- Node15&#45;&gt;Node45 -->
<g id="edge60" class="edge">
<title>Node15&#45;&gt;Node45</title>
<path fill="none" stroke="midnightblue" d="M1734.28,-119.27C1640.25,-113.48 1329.4,-94.17 1072.55,-76 1047.6,-74.24 1019.7,-72.11 997.29,-70.37"/>
<polygon fill="midnightblue" stroke="midnightblue" points="997.34,-66.87 987.1,-69.58 996.79,-73.85 997.34,-66.87"/>
</g>
<!-- Node28&#45;&gt;Node3 -->
<g id="edge34" class="edge">
<title>Node28&#45;&gt;Node3</title>
<path fill="none" stroke="midnightblue" d="M2212.25,-59.6C2332.45,-49.93 2576.26,-29.85 2645.33,-19.73"/>
<polygon fill="midnightblue" stroke="midnightblue" points="2646.2,-23.14 2655.51,-18.08 2645.08,-16.23 2646.2,-23.14"/>
</g>
<!-- Node28&#45;&gt;Node4 -->
<g id="edge40" class="edge">
<title>Node28&#45;&gt;Node4</title>
<path fill="none" stroke="midnightblue" d="M2181.95,-56.48C2219.57,-47.91 2279.51,-34.23 2340.52,-20.23"/>
<polygon fill="midnightblue" stroke="midnightblue" points="2341.35,-23.63 2350.31,-17.98 2339.78,-16.81 2341.35,-23.63"/>
</g>
<!-- Node28&#45;&gt;Node22 -->
<g id="edge37" class="edge">
<title>Node28&#45;&gt;Node22</title>
<path fill="none" stroke="midnightblue" d="M2159.97,-56.32C2175.09,-47.82 2198.36,-34.73 2216.02,-24.8"/>
<polygon fill="midnightblue" stroke="midnightblue" points="2218.16,-27.61 2225.16,-19.65 2214.73,-21.51 2218.16,-27.61"/>
</g>
<!-- Node29 -->
<g id="node29" class="node">
<title>Node29</title>
<g id="a_node29"><a xlink:title=" ">
<polygon fill="white" stroke="#bfbfbf" points="1943.05,-0.5 1943.05,-19.5 1990.05,-19.5 1990.05,-0.5 1943.05,-0.5"/>
<text text-anchor="middle" x="1966.55" y="-7.5" font-family="Helvetica,sans-Serif" font-size="10.00">queue</text>
</a>
</g>
</g>
<!-- Node28&#45;&gt;Node29 -->
<g id="edge35" class="edge">
<title>Node28&#45;&gt;Node29</title>
<path fill="none" stroke="midnightblue" d="M2116.34,-56.44C2084.72,-46.85 2033.47,-31.3 1999.89,-21.11"/>
<polygon fill="midnightblue" stroke="midnightblue" points="2000.66,-17.69 1990.07,-18.14 1998.63,-24.39 2000.66,-17.69"/>
</g>
<!-- Node30 -->
<g id="node30" class="node">
<title>Node30</title>
<g id="a_node30"><a xlink:title=" ">
<polygon fill="white" stroke="#bfbfbf" points="2008.05,-0.5 2008.05,-19.5 2073.05,-19.5 2073.05,-0.5 2008.05,-0.5"/>
<text text-anchor="middle" x="2040.55" y="-7.5" font-family="Helvetica,sans-Serif" font-size="10.00">functional</text>
</a>
</g>
</g>
<!-- Node28&#45;&gt;Node30 -->
<g id="edge36" class="edge">
<title>Node28&#45;&gt;Node30</title>
<path fill="none" stroke="midnightblue" d="M2127.84,-56.32C2111.23,-47.7 2085.54,-34.36 2066.33,-24.39"/>
<polygon fill="midnightblue" stroke="midnightblue" points="2067.7,-21.16 2057.21,-19.65 2064.48,-27.37 2067.7,-21.16"/>
</g>
<!-- Node31 -->
<g id="node31" class="node">
<title>Node31</title>
<g id="a_node31"><a xlink:title=" ">
<polygon fill="white" stroke="#bfbfbf" points="2091.05,-0.5 2091.05,-19.5 2198.05,-19.5 2198.05,-0.5 2091.05,-0.5"/>
<text text-anchor="middle" x="2144.55" y="-7.5" font-family="Helvetica,sans-Serif" font-size="10.00">condition_variable</text>
</a>
</g>
</g>
<!-- Node28&#45;&gt;Node31 -->
<g id="edge38" class="edge">
<title>Node28&#45;&gt;Node31</title>
<path fill="none" stroke="midnightblue" d="M2144.55,-56.08C2144.55,-49.01 2144.55,-38.86 2144.55,-29.99"/>
<polygon fill="midnightblue" stroke="midnightblue" points="2148.05,-29.75 2144.55,-19.75 2141.05,-29.75 2148.05,-29.75"/>
</g>
<!-- Node32 -->
<g id="node32" class="node">
<title>Node32</title>
<g id="a_node32"><a xlink:title=" ">
<polygon fill="white" stroke="#bfbfbf" points="1874.55,-0.5 1874.55,-19.5 1924.55,-19.5 1924.55,-0.5 1874.55,-0.5"/>
<text text-anchor="middle" x="1899.55" y="-7.5" font-family="Helvetica,sans-Serif" font-size="10.00">atomic</text>
</a>
</g>
</g>
<!-- Node28&#45;&gt;Node32 -->
<g id="edge39" class="edge">
<title>Node28&#45;&gt;Node32</title>
<path fill="none" stroke="midnightblue" d="M2102.2,-56.45C2059.71,-47.75 1992.43,-33.64 1934.55,-20 1934.45,-19.98 1934.35,-19.95 1934.25,-19.93"/>
<polygon fill="midnightblue" stroke="midnightblue" points="1935.3,-16.58 1924.75,-17.61 1933.64,-23.38 1935.3,-16.58"/>
</g>
<!-- Node35&#45;&gt;Node2 -->
<g id="edge48" class="edge">
<title>Node35&#45;&gt;Node2</title>
<path fill="none" stroke="midnightblue" d="M2268.87,-59.58C2253.59,-58.21 2236.93,-56.88 2221.55,-56 1914.18,-38.37 1145.81,-67.15 823.1,-19.76"/>
<polygon fill="midnightblue" stroke="midnightblue" points="823.16,-16.22 812.74,-18.18 822.11,-23.15 823.16,-16.22"/>
</g>
<!-- Node35&#45;&gt;Node4 -->
<g id="edge49" class="edge">
<title>Node35&#45;&gt;Node4</title>
<path fill="none" stroke="midnightblue" d="M2331.87,-56.32C2340.44,-48.34 2353.36,-36.31 2363.73,-26.65"/>
<polygon fill="midnightblue" stroke="midnightblue" points="2366.12,-29.21 2371.06,-19.83 2361.35,-24.09 2366.12,-29.21"/>
</g>
<!-- Node35&#45;&gt;Node16 -->
<g id="edge45" class="edge">
<title>Node35&#45;&gt;Node16</title>
<path fill="none" stroke="midnightblue" d="M2375.4,-56.44C2423.95,-48.36 2498.1,-35.49 2571.43,-20.14"/>
<polygon fill="midnightblue" stroke="midnightblue" points="2572.24,-23.54 2581.31,-18.06 2570.8,-16.7 2572.24,-23.54"/>
</g>
<!-- Node36 -->
<g id="node36" class="node">
<title>Node36</title>
<g id="a_node36"><a xlink:title=" ">
<polygon fill="white" stroke="#bfbfbf" points="2494.05,-0.5 2494.05,-19.5 2563.05,-19.5 2563.05,-0.5 2494.05,-0.5"/>
<text text-anchor="middle" x="2528.55" y="-7.5" font-family="Helvetica,sans-Serif" font-size="10.00">arpa/inet.h</text>
</a>
</g>
</g>
<!-- Node35&#45;&gt;Node36 -->
<g id="edge44" class="edge">
<title>Node35&#45;&gt;Node36</title>
<path fill="none" stroke="midnightblue" d="M2355.19,-56.44C2390.6,-47.16 2447.26,-32.31 2486.1,-22.13"/>
<polygon fill="midnightblue" stroke="midnightblue" points="2487.27,-25.44 2496.06,-19.52 2485.5,-18.67 2487.27,-25.44"/>
</g>
<!-- Node37 -->
<g id="node37" class="node">
<title>Node37</title>
<g id="a_node37"><a xlink:title=" ">
<polygon fill="white" stroke="#bfbfbf" points="2429.05,-0.5 2429.05,-19.5 2476.05,-19.5 2476.05,-0.5 2429.05,-0.5"/>
<text text-anchor="middle" x="2452.55" y="-7.5" font-family="Helvetica,sans-Serif" font-size="10.00">cerrno</text>
</a>
</g>
</g>
<!-- Node35&#45;&gt;Node37 -->
<g id="edge46" class="edge">
<title>Node35&#45;&gt;Node37</title>
<path fill="none" stroke="midnightblue" d="M2343.15,-56.44C2364.54,-47.56 2398.23,-33.56 2422.57,-23.45"/>
<polygon fill="midnightblue" stroke="midnightblue" points="2424.15,-26.58 2432.04,-19.52 2421.47,-20.12 2424.15,-26.58"/>
</g>
<!-- Node38 -->
<g id="node38" class="node">
<title>Node38</title>
<g id="a_node38"><a xlink:title=" ">
<polygon fill="white" stroke="#bfbfbf" points="2282.55,-0.5 2282.55,-19.5 2332.55,-19.5 2332.55,-0.5 2282.55,-0.5"/>
<text text-anchor="middle" x="2307.55" y="-7.5" font-family="Helvetica,sans-Serif" font-size="10.00">cstring</text>
</a>
</g>
</g>
<!-- Node35&#45;&gt;Node38 -->
<g id="edge47" class="edge">
<title>Node35&#45;&gt;Node38</title>
<path fill="none" stroke="midnightblue" d="M2320.07,-56.08C2318.06,-48.85 2315.16,-38.41 2312.66,-29.4"/>
<polygon fill="midnightblue" stroke="midnightblue" points="2316.03,-28.45 2309.98,-19.75 2309.28,-30.32 2316.03,-28.45"/>
</g>
<!-- Node39&#45;&gt;Node4 -->
<g id="edge52" class="edge">
<title>Node39&#45;&gt;Node4</title>
<path fill="none" stroke="midnightblue" d="M1932.76,-57.1C1935.73,-56.71 1938.68,-56.34 1941.55,-56 2115.6,-35.34 2163.56,-47.67 2340.49,-19.96"/>
<polygon fill="midnightblue" stroke="midnightblue" points="2341.07,-23.41 2350.39,-18.39 2339.97,-16.5 2341.07,-23.41"/>
</g>
<!-- Node39&#45;&gt;Node17 -->
<g id="edge56" class="edge">
<title>Node39&#45;&gt;Node17</title>
<path fill="none" stroke="midnightblue" d="M1859.63,-56.44C1837.81,-47.52 1803.4,-33.44 1778.65,-23.32"/>
<polygon fill="midnightblue" stroke="midnightblue" points="1779.95,-20.06 1769.36,-19.52 1777.29,-26.54 1779.95,-20.06"/>
</g>
<!-- Node39&#45;&gt;Node25 -->
<g id="edge55" class="edge">
<title>Node39&#45;&gt;Node25</title>
<path fill="none" stroke="midnightblue" d="M1849.01,-56.44C1812.95,-46.66 1754.07,-30.68 1716.6,-20.51"/>
<polygon fill="midnightblue" stroke="midnightblue" points="1717.2,-17.05 1706.63,-17.81 1715.36,-23.8 1717.2,-17.05"/>
</g>
<!-- Node39&#45;&gt;Node32 -->
<g id="edge54" class="edge">
<title>Node39&#45;&gt;Node32</title>
<path fill="none" stroke="midnightblue" d="M1883.68,-56.08C1886.23,-48.85 1889.9,-38.41 1893.07,-29.4"/>
<polygon fill="midnightblue" stroke="midnightblue" points="1896.45,-30.35 1896.47,-19.75 1889.85,-28.02 1896.45,-30.35"/>
</g>
<!-- Node39&#45;&gt;Node38 -->
<g id="edge53" class="edge">
<title>Node39&#45;&gt;Node38</title>
<path fill="none" stroke="midnightblue" d="M1932.77,-57.16C1935.74,-56.76 1938.68,-56.37 1941.55,-56 2085.46,-37.59 2125.82,-46.64 2272.14,-20"/>
<polygon fill="midnightblue" stroke="midnightblue" points="2273.19,-23.37 2282.39,-18.11 2271.92,-16.48 2273.19,-23.37"/>
</g>
<!-- Node40 -->
<g id="node40" class="node">
<title>Node40</title>
<g id="a_node40"><a xlink:title=" ">
<polygon fill="white" stroke="#bfbfbf" points="1790.55,-0.5 1790.55,-19.5 1856.55,-19.5 1856.55,-0.5 1790.55,-0.5"/>
<text text-anchor="middle" x="1823.55" y="-7.5" font-family="Helvetica,sans-Serif" font-size="10.00">sys/ioctl.h</text>
</a>
</g>
</g>
<!-- Node39&#45;&gt;Node40 -->
<g id="edge51" class="edge">
<title>Node39&#45;&gt;Node40</title>
<path fill="none" stroke="midnightblue" d="M1871.39,-56.32C1863.05,-48.42 1850.51,-36.55 1840.37,-26.94"/>
<polygon fill="midnightblue" stroke="midnightblue" points="1842.54,-24.17 1832.87,-19.83 1837.72,-29.25 1842.54,-24.17"/>
</g>
<!-- Node45&#45;&gt;Node2 -->
<g id="edge61" class="edge">
<title>Node45&#45;&gt;Node2</title>
<path fill="none" stroke="midnightblue" d="M928.56,-56.44C899.83,-46.99 853.54,-31.74 822.59,-21.55"/>
<polygon fill="midnightblue" stroke="midnightblue" points="823.32,-18.11 812.73,-18.3 821.13,-24.76 823.32,-18.11"/>
</g>
<!-- Node45&#45;&gt;Node5 -->
<g id="edge63" class="edge">
<title>Node45&#45;&gt;Node5</title>
<path fill="none" stroke="midnightblue" d="M987.24,-61.2C1070.37,-51.55 1289.54,-26.1 1379.82,-15.61"/>
<polygon fill="midnightblue" stroke="midnightblue" points="1380.39,-19.07 1389.92,-14.44 1379.58,-12.12 1380.39,-19.07"/>
</g>
<!-- Node45&#45;&gt;Node7 -->
<g id="edge66" class="edge">
<title>Node45&#45;&gt;Node7</title>
<path fill="none" stroke="midnightblue" d="M921.95,-57.42C919.12,-56.89 916.29,-56.41 913.55,-56 715.19,-26.48 474.64,-15.46 384.24,-12.18"/>
<polygon fill="midnightblue" stroke="midnightblue" points="384.33,-8.68 374.22,-11.83 384.09,-15.68 384.33,-8.68"/>
</g>
<!-- Node45&#45;&gt;Node11 -->
<g id="edge67" class="edge">
<title>Node45&#45;&gt;Node11</title>
<path fill="none" stroke="midnightblue" d="M921.88,-57.81C919.06,-57.2 916.25,-56.59 913.55,-56 858.64,-44.12 795.65,-30.71 752.89,-21.65"/>
<polygon fill="midnightblue" stroke="midnightblue" points="753.52,-18.2 743.01,-19.56 752.07,-25.05 753.52,-18.2"/>
</g>
<!-- Node45&#45;&gt;Node20 -->
<g id="edge62" class="edge">
<title>Node45&#45;&gt;Node20</title>
<path fill="none" stroke="midnightblue" d="M987.34,-60.2C1034.27,-53.11 1123.43,-38.85 1208.95,-19.96"/>
<polygon fill="midnightblue" stroke="midnightblue" points="1209.82,-23.35 1218.82,-17.75 1208.3,-16.52 1209.82,-23.35"/>
</g>
<!-- Node45&#45;&gt;Node33 -->
<g id="edge69" class="edge">
<title>Node45&#45;&gt;Node33</title>
<path fill="none" stroke="midnightblue" d="M985.45,-56.44C1018.82,-47.2 1072.14,-32.44 1108.9,-22.26"/>
<polygon fill="midnightblue" stroke="midnightblue" points="1110.09,-25.56 1118.79,-19.52 1108.22,-18.81 1110.09,-25.56"/>
</g>
<!-- Node46 -->
<g id="node45" class="node">
<title>Node46</title>
<g id="a_node45"><a xlink:title=" ">
<polygon fill="white" stroke="#bfbfbf" points="830.55,-0.5 830.55,-19.5 898.55,-19.5 898.55,-0.5 830.55,-0.5"/>
<text text-anchor="middle" x="864.55" y="-7.5" font-family="Helvetica,sans-Serif" font-size="10.00">filesystem</text>
</a>
</g>
</g>
<!-- Node45&#45;&gt;Node46 -->
<g id="edge64" class="edge">
<title>Node45&#45;&gt;Node46</title>
<path fill="none" stroke="midnightblue" d="M940.09,-56.32C926.05,-47.9 904.5,-34.97 888,-25.07"/>
<polygon fill="midnightblue" stroke="midnightblue" points="889.35,-21.8 878.97,-19.65 885.75,-27.8 889.35,-21.8"/>
</g>
<!-- Node47 -->
<g id="node46" class="node">
<title>Node47</title>
<g id="a_node46"><a xlink:title=" ">
<polygon fill="white" stroke="#bfbfbf" points="916.55,-0.5 916.55,-19.5 996.55,-19.5 996.55,-0.5 916.55,-0.5"/>
<text text-anchor="middle" x="956.55" y="-7.5" font-family="Helvetica,sans-Serif" font-size="10.00">SDL_image.h</text>
</a>
</g>
</g>
<!-- Node45&#45;&gt;Node47 -->
<g id="edge65" class="edge">
<title>Node45&#45;&gt;Node47</title>
<path fill="none" stroke="midnightblue" d="M954.88,-56.08C955.14,-49.01 955.51,-38.86 955.84,-29.99"/>
<polygon fill="midnightblue" stroke="midnightblue" points="959.35,-29.87 956.22,-19.75 952.35,-29.61 959.35,-29.87"/>
</g>
<!-- Node48 -->
<g id="node47" class="node">
<title>Node48</title>
<g id="a_node47"><a xlink:title=" ">
<polygon fill="white" stroke="#bfbfbf" points="1014.55,-0.5 1014.55,-19.5 1080.55,-19.5 1080.55,-0.5 1014.55,-0.5"/>
<text text-anchor="middle" x="1047.55" y="-7.5" font-family="Helvetica,sans-Serif" font-size="10.00">libnpy.hpp</text>
</a>
</g>
</g>
<!-- Node45&#45;&gt;Node48 -->
<g id="edge68" class="edge">
<title>Node45&#45;&gt;Node48</title>
<path fill="none" stroke="midnightblue" d="M969.49,-56.32C984.13,-47.82 1006.68,-34.73 1023.78,-24.8"/>
<polygon fill="midnightblue" stroke="midnightblue" points="1025.75,-27.7 1032.64,-19.65 1022.24,-21.65 1025.75,-27.7"/>
</g>
<!-- Node50&#45;&gt;Node2 -->
<g id="edge74" class="edge">
<title>Node50&#45;&gt;Node2</title>
<path fill="none" stroke="midnightblue" d="M808.98,-112.37C805.75,-94.62 798.3,-53.67 793.93,-29.6"/>
<polygon fill="midnightblue" stroke="midnightblue" points="797.34,-28.8 792.11,-19.59 790.45,-30.06 797.34,-28.8"/>
</g>
<!-- Node50&#45;&gt;Node7 -->
<g id="edge81" class="edge">
<title>Node50&#45;&gt;Node7</title>
<path fill="none" stroke="midnightblue" d="M799.09,-112.32C779.46,-97.97 737.65,-69.51 697.55,-56 587.83,-19.04 449.37,-12.12 384.39,-11.04"/>
<polygon fill="midnightblue" stroke="midnightblue" points="384.29,-7.54 374.24,-10.91 384.19,-14.54 384.29,-7.54"/>
</g>
<!-- Node50&#45;&gt;Node8 -->
<g id="edge82" class="edge">
<title>Node50&#45;&gt;Node8</title>
<path fill="none" stroke="midnightblue" d="M748.33,-116.17C660.02,-109.08 493.04,-94.74 340.74,-76.09"/>
<polygon fill="midnightblue" stroke="midnightblue" points="341.09,-72.6 330.73,-74.85 340.23,-79.55 341.09,-72.6"/>
</g>
<!-- Node50&#45;&gt;Node9 -->
<g id="edge83" class="edge">
<title>Node50&#45;&gt;Node9</title>
<path fill="none" stroke="midnightblue" d="M748.2,-112.56C676.67,-102.88 559.56,-87.03 484.02,-76.81"/>
<polygon fill="midnightblue" stroke="midnightblue" points="484.49,-73.34 474.11,-75.47 483.55,-80.28 484.49,-73.34"/>
</g>
<!-- Node50&#45;&gt;Node10 -->
<g id="edge84" class="edge">
<title>Node50&#45;&gt;Node10</title>
<path fill="none" stroke="midnightblue" d="M766.97,-112.44C718.7,-102.96 640.83,-87.67 588.93,-77.48"/>
<polygon fill="midnightblue" stroke="midnightblue" points="589.4,-74.01 578.92,-75.52 588.06,-80.88 589.4,-74.01"/>
</g>
<!-- Node50&#45;&gt;Node11 -->
<g id="edge85" class="edge">
<title>Node50&#45;&gt;Node11</title>
<path fill="none" stroke="midnightblue" d="M802.07,-112.37C783.93,-93.89 741.12,-50.29 718,-26.74"/>
<polygon fill="midnightblue" stroke="midnightblue" points="720.49,-24.28 710.98,-19.59 715.49,-29.18 720.49,-24.28"/>
</g>
<!-- Node50&#45;&gt;Node12 -->
<g id="edge86" class="edge">
<title>Node50&#45;&gt;Node12</title>
<path fill="none" stroke="midnightblue" d="M783.93,-112.44C755.54,-103.32 710.41,-88.81 678.79,-78.65"/>
<polygon fill="midnightblue" stroke="midnightblue" points="679.63,-75.24 669.04,-75.52 677.49,-81.91 679.63,-75.24"/>
</g>
<!-- Node50&#45;&gt;Node18 -->
<g id="edge75" class="edge">
<title>Node50&#45;&gt;Node18</title>
<path fill="none" stroke="midnightblue" d="M872.77,-115.29C939.81,-108.6 1049.75,-96.05 1153.37,-76.01"/>
<polygon fill="midnightblue" stroke="midnightblue" points="1154.24,-79.41 1163.38,-74.05 1152.89,-72.54 1154.24,-79.41"/>
</g>
<!-- Node50&#45;&gt;Node20 -->
<g id="edge73" class="edge">
<title>Node50&#45;&gt;Node20</title>
<path fill="none" stroke="midnightblue" d="M872.62,-112.66C917.54,-105.6 979.27,-93.75 1031.55,-76 1050.74,-69.48 1053.54,-63.05 1072.55,-56 1128.69,-35.16 1146.96,-36.13 1208.87,-20.12"/>
<polygon fill="midnightblue" stroke="midnightblue" points="1209.98,-23.45 1218.76,-17.52 1208.2,-16.68 1209.98,-23.45"/>
</g>
<!-- Node50&#45;&gt;Node21 -->
<g id="edge77" class="edge">
<title>Node50&#45;&gt;Node21</title>
<path fill="none" stroke="midnightblue" d="M872.83,-117.58C951.9,-112.48 1092.54,-100.91 1221.27,-75.94"/>
<polygon fill="midnightblue" stroke="midnightblue" points="1222.18,-79.33 1231.31,-73.96 1220.82,-72.46 1222.18,-79.33"/>
</g>
<!-- Node50&#45;&gt;Node26 -->
<g id="edge76" class="edge">
<title>Node50&#45;&gt;Node26</title>
<path fill="none" stroke="midnightblue" d="M860.83,-112.5C912.68,-103.66 995.84,-89.29 1067.55,-76 1068.81,-75.77 1070.09,-75.53 1071.38,-75.28"/>
<polygon fill="midnightblue" stroke="midnightblue" points="1072.22,-78.69 1081.39,-73.38 1070.91,-71.81 1072.22,-78.69"/>
</g>
<!-- Node50&#45;&gt;Node33 -->
<g id="edge79" class="edge">
<title>Node50&#45;&gt;Node33</title>
<path fill="none" stroke="midnightblue" d="M856.76,-112.47C894.85,-104.82 949.97,-92.28 996.55,-76 1016.44,-69.04 1020.23,-64.44 1039.55,-56 1065.78,-44.54 1095.89,-32.28 1117.97,-23.46"/>
<polygon fill="midnightblue" stroke="midnightblue" points="1119.51,-26.61 1127.51,-19.66 1116.92,-20.11 1119.51,-26.61"/>
</g>
<!-- Node50&#45;&gt;Node34 -->
<g id="edge80" class="edge">
<title>Node50&#45;&gt;Node34</title>
<path fill="none" stroke="midnightblue" d="M872.61,-117.73C961.54,-112.47 1130.42,-100.32 1283.34,-75.99"/>
<polygon fill="midnightblue" stroke="midnightblue" points="1284.08,-79.42 1293.39,-74.37 1282.96,-72.51 1284.08,-79.42"/>
</g>
<!-- Node50&#45;&gt;Node45 -->
<g id="edge87" class="edge">
<title>Node50&#45;&gt;Node45</title>
<path fill="none" stroke="midnightblue" d="M833.36,-112.44C857.38,-103.44 895.38,-89.19 922.42,-79.05"/>
<polygon fill="midnightblue" stroke="midnightblue" points="923.7,-82.3 931.84,-75.52 921.24,-75.75 923.7,-82.3"/>
</g>
<!-- Node51 -->
<g id="node50" class="node">
<title>Node51</title>
<g id="a_node50"><a xlink:title=" ">
<polygon fill="white" stroke="#bfbfbf" points="821.05,-56.5 821.05,-75.5 904.05,-75.5 904.05,-56.5 821.05,-56.5"/>
<text text-anchor="middle" x="862.55" y="-63.5" font-family="Helvetica,sans-Serif" font-size="10.00">SDL_opengl.h</text>
</a>
</g>
</g>
<!-- Node50&#45;&gt;Node51 -->
<g id="edge78" class="edge">
<title>Node50&#45;&gt;Node51</title>
<path fill="none" stroke="midnightblue" d="M819.13,-112.08C826.71,-104.22 837.92,-92.57 847.06,-83.08"/>
<polygon fill="midnightblue" stroke="midnightblue" points="849.7,-85.38 854.12,-75.75 844.66,-80.53 849.7,-85.38"/>
</g>
</g>
</svg>
