<?xml version="1.0" encoding="UTF-8" standalone="no"?>
<!DOCTYPE svg PUBLIC "-//W3C//DTD SVG 1.1//EN"
 "http://www.w3.org/Graphics/SVG/1.1/DTD/svg11.dtd">
<!-- Generated by graphviz version 2.43.0 (0)
 -->
<!-- Title: src/RunGUI.cpp Pages: 1 -->
<svg width="3031pt" height="196pt"
 viewBox="0.00 0.00 3031.11 196.00" xmlns="http://www.w3.org/2000/svg" xmlns:xlink="http://www.w3.org/1999/xlink">
<g id="graph0" class="graph" transform="scale(1 1) rotate(0) translate(4 192)">
<title>src/RunGUI.cpp</title>
<polygon fill="white" stroke="transparent" points="-4,4 -4,-192 3027.11,-192 3027.11,4 -4,4"/>
<!-- Node1 -->
<g id="node1" class="node">
<title>Node1</title>
<g id="a_node1"><a xlink:title=" ">
<polygon fill="#bfbfbf" stroke="black" points="572.61,-168.5 572.61,-187.5 663.61,-187.5 663.61,-168.5 572.61,-168.5"/>
<text text-anchor="middle" x="618.11" y="-175.5" font-family="Helvetica,sans-Serif" font-size="10.00">src/RunGUI.cpp</text>
</a>
</g>
</g>
<!-- Node2 -->
<g id="node2" class="node">
<title>Node2</title>
<g id="a_node2"><a xlink:title=" ">
<polygon fill="white" stroke="#bfbfbf" points="748.11,-0.5 748.11,-19.5 792.11,-19.5 792.11,-0.5 748.11,-0.5"/>
<text text-anchor="middle" x="770.11" y="-7.5" font-family="Helvetica,sans-Serif" font-size="10.00">string</text>
</a>
</g>
</g>
<!-- Node1&#45;&gt;Node2 -->
<g id="edge1" class="edge">
<title>Node1&#45;&gt;Node2</title>
<path fill="none" stroke="midnightblue" d="M572.27,-171.77C452.53,-157.22 143.27,-113.54 197.11,-56 236.7,-13.7 644.97,-29.09 737.96,-19.42"/>
<polygon fill="midnightblue" stroke="midnightblue" points="738.46,-22.88 747.9,-18.07 737.52,-15.95 738.46,-22.88"/>
</g>
<!-- Node3 -->
<g id="node3" class="node">
<title>Node3</title>
<g id="a_node3"><a xlink:title=" ">
<polygon fill="white" stroke="#bfbfbf" points="2958.11,-0.5 2958.11,-19.5 3006.11,-19.5 3006.11,-0.5 2958.11,-0.5"/>
<text text-anchor="middle" x="2982.11" y="-7.5" font-family="Helvetica,sans-Serif" font-size="10.00">thread</text>
</a>
</g>
</g>
<!-- Node1&#45;&gt;Node3 -->
<g id="edge2" class="edge">
<title>Node1&#45;&gt;Node3</title>
<path fill="none" stroke="midnightblue" d="M663.89,-176.62C911.77,-174.44 2095.52,-162.59 2460.11,-132 2634.17,-117.4 2682.18,-127.42 2849.11,-76 2890.02,-63.4 2933.99,-39.68 2959.73,-24.65"/>
<polygon fill="midnightblue" stroke="midnightblue" points="2961.53,-27.65 2968.34,-19.54 2957.96,-21.63 2961.53,-27.65"/>
</g>
<!-- Node4 -->
<g id="node4" class="node">
<title>Node4</title>
<g id="a_node4"><a xlink:title=" ">
<polygon fill="white" stroke="#bfbfbf" points="2653.11,-0.5 2653.11,-19.5 2713.11,-19.5 2713.11,-0.5 2653.11,-0.5"/>
<text text-anchor="middle" x="2683.11" y="-7.5" font-family="Helvetica,sans-Serif" font-size="10.00">iostream</text>
</a>
</g>
</g>
<!-- Node1&#45;&gt;Node4 -->
<g id="edge3" class="edge">
<title>Node1&#45;&gt;Node4</title>
<path fill="none" stroke="midnightblue" d="M664,-176.61C968,-173.84 2681.72,-154.76 2756.11,-76 2774.56,-56.47 2742.27,-36.23 2714.94,-23.64"/>
<polygon fill="midnightblue" stroke="midnightblue" points="2716.13,-20.34 2705.57,-19.51 2713.31,-26.74 2716.13,-20.34"/>
</g>
<!-- Node5 -->
<g id="node5" class="node">
<title>Node5</title>
<g id="a_node5"><a xlink:title=" ">
<polygon fill="white" stroke="#bfbfbf" points="1198.61,-0.5 1198.61,-19.5 1257.61,-19.5 1257.61,-0.5 1198.61,-0.5"/>
<text text-anchor="middle" x="1228.11" y="-7.5" font-family="Helvetica,sans-Serif" font-size="10.00">complex</text>
</a>
</g>
</g>
<!-- Node1&#45;&gt;Node5 -->
<g id="edge4" class="edge">
<title>Node1&#45;&gt;Node5</title>
<path fill="none" stroke="midnightblue" d="M664.05,-172.02C717.72,-165.56 808.88,-152.63 885.11,-132 977.3,-107.06 995.89,-87.33 1086.11,-56 1121.08,-43.86 1161.33,-31.23 1190.03,-22.45"/>
<polygon fill="midnightblue" stroke="midnightblue" points="1191.13,-25.77 1199.67,-19.51 1189.09,-19.08 1191.13,-25.77"/>
</g>
<!-- Node6 -->
<g id="node6" class="node">
<title>Node6</title>
<g id="a_node6"><a xlink:title=" ">
<polygon fill="white" stroke="#bfbfbf" points="2917.11,-112.5 2917.11,-131.5 2955.11,-131.5 2955.11,-112.5 2917.11,-112.5"/>
<text text-anchor="middle" x="2936.11" y="-119.5" font-family="Helvetica,sans-Serif" font-size="10.00">map</text>
</a>
</g>
</g>
<!-- Node1&#45;&gt;Node6 -->
<g id="edge5" class="edge">
<title>Node1&#45;&gt;Node6</title>
<path fill="none" stroke="midnightblue" d="M663.62,-176.78C965.49,-175.22 2674.1,-164.97 2903.11,-132 2904.4,-131.81 2905.71,-131.59 2907.03,-131.35"/>
<polygon fill="midnightblue" stroke="midnightblue" points="2908.12,-134.69 2917.09,-129.05 2906.56,-127.87 2908.12,-134.69"/>
</g>
<!-- Node7 -->
<g id="node7" class="node">
<title>Node7</title>
<g id="a_node7"><a xlink:title=" ">
<polygon fill="white" stroke="#bfbfbf" points="317.61,-0.5 317.61,-19.5 370.61,-19.5 370.61,-0.5 317.61,-0.5"/>
<text text-anchor="middle" x="344.11" y="-7.5" font-family="Helvetica,sans-Serif" font-size="10.00">imgui.h</text>
</a>
</g>
</g>
<!-- Node1&#45;&gt;Node7 -->
<g id="edge6" class="edge">
<title>Node1&#45;&gt;Node7</title>
<path fill="none" stroke="midnightblue" d="M572.56,-176.59C441.01,-174.98 67.27,-167.33 26.11,-132 0.11,-109.68 -9.43,-81.81 13.11,-56 50.96,-12.66 228.98,-9.47 307.15,-10.23"/>
<polygon fill="midnightblue" stroke="midnightblue" points="307.45,-13.73 317.49,-10.36 307.54,-6.73 307.45,-13.73"/>
</g>
<!-- Node8 -->
<g id="node8" class="node">
<title>Node8</title>
<g id="a_node8"><a xlink:title=" ">
<polygon fill="white" stroke="#bfbfbf" points="206.11,-56.5 206.11,-75.5 306.11,-75.5 306.11,-56.5 206.11,-56.5"/>
<text text-anchor="middle" x="256.11" y="-63.5" font-family="Helvetica,sans-Serif" font-size="10.00">imgui_impl_sdl.h</text>
</a>
</g>
</g>
<!-- Node1&#45;&gt;Node8 -->
<g id="edge7" class="edge">
<title>Node1&#45;&gt;Node8</title>
<path fill="none" stroke="midnightblue" d="M590.01,-168.46C525.59,-148.89 367.23,-100.77 294.17,-78.57"/>
<polygon fill="midnightblue" stroke="midnightblue" points="295.03,-75.17 284.45,-75.61 293,-81.87 295.03,-75.17"/>
</g>
<!-- Node9 -->
<g id="node9" class="node">
<title>Node9</title>
<g id="a_node9"><a xlink:title=" ">
<polygon fill="white" stroke="#bfbfbf" points="324.61,-56.5 324.61,-75.5 449.61,-75.5 449.61,-56.5 324.61,-56.5"/>
<text text-anchor="middle" x="387.11" y="-63.5" font-family="Helvetica,sans-Serif" font-size="10.00">imgui_impl_opengl3.h</text>
</a>
</g>
</g>
<!-- Node1&#45;&gt;Node9 -->
<g id="edge8" class="edge">
<title>Node1&#45;&gt;Node9</title>
<path fill="none" stroke="midnightblue" d="M599.99,-168.37C559.59,-149.13 461.97,-102.65 414.27,-79.93"/>
<polygon fill="midnightblue" stroke="midnightblue" points="415.69,-76.73 405.15,-75.59 412.68,-83.05 415.69,-76.73"/>
</g>
<!-- Node10 -->
<g id="node10" class="node">
<title>Node10</title>
<g id="a_node10"><a xlink:title=" ">
<polygon fill="white" stroke="#bfbfbf" points="468.11,-56.5 468.11,-75.5 554.11,-75.5 554.11,-56.5 468.11,-56.5"/>
<text text-anchor="middle" x="511.11" y="-63.5" font-family="Helvetica,sans-Serif" font-size="10.00">imgui_stdlib.h</text>
</a>
</g>
</g>
<!-- Node1&#45;&gt;Node10 -->
<g id="edge9" class="edge">
<title>Node1&#45;&gt;Node10</title>
<path fill="none" stroke="midnightblue" d="M609.72,-168.37C591.82,-149.97 549.7,-106.67 526.73,-83.05"/>
<polygon fill="midnightblue" stroke="midnightblue" points="528.95,-80.32 519.47,-75.59 523.93,-85.2 528.95,-80.32"/>
</g>
<!-- Node11 -->
<g id="node11" class="node">
<title>Node11</title>
<g id="a_node11"><a xlink:title=" ">
<polygon fill="white" stroke="#bfbfbf" points="634.11,-0.5 634.11,-19.5 730.11,-19.5 730.11,-0.5 634.11,-0.5"/>
<text text-anchor="middle" x="682.11" y="-7.5" font-family="Helvetica,sans-Serif" font-size="10.00">imgui_internal.h</text>
</a>
</g>
</g>
<!-- Node1&#45;&gt;Node11 -->
<g id="edge10" class="edge">
<title>Node1&#45;&gt;Node11</title>
<path fill="none" stroke="midnightblue" d="M572.49,-176.06C445.26,-173.07 93.08,-162.12 51.11,-132 22.34,-111.35 2.94,-81.89 27.11,-56 47.32,-34.35 466.49,-18.19 623.46,-12.88"/>
<polygon fill="midnightblue" stroke="midnightblue" points="623.98,-16.36 633.85,-12.53 623.74,-9.37 623.98,-16.36"/>
</g>
<!-- Node12 -->
<g id="node12" class="node">
<title>Node12</title>
<g id="a_node12"><a xlink:title=" ">
<polygon fill="white" stroke="#bfbfbf" points="572.11,-56.5 572.11,-75.5 664.11,-75.5 664.11,-56.5 572.11,-56.5"/>
<text text-anchor="middle" x="618.11" y="-63.5" font-family="Helvetica,sans-Serif" font-size="10.00">imfilebrowser.h</text>
</a>
</g>
</g>
<!-- Node1&#45;&gt;Node12 -->
<g id="edge11" class="edge">
<title>Node1&#45;&gt;Node12</title>
<path fill="none" stroke="midnightblue" d="M618.11,-168.37C618.11,-150.62 618.11,-109.67 618.11,-85.6"/>
<polygon fill="midnightblue" stroke="midnightblue" points="621.61,-85.59 618.11,-75.59 614.61,-85.59 621.61,-85.59"/>
</g>
<!-- Node13 -->
<g id="node13" class="node">
<title>Node13</title>
<g id="a_node13"><a xlink:title=" ">
<polygon fill="white" stroke="#bfbfbf" points="36.11,-56.5 36.11,-75.5 74.11,-75.5 74.11,-56.5 36.11,-56.5"/>
<text text-anchor="middle" x="55.11" y="-63.5" font-family="Helvetica,sans-Serif" font-size="10.00">ini.h</text>
</a>
</g>
</g>
<!-- Node1&#45;&gt;Node13 -->
<g id="edge12" class="edge">
<title>Node1&#45;&gt;Node13</title>
<path fill="none" stroke="midnightblue" d="M572.31,-176.47C446.4,-174.57 101.91,-166.25 65.11,-132 52.73,-120.47 51.33,-100.5 52.35,-85.73"/>
<polygon fill="midnightblue" stroke="midnightblue" points="55.84,-86 53.46,-75.68 48.88,-85.23 55.84,-86"/>
</g>
<!-- Node14 -->
<g id="node14" class="node">
<title>Node14</title>
<g id="a_node14"><a xlink:href="../../de/ded/ImGuiINI_8hpp.html" target="_top" xlink:title=" ">
<polygon fill="white" stroke="black" points="74.11,-112.5 74.11,-131.5 154.11,-131.5 154.11,-112.5 74.11,-112.5"/>
<text text-anchor="middle" x="114.11" y="-119.5" font-family="Helvetica,sans-Serif" font-size="10.00">ImGuiINI.hpp</text>
</a>
</g>
</g>
<!-- Node1&#45;&gt;Node14 -->
<g id="edge13" class="edge">
<title>Node1&#45;&gt;Node14</title>
<path fill="none" stroke="midnightblue" d="M572.33,-173.42C490.85,-166.82 315.4,-151.62 168.11,-132 166.84,-131.83 165.55,-131.65 164.25,-131.47"/>
<polygon fill="midnightblue" stroke="midnightblue" points="164.58,-127.98 154.17,-129.98 163.55,-134.91 164.58,-127.98"/>
</g>
<!-- Node15 -->
<g id="node15" class="node">
<title>Node15</title>
<g id="a_node15"><a xlink:href="../../de/dfc/Ricom_8h.html" target="_top" xlink:title=" ">
<polygon fill="white" stroke="black" points="1709.11,-112.5 1709.11,-131.5 1765.11,-131.5 1765.11,-112.5 1709.11,-112.5"/>
<text text-anchor="middle" x="1737.11" y="-119.5" font-family="Helvetica,sans-Serif" font-size="10.00">Ricom.h</text>
</a>
</g>
</g>
<!-- Node1&#45;&gt;Node15 -->
<g id="edge17" class="edge">
<title>Node1&#45;&gt;Node15</title>
<path fill="none" stroke="midnightblue" d="M663.71,-174.8C847.18,-165.95 1529.65,-133.01 1698.93,-124.84"/>
<polygon fill="midnightblue" stroke="midnightblue" points="1699.28,-128.33 1709.1,-124.35 1698.94,-121.34 1699.28,-128.33"/>
</g>
<!-- Node48 -->
<g id="node44" class="node">
<title>Node48</title>
<g id="a_node44"><a xlink:href="../../d7/db2/GuiUtils_8h.html" target="_top" xlink:title=" ">
<polygon fill="white" stroke="black" points="897.61,-56.5 897.61,-75.5 962.61,-75.5 962.61,-56.5 897.61,-56.5"/>
<text text-anchor="middle" x="930.11" y="-63.5" font-family="Helvetica,sans-Serif" font-size="10.00">GuiUtils.h</text>
</a>
</g>
</g>
<!-- Node1&#45;&gt;Node48 -->
<g id="edge73" class="edge">
<title>Node1&#45;&gt;Node48</title>
<path fill="none" stroke="midnightblue" d="M663.99,-175.6C713.87,-172.48 794.78,-162.64 857.11,-132 881.01,-120.25 903.04,-98.48 916.52,-83.39"/>
<polygon fill="midnightblue" stroke="midnightblue" points="919.19,-85.65 923.08,-75.8 913.89,-81.08 919.19,-85.65"/>
</g>
<!-- Node52 -->
<g id="node48" class="node">
<title>Node52</title>
<g id="a_node48"><a xlink:title=" ">
<polygon fill="white" stroke="#bfbfbf" points="2973.11,-112.5 2973.11,-131.5 3023.11,-131.5 3023.11,-112.5 2973.11,-112.5"/>
<text text-anchor="middle" x="2998.11" y="-119.5" font-family="Helvetica,sans-Serif" font-size="10.00">fonts.h</text>
</a>
</g>
</g>
<!-- Node1&#45;&gt;Node52 -->
<g id="edge72" class="edge">
<title>Node1&#45;&gt;Node52</title>
<path fill="none" stroke="midnightblue" d="M663.84,-176.78C967.08,-175.25 2684.21,-165.2 2962.97,-131.67"/>
<polygon fill="midnightblue" stroke="midnightblue" points="2963.53,-135.13 2973,-130.37 2962.63,-128.18 2963.53,-135.13"/>
</g>
<!-- Node53 -->
<g id="node49" class="node">
<title>Node53</title>
<g id="a_node49"><a xlink:href="../../d4/d6e/ImGuiImageWindow_8h.html" target="_top" xlink:title=" ">
<polygon fill="white" stroke="black" points="724.11,-112.5 724.11,-131.5 848.11,-131.5 848.11,-112.5 724.11,-112.5"/>
<text text-anchor="middle" x="786.11" y="-119.5" font-family="Helvetica,sans-Serif" font-size="10.00">ImGuiImageWindow.h</text>
</a>
</g>
</g>
<!-- Node1&#45;&gt;Node53 -->
<g id="edge74" class="edge">
<title>Node1&#45;&gt;Node53</title>
<path fill="none" stroke="midnightblue" d="M644.73,-168.44C673.12,-159.32 718.25,-144.81 749.87,-134.65"/>
<polygon fill="midnightblue" stroke="midnightblue" points="751.17,-137.91 759.62,-131.52 749.03,-131.24 751.17,-137.91"/>
</g>
<!-- Node14&#45;&gt;Node2 -->
<g id="edge16" class="edge">
<title>Node14&#45;&gt;Node2</title>
<path fill="none" stroke="midnightblue" d="M117.82,-112.34C124.59,-97.73 140.48,-68.57 164.11,-56 274.39,2.65 596.72,-39.79 737.66,-19.71"/>
<polygon fill="midnightblue" stroke="midnightblue" points="738.57,-23.11 747.9,-18.08 737.47,-16.2 738.57,-23.11"/>
</g>
<!-- Node14&#45;&gt;Node7 -->
<g id="edge14" class="edge">
<title>Node14&#45;&gt;Node7</title>
<path fill="none" stroke="midnightblue" d="M112.96,-112.5C111.61,-98.65 111.18,-71.25 126.11,-56 150.88,-30.71 251.83,-18.57 307.25,-13.71"/>
<polygon fill="midnightblue" stroke="midnightblue" points="307.7,-17.19 317.37,-12.86 307.11,-10.21 307.7,-17.19"/>
</g>
<!-- Node14&#45;&gt;Node13 -->
<g id="edge15" class="edge">
<title>Node14&#45;&gt;Node13</title>
<path fill="none" stroke="midnightblue" d="M104.63,-112.32C95.91,-104.34 82.77,-92.31 72.21,-82.65"/>
<polygon fill="midnightblue" stroke="midnightblue" points="74.5,-80 64.76,-75.83 69.78,-85.17 74.5,-80"/>
</g>
<!-- Node15&#45;&gt;Node2 -->
<g id="edge24" class="edge">
<title>Node15&#45;&gt;Node2</title>
<path fill="none" stroke="midnightblue" d="M1709,-120.94C1651.15,-120.02 1515.3,-113.63 1409.11,-76 1392.95,-70.27 1392.48,-61.13 1376.11,-56 1135,19.56 1055.46,-61.76 802.56,-19.83"/>
<polygon fill="midnightblue" stroke="midnightblue" points="802.77,-16.32 792.33,-18.08 801.59,-23.22 802.77,-16.32"/>
</g>
<!-- Node15&#45;&gt;Node3 -->
<g id="edge28" class="edge">
<title>Node15&#45;&gt;Node3</title>
<path fill="none" stroke="midnightblue" d="M1765.55,-120.95C1913.21,-120.51 2593.66,-116.28 2800.11,-76 2856.76,-64.95 2919.46,-39.4 2954.49,-23.83"/>
<polygon fill="midnightblue" stroke="midnightblue" points="2956.35,-26.83 2964.03,-19.53 2953.47,-20.45 2956.35,-26.83"/>
</g>
<!-- Node15&#45;&gt;Node5 -->
<g id="edge21" class="edge">
<title>Node15&#45;&gt;Node5</title>
<path fill="none" stroke="midnightblue" d="M1708.81,-118.8C1661.42,-114.49 1563.51,-102.9 1485.11,-76 1467.06,-69.8 1465.08,-62.43 1447.11,-56 1386.55,-34.33 1312.63,-21.86 1268.02,-15.76"/>
<polygon fill="midnightblue" stroke="midnightblue" points="1268.25,-12.26 1257.88,-14.41 1267.33,-19.2 1268.25,-12.26"/>
</g>
<!-- Node16 -->
<g id="node16" class="node">
<title>Node16</title>
<g id="a_node16"><a xlink:title=" ">
<polygon fill="white" stroke="#bfbfbf" points="2884.11,-0.5 2884.11,-19.5 2940.11,-19.5 2940.11,-0.5 2884.11,-0.5"/>
<text text-anchor="middle" x="2912.11" y="-7.5" font-family="Helvetica,sans-Serif" font-size="10.00">unistd.h</text>
</a>
</g>
</g>
<!-- Node15&#45;&gt;Node16 -->
<g id="edge18" class="edge">
<title>Node15&#45;&gt;Node16</title>
<path fill="none" stroke="midnightblue" d="M1765.35,-121.08C1909.03,-121.3 2559.73,-119.8 2756.11,-76 2804.95,-65.11 2857.95,-39.88 2887.89,-24.25"/>
<polygon fill="midnightblue" stroke="midnightblue" points="2889.58,-27.32 2896.77,-19.55 2886.3,-21.14 2889.58,-27.32"/>
</g>
<!-- Node17 -->
<g id="node17" class="node">
<title>Node17</title>
<g id="a_node17"><a xlink:title=" ">
<polygon fill="white" stroke="#bfbfbf" points="2043.61,-0.5 2043.61,-19.5 2090.61,-19.5 2090.61,-0.5 2043.61,-0.5"/>
<text text-anchor="middle" x="2067.11" y="-7.5" font-family="Helvetica,sans-Serif" font-size="10.00">cmath</text>
</a>
</g>
</g>
<!-- Node15&#45;&gt;Node17 -->
<g id="edge19" class="edge">
<title>Node15&#45;&gt;Node17</title>
<path fill="none" stroke="midnightblue" d="M1765.29,-120.65C1866.57,-119.08 2207.9,-111.22 2240.11,-76 2306.44,-3.47 2387.84,-94.62 2100.82,-20.13"/>
<polygon fill="midnightblue" stroke="midnightblue" points="2101.46,-16.68 2090.89,-17.53 2099.68,-23.45 2101.46,-16.68"/>
</g>
<!-- Node18 -->
<g id="node18" class="node">
<title>Node18</title>
<g id="a_node18"><a xlink:title=" ">
<polygon fill="white" stroke="#bfbfbf" points="1255.11,-56.5 1255.11,-75.5 1305.11,-75.5 1305.11,-56.5 1255.11,-56.5"/>
<text text-anchor="middle" x="1280.11" y="-63.5" font-family="Helvetica,sans-Serif" font-size="10.00">stdio.h</text>
</a>
</g>
</g>
<!-- Node15&#45;&gt;Node18 -->
<g id="edge20" class="edge">
<title>Node15&#45;&gt;Node18</title>
<path fill="none" stroke="midnightblue" d="M1708.93,-119.49C1642.16,-115.61 1469.02,-103.68 1315.36,-75.97"/>
<polygon fill="midnightblue" stroke="midnightblue" points="1315.73,-72.48 1305.27,-74.12 1314.47,-79.36 1315.73,-72.48"/>
</g>
<!-- Node19 -->
<g id="node19" class="node">
<title>Node19</title>
<g id="a_node19"><a xlink:title=" ">
<polygon fill="white" stroke="#bfbfbf" points="1619.11,-56.5 1619.11,-75.5 1663.11,-75.5 1663.11,-56.5 1619.11,-56.5"/>
<text text-anchor="middle" x="1641.11" y="-63.5" font-family="Helvetica,sans-Serif" font-size="10.00">cfloat</text>
</a>
</g>
</g>
<!-- Node15&#45;&gt;Node19 -->
<g id="edge22" class="edge">
<title>Node15&#45;&gt;Node19</title>
<path fill="none" stroke="midnightblue" d="M1721.69,-112.32C1706.57,-103.82 1683.3,-90.73 1665.64,-80.8"/>
<polygon fill="midnightblue" stroke="midnightblue" points="1666.93,-77.51 1656.5,-75.65 1663.5,-83.61 1666.93,-77.51"/>
</g>
<!-- Node20 -->
<g id="node20" class="node">
<title>Node20</title>
<g id="a_node20"><a xlink:title=" ">
<polygon fill="white" stroke="#bfbfbf" points="1379.61,-0.5 1379.61,-19.5 1426.61,-19.5 1426.61,-0.5 1379.61,-0.5"/>
<text text-anchor="middle" x="1403.11" y="-7.5" font-family="Helvetica,sans-Serif" font-size="10.00">vector</text>
</a>
</g>
</g>
<!-- Node15&#45;&gt;Node20 -->
<g id="edge23" class="edge">
<title>Node15&#45;&gt;Node20</title>
<path fill="none" stroke="midnightblue" d="M1709.07,-117.4C1668.33,-111.62 1590.79,-98.58 1528.11,-76 1508.18,-68.82 1457.98,-41.59 1427.6,-24.73"/>
<polygon fill="midnightblue" stroke="midnightblue" points="1428.94,-21.47 1418.5,-19.66 1425.53,-27.59 1428.94,-21.47"/>
</g>
<!-- Node21 -->
<g id="node21" class="node">
<title>Node21</title>
<g id="a_node21"><a xlink:title=" ">
<polygon fill="white" stroke="#bfbfbf" points="1323.11,-56.5 1323.11,-75.5 1367.11,-75.5 1367.11,-56.5 1323.11,-56.5"/>
<text text-anchor="middle" x="1345.11" y="-63.5" font-family="Helvetica,sans-Serif" font-size="10.00">SDL.h</text>
</a>
</g>
</g>
<!-- Node15&#45;&gt;Node21 -->
<g id="edge25" class="edge">
<title>Node15&#45;&gt;Node21</title>
<path fill="none" stroke="midnightblue" d="M1708.78,-118.58C1648.27,-113.15 1502.04,-98.68 1381.11,-76 1379.87,-75.77 1378.6,-75.52 1377.32,-75.25"/>
<polygon fill="midnightblue" stroke="midnightblue" points="1378.02,-71.82 1367.49,-73.03 1376.47,-78.65 1378.02,-71.82"/>
</g>
<!-- Node22 -->
<g id="node22" class="node">
<title>Node22</title>
<g id="a_node22"><a xlink:title=" ">
<polygon fill="white" stroke="#bfbfbf" points="2587.11,-0.5 2587.11,-19.5 2635.11,-19.5 2635.11,-0.5 2587.11,-0.5"/>
<text text-anchor="middle" x="2611.11" y="-7.5" font-family="Helvetica,sans-Serif" font-size="10.00">mutex</text>
</a>
</g>
</g>
<!-- Node15&#45;&gt;Node22 -->
<g id="edge26" class="edge">
<title>Node15&#45;&gt;Node22</title>
<path fill="none" stroke="midnightblue" d="M1765.31,-120.43C1909.51,-117.38 2558.97,-102.23 2592.11,-76 2605.78,-65.19 2609.99,-45.1 2611.11,-30.11"/>
<polygon fill="midnightblue" stroke="midnightblue" points="2614.62,-30 2611.47,-19.88 2607.62,-29.75 2614.62,-30"/>
</g>
<!-- Node23 -->
<g id="node23" class="node">
<title>Node23</title>
<g id="a_node23"><a xlink:title=" ">
<polygon fill="white" stroke="#bfbfbf" points="1681.11,-56.5 1681.11,-75.5 1727.11,-75.5 1727.11,-56.5 1681.11,-56.5"/>
<text text-anchor="middle" x="1704.11" y="-63.5" font-family="Helvetica,sans-Serif" font-size="10.00">future</text>
</a>
</g>
</g>
<!-- Node15&#45;&gt;Node23 -->
<g id="edge27" class="edge">
<title>Node15&#45;&gt;Node23</title>
<path fill="none" stroke="midnightblue" d="M1731.66,-112.08C1727.1,-104.61 1720.44,-93.72 1714.82,-84.52"/>
<polygon fill="midnightblue" stroke="midnightblue" points="1717.66,-82.46 1709.46,-75.75 1711.69,-86.11 1717.66,-82.46"/>
</g>
<!-- Node24 -->
<g id="node24" class="node">
<title>Node24</title>
<g id="a_node24"><a xlink:title=" ">
<polygon fill="white" stroke="#bfbfbf" points="1745.11,-56.5 1745.11,-75.5 1795.11,-75.5 1795.11,-56.5 1745.11,-56.5"/>
<text text-anchor="middle" x="1770.11" y="-63.5" font-family="Helvetica,sans-Serif" font-size="10.00">fftw3.h</text>
</a>
</g>
</g>
<!-- Node15&#45;&gt;Node24 -->
<g id="edge29" class="edge">
<title>Node15&#45;&gt;Node24</title>
<path fill="none" stroke="midnightblue" d="M1742.56,-112.08C1747.13,-104.61 1753.78,-93.72 1759.41,-84.52"/>
<polygon fill="midnightblue" stroke="midnightblue" points="1762.54,-86.11 1764.76,-75.75 1756.56,-82.46 1762.54,-86.11"/>
</g>
<!-- Node25 -->
<g id="node25" class="node">
<title>Node25</title>
<g id="a_node25"><a xlink:title=" ">
<polygon fill="white" stroke="#bfbfbf" points="2109.11,-0.5 2109.11,-19.5 2159.11,-19.5 2159.11,-0.5 2109.11,-0.5"/>
<text text-anchor="middle" x="2134.11" y="-7.5" font-family="Helvetica,sans-Serif" font-size="10.00">chrono</text>
</a>
</g>
</g>
<!-- Node15&#45;&gt;Node25 -->
<g id="edge30" class="edge">
<title>Node15&#45;&gt;Node25</title>
<path fill="none" stroke="midnightblue" d="M1765.29,-120.78C1869.94,-119.66 2232.01,-113.12 2266.11,-76 2272.13,-69.45 2271.29,-63.23 2266.11,-56 2260.25,-47.81 2206.27,-31.26 2169.18,-20.68"/>
<polygon fill="midnightblue" stroke="midnightblue" points="2169.79,-17.21 2159.22,-17.86 2167.89,-23.95 2169.79,-17.21"/>
</g>
<!-- Node26 -->
<g id="node26" class="node">
<title>Node26</title>
<g id="a_node26"><a xlink:title=" ">
<polygon fill="white" stroke="#bfbfbf" points="1173.11,-56.5 1173.11,-75.5 1237.11,-75.5 1237.11,-56.5 1173.11,-56.5"/>
<text text-anchor="middle" x="1205.11" y="-63.5" font-family="Helvetica,sans-Serif" font-size="10.00">algorithm</text>
</a>
</g>
</g>
<!-- Node15&#45;&gt;Node26 -->
<g id="edge31" class="edge">
<title>Node15&#45;&gt;Node26</title>
<path fill="none" stroke="midnightblue" d="M1709.01,-119.65C1635.02,-115.85 1428.64,-103.56 1247.26,-75.99"/>
<polygon fill="midnightblue" stroke="midnightblue" points="1247.69,-72.52 1237.27,-74.46 1246.62,-79.44 1247.69,-72.52"/>
</g>
<!-- Node27 -->
<g id="node27" class="node">
<title>Node27</title>
<g id="a_node27"><a xlink:title=" ">
<polygon fill="white" stroke="#bfbfbf" points="1813.11,-56.5 1813.11,-75.5 1857.11,-75.5 1857.11,-56.5 1813.11,-56.5"/>
<text text-anchor="middle" x="1835.11" y="-63.5" font-family="Helvetica,sans-Serif" font-size="10.00">ctime</text>
</a>
</g>
</g>
<!-- Node15&#45;&gt;Node27 -->
<g id="edge32" class="edge">
<title>Node15&#45;&gt;Node27</title>
<path fill="none" stroke="midnightblue" d="M1752.86,-112.32C1768.43,-103.74 1792.49,-90.49 1810.57,-80.52"/>
<polygon fill="midnightblue" stroke="midnightblue" points="1812.34,-83.55 1819.41,-75.65 1808.96,-77.42 1812.34,-83.55"/>
</g>
<!-- Node28 -->
<g id="node28" class="node">
<title>Node28</title>
<g id="a_node28"><a xlink:href="../../d7/d50/BoundedThreadPool_8hpp.html" target="_top" xlink:title=" ">
<polygon fill="white" stroke="black" points="2447.61,-56.5 2447.61,-75.5 2582.61,-75.5 2582.61,-56.5 2447.61,-56.5"/>
<text text-anchor="middle" x="2515.11" y="-63.5" font-family="Helvetica,sans-Serif" font-size="10.00">BoundedThreadPool.hpp</text>
</a>
</g>
</g>
<!-- Node15&#45;&gt;Node28 -->
<g id="edge33" class="edge">
<title>Node15&#45;&gt;Node28</title>
<path fill="none" stroke="midnightblue" d="M1765.2,-119.72C1858.82,-115.36 2168.97,-100.02 2437.2,-76.03"/>
<polygon fill="midnightblue" stroke="midnightblue" points="2437.88,-79.48 2447.53,-75.1 2437.25,-72.51 2437.88,-79.48"/>
</g>
<!-- Node33 -->
<g id="node33" class="node">
<title>Node33</title>
<g id="a_node33"><a xlink:title=" ">
<polygon fill="white" stroke="#bfbfbf" points="1078.11,-0.5 1078.11,-19.5 1180.11,-19.5 1180.11,-0.5 1078.11,-0.5"/>
<text text-anchor="middle" x="1129.11" y="-7.5" font-family="Helvetica,sans-Serif" font-size="10.00">tinycolormap.hpp</text>
</a>
</g>
</g>
<!-- Node15&#45;&gt;Node33 -->
<g id="edge41" class="edge">
<title>Node15&#45;&gt;Node33</title>
<path fill="none" stroke="midnightblue" d="M1708.8,-119.7C1656.07,-116.61 1539.75,-106.62 1447.11,-76 1428.99,-70.01 1427.22,-62.04 1409.11,-56 1398.82,-52.57 1269.86,-32.51 1190.59,-20.36"/>
<polygon fill="midnightblue" stroke="midnightblue" points="1190.65,-16.83 1180.23,-18.78 1189.59,-23.75 1190.65,-16.83"/>
</g>
<!-- Node34 -->
<g id="node34" class="node">
<title>Node34</title>
<g id="a_node34"><a xlink:title=" ">
<polygon fill="white" stroke="#bfbfbf" points="1095.11,-56.5 1095.11,-75.5 1155.11,-75.5 1155.11,-56.5 1095.11,-56.5"/>
<text text-anchor="middle" x="1125.11" y="-63.5" font-family="Helvetica,sans-Serif" font-size="10.00">fft2d.hpp</text>
</a>
</g>
</g>
<!-- Node15&#45;&gt;Node34 -->
<g id="edge42" class="edge">
<title>Node15&#45;&gt;Node34</title>
<path fill="none" stroke="midnightblue" d="M1708.92,-120.27C1626.63,-117.81 1379.6,-108.23 1165.43,-75.98"/>
<polygon fill="midnightblue" stroke="midnightblue" points="1165.67,-72.47 1155.26,-74.42 1164.62,-79.39 1165.67,-72.47"/>
</g>
<!-- Node35 -->
<g id="node35" class="node">
<title>Node35</title>
<g id="a_node35"><a xlink:href="../../d0/d3c/SocketConnector_8h.html" target="_top" xlink:title=" ">
<polygon fill="white" stroke="black" points="2639.61,-56.5 2639.61,-75.5 2746.61,-75.5 2746.61,-56.5 2639.61,-56.5"/>
<text text-anchor="middle" x="2693.11" y="-63.5" font-family="Helvetica,sans-Serif" font-size="10.00">SocketConnector.h</text>
</a>
</g>
</g>
<!-- Node15&#45;&gt;Node35 -->
<g id="edge43" class="edge">
<title>Node15&#45;&gt;Node35</title>
<path fill="none" stroke="midnightblue" d="M1765.17,-120.41C1875.12,-117.9 2287.3,-106.86 2625.11,-76 2626.41,-75.88 2627.73,-75.76 2629.05,-75.63"/>
<polygon fill="midnightblue" stroke="midnightblue" points="2629.76,-79.07 2639.34,-74.53 2629.02,-72.11 2629.76,-79.07"/>
</g>
<!-- Node39 -->
<g id="node39" class="node">
<title>Node39</title>
<g id="a_node39"><a xlink:href="../../da/dce/ProgressMonitor_8h.html" target="_top" xlink:title=" ">
<polygon fill="white" stroke="red" points="2325.11,-56.5 2325.11,-75.5 2429.11,-75.5 2429.11,-56.5 2325.11,-56.5"/>
<text text-anchor="middle" x="2377.11" y="-63.5" font-family="Helvetica,sans-Serif" font-size="10.00">ProgressMonitor.h</text>
</a>
</g>
</g>
<!-- Node15&#45;&gt;Node39 -->
<g id="edge50" class="edge">
<title>Node15&#45;&gt;Node39</title>
<path fill="none" stroke="midnightblue" d="M1765.24,-119.37C1848.65,-114.4 2101.9,-98.45 2311.11,-76 2312.37,-75.86 2313.65,-75.72 2314.93,-75.58"/>
<polygon fill="midnightblue" stroke="midnightblue" points="2315.39,-79.05 2324.91,-74.4 2314.57,-72.1 2315.39,-79.05"/>
</g>
<!-- Node42 -->
<g id="node40" class="node">
<title>Node42</title>
<g id="a_node40"><a xlink:title=" ">
<polygon fill="white" stroke="#bfbfbf" points="1875.11,-56.5 1875.11,-75.5 1975.11,-75.5 1975.11,-56.5 1875.11,-56.5"/>
<text text-anchor="middle" x="1925.11" y="-63.5" font-family="Helvetica,sans-Serif" font-size="10.00">MerlinInterface.h</text>
</a>
</g>
</g>
<!-- Node15&#45;&gt;Node42 -->
<g id="edge56" class="edge">
<title>Node15&#45;&gt;Node42</title>
<path fill="none" stroke="midnightblue" d="M1765.26,-112.92C1797.19,-103.74 1849.48,-88.72 1885.52,-78.37"/>
<polygon fill="midnightblue" stroke="midnightblue" points="1886.57,-81.71 1895.22,-75.59 1884.64,-74.98 1886.57,-81.71"/>
</g>
<!-- Node43 -->
<g id="node41" class="node">
<title>Node43</title>
<g id="a_node41"><a xlink:title=" ">
<polygon fill="white" stroke="#bfbfbf" points="1993.11,-56.5 1993.11,-75.5 2103.11,-75.5 2103.11,-56.5 1993.11,-56.5"/>
<text text-anchor="middle" x="2048.11" y="-63.5" font-family="Helvetica,sans-Serif" font-size="10.00">CheetahInterface.h</text>
</a>
</g>
</g>
<!-- Node15&#45;&gt;Node43 -->
<g id="edge57" class="edge">
<title>Node15&#45;&gt;Node43</title>
<path fill="none" stroke="midnightblue" d="M1765.26,-116.11C1815.61,-107.37 1922.07,-88.89 1989.06,-77.25"/>
<polygon fill="midnightblue" stroke="midnightblue" points="1989.8,-80.68 1999.05,-75.52 1988.6,-73.78 1989.8,-80.68"/>
</g>
<!-- Node44 -->
<g id="node42" class="node">
<title>Node44</title>
<g id="a_node42"><a xlink:title=" ">
<polygon fill="white" stroke="#bfbfbf" points="2121.61,-56.5 2121.61,-75.5 2230.61,-75.5 2230.61,-56.5 2121.61,-56.5"/>
<text text-anchor="middle" x="2176.11" y="-63.5" font-family="Helvetica,sans-Serif" font-size="10.00">TimepixInterface.h</text>
</a>
</g>
</g>
<!-- Node15&#45;&gt;Node44 -->
<g id="edge58" class="edge">
<title>Node15&#45;&gt;Node44</title>
<path fill="none" stroke="midnightblue" d="M1765.36,-117.81C1826.37,-110.87 1975.21,-93.72 2111.13,-76.1"/>
<polygon fill="midnightblue" stroke="midnightblue" points="2111.84,-79.54 2121.31,-74.78 2110.94,-72.6 2111.84,-79.54"/>
</g>
<!-- Node45 -->
<g id="node43" class="node">
<title>Node45</title>
<g id="a_node43"><a xlink:href="../../dd/de4/Camera_8h.html" target="_top" xlink:title=" ">
<polygon fill="white" stroke="red" points="1537.11,-56.5 1537.11,-75.5 1601.11,-75.5 1601.11,-56.5 1537.11,-56.5"/>
<text text-anchor="middle" x="1569.11" y="-63.5" font-family="Helvetica,sans-Serif" font-size="10.00">Camera.h</text>
</a>
</g>
</g>
<!-- Node15&#45;&gt;Node45 -->
<g id="edge59" class="edge">
<title>Node15&#45;&gt;Node45</title>
<path fill="none" stroke="midnightblue" d="M1710.49,-112.44C1682.11,-103.32 1636.98,-88.81 1605.36,-78.65"/>
<polygon fill="midnightblue" stroke="midnightblue" points="1606.2,-75.24 1595.61,-75.52 1604.06,-81.91 1606.2,-75.24"/>
</g>
<!-- Node15&#45;&gt;Node48 -->
<g id="edge62" class="edge">
<title>Node15&#45;&gt;Node48</title>
<path fill="none" stroke="midnightblue" d="M1708.86,-119.11C1588.57,-111.06 1118.52,-79.61 973.18,-69.88"/>
<polygon fill="midnightblue" stroke="midnightblue" points="973.1,-66.37 962.89,-69.19 972.63,-73.35 973.1,-66.37"/>
</g>
<!-- Node28&#45;&gt;Node3 -->
<g id="edge34" class="edge">
<title>Node28&#45;&gt;Node3</title>
<path fill="none" stroke="midnightblue" d="M2582.96,-59.33C2682.74,-50.76 2865.33,-34.18 2948.23,-19.83"/>
<polygon fill="midnightblue" stroke="midnightblue" points="2948.85,-23.27 2958.07,-18.04 2947.6,-16.38 2948.85,-23.27"/>
</g>
<!-- Node28&#45;&gt;Node4 -->
<g id="edge40" class="edge">
<title>Node28&#45;&gt;Node4</title>
<path fill="none" stroke="midnightblue" d="M2541.73,-56.44C2570.12,-47.32 2615.25,-32.81 2646.87,-22.65"/>
<polygon fill="midnightblue" stroke="midnightblue" points="2648.17,-25.91 2656.62,-19.52 2646.03,-19.24 2648.17,-25.91"/>
</g>
<!-- Node28&#45;&gt;Node22 -->
<g id="edge37" class="edge">
<title>Node28&#45;&gt;Node22</title>
<path fill="none" stroke="midnightblue" d="M2530.54,-56.32C2545.65,-47.82 2568.93,-34.73 2586.58,-24.8"/>
<polygon fill="midnightblue" stroke="midnightblue" points="2588.73,-27.61 2595.73,-19.65 2585.3,-21.51 2588.73,-27.61"/>
</g>
<!-- Node29 -->
<g id="node29" class="node">
<title>Node29</title>
<g id="a_node29"><a xlink:title=" ">
<polygon fill="white" stroke="#bfbfbf" points="2453.61,-0.5 2453.61,-19.5 2500.61,-19.5 2500.61,-0.5 2453.61,-0.5"/>
<text text-anchor="middle" x="2477.11" y="-7.5" font-family="Helvetica,sans-Serif" font-size="10.00">queue</text>
</a>
</g>
</g>
<!-- Node28&#45;&gt;Node29 -->
<g id="edge35" class="edge">
<title>Node28&#45;&gt;Node29</title>
<path fill="none" stroke="midnightblue" d="M2508.84,-56.08C2503.47,-48.46 2495.59,-37.26 2489.03,-27.94"/>
<polygon fill="midnightblue" stroke="midnightblue" points="2491.89,-25.91 2483.27,-19.75 2486.16,-29.94 2491.89,-25.91"/>
</g>
<!-- Node30 -->
<g id="node30" class="node">
<title>Node30</title>
<g id="a_node30"><a xlink:title=" ">
<polygon fill="white" stroke="#bfbfbf" points="2245.61,-0.5 2245.61,-19.5 2310.61,-19.5 2310.61,-0.5 2245.61,-0.5"/>
<text text-anchor="middle" x="2278.11" y="-7.5" font-family="Helvetica,sans-Serif" font-size="10.00">functional</text>
</a>
</g>
</g>
<!-- Node28&#45;&gt;Node30 -->
<g id="edge36" class="edge">
<title>Node28&#45;&gt;Node30</title>
<path fill="none" stroke="midnightblue" d="M2477.56,-56.44C2434.94,-46.73 2365.55,-30.92 2320.88,-20.74"/>
<polygon fill="midnightblue" stroke="midnightblue" points="2321.44,-17.28 2310.91,-18.47 2319.88,-24.11 2321.44,-17.28"/>
</g>
<!-- Node31 -->
<g id="node31" class="node">
<title>Node31</title>
<g id="a_node31"><a xlink:title=" ">
<polygon fill="white" stroke="#bfbfbf" points="2328.61,-0.5 2328.61,-19.5 2435.61,-19.5 2435.61,-0.5 2328.61,-0.5"/>
<text text-anchor="middle" x="2382.11" y="-7.5" font-family="Helvetica,sans-Serif" font-size="10.00">condition_variable</text>
</a>
</g>
</g>
<!-- Node28&#45;&gt;Node31 -->
<g id="edge38" class="edge">
<title>Node28&#45;&gt;Node31</title>
<path fill="none" stroke="midnightblue" d="M2494.04,-56.44C2472.05,-47.52 2437.38,-33.44 2412.45,-23.32"/>
<polygon fill="midnightblue" stroke="midnightblue" points="2413.67,-20.04 2403.09,-19.52 2411.04,-26.52 2413.67,-20.04"/>
</g>
<!-- Node32 -->
<g id="node32" class="node">
<title>Node32</title>
<g id="a_node32"><a xlink:title=" ">
<polygon fill="white" stroke="#bfbfbf" points="2177.11,-0.5 2177.11,-19.5 2227.11,-19.5 2227.11,-0.5 2177.11,-0.5"/>
<text text-anchor="middle" x="2202.11" y="-7.5" font-family="Helvetica,sans-Serif" font-size="10.00">atomic</text>
</a>
</g>
</g>
<!-- Node28&#45;&gt;Node32 -->
<g id="edge39" class="edge">
<title>Node28&#45;&gt;Node32</title>
<path fill="none" stroke="midnightblue" d="M2452.15,-56.48C2395.61,-48.43 2310.45,-35.33 2237.11,-20 2237.01,-19.98 2236.91,-19.96 2236.81,-19.94"/>
<polygon fill="midnightblue" stroke="midnightblue" points="2237.81,-16.57 2227.28,-17.77 2236.26,-23.4 2237.81,-16.57"/>
</g>
<!-- Node35&#45;&gt;Node2 -->
<g id="edge48" class="edge">
<title>Node35&#45;&gt;Node2</title>
<path fill="none" stroke="midnightblue" d="M2639.43,-59.53C2624.16,-58.16 2607.49,-56.84 2592.11,-56 2197.92,-34.5 1211.2,-79.26 802.45,-19.72"/>
<polygon fill="midnightblue" stroke="midnightblue" points="802.71,-16.22 792.31,-18.2 801.68,-23.14 802.71,-16.22"/>
</g>
<!-- Node35&#45;&gt;Node4 -->
<g id="edge49" class="edge">
<title>Node35&#45;&gt;Node4</title>
<path fill="none" stroke="midnightblue" d="M2691.46,-56.08C2690.14,-48.93 2688.23,-38.64 2686.57,-29.69"/>
<polygon fill="midnightblue" stroke="midnightblue" points="2690,-28.95 2684.73,-19.75 2683.11,-30.22 2690,-28.95"/>
</g>
<!-- Node35&#45;&gt;Node16 -->
<g id="edge45" class="edge">
<title>Node35&#45;&gt;Node16</title>
<path fill="none" stroke="midnightblue" d="M2727.81,-56.44C2767.62,-46.63 2832.68,-30.59 2873.91,-20.42"/>
<polygon fill="midnightblue" stroke="midnightblue" points="2874.97,-23.76 2883.84,-17.97 2873.29,-16.97 2874.97,-23.76"/>
</g>
<!-- Node36 -->
<g id="node36" class="node">
<title>Node36</title>
<g id="a_node36"><a xlink:title=" ">
<polygon fill="white" stroke="#bfbfbf" points="2731.61,-0.5 2731.61,-19.5 2800.61,-19.5 2800.61,-0.5 2731.61,-0.5"/>
<text text-anchor="middle" x="2766.11" y="-7.5" font-family="Helvetica,sans-Serif" font-size="10.00">arpa/inet.h</text>
</a>
</g>
</g>
<!-- Node35&#45;&gt;Node36 -->
<g id="edge44" class="edge">
<title>Node35&#45;&gt;Node36</title>
<path fill="none" stroke="midnightblue" d="M2704.84,-56.32C2715.95,-48.11 2732.85,-35.6 2746.1,-25.81"/>
<polygon fill="midnightblue" stroke="midnightblue" points="2748.21,-28.59 2754.17,-19.83 2744.05,-22.97 2748.21,-28.59"/>
</g>
<!-- Node37 -->
<g id="node37" class="node">
<title>Node37</title>
<g id="a_node37"><a xlink:title=" ">
<polygon fill="white" stroke="#bfbfbf" points="2818.61,-0.5 2818.61,-19.5 2865.61,-19.5 2865.61,-0.5 2818.61,-0.5"/>
<text text-anchor="middle" x="2842.11" y="-7.5" font-family="Helvetica,sans-Serif" font-size="10.00">cerrno</text>
</a>
</g>
</g>
<!-- Node35&#45;&gt;Node37 -->
<g id="edge46" class="edge">
<title>Node35&#45;&gt;Node37</title>
<path fill="none" stroke="midnightblue" d="M2716.72,-56.44C2741.57,-47.44 2780.89,-33.19 2808.87,-23.05"/>
<polygon fill="midnightblue" stroke="midnightblue" points="2810.4,-26.21 2818.61,-19.52 2808.02,-19.63 2810.4,-26.21"/>
</g>
<!-- Node38 -->
<g id="node38" class="node">
<title>Node38</title>
<g id="a_node38"><a xlink:title=" ">
<polygon fill="white" stroke="#bfbfbf" points="2519.11,-0.5 2519.11,-19.5 2569.11,-19.5 2569.11,-0.5 2519.11,-0.5"/>
<text text-anchor="middle" x="2544.11" y="-7.5" font-family="Helvetica,sans-Serif" font-size="10.00">cstring</text>
</a>
</g>
</g>
<!-- Node35&#45;&gt;Node38 -->
<g id="edge47" class="edge">
<title>Node35&#45;&gt;Node38</title>
<path fill="none" stroke="midnightblue" d="M2669.5,-56.44C2644.65,-47.44 2605.34,-33.19 2577.36,-23.05"/>
<polygon fill="midnightblue" stroke="midnightblue" points="2578.21,-19.63 2567.61,-19.52 2575.82,-26.21 2578.21,-19.63"/>
</g>
<!-- Node39&#45;&gt;Node4 -->
<g id="edge51" class="edge">
<title>Node39&#45;&gt;Node4</title>
<path fill="none" stroke="midnightblue" d="M2429.22,-57.16C2480.94,-49.17 2562.73,-35.97 2642.67,-20.19"/>
<polygon fill="midnightblue" stroke="midnightblue" points="2643.79,-23.54 2652.92,-18.16 2642.43,-16.67 2643.79,-23.54"/>
</g>
<!-- Node39&#45;&gt;Node17 -->
<g id="edge55" class="edge">
<title>Node39&#45;&gt;Node17</title>
<path fill="none" stroke="midnightblue" d="M2324.99,-58.2C2271.21,-50.81 2184.74,-37.9 2100.79,-19.95"/>
<polygon fill="midnightblue" stroke="midnightblue" points="2101.35,-16.48 2090.83,-17.79 2099.87,-23.33 2101.35,-16.48"/>
</g>
<!-- Node39&#45;&gt;Node25 -->
<g id="edge54" class="edge">
<title>Node39&#45;&gt;Node25</title>
<path fill="none" stroke="midnightblue" d="M2334.55,-56.44C2294.37,-48.23 2232.21,-35.18 2169.41,-20.23"/>
<polygon fill="midnightblue" stroke="midnightblue" points="2169.87,-16.74 2159.33,-17.82 2168.24,-23.55 2169.87,-16.74"/>
</g>
<!-- Node39&#45;&gt;Node32 -->
<g id="edge53" class="edge">
<title>Node39&#45;&gt;Node32</title>
<path fill="none" stroke="midnightblue" d="M2349.38,-56.44C2318.9,-47.04 2269.88,-31.91 2236.86,-21.72"/>
<polygon fill="midnightblue" stroke="midnightblue" points="2237.75,-18.33 2227.16,-18.73 2235.68,-25.02 2237.75,-18.33"/>
</g>
<!-- Node39&#45;&gt;Node38 -->
<g id="edge52" class="edge">
<title>Node39&#45;&gt;Node38</title>
<path fill="none" stroke="midnightblue" d="M2403.57,-56.44C2432.12,-47.21 2477.71,-32.47 2509.18,-22.29"/>
<polygon fill="midnightblue" stroke="midnightblue" points="2510.43,-25.57 2518.87,-19.16 2508.28,-18.91 2510.43,-25.57"/>
</g>
<!-- Node45&#45;&gt;Node20 -->
<g id="edge60" class="edge">
<title>Node45&#45;&gt;Node20</title>
<path fill="none" stroke="midnightblue" d="M1542.81,-56.44C1514.02,-47.08 1467.8,-32.04 1436.48,-21.85"/>
<polygon fill="midnightblue" stroke="midnightblue" points="1437.46,-18.49 1426.87,-18.73 1435.3,-25.15 1437.46,-18.49"/>
</g>
<!-- Node45&#45;&gt;Node32 -->
<g id="edge61" class="edge">
<title>Node45&#45;&gt;Node32</title>
<path fill="none" stroke="midnightblue" d="M1601.26,-57.46C1604.24,-56.91 1607.23,-56.41 1610.11,-56 1852.94,-21.72 1921.05,-58.98 2167.02,-19.85"/>
<polygon fill="midnightblue" stroke="midnightblue" points="2167.67,-23.29 2176.98,-18.24 2166.55,-16.38 2167.67,-23.29"/>
</g>
<!-- Node48&#45;&gt;Node2 -->
<g id="edge63" class="edge">
<title>Node48&#45;&gt;Node2</title>
<path fill="none" stroke="midnightblue" d="M904.76,-56.44C876.89,-47.04 832.08,-31.91 801.89,-21.72"/>
<polygon fill="midnightblue" stroke="midnightblue" points="802.85,-18.35 792.25,-18.47 800.61,-24.99 802.85,-18.35"/>
</g>
<!-- Node48&#45;&gt;Node5 -->
<g id="edge65" class="edge">
<title>Node48&#45;&gt;Node5</title>
<path fill="none" stroke="midnightblue" d="M962.93,-59.89C1010.37,-52.37 1101.09,-37.52 1188.28,-20.08"/>
<polygon fill="midnightblue" stroke="midnightblue" points="1189.23,-23.45 1198.34,-18.05 1187.84,-16.59 1189.23,-23.45"/>
</g>
<!-- Node48&#45;&gt;Node7 -->
<g id="edge68" class="edge">
<title>Node48&#45;&gt;Node7</title>
<path fill="none" stroke="midnightblue" d="M897.51,-57.43C894.68,-56.9 891.85,-56.41 889.11,-56 698.98,-27.41 468.6,-15.89 380.64,-12.33"/>
<polygon fill="midnightblue" stroke="midnightblue" points="380.76,-8.83 370.63,-11.93 380.48,-15.83 380.76,-8.83"/>
</g>
<!-- Node48&#45;&gt;Node11 -->
<g id="edge69" class="edge">
<title>Node48&#45;&gt;Node11</title>
<path fill="none" stroke="midnightblue" d="M897.44,-57.82C894.62,-57.2 891.82,-56.59 889.11,-56 835.17,-44.22 773.31,-30.78 731.37,-21.68"/>
<polygon fill="midnightblue" stroke="midnightblue" points="731.93,-18.22 721.42,-19.52 730.45,-25.06 731.93,-18.22"/>
</g>
<!-- Node48&#45;&gt;Node20 -->
<g id="edge64" class="edge">
<title>Node48&#45;&gt;Node20</title>
<path fill="none" stroke="midnightblue" d="M962.62,-61.29C1048.68,-51.46 1281.78,-24.85 1369.3,-14.86"/>
<polygon fill="midnightblue" stroke="midnightblue" points="1369.93,-18.31 1379.47,-13.7 1369.14,-11.36 1369.93,-18.31"/>
</g>
<!-- Node48&#45;&gt;Node33 -->
<g id="edge71" class="edge">
<title>Node48&#45;&gt;Node33</title>
<path fill="none" stroke="midnightblue" d="M961.64,-56.44C995.7,-47.2 1050.12,-32.44 1087.63,-22.26"/>
<polygon fill="midnightblue" stroke="midnightblue" points="1088.99,-25.51 1097.73,-19.52 1087.16,-18.76 1088.99,-25.51"/>
</g>
<!-- Node49 -->
<g id="node45" class="node">
<title>Node49</title>
<g id="a_node45"><a xlink:title=" ">
<polygon fill="white" stroke="#bfbfbf" points="894.11,-0.5 894.11,-19.5 962.11,-19.5 962.11,-0.5 894.11,-0.5"/>
<text text-anchor="middle" x="928.11" y="-7.5" font-family="Helvetica,sans-Serif" font-size="10.00">filesystem</text>
</a>
</g>
</g>
<!-- Node48&#45;&gt;Node49 -->
<g id="edge66" class="edge">
<title>Node48&#45;&gt;Node49</title>
<path fill="none" stroke="midnightblue" d="M929.78,-56.08C929.52,-49.01 929.14,-38.86 928.82,-29.99"/>
<polygon fill="midnightblue" stroke="midnightblue" points="932.3,-29.61 928.44,-19.75 925.31,-29.87 932.3,-29.61"/>
</g>
<!-- Node50 -->
<g id="node46" class="node">
<title>Node50</title>
<g id="a_node46"><a xlink:title=" ">
<polygon fill="white" stroke="#bfbfbf" points="980.11,-0.5 980.11,-19.5 1060.11,-19.5 1060.11,-0.5 980.11,-0.5"/>
<text text-anchor="middle" x="1020.11" y="-7.5" font-family="Helvetica,sans-Serif" font-size="10.00">SDL_image.h</text>
</a>
</g>
</g>
<!-- Node48&#45;&gt;Node50 -->
<g id="edge67" class="edge">
<title>Node48&#45;&gt;Node50</title>
<path fill="none" stroke="midnightblue" d="M944.57,-56.32C958.61,-47.9 980.16,-34.97 996.66,-25.07"/>
<polygon fill="midnightblue" stroke="midnightblue" points="998.91,-27.8 1005.69,-19.65 995.31,-21.8 998.91,-27.8"/>
</g>
<!-- Node51 -->
<g id="node47" class="node">
<title>Node51</title>
<g id="a_node47"><a xlink:title=" ">
<polygon fill="white" stroke="#bfbfbf" points="810.11,-0.5 810.11,-19.5 876.11,-19.5 876.11,-0.5 810.11,-0.5"/>
<text text-anchor="middle" x="843.11" y="-7.5" font-family="Helvetica,sans-Serif" font-size="10.00">libnpy.hpp</text>
</a>
</g>
</g>
<!-- Node48&#45;&gt;Node51 -->
<g id="edge70" class="edge">
<title>Node48&#45;&gt;Node51</title>
<path fill="none" stroke="midnightblue" d="M916.13,-56.32C902.56,-47.9 881.73,-34.97 865.79,-25.07"/>
<polygon fill="midnightblue" stroke="midnightblue" points="867.4,-21.95 857.06,-19.65 863.71,-27.9 867.4,-21.95"/>
</g>
<!-- Node53&#45;&gt;Node2 -->
<g id="edge76" class="edge">
<title>Node53&#45;&gt;Node2</title>
<path fill="none" stroke="midnightblue" d="M784.86,-112.37C782.28,-94.62 776.32,-53.67 772.82,-29.6"/>
<polygon fill="midnightblue" stroke="midnightblue" points="776.27,-28.98 771.36,-19.59 769.34,-29.99 776.27,-28.98"/>
</g>
<!-- Node53&#45;&gt;Node7 -->
<g id="edge83" class="edge">
<title>Node53&#45;&gt;Node7</title>
<path fill="none" stroke="midnightblue" d="M774.64,-112.36C755,-98.05 713.17,-69.67 673.11,-56 571.25,-21.23 442.98,-13.24 380.99,-11.46"/>
<polygon fill="midnightblue" stroke="midnightblue" points="381,-7.96 370.92,-11.21 380.83,-14.96 381,-7.96"/>
</g>
<!-- Node53&#45;&gt;Node8 -->
<g id="edge84" class="edge">
<title>Node53&#45;&gt;Node8</title>
<path fill="none" stroke="midnightblue" d="M723.89,-116.17C635.59,-109.08 468.61,-94.74 316.31,-76.09"/>
<polygon fill="midnightblue" stroke="midnightblue" points="316.65,-72.6 306.3,-74.85 315.79,-79.55 316.65,-72.6"/>
</g>
<!-- Node53&#45;&gt;Node9 -->
<g id="edge85" class="edge">
<title>Node53&#45;&gt;Node9</title>
<path fill="none" stroke="midnightblue" d="M723.77,-112.56C652.24,-102.88 535.12,-87.03 459.59,-76.81"/>
<polygon fill="midnightblue" stroke="midnightblue" points="460.05,-73.34 449.68,-75.47 459.12,-80.28 460.05,-73.34"/>
</g>
<!-- Node53&#45;&gt;Node10 -->
<g id="edge86" class="edge">
<title>Node53&#45;&gt;Node10</title>
<path fill="none" stroke="midnightblue" d="M742.54,-112.44C694.26,-102.96 616.4,-87.67 564.5,-77.48"/>
<polygon fill="midnightblue" stroke="midnightblue" points="564.97,-74.01 554.48,-75.52 563.62,-80.88 564.97,-74.01"/>
</g>
<!-- Node53&#45;&gt;Node11 -->
<g id="edge87" class="edge">
<title>Node53&#45;&gt;Node11</title>
<path fill="none" stroke="midnightblue" d="M777.95,-112.37C760.56,-93.97 719.62,-50.67 697.29,-27.05"/>
<polygon fill="midnightblue" stroke="midnightblue" points="699.65,-24.45 690.24,-19.59 694.56,-29.26 699.65,-24.45"/>
</g>
<!-- Node53&#45;&gt;Node12 -->
<g id="edge88" class="edge">
<title>Node53&#45;&gt;Node12</title>
<path fill="none" stroke="midnightblue" d="M759.49,-112.44C731.11,-103.32 685.98,-88.81 654.36,-78.65"/>
<polygon fill="midnightblue" stroke="midnightblue" points="655.2,-75.24 644.61,-75.52 653.06,-81.91 655.2,-75.24"/>
</g>
<!-- Node53&#45;&gt;Node18 -->
<g id="edge77" class="edge">
<title>Node53&#45;&gt;Node18</title>
<path fill="none" stroke="midnightblue" d="M848.3,-118.1C935.12,-113.35 1097.64,-101.91 1244.84,-75.95"/>
<polygon fill="midnightblue" stroke="midnightblue" points="1245.74,-79.35 1254.96,-74.14 1244.5,-72.46 1245.74,-79.35"/>
</g>
<!-- Node53&#45;&gt;Node20 -->
<g id="edge75" class="edge">
<title>Node53&#45;&gt;Node20</title>
<path fill="none" stroke="midnightblue" d="M831.11,-112.48C875.86,-103.86 946.42,-89.85 1007.11,-76 1042.42,-67.94 1050.58,-63 1086.11,-56 1188.54,-35.82 1311.3,-21.03 1369.42,-14.58"/>
<polygon fill="midnightblue" stroke="midnightblue" points="1369.95,-18.05 1379.5,-13.48 1369.18,-11.09 1369.95,-18.05"/>
</g>
<!-- Node53&#45;&gt;Node21 -->
<g id="edge79" class="edge">
<title>Node53&#45;&gt;Node21</title>
<path fill="none" stroke="midnightblue" d="M848.42,-119.66C945.84,-116.71 1140.11,-107.3 1312.85,-75.88"/>
<polygon fill="midnightblue" stroke="midnightblue" points="1313.69,-79.28 1322.89,-74.02 1312.42,-72.4 1313.69,-79.28"/>
</g>
<!-- Node53&#45;&gt;Node26 -->
<g id="edge78" class="edge">
<title>Node53&#45;&gt;Node26</title>
<path fill="none" stroke="midnightblue" d="M848.25,-115.48C921.25,-108.57 1046.17,-95.45 1162.77,-76.08"/>
<polygon fill="midnightblue" stroke="midnightblue" points="1163.66,-79.48 1172.94,-74.37 1162.5,-72.58 1163.66,-79.48"/>
</g>
<!-- Node53&#45;&gt;Node33 -->
<g id="edge81" class="edge">
<title>Node53&#45;&gt;Node33</title>
<path fill="none" stroke="midnightblue" d="M832.33,-112.47C870.41,-104.82 925.54,-92.28 972.11,-76 992.01,-69.04 995.75,-64.32 1015.11,-56 1042.36,-44.3 1073.73,-32 1096.66,-23.22"/>
<polygon fill="midnightblue" stroke="midnightblue" points="1098.14,-26.4 1106.24,-19.57 1095.65,-19.86 1098.14,-26.4"/>
</g>
<!-- Node53&#45;&gt;Node34 -->
<g id="edge82" class="edge">
<title>Node53&#45;&gt;Node34</title>
<path fill="none" stroke="midnightblue" d="M848.13,-112.47C907.93,-104.02 1000.91,-90.31 1081.11,-76 1082.36,-75.78 1083.64,-75.55 1084.92,-75.31"/>
<polygon fill="midnightblue" stroke="midnightblue" points="1085.69,-78.72 1094.85,-73.4 1084.37,-71.85 1085.69,-78.72"/>
</g>
<!-- Node53&#45;&gt;Node48 -->
<g id="edge89" class="edge">
<title>Node53&#45;&gt;Node48</title>
<path fill="none" stroke="midnightblue" d="M808.93,-112.44C832.94,-103.44 870.94,-89.19 897.98,-79.05"/>
<polygon fill="midnightblue" stroke="midnightblue" points="899.27,-82.3 907.4,-75.52 896.81,-75.75 899.27,-82.3"/>
</g>
<!-- Node54 -->
<g id="node50" class="node">
<title>Node54</title>
<g id="a_node50"><a xlink:title=" ">
<polygon fill="white" stroke="#bfbfbf" points="796.61,-56.5 796.61,-75.5 879.61,-75.5 879.61,-56.5 796.61,-56.5"/>
<text text-anchor="middle" x="838.11" y="-63.5" font-family="Helvetica,sans-Serif" font-size="10.00">SDL_opengl.h</text>
</a>
</g>
</g>
<!-- Node53&#45;&gt;Node54 -->
<g id="edge80" class="edge">
<title>Node53&#45;&gt;Node54</title>
<path fill="none" stroke="midnightblue" d="M794.7,-112.08C802.27,-104.22 813.49,-92.57 822.63,-83.08"/>
<polygon fill="midnightblue" stroke="midnightblue" points="825.27,-85.38 829.69,-75.75 820.23,-80.53 825.27,-85.38"/>
</g>
</g>
</svg>
