<?xml version="1.0" encoding="UTF-8" standalone="no"?>
<!DOCTYPE svg PUBLIC "-//W3C//DTD SVG 1.1//EN"
 "http://www.w3.org/Graphics/SVG/1.1/DTD/svg11.dtd">
<!-- Generated by graphviz version 2.43.0 (0)
 -->
<!-- Title: src/RunGUI.cpp Pages: 1 -->
<svg width="2779pt" height="196pt"
 viewBox="0.00 0.00 2779.22 196.00" xmlns="http://www.w3.org/2000/svg" xmlns:xlink="http://www.w3.org/1999/xlink">
<g id="graph0" class="graph" transform="scale(1 1) rotate(0) translate(4 192)">
<title>src/RunGUI.cpp</title>
<polygon fill="white" stroke="transparent" points="-4,4 -4,-192 2775.22,-192 2775.22,4 -4,4"/>
<!-- Node1 -->
<g id="node1" class="node">
<title>Node1</title>
<g id="a_node1"><a xlink:title=" ">
<polygon fill="#bfbfbf" stroke="black" points="1723.5,-168.5 1723.5,-187.5 1814.5,-187.5 1814.5,-168.5 1723.5,-168.5"/>
<text text-anchor="middle" x="1769" y="-175.5" font-family="Helvetica,sans-Serif" font-size="10.00">src/RunGUI.cpp</text>
</a>
</g>
</g>
<!-- Node2 -->
<g id="node2" class="node">
<title>Node2</title>
<g id="a_node2"><a xlink:title=" ">
<polygon fill="white" stroke="#bfbfbf" points="1334,-0.5 1334,-19.5 1378,-19.5 1378,-0.5 1334,-0.5"/>
<text text-anchor="middle" x="1356" y="-7.5" font-family="Helvetica,sans-Serif" font-size="10.00">string</text>
</a>
</g>
</g>
<!-- Node1&#45;&gt;Node2 -->
<g id="edge1" class="edge">
<title>Node1&#45;&gt;Node2</title>
<path fill="none" stroke="midnightblue" d="M1723.31,-174.24C1665.33,-169.76 1562.78,-158.56 1479,-132 1425.57,-115.06 1399.1,-121.24 1366,-76 1356.31,-62.75 1354.35,-43.89 1354.49,-29.89"/>
<polygon fill="midnightblue" stroke="midnightblue" points="1358.01,-29.66 1354.98,-19.51 1351.01,-29.33 1358.01,-29.66"/>
</g>
<!-- Node3 -->
<g id="node3" class="node">
<title>Node3</title>
<g id="a_node3"><a xlink:title=" ">
<polygon fill="white" stroke="#bfbfbf" points="0,-0.5 0,-19.5 48,-19.5 48,-0.5 0,-0.5"/>
<text text-anchor="middle" x="24" y="-7.5" font-family="Helvetica,sans-Serif" font-size="10.00">thread</text>
</a>
</g>
</g>
<!-- Node1&#45;&gt;Node3 -->
<g id="edge2" class="edge">
<title>Node1&#45;&gt;Node3</title>
<path fill="none" stroke="midnightblue" d="M1723.41,-177.1C1554.57,-177.12 948.96,-174.08 452,-132 267.43,-116.37 175.87,-200.82 39,-76 26.32,-64.43 23.29,-44.47 22.99,-29.71"/>
<polygon fill="midnightblue" stroke="midnightblue" points="26.49,-29.73 23.18,-19.67 19.49,-29.6 26.49,-29.73"/>
</g>
<!-- Node4 -->
<g id="node4" class="node">
<title>Node4</title>
<g id="a_node4"><a xlink:title=" ">
<polygon fill="white" stroke="#bfbfbf" points="473,-0.5 473,-19.5 533,-19.5 533,-0.5 473,-0.5"/>
<text text-anchor="middle" x="503" y="-7.5" font-family="Helvetica,sans-Serif" font-size="10.00">iostream</text>
</a>
</g>
</g>
<!-- Node1&#45;&gt;Node4 -->
<g id="edge3" class="edge">
<title>Node1&#45;&gt;Node4</title>
<path fill="none" stroke="midnightblue" d="M1723.31,-175.7C1475.83,-168.45 305.29,-131.29 254,-76 247.95,-69.48 248.3,-62.82 254,-56 267.23,-40.16 395.25,-23.32 462.37,-15.49"/>
<polygon fill="midnightblue" stroke="midnightblue" points="463.06,-18.94 472.59,-14.31 462.26,-11.98 463.06,-18.94"/>
</g>
<!-- Node5 -->
<g id="node5" class="node">
<title>Node5</title>
<g id="a_node5"><a xlink:title=" ">
<polygon fill="white" stroke="#bfbfbf" points="1661.5,-0.5 1661.5,-19.5 1720.5,-19.5 1720.5,-0.5 1661.5,-0.5"/>
<text text-anchor="middle" x="1691" y="-7.5" font-family="Helvetica,sans-Serif" font-size="10.00">complex</text>
</a>
</g>
</g>
<!-- Node1&#45;&gt;Node5 -->
<g id="edge4" class="edge">
<title>Node1&#45;&gt;Node5</title>
<path fill="none" stroke="midnightblue" d="M1763.04,-168.46C1751.43,-151.53 1725.58,-112.19 1710,-76 1703.46,-60.81 1698.37,-42.7 1695.12,-29.45"/>
<polygon fill="midnightblue" stroke="midnightblue" points="1698.51,-28.58 1692.82,-19.65 1691.69,-30.18 1698.51,-28.58"/>
</g>
<!-- Node6 -->
<g id="node6" class="node">
<title>Node6</title>
<g id="a_node6"><a xlink:title=" ">
<polygon fill="white" stroke="#bfbfbf" points="1205,-112.5 1205,-131.5 1243,-131.5 1243,-112.5 1205,-112.5"/>
<text text-anchor="middle" x="1224" y="-119.5" font-family="Helvetica,sans-Serif" font-size="10.00">map</text>
</a>
</g>
</g>
<!-- Node1&#45;&gt;Node6 -->
<g id="edge5" class="edge">
<title>Node1&#45;&gt;Node6</title>
<path fill="none" stroke="midnightblue" d="M1723.44,-175.72C1633.57,-172.6 1427.41,-162.47 1257,-132 1255.72,-131.77 1254.41,-131.51 1253.1,-131.24"/>
<polygon fill="midnightblue" stroke="midnightblue" points="1253.6,-127.76 1243.06,-128.82 1251.96,-134.57 1253.6,-127.76"/>
</g>
<!-- Node7 -->
<g id="node7" class="node">
<title>Node7</title>
<g id="a_node7"><a xlink:title=" ">
<polygon fill="white" stroke="#bfbfbf" points="2212.5,-0.5 2212.5,-19.5 2265.5,-19.5 2265.5,-0.5 2212.5,-0.5"/>
<text text-anchor="middle" x="2239" y="-7.5" font-family="Helvetica,sans-Serif" font-size="10.00">imgui.h</text>
</a>
</g>
</g>
<!-- Node1&#45;&gt;Node7 -->
<g id="edge6" class="edge">
<title>Node1&#45;&gt;Node7</title>
<path fill="none" stroke="midnightblue" d="M1814.78,-175.47C1991.3,-169.11 2620.8,-141.93 2678,-76 2735.4,-9.84 2387.05,-33.42 2275.66,-19.61"/>
<polygon fill="midnightblue" stroke="midnightblue" points="2276.04,-16.13 2265.64,-18.15 2275.03,-23.05 2276.04,-16.13"/>
</g>
<!-- Node8 -->
<g id="node8" class="node">
<title>Node8</title>
<g id="a_node8"><a xlink:title=" ">
<polygon fill="white" stroke="#bfbfbf" points="1797,-56.5 1797,-75.5 1897,-75.5 1897,-56.5 1797,-56.5"/>
<text text-anchor="middle" x="1847" y="-63.5" font-family="Helvetica,sans-Serif" font-size="10.00">imgui_impl_sdl.h</text>
</a>
</g>
</g>
<!-- Node1&#45;&gt;Node8 -->
<g id="edge7" class="edge">
<title>Node1&#45;&gt;Node8</title>
<path fill="none" stroke="midnightblue" d="M1775.12,-168.37C1787.99,-150.22 1818.07,-107.8 1834.95,-83.99"/>
<polygon fill="midnightblue" stroke="midnightblue" points="1837.98,-85.77 1840.91,-75.59 1832.27,-81.72 1837.98,-85.77"/>
</g>
<!-- Node9 -->
<g id="node9" class="node">
<title>Node9</title>
<g id="a_node9"><a xlink:title=" ">
<polygon fill="white" stroke="#bfbfbf" points="2329.5,-56.5 2329.5,-75.5 2454.5,-75.5 2454.5,-56.5 2329.5,-56.5"/>
<text text-anchor="middle" x="2392" y="-63.5" font-family="Helvetica,sans-Serif" font-size="10.00">imgui_impl_opengl3.h</text>
</a>
</g>
</g>
<!-- Node1&#45;&gt;Node9 -->
<g id="edge8" class="edge">
<title>Node1&#45;&gt;Node9</title>
<path fill="none" stroke="midnightblue" d="M1814.64,-170.44C1871.67,-162.11 1972.22,-147.02 2058,-132 2158.53,-114.4 2275.48,-90.95 2340.91,-77.57"/>
<polygon fill="midnightblue" stroke="midnightblue" points="2341.86,-80.94 2350.96,-75.51 2340.46,-74.08 2341.86,-80.94"/>
</g>
<!-- Node10 -->
<g id="node10" class="node">
<title>Node10</title>
<g id="a_node10"><a xlink:title=" ">
<polygon fill="white" stroke="#bfbfbf" points="2473,-56.5 2473,-75.5 2559,-75.5 2559,-56.5 2473,-56.5"/>
<text text-anchor="middle" x="2516" y="-63.5" font-family="Helvetica,sans-Serif" font-size="10.00">imgui_stdlib.h</text>
</a>
</g>
</g>
<!-- Node1&#45;&gt;Node10 -->
<g id="edge9" class="edge">
<title>Node1&#45;&gt;Node10</title>
<path fill="none" stroke="midnightblue" d="M1814.77,-171.69C1882.14,-163.76 2011.95,-148.02 2122,-132 2271.14,-110.29 2310.44,-101.94 2462.68,-76.21"/>
<polygon fill="midnightblue" stroke="midnightblue" points="2463.6,-79.61 2472.87,-74.49 2462.43,-72.71 2463.6,-79.61"/>
</g>
<!-- Node11 -->
<g id="node11" class="node">
<title>Node11</title>
<g id="a_node11"><a xlink:title=" ">
<polygon fill="white" stroke="#bfbfbf" points="2284,-0.5 2284,-19.5 2380,-19.5 2380,-0.5 2284,-0.5"/>
<text text-anchor="middle" x="2332" y="-7.5" font-family="Helvetica,sans-Serif" font-size="10.00">imgui_internal.h</text>
</a>
</g>
</g>
<!-- Node1&#45;&gt;Node11 -->
<g id="edge10" class="edge">
<title>Node1&#45;&gt;Node11</title>
<path fill="none" stroke="midnightblue" d="M1814.59,-176.64C2003.59,-174.93 2717.32,-166.21 2750,-132 2856.29,-20.72 2528.8,-9.92 2390.53,-10.15"/>
<polygon fill="midnightblue" stroke="midnightblue" points="2390.11,-6.65 2380.12,-10.19 2390.14,-13.65 2390.11,-6.65"/>
</g>
<!-- Node12 -->
<g id="node12" class="node">
<title>Node12</title>
<g id="a_node12"><a xlink:title=" ">
<polygon fill="white" stroke="#bfbfbf" points="2577,-56.5 2577,-75.5 2669,-75.5 2669,-56.5 2577,-56.5"/>
<text text-anchor="middle" x="2623" y="-63.5" font-family="Helvetica,sans-Serif" font-size="10.00">imfilebrowser.h</text>
</a>
</g>
</g>
<!-- Node1&#45;&gt;Node12 -->
<g id="edge11" class="edge">
<title>Node1&#45;&gt;Node12</title>
<path fill="none" stroke="midnightblue" d="M1814.8,-172.95C1893.76,-165.81 2060.58,-150.02 2201,-132 2361.46,-111.41 2403.4,-102.13 2566.88,-76.17"/>
<polygon fill="midnightblue" stroke="midnightblue" points="2567.46,-79.62 2576.79,-74.6 2566.37,-72.71 2567.46,-79.62"/>
</g>
<!-- Node13 -->
<g id="node13" class="node">
<title>Node13</title>
<g id="a_node13"><a xlink:title=" ">
<polygon fill="white" stroke="#bfbfbf" points="1375,-56.5 1375,-75.5 1413,-75.5 1413,-56.5 1375,-56.5"/>
<text text-anchor="middle" x="1394" y="-63.5" font-family="Helvetica,sans-Serif" font-size="10.00">ini.h</text>
</a>
</g>
</g>
<!-- Node1&#45;&gt;Node13 -->
<g id="edge12" class="edge">
<title>Node1&#45;&gt;Node13</title>
<path fill="none" stroke="midnightblue" d="M1723.12,-171.61C1675.14,-165.19 1598.05,-152.65 1534,-132 1491.79,-118.39 1445.65,-95.21 1418.3,-80.53"/>
<polygon fill="midnightblue" stroke="midnightblue" points="1419.9,-77.41 1409.45,-75.72 1416.56,-83.57 1419.9,-77.41"/>
</g>
<!-- Node14 -->
<g id="node14" class="node">
<title>Node14</title>
<g id="a_node14"><a xlink:href="../../de/ded/ImGuiINI_8hpp.html" target="_top" xlink:title=" ">
<polygon fill="white" stroke="black" points="1543,-112.5 1543,-131.5 1623,-131.5 1623,-112.5 1543,-112.5"/>
<text text-anchor="middle" x="1583" y="-119.5" font-family="Helvetica,sans-Serif" font-size="10.00">ImGuiINI.hpp</text>
</a>
</g>
</g>
<!-- Node1&#45;&gt;Node14 -->
<g id="edge13" class="edge">
<title>Node1&#45;&gt;Node14</title>
<path fill="none" stroke="midnightblue" d="M1739.53,-168.44C1707.83,-159.24 1657.27,-144.56 1622.23,-134.39"/>
<polygon fill="midnightblue" stroke="midnightblue" points="1622.91,-130.94 1612.33,-131.52 1620.96,-137.67 1622.91,-130.94"/>
</g>
<!-- Node15 -->
<g id="node15" class="node">
<title>Node15</title>
<g id="a_node15"><a xlink:href="../../de/dfc/Ricom_8h.html" target="_top" xlink:title=" ">
<polygon fill="white" stroke="black" points="1008,-112.5 1008,-131.5 1064,-131.5 1064,-112.5 1008,-112.5"/>
<text text-anchor="middle" x="1036" y="-119.5" font-family="Helvetica,sans-Serif" font-size="10.00">Ricom.h</text>
</a>
</g>
</g>
<!-- Node1&#45;&gt;Node15 -->
<g id="edge17" class="edge">
<title>Node1&#45;&gt;Node15</title>
<path fill="none" stroke="midnightblue" d="M1723.36,-173.93C1619.89,-166.92 1359.6,-149.05 1142,-132 1119.58,-130.24 1094.5,-128.12 1074.37,-126.38"/>
<polygon fill="midnightblue" stroke="midnightblue" points="1074.6,-122.89 1064.34,-125.51 1074,-129.86 1074.6,-122.89"/>
</g>
<!-- Node43 -->
<g id="node41" class="node">
<title>Node43</title>
<g id="a_node41"><a xlink:href="../../dd/de4/Camera_8h.html" target="_top" xlink:title=" ">
<polygon fill="white" stroke="black" points="1103,-56.5 1103,-75.5 1167,-75.5 1167,-56.5 1103,-56.5"/>
<text text-anchor="middle" x="1135" y="-63.5" font-family="Helvetica,sans-Serif" font-size="10.00">Camera.h</text>
</a>
</g>
</g>
<!-- Node1&#45;&gt;Node43 -->
<g id="edge73" class="edge">
<title>Node1&#45;&gt;Node43</title>
<path fill="none" stroke="midnightblue" d="M1723.43,-177.61C1604.75,-178.53 1288.87,-176.61 1196,-132 1174.28,-121.57 1156.42,-99.78 1145.75,-84.31"/>
<polygon fill="midnightblue" stroke="midnightblue" points="1148.49,-82.1 1140.07,-75.66 1142.63,-85.94 1148.49,-82.1"/>
</g>
<!-- Node46 -->
<g id="node44" class="node">
<title>Node46</title>
<g id="a_node44"><a xlink:href="../../d7/db2/GuiUtils_8h.html" target="_top" xlink:title=" ">
<polygon fill="white" stroke="black" points="2029.5,-56.5 2029.5,-75.5 2094.5,-75.5 2094.5,-56.5 2029.5,-56.5"/>
<text text-anchor="middle" x="2062" y="-63.5" font-family="Helvetica,sans-Serif" font-size="10.00">GuiUtils.h</text>
</a>
</g>
</g>
<!-- Node1&#45;&gt;Node46 -->
<g id="edge74" class="edge">
<title>Node1&#45;&gt;Node46</title>
<path fill="none" stroke="midnightblue" d="M1814.62,-174.72C1881.99,-170.48 2003.71,-159.2 2037,-132 2050.88,-120.66 2057.07,-100.66 2059.82,-85.83"/>
<polygon fill="midnightblue" stroke="midnightblue" points="2063.31,-86.14 2061.32,-75.73 2056.39,-85.11 2063.31,-86.14"/>
</g>
<!-- Node50 -->
<g id="node48" class="node">
<title>Node50</title>
<g id="a_node48"><a xlink:title=" ">
<polygon fill="white" stroke="#bfbfbf" points="2691,-112.5 2691,-131.5 2741,-131.5 2741,-112.5 2691,-112.5"/>
<text text-anchor="middle" x="2716" y="-119.5" font-family="Helvetica,sans-Serif" font-size="10.00">fonts.h</text>
</a>
</g>
</g>
<!-- Node1&#45;&gt;Node50 -->
<g id="edge72" class="edge">
<title>Node1&#45;&gt;Node50</title>
<path fill="none" stroke="midnightblue" d="M1814.62,-177.58C1948.02,-178.69 2348.71,-177.65 2677,-132 2678.28,-131.82 2679.57,-131.62 2680.88,-131.41"/>
<polygon fill="midnightblue" stroke="midnightblue" points="2681.79,-134.8 2690.95,-129.47 2680.47,-127.92 2681.79,-134.8"/>
</g>
<!-- Node51 -->
<g id="node49" class="node">
<title>Node51</title>
<g id="a_node49"><a xlink:href="../../d4/d6e/ImGuiImageWindow_8h.html" target="_top" xlink:title=" ">
<polygon fill="white" stroke="black" points="1904,-112.5 1904,-131.5 2028,-131.5 2028,-112.5 1904,-112.5"/>
<text text-anchor="middle" x="1966" y="-119.5" font-family="Helvetica,sans-Serif" font-size="10.00">ImGuiImageWindow.h</text>
</a>
</g>
</g>
<!-- Node1&#45;&gt;Node51 -->
<g id="edge75" class="edge">
<title>Node1&#45;&gt;Node51</title>
<path fill="none" stroke="midnightblue" d="M1800.22,-168.44C1833.93,-159.2 1887.8,-144.44 1924.93,-134.26"/>
<polygon fill="midnightblue" stroke="midnightblue" points="1926.21,-137.54 1934.93,-131.52 1924.36,-130.78 1926.21,-137.54"/>
</g>
<!-- Node14&#45;&gt;Node2 -->
<g id="edge16" class="edge">
<title>Node14&#45;&gt;Node2</title>
<path fill="none" stroke="midnightblue" d="M1554.47,-112.43C1529.09,-104.37 1491.26,-91.28 1460,-76 1429.51,-61.09 1396.66,-39.55 1376.22,-25.41"/>
<polygon fill="midnightblue" stroke="midnightblue" points="1378.21,-22.53 1368.01,-19.67 1374.2,-28.27 1378.21,-22.53"/>
</g>
<!-- Node14&#45;&gt;Node7 -->
<g id="edge14" class="edge">
<title>Node14&#45;&gt;Node7</title>
<path fill="none" stroke="midnightblue" d="M1623.03,-119.54C1728.79,-115.36 2013.69,-101.97 2104,-76 2122.72,-70.62 2125.51,-64.58 2143,-56 2165.76,-44.83 2191.82,-32.66 2211.04,-23.79"/>
<polygon fill="midnightblue" stroke="midnightblue" points="2212.52,-26.96 2220.14,-19.6 2209.6,-20.6 2212.52,-26.96"/>
</g>
<!-- Node14&#45;&gt;Node13 -->
<g id="edge15" class="edge">
<title>Node14&#45;&gt;Node13</title>
<path fill="none" stroke="midnightblue" d="M1553.05,-112.44C1517.34,-102.24 1458.06,-85.3 1422.84,-75.24"/>
<polygon fill="midnightblue" stroke="midnightblue" points="1423.73,-71.86 1413.16,-72.47 1421.81,-78.59 1423.73,-71.86"/>
</g>
<!-- Node15&#45;&gt;Node2 -->
<g id="edge24" class="edge">
<title>Node15&#45;&gt;Node2</title>
<path fill="none" stroke="midnightblue" d="M1064.25,-113.04C1092.78,-104.75 1137.96,-90.89 1176,-76 1195.63,-68.32 1199.4,-63.75 1219,-56 1254.46,-41.99 1296.21,-28.72 1324.23,-20.27"/>
<polygon fill="midnightblue" stroke="midnightblue" points="1325.31,-23.6 1333.89,-17.38 1323.3,-16.89 1325.31,-23.6"/>
</g>
<!-- Node15&#45;&gt;Node3 -->
<g id="edge28" class="edge">
<title>Node15&#45;&gt;Node3</title>
<path fill="none" stroke="midnightblue" d="M1007.56,-121.29C855.76,-122.6 144.74,-126.05 62,-76 45.08,-65.77 34.89,-44.93 29.38,-29.59"/>
<polygon fill="midnightblue" stroke="midnightblue" points="32.57,-28.07 26.17,-19.63 25.9,-30.22 32.57,-28.07"/>
</g>
<!-- Node15&#45;&gt;Node5 -->
<g id="edge21" class="edge">
<title>Node15&#45;&gt;Node5</title>
<path fill="none" stroke="midnightblue" d="M1064.23,-116.82C1108.77,-109.96 1197.89,-95.13 1272,-76 1299.63,-68.87 1305.16,-62.25 1333,-56 1392.96,-42.53 1571.28,-23.28 1651.33,-15.02"/>
<polygon fill="midnightblue" stroke="midnightblue" points="1651.91,-18.47 1661.5,-13.97 1651.19,-11.51 1651.91,-18.47"/>
</g>
<!-- Node16 -->
<g id="node16" class="node">
<title>Node16</title>
<g id="a_node16"><a xlink:title=" ">
<polygon fill="white" stroke="#bfbfbf" points="726,-0.5 726,-19.5 782,-19.5 782,-0.5 726,-0.5"/>
<text text-anchor="middle" x="754" y="-7.5" font-family="Helvetica,sans-Serif" font-size="10.00">unistd.h</text>
</a>
</g>
</g>
<!-- Node15&#45;&gt;Node16 -->
<g id="edge18" class="edge">
<title>Node15&#45;&gt;Node16</title>
<path fill="none" stroke="midnightblue" d="M1007.9,-119.03C967.23,-115.25 890.45,-104.66 832,-76 807.16,-63.82 783.46,-42.15 768.84,-27.2"/>
<polygon fill="midnightblue" stroke="midnightblue" points="771.13,-24.52 761.7,-19.68 766.06,-29.34 771.13,-24.52"/>
</g>
<!-- Node17 -->
<g id="node17" class="node">
<title>Node17</title>
<g id="a_node17"><a xlink:title=" ">
<polygon fill="white" stroke="#bfbfbf" points="936.5,-0.5 936.5,-19.5 983.5,-19.5 983.5,-0.5 936.5,-0.5"/>
<text text-anchor="middle" x="960" y="-7.5" font-family="Helvetica,sans-Serif" font-size="10.00">cmath</text>
</a>
</g>
</g>
<!-- Node15&#45;&gt;Node17 -->
<g id="edge19" class="edge">
<title>Node15&#45;&gt;Node17</title>
<path fill="none" stroke="midnightblue" d="M1030.04,-112.37C1017.49,-94.22 988.19,-51.8 971.74,-27.99"/>
<polygon fill="midnightblue" stroke="midnightblue" points="974.5,-25.83 965.94,-19.59 968.74,-29.81 974.5,-25.83"/>
</g>
<!-- Node18 -->
<g id="node18" class="node">
<title>Node18</title>
<g id="a_node18"><a xlink:title=" ">
<polygon fill="white" stroke="#bfbfbf" points="1531,-56.5 1531,-75.5 1581,-75.5 1581,-56.5 1531,-56.5"/>
<text text-anchor="middle" x="1556" y="-63.5" font-family="Helvetica,sans-Serif" font-size="10.00">stdio.h</text>
</a>
</g>
</g>
<!-- Node15&#45;&gt;Node18 -->
<g id="edge20" class="edge">
<title>Node15&#45;&gt;Node18</title>
<path fill="none" stroke="midnightblue" d="M1064.06,-119.02C1150.86,-112.8 1415.04,-93.14 1520.82,-75.87"/>
<polygon fill="midnightblue" stroke="midnightblue" points="1521.59,-79.29 1530.85,-74.16 1520.41,-72.39 1521.59,-79.29"/>
</g>
<!-- Node19 -->
<g id="node19" class="node">
<title>Node19</title>
<g id="a_node19"><a xlink:title=" ">
<polygon fill="white" stroke="#bfbfbf" points="577,-56.5 577,-75.5 621,-75.5 621,-56.5 577,-56.5"/>
<text text-anchor="middle" x="599" y="-63.5" font-family="Helvetica,sans-Serif" font-size="10.00">cfloat</text>
</a>
</g>
</g>
<!-- Node15&#45;&gt;Node19 -->
<g id="edge22" class="edge">
<title>Node15&#45;&gt;Node19</title>
<path fill="none" stroke="midnightblue" d="M1007.61,-119.12C941.75,-114.48 773.58,-100.98 635,-76 633.75,-75.77 632.48,-75.53 631.2,-75.27"/>
<polygon fill="midnightblue" stroke="midnightblue" points="631.89,-71.84 621.37,-73.08 630.37,-78.67 631.89,-71.84"/>
</g>
<!-- Node20 -->
<g id="node20" class="node">
<title>Node20</title>
<g id="a_node20"><a xlink:title=" ">
<polygon fill="white" stroke="#bfbfbf" points="1539.5,-0.5 1539.5,-19.5 1586.5,-19.5 1586.5,-0.5 1539.5,-0.5"/>
<text text-anchor="middle" x="1563" y="-7.5" font-family="Helvetica,sans-Serif" font-size="10.00">vector</text>
</a>
</g>
</g>
<!-- Node15&#45;&gt;Node20 -->
<g id="edge23" class="edge">
<title>Node15&#45;&gt;Node20</title>
<path fill="none" stroke="midnightblue" d="M1064.03,-113.83C1126.27,-97.93 1272.25,-60.76 1295,-56 1378.64,-38.51 1478.08,-23.24 1529.09,-15.81"/>
<polygon fill="midnightblue" stroke="midnightblue" points="1529.82,-19.24 1539.22,-14.34 1528.82,-12.31 1529.82,-19.24"/>
</g>
<!-- Node21 -->
<g id="node21" class="node">
<title>Node21</title>
<g id="a_node21"><a xlink:title=" ">
<polygon fill="white" stroke="#bfbfbf" points="1469,-56.5 1469,-75.5 1513,-75.5 1513,-56.5 1469,-56.5"/>
<text text-anchor="middle" x="1491" y="-63.5" font-family="Helvetica,sans-Serif" font-size="10.00">SDL.h</text>
</a>
</g>
</g>
<!-- Node15&#45;&gt;Node21 -->
<g id="edge25" class="edge">
<title>Node15&#45;&gt;Node21</title>
<path fill="none" stroke="midnightblue" d="M1064.11,-117.86C1127.82,-110.7 1288.08,-92.54 1422,-76 1434.03,-74.51 1447.22,-72.81 1458.82,-71.29"/>
<polygon fill="midnightblue" stroke="midnightblue" points="1459.49,-74.73 1468.95,-69.95 1458.57,-67.79 1459.49,-74.73"/>
</g>
<!-- Node22 -->
<g id="node22" class="node">
<title>Node22</title>
<g id="a_node22"><a xlink:title=" ">
<polygon fill="white" stroke="#bfbfbf" points="363,-0.5 363,-19.5 411,-19.5 411,-0.5 363,-0.5"/>
<text text-anchor="middle" x="387" y="-7.5" font-family="Helvetica,sans-Serif" font-size="10.00">mutex</text>
</a>
</g>
</g>
<!-- Node15&#45;&gt;Node22 -->
<g id="edge26" class="edge">
<title>Node15&#45;&gt;Node22</title>
<path fill="none" stroke="midnightblue" d="M1007.57,-120.99C944.81,-120.22 790.25,-114.23 668,-76 649.78,-70.3 648.03,-62.25 630,-56 591.93,-42.8 478.93,-24.75 421.44,-16.07"/>
<polygon fill="midnightblue" stroke="midnightblue" points="421.78,-12.58 411.38,-14.56 420.75,-19.5 421.78,-12.58"/>
</g>
<!-- Node23 -->
<g id="node23" class="node">
<title>Node23</title>
<g id="a_node23"><a xlink:title=" ">
<polygon fill="white" stroke="#bfbfbf" points="1039,-56.5 1039,-75.5 1085,-75.5 1085,-56.5 1039,-56.5"/>
<text text-anchor="middle" x="1062" y="-63.5" font-family="Helvetica,sans-Serif" font-size="10.00">future</text>
</a>
</g>
</g>
<!-- Node15&#45;&gt;Node23 -->
<g id="edge27" class="edge">
<title>Node15&#45;&gt;Node23</title>
<path fill="none" stroke="midnightblue" d="M1040.29,-112.08C1043.85,-104.69 1049.02,-93.95 1053.42,-84.81"/>
<polygon fill="midnightblue" stroke="midnightblue" points="1056.6,-86.28 1057.79,-75.75 1050.29,-83.24 1056.6,-86.28"/>
</g>
<!-- Node24 -->
<g id="node24" class="node">
<title>Node24</title>
<g id="a_node24"><a xlink:title=" ">
<polygon fill="white" stroke="#bfbfbf" points="263,-56.5 263,-75.5 313,-75.5 313,-56.5 263,-56.5"/>
<text text-anchor="middle" x="288" y="-63.5" font-family="Helvetica,sans-Serif" font-size="10.00">fftw3.h</text>
</a>
</g>
</g>
<!-- Node15&#45;&gt;Node24 -->
<g id="edge29" class="edge">
<title>Node15&#45;&gt;Node24</title>
<path fill="none" stroke="midnightblue" d="M1007.88,-121.2C912.73,-121.45 594.11,-118.93 323.16,-75.86"/>
<polygon fill="midnightblue" stroke="midnightblue" points="323.56,-72.38 313.13,-74.24 322.45,-79.29 323.56,-72.38"/>
</g>
<!-- Node25 -->
<g id="node25" class="node">
<title>Node25</title>
<g id="a_node25"><a xlink:title=" ">
<polygon fill="white" stroke="#bfbfbf" points="1002,-0.5 1002,-19.5 1052,-19.5 1052,-0.5 1002,-0.5"/>
<text text-anchor="middle" x="1027" y="-7.5" font-family="Helvetica,sans-Serif" font-size="10.00">chrono</text>
</a>
</g>
</g>
<!-- Node15&#45;&gt;Node25 -->
<g id="edge30" class="edge">
<title>Node15&#45;&gt;Node25</title>
<path fill="none" stroke="midnightblue" d="M1034.63,-112.4C1033.24,-103.36 1031.14,-88.72 1030,-76 1028.61,-60.51 1027.85,-42.88 1027.44,-29.89"/>
<polygon fill="midnightblue" stroke="midnightblue" points="1030.94,-29.75 1027.17,-19.85 1023.94,-29.94 1030.94,-29.75"/>
</g>
<!-- Node26 -->
<g id="node26" class="node">
<title>Node26</title>
<g id="a_node26"><a xlink:title=" ">
<polygon fill="white" stroke="#bfbfbf" points="1599,-56.5 1599,-75.5 1663,-75.5 1663,-56.5 1599,-56.5"/>
<text text-anchor="middle" x="1631" y="-63.5" font-family="Helvetica,sans-Serif" font-size="10.00">algorithm</text>
</a>
</g>
</g>
<!-- Node15&#45;&gt;Node26 -->
<g id="edge31" class="edge">
<title>Node15&#45;&gt;Node26</title>
<path fill="none" stroke="midnightblue" d="M1064.12,-119.22C1159.12,-113.13 1468.48,-92.67 1588.82,-75.94"/>
<polygon fill="midnightblue" stroke="midnightblue" points="1589.45,-79.39 1598.85,-74.49 1588.45,-72.46 1589.45,-79.39"/>
</g>
<!-- Node27 -->
<g id="node27" class="node">
<title>Node27</title>
<g id="a_node27"><a xlink:href="../../d7/d50/BoundedThreadPool_8hpp.html" target="_top" xlink:title=" ">
<polygon fill="white" stroke="black" points="71.5,-56.5 71.5,-75.5 206.5,-75.5 206.5,-56.5 71.5,-56.5"/>
<text text-anchor="middle" x="139" y="-63.5" font-family="Helvetica,sans-Serif" font-size="10.00">BoundedThreadPool.hpp</text>
</a>
</g>
</g>
<!-- Node15&#45;&gt;Node27 -->
<g id="edge32" class="edge">
<title>Node15&#45;&gt;Node27</title>
<path fill="none" stroke="midnightblue" d="M1007.93,-119.59C906.41,-114.47 548.76,-96.01 254,-76 242.06,-75.19 229.43,-74.27 217.07,-73.33"/>
<polygon fill="midnightblue" stroke="midnightblue" points="217.02,-69.81 206.79,-72.54 216.49,-76.79 217.02,-69.81"/>
</g>
<!-- Node32 -->
<g id="node32" class="node">
<title>Node32</title>
<g id="a_node32"><a xlink:title=" ">
<polygon fill="white" stroke="#bfbfbf" points="1824,-0.5 1824,-19.5 1926,-19.5 1926,-0.5 1824,-0.5"/>
<text text-anchor="middle" x="1875" y="-7.5" font-family="Helvetica,sans-Serif" font-size="10.00">tinycolormap.hpp</text>
</a>
</g>
</g>
<!-- Node15&#45;&gt;Node32 -->
<g id="edge40" class="edge">
<title>Node15&#45;&gt;Node32</title>
<path fill="none" stroke="midnightblue" d="M1064.38,-118.62C1115.61,-113.85 1226.61,-101.32 1317,-76 1339.65,-69.65 1343.14,-61.54 1366,-56 1408.51,-45.69 1687.57,-24.56 1813.52,-15.4"/>
<polygon fill="midnightblue" stroke="midnightblue" points="1814.04,-18.87 1823.77,-14.66 1813.54,-11.89 1814.04,-18.87"/>
</g>
<!-- Node33 -->
<g id="node33" class="node">
<title>Node33</title>
<g id="a_node33"><a xlink:title=" ">
<polygon fill="white" stroke="#bfbfbf" points="1719,-56.5 1719,-75.5 1779,-75.5 1779,-56.5 1719,-56.5"/>
<text text-anchor="middle" x="1749" y="-63.5" font-family="Helvetica,sans-Serif" font-size="10.00">fft2d.hpp</text>
</a>
</g>
</g>
<!-- Node15&#45;&gt;Node33 -->
<g id="edge41" class="edge">
<title>Node15&#45;&gt;Node33</title>
<path fill="none" stroke="midnightblue" d="M1064.25,-119.46C1153.52,-114.51 1437.53,-97.99 1672,-76 1683.92,-74.88 1696.85,-73.45 1708.65,-72.07"/>
<polygon fill="midnightblue" stroke="midnightblue" points="1709.17,-75.53 1718.68,-70.87 1708.33,-68.58 1709.17,-75.53"/>
</g>
<!-- Node34 -->
<g id="node34" class="node">
<title>Node34</title>
<g id="a_node34"><a xlink:href="../../d0/d3c/SocketConnector_8h.html" target="_top" xlink:title=" ">
<polygon fill="white" stroke="black" points="677.5,-56.5 677.5,-75.5 784.5,-75.5 784.5,-56.5 677.5,-56.5"/>
<text text-anchor="middle" x="731" y="-63.5" font-family="Helvetica,sans-Serif" font-size="10.00">SocketConnector.h</text>
</a>
</g>
</g>
<!-- Node15&#45;&gt;Node34 -->
<g id="edge42" class="edge">
<title>Node15&#45;&gt;Node34</title>
<path fill="none" stroke="midnightblue" d="M1007.85,-116.02C958.37,-107.26 854.83,-88.92 789.35,-77.33"/>
<polygon fill="midnightblue" stroke="midnightblue" points="789.64,-73.83 779.18,-75.53 788.42,-80.72 789.64,-73.83"/>
</g>
<!-- Node38 -->
<g id="node38" class="node">
<title>Node38</title>
<g id="a_node38"><a xlink:href="../../da/dce/ProgressMonitor_8h.html" target="_top" xlink:title=" ">
<polygon fill="white" stroke="red" points="841,-56.5 841,-75.5 945,-75.5 945,-56.5 841,-56.5"/>
<text text-anchor="middle" x="893" y="-63.5" font-family="Helvetica,sans-Serif" font-size="10.00">ProgressMonitor.h</text>
</a>
</g>
</g>
<!-- Node15&#45;&gt;Node38 -->
<g id="edge49" class="edge">
<title>Node15&#45;&gt;Node38</title>
<path fill="none" stroke="midnightblue" d="M1013.34,-112.44C989.6,-103.48 952.09,-89.31 925.26,-79.18"/>
<polygon fill="midnightblue" stroke="midnightblue" points="926.14,-75.77 915.55,-75.52 923.67,-82.32 926.14,-75.77"/>
</g>
<!-- Node41 -->
<g id="node39" class="node">
<title>Node41</title>
<g id="a_node39"><a xlink:title=" ">
<polygon fill="white" stroke="#bfbfbf" points="331,-56.5 331,-75.5 431,-75.5 431,-56.5 331,-56.5"/>
<text text-anchor="middle" x="381" y="-63.5" font-family="Helvetica,sans-Serif" font-size="10.00">MerlinInterface.h</text>
</a>
</g>
</g>
<!-- Node15&#45;&gt;Node41 -->
<g id="edge55" class="edge">
<title>Node15&#45;&gt;Node41</title>
<path fill="none" stroke="midnightblue" d="M1007.7,-119.63C923.25,-115.38 665.5,-101.22 441.16,-76.05"/>
<polygon fill="midnightblue" stroke="midnightblue" points="441.51,-72.57 431.18,-74.92 440.72,-79.52 441.51,-72.57"/>
</g>
<!-- Node42 -->
<g id="node40" class="node">
<title>Node42</title>
<g id="a_node40"><a xlink:title=" ">
<polygon fill="white" stroke="#bfbfbf" points="449.5,-56.5 449.5,-75.5 558.5,-75.5 558.5,-56.5 449.5,-56.5"/>
<text text-anchor="middle" x="504" y="-63.5" font-family="Helvetica,sans-Serif" font-size="10.00">TimepixInterface.h</text>
</a>
</g>
</g>
<!-- Node15&#45;&gt;Node42 -->
<g id="edge56" class="edge">
<title>Node15&#45;&gt;Node42</title>
<path fill="none" stroke="midnightblue" d="M1008,-118.74C936.68,-112.89 742.17,-96.36 568.86,-76.05"/>
<polygon fill="midnightblue" stroke="midnightblue" points="569.13,-72.56 558.79,-74.87 568.31,-79.51 569.13,-72.56"/>
</g>
<!-- Node15&#45;&gt;Node43 -->
<g id="edge57" class="edge">
<title>Node15&#45;&gt;Node43</title>
<path fill="none" stroke="midnightblue" d="M1051.91,-112.32C1067.64,-103.74 1091.94,-90.49 1110.21,-80.52"/>
<polygon fill="midnightblue" stroke="midnightblue" points="1112.03,-83.52 1119.13,-75.65 1108.68,-77.37 1112.03,-83.52"/>
</g>
<!-- Node15&#45;&gt;Node46 -->
<g id="edge62" class="edge">
<title>Node15&#45;&gt;Node46</title>
<path fill="none" stroke="midnightblue" d="M1064.03,-119.38C1095.97,-117.54 1149.74,-114.47 1196,-112 1511.51,-95.13 1590.5,-93.1 1906,-76 1944.33,-73.92 1987.95,-71.39 2019.3,-69.54"/>
<polygon fill="midnightblue" stroke="midnightblue" points="2019.66,-73.03 2029.44,-68.94 2019.25,-66.04 2019.66,-73.03"/>
</g>
<!-- Node27&#45;&gt;Node3 -->
<g id="edge33" class="edge">
<title>Node27&#45;&gt;Node3</title>
<path fill="none" stroke="midnightblue" d="M120.78,-56.44C102.1,-47.68 72.84,-33.94 51.38,-23.86"/>
<polygon fill="midnightblue" stroke="midnightblue" points="52.68,-20.6 42.14,-19.52 49.7,-26.93 52.68,-20.6"/>
</g>
<!-- Node27&#45;&gt;Node4 -->
<g id="edge39" class="edge">
<title>Node27&#45;&gt;Node4</title>
<path fill="none" stroke="midnightblue" d="M196.68,-56.44C270.93,-45.43 398.05,-26.57 462.7,-16.98"/>
<polygon fill="midnightblue" stroke="midnightblue" points="463.52,-20.4 472.89,-15.47 462.49,-13.47 463.52,-20.4"/>
</g>
<!-- Node27&#45;&gt;Node22 -->
<g id="edge36" class="edge">
<title>Node27&#45;&gt;Node22</title>
<path fill="none" stroke="midnightblue" d="M178.3,-56.44C226.45,-45.96 307.24,-28.37 352.89,-18.43"/>
<polygon fill="midnightblue" stroke="midnightblue" points="353.86,-21.8 362.89,-16.25 352.37,-14.96 353.86,-21.8"/>
</g>
<!-- Node28 -->
<g id="node28" class="node">
<title>Node28</title>
<g id="a_node28"><a xlink:title=" ">
<polygon fill="white" stroke="#bfbfbf" points="274.5,-0.5 274.5,-19.5 321.5,-19.5 321.5,-0.5 274.5,-0.5"/>
<text text-anchor="middle" x="298" y="-7.5" font-family="Helvetica,sans-Serif" font-size="10.00">queue</text>
</a>
</g>
</g>
<!-- Node27&#45;&gt;Node28 -->
<g id="edge34" class="edge">
<title>Node27&#45;&gt;Node28</title>
<path fill="none" stroke="midnightblue" d="M164.19,-56.44C191.41,-47.2 234.91,-32.43 264.88,-22.25"/>
<polygon fill="midnightblue" stroke="midnightblue" points="266.14,-25.52 274.48,-18.99 263.88,-18.89 266.14,-25.52"/>
</g>
<!-- Node29 -->
<g id="node29" class="node">
<title>Node29</title>
<g id="a_node29"><a xlink:title=" ">
<polygon fill="white" stroke="#bfbfbf" points="66.5,-0.5 66.5,-19.5 131.5,-19.5 131.5,-0.5 66.5,-0.5"/>
<text text-anchor="middle" x="99" y="-7.5" font-family="Helvetica,sans-Serif" font-size="10.00">functional</text>
</a>
</g>
</g>
<!-- Node27&#45;&gt;Node29 -->
<g id="edge35" class="edge">
<title>Node27&#45;&gt;Node29</title>
<path fill="none" stroke="midnightblue" d="M132.39,-56.08C126.74,-48.46 118.46,-37.26 111.55,-27.94"/>
<polygon fill="midnightblue" stroke="midnightblue" points="114.25,-25.7 105.48,-19.75 108.62,-29.87 114.25,-25.7"/>
</g>
<!-- Node30 -->
<g id="node30" class="node">
<title>Node30</title>
<g id="a_node30"><a xlink:title=" ">
<polygon fill="white" stroke="#bfbfbf" points="149.5,-0.5 149.5,-19.5 256.5,-19.5 256.5,-0.5 149.5,-0.5"/>
<text text-anchor="middle" x="203" y="-7.5" font-family="Helvetica,sans-Serif" font-size="10.00">condition_variable</text>
</a>
</g>
</g>
<!-- Node27&#45;&gt;Node30 -->
<g id="edge37" class="edge">
<title>Node27&#45;&gt;Node30</title>
<path fill="none" stroke="midnightblue" d="M149.28,-56.32C158.84,-48.26 173.28,-36.08 184.78,-26.37"/>
<polygon fill="midnightblue" stroke="midnightblue" points="187.14,-28.96 192.53,-19.83 182.63,-23.61 187.14,-28.96"/>
</g>
<!-- Node31 -->
<g id="node31" class="node">
<title>Node31</title>
<g id="a_node31"><a xlink:title=" ">
<polygon fill="white" stroke="#bfbfbf" points="868,-0.5 868,-19.5 918,-19.5 918,-0.5 868,-0.5"/>
<text text-anchor="middle" x="893" y="-7.5" font-family="Helvetica,sans-Serif" font-size="10.00">atomic</text>
</a>
</g>
</g>
<!-- Node27&#45;&gt;Node31 -->
<g id="edge38" class="edge">
<title>Node27&#45;&gt;Node31</title>
<path fill="none" stroke="midnightblue" d="M206.79,-59.48C222.3,-58.28 238.72,-57.05 254,-56 519.45,-37.72 591.29,-62.07 857.9,-19.85"/>
<polygon fill="midnightblue" stroke="midnightblue" points="858.55,-23.29 867.87,-18.25 857.44,-16.37 858.55,-23.29"/>
</g>
<!-- Node34&#45;&gt;Node2 -->
<g id="edge47" class="edge">
<title>Node34&#45;&gt;Node2</title>
<path fill="none" stroke="midnightblue" d="M784.72,-60.18C800,-58.82 816.65,-57.34 832,-56 1018.07,-39.72 1241.36,-20.72 1323.58,-13.75"/>
<polygon fill="midnightblue" stroke="midnightblue" points="1324.11,-17.22 1333.78,-12.88 1323.52,-10.24 1324.11,-17.22"/>
</g>
<!-- Node34&#45;&gt;Node4 -->
<g id="edge48" class="edge">
<title>Node34&#45;&gt;Node4</title>
<path fill="none" stroke="midnightblue" d="M694.87,-56.44C653.49,-46.64 585.88,-30.63 542.95,-20.46"/>
<polygon fill="midnightblue" stroke="midnightblue" points="543.67,-17.04 533.13,-18.14 542.06,-23.85 543.67,-17.04"/>
</g>
<!-- Node34&#45;&gt;Node16 -->
<g id="edge44" class="edge">
<title>Node34&#45;&gt;Node16</title>
<path fill="none" stroke="midnightblue" d="M734.8,-56.08C737.91,-48.77 742.42,-38.18 746.29,-29.1"/>
<polygon fill="midnightblue" stroke="midnightblue" points="749.57,-30.32 750.27,-19.75 743.13,-27.58 749.57,-30.32"/>
</g>
<!-- Node35 -->
<g id="node35" class="node">
<title>Node35</title>
<g id="a_node35"><a xlink:title=" ">
<polygon fill="white" stroke="#bfbfbf" points="573.5,-0.5 573.5,-19.5 642.5,-19.5 642.5,-0.5 573.5,-0.5"/>
<text text-anchor="middle" x="608" y="-7.5" font-family="Helvetica,sans-Serif" font-size="10.00">arpa/inet.h</text>
</a>
</g>
</g>
<!-- Node34&#45;&gt;Node35 -->
<g id="edge43" class="edge">
<title>Node34&#45;&gt;Node35</title>
<path fill="none" stroke="midnightblue" d="M711.51,-56.44C691.36,-47.6 659.68,-33.69 636.67,-23.59"/>
<polygon fill="midnightblue" stroke="midnightblue" points="637.96,-20.33 627.4,-19.52 635.15,-26.74 637.96,-20.33"/>
</g>
<!-- Node36 -->
<g id="node36" class="node">
<title>Node36</title>
<g id="a_node36"><a xlink:title=" ">
<polygon fill="white" stroke="#bfbfbf" points="660.5,-0.5 660.5,-19.5 707.5,-19.5 707.5,-0.5 660.5,-0.5"/>
<text text-anchor="middle" x="684" y="-7.5" font-family="Helvetica,sans-Serif" font-size="10.00">cerrno</text>
</a>
</g>
</g>
<!-- Node34&#45;&gt;Node36 -->
<g id="edge45" class="edge">
<title>Node34&#45;&gt;Node36</title>
<path fill="none" stroke="midnightblue" d="M723.24,-56.08C716.46,-48.3 706.46,-36.8 698.24,-27.37"/>
<polygon fill="midnightblue" stroke="midnightblue" points="700.82,-25 691.62,-19.75 695.54,-29.59 700.82,-25"/>
</g>
<!-- Node37 -->
<g id="node37" class="node">
<title>Node37</title>
<g id="a_node37"><a xlink:title=" ">
<polygon fill="white" stroke="#bfbfbf" points="800,-0.5 800,-19.5 850,-19.5 850,-0.5 800,-0.5"/>
<text text-anchor="middle" x="825" y="-7.5" font-family="Helvetica,sans-Serif" font-size="10.00">cstring</text>
</a>
</g>
</g>
<!-- Node34&#45;&gt;Node37 -->
<g id="edge46" class="edge">
<title>Node34&#45;&gt;Node37</title>
<path fill="none" stroke="midnightblue" d="M746.1,-56.32C760.9,-47.82 783.69,-34.73 800.98,-24.8"/>
<polygon fill="midnightblue" stroke="midnightblue" points="803.01,-27.67 809.93,-19.65 799.52,-21.6 803.01,-27.67"/>
</g>
<!-- Node38&#45;&gt;Node4 -->
<g id="edge50" class="edge">
<title>Node38&#45;&gt;Node4</title>
<path fill="none" stroke="midnightblue" d="M840.84,-58.04C775.94,-49.34 661.74,-33.89 564,-20 557.24,-19.04 550.05,-18 543.08,-16.97"/>
<polygon fill="midnightblue" stroke="midnightblue" points="543.49,-13.5 533.09,-15.5 542.47,-20.42 543.49,-13.5"/>
</g>
<!-- Node38&#45;&gt;Node17 -->
<g id="edge54" class="edge">
<title>Node38&#45;&gt;Node17</title>
<path fill="none" stroke="midnightblue" d="M903.76,-56.32C913.77,-48.26 928.89,-36.08 940.93,-26.37"/>
<polygon fill="midnightblue" stroke="midnightblue" points="943.45,-28.83 949.04,-19.83 939.06,-23.38 943.45,-28.83"/>
</g>
<!-- Node38&#45;&gt;Node25 -->
<g id="edge53" class="edge">
<title>Node38&#45;&gt;Node25</title>
<path fill="none" stroke="midnightblue" d="M914.23,-56.44C936.38,-47.52 971.32,-33.44 996.44,-23.32"/>
<polygon fill="midnightblue" stroke="midnightblue" points="997.9,-26.5 1005.87,-19.52 995.28,-20.01 997.9,-26.5"/>
</g>
<!-- Node38&#45;&gt;Node31 -->
<g id="edge52" class="edge">
<title>Node38&#45;&gt;Node31</title>
<path fill="none" stroke="midnightblue" d="M893,-56.08C893,-49.01 893,-38.86 893,-29.99"/>
<polygon fill="midnightblue" stroke="midnightblue" points="896.5,-29.75 893,-19.75 889.5,-29.75 896.5,-29.75"/>
</g>
<!-- Node38&#45;&gt;Node37 -->
<g id="edge51" class="edge">
<title>Node38&#45;&gt;Node37</title>
<path fill="none" stroke="midnightblue" d="M882.07,-56.32C871.83,-48.18 856.28,-35.84 844,-26.09"/>
<polygon fill="midnightblue" stroke="midnightblue" points="846.13,-23.31 836.12,-19.83 841.78,-28.79 846.13,-23.31"/>
</g>
<!-- Node43&#45;&gt;Node20 -->
<g id="edge58" class="edge">
<title>Node43&#45;&gt;Node20</title>
<path fill="none" stroke="midnightblue" d="M1167.17,-60.94C1246.06,-50.99 1448.53,-25.44 1529.15,-15.27"/>
<polygon fill="midnightblue" stroke="midnightblue" points="1529.76,-18.72 1539.24,-14 1528.89,-11.78 1529.76,-18.72"/>
</g>
<!-- Node43&#45;&gt;Node31 -->
<g id="edge59" class="edge">
<title>Node43&#45;&gt;Node31</title>
<path fill="none" stroke="midnightblue" d="M1102.77,-57.91C1099.81,-57.27 1096.85,-56.62 1094,-56 1022.85,-40.52 1002.48,-37.92 928.07,-20.18"/>
<polygon fill="midnightblue" stroke="midnightblue" points="928.76,-16.74 918.22,-17.81 927.13,-23.55 928.76,-16.74"/>
</g>
<!-- Node44 -->
<g id="node42" class="node">
<title>Node44</title>
<g id="a_node42"><a xlink:title=" ">
<polygon fill="white" stroke="#bfbfbf" points="1161,-0.5 1161,-19.5 1203,-19.5 1203,-0.5 1161,-0.5"/>
<text text-anchor="middle" x="1182" y="-7.5" font-family="Helvetica,sans-Serif" font-size="10.00">array</text>
</a>
</g>
</g>
<!-- Node43&#45;&gt;Node44 -->
<g id="edge60" class="edge">
<title>Node43&#45;&gt;Node44</title>
<path fill="none" stroke="midnightblue" d="M1142.76,-56.08C1149.54,-48.3 1159.54,-36.8 1167.76,-27.37"/>
<polygon fill="midnightblue" stroke="midnightblue" points="1170.46,-29.59 1174.38,-19.75 1165.18,-25 1170.46,-29.59"/>
</g>
<!-- Node45 -->
<g id="node43" class="node">
<title>Node45</title>
<g id="a_node43"><a xlink:title=" ">
<polygon fill="white" stroke="#bfbfbf" points="1089.5,-0.5 1089.5,-19.5 1142.5,-19.5 1142.5,-0.5 1089.5,-0.5"/>
<text text-anchor="middle" x="1116" y="-7.5" font-family="Helvetica,sans-Serif" font-size="10.00">stdlib.h</text>
</a>
</g>
</g>
<!-- Node43&#45;&gt;Node45 -->
<g id="edge61" class="edge">
<title>Node43&#45;&gt;Node45</title>
<path fill="none" stroke="midnightblue" d="M1131.86,-56.08C1129.32,-48.85 1125.64,-38.41 1122.47,-29.4"/>
<polygon fill="midnightblue" stroke="midnightblue" points="1125.7,-28.02 1119.08,-19.75 1119.1,-30.35 1125.7,-28.02"/>
</g>
<!-- Node46&#45;&gt;Node2 -->
<g id="edge63" class="edge">
<title>Node46&#45;&gt;Node2</title>
<path fill="none" stroke="midnightblue" d="M2029.36,-62.5C1911.15,-53.46 1506.17,-22.49 1388.38,-13.48"/>
<polygon fill="midnightblue" stroke="midnightblue" points="1388.44,-9.97 1378.2,-12.7 1387.91,-16.95 1388.44,-9.97"/>
</g>
<!-- Node46&#45;&gt;Node5 -->
<g id="edge65" class="edge">
<title>Node46&#45;&gt;Node5</title>
<path fill="none" stroke="midnightblue" d="M2029.4,-60.26C1961.4,-50.36 1804.62,-27.54 1730.81,-16.79"/>
<polygon fill="midnightblue" stroke="midnightblue" points="1730.94,-13.28 1720.54,-15.3 1729.93,-20.2 1730.94,-13.28"/>
</g>
<!-- Node46&#45;&gt;Node7 -->
<g id="edge68" class="edge">
<title>Node46&#45;&gt;Node7</title>
<path fill="none" stroke="midnightblue" d="M2090.05,-56.44C2120.44,-47.17 2169.04,-32.34 2202.41,-22.16"/>
<polygon fill="midnightblue" stroke="midnightblue" points="2203.7,-25.43 2212.24,-19.16 2201.66,-18.73 2203.7,-25.43"/>
</g>
<!-- Node46&#45;&gt;Node11 -->
<g id="edge69" class="edge">
<title>Node46&#45;&gt;Node11</title>
<path fill="none" stroke="midnightblue" d="M2094.57,-58.49C2140.39,-49.32 2224.39,-32.52 2279.2,-21.56"/>
<polygon fill="midnightblue" stroke="midnightblue" points="2279.96,-24.98 2289.08,-19.58 2278.59,-18.11 2279.96,-24.98"/>
</g>
<!-- Node46&#45;&gt;Node20 -->
<g id="edge64" class="edge">
<title>Node46&#45;&gt;Node20</title>
<path fill="none" stroke="midnightblue" d="M2029.26,-61.46C1939.16,-51.71 1688.18,-24.55 1596.81,-14.66"/>
<polygon fill="midnightblue" stroke="midnightblue" points="1597.05,-11.16 1586.73,-13.57 1596.3,-18.12 1597.05,-11.16"/>
</g>
<!-- Node46&#45;&gt;Node32 -->
<g id="edge71" class="edge">
<title>Node46&#45;&gt;Node32</title>
<path fill="none" stroke="midnightblue" d="M2032.37,-56.44C2000.5,-47.24 1949.67,-32.56 1914.44,-22.39"/>
<polygon fill="midnightblue" stroke="midnightblue" points="1915.07,-18.93 1904.49,-19.52 1913.13,-25.65 1915.07,-18.93"/>
</g>
<!-- Node47 -->
<g id="node45" class="node">
<title>Node47</title>
<g id="a_node45"><a xlink:title=" ">
<polygon fill="white" stroke="#bfbfbf" points="2028,-0.5 2028,-19.5 2096,-19.5 2096,-0.5 2028,-0.5"/>
<text text-anchor="middle" x="2062" y="-7.5" font-family="Helvetica,sans-Serif" font-size="10.00">filesystem</text>
</a>
</g>
</g>
<!-- Node46&#45;&gt;Node47 -->
<g id="edge66" class="edge">
<title>Node46&#45;&gt;Node47</title>
<path fill="none" stroke="midnightblue" d="M2062,-56.08C2062,-49.01 2062,-38.86 2062,-29.99"/>
<polygon fill="midnightblue" stroke="midnightblue" points="2065.5,-29.75 2062,-19.75 2058.5,-29.75 2065.5,-29.75"/>
</g>
<!-- Node48 -->
<g id="node46" class="node">
<title>Node48</title>
<g id="a_node46"><a xlink:title=" ">
<polygon fill="white" stroke="#bfbfbf" points="2114,-0.5 2114,-19.5 2194,-19.5 2194,-0.5 2114,-0.5"/>
<text text-anchor="middle" x="2154" y="-7.5" font-family="Helvetica,sans-Serif" font-size="10.00">SDL_image.h</text>
</a>
</g>
</g>
<!-- Node46&#45;&gt;Node48 -->
<g id="edge67" class="edge">
<title>Node46&#45;&gt;Node48</title>
<path fill="none" stroke="midnightblue" d="M2076.78,-56.32C2091.27,-47.82 2113.57,-34.73 2130.49,-24.8"/>
<polygon fill="midnightblue" stroke="midnightblue" points="2132.4,-27.74 2139.26,-19.65 2128.86,-21.7 2132.4,-27.74"/>
</g>
<!-- Node49 -->
<g id="node47" class="node">
<title>Node49</title>
<g id="a_node47"><a xlink:title=" ">
<polygon fill="white" stroke="#bfbfbf" points="1944,-0.5 1944,-19.5 2010,-19.5 2010,-0.5 1944,-0.5"/>
<text text-anchor="middle" x="1977" y="-7.5" font-family="Helvetica,sans-Serif" font-size="10.00">libnpy.hpp</text>
</a>
</g>
</g>
<!-- Node46&#45;&gt;Node49 -->
<g id="edge70" class="edge">
<title>Node46&#45;&gt;Node49</title>
<path fill="none" stroke="midnightblue" d="M2048.34,-56.32C2035.08,-47.9 2014.73,-34.97 1999.15,-25.07"/>
<polygon fill="midnightblue" stroke="midnightblue" points="2000.94,-22.06 1990.62,-19.65 1997.19,-27.97 2000.94,-22.06"/>
</g>
<!-- Node51&#45;&gt;Node2 -->
<g id="edge77" class="edge">
<title>Node51&#45;&gt;Node2</title>
<path fill="none" stroke="midnightblue" d="M1961.04,-112.36C1952.15,-97.77 1931.95,-68.65 1906,-56 1882.61,-44.6 1502.85,-20.14 1388.39,-13"/>
<polygon fill="midnightblue" stroke="midnightblue" points="1388.37,-9.49 1378.17,-12.36 1387.93,-16.48 1388.37,-9.49"/>
</g>
<!-- Node51&#45;&gt;Node7 -->
<g id="edge84" class="edge">
<title>Node51&#45;&gt;Node7</title>
<path fill="none" stroke="midnightblue" d="M2028.31,-119.95C2101.63,-117.24 2216.87,-107.88 2244,-76 2254.76,-63.36 2251.55,-43.88 2246.85,-29.54"/>
<polygon fill="midnightblue" stroke="midnightblue" points="2249.97,-27.89 2243.17,-19.77 2243.42,-30.36 2249.97,-27.89"/>
</g>
<!-- Node51&#45;&gt;Node8 -->
<g id="edge85" class="edge">
<title>Node51&#45;&gt;Node8</title>
<path fill="none" stroke="midnightblue" d="M1947.14,-112.44C1927.73,-103.64 1897.27,-89.81 1875.04,-79.72"/>
<polygon fill="midnightblue" stroke="midnightblue" points="1876.32,-76.46 1865.77,-75.52 1873.43,-82.84 1876.32,-76.46"/>
</g>
<!-- Node51&#45;&gt;Node9 -->
<g id="edge86" class="edge">
<title>Node51&#45;&gt;Node9</title>
<path fill="none" stroke="midnightblue" d="M2028.4,-113.09C2105.83,-103.28 2237.61,-86.57 2319.46,-76.2"/>
<polygon fill="midnightblue" stroke="midnightblue" points="2319.95,-79.66 2329.43,-74.93 2319.07,-72.72 2319.95,-79.66"/>
</g>
<!-- Node51&#45;&gt;Node10 -->
<g id="edge87" class="edge">
<title>Node51&#45;&gt;Node10</title>
<path fill="none" stroke="midnightblue" d="M2028.29,-117C2120.82,-110.71 2300.23,-97.11 2462.73,-76.07"/>
<polygon fill="midnightblue" stroke="midnightblue" points="2463.45,-79.5 2472.91,-74.74 2462.54,-72.56 2463.45,-79.5"/>
</g>
<!-- Node51&#45;&gt;Node11 -->
<g id="edge88" class="edge">
<title>Node51&#45;&gt;Node11</title>
<path fill="none" stroke="midnightblue" d="M2028.11,-115.8C2102.15,-108.86 2220.93,-95.18 2261,-76 2284.44,-64.78 2305.6,-43.21 2318.6,-28.01"/>
<polygon fill="midnightblue" stroke="midnightblue" points="2321.61,-29.86 2325.27,-19.91 2316.21,-25.4 2321.61,-29.86"/>
</g>
<!-- Node51&#45;&gt;Node12 -->
<g id="edge89" class="edge">
<title>Node51&#45;&gt;Node12</title>
<path fill="none" stroke="midnightblue" d="M2028.14,-118.15C2135.77,-112.83 2364.06,-99.8 2566.88,-76.03"/>
<polygon fill="midnightblue" stroke="midnightblue" points="2567.31,-79.51 2576.83,-74.86 2566.49,-72.56 2567.31,-79.51"/>
</g>
<!-- Node51&#45;&gt;Node18 -->
<g id="edge78" class="edge">
<title>Node51&#45;&gt;Node18</title>
<path fill="none" stroke="midnightblue" d="M1903.71,-116.23C1830.92,-110.05 1706.73,-97.66 1591.24,-76"/>
<polygon fill="midnightblue" stroke="midnightblue" points="1591.64,-72.51 1581.16,-74.08 1590.33,-79.39 1591.64,-72.51"/>
</g>
<!-- Node51&#45;&gt;Node20 -->
<g id="edge76" class="edge">
<title>Node51&#45;&gt;Node20</title>
<path fill="none" stroke="midnightblue" d="M1965.11,-112.16C1963.16,-97.82 1957.12,-69.72 1939,-56 1932.18,-50.83 1687.63,-24.29 1596.65,-14.57"/>
<polygon fill="midnightblue" stroke="midnightblue" points="1596.9,-11.08 1586.59,-13.5 1596.16,-18.04 1596.9,-11.08"/>
</g>
<!-- Node51&#45;&gt;Node21 -->
<g id="edge80" class="edge">
<title>Node51&#45;&gt;Node21</title>
<path fill="none" stroke="midnightblue" d="M1903.71,-118.26C1819.36,-113.75 1664.11,-102.67 1523.34,-75.93"/>
<polygon fill="midnightblue" stroke="midnightblue" points="1523.71,-72.44 1513.23,-73.98 1522.39,-79.31 1523.71,-72.44"/>
</g>
<!-- Node51&#45;&gt;Node26 -->
<g id="edge79" class="edge">
<title>Node51&#45;&gt;Node26</title>
<path fill="none" stroke="midnightblue" d="M1912.92,-112.44C1846.47,-101.73 1734,-83.6 1673.14,-73.79"/>
<polygon fill="midnightblue" stroke="midnightblue" points="1673.55,-70.31 1663.12,-72.18 1672.43,-77.22 1673.55,-70.31"/>
</g>
<!-- Node51&#45;&gt;Node32 -->
<g id="edge82" class="edge">
<title>Node51&#45;&gt;Node32</title>
<path fill="none" stroke="midnightblue" d="M1971.08,-112.22C1978.02,-98.94 1988.37,-73.45 1977,-56 1966.52,-39.92 1948.86,-29.55 1931.15,-22.87"/>
<polygon fill="midnightblue" stroke="midnightblue" points="1931.95,-19.45 1921.36,-19.53 1929.69,-26.07 1931.95,-19.45"/>
</g>
<!-- Node51&#45;&gt;Node33 -->
<g id="edge83" class="edge">
<title>Node51&#45;&gt;Node33</title>
<path fill="none" stroke="midnightblue" d="M1931.62,-112.44C1892.84,-102.79 1829.86,-87.12 1788.93,-76.94"/>
<polygon fill="midnightblue" stroke="midnightblue" points="1789.58,-73.49 1779.03,-74.47 1787.89,-80.28 1789.58,-73.49"/>
</g>
<!-- Node51&#45;&gt;Node46 -->
<g id="edge90" class="edge">
<title>Node51&#45;&gt;Node46</title>
<path fill="none" stroke="midnightblue" d="M1981.42,-112.32C1996.54,-103.82 2019.82,-90.73 2037.47,-80.8"/>
<polygon fill="midnightblue" stroke="midnightblue" points="2039.61,-83.61 2046.61,-75.65 2036.18,-77.51 2039.61,-83.61"/>
</g>
<!-- Node52 -->
<g id="node50" class="node">
<title>Node52</title>
<g id="a_node50"><a xlink:title=" ">
<polygon fill="white" stroke="#bfbfbf" points="2151.5,-56.5 2151.5,-75.5 2234.5,-75.5 2234.5,-56.5 2151.5,-56.5"/>
<text text-anchor="middle" x="2193" y="-63.5" font-family="Helvetica,sans-Serif" font-size="10.00">SDL_opengl.h</text>
</a>
</g>
</g>
<!-- Node51&#45;&gt;Node52 -->
<g id="edge81" class="edge">
<title>Node51&#45;&gt;Node52</title>
<path fill="none" stroke="midnightblue" d="M2001.97,-112.44C2041.32,-103.08 2104.49,-88.06 2147.31,-77.87"/>
<polygon fill="midnightblue" stroke="midnightblue" points="2148.28,-81.24 2157.2,-75.52 2146.66,-74.43 2148.28,-81.24"/>
</g>
</g>
</svg>
