<?xml version="1.0" encoding="UTF-8" standalone="no"?>
<!DOCTYPE svg PUBLIC "-//W3C//DTD SVG 1.1//EN"
 "http://www.w3.org/Graphics/SVG/1.1/DTD/svg11.dtd">
<!-- Generated by graphviz version 2.43.0 (0)
 -->
<!-- Title: src/RunGUI.cpp Pages: 1 -->
<svg width="2943pt" height="196pt"
 viewBox="0.00 0.00 2943.00 196.00" xmlns="http://www.w3.org/2000/svg" xmlns:xlink="http://www.w3.org/1999/xlink">
<g id="graph0" class="graph" transform="scale(1 1) rotate(0) translate(4 192)">
<title>src/RunGUI.cpp</title>
<polygon fill="white" stroke="transparent" points="-4,4 -4,-192 2939,-192 2939,4 -4,4"/>
<!-- Node1 -->
<g id="node1" class="node">
<title>Node1</title>
<g id="a_node1"><a xlink:title=" ">
<polygon fill="#bfbfbf" stroke="black" points="1754.5,-168.5 1754.5,-187.5 1845.5,-187.5 1845.5,-168.5 1754.5,-168.5"/>
<text text-anchor="middle" x="1800" y="-175.5" font-family="Helvetica,sans-Serif" font-size="10.00">src/RunGUI.cpp</text>
</a>
</g>
</g>
<!-- Node2 -->
<g id="node2" class="node">
<title>Node2</title>
<g id="a_node2"><a xlink:title=" ">
<polygon fill="white" stroke="#bfbfbf" points="999,-0.5 999,-19.5 1043,-19.5 1043,-0.5 999,-0.5"/>
<text text-anchor="middle" x="1021" y="-7.5" font-family="Helvetica,sans-Serif" font-size="10.00">string</text>
</a>
</g>
</g>
<!-- Node1&#45;&gt;Node2 -->
<g id="edge1" class="edge">
<title>Node1&#45;&gt;Node2</title>
<path fill="none" stroke="midnightblue" d="M1754.35,-176.03C1612.17,-172.75 1178.56,-160.61 1041,-132 970.11,-117.26 929.48,-135.35 888,-76 882.91,-68.71 882.82,-63.22 888,-56 899.93,-39.37 953.44,-25.19 988.84,-17.41"/>
<polygon fill="midnightblue" stroke="midnightblue" points="989.69,-20.81 998.74,-15.29 988.23,-13.96 989.69,-20.81"/>
</g>
<!-- Node3 -->
<g id="node3" class="node">
<title>Node3</title>
<g id="a_node3"><a xlink:title=" ">
<polygon fill="white" stroke="#bfbfbf" points="0,-0.5 0,-19.5 48,-19.5 48,-0.5 0,-0.5"/>
<text text-anchor="middle" x="24" y="-7.5" font-family="Helvetica,sans-Serif" font-size="10.00">thread</text>
</a>
</g>
</g>
<!-- Node1&#45;&gt;Node3 -->
<g id="edge2" class="edge">
<title>Node1&#45;&gt;Node3</title>
<path fill="none" stroke="midnightblue" d="M1754.26,-177.35C1534.95,-178.74 589.85,-181.71 300,-132 219.51,-118.2 198.86,-110.84 125,-76 94.91,-61.8 63.09,-40.05 43.39,-25.68"/>
<polygon fill="midnightblue" stroke="midnightblue" points="45.36,-22.78 35.24,-19.65 41.2,-28.41 45.36,-22.78"/>
</g>
<!-- Node4 -->
<g id="node4" class="node">
<title>Node4</title>
<g id="a_node4"><a xlink:title=" ">
<polygon fill="white" stroke="#bfbfbf" points="406,-0.5 406,-19.5 466,-19.5 466,-0.5 406,-0.5"/>
<text text-anchor="middle" x="436" y="-7.5" font-family="Helvetica,sans-Serif" font-size="10.00">iostream</text>
</a>
</g>
</g>
<!-- Node1&#45;&gt;Node4 -->
<g id="edge3" class="edge">
<title>Node1&#45;&gt;Node4</title>
<path fill="none" stroke="midnightblue" d="M1754.48,-176.39C1574.12,-173.76 909.35,-162.21 701,-132 600.3,-117.4 562.01,-134.85 479,-76 462.32,-64.17 450.35,-43.66 443.34,-28.83"/>
<polygon fill="midnightblue" stroke="midnightblue" points="446.53,-27.39 439.28,-19.66 440.12,-30.22 446.53,-27.39"/>
</g>
<!-- Node5 -->
<g id="node5" class="node">
<title>Node5</title>
<g id="a_node5"><a xlink:title=" ">
<polygon fill="white" stroke="#bfbfbf" points="1379.5,-0.5 1379.5,-19.5 1438.5,-19.5 1438.5,-0.5 1379.5,-0.5"/>
<text text-anchor="middle" x="1409" y="-7.5" font-family="Helvetica,sans-Serif" font-size="10.00">complex</text>
</a>
</g>
</g>
<!-- Node1&#45;&gt;Node5 -->
<g id="edge4" class="edge">
<title>Node1&#45;&gt;Node5</title>
<path fill="none" stroke="midnightblue" d="M1754.43,-176.07C1680.31,-172.2 1532.79,-154.4 1442,-76 1427.96,-63.87 1419.17,-44.31 1414.23,-29.82"/>
<polygon fill="midnightblue" stroke="midnightblue" points="1417.47,-28.44 1411.18,-19.92 1410.78,-30.51 1417.47,-28.44"/>
</g>
<!-- Node6 -->
<g id="node6" class="node">
<title>Node6</title>
<g id="a_node6"><a xlink:title=" ">
<polygon fill="white" stroke="#bfbfbf" points="808,-112.5 808,-131.5 846,-131.5 846,-112.5 808,-112.5"/>
<text text-anchor="middle" x="827" y="-119.5" font-family="Helvetica,sans-Serif" font-size="10.00">map</text>
</a>
</g>
</g>
<!-- Node1&#45;&gt;Node6 -->
<g id="edge5" class="edge">
<title>Node1&#45;&gt;Node6</title>
<path fill="none" stroke="midnightblue" d="M1754.24,-176.13C1590.67,-172.83 1035.39,-159.77 860,-132 858.71,-131.8 857.4,-131.56 856.09,-131.3"/>
<polygon fill="midnightblue" stroke="midnightblue" points="856.58,-127.82 846.04,-128.95 854.98,-134.64 856.58,-127.82"/>
</g>
<!-- Node7 -->
<g id="node7" class="node">
<title>Node7</title>
<g id="a_node7"><a xlink:title=" ">
<polygon fill="white" stroke="#bfbfbf" points="2470.5,-0.5 2470.5,-19.5 2523.5,-19.5 2523.5,-0.5 2470.5,-0.5"/>
<text text-anchor="middle" x="2497" y="-7.5" font-family="Helvetica,sans-Serif" font-size="10.00">imgui.h</text>
</a>
</g>
</g>
<!-- Node1&#45;&gt;Node7 -->
<g id="edge6" class="edge">
<title>Node1&#45;&gt;Node7</title>
<path fill="none" stroke="midnightblue" d="M1845.54,-175.54C2021.12,-169.42 2647.13,-143.02 2702,-76 2707.63,-69.12 2707.57,-62.93 2702,-56 2691.47,-42.9 2589.62,-25.31 2533.56,-16.5"/>
<polygon fill="midnightblue" stroke="midnightblue" points="2534.08,-13.04 2523.66,-14.96 2533,-19.96 2534.08,-13.04"/>
</g>
<!-- Node8 -->
<g id="node8" class="node">
<title>Node8</title>
<g id="a_node8"><a xlink:title=" ">
<polygon fill="white" stroke="#bfbfbf" points="1941,-56.5 1941,-75.5 2041,-75.5 2041,-56.5 1941,-56.5"/>
<text text-anchor="middle" x="1991" y="-63.5" font-family="Helvetica,sans-Serif" font-size="10.00">imgui_impl_sdl.h</text>
</a>
</g>
</g>
<!-- Node1&#45;&gt;Node8 -->
<g id="edge7" class="edge">
<title>Node1&#45;&gt;Node8</title>
<path fill="none" stroke="midnightblue" d="M1814.99,-168.37C1848.04,-149.33 1927.42,-103.62 1967.3,-80.65"/>
<polygon fill="midnightblue" stroke="midnightblue" points="1969.16,-83.62 1976.08,-75.59 1965.67,-77.55 1969.16,-83.62"/>
</g>
<!-- Node9 -->
<g id="node9" class="node">
<title>Node9</title>
<g id="a_node9"><a xlink:title=" ">
<polygon fill="white" stroke="#bfbfbf" points="2059.5,-56.5 2059.5,-75.5 2184.5,-75.5 2184.5,-56.5 2059.5,-56.5"/>
<text text-anchor="middle" x="2122" y="-63.5" font-family="Helvetica,sans-Serif" font-size="10.00">imgui_impl_opengl3.h</text>
</a>
</g>
</g>
<!-- Node1&#45;&gt;Node9 -->
<g id="edge8" class="edge">
<title>Node1&#45;&gt;Node9</title>
<path fill="none" stroke="midnightblue" d="M1825,-168.46C1881.94,-149.01 2021.43,-101.36 2086.94,-78.98"/>
<polygon fill="midnightblue" stroke="midnightblue" points="2088.46,-82.16 2096.8,-75.61 2086.2,-75.53 2088.46,-82.16"/>
</g>
<!-- Node10 -->
<g id="node10" class="node">
<title>Node10</title>
<g id="a_node10"><a xlink:title=" ">
<polygon fill="white" stroke="#bfbfbf" points="2497,-56.5 2497,-75.5 2583,-75.5 2583,-56.5 2497,-56.5"/>
<text text-anchor="middle" x="2540" y="-63.5" font-family="Helvetica,sans-Serif" font-size="10.00">imgui_stdlib.h</text>
</a>
</g>
</g>
<!-- Node1&#45;&gt;Node10 -->
<g id="edge9" class="edge">
<title>Node1&#45;&gt;Node10</title>
<path fill="none" stroke="midnightblue" d="M1845.79,-175.64C1934.62,-172.39 2136.26,-162.08 2303,-132 2376,-118.83 2459.15,-93.57 2505,-78.72"/>
<polygon fill="midnightblue" stroke="midnightblue" points="2506.32,-81.97 2514.74,-75.53 2504.15,-75.31 2506.32,-81.97"/>
</g>
<!-- Node11 -->
<g id="node11" class="node">
<title>Node11</title>
<g id="a_node11"><a xlink:title=" ">
<polygon fill="white" stroke="#bfbfbf" points="2839,-0.5 2839,-19.5 2935,-19.5 2935,-0.5 2839,-0.5"/>
<text text-anchor="middle" x="2887" y="-7.5" font-family="Helvetica,sans-Serif" font-size="10.00">imgui_internal.h</text>
</a>
</g>
</g>
<!-- Node1&#45;&gt;Node11 -->
<g id="edge10" class="edge">
<title>Node1&#45;&gt;Node11</title>
<path fill="none" stroke="midnightblue" d="M1845.55,-177.18C2030.68,-177.63 2720.86,-176.27 2807,-132 2848.13,-110.86 2871.42,-57.79 2881.29,-29.48"/>
<polygon fill="midnightblue" stroke="midnightblue" points="2884.73,-30.23 2884.53,-19.64 2878.08,-28.05 2884.73,-30.23"/>
</g>
<!-- Node12 -->
<g id="node12" class="node">
<title>Node12</title>
<g id="a_node12"><a xlink:title=" ">
<polygon fill="white" stroke="#bfbfbf" points="2601,-56.5 2601,-75.5 2693,-75.5 2693,-56.5 2601,-56.5"/>
<text text-anchor="middle" x="2647" y="-63.5" font-family="Helvetica,sans-Serif" font-size="10.00">imfilebrowser.h</text>
</a>
</g>
</g>
<!-- Node1&#45;&gt;Node12 -->
<g id="edge11" class="edge">
<title>Node1&#45;&gt;Node12</title>
<path fill="none" stroke="midnightblue" d="M1845.54,-175.52C1941.15,-171.93 2169.62,-160.84 2359,-132 2447.97,-118.45 2550.37,-92.91 2605.93,-78.2"/>
<polygon fill="midnightblue" stroke="midnightblue" points="2606.98,-81.54 2615.74,-75.59 2605.18,-74.78 2606.98,-81.54"/>
</g>
<!-- Node13 -->
<g id="node13" class="node">
<title>Node13</title>
<g id="a_node13"><a xlink:title=" ">
<polygon fill="white" stroke="#bfbfbf" points="134,-56.5 134,-75.5 172,-75.5 172,-56.5 134,-56.5"/>
<text text-anchor="middle" x="153" y="-63.5" font-family="Helvetica,sans-Serif" font-size="10.00">ini.h</text>
</a>
</g>
</g>
<!-- Node1&#45;&gt;Node13 -->
<g id="edge12" class="edge">
<title>Node1&#45;&gt;Node13</title>
<path fill="none" stroke="midnightblue" d="M1754.48,-176.72C1546.39,-175.27 684.35,-167.19 417,-132 311.69,-118.14 283.52,-108.35 181.8,-77.36"/>
<polygon fill="midnightblue" stroke="midnightblue" points="182.64,-73.96 172.05,-74.4 180.6,-80.66 182.64,-73.96"/>
</g>
<!-- Node14 -->
<g id="node14" class="node">
<title>Node14</title>
<g id="a_node14"><a xlink:href="../../de/ded/ImGuiINI_8hpp.html" target="_top" xlink:title=" ">
<polygon fill="white" stroke="black" points="710,-112.5 710,-131.5 790,-131.5 790,-112.5 710,-112.5"/>
<text text-anchor="middle" x="750" y="-119.5" font-family="Helvetica,sans-Serif" font-size="10.00">ImGuiINI.hpp</text>
</a>
</g>
</g>
<!-- Node1&#45;&gt;Node14 -->
<g id="edge13" class="edge">
<title>Node1&#45;&gt;Node14</title>
<path fill="none" stroke="midnightblue" d="M1754.43,-177.16C1613.77,-177.2 1173.91,-173.8 800.25,-131.97"/>
<polygon fill="midnightblue" stroke="midnightblue" points="800.37,-128.46 790.04,-130.82 799.59,-135.42 800.37,-128.46"/>
</g>
<!-- Node15 -->
<g id="node15" class="node">
<title>Node15</title>
<g id="a_node15"><a xlink:href="../../de/dfc/Ricom_8h.html" target="_top" xlink:title=" ">
<polygon fill="white" stroke="black" points="1050,-112.5 1050,-131.5 1106,-131.5 1106,-112.5 1050,-112.5"/>
<text text-anchor="middle" x="1078" y="-119.5" font-family="Helvetica,sans-Serif" font-size="10.00">Ricom.h</text>
</a>
</g>
</g>
<!-- Node1&#45;&gt;Node15 -->
<g id="edge17" class="edge">
<title>Node1&#45;&gt;Node15</title>
<path fill="none" stroke="midnightblue" d="M1754.29,-173.58C1621.76,-163.67 1239,-135.04 1116.32,-125.87"/>
<polygon fill="midnightblue" stroke="midnightblue" points="1116.5,-122.37 1106.27,-125.11 1115.98,-129.35 1116.5,-122.37"/>
</g>
<!-- Node42 -->
<g id="node40" class="node">
<title>Node42</title>
<g id="a_node40"><a xlink:href="../../dd/de4/Camera_8h.html" target="_top" xlink:title=" ">
<polygon fill="white" stroke="black" points="1451,-56.5 1451,-75.5 1515,-75.5 1515,-56.5 1451,-56.5"/>
<text text-anchor="middle" x="1483" y="-63.5" font-family="Helvetica,sans-Serif" font-size="10.00">Camera.h</text>
</a>
</g>
</g>
<!-- Node1&#45;&gt;Node42 -->
<g id="edge62" class="edge">
<title>Node1&#45;&gt;Node42</title>
<path fill="none" stroke="midnightblue" d="M1775.39,-168.46C1719.33,-149.01 1582.01,-101.36 1517.51,-78.98"/>
<polygon fill="midnightblue" stroke="midnightblue" points="1518.41,-75.58 1507.81,-75.61 1516.11,-82.2 1518.41,-75.58"/>
</g>
<!-- Node45 -->
<g id="node43" class="node">
<title>Node45</title>
<g id="a_node43"><a xlink:title=" ">
<polygon fill="white" stroke="#bfbfbf" points="2731,-112.5 2731,-131.5 2781,-131.5 2781,-112.5 2731,-112.5"/>
<text text-anchor="middle" x="2756" y="-119.5" font-family="Helvetica,sans-Serif" font-size="10.00">fonts.h</text>
</a>
</g>
</g>
<!-- Node1&#45;&gt;Node45 -->
<g id="edge61" class="edge">
<title>Node1&#45;&gt;Node45</title>
<path fill="none" stroke="midnightblue" d="M1845.59,-177.62C1979.83,-178.82 2385.06,-178.07 2717,-132 2718.28,-131.82 2719.58,-131.62 2720.88,-131.41"/>
<polygon fill="midnightblue" stroke="midnightblue" points="2721.79,-134.8 2730.95,-129.47 2720.47,-127.92 2721.79,-134.8"/>
</g>
<!-- Node46 -->
<g id="node44" class="node">
<title>Node46</title>
<g id="a_node44"><a xlink:href="../../d7/db2/GuiUtils_8h.html" target="_top" xlink:title=" ">
<polygon fill="white" stroke="black" points="2749.5,-56.5 2749.5,-75.5 2814.5,-75.5 2814.5,-56.5 2749.5,-56.5"/>
<text text-anchor="middle" x="2782" y="-63.5" font-family="Helvetica,sans-Serif" font-size="10.00">GuiUtils.h</text>
</a>
</g>
</g>
<!-- Node1&#45;&gt;Node46 -->
<g id="edge63" class="edge">
<title>Node1&#45;&gt;Node46</title>
<path fill="none" stroke="midnightblue" d="M1845.68,-176.66C2035.93,-175.02 2757,-166.54 2790,-132 2801.63,-119.83 2797.13,-99.99 2791.27,-85.43"/>
<polygon fill="midnightblue" stroke="midnightblue" points="2794.29,-83.61 2786.97,-75.94 2787.91,-86.5 2794.29,-83.61"/>
</g>
<!-- Node50 -->
<g id="node48" class="node">
<title>Node50</title>
<g id="a_node48"><a xlink:href="../../d4/d6e/ImGuiImageWindow_8h.html" target="_top" xlink:title=" ">
<polygon fill="white" stroke="black" points="2170,-112.5 2170,-131.5 2294,-131.5 2294,-112.5 2170,-112.5"/>
<text text-anchor="middle" x="2232" y="-119.5" font-family="Helvetica,sans-Serif" font-size="10.00">ImGuiImageWindow.h</text>
</a>
</g>
</g>
<!-- Node1&#45;&gt;Node50 -->
<g id="edge72" class="edge">
<title>Node1&#45;&gt;Node50</title>
<path fill="none" stroke="midnightblue" d="M1845.82,-171.27C1920.78,-161.9 2070.21,-143.22 2159.61,-132.05"/>
<polygon fill="midnightblue" stroke="midnightblue" points="2160.18,-135.5 2169.67,-130.79 2159.32,-128.56 2160.18,-135.5"/>
</g>
<!-- Node14&#45;&gt;Node2 -->
<g id="edge16" class="edge">
<title>Node14&#45;&gt;Node2</title>
<path fill="none" stroke="midnightblue" d="M756.33,-112.28C767.11,-98.12 790.46,-70.28 817,-56 832.01,-47.92 934.96,-27.45 988.62,-17.13"/>
<polygon fill="midnightblue" stroke="midnightblue" points="989.49,-20.53 998.65,-15.21 988.17,-13.66 989.49,-20.53"/>
</g>
<!-- Node14&#45;&gt;Node7 -->
<g id="edge14" class="edge">
<title>Node14&#45;&gt;Node7</title>
<path fill="none" stroke="midnightblue" d="M790.05,-113.2C793.07,-112.75 796.08,-112.34 799,-112 1119.46,-74.78 1205.17,-125.32 1524,-76 1558.52,-70.66 1565.48,-61.35 1600,-56 1769.87,-29.68 2312.5,-15.32 2459.8,-11.84"/>
<polygon fill="midnightblue" stroke="midnightblue" points="2460.19,-15.33 2470.11,-11.6 2460.03,-8.33 2460.19,-15.33"/>
</g>
<!-- Node14&#45;&gt;Node13 -->
<g id="edge15" class="edge">
<title>Node14&#45;&gt;Node13</title>
<path fill="none" stroke="midnightblue" d="M709.67,-120.36C616.67,-118.32 380.25,-109.93 186,-76 184.72,-75.78 183.41,-75.52 182.1,-75.25"/>
<polygon fill="midnightblue" stroke="midnightblue" points="182.6,-71.77 172.06,-72.85 180.97,-78.58 182.6,-71.77"/>
</g>
<!-- Node15&#45;&gt;Node2 -->
<g id="edge24" class="edge">
<title>Node15&#45;&gt;Node2</title>
<path fill="none" stroke="midnightblue" d="M1073.53,-112.37C1064.2,-94.38 1042.53,-52.55 1030.13,-28.63"/>
<polygon fill="midnightblue" stroke="midnightblue" points="1033.16,-26.86 1025.45,-19.59 1026.95,-30.08 1033.16,-26.86"/>
</g>
<!-- Node15&#45;&gt;Node3 -->
<g id="edge28" class="edge">
<title>Node15&#45;&gt;Node3</title>
<path fill="none" stroke="midnightblue" d="M1049.99,-119.73C903.81,-113.07 234.46,-82.29 214,-76 197.61,-70.96 196.71,-62.87 181,-56 175.25,-53.49 102.24,-32.89 57.84,-20.45"/>
<polygon fill="midnightblue" stroke="midnightblue" points="58.6,-17.03 48.03,-17.71 56.71,-23.77 58.6,-17.03"/>
</g>
<!-- Node15&#45;&gt;Node5 -->
<g id="edge21" class="edge">
<title>Node15&#45;&gt;Node5</title>
<path fill="none" stroke="midnightblue" d="M1106.03,-118.66C1149.67,-114.3 1235.89,-102.84 1304,-76 1321.05,-69.28 1362.17,-42.53 1387.6,-25.52"/>
<polygon fill="midnightblue" stroke="midnightblue" points="1389.84,-28.23 1396.18,-19.74 1385.93,-22.42 1389.84,-28.23"/>
</g>
<!-- Node16 -->
<g id="node16" class="node">
<title>Node16</title>
<g id="a_node16"><a xlink:title=" ">
<polygon fill="white" stroke="#bfbfbf" points="907,-0.5 907,-19.5 963,-19.5 963,-0.5 907,-0.5"/>
<text text-anchor="middle" x="935" y="-7.5" font-family="Helvetica,sans-Serif" font-size="10.00">unistd.h</text>
</a>
</g>
</g>
<!-- Node15&#45;&gt;Node16 -->
<g id="edge18" class="edge">
<title>Node15&#45;&gt;Node16</title>
<path fill="none" stroke="midnightblue" d="M1049.85,-118.53C1001.96,-113.68 907.87,-101.13 888,-76 874.64,-59.1 894.58,-38.89 912.46,-25.54"/>
<polygon fill="midnightblue" stroke="midnightblue" points="914.76,-28.21 920.92,-19.59 910.73,-22.48 914.76,-28.21"/>
</g>
<!-- Node17 -->
<g id="node17" class="node">
<title>Node17</title>
<g id="a_node17"><a xlink:title=" ">
<polygon fill="white" stroke="#bfbfbf" points="620.5,-0.5 620.5,-19.5 667.5,-19.5 667.5,-0.5 620.5,-0.5"/>
<text text-anchor="middle" x="644" y="-7.5" font-family="Helvetica,sans-Serif" font-size="10.00">cmath</text>
</a>
</g>
</g>
<!-- Node15&#45;&gt;Node17 -->
<g id="edge19" class="edge">
<title>Node15&#45;&gt;Node17</title>
<path fill="none" stroke="midnightblue" d="M1049.96,-120.13C958.91,-117.02 675.85,-105.06 648,-76 636.41,-63.9 636.9,-44.02 639.37,-29.43"/>
<polygon fill="midnightblue" stroke="midnightblue" points="642.82,-30.02 641.47,-19.52 635.97,-28.57 642.82,-30.02"/>
</g>
<!-- Node18 -->
<g id="node18" class="node">
<title>Node18</title>
<g id="a_node18"><a xlink:title=" ">
<polygon fill="white" stroke="#bfbfbf" points="1873,-56.5 1873,-75.5 1923,-75.5 1923,-56.5 1873,-56.5"/>
<text text-anchor="middle" x="1898" y="-63.5" font-family="Helvetica,sans-Serif" font-size="10.00">stdio.h</text>
</a>
</g>
</g>
<!-- Node15&#45;&gt;Node18 -->
<g id="edge20" class="edge">
<title>Node15&#45;&gt;Node18</title>
<path fill="none" stroke="midnightblue" d="M1106.06,-121.43C1207.18,-122.54 1562.32,-122.76 1862.66,-75.87"/>
<polygon fill="midnightblue" stroke="midnightblue" points="1863.54,-79.28 1872.87,-74.26 1862.45,-72.36 1863.54,-79.28"/>
</g>
<!-- Node19 -->
<g id="node19" class="node">
<title>Node19</title>
<g id="a_node19"><a xlink:title=" ">
<polygon fill="white" stroke="#bfbfbf" points="1351,-56.5 1351,-75.5 1395,-75.5 1395,-56.5 1351,-56.5"/>
<text text-anchor="middle" x="1373" y="-63.5" font-family="Helvetica,sans-Serif" font-size="10.00">cfloat</text>
</a>
</g>
</g>
<!-- Node15&#45;&gt;Node19 -->
<g id="edge22" class="edge">
<title>Node15&#45;&gt;Node19</title>
<path fill="none" stroke="midnightblue" d="M1106.11,-116.81C1153.79,-109.53 1253.5,-93.67 1337,-76 1338.28,-75.73 1339.58,-75.45 1340.89,-75.15"/>
<polygon fill="midnightblue" stroke="midnightblue" points="1342.04,-78.48 1350.97,-72.78 1340.44,-71.66 1342.04,-78.48"/>
</g>
<!-- Node20 -->
<g id="node20" class="node">
<title>Node20</title>
<g id="a_node20"><a xlink:title=" ">
<polygon fill="white" stroke="#bfbfbf" points="1908.5,-0.5 1908.5,-19.5 1955.5,-19.5 1955.5,-0.5 1908.5,-0.5"/>
<text text-anchor="middle" x="1932" y="-7.5" font-family="Helvetica,sans-Serif" font-size="10.00">vector</text>
</a>
</g>
</g>
<!-- Node15&#45;&gt;Node20 -->
<g id="edge23" class="edge">
<title>Node15&#45;&gt;Node20</title>
<path fill="none" stroke="midnightblue" d="M1106.13,-119.7C1176.85,-116.08 1367.58,-104.29 1524,-76 1558.37,-69.78 1565.74,-62.8 1600,-56 1708.18,-34.52 1838.24,-20.17 1898.43,-14.18"/>
<polygon fill="midnightblue" stroke="midnightblue" points="1898.88,-17.65 1908.49,-13.19 1898.2,-10.68 1898.88,-17.65"/>
</g>
<!-- Node21 -->
<g id="node21" class="node">
<title>Node21</title>
<g id="a_node21"><a xlink:title=" ">
<polygon fill="white" stroke="#bfbfbf" points="1609,-56.5 1609,-75.5 1653,-75.5 1653,-56.5 1609,-56.5"/>
<text text-anchor="middle" x="1631" y="-63.5" font-family="Helvetica,sans-Serif" font-size="10.00">SDL.h</text>
</a>
</g>
</g>
<!-- Node15&#45;&gt;Node21 -->
<g id="edge25" class="edge">
<title>Node15&#45;&gt;Node21</title>
<path fill="none" stroke="midnightblue" d="M1106.22,-120.11C1184.39,-117.31 1410.17,-106.95 1595,-76 1596.25,-75.79 1597.52,-75.56 1598.8,-75.31"/>
<polygon fill="midnightblue" stroke="midnightblue" points="1599.62,-78.72 1608.65,-73.17 1598.13,-71.88 1599.62,-78.72"/>
</g>
<!-- Node22 -->
<g id="node22" class="node">
<title>Node22</title>
<g id="a_node22"><a xlink:title=" ">
<polygon fill="white" stroke="#bfbfbf" points="66,-0.5 66,-19.5 114,-19.5 114,-0.5 66,-0.5"/>
<text text-anchor="middle" x="90" y="-7.5" font-family="Helvetica,sans-Serif" font-size="10.00">mutex</text>
</a>
</g>
</g>
<!-- Node15&#45;&gt;Node22 -->
<g id="edge26" class="edge">
<title>Node15&#45;&gt;Node22</title>
<path fill="none" stroke="midnightblue" d="M1049.83,-119.76C910.08,-113.55 296.25,-85.82 257,-76 236.55,-70.89 233.48,-64.05 214,-56 183.86,-43.55 148.89,-31.03 123.78,-22.37"/>
<polygon fill="midnightblue" stroke="midnightblue" points="124.6,-18.95 114.01,-19.02 122.33,-25.57 124.6,-18.95"/>
</g>
<!-- Node23 -->
<g id="node23" class="node">
<title>Node23</title>
<g id="a_node23"><a xlink:title=" ">
<polygon fill="white" stroke="#bfbfbf" points="897,-56.5 897,-75.5 943,-75.5 943,-56.5 897,-56.5"/>
<text text-anchor="middle" x="920" y="-63.5" font-family="Helvetica,sans-Serif" font-size="10.00">future</text>
</a>
</g>
</g>
<!-- Node15&#45;&gt;Node23 -->
<g id="edge27" class="edge">
<title>Node15&#45;&gt;Node23</title>
<path fill="none" stroke="midnightblue" d="M1052.96,-112.44C1025.84,-103.17 982.45,-88.34 952.66,-78.16"/>
<polygon fill="midnightblue" stroke="midnightblue" points="953.71,-74.82 943.12,-74.9 951.45,-81.45 953.71,-74.82"/>
</g>
<!-- Node24 -->
<g id="node24" class="node">
<title>Node24</title>
<g id="a_node24"><a xlink:title=" ">
<polygon fill="white" stroke="#bfbfbf" points="961,-56.5 961,-75.5 1011,-75.5 1011,-56.5 961,-56.5"/>
<text text-anchor="middle" x="986" y="-63.5" font-family="Helvetica,sans-Serif" font-size="10.00">fftw3.h</text>
</a>
</g>
</g>
<!-- Node15&#45;&gt;Node24 -->
<g id="edge29" class="edge">
<title>Node15&#45;&gt;Node24</title>
<path fill="none" stroke="midnightblue" d="M1063.22,-112.32C1048.73,-103.82 1026.43,-90.73 1009.51,-80.8"/>
<polygon fill="midnightblue" stroke="midnightblue" points="1011.14,-77.7 1000.74,-75.65 1007.6,-83.74 1011.14,-77.7"/>
</g>
<!-- Node25 -->
<g id="node25" class="node">
<title>Node25</title>
<g id="a_node25"><a xlink:title=" ">
<polygon fill="white" stroke="#bfbfbf" points="484,-0.5 484,-19.5 534,-19.5 534,-0.5 484,-0.5"/>
<text text-anchor="middle" x="509" y="-7.5" font-family="Helvetica,sans-Serif" font-size="10.00">chrono</text>
</a>
</g>
</g>
<!-- Node15&#45;&gt;Node25 -->
<g id="edge30" class="edge">
<title>Node15&#45;&gt;Node25</title>
<path fill="none" stroke="midnightblue" d="M1049.8,-119.91C934.9,-115.31 507.33,-96.86 488,-76 475.72,-62.75 485.5,-42.24 495.43,-27.81"/>
<polygon fill="midnightblue" stroke="midnightblue" points="498.27,-29.85 501.43,-19.73 492.66,-25.67 498.27,-29.85"/>
</g>
<!-- Node26 -->
<g id="node26" class="node">
<title>Node26</title>
<g id="a_node26"><a xlink:title=" ">
<polygon fill="white" stroke="#bfbfbf" points="1671,-56.5 1671,-75.5 1735,-75.5 1735,-56.5 1671,-56.5"/>
<text text-anchor="middle" x="1703" y="-63.5" font-family="Helvetica,sans-Serif" font-size="10.00">algorithm</text>
</a>
</g>
</g>
<!-- Node15&#45;&gt;Node26 -->
<g id="edge31" class="edge">
<title>Node15&#45;&gt;Node26</title>
<path fill="none" stroke="midnightblue" d="M1106.11,-120.22C1189.36,-117.62 1441.93,-107.63 1660.78,-75.98"/>
<polygon fill="midnightblue" stroke="midnightblue" points="1661.46,-79.41 1670.85,-74.5 1660.45,-72.49 1661.46,-79.41"/>
</g>
<!-- Node27 -->
<g id="node27" class="node">
<title>Node27</title>
<g id="a_node27"><a xlink:href="../../d7/d50/BoundedThreadPool_8hpp.html" target="_top" xlink:title=" ">
<polygon fill="white" stroke="black" points="266.5,-56.5 266.5,-75.5 401.5,-75.5 401.5,-56.5 266.5,-56.5"/>
<text text-anchor="middle" x="334" y="-63.5" font-family="Helvetica,sans-Serif" font-size="10.00">BoundedThreadPool.hpp</text>
</a>
</g>
</g>
<!-- Node15&#45;&gt;Node27 -->
<g id="edge32" class="edge">
<title>Node15&#45;&gt;Node27</title>
<path fill="none" stroke="midnightblue" d="M1049.75,-118.98C961.72,-112.68 684.55,-92.83 455,-76 441.05,-74.98 426.2,-73.88 411.86,-72.82"/>
<polygon fill="midnightblue" stroke="midnightblue" points="411.75,-69.3 401.52,-72.05 411.23,-76.28 411.75,-69.3"/>
</g>
<!-- Node32 -->
<g id="node32" class="node">
<title>Node32</title>
<g id="a_node32"><a xlink:title=" ">
<polygon fill="white" stroke="#bfbfbf" points="1753,-56.5 1753,-75.5 1855,-75.5 1855,-56.5 1753,-56.5"/>
<text text-anchor="middle" x="1804" y="-63.5" font-family="Helvetica,sans-Serif" font-size="10.00">tinycolormap.hpp</text>
</a>
</g>
</g>
<!-- Node15&#45;&gt;Node32 -->
<g id="edge40" class="edge">
<title>Node15&#45;&gt;Node32</title>
<path fill="none" stroke="midnightblue" d="M1106.31,-119.91C1197.19,-116.25 1489.88,-103.1 1742.86,-76.03"/>
<polygon fill="midnightblue" stroke="midnightblue" points="1743.41,-79.5 1752.97,-74.94 1742.66,-72.54 1743.41,-79.5"/>
</g>
<!-- Node33 -->
<g id="node33" class="node">
<title>Node33</title>
<g id="a_node33"><a xlink:href="../../d0/d3c/SocketConnector_8h.html" target="_top" xlink:title=" ">
<polygon fill="white" stroke="black" points="657.5,-56.5 657.5,-75.5 764.5,-75.5 764.5,-56.5 657.5,-56.5"/>
<text text-anchor="middle" x="711" y="-63.5" font-family="Helvetica,sans-Serif" font-size="10.00">SocketConnector.h</text>
</a>
</g>
</g>
<!-- Node15&#45;&gt;Node33 -->
<g id="edge41" class="edge">
<title>Node15&#45;&gt;Node33</title>
<path fill="none" stroke="midnightblue" d="M1049.81,-116.85C991.3,-108.24 855.41,-88.25 774.63,-76.36"/>
<polygon fill="midnightblue" stroke="midnightblue" points="774.98,-72.88 764.57,-74.88 773.96,-79.8 774.98,-72.88"/>
</g>
<!-- Node37 -->
<g id="node37" class="node">
<title>Node37</title>
<g id="a_node37"><a xlink:href="../../da/dce/ProgressMonitor_8h.html" target="_top" xlink:title=" ">
<polygon fill="white" stroke="red" points="497,-56.5 497,-75.5 601,-75.5 601,-56.5 497,-56.5"/>
<text text-anchor="middle" x="549" y="-63.5" font-family="Helvetica,sans-Serif" font-size="10.00">ProgressMonitor.h</text>
</a>
</g>
</g>
<!-- Node15&#45;&gt;Node37 -->
<g id="edge48" class="edge">
<title>Node15&#45;&gt;Node37</title>
<path fill="none" stroke="midnightblue" d="M1049.77,-118.64C977.42,-112.5 779.44,-95.2 615,-76 613.74,-75.85 612.47,-75.7 611.18,-75.55"/>
<polygon fill="midnightblue" stroke="midnightblue" points="611.57,-72.07 601.22,-74.31 610.71,-79.02 611.57,-72.07"/>
</g>
<!-- Node40 -->
<g id="node38" class="node">
<title>Node40</title>
<g id="a_node38"><a xlink:title=" ">
<polygon fill="white" stroke="#bfbfbf" points="1067,-56.5 1067,-75.5 1167,-75.5 1167,-56.5 1067,-56.5"/>
<text text-anchor="middle" x="1117" y="-63.5" font-family="Helvetica,sans-Serif" font-size="10.00">MerlinInterface.h</text>
</a>
</g>
</g>
<!-- Node15&#45;&gt;Node40 -->
<g id="edge54" class="edge">
<title>Node15&#45;&gt;Node40</title>
<path fill="none" stroke="midnightblue" d="M1084.44,-112.08C1089.95,-104.46 1098.03,-93.26 1104.76,-83.94"/>
<polygon fill="midnightblue" stroke="midnightblue" points="1107.66,-85.91 1110.68,-75.75 1101.99,-81.81 1107.66,-85.91"/>
</g>
<!-- Node41 -->
<g id="node39" class="node">
<title>Node41</title>
<g id="a_node39"><a xlink:title=" ">
<polygon fill="white" stroke="#bfbfbf" points="1185.5,-56.5 1185.5,-75.5 1294.5,-75.5 1294.5,-56.5 1185.5,-56.5"/>
<text text-anchor="middle" x="1240" y="-63.5" font-family="Helvetica,sans-Serif" font-size="10.00">TimepixInterface.h</text>
</a>
</g>
</g>
<!-- Node15&#45;&gt;Node41 -->
<g id="edge55" class="edge">
<title>Node15&#45;&gt;Node41</title>
<path fill="none" stroke="midnightblue" d="M1103.67,-112.44C1130.92,-103.36 1174.18,-88.94 1204.65,-78.78"/>
<polygon fill="midnightblue" stroke="midnightblue" points="1206.07,-82 1214.45,-75.52 1203.86,-75.36 1206.07,-82"/>
</g>
<!-- Node15&#45;&gt;Node42 -->
<g id="edge56" class="edge">
<title>Node15&#45;&gt;Node42</title>
<path fill="none" stroke="midnightblue" d="M1106.16,-117.25C1176.09,-107.92 1357.99,-83.67 1440.81,-72.62"/>
<polygon fill="midnightblue" stroke="midnightblue" points="1441.43,-76.07 1450.88,-71.28 1440.51,-69.13 1441.43,-76.07"/>
</g>
<!-- Node27&#45;&gt;Node3 -->
<g id="edge33" class="edge">
<title>Node27&#45;&gt;Node3</title>
<path fill="none" stroke="midnightblue" d="M269.55,-56.49C215.49,-48.9 136.09,-36.73 58.08,-20.05"/>
<polygon fill="midnightblue" stroke="midnightblue" points="58.59,-16.58 48.08,-17.88 57.11,-23.42 58.59,-16.58"/>
</g>
<!-- Node27&#45;&gt;Node4 -->
<g id="edge39" class="edge">
<title>Node27&#45;&gt;Node4</title>
<path fill="none" stroke="midnightblue" d="M350.39,-56.32C366.67,-47.7 391.87,-34.36 410.72,-24.39"/>
<polygon fill="midnightblue" stroke="midnightblue" points="412.45,-27.43 419.65,-19.65 409.18,-21.24 412.45,-27.43"/>
</g>
<!-- Node27&#45;&gt;Node22 -->
<g id="edge36" class="edge">
<title>Node27&#45;&gt;Node22</title>
<path fill="none" stroke="midnightblue" d="M290.6,-56.49C249.92,-48.34 187.19,-35.35 123.86,-20.11"/>
<polygon fill="midnightblue" stroke="midnightblue" points="124.65,-16.7 114.11,-17.74 123,-23.5 124.65,-16.7"/>
</g>
<!-- Node28 -->
<g id="node28" class="node">
<title>Node28</title>
<g id="a_node28"><a xlink:title=" ">
<polygon fill="white" stroke="#bfbfbf" points="132.5,-0.5 132.5,-19.5 179.5,-19.5 179.5,-0.5 132.5,-0.5"/>
<text text-anchor="middle" x="156" y="-7.5" font-family="Helvetica,sans-Serif" font-size="10.00">queue</text>
</a>
</g>
</g>
<!-- Node27&#45;&gt;Node28 -->
<g id="edge34" class="edge">
<title>Node27&#45;&gt;Node28</title>
<path fill="none" stroke="midnightblue" d="M305.8,-56.44C274.17,-46.85 222.92,-31.3 189.34,-21.11"/>
<polygon fill="midnightblue" stroke="midnightblue" points="190.11,-17.69 179.53,-18.14 188.08,-24.39 190.11,-17.69"/>
</g>
<!-- Node29 -->
<g id="node29" class="node">
<title>Node29</title>
<g id="a_node29"><a xlink:title=" ">
<polygon fill="white" stroke="#bfbfbf" points="197.5,-0.5 197.5,-19.5 262.5,-19.5 262.5,-0.5 197.5,-0.5"/>
<text text-anchor="middle" x="230" y="-7.5" font-family="Helvetica,sans-Serif" font-size="10.00">functional</text>
</a>
</g>
</g>
<!-- Node27&#45;&gt;Node29 -->
<g id="edge35" class="edge">
<title>Node27&#45;&gt;Node29</title>
<path fill="none" stroke="midnightblue" d="M317.29,-56.32C300.69,-47.7 275,-34.36 255.78,-24.39"/>
<polygon fill="midnightblue" stroke="midnightblue" points="257.16,-21.16 246.67,-19.65 253.93,-27.37 257.16,-21.16"/>
</g>
<!-- Node30 -->
<g id="node30" class="node">
<title>Node30</title>
<g id="a_node30"><a xlink:title=" ">
<polygon fill="white" stroke="#bfbfbf" points="280.5,-0.5 280.5,-19.5 387.5,-19.5 387.5,-0.5 280.5,-0.5"/>
<text text-anchor="middle" x="334" y="-7.5" font-family="Helvetica,sans-Serif" font-size="10.00">condition_variable</text>
</a>
</g>
</g>
<!-- Node27&#45;&gt;Node30 -->
<g id="edge37" class="edge">
<title>Node27&#45;&gt;Node30</title>
<path fill="none" stroke="midnightblue" d="M334,-56.08C334,-49.01 334,-38.86 334,-29.99"/>
<polygon fill="midnightblue" stroke="midnightblue" points="337.5,-29.75 334,-19.75 330.5,-29.75 337.5,-29.75"/>
</g>
<!-- Node31 -->
<g id="node31" class="node">
<title>Node31</title>
<g id="a_node31"><a xlink:title=" ">
<polygon fill="white" stroke="#bfbfbf" points="552,-0.5 552,-19.5 602,-19.5 602,-0.5 552,-0.5"/>
<text text-anchor="middle" x="577" y="-7.5" font-family="Helvetica,sans-Serif" font-size="10.00">atomic</text>
</a>
</g>
</g>
<!-- Node27&#45;&gt;Node31 -->
<g id="edge38" class="edge">
<title>Node27&#45;&gt;Node31</title>
<path fill="none" stroke="midnightblue" d="M376.56,-56.44C416.74,-48.23 478.9,-35.18 541.7,-20.23"/>
<polygon fill="midnightblue" stroke="midnightblue" points="542.87,-23.55 551.78,-17.82 541.24,-16.74 542.87,-23.55"/>
</g>
<!-- Node33&#45;&gt;Node2 -->
<g id="edge46" class="edge">
<title>Node33&#45;&gt;Node2</title>
<path fill="none" stroke="midnightblue" d="M761.55,-56.45C814.15,-47.52 898.89,-33.02 972,-20 977.29,-19.06 982.9,-18.04 988.37,-17.05"/>
<polygon fill="midnightblue" stroke="midnightblue" points="989.36,-20.42 998.57,-15.17 988.1,-13.54 989.36,-20.42"/>
</g>
<!-- Node33&#45;&gt;Node4 -->
<g id="edge47" class="edge">
<title>Node33&#45;&gt;Node4</title>
<path fill="none" stroke="midnightblue" d="M663.43,-56.48C617.84,-48.2 546.83,-34.97 476.17,-20.19"/>
<polygon fill="midnightblue" stroke="midnightblue" points="476.71,-16.72 466.21,-18.09 475.27,-23.57 476.71,-16.72"/>
</g>
<!-- Node33&#45;&gt;Node16 -->
<g id="edge43" class="edge">
<title>Node33&#45;&gt;Node16</title>
<path fill="none" stroke="midnightblue" d="M746.49,-56.44C787.52,-46.55 854.79,-30.34 896.89,-20.19"/>
<polygon fill="midnightblue" stroke="midnightblue" points="897.86,-23.55 906.77,-17.81 896.22,-16.75 897.86,-23.55"/>
</g>
<!-- Node34 -->
<g id="node34" class="node">
<title>Node34</title>
<g id="a_node34"><a xlink:title=" ">
<polygon fill="white" stroke="#bfbfbf" points="754.5,-0.5 754.5,-19.5 823.5,-19.5 823.5,-0.5 754.5,-0.5"/>
<text text-anchor="middle" x="789" y="-7.5" font-family="Helvetica,sans-Serif" font-size="10.00">arpa/inet.h</text>
</a>
</g>
</g>
<!-- Node33&#45;&gt;Node34 -->
<g id="edge42" class="edge">
<title>Node33&#45;&gt;Node34</title>
<path fill="none" stroke="midnightblue" d="M723.53,-56.32C735.59,-47.98 754.03,-35.21 768.27,-25.35"/>
<polygon fill="midnightblue" stroke="midnightblue" points="770.27,-28.22 776.5,-19.65 766.28,-22.47 770.27,-28.22"/>
</g>
<!-- Node35 -->
<g id="node35" class="node">
<title>Node35</title>
<g id="a_node35"><a xlink:title=" ">
<polygon fill="white" stroke="#bfbfbf" points="841.5,-0.5 841.5,-19.5 888.5,-19.5 888.5,-0.5 841.5,-0.5"/>
<text text-anchor="middle" x="865" y="-7.5" font-family="Helvetica,sans-Serif" font-size="10.00">cerrno</text>
</a>
</g>
</g>
<!-- Node33&#45;&gt;Node35 -->
<g id="edge44" class="edge">
<title>Node33&#45;&gt;Node35</title>
<path fill="none" stroke="midnightblue" d="M735.4,-56.44C761.42,-47.32 802.8,-32.81 831.78,-22.65"/>
<polygon fill="midnightblue" stroke="midnightblue" points="833.19,-25.86 841.47,-19.25 830.88,-19.26 833.19,-25.86"/>
</g>
<!-- Node36 -->
<g id="node36" class="node">
<title>Node36</title>
<g id="a_node36"><a xlink:title=" ">
<polygon fill="white" stroke="#bfbfbf" points="686,-0.5 686,-19.5 736,-19.5 736,-0.5 686,-0.5"/>
<text text-anchor="middle" x="711" y="-7.5" font-family="Helvetica,sans-Serif" font-size="10.00">cstring</text>
</a>
</g>
</g>
<!-- Node33&#45;&gt;Node36 -->
<g id="edge45" class="edge">
<title>Node33&#45;&gt;Node36</title>
<path fill="none" stroke="midnightblue" d="M711,-56.08C711,-49.01 711,-38.86 711,-29.99"/>
<polygon fill="midnightblue" stroke="midnightblue" points="714.5,-29.75 711,-19.75 707.5,-29.75 714.5,-29.75"/>
</g>
<!-- Node37&#45;&gt;Node4 -->
<g id="edge49" class="edge">
<title>Node37&#45;&gt;Node4</title>
<path fill="none" stroke="midnightblue" d="M531.09,-56.44C512.75,-47.68 483.99,-33.94 462.91,-23.86"/>
<polygon fill="midnightblue" stroke="midnightblue" points="464.35,-20.67 453.82,-19.52 461.33,-26.99 464.35,-20.67"/>
</g>
<!-- Node37&#45;&gt;Node17 -->
<g id="edge53" class="edge">
<title>Node37&#45;&gt;Node17</title>
<path fill="none" stroke="midnightblue" d="M564.26,-56.32C579.22,-47.82 602.25,-34.73 619.73,-24.8"/>
<polygon fill="midnightblue" stroke="midnightblue" points="621.81,-27.64 628.77,-19.65 618.35,-21.55 621.81,-27.64"/>
</g>
<!-- Node37&#45;&gt;Node25 -->
<g id="edge52" class="edge">
<title>Node37&#45;&gt;Node25</title>
<path fill="none" stroke="midnightblue" d="M542.39,-56.08C536.74,-48.46 528.46,-37.26 521.55,-27.94"/>
<polygon fill="midnightblue" stroke="midnightblue" points="524.25,-25.7 515.48,-19.75 518.62,-29.87 524.25,-25.7"/>
</g>
<!-- Node37&#45;&gt;Node31 -->
<g id="edge51" class="edge">
<title>Node37&#45;&gt;Node31</title>
<path fill="none" stroke="midnightblue" d="M553.62,-56.08C557.46,-48.69 563.02,-37.95 567.76,-28.81"/>
<polygon fill="midnightblue" stroke="midnightblue" points="570.97,-30.24 572.46,-19.75 564.75,-27.02 570.97,-30.24"/>
</g>
<!-- Node37&#45;&gt;Node36 -->
<g id="edge50" class="edge">
<title>Node37&#45;&gt;Node36</title>
<path fill="none" stroke="midnightblue" d="M574.67,-56.44C602.08,-47.31 645.69,-32.77 676.19,-22.6"/>
<polygon fill="midnightblue" stroke="midnightblue" points="677.6,-25.82 685.98,-19.34 675.39,-19.18 677.6,-25.82"/>
</g>
<!-- Node42&#45;&gt;Node20 -->
<g id="edge57" class="edge">
<title>Node42&#45;&gt;Node20</title>
<path fill="none" stroke="midnightblue" d="M1515.11,-58.37C1519.76,-57.51 1524.5,-56.69 1529,-56 1665.07,-35.13 1828.39,-19.89 1897.95,-13.85"/>
<polygon fill="midnightblue" stroke="midnightblue" points="1898.63,-17.31 1908.29,-12.96 1898.03,-10.33 1898.63,-17.31"/>
</g>
<!-- Node42&#45;&gt;Node31 -->
<g id="edge58" class="edge">
<title>Node42&#45;&gt;Node31</title>
<path fill="none" stroke="midnightblue" d="M1450.76,-60.82C1436.46,-59.1 1419.41,-57.23 1404,-56 1055.65,-28.28 961.52,-72.59 612.27,-19.84"/>
<polygon fill="midnightblue" stroke="midnightblue" points="612.54,-16.34 602.12,-18.29 611.48,-23.26 612.54,-16.34"/>
</g>
<!-- Node43 -->
<g id="node41" class="node">
<title>Node43</title>
<g id="a_node41"><a xlink:title=" ">
<polygon fill="white" stroke="#bfbfbf" points="1528,-0.5 1528,-19.5 1570,-19.5 1570,-0.5 1528,-0.5"/>
<text text-anchor="middle" x="1549" y="-7.5" font-family="Helvetica,sans-Serif" font-size="10.00">array</text>
</a>
</g>
</g>
<!-- Node42&#45;&gt;Node43 -->
<g id="edge59" class="edge">
<title>Node42&#45;&gt;Node43</title>
<path fill="none" stroke="midnightblue" d="M1493.6,-56.32C1503.46,-48.26 1518.35,-36.08 1530.22,-26.37"/>
<polygon fill="midnightblue" stroke="midnightblue" points="1532.68,-28.88 1538.2,-19.83 1528.25,-23.46 1532.68,-28.88"/>
</g>
<!-- Node44 -->
<g id="node42" class="node">
<title>Node44</title>
<g id="a_node42"><a xlink:title=" ">
<polygon fill="white" stroke="#bfbfbf" points="1456.5,-0.5 1456.5,-19.5 1509.5,-19.5 1509.5,-0.5 1456.5,-0.5"/>
<text text-anchor="middle" x="1483" y="-7.5" font-family="Helvetica,sans-Serif" font-size="10.00">stdlib.h</text>
</a>
</g>
</g>
<!-- Node42&#45;&gt;Node44 -->
<g id="edge60" class="edge">
<title>Node42&#45;&gt;Node44</title>
<path fill="none" stroke="midnightblue" d="M1483,-56.08C1483,-49.01 1483,-38.86 1483,-29.99"/>
<polygon fill="midnightblue" stroke="midnightblue" points="1486.5,-29.75 1483,-19.75 1479.5,-29.75 1486.5,-29.75"/>
</g>
<!-- Node46&#45;&gt;Node2 -->
<g id="edge64" class="edge">
<title>Node46&#45;&gt;Node2</title>
<path fill="none" stroke="midnightblue" d="M2749.36,-60.69C2734.88,-58.94 2717.62,-57.09 2702,-56 2680.63,-54.51 1284.66,-17.91 1053.31,-11.85"/>
<polygon fill="midnightblue" stroke="midnightblue" points="1053.28,-8.34 1043.19,-11.58 1053.09,-15.34 1053.28,-8.34"/>
</g>
<!-- Node46&#45;&gt;Node5 -->
<g id="edge66" class="edge">
<title>Node46&#45;&gt;Node5</title>
<path fill="none" stroke="midnightblue" d="M2749.36,-60.71C2734.88,-58.96 2717.61,-57.1 2702,-56 2149.21,-17.04 2002.8,-90.13 1448.95,-19.8"/>
<polygon fill="midnightblue" stroke="midnightblue" points="1449.06,-16.29 1438.7,-18.49 1448.18,-23.23 1449.06,-16.29"/>
</g>
<!-- Node46&#45;&gt;Node7 -->
<g id="edge69" class="edge">
<title>Node46&#45;&gt;Node7</title>
<path fill="none" stroke="midnightblue" d="M2749.39,-58.74C2744.56,-57.82 2739.65,-56.89 2735,-56 2663.76,-42.44 2580.49,-26.73 2533.73,-17.92"/>
<polygon fill="midnightblue" stroke="midnightblue" points="2534.25,-14.45 2523.77,-16.04 2532.95,-21.33 2534.25,-14.45"/>
</g>
<!-- Node46&#45;&gt;Node11 -->
<g id="edge70" class="edge">
<title>Node46&#45;&gt;Node11</title>
<path fill="none" stroke="midnightblue" d="M2798.87,-56.32C2815.71,-47.66 2841.81,-34.24 2861.24,-24.25"/>
<polygon fill="midnightblue" stroke="midnightblue" points="2862.88,-27.34 2870.17,-19.65 2859.68,-21.12 2862.88,-27.34"/>
</g>
<!-- Node46&#45;&gt;Node20 -->
<g id="edge65" class="edge">
<title>Node46&#45;&gt;Node20</title>
<path fill="none" stroke="midnightblue" d="M2749.34,-60.93C2734.86,-59.22 2717.6,-57.33 2702,-56 2417.89,-31.73 2073.68,-16.7 1965.92,-12.33"/>
<polygon fill="midnightblue" stroke="midnightblue" points="1965.8,-8.82 1955.66,-11.92 1965.51,-15.82 1965.8,-8.82"/>
</g>
<!-- Node47 -->
<g id="node45" class="node">
<title>Node47</title>
<g id="a_node45"><a xlink:title=" ">
<polygon fill="white" stroke="#bfbfbf" points="2655,-0.5 2655,-19.5 2723,-19.5 2723,-0.5 2655,-0.5"/>
<text text-anchor="middle" x="2689" y="-7.5" font-family="Helvetica,sans-Serif" font-size="10.00">filesystem</text>
</a>
</g>
</g>
<!-- Node46&#45;&gt;Node47 -->
<g id="edge67" class="edge">
<title>Node46&#45;&gt;Node47</title>
<path fill="none" stroke="midnightblue" d="M2767.06,-56.32C2752.41,-47.82 2729.87,-34.73 2712.76,-24.8"/>
<polygon fill="midnightblue" stroke="midnightblue" points="2714.31,-21.65 2703.9,-19.65 2710.8,-27.7 2714.31,-21.65"/>
</g>
<!-- Node48 -->
<g id="node46" class="node">
<title>Node48</title>
<g id="a_node46"><a xlink:title=" ">
<polygon fill="white" stroke="#bfbfbf" points="2741,-0.5 2741,-19.5 2821,-19.5 2821,-0.5 2741,-0.5"/>
<text text-anchor="middle" x="2781" y="-7.5" font-family="Helvetica,sans-Serif" font-size="10.00">SDL_image.h</text>
</a>
</g>
</g>
<!-- Node46&#45;&gt;Node48 -->
<g id="edge68" class="edge">
<title>Node46&#45;&gt;Node48</title>
<path fill="none" stroke="midnightblue" d="M2781.83,-56.08C2781.7,-49.01 2781.52,-38.86 2781.35,-29.99"/>
<polygon fill="midnightblue" stroke="midnightblue" points="2784.85,-29.68 2781.16,-19.75 2777.85,-29.81 2784.85,-29.68"/>
</g>
<!-- Node49 -->
<g id="node47" class="node">
<title>Node49</title>
<g id="a_node47"><a xlink:title=" ">
<polygon fill="white" stroke="#bfbfbf" points="2571,-0.5 2571,-19.5 2637,-19.5 2637,-0.5 2571,-0.5"/>
<text text-anchor="middle" x="2604" y="-7.5" font-family="Helvetica,sans-Serif" font-size="10.00">libnpy.hpp</text>
</a>
</g>
</g>
<!-- Node46&#45;&gt;Node49 -->
<g id="edge71" class="edge">
<title>Node46&#45;&gt;Node49</title>
<path fill="none" stroke="midnightblue" d="M2753.8,-56.44C2723.59,-47.28 2675.49,-32.69 2641.97,-22.52"/>
<polygon fill="midnightblue" stroke="midnightblue" points="2642.66,-19.07 2632.07,-19.52 2640.63,-25.77 2642.66,-19.07"/>
</g>
<!-- Node50&#45;&gt;Node2 -->
<g id="edge74" class="edge">
<title>Node50&#45;&gt;Node2</title>
<path fill="none" stroke="midnightblue" d="M2229.84,-112.35C2225.69,-97.77 2215.08,-68.64 2194,-56 2168.84,-40.92 1239.74,-16.56 1053.36,-11.81"/>
<polygon fill="midnightblue" stroke="midnightblue" points="1053.21,-8.31 1043.12,-11.55 1053.03,-15.31 1053.21,-8.31"/>
</g>
<!-- Node50&#45;&gt;Node7 -->
<g id="edge81" class="edge">
<title>Node50&#45;&gt;Node7</title>
<path fill="none" stroke="midnightblue" d="M2294.32,-120.02C2340.58,-116.61 2403.44,-106.12 2450,-76 2467.67,-64.57 2480.86,-43.98 2488.7,-29.03"/>
<polygon fill="midnightblue" stroke="midnightblue" points="2491.98,-30.28 2493.26,-19.77 2485.7,-27.19 2491.98,-30.28"/>
</g>
<!-- Node50&#45;&gt;Node8 -->
<g id="edge82" class="edge">
<title>Node50&#45;&gt;Node8</title>
<path fill="none" stroke="midnightblue" d="M2193.81,-112.44C2151.86,-103.04 2084.41,-87.93 2038.93,-77.74"/>
<polygon fill="midnightblue" stroke="midnightblue" points="2039.53,-74.29 2029.01,-75.52 2038,-81.12 2039.53,-74.29"/>
</g>
<!-- Node50&#45;&gt;Node9 -->
<g id="edge83" class="edge">
<title>Node50&#45;&gt;Node9</title>
<path fill="none" stroke="midnightblue" d="M2214.33,-112.32C2196.61,-103.62 2169.1,-90.12 2148.71,-80.11"/>
<polygon fill="midnightblue" stroke="midnightblue" points="2150.15,-76.92 2139.63,-75.65 2147.06,-83.2 2150.15,-76.92"/>
</g>
<!-- Node50&#45;&gt;Node10 -->
<g id="edge84" class="edge">
<title>Node50&#45;&gt;Node10</title>
<path fill="none" stroke="midnightblue" d="M2280.8,-112.44C2336.97,-102.6 2428.9,-86.48 2486.84,-76.32"/>
<polygon fill="midnightblue" stroke="midnightblue" points="2487.65,-79.73 2496.89,-74.56 2486.44,-72.84 2487.65,-79.73"/>
</g>
<!-- Node50&#45;&gt;Node11 -->
<g id="edge85" class="edge">
<title>Node50&#45;&gt;Node11</title>
<path fill="none" stroke="midnightblue" d="M2294.16,-121.78C2426.46,-122.57 2731.38,-119.43 2824,-76 2846.15,-65.61 2864.66,-43.82 2875.77,-28.33"/>
<polygon fill="midnightblue" stroke="midnightblue" points="2878.94,-29.9 2881.69,-19.67 2873.16,-25.95 2878.94,-29.9"/>
</g>
<!-- Node50&#45;&gt;Node12 -->
<g id="edge86" class="edge">
<title>Node50&#45;&gt;Node12</title>
<path fill="none" stroke="midnightblue" d="M2294.21,-113.95C2363.94,-105.88 2480.65,-91.89 2590.85,-76.12"/>
<polygon fill="midnightblue" stroke="midnightblue" points="2591.41,-79.58 2600.81,-74.69 2590.41,-72.65 2591.41,-79.58"/>
</g>
<!-- Node50&#45;&gt;Node18 -->
<g id="edge75" class="edge">
<title>Node50&#45;&gt;Node18</title>
<path fill="none" stroke="midnightblue" d="M2169.88,-113.71C2111.17,-106.35 2020.46,-93.82 1933,-76.02"/>
<polygon fill="midnightblue" stroke="midnightblue" points="1933.68,-72.59 1923.18,-73.99 1932.27,-79.44 1933.68,-72.59"/>
</g>
<!-- Node50&#45;&gt;Node20 -->
<g id="edge73" class="edge">
<title>Node50&#45;&gt;Node20</title>
<path fill="none" stroke="midnightblue" d="M2234.4,-112.09C2237.55,-98.17 2241.17,-71.26 2227,-56 2192.22,-18.53 2035.72,-12.09 1965.86,-11.1"/>
<polygon fill="midnightblue" stroke="midnightblue" points="1965.85,-7.6 1955.82,-10.99 1965.78,-14.6 1965.85,-7.6"/>
</g>
<!-- Node50&#45;&gt;Node21 -->
<g id="edge77" class="edge">
<title>Node50&#45;&gt;Node21</title>
<path fill="none" stroke="midnightblue" d="M2169.89,-120.22C2066.43,-118.03 1852.3,-109.66 1663.34,-75.88"/>
<polygon fill="midnightblue" stroke="midnightblue" points="1663.69,-72.38 1653.22,-74.04 1662.43,-79.27 1663.69,-72.38"/>
</g>
<!-- Node50&#45;&gt;Node26 -->
<g id="edge76" class="edge">
<title>Node50&#45;&gt;Node26</title>
<path fill="none" stroke="midnightblue" d="M2169.68,-117.74C2078.52,-112.41 1903.34,-100.11 1745.08,-75.99"/>
<polygon fill="midnightblue" stroke="midnightblue" points="1745.57,-72.52 1735.16,-74.45 1744.51,-79.44 1745.57,-72.52"/>
</g>
<!-- Node50&#45;&gt;Node32 -->
<g id="edge79" class="edge">
<title>Node50&#45;&gt;Node32</title>
<path fill="none" stroke="midnightblue" d="M2169.75,-113.91C2098.66,-105.7 1978.6,-91.47 1865.29,-76.14"/>
<polygon fill="midnightblue" stroke="midnightblue" points="1865.43,-72.63 1855.05,-74.75 1864.49,-79.57 1865.43,-72.63"/>
</g>
<!-- Node50&#45;&gt;Node46 -->
<g id="edge87" class="edge">
<title>Node50&#45;&gt;Node46</title>
<path fill="none" stroke="midnightblue" d="M2294.37,-115.36C2384.42,-107.14 2556.06,-91.19 2702,-76 2714.04,-74.75 2727.09,-73.31 2739.09,-71.96"/>
<polygon fill="midnightblue" stroke="midnightblue" points="2739.78,-75.4 2749.32,-70.8 2738.99,-68.45 2739.78,-75.4"/>
</g>
<!-- Node51 -->
<g id="node49" class="node">
<title>Node51</title>
<g id="a_node49"><a xlink:title=" ">
<polygon fill="white" stroke="#bfbfbf" points="2279.5,-56.5 2279.5,-75.5 2362.5,-75.5 2362.5,-56.5 2279.5,-56.5"/>
<text text-anchor="middle" x="2321" y="-63.5" font-family="Helvetica,sans-Serif" font-size="10.00">SDL_opengl.h</text>
</a>
</g>
</g>
<!-- Node50&#45;&gt;Node51 -->
<g id="edge78" class="edge">
<title>Node50&#45;&gt;Node51</title>
<path fill="none" stroke="midnightblue" d="M2246.3,-112.32C2260.18,-103.9 2281.49,-90.97 2297.8,-81.07"/>
<polygon fill="midnightblue" stroke="midnightblue" points="2300,-83.83 2306.74,-75.65 2296.37,-77.85 2300,-83.83"/>
</g>
<!-- Node52 -->
<g id="node50" class="node">
<title>Node52</title>
<g id="a_node50"><a xlink:title=" ">
<polygon fill="white" stroke="#bfbfbf" points="2381,-56.5 2381,-75.5 2441,-75.5 2441,-56.5 2381,-56.5"/>
<text text-anchor="middle" x="2411" y="-63.5" font-family="Helvetica,sans-Serif" font-size="10.00">fft2d.hpp</text>
</a>
</g>
</g>
<!-- Node50&#45;&gt;Node52 -->
<g id="edge80" class="edge">
<title>Node50&#45;&gt;Node52</title>
<path fill="none" stroke="midnightblue" d="M2260.36,-112.44C2290.74,-103.28 2339.11,-88.69 2372.82,-78.52"/>
<polygon fill="midnightblue" stroke="midnightblue" points="2374.21,-81.76 2382.77,-75.52 2372.18,-75.05 2374.21,-81.76"/>
</g>
</g>
</svg>
