<?xml version="1.0" encoding="UTF-8" standalone="no"?>
<!DOCTYPE svg PUBLIC "-//W3C//DTD SVG 1.1//EN"
 "http://www.w3.org/Graphics/SVG/1.1/DTD/svg11.dtd">
<!-- Generated by graphviz version 2.43.0 (0)
 -->
<!-- Title: src/GuiUtils.h Pages: 1 -->
<svg width="1348pt" height="84pt"
 viewBox="0.00 0.00 1348.00 84.00" xmlns="http://www.w3.org/2000/svg" xmlns:xlink="http://www.w3.org/1999/xlink">
<g id="graph0" class="graph" transform="scale(1 1) rotate(0) translate(4 80)">
<title>src/GuiUtils.h</title>
<polygon fill="white" stroke="transparent" points="-4,4 -4,-80 1344,-80 1344,4 -4,4"/>
<!-- Node1 -->
<g id="node1" class="node">
<title>Node1</title>
<g id="a_node1"><a xlink:title=" ">
<polygon fill="#bfbfbf" stroke="black" points="512,-56.5 512,-75.5 594,-75.5 594,-56.5 512,-56.5"/>
<text text-anchor="middle" x="553" y="-63.5" font-family="Helvetica,sans-Serif" font-size="10.00">src/GuiUtils.h</text>
</a>
</g>
</g>
<!-- Node2 -->
<g id="node2" class="node">
<title>Node2</title>
<g id="a_node2"><a xlink:title=" ">
<polygon fill="white" stroke="#bfbfbf" points="0,-0.5 0,-19.5 44,-19.5 44,-0.5 0,-0.5"/>
<text text-anchor="middle" x="22" y="-7.5" font-family="Helvetica,sans-Serif" font-size="10.00">string</text>
</a>
</g>
</g>
<!-- Node1&#45;&gt;Node2 -->
<g id="edge1" class="edge">
<title>Node1&#45;&gt;Node2</title>
<path fill="none" stroke="midnightblue" d="M511.8,-63.97C427.42,-61.3 228.85,-52.05 54.11,-19.86"/>
<polygon fill="midnightblue" stroke="midnightblue" points="54.7,-16.41 44.23,-18.01 53.41,-23.29 54.7,-16.41"/>
</g>
<!-- Node3 -->
<g id="node3" class="node">
<title>Node3</title>
<g id="a_node3"><a xlink:title=" ">
<polygon fill="white" stroke="#bfbfbf" points="62,-0.5 62,-19.5 122,-19.5 122,-0.5 62,-0.5"/>
<text text-anchor="middle" x="92" y="-7.5" font-family="Helvetica,sans-Serif" font-size="10.00">iostream</text>
</a>
</g>
</g>
<!-- Node1&#45;&gt;Node3 -->
<g id="edge2" class="edge">
<title>Node1&#45;&gt;Node3</title>
<path fill="none" stroke="midnightblue" d="M511.74,-62.26C437.65,-56.98 277.03,-43.9 132.12,-20"/>
<polygon fill="midnightblue" stroke="midnightblue" points="132.6,-16.53 122.16,-18.34 131.45,-23.44 132.6,-16.53"/>
</g>
<!-- Node4 -->
<g id="node4" class="node">
<title>Node4</title>
<g id="a_node4"><a xlink:title=" ">
<polygon fill="white" stroke="#bfbfbf" points="140.5,-0.5 140.5,-19.5 187.5,-19.5 187.5,-0.5 140.5,-0.5"/>
<text text-anchor="middle" x="164" y="-7.5" font-family="Helvetica,sans-Serif" font-size="10.00">vector</text>
</a>
</g>
</g>
<!-- Node1&#45;&gt;Node4 -->
<g id="edge3" class="edge">
<title>Node1&#45;&gt;Node4</title>
<path fill="none" stroke="midnightblue" d="M511.99,-61.83C447.09,-56.38 316.66,-43.66 197.68,-20.09"/>
<polygon fill="midnightblue" stroke="midnightblue" points="198.16,-16.62 187.67,-18.08 196.78,-23.48 198.16,-16.62"/>
</g>
<!-- Node5 -->
<g id="node5" class="node">
<title>Node5</title>
<g id="a_node5"><a xlink:title=" ">
<polygon fill="white" stroke="#bfbfbf" points="205.5,-0.5 205.5,-19.5 264.5,-19.5 264.5,-0.5 205.5,-0.5"/>
<text text-anchor="middle" x="235" y="-7.5" font-family="Helvetica,sans-Serif" font-size="10.00">complex</text>
</a>
</g>
</g>
<!-- Node1&#45;&gt;Node5 -->
<g id="edge4" class="edge">
<title>Node1&#45;&gt;Node5</title>
<path fill="none" stroke="midnightblue" d="M511.72,-59.22C459.05,-51.66 364.93,-37.49 274.62,-20.01"/>
<polygon fill="midnightblue" stroke="midnightblue" points="275.25,-16.57 264.77,-18.09 273.91,-23.44 275.25,-16.57"/>
</g>
<!-- Node6 -->
<g id="node6" class="node">
<title>Node6</title>
<g id="a_node6"><a xlink:title=" ">
<polygon fill="white" stroke="#bfbfbf" points="283,-0.5 283,-19.5 333,-19.5 333,-0.5 283,-0.5"/>
<text text-anchor="middle" x="308" y="-7.5" font-family="Helvetica,sans-Serif" font-size="10.00">stdio.h</text>
</a>
</g>
</g>
<!-- Node1&#45;&gt;Node6 -->
<g id="edge5" class="edge">
<title>Node1&#45;&gt;Node6</title>
<path fill="none" stroke="midnightblue" d="M511.63,-56.8C471.07,-48.62 407.27,-35.38 343.1,-20.18"/>
<polygon fill="midnightblue" stroke="midnightblue" points="343.76,-16.74 333.22,-17.82 342.13,-23.55 343.76,-16.74"/>
</g>
<!-- Node7 -->
<g id="node7" class="node">
<title>Node7</title>
<g id="a_node7"><a xlink:title=" ">
<polygon fill="white" stroke="#bfbfbf" points="351,-0.5 351,-19.5 395,-19.5 395,-0.5 351,-0.5"/>
<text text-anchor="middle" x="373" y="-7.5" font-family="Helvetica,sans-Serif" font-size="10.00">SDL.h</text>
</a>
</g>
</g>
<!-- Node1&#45;&gt;Node7 -->
<g id="edge6" class="edge">
<title>Node1&#45;&gt;Node7</title>
<path fill="none" stroke="midnightblue" d="M524.48,-56.44C491.96,-46.69 438.92,-30.78 405.01,-20.6"/>
<polygon fill="midnightblue" stroke="midnightblue" points="405.73,-17.17 395.15,-17.64 403.72,-23.87 405.73,-17.17"/>
</g>
<!-- Node8 -->
<g id="node8" class="node">
<title>Node8</title>
<g id="a_node8"><a xlink:title=" ">
<polygon fill="white" stroke="#bfbfbf" points="413,-0.5 413,-19.5 493,-19.5 493,-0.5 413,-0.5"/>
<text text-anchor="middle" x="453" y="-7.5" font-family="Helvetica,sans-Serif" font-size="10.00">SDL_image.h</text>
</a>
</g>
</g>
<!-- Node1&#45;&gt;Node8 -->
<g id="edge7" class="edge">
<title>Node1&#45;&gt;Node8</title>
<path fill="none" stroke="midnightblue" d="M536.93,-56.32C521.04,-47.74 496.49,-34.49 478.04,-24.52"/>
<polygon fill="midnightblue" stroke="midnightblue" points="479.49,-21.33 469.03,-19.65 476.16,-27.49 479.49,-21.33"/>
</g>
<!-- Node9 -->
<g id="node9" class="node">
<title>Node9</title>
<g id="a_node9"><a xlink:title=" ">
<polygon fill="white" stroke="#bfbfbf" points="511.5,-0.5 511.5,-19.5 594.5,-19.5 594.5,-0.5 511.5,-0.5"/>
<text text-anchor="middle" x="553" y="-7.5" font-family="Helvetica,sans-Serif" font-size="10.00">SDL_opengl.h</text>
</a>
</g>
</g>
<!-- Node1&#45;&gt;Node9 -->
<g id="edge8" class="edge">
<title>Node1&#45;&gt;Node9</title>
<path fill="none" stroke="midnightblue" d="M553,-56.08C553,-49.01 553,-38.86 553,-29.99"/>
<polygon fill="midnightblue" stroke="midnightblue" points="556.5,-29.75 553,-19.75 549.5,-29.75 556.5,-29.75"/>
</g>
<!-- Node10 -->
<g id="node10" class="node">
<title>Node10</title>
<g id="a_node10"><a xlink:title=" ">
<polygon fill="white" stroke="#bfbfbf" points="612.5,-0.5 612.5,-19.5 665.5,-19.5 665.5,-0.5 612.5,-0.5"/>
<text text-anchor="middle" x="639" y="-7.5" font-family="Helvetica,sans-Serif" font-size="10.00">imgui.h</text>
</a>
</g>
</g>
<!-- Node1&#45;&gt;Node10 -->
<g id="edge9" class="edge">
<title>Node1&#45;&gt;Node10</title>
<path fill="none" stroke="midnightblue" d="M566.82,-56.32C580.23,-47.9 600.82,-34.97 616.59,-25.07"/>
<polygon fill="midnightblue" stroke="midnightblue" points="618.61,-27.94 625.22,-19.65 614.89,-22.01 618.61,-27.94"/>
</g>
<!-- Node11 -->
<g id="node11" class="node">
<title>Node11</title>
<g id="a_node11"><a xlink:title=" ">
<polygon fill="white" stroke="#bfbfbf" points="684,-0.5 684,-19.5 784,-19.5 784,-0.5 684,-0.5"/>
<text text-anchor="middle" x="734" y="-7.5" font-family="Helvetica,sans-Serif" font-size="10.00">imgui_impl_sdl.h</text>
</a>
</g>
</g>
<!-- Node1&#45;&gt;Node11 -->
<g id="edge10" class="edge">
<title>Node1&#45;&gt;Node11</title>
<path fill="none" stroke="midnightblue" d="M581.68,-56.44C612.53,-47.24 661.73,-32.56 695.83,-22.39"/>
<polygon fill="midnightblue" stroke="midnightblue" points="696.87,-25.73 705.45,-19.52 694.87,-19.02 696.87,-25.73"/>
</g>
<!-- Node12 -->
<g id="node12" class="node">
<title>Node12</title>
<g id="a_node12"><a xlink:title=" ">
<polygon fill="white" stroke="#bfbfbf" points="802.5,-0.5 802.5,-19.5 927.5,-19.5 927.5,-0.5 802.5,-0.5"/>
<text text-anchor="middle" x="865" y="-7.5" font-family="Helvetica,sans-Serif" font-size="10.00">imgui_impl_opengl3.h</text>
</a>
</g>
</g>
<!-- Node1&#45;&gt;Node12 -->
<g id="edge11" class="edge">
<title>Node1&#45;&gt;Node12</title>
<path fill="none" stroke="midnightblue" d="M594.11,-57.88C648.26,-48.51 743.87,-31.96 805.81,-21.24"/>
<polygon fill="midnightblue" stroke="midnightblue" points="806.57,-24.66 815.83,-19.51 805.38,-17.77 806.57,-24.66"/>
</g>
<!-- Node13 -->
<g id="node13" class="node">
<title>Node13</title>
<g id="a_node13"><a xlink:title=" ">
<polygon fill="white" stroke="#bfbfbf" points="946,-0.5 946,-19.5 1032,-19.5 1032,-0.5 946,-0.5"/>
<text text-anchor="middle" x="989" y="-7.5" font-family="Helvetica,sans-Serif" font-size="10.00">imgui_stdlib.h</text>
</a>
</g>
</g>
<!-- Node1&#45;&gt;Node13 -->
<g id="edge12" class="edge">
<title>Node1&#45;&gt;Node13</title>
<path fill="none" stroke="midnightblue" d="M594.01,-60.94C662.57,-53.99 804.98,-38.86 935.71,-20.12"/>
<polygon fill="midnightblue" stroke="midnightblue" points="936.5,-23.54 945.9,-18.65 935.5,-16.61 936.5,-23.54"/>
</g>
<!-- Node14 -->
<g id="node14" class="node">
<title>Node14</title>
<g id="a_node14"><a xlink:title=" ">
<polygon fill="white" stroke="#bfbfbf" points="1050,-0.5 1050,-19.5 1146,-19.5 1146,-0.5 1050,-0.5"/>
<text text-anchor="middle" x="1098" y="-7.5" font-family="Helvetica,sans-Serif" font-size="10.00">imgui_internal.h</text>
</a>
</g>
</g>
<!-- Node1&#45;&gt;Node14 -->
<g id="edge13" class="edge">
<title>Node1&#45;&gt;Node14</title>
<path fill="none" stroke="midnightblue" d="M594.23,-62.1C676.79,-56.11 868.47,-41.2 1039.87,-20.07"/>
<polygon fill="midnightblue" stroke="midnightblue" points="1040.34,-23.54 1049.83,-18.83 1039.47,-16.59 1040.34,-23.54"/>
</g>
<!-- Node15 -->
<g id="node15" class="node">
<title>Node15</title>
<g id="a_node15"><a xlink:title=" ">
<polygon fill="white" stroke="#bfbfbf" points="1164,-0.5 1164,-19.5 1256,-19.5 1256,-0.5 1164,-0.5"/>
<text text-anchor="middle" x="1210" y="-7.5" font-family="Helvetica,sans-Serif" font-size="10.00">imfilebrowser.h</text>
</a>
</g>
</g>
<!-- Node1&#45;&gt;Node15 -->
<g id="edge14" class="edge">
<title>Node1&#45;&gt;Node15</title>
<path fill="none" stroke="midnightblue" d="M594.36,-63.16C690.64,-58.6 937.41,-45.39 1153.87,-20.03"/>
<polygon fill="midnightblue" stroke="midnightblue" points="1154.31,-23.51 1163.83,-18.86 1153.49,-16.56 1154.31,-23.51"/>
</g>
<!-- Node16 -->
<g id="node16" class="node">
<title>Node16</title>
<g id="a_node16"><a xlink:title=" ">
<polygon fill="white" stroke="#bfbfbf" points="1274,-0.5 1274,-19.5 1340,-19.5 1340,-0.5 1274,-0.5"/>
<text text-anchor="middle" x="1307" y="-7.5" font-family="Helvetica,sans-Serif" font-size="10.00">libnpy.hpp</text>
</a>
</g>
</g>
<!-- Node1&#45;&gt;Node16 -->
<g id="edge15" class="edge">
<title>Node1&#45;&gt;Node16</title>
<path fill="none" stroke="midnightblue" d="M594.15,-64.52C702.35,-62.82 1003.85,-55.16 1263.61,-19.99"/>
<polygon fill="midnightblue" stroke="midnightblue" points="1264.18,-23.45 1273.61,-18.62 1263.23,-16.51 1264.18,-23.45"/>
</g>
</g>
</svg>
