<?xml version="1.0" encoding="UTF-8" standalone="no"?>
<!DOCTYPE svg PUBLIC "-//W3C//DTD SVG 1.1//EN"
 "http://www.w3.org/Graphics/SVG/1.1/DTD/svg11.dtd">
<!-- Generated by graphviz version 2.43.0 (0)
 -->
<!-- Title: src/ImGuiImageWindow.cpp Pages: 1 -->
<svg width="1268pt" height="196pt"
 viewBox="0.00 0.00 1267.50 196.00" xmlns="http://www.w3.org/2000/svg" xmlns:xlink="http://www.w3.org/1999/xlink">
<g id="graph0" class="graph" transform="scale(1 1) rotate(0) translate(4 192)">
<title>src/ImGuiImageWindow.cpp</title>
<polygon fill="white" stroke="transparent" points="-4,4 -4,-192 1263.5,-192 1263.5,4 -4,4"/>
<!-- Node1 -->
<g id="node1" class="node">
<title>Node1</title>
<g id="a_node1"><a xlink:title=" ">
<polygon fill="#bfbfbf" stroke="black" points="433.5,-168.5 433.5,-187.5 585.5,-187.5 585.5,-168.5 433.5,-168.5"/>
<text text-anchor="middle" x="509.5" y="-175.5" font-family="Helvetica,sans-Serif" font-size="10.00">src/ImGuiImageWindow.cpp</text>
</a>
</g>
</g>
<!-- Node2 -->
<g id="node2" class="node">
<title>Node2</title>
<g id="a_node2"><a xlink:href="../../d4/d6e/ImGuiImageWindow_8h.html" target="_top" xlink:title=" ">
<polygon fill="white" stroke="black" points="447.5,-112.5 447.5,-131.5 571.5,-131.5 571.5,-112.5 447.5,-112.5"/>
<text text-anchor="middle" x="509.5" y="-119.5" font-family="Helvetica,sans-Serif" font-size="10.00">ImGuiImageWindow.h</text>
</a>
</g>
</g>
<!-- Node1&#45;&gt;Node2 -->
<g id="edge1" class="edge">
<title>Node1&#45;&gt;Node2</title>
<path fill="none" stroke="midnightblue" d="M509.5,-168.08C509.5,-161.01 509.5,-150.86 509.5,-141.99"/>
<polygon fill="midnightblue" stroke="midnightblue" points="513,-141.75 509.5,-131.75 506,-141.75 513,-141.75"/>
</g>
<!-- Node3 -->
<g id="node3" class="node">
<title>Node3</title>
<g id="a_node3"><a xlink:title=" ">
<polygon fill="white" stroke="#bfbfbf" points="0,-0.5 0,-19.5 47,-19.5 47,-0.5 0,-0.5"/>
<text text-anchor="middle" x="23.5" y="-7.5" font-family="Helvetica,sans-Serif" font-size="10.00">vector</text>
</a>
</g>
</g>
<!-- Node2&#45;&gt;Node3 -->
<g id="edge2" class="edge">
<title>Node2&#45;&gt;Node3</title>
<path fill="none" stroke="midnightblue" d="M447.47,-117.82C379.26,-113.14 266.92,-101.96 173.5,-76 127.56,-63.23 77.31,-39.23 48.2,-24.23"/>
<polygon fill="midnightblue" stroke="midnightblue" points="49.66,-21.05 39.17,-19.52 46.42,-27.25 49.66,-21.05"/>
</g>
<!-- Node4 -->
<g id="node4" class="node">
<title>Node4</title>
<g id="a_node4"><a xlink:title=" ">
<polygon fill="white" stroke="#bfbfbf" points="65.5,-0.5 65.5,-19.5 109.5,-19.5 109.5,-0.5 65.5,-0.5"/>
<text text-anchor="middle" x="87.5" y="-7.5" font-family="Helvetica,sans-Serif" font-size="10.00">string</text>
</a>
</g>
</g>
<!-- Node2&#45;&gt;Node4 -->
<g id="edge3" class="edge">
<title>Node2&#45;&gt;Node4</title>
<path fill="none" stroke="midnightblue" d="M447.24,-115.85C389.77,-109.96 302.53,-98.14 229.5,-76 186.33,-62.91 139.29,-39.38 111.65,-24.51"/>
<polygon fill="midnightblue" stroke="midnightblue" points="113.18,-21.35 102.72,-19.64 109.82,-27.5 113.18,-21.35"/>
</g>
<!-- Node5 -->
<g id="node5" class="node">
<title>Node5</title>
<g id="a_node5"><a xlink:title=" ">
<polygon fill="white" stroke="#bfbfbf" points="409.5,-56.5 409.5,-75.5 459.5,-75.5 459.5,-56.5 409.5,-56.5"/>
<text text-anchor="middle" x="434.5" y="-63.5" font-family="Helvetica,sans-Serif" font-size="10.00">stdio.h</text>
</a>
</g>
</g>
<!-- Node2&#45;&gt;Node5 -->
<g id="edge4" class="edge">
<title>Node2&#45;&gt;Node5</title>
<path fill="none" stroke="midnightblue" d="M497.45,-112.32C486.04,-104.11 468.67,-91.6 455.07,-81.81"/>
<polygon fill="midnightblue" stroke="midnightblue" points="456.93,-78.84 446.77,-75.83 452.84,-84.52 456.93,-78.84"/>
</g>
<!-- Node6 -->
<g id="node6" class="node">
<title>Node6</title>
<g id="a_node6"><a xlink:title=" ">
<polygon fill="white" stroke="#bfbfbf" points="477.5,-56.5 477.5,-75.5 541.5,-75.5 541.5,-56.5 477.5,-56.5"/>
<text text-anchor="middle" x="509.5" y="-63.5" font-family="Helvetica,sans-Serif" font-size="10.00">algorithm</text>
</a>
</g>
</g>
<!-- Node2&#45;&gt;Node6 -->
<g id="edge5" class="edge">
<title>Node2&#45;&gt;Node6</title>
<path fill="none" stroke="midnightblue" d="M509.5,-112.08C509.5,-105.01 509.5,-94.86 509.5,-85.99"/>
<polygon fill="midnightblue" stroke="midnightblue" points="513,-85.75 509.5,-75.75 506,-85.75 513,-85.75"/>
</g>
<!-- Node7 -->
<g id="node7" class="node">
<title>Node7</title>
<g id="a_node7"><a xlink:title=" ">
<polygon fill="white" stroke="#bfbfbf" points="559.5,-56.5 559.5,-75.5 603.5,-75.5 603.5,-56.5 559.5,-56.5"/>
<text text-anchor="middle" x="581.5" y="-63.5" font-family="Helvetica,sans-Serif" font-size="10.00">SDL.h</text>
</a>
</g>
</g>
<!-- Node2&#45;&gt;Node7 -->
<g id="edge6" class="edge">
<title>Node2&#45;&gt;Node7</title>
<path fill="none" stroke="midnightblue" d="M521.07,-112.32C531.92,-104.18 548.38,-91.84 561.38,-82.09"/>
<polygon fill="midnightblue" stroke="midnightblue" points="563.82,-84.63 569.72,-75.83 559.62,-79.03 563.82,-84.63"/>
</g>
<!-- Node8 -->
<g id="node8" class="node">
<title>Node8</title>
<g id="a_node8"><a xlink:title=" ">
<polygon fill="white" stroke="#bfbfbf" points="622,-56.5 622,-75.5 705,-75.5 705,-56.5 622,-56.5"/>
<text text-anchor="middle" x="663.5" y="-63.5" font-family="Helvetica,sans-Serif" font-size="10.00">SDL_opengl.h</text>
</a>
</g>
</g>
<!-- Node2&#45;&gt;Node8 -->
<g id="edge7" class="edge">
<title>Node2&#45;&gt;Node8</title>
<path fill="none" stroke="midnightblue" d="M533.9,-112.44C559.7,-103.4 600.58,-89.06 629.52,-78.92"/>
<polygon fill="midnightblue" stroke="midnightblue" points="630.93,-82.13 639.21,-75.52 628.62,-75.52 630.93,-82.13"/>
</g>
<!-- Node9 -->
<g id="node9" class="node">
<title>Node9</title>
<g id="a_node9"><a xlink:title=" ">
<polygon fill="white" stroke="#bfbfbf" points="127.5,-0.5 127.5,-19.5 229.5,-19.5 229.5,-0.5 127.5,-0.5"/>
<text text-anchor="middle" x="178.5" y="-7.5" font-family="Helvetica,sans-Serif" font-size="10.00">tinycolormap.hpp</text>
</a>
</g>
</g>
<!-- Node2&#45;&gt;Node9 -->
<g id="edge8" class="edge">
<title>Node2&#45;&gt;Node9</title>
<path fill="none" stroke="midnightblue" d="M447.34,-117.23C396.86,-112.38 324.75,-101.29 266.5,-76 238.91,-64.02 211.77,-41.98 195.09,-26.92"/>
<polygon fill="midnightblue" stroke="midnightblue" points="197.09,-24 187.37,-19.77 192.33,-29.13 197.09,-24"/>
</g>
<!-- Node10 -->
<g id="node10" class="node">
<title>Node10</title>
<g id="a_node10"><a xlink:title=" ">
<polygon fill="white" stroke="#bfbfbf" points="723.5,-56.5 723.5,-75.5 783.5,-75.5 783.5,-56.5 723.5,-56.5"/>
<text text-anchor="middle" x="753.5" y="-63.5" font-family="Helvetica,sans-Serif" font-size="10.00">fft2d.hpp</text>
</a>
</g>
</g>
<!-- Node2&#45;&gt;Node10 -->
<g id="edge9" class="edge">
<title>Node2&#45;&gt;Node10</title>
<path fill="none" stroke="midnightblue" d="M548.83,-112.5C588.02,-104 650.19,-90.43 713.16,-76.28"/>
<polygon fill="midnightblue" stroke="midnightblue" points="714.29,-79.62 723.27,-74.01 712.75,-72.79 714.29,-79.62"/>
</g>
<!-- Node11 -->
<g id="node11" class="node">
<title>Node11</title>
<g id="a_node11"><a xlink:title=" ">
<polygon fill="white" stroke="#bfbfbf" points="248,-0.5 248,-19.5 301,-19.5 301,-0.5 248,-0.5"/>
<text text-anchor="middle" x="274.5" y="-7.5" font-family="Helvetica,sans-Serif" font-size="10.00">imgui.h</text>
</a>
</g>
</g>
<!-- Node2&#45;&gt;Node11 -->
<g id="edge10" class="edge">
<title>Node2&#45;&gt;Node11</title>
<path fill="none" stroke="midnightblue" d="M447.26,-117.14C386.9,-111.99 301.31,-100.51 279.5,-76 268.58,-63.72 268.43,-44.47 270.36,-30.09"/>
<polygon fill="midnightblue" stroke="midnightblue" points="273.88,-30.3 272.18,-19.84 266.99,-29.08 273.88,-30.3"/>
</g>
<!-- Node12 -->
<g id="node12" class="node">
<title>Node12</title>
<g id="a_node12"><a xlink:title=" ">
<polygon fill="white" stroke="#bfbfbf" points="801.5,-56.5 801.5,-75.5 901.5,-75.5 901.5,-56.5 801.5,-56.5"/>
<text text-anchor="middle" x="851.5" y="-63.5" font-family="Helvetica,sans-Serif" font-size="10.00">imgui_impl_sdl.h</text>
</a>
</g>
</g>
<!-- Node2&#45;&gt;Node12 -->
<g id="edge11" class="edge">
<title>Node2&#45;&gt;Node12</title>
<path fill="none" stroke="midnightblue" d="M563.69,-112.44C625.73,-102.65 727.06,-86.65 791.45,-76.48"/>
<polygon fill="midnightblue" stroke="midnightblue" points="792.13,-79.92 801.46,-74.9 791.03,-73 792.13,-79.92"/>
</g>
<!-- Node13 -->
<g id="node13" class="node">
<title>Node13</title>
<g id="a_node13"><a xlink:title=" ">
<polygon fill="white" stroke="#bfbfbf" points="920,-56.5 920,-75.5 1045,-75.5 1045,-56.5 920,-56.5"/>
<text text-anchor="middle" x="982.5" y="-63.5" font-family="Helvetica,sans-Serif" font-size="10.00">imgui_impl_opengl3.h</text>
</a>
</g>
</g>
<!-- Node2&#45;&gt;Node13 -->
<g id="edge12" class="edge">
<title>Node2&#45;&gt;Node13</title>
<path fill="none" stroke="midnightblue" d="M571.7,-114.27C648.47,-105.9 783.32,-91.02 909.45,-76.11"/>
<polygon fill="midnightblue" stroke="midnightblue" points="910.16,-79.55 919.68,-74.9 909.33,-72.6 910.16,-79.55"/>
</g>
<!-- Node14 -->
<g id="node14" class="node">
<title>Node14</title>
<g id="a_node14"><a xlink:title=" ">
<polygon fill="white" stroke="#bfbfbf" points="1063.5,-56.5 1063.5,-75.5 1149.5,-75.5 1149.5,-56.5 1063.5,-56.5"/>
<text text-anchor="middle" x="1106.5" y="-63.5" font-family="Helvetica,sans-Serif" font-size="10.00">imgui_stdlib.h</text>
</a>
</g>
</g>
<!-- Node2&#45;&gt;Node14 -->
<g id="edge13" class="edge">
<title>Node2&#45;&gt;Node14</title>
<path fill="none" stroke="midnightblue" d="M571.81,-117.66C671.41,-111.93 872.83,-98.71 1053.47,-76.02"/>
<polygon fill="midnightblue" stroke="midnightblue" points="1053.93,-79.49 1063.41,-74.76 1053.05,-72.55 1053.93,-79.49"/>
</g>
<!-- Node15 -->
<g id="node15" class="node">
<title>Node15</title>
<g id="a_node15"><a xlink:title=" ">
<polygon fill="white" stroke="#bfbfbf" points="665.5,-0.5 665.5,-19.5 761.5,-19.5 761.5,-0.5 665.5,-0.5"/>
<text text-anchor="middle" x="713.5" y="-7.5" font-family="Helvetica,sans-Serif" font-size="10.00">imgui_internal.h</text>
</a>
</g>
</g>
<!-- Node2&#45;&gt;Node15 -->
<g id="edge14" class="edge">
<title>Node2&#45;&gt;Node15</title>
<path fill="none" stroke="midnightblue" d="M468.2,-112.42C428.2,-102.28 376.8,-83.27 400.5,-56 436.35,-14.76 584.21,-27.07 655.03,-19.93"/>
<polygon fill="midnightblue" stroke="midnightblue" points="655.81,-23.36 665.31,-18.67 654.95,-16.42 655.81,-23.36"/>
</g>
<!-- Node16 -->
<g id="node16" class="node">
<title>Node16</title>
<g id="a_node16"><a xlink:title=" ">
<polygon fill="white" stroke="#bfbfbf" points="1167.5,-56.5 1167.5,-75.5 1259.5,-75.5 1259.5,-56.5 1167.5,-56.5"/>
<text text-anchor="middle" x="1213.5" y="-63.5" font-family="Helvetica,sans-Serif" font-size="10.00">imfilebrowser.h</text>
</a>
</g>
</g>
<!-- Node2&#45;&gt;Node16 -->
<g id="edge15" class="edge">
<title>Node2&#45;&gt;Node16</title>
<path fill="none" stroke="midnightblue" d="M571.87,-118.61C685.99,-113.8 936.22,-101.32 1157.16,-76.05"/>
<polygon fill="midnightblue" stroke="midnightblue" points="1157.8,-79.5 1167.33,-74.87 1156.99,-72.55 1157.8,-79.5"/>
</g>
<!-- Node17 -->
<g id="node17" class="node">
<title>Node17</title>
<g id="a_node17"><a xlink:href="../../d7/db2/GuiUtils_8h.html" target="_top" xlink:title=" ">
<polygon fill="white" stroke="black" points="288,-56.5 288,-75.5 353,-75.5 353,-56.5 288,-56.5"/>
<text text-anchor="middle" x="320.5" y="-63.5" font-family="Helvetica,sans-Serif" font-size="10.00">GuiUtils.h</text>
</a>
</g>
</g>
<!-- Node2&#45;&gt;Node17 -->
<g id="edge16" class="edge">
<title>Node2&#45;&gt;Node17</title>
<path fill="none" stroke="midnightblue" d="M479.55,-112.44C447.34,-103.24 395.97,-88.56 360.36,-78.39"/>
<polygon fill="midnightblue" stroke="midnightblue" points="360.88,-74.9 350.31,-75.52 358.96,-81.63 360.88,-74.9"/>
</g>
<!-- Node17&#45;&gt;Node3 -->
<g id="edge18" class="edge">
<title>Node17&#45;&gt;Node3</title>
<path fill="none" stroke="midnightblue" d="M287.79,-60.47C239.51,-53.56 146.19,-39.34 57.21,-19.97"/>
<polygon fill="midnightblue" stroke="midnightblue" points="57.74,-16.5 47.22,-17.77 56.24,-23.34 57.74,-16.5"/>
</g>
<!-- Node17&#45;&gt;Node4 -->
<g id="edge17" class="edge">
<title>Node17&#45;&gt;Node4</title>
<path fill="none" stroke="midnightblue" d="M287.81,-58.38C249.7,-50.52 184.6,-36.65 119.78,-20.21"/>
<polygon fill="midnightblue" stroke="midnightblue" points="120.36,-16.75 109.8,-17.66 118.63,-23.53 120.36,-16.75"/>
</g>
<!-- Node17&#45;&gt;Node9 -->
<g id="edge25" class="edge">
<title>Node17&#45;&gt;Node9</title>
<path fill="none" stroke="midnightblue" d="M298,-56.44C274.42,-47.48 237.18,-33.31 210.54,-23.18"/>
<polygon fill="midnightblue" stroke="midnightblue" points="211.49,-19.8 200.9,-19.52 209,-26.34 211.49,-19.8"/>
</g>
<!-- Node17&#45;&gt;Node11 -->
<g id="edge22" class="edge">
<title>Node17&#45;&gt;Node11</title>
<path fill="none" stroke="midnightblue" d="M312.9,-56.08C306.27,-48.3 296.48,-36.8 288.44,-27.37"/>
<polygon fill="midnightblue" stroke="midnightblue" points="291.1,-25.09 281.95,-19.75 285.77,-29.63 291.1,-25.09"/>
</g>
<!-- Node17&#45;&gt;Node15 -->
<g id="edge23" class="edge">
<title>Node17&#45;&gt;Node15</title>
<path fill="none" stroke="midnightblue" d="M353.07,-58.48C357.9,-57.59 362.82,-56.74 367.5,-56 492.11,-36.33 526.6,-37.99 655.08,-20.16"/>
<polygon fill="midnightblue" stroke="midnightblue" points="655.9,-23.58 665.31,-18.72 654.93,-16.64 655.9,-23.58"/>
</g>
<!-- Node18 -->
<g id="node18" class="node">
<title>Node18</title>
<g id="a_node18"><a xlink:title=" ">
<polygon fill="white" stroke="#bfbfbf" points="404,-0.5 404,-19.5 463,-19.5 463,-0.5 404,-0.5"/>
<text text-anchor="middle" x="433.5" y="-7.5" font-family="Helvetica,sans-Serif" font-size="10.00">complex</text>
</a>
</g>
</g>
<!-- Node17&#45;&gt;Node18 -->
<g id="edge19" class="edge">
<title>Node17&#45;&gt;Node18</title>
<path fill="none" stroke="midnightblue" d="M338.41,-56.44C356.75,-47.68 385.51,-33.94 406.59,-23.86"/>
<polygon fill="midnightblue" stroke="midnightblue" points="408.17,-26.99 415.68,-19.52 405.15,-20.67 408.17,-26.99"/>
</g>
<!-- Node19 -->
<g id="node19" class="node">
<title>Node19</title>
<g id="a_node19"><a xlink:title=" ">
<polygon fill="white" stroke="#bfbfbf" points="481.5,-0.5 481.5,-19.5 549.5,-19.5 549.5,-0.5 481.5,-0.5"/>
<text text-anchor="middle" x="515.5" y="-7.5" font-family="Helvetica,sans-Serif" font-size="10.00">filesystem</text>
</a>
</g>
</g>
<!-- Node17&#45;&gt;Node19 -->
<g id="edge20" class="edge">
<title>Node17&#45;&gt;Node19</title>
<path fill="none" stroke="midnightblue" d="M351.4,-56.44C384.77,-47.2 438.09,-32.44 474.85,-22.26"/>
<polygon fill="midnightblue" stroke="midnightblue" points="476.04,-25.56 484.75,-19.52 474.17,-18.81 476.04,-25.56"/>
</g>
<!-- Node20 -->
<g id="node20" class="node">
<title>Node20</title>
<g id="a_node20"><a xlink:title=" ">
<polygon fill="white" stroke="#bfbfbf" points="567.5,-0.5 567.5,-19.5 647.5,-19.5 647.5,-0.5 567.5,-0.5"/>
<text text-anchor="middle" x="607.5" y="-7.5" font-family="Helvetica,sans-Serif" font-size="10.00">SDL_image.h</text>
</a>
</g>
</g>
<!-- Node17&#45;&gt;Node20 -->
<g id="edge21" class="edge">
<title>Node17&#45;&gt;Node20</title>
<path fill="none" stroke="midnightblue" d="M353.11,-58.74C357.94,-57.82 362.85,-56.88 367.5,-56 433.02,-43.58 508.64,-29.43 557.21,-20.37"/>
<polygon fill="midnightblue" stroke="midnightblue" points="557.96,-23.79 567.15,-18.52 556.68,-16.91 557.96,-23.79"/>
</g>
<!-- Node21 -->
<g id="node21" class="node">
<title>Node21</title>
<g id="a_node21"><a xlink:title=" ">
<polygon fill="white" stroke="#bfbfbf" points="319.5,-0.5 319.5,-19.5 385.5,-19.5 385.5,-0.5 319.5,-0.5"/>
<text text-anchor="middle" x="352.5" y="-7.5" font-family="Helvetica,sans-Serif" font-size="10.00">libnpy.hpp</text>
</a>
</g>
</g>
<!-- Node17&#45;&gt;Node21 -->
<g id="edge24" class="edge">
<title>Node17&#45;&gt;Node21</title>
<path fill="none" stroke="midnightblue" d="M325.78,-56.08C330.21,-48.61 336.66,-37.72 342.12,-28.52"/>
<polygon fill="midnightblue" stroke="midnightblue" points="345.23,-30.14 347.31,-19.75 339.21,-26.57 345.23,-30.14"/>
</g>
</g>
</svg>
