<?xml version="1.0" encoding="UTF-8" standalone="no"?>
<!DOCTYPE svg PUBLIC "-//W3C//DTD SVG 1.1//EN"
 "http://www.w3.org/Graphics/SVG/1.1/DTD/svg11.dtd">
<!-- Generated by graphviz version 2.43.0 (0)
 -->
<!-- Title: src/GuiUtils.h Pages: 1 -->
<svg width="576pt" height="140pt"
 viewBox="0.00 0.00 576.00 140.00" xmlns="http://www.w3.org/2000/svg" xmlns:xlink="http://www.w3.org/1999/xlink">
<g id="graph0" class="graph" transform="scale(1 1) rotate(0) translate(4 136)">
<title>src/GuiUtils.h</title>
<polygon fill="white" stroke="transparent" points="-4,4 -4,-136 572,-136 572,4 -4,4"/>
<!-- Node1 -->
<g id="node1" class="node">
<title>Node1</title>
<g id="a_node1"><a xlink:title=" ">
<polygon fill="#bfbfbf" stroke="black" points="244,-112.5 244,-131.5 326,-131.5 326,-112.5 244,-112.5"/>
<text text-anchor="middle" x="285" y="-119.5" font-family="Helvetica,sans-Serif" font-size="10.00">src/GuiUtils.h</text>
</a>
</g>
</g>
<!-- Node2 -->
<g id="node2" class="node">
<title>Node2</title>
<g id="a_node2"><a xlink:href="../../d9/d46/GuiUtils_8cpp.html" target="_top" xlink:title=" ">
<polygon fill="white" stroke="black" points="4.5,-56.5 4.5,-75.5 97.5,-75.5 97.5,-56.5 4.5,-56.5"/>
<text text-anchor="middle" x="51" y="-63.5" font-family="Helvetica,sans-Serif" font-size="10.00">src/GuiUtils.cpp</text>
</a>
</g>
</g>
<!-- Node1&#45;&gt;Node2 -->
<g id="edge1" class="edge">
<title>Node1&#45;&gt;Node2</title>
<path fill="none" stroke="midnightblue" d="M238,-110.15C193.78,-99.95 128.48,-84.88 87.9,-75.52"/>
<polygon fill="midnightblue" stroke="midnightblue" points="237.39,-113.61 247.92,-112.44 238.97,-106.78 237.39,-113.61"/>
</g>
<!-- Node3 -->
<g id="node3" class="node">
<title>Node3</title>
<g id="a_node3"><a xlink:href="../../d4/d6e/ImGuiImageWindow_8h.html" target="_top" xlink:title=" ">
<polygon fill="white" stroke="black" points="115.5,-56.5 115.5,-75.5 256.5,-75.5 256.5,-56.5 115.5,-56.5"/>
<text text-anchor="middle" x="186" y="-63.5" font-family="Helvetica,sans-Serif" font-size="10.00">src/ImGuiImageWindow.h</text>
</a>
</g>
</g>
<!-- Node1&#45;&gt;Node3 -->
<g id="edge2" class="edge">
<title>Node1&#45;&gt;Node3</title>
<path fill="none" stroke="midnightblue" d="M260.16,-107.45C241.89,-97.48 217.58,-84.23 201.87,-75.65"/>
<polygon fill="midnightblue" stroke="midnightblue" points="258.64,-110.61 269.09,-112.32 261.99,-104.46 258.64,-110.61"/>
</g>
<!-- Node5 -->
<g id="node5" class="node">
<title>Node5</title>
<g id="a_node5"><a xlink:href="../../d2/d30/RunGUI_8cpp.html" target="_top" xlink:title=" ">
<polygon fill="white" stroke="black" points="170.5,-0.5 170.5,-19.5 261.5,-19.5 261.5,-0.5 170.5,-0.5"/>
<text text-anchor="middle" x="216" y="-7.5" font-family="Helvetica,sans-Serif" font-size="10.00">src/RunGUI.cpp</text>
</a>
</g>
</g>
<!-- Node1&#45;&gt;Node5 -->
<g id="edge11" class="edge">
<title>Node1&#45;&gt;Node5</title>
<path fill="none" stroke="midnightblue" d="M281.97,-102.3C279.14,-88.67 273.96,-70.19 265,-56 255.5,-40.96 239.7,-27.73 228.61,-19.58"/>
<polygon fill="midnightblue" stroke="midnightblue" points="278.58,-103.2 283.83,-112.4 285.46,-101.93 278.58,-103.2"/>
</g>
<!-- Node6 -->
<g id="node6" class="node">
<title>Node6</title>
<g id="a_node6"><a xlink:href="../../de/dfc/Ricom_8h.html" target="_top" xlink:title=" ">
<polygon fill="white" stroke="black" points="313,-56.5 313,-75.5 387,-75.5 387,-56.5 313,-56.5"/>
<text text-anchor="middle" x="350" y="-63.5" font-family="Helvetica,sans-Serif" font-size="10.00">src/Ricom.h</text>
</a>
</g>
</g>
<!-- Node1&#45;&gt;Node6 -->
<g id="edge5" class="edge">
<title>Node1&#45;&gt;Node6</title>
<path fill="none" stroke="midnightblue" d="M303.27,-105.82C314.92,-96.15 329.6,-83.95 339.37,-75.83"/>
<polygon fill="midnightblue" stroke="midnightblue" points="300.9,-103.24 295.44,-112.32 305.37,-108.63 300.9,-103.24"/>
</g>
<!-- Node9 -->
<g id="node9" class="node">
<title>Node9</title>
<g id="a_node9"><a xlink:href="../../d5/d6c/RunCLI_8cpp.html" target="_top" xlink:title=" ">
<polygon fill="white" stroke="black" points="480,-0.5 480,-19.5 568,-19.5 568,-0.5 480,-0.5"/>
<text text-anchor="middle" x="524" y="-7.5" font-family="Helvetica,sans-Serif" font-size="10.00">src/RunCLI.cpp</text>
</a>
</g>
</g>
<!-- Node1&#45;&gt;Node9 -->
<g id="edge10" class="edge">
<title>Node1&#45;&gt;Node9</title>
<path fill="none" stroke="midnightblue" d="M317.12,-108.81C339.45,-100.13 369.79,-87.94 396,-76 437.05,-57.3 484.04,-32.55 508.05,-19.65"/>
<polygon fill="midnightblue" stroke="midnightblue" points="315.84,-105.55 307.77,-112.42 318.36,-112.08 315.84,-105.55"/>
</g>
<!-- Node4 -->
<g id="node4" class="node">
<title>Node4</title>
<g id="a_node4"><a xlink:href="../../d0/db0/ImGuiImageWindow_8cpp.html" target="_top" xlink:title=" ">
<polygon fill="white" stroke="black" points="0,-0.5 0,-19.5 152,-19.5 152,-0.5 0,-0.5"/>
<text text-anchor="middle" x="76" y="-7.5" font-family="Helvetica,sans-Serif" font-size="10.00">src/ImGuiImageWindow.cpp</text>
</a>
</g>
</g>
<!-- Node3&#45;&gt;Node4 -->
<g id="edge3" class="edge">
<title>Node3&#45;&gt;Node4</title>
<path fill="none" stroke="midnightblue" d="M159.24,-51.86C138.84,-41.85 111.33,-28.35 93.63,-19.65"/>
<polygon fill="midnightblue" stroke="midnightblue" points="157.81,-55.06 168.33,-56.32 160.89,-48.78 157.81,-55.06"/>
</g>
<!-- Node3&#45;&gt;Node5 -->
<g id="edge4" class="edge">
<title>Node3&#45;&gt;Node5</title>
<path fill="none" stroke="midnightblue" d="M195.85,-47.27C200.97,-38.05 207.02,-27.17 211.14,-19.75"/>
<polygon fill="midnightblue" stroke="midnightblue" points="192.75,-45.64 190.95,-56.08 198.87,-49.04 192.75,-45.64"/>
</g>
<!-- Node6&#45;&gt;Node5 -->
<g id="edge9" class="edge">
<title>Node6&#45;&gt;Node5</title>
<path fill="none" stroke="midnightblue" d="M319.32,-52.64C294.18,-42.5 259.25,-28.43 237.13,-19.52"/>
<polygon fill="midnightblue" stroke="midnightblue" points="318.18,-55.95 328.77,-56.44 320.8,-49.46 318.18,-55.95"/>
</g>
<!-- Node7 -->
<g id="node7" class="node">
<title>Node7</title>
<g id="a_node7"><a xlink:href="../../df/d0a/main_8cpp.html" target="_top" xlink:title=" ">
<polygon fill="white" stroke="black" points="279.5,-0.5 279.5,-19.5 358.5,-19.5 358.5,-0.5 279.5,-0.5"/>
<text text-anchor="middle" x="319" y="-7.5" font-family="Helvetica,sans-Serif" font-size="10.00">src/main.cpp</text>
</a>
</g>
</g>
<!-- Node6&#45;&gt;Node7 -->
<g id="edge6" class="edge">
<title>Node6&#45;&gt;Node7</title>
<path fill="none" stroke="midnightblue" d="M339.82,-47.27C334.53,-38.05 328.28,-27.17 324.02,-19.75"/>
<polygon fill="midnightblue" stroke="midnightblue" points="336.87,-49.15 344.88,-56.08 342.94,-45.67 336.87,-49.15"/>
</g>
<!-- Node8 -->
<g id="node8" class="node">
<title>Node8</title>
<g id="a_node8"><a xlink:href="../../d4/d9b/Ricom_8cpp.html" target="_top" xlink:title=" ">
<polygon fill="white" stroke="black" points="376.5,-0.5 376.5,-19.5 461.5,-19.5 461.5,-0.5 376.5,-0.5"/>
<text text-anchor="middle" x="419" y="-7.5" font-family="Helvetica,sans-Serif" font-size="10.00">src/Ricom.cpp</text>
</a>
</g>
</g>
<!-- Node6&#45;&gt;Node8 -->
<g id="edge7" class="edge">
<title>Node6&#45;&gt;Node8</title>
<path fill="none" stroke="midnightblue" d="M369.04,-50.1C381.46,-40.38 397.24,-28.03 407.71,-19.83"/>
<polygon fill="midnightblue" stroke="midnightblue" points="366.8,-47.4 361.09,-56.32 371.12,-52.92 366.8,-47.4"/>
</g>
<!-- Node6&#45;&gt;Node9 -->
<g id="edge8" class="edge">
<title>Node6&#45;&gt;Node9</title>
<path fill="none" stroke="midnightblue" d="M387.26,-53.44C420.07,-43.26 467.08,-28.66 496.56,-19.52"/>
<polygon fill="midnightblue" stroke="midnightblue" points="386.08,-50.14 377.57,-56.44 388.16,-56.82 386.08,-50.14"/>
</g>
</g>
</svg>
