<?xml version="1.0" encoding="UTF-8" standalone="no"?>
<!DOCTYPE svg PUBLIC "-//W3C//DTD SVG 1.1//EN"
 "http://www.w3.org/Graphics/SVG/1.1/DTD/svg11.dtd">
<!-- Generated by graphviz version 2.43.0 (0)
 -->
<!-- Title: src/GuiUtils.h Pages: 1 -->
<svg width="405pt" height="140pt"
 viewBox="0.00 0.00 404.50 140.00" xmlns="http://www.w3.org/2000/svg" xmlns:xlink="http://www.w3.org/1999/xlink">
<g id="graph0" class="graph" transform="scale(1 1) rotate(0) translate(4 136)">
<title>src/GuiUtils.h</title>
<polygon fill="white" stroke="transparent" points="-4,4 -4,-136 400.5,-136 400.5,4 -4,4"/>
<!-- Node1 -->
<g id="node1" class="node">
<title>Node1</title>
<g id="a_node1"><a xlink:title=" ">
<polygon fill="#bfbfbf" stroke="black" points="189.5,-112.5 189.5,-131.5 271.5,-131.5 271.5,-112.5 189.5,-112.5"/>
<text text-anchor="middle" x="230.5" y="-119.5" font-family="Helvetica,sans-Serif" font-size="10.00">src/GuiUtils.h</text>
</a>
</g>
</g>
<!-- Node2 -->
<g id="node2" class="node">
<title>Node2</title>
<g id="a_node2"><a xlink:href="../../d9/d46/GuiUtils_8cpp.html" target="_top" xlink:title=" ">
<polygon fill="white" stroke="black" points="0,-56.5 0,-75.5 93,-75.5 93,-56.5 0,-56.5"/>
<text text-anchor="middle" x="46.5" y="-63.5" font-family="Helvetica,sans-Serif" font-size="10.00">src/GuiUtils.cpp</text>
</a>
</g>
</g>
<!-- Node1&#45;&gt;Node2 -->
<g id="edge1" class="edge">
<title>Node1&#45;&gt;Node2</title>
<path fill="none" stroke="midnightblue" d="M191.55,-109.57C156.84,-99.38 106.82,-84.7 75.52,-75.52"/>
<polygon fill="midnightblue" stroke="midnightblue" points="190.76,-112.99 201.34,-112.44 192.73,-106.27 190.76,-112.99"/>
</g>
<!-- Node3 -->
<g id="node3" class="node">
<title>Node3</title>
<g id="a_node3"><a xlink:href="../../d4/d6e/ImGuiImageWindow_8h.html" target="_top" xlink:title=" ">
<polygon fill="white" stroke="black" points="111,-56.5 111,-75.5 252,-75.5 252,-56.5 111,-56.5"/>
<text text-anchor="middle" x="181.5" y="-63.5" font-family="Helvetica,sans-Serif" font-size="10.00">src/ImGuiImageWindow.h</text>
</a>
</g>
</g>
<!-- Node1&#45;&gt;Node3 -->
<g id="edge2" class="edge">
<title>Node1&#45;&gt;Node3</title>
<path fill="none" stroke="midnightblue" d="M215.47,-104.43C206.88,-94.97 196.46,-83.48 189.44,-75.75"/>
<polygon fill="midnightblue" stroke="midnightblue" points="213.1,-107.03 222.41,-112.08 218.28,-102.33 213.1,-107.03"/>
</g>
<!-- Node5 -->
<g id="node5" class="node">
<title>Node5</title>
<g id="a_node5"><a xlink:href="../../d2/d30/RunGUI_8cpp.html" target="_top" xlink:title=" ">
<polygon fill="white" stroke="black" points="235,-0.5 235,-19.5 326,-19.5 326,-0.5 235,-0.5"/>
<text text-anchor="middle" x="280.5" y="-7.5" font-family="Helvetica,sans-Serif" font-size="10.00">src/RunGUI.cpp</text>
</a>
</g>
</g>
<!-- Node1&#45;&gt;Node5 -->
<g id="edge6" class="edge">
<title>Node1&#45;&gt;Node5</title>
<path fill="none" stroke="midnightblue" d="M243.93,-104.27C249.96,-96.12 256.77,-85.94 261.5,-76 270.59,-56.89 276.29,-32.52 278.87,-19.73"/>
<polygon fill="midnightblue" stroke="midnightblue" points="241.14,-102.15 237.82,-112.22 246.69,-106.42 241.14,-102.15"/>
</g>
<!-- Node6 -->
<g id="node6" class="node">
<title>Node6</title>
<g id="a_node6"><a xlink:href="../../d5/d6c/RunCLI_8cpp.html" target="_top" xlink:title=" ">
<polygon fill="white" stroke="black" points="308.5,-56.5 308.5,-75.5 396.5,-75.5 396.5,-56.5 308.5,-56.5"/>
<text text-anchor="middle" x="352.5" y="-63.5" font-family="Helvetica,sans-Serif" font-size="10.00">src/RunCLI.cpp</text>
</a>
</g>
</g>
<!-- Node1&#45;&gt;Node6 -->
<g id="edge5" class="edge">
<title>Node1&#45;&gt;Node6</title>
<path fill="none" stroke="midnightblue" d="M259.04,-108.37C281.89,-98.26 313.31,-84.35 333.26,-75.52"/>
<polygon fill="midnightblue" stroke="midnightblue" points="257.56,-105.2 249.83,-112.44 260.39,-111.6 257.56,-105.2"/>
</g>
<!-- Node4 -->
<g id="node4" class="node">
<title>Node4</title>
<g id="a_node4"><a xlink:href="../../d0/db0/ImGuiImageWindow_8cpp.html" target="_top" xlink:title=" ">
<polygon fill="white" stroke="black" points="64.5,-0.5 64.5,-19.5 216.5,-19.5 216.5,-0.5 64.5,-0.5"/>
<text text-anchor="middle" x="140.5" y="-7.5" font-family="Helvetica,sans-Serif" font-size="10.00">src/ImGuiImageWindow.cpp</text>
</a>
</g>
</g>
<!-- Node3&#45;&gt;Node4 -->
<g id="edge3" class="edge">
<title>Node3&#45;&gt;Node4</title>
<path fill="none" stroke="midnightblue" d="M168.48,-47.86C161.38,-38.5 152.9,-27.33 147.14,-19.75"/>
<polygon fill="midnightblue" stroke="midnightblue" points="165.89,-50.24 174.73,-56.08 171.47,-46 165.89,-50.24"/>
</g>
<!-- Node3&#45;&gt;Node5 -->
<g id="edge4" class="edge">
<title>Node3&#45;&gt;Node5</title>
<path fill="none" stroke="midnightblue" d="M206.34,-51.45C224.61,-41.48 248.92,-28.23 264.63,-19.65"/>
<polygon fill="midnightblue" stroke="midnightblue" points="204.51,-48.46 197.41,-56.32 207.86,-54.61 204.51,-48.46"/>
</g>
</g>
</svg>
