<?xml version="1.0" encoding="UTF-8" standalone="no"?>
<!DOCTYPE svg PUBLIC "-//W3C//DTD SVG 1.1//EN"
 "http://www.w3.org/Graphics/SVG/1.1/DTD/svg11.dtd">
<!-- Generated by graphviz version 2.43.0 (0)
 -->
<!-- Title: Ricom Pages: 1 -->
<svg width="585pt" height="95pt"
 viewBox="0.00 0.00 584.50 95.00" xmlns="http://www.w3.org/2000/svg" xmlns:xlink="http://www.w3.org/1999/xlink">
<g id="graph0" class="graph" transform="scale(1 1) rotate(0) translate(4 91)">
<title>Ricom</title>
<polygon fill="white" stroke="transparent" points="-4,4 -4,-91 580.5,-91 580.5,4 -4,4"/>
<!-- Node1 -->
<g id="node1" class="node">
<title>Node1</title>
<g id="a_node1"><a xlink:title=" ">
<polygon fill="#bfbfbf" stroke="black" points="273.5,-0.5 273.5,-19.5 320.5,-19.5 320.5,-0.5 273.5,-0.5"/>
<text text-anchor="middle" x="297" y="-7.5" font-family="Helvetica,sans-Serif" font-size="10.00">Ricom</text>
</a>
</g>
</g>
<!-- Node2 -->
<g id="node2" class="node">
<title>Node2</title>
<g id="a_node2"><a xlink:href="../../d1/dcc/classProgressMonitor.html" target="_top" xlink:title=" ">
<polygon fill="white" stroke="black" points="0,-67.5 0,-86.5 96,-86.5 96,-67.5 0,-67.5"/>
<text text-anchor="middle" x="48" y="-74.5" font-family="Helvetica,sans-Serif" font-size="10.00">ProgressMonitor</text>
</a>
</g>
</g>
<!-- Node2&#45;&gt;Node1 -->
<g id="edge1" class="edge">
<title>Node2&#45;&gt;Node1</title>
<path fill="none" stroke="#9a32cd" stroke-dasharray="5,2" d="M78.15,-63.75C99.15,-55.59 127.94,-45.08 154,-38 195.45,-26.73 244.91,-18.52 273.46,-14.28"/>
<polygon fill="#9a32cd" stroke="#9a32cd" points="76.83,-60.52 68.81,-67.44 79.39,-67.03 76.83,-60.52"/>
<text text-anchor="middle" x="186" y="-41" font-family="Helvetica,sans-Serif" font-size="10.00"> p_prog_mon</text>
</g>
<!-- Node3 -->
<g id="node3" class="node">
<title>Node3</title>
<g id="a_node3"><a xlink:href="../../d7/d76/classSocketConnector.html" target="_top" xlink:title=" ">
<polygon fill="white" stroke="black" points="114,-67.5 114,-86.5 212,-86.5 212,-67.5 114,-67.5"/>
<text text-anchor="middle" x="163" y="-74.5" font-family="Helvetica,sans-Serif" font-size="10.00">SocketConnector</text>
</a>
</g>
</g>
<!-- Node3&#45;&gt;Node1 -->
<g id="edge2" class="edge">
<title>Node3&#45;&gt;Node1</title>
<path fill="none" stroke="#9a32cd" stroke-dasharray="5,2" d="M189.92,-62.94C216.46,-50.07 256.27,-30.76 279.13,-19.67"/>
<polygon fill="#9a32cd" stroke="#9a32cd" points="188.26,-59.85 180.79,-67.37 191.32,-66.15 188.26,-59.85"/>
<text text-anchor="middle" x="256.5" y="-41" font-family="Helvetica,sans-Serif" font-size="10.00"> socket</text>
</g>
<!-- Node4 -->
<g id="node4" class="node">
<title>Node4</title>
<g id="a_node4"><a xlink:href="../../d3/d29/classCAMERA_1_1Camera__BASE.html" target="_top" xlink:title=" ">
<polygon fill="white" stroke="black" points="230,-67.5 230,-86.5 364,-86.5 364,-67.5 230,-67.5"/>
<text text-anchor="middle" x="297" y="-74.5" font-family="Helvetica,sans-Serif" font-size="10.00">CAMERA::Camera_BASE</text>
</a>
</g>
</g>
<!-- Node4&#45;&gt;Node1 -->
<g id="edge3" class="edge">
<title>Node4&#45;&gt;Node1</title>
<path fill="none" stroke="#9a32cd" stroke-dasharray="5,2" d="M297,-57.04C297,-44.67 297,-29.12 297,-19.63"/>
<polygon fill="#9a32cd" stroke="#9a32cd" points="293.5,-57.23 297,-67.23 300.5,-57.23 293.5,-57.23"/>
<text text-anchor="middle" x="317" y="-41" font-family="Helvetica,sans-Serif" font-size="10.00"> camera</text>
</g>
<!-- Node5 -->
<g id="node5" class="node">
<title>Node5</title>
<g id="a_node5"><a xlink:href="../../de/d71/classRicom__kernel.html" target="_top" xlink:title=" ">
<polygon fill="white" stroke="black" points="382.5,-67.5 382.5,-86.5 465.5,-86.5 465.5,-67.5 382.5,-67.5"/>
<text text-anchor="middle" x="424" y="-74.5" font-family="Helvetica,sans-Serif" font-size="10.00">Ricom_kernel</text>
</a>
</g>
</g>
<!-- Node5&#45;&gt;Node1 -->
<g id="edge4" class="edge">
<title>Node5&#45;&gt;Node1</title>
<path fill="none" stroke="#9a32cd" stroke-dasharray="5,2" d="M398.16,-62.77C373,-49.9 335.51,-30.71 313.93,-19.67"/>
<polygon fill="#9a32cd" stroke="#9a32cd" points="396.64,-65.93 407.14,-67.37 399.83,-59.7 396.64,-65.93"/>
<text text-anchor="middle" x="385" y="-41" font-family="Helvetica,sans-Serif" font-size="10.00"> kernel</text>
</g>
<!-- Node6 -->
<g id="node6" class="node">
<title>Node6</title>
<g id="a_node6"><a xlink:href="../../d6/da7/classRicom__detector.html" target="_top" xlink:title=" ">
<polygon fill="white" stroke="black" points="483.5,-67.5 483.5,-86.5 576.5,-86.5 576.5,-67.5 483.5,-67.5"/>
<text text-anchor="middle" x="530" y="-74.5" font-family="Helvetica,sans-Serif" font-size="10.00">Ricom_detector</text>
</a>
</g>
</g>
<!-- Node6&#45;&gt;Node1 -->
<g id="edge5" class="edge">
<title>Node6&#45;&gt;Node1</title>
<path fill="none" stroke="#9a32cd" stroke-dasharray="5,2" d="M493.86,-64.35C469.2,-56.55 435.75,-46.24 406,-38 376.88,-29.94 343.06,-21.74 320.91,-16.53"/>
<polygon fill="#9a32cd" stroke="#9a32cd" points="492.92,-67.73 503.52,-67.43 495.05,-61.06 492.92,-67.73"/>
<text text-anchor="middle" x="465" y="-41" font-family="Helvetica,sans-Serif" font-size="10.00"> detector</text>
</g>
</g>
</svg>
