<?xml version="1.0" encoding="UTF-8" standalone="no"?>
<!DOCTYPE svg PUBLIC "-//W3C//DTD SVG 1.1//EN"
 "http://www.w3.org/Graphics/SVG/1.1/DTD/svg11.dtd">
<!-- Generated by graphviz version 2.43.0 (0)
 -->
<!-- Title: Ricom Pages: 1 -->
<svg width="433pt" height="95pt"
 viewBox="0.00 0.00 432.50 95.00" xmlns="http://www.w3.org/2000/svg" xmlns:xlink="http://www.w3.org/1999/xlink">
<g id="graph0" class="graph" transform="scale(1 1) rotate(0) translate(4 91)">
<title>Ricom</title>
<polygon fill="white" stroke="transparent" points="-4,4 -4,-91 428.5,-91 428.5,4 -4,4"/>
<!-- Node1 -->
<g id="node1" class="node">
<title>Node1</title>
<g id="a_node1"><a xlink:title=" ">
<polygon fill="#bfbfbf" stroke="black" points="193.5,-0.5 193.5,-19.5 240.5,-19.5 240.5,-0.5 193.5,-0.5"/>
<text text-anchor="middle" x="217" y="-7.5" font-family="Helvetica,sans-Serif" font-size="10.00">Ricom</text>
</a>
</g>
</g>
<!-- Node2 -->
<g id="node2" class="node">
<title>Node2</title>
<g id="a_node2"><a xlink:href="../../d1/dcc/classProgressMonitor.html" target="_top" xlink:title=" ">
<polygon fill="white" stroke="black" points="0,-67.5 0,-86.5 96,-86.5 96,-67.5 0,-67.5"/>
<text text-anchor="middle" x="48" y="-74.5" font-family="Helvetica,sans-Serif" font-size="10.00">ProgressMonitor</text>
</a>
</g>
</g>
<!-- Node2&#45;&gt;Node1 -->
<g id="edge1" class="edge">
<title>Node2&#45;&gt;Node1</title>
<path fill="none" stroke="#9a32cd" stroke-dasharray="5,2" d="M70.45,-62.08C83.87,-54.21 101.48,-44.63 118,-38 142.96,-27.98 172.92,-20.38 193.3,-15.84"/>
<polygon fill="#9a32cd" stroke="#9a32cd" points="68.26,-59.31 61.49,-67.45 71.86,-65.31 68.26,-59.31"/>
<text text-anchor="middle" x="150" y="-41" font-family="Helvetica,sans-Serif" font-size="10.00"> p_prog_mon</text>
</g>
<!-- Node3 -->
<g id="node3" class="node">
<title>Node3</title>
<g id="a_node3"><a xlink:href="../../d7/d76/classSocketConnector.html" target="_top" xlink:title=" ">
<polygon fill="white" stroke="black" points="114,-67.5 114,-86.5 212,-86.5 212,-67.5 114,-67.5"/>
<text text-anchor="middle" x="163" y="-74.5" font-family="Helvetica,sans-Serif" font-size="10.00">SocketConnector</text>
</a>
</g>
</g>
<!-- Node3&#45;&gt;Node1 -->
<g id="edge2" class="edge">
<title>Node3&#45;&gt;Node1</title>
<path fill="none" stroke="#9a32cd" stroke-dasharray="5,2" d="M176.9,-59.27C187.43,-46.6 201.46,-29.7 209.83,-19.63"/>
<polygon fill="#9a32cd" stroke="#9a32cd" points="173.98,-57.31 170.28,-67.23 179.37,-61.78 173.98,-57.31"/>
<text text-anchor="middle" x="210.5" y="-41" font-family="Helvetica,sans-Serif" font-size="10.00"> socket</text>
</g>
<!-- Node4 -->
<g id="node4" class="node">
<title>Node4</title>
<g id="a_node4"><a xlink:href="../../de/d71/classRicom__kernel.html" target="_top" xlink:title=" ">
<polygon fill="white" stroke="black" points="230.5,-67.5 230.5,-86.5 313.5,-86.5 313.5,-67.5 230.5,-67.5"/>
<text text-anchor="middle" x="272" y="-74.5" font-family="Helvetica,sans-Serif" font-size="10.00">Ricom_kernel</text>
</a>
</g>
</g>
<!-- Node4&#45;&gt;Node1 -->
<g id="edge3" class="edge">
<title>Node4&#45;&gt;Node1</title>
<path fill="none" stroke="#9a32cd" stroke-dasharray="5,2" d="M257.84,-59.27C247.12,-46.6 232.82,-29.7 224.3,-19.63"/>
<polygon fill="#9a32cd" stroke="#9a32cd" points="255.45,-61.86 264.58,-67.23 260.79,-57.34 255.45,-61.86"/>
<text text-anchor="middle" x="264" y="-41" font-family="Helvetica,sans-Serif" font-size="10.00"> kernel</text>
</g>
<!-- Node5 -->
<g id="node5" class="node">
<title>Node5</title>
<g id="a_node5"><a xlink:href="../../d6/da7/classRicom__detector.html" target="_top" xlink:title=" ">
<polygon fill="white" stroke="black" points="331.5,-67.5 331.5,-86.5 424.5,-86.5 424.5,-67.5 331.5,-67.5"/>
<text text-anchor="middle" x="378" y="-74.5" font-family="Helvetica,sans-Serif" font-size="10.00">Ricom_detector</text>
</a>
</g>
</g>
<!-- Node5&#45;&gt;Node1 -->
<g id="edge4" class="edge">
<title>Node5&#45;&gt;Node1</title>
<path fill="none" stroke="#9a32cd" stroke-dasharray="5,2" d="M347.85,-63.59C329.66,-56.13 306.02,-46.47 285,-38 269.57,-31.78 252.12,-24.86 238.77,-19.58"/>
<polygon fill="#9a32cd" stroke="#9a32cd" points="346.76,-66.93 357.34,-67.49 349.42,-60.45 346.76,-66.93"/>
<text text-anchor="middle" x="332" y="-41" font-family="Helvetica,sans-Serif" font-size="10.00"> detector</text>
</g>
</g>
</svg>
