<?xml version="1.0" encoding="UTF-8" standalone="no"?>
<!DOCTYPE svg PUBLIC "-//W3C//DTD SVG 1.1//EN"
 "http://www.w3.org/Graphics/SVG/1.1/DTD/svg11.dtd">
<!-- Generated by graphviz version 2.43.0 (0)
 -->
<!-- Title: src/GuiUtils.cpp Pages: 1 -->
<svg width="769pt" height="140pt"
 viewBox="0.00 0.00 769.00 140.00" xmlns="http://www.w3.org/2000/svg" xmlns:xlink="http://www.w3.org/1999/xlink">
<g id="graph0" class="graph" transform="scale(1 1) rotate(0) translate(4 136)">
<title>src/GuiUtils.cpp</title>
<polygon fill="white" stroke="transparent" points="-4,4 -4,-136 765,-136 765,4 -4,4"/>
<!-- Node1 -->
<g id="node1" class="node">
<title>Node1</title>
<g id="a_node1"><a xlink:title=" ">
<polygon fill="#bfbfbf" stroke="black" points="284.5,-112.5 284.5,-131.5 377.5,-131.5 377.5,-112.5 284.5,-112.5"/>
<text text-anchor="middle" x="331" y="-119.5" font-family="Helvetica,sans-Serif" font-size="10.00">src/GuiUtils.cpp</text>
</a>
</g>
</g>
<!-- Node2 -->
<g id="node2" class="node">
<title>Node2</title>
<g id="a_node2"><a xlink:href="../../d7/db2/GuiUtils_8h.html" target="_top" xlink:title=" ">
<polygon fill="white" stroke="black" points="298.5,-56.5 298.5,-75.5 363.5,-75.5 363.5,-56.5 298.5,-56.5"/>
<text text-anchor="middle" x="331" y="-63.5" font-family="Helvetica,sans-Serif" font-size="10.00">GuiUtils.h</text>
</a>
</g>
</g>
<!-- Node1&#45;&gt;Node2 -->
<g id="edge1" class="edge">
<title>Node1&#45;&gt;Node2</title>
<path fill="none" stroke="midnightblue" d="M331,-112.08C331,-105.01 331,-94.86 331,-85.99"/>
<polygon fill="midnightblue" stroke="midnightblue" points="334.5,-85.75 331,-75.75 327.5,-85.75 334.5,-85.75"/>
</g>
<!-- Node3 -->
<g id="node3" class="node">
<title>Node3</title>
<g id="a_node3"><a xlink:title=" ">
<polygon fill="white" stroke="#bfbfbf" points="0,-0.5 0,-19.5 44,-19.5 44,-0.5 0,-0.5"/>
<text text-anchor="middle" x="22" y="-7.5" font-family="Helvetica,sans-Serif" font-size="10.00">string</text>
</a>
</g>
</g>
<!-- Node2&#45;&gt;Node3 -->
<g id="edge2" class="edge">
<title>Node2&#45;&gt;Node3</title>
<path fill="none" stroke="midnightblue" d="M298.23,-61.01C247.77,-54.59 147.89,-40.75 54.19,-20.04"/>
<polygon fill="midnightblue" stroke="midnightblue" points="54.79,-16.59 44.27,-17.82 53.26,-23.42 54.79,-16.59"/>
</g>
<!-- Node4 -->
<g id="node4" class="node">
<title>Node4</title>
<g id="a_node4"><a xlink:title=" ">
<polygon fill="white" stroke="#bfbfbf" points="62.5,-0.5 62.5,-19.5 109.5,-19.5 109.5,-0.5 62.5,-0.5"/>
<text text-anchor="middle" x="86" y="-7.5" font-family="Helvetica,sans-Serif" font-size="10.00">vector</text>
</a>
</g>
</g>
<!-- Node2&#45;&gt;Node4 -->
<g id="edge3" class="edge">
<title>Node2&#45;&gt;Node4</title>
<path fill="none" stroke="midnightblue" d="M298.37,-58.8C258.41,-51.06 188.45,-37.01 119.83,-20.34"/>
<polygon fill="midnightblue" stroke="midnightblue" points="120.27,-16.84 109.72,-17.86 118.6,-23.64 120.27,-16.84"/>
</g>
<!-- Node5 -->
<g id="node5" class="node">
<title>Node5</title>
<g id="a_node5"><a xlink:title=" ">
<polygon fill="white" stroke="#bfbfbf" points="127.5,-0.5 127.5,-19.5 186.5,-19.5 186.5,-0.5 127.5,-0.5"/>
<text text-anchor="middle" x="157" y="-7.5" font-family="Helvetica,sans-Serif" font-size="10.00">complex</text>
</a>
</g>
</g>
<!-- Node2&#45;&gt;Node5 -->
<g id="edge4" class="edge">
<title>Node2&#45;&gt;Node5</title>
<path fill="none" stroke="midnightblue" d="M303.43,-56.44C273.9,-47.28 226.88,-32.69 194.12,-22.52"/>
<polygon fill="midnightblue" stroke="midnightblue" points="195.03,-19.14 184.44,-19.52 192.96,-25.82 195.03,-19.14"/>
</g>
<!-- Node6 -->
<g id="node6" class="node">
<title>Node6</title>
<g id="a_node6"><a xlink:title=" ">
<polygon fill="white" stroke="#bfbfbf" points="205,-0.5 205,-19.5 273,-19.5 273,-0.5 205,-0.5"/>
<text text-anchor="middle" x="239" y="-7.5" font-family="Helvetica,sans-Serif" font-size="10.00">filesystem</text>
</a>
</g>
</g>
<!-- Node2&#45;&gt;Node6 -->
<g id="edge5" class="edge">
<title>Node2&#45;&gt;Node6</title>
<path fill="none" stroke="midnightblue" d="M316.22,-56.32C301.73,-47.82 279.43,-34.73 262.51,-24.8"/>
<polygon fill="midnightblue" stroke="midnightblue" points="264.14,-21.7 253.74,-19.65 260.6,-27.74 264.14,-21.7"/>
</g>
<!-- Node7 -->
<g id="node7" class="node">
<title>Node7</title>
<g id="a_node7"><a xlink:title=" ">
<polygon fill="white" stroke="#bfbfbf" points="291,-0.5 291,-19.5 371,-19.5 371,-0.5 291,-0.5"/>
<text text-anchor="middle" x="331" y="-7.5" font-family="Helvetica,sans-Serif" font-size="10.00">SDL_image.h</text>
</a>
</g>
</g>
<!-- Node2&#45;&gt;Node7 -->
<g id="edge6" class="edge">
<title>Node2&#45;&gt;Node7</title>
<path fill="none" stroke="midnightblue" d="M331,-56.08C331,-49.01 331,-38.86 331,-29.99"/>
<polygon fill="midnightblue" stroke="midnightblue" points="334.5,-29.75 331,-19.75 327.5,-29.75 334.5,-29.75"/>
</g>
<!-- Node8 -->
<g id="node8" class="node">
<title>Node8</title>
<g id="a_node8"><a xlink:title=" ">
<polygon fill="white" stroke="#bfbfbf" points="389.5,-0.5 389.5,-19.5 442.5,-19.5 442.5,-0.5 389.5,-0.5"/>
<text text-anchor="middle" x="416" y="-7.5" font-family="Helvetica,sans-Serif" font-size="10.00">imgui.h</text>
</a>
</g>
</g>
<!-- Node2&#45;&gt;Node8 -->
<g id="edge7" class="edge">
<title>Node2&#45;&gt;Node8</title>
<path fill="none" stroke="midnightblue" d="M344.66,-56.32C357.92,-47.9 378.27,-34.97 393.85,-25.07"/>
<polygon fill="midnightblue" stroke="midnightblue" points="395.81,-27.97 402.38,-19.65 392.06,-22.06 395.81,-27.97"/>
</g>
<!-- Node9 -->
<g id="node9" class="node">
<title>Node9</title>
<g id="a_node9"><a xlink:title=" ">
<polygon fill="white" stroke="#bfbfbf" points="461,-0.5 461,-19.5 557,-19.5 557,-0.5 461,-0.5"/>
<text text-anchor="middle" x="509" y="-7.5" font-family="Helvetica,sans-Serif" font-size="10.00">imgui_internal.h</text>
</a>
</g>
</g>
<!-- Node2&#45;&gt;Node9 -->
<g id="edge8" class="edge">
<title>Node2&#45;&gt;Node9</title>
<path fill="none" stroke="midnightblue" d="M359.2,-56.44C389.41,-47.28 437.51,-32.69 471.03,-22.52"/>
<polygon fill="midnightblue" stroke="midnightblue" points="472.37,-25.77 480.93,-19.52 470.34,-19.07 472.37,-25.77"/>
</g>
<!-- Node10 -->
<g id="node10" class="node">
<title>Node10</title>
<g id="a_node10"><a xlink:title=" ">
<polygon fill="white" stroke="#bfbfbf" points="575,-0.5 575,-19.5 641,-19.5 641,-0.5 575,-0.5"/>
<text text-anchor="middle" x="608" y="-7.5" font-family="Helvetica,sans-Serif" font-size="10.00">libnpy.hpp</text>
</a>
</g>
</g>
<!-- Node2&#45;&gt;Node10 -->
<g id="edge9" class="edge">
<title>Node2&#45;&gt;Node10</title>
<path fill="none" stroke="midnightblue" d="M363.74,-58.96C407.32,-50.88 487.06,-35.91 565.01,-20.17"/>
<polygon fill="midnightblue" stroke="midnightblue" points="565.89,-23.56 575,-18.14 564.5,-16.7 565.89,-23.56"/>
</g>
<!-- Node11 -->
<g id="node11" class="node">
<title>Node11</title>
<g id="a_node11"><a xlink:title=" ">
<polygon fill="white" stroke="#bfbfbf" points="659,-0.5 659,-19.5 761,-19.5 761,-0.5 659,-0.5"/>
<text text-anchor="middle" x="710" y="-7.5" font-family="Helvetica,sans-Serif" font-size="10.00">tinycolormap.hpp</text>
</a>
</g>
</g>
<!-- Node2&#45;&gt;Node11 -->
<g id="edge10" class="edge">
<title>Node2&#45;&gt;Node11</title>
<path fill="none" stroke="midnightblue" d="M363.62,-60.49C419.68,-52.73 538.18,-36.23 648.94,-20.14"/>
<polygon fill="midnightblue" stroke="midnightblue" points="649.55,-23.59 658.94,-18.69 648.54,-16.67 649.55,-23.59"/>
</g>
</g>
</svg>
