<?xml version="1.0" encoding="UTF-8" standalone="no"?>
<!DOCTYPE svg PUBLIC "-//W3C//DTD SVG 1.1//EN"
 "http://www.w3.org/Graphics/SVG/1.1/DTD/svg11.dtd">
<!-- Generated by graphviz version 2.43.0 (0)
 -->
<!-- Title: src/main.cpp Pages: 1 -->
<svg width="2040pt" height="196pt"
 viewBox="0.00 0.00 2039.50 196.00" xmlns="http://www.w3.org/2000/svg" xmlns:xlink="http://www.w3.org/1999/xlink">
<g id="graph0" class="graph" transform="scale(1 1) rotate(0) translate(4 192)">
<title>src/main.cpp</title>
<polygon fill="white" stroke="transparent" points="-4,4 -4,-192 2035.5,-192 2035.5,4 -4,4"/>
<!-- Node1 -->
<g id="node1" class="node">
<title>Node1</title>
<g id="a_node1"><a xlink:title=" ">
<polygon fill="#bfbfbf" stroke="black" points="1407.5,-168.5 1407.5,-187.5 1486.5,-187.5 1486.5,-168.5 1407.5,-168.5"/>
<text text-anchor="middle" x="1447" y="-175.5" font-family="Helvetica,sans-Serif" font-size="10.00">src/main.cpp</text>
</a>
</g>
</g>
<!-- Node2 -->
<g id="node2" class="node">
<title>Node2</title>
<g id="a_node2"><a xlink:title=" ">
<polygon fill="white" stroke="#bfbfbf" points="1138,-0.5 1138,-19.5 1182,-19.5 1182,-0.5 1138,-0.5"/>
<text text-anchor="middle" x="1160" y="-7.5" font-family="Helvetica,sans-Serif" font-size="10.00">string</text>
</a>
</g>
</g>
<!-- Node1&#45;&gt;Node2 -->
<g id="edge1" class="edge">
<title>Node1&#45;&gt;Node2</title>
<path fill="none" stroke="midnightblue" d="M1442.87,-168.31C1431.69,-145.81 1398.54,-85.35 1352,-56 1292.64,-18.57 1264.49,-36.51 1192.3,-20.08"/>
<polygon fill="midnightblue" stroke="midnightblue" points="1192.85,-16.62 1182.31,-17.66 1191.2,-23.42 1192.85,-16.62"/>
</g>
<!-- Node3 -->
<g id="node3" class="node">
<title>Node3</title>
<g id="a_node3"><a xlink:href="../../de/dfc/Ricom_8h.html" target="_top" xlink:title=" ">
<polygon fill="white" stroke="black" points="874,-112.5 874,-131.5 930,-131.5 930,-112.5 874,-112.5"/>
<text text-anchor="middle" x="902" y="-119.5" font-family="Helvetica,sans-Serif" font-size="10.00">Ricom.h</text>
</a>
</g>
</g>
<!-- Node1&#45;&gt;Node3 -->
<g id="edge2" class="edge">
<title>Node1&#45;&gt;Node3</title>
<path fill="none" stroke="midnightblue" d="M1407.37,-173.07C1306.33,-163.06 1040.1,-136.68 940.41,-126.81"/>
<polygon fill="midnightblue" stroke="midnightblue" points="940.49,-123.3 930.2,-125.79 939.8,-130.26 940.49,-123.3"/>
</g>
<!-- Node34 -->
<g id="node34" class="node">
<title>Node34</title>
<g id="a_node34"><a xlink:href="../../dd/de4/Camera_8h.html" target="_top" xlink:title=" ">
<polygon fill="white" stroke="black" points="1783,-56.5 1783,-75.5 1847,-75.5 1847,-56.5 1783,-56.5"/>
<text text-anchor="middle" x="1815" y="-63.5" font-family="Helvetica,sans-Serif" font-size="10.00">Camera.h</text>
</a>
</g>
</g>
<!-- Node1&#45;&gt;Node34 -->
<g id="edge59" class="edge">
<title>Node1&#45;&gt;Node34</title>
<path fill="none" stroke="midnightblue" d="M1475.57,-168.46C1541.13,-148.86 1702.43,-100.65 1776.58,-78.48"/>
<polygon fill="midnightblue" stroke="midnightblue" points="1777.87,-81.75 1786.45,-75.53 1775.86,-75.05 1777.87,-81.75"/>
</g>
<!-- Node3&#45;&gt;Node2 -->
<g id="edge9" class="edge">
<title>Node3&#45;&gt;Node2</title>
<path fill="none" stroke="midnightblue" d="M930.2,-121.55C1001.49,-122.26 1185.93,-119.76 1224,-76 1240.33,-57.22 1212.5,-37.01 1188.57,-24.19"/>
<polygon fill="midnightblue" stroke="midnightblue" points="1189.86,-20.92 1179.36,-19.5 1186.68,-27.16 1189.86,-20.92"/>
</g>
<!-- Node4 -->
<g id="node4" class="node">
<title>Node4</title>
<g id="a_node4"><a xlink:title=" ">
<polygon fill="white" stroke="#bfbfbf" points="1064,-0.5 1064,-19.5 1120,-19.5 1120,-0.5 1064,-0.5"/>
<text text-anchor="middle" x="1092" y="-7.5" font-family="Helvetica,sans-Serif" font-size="10.00">unistd.h</text>
</a>
</g>
</g>
<!-- Node3&#45;&gt;Node4 -->
<g id="edge3" class="edge">
<title>Node3&#45;&gt;Node4</title>
<path fill="none" stroke="midnightblue" d="M930.22,-121.3C998.83,-121.36 1171.32,-117.33 1207,-76 1212.81,-69.27 1212.01,-63.34 1207,-56 1197.91,-42.68 1159.76,-29.47 1129.87,-20.84"/>
<polygon fill="midnightblue" stroke="midnightblue" points="1130.67,-17.43 1120.1,-18.1 1128.78,-24.17 1130.67,-17.43"/>
</g>
<!-- Node5 -->
<g id="node5" class="node">
<title>Node5</title>
<g id="a_node5"><a xlink:title=" ">
<polygon fill="white" stroke="#bfbfbf" points="933.5,-0.5 933.5,-19.5 980.5,-19.5 980.5,-0.5 933.5,-0.5"/>
<text text-anchor="middle" x="957" y="-7.5" font-family="Helvetica,sans-Serif" font-size="10.00">cmath</text>
</a>
</g>
</g>
<!-- Node3&#45;&gt;Node5 -->
<g id="edge4" class="edge">
<title>Node3&#45;&gt;Node5</title>
<path fill="none" stroke="midnightblue" d="M906.32,-112.37C915.31,-94.38 936.22,-52.55 948.19,-28.63"/>
<polygon fill="midnightblue" stroke="midnightblue" points="951.36,-30.1 952.7,-19.59 945.1,-26.97 951.36,-30.1"/>
</g>
<!-- Node6 -->
<g id="node6" class="node">
<title>Node6</title>
<g id="a_node6"><a xlink:title=" ">
<polygon fill="white" stroke="#bfbfbf" points="1293,-56.5 1293,-75.5 1343,-75.5 1343,-56.5 1293,-56.5"/>
<text text-anchor="middle" x="1318" y="-63.5" font-family="Helvetica,sans-Serif" font-size="10.00">stdio.h</text>
</a>
</g>
</g>
<!-- Node3&#45;&gt;Node6 -->
<g id="edge5" class="edge">
<title>Node3&#45;&gt;Node6</title>
<path fill="none" stroke="midnightblue" d="M930.05,-118.7C992.87,-113.31 1149.46,-98.61 1279,-76 1280.27,-75.78 1281.56,-75.54 1282.86,-75.29"/>
<polygon fill="midnightblue" stroke="midnightblue" points="1283.82,-78.67 1292.91,-73.21 1282.4,-71.81 1283.82,-78.67"/>
</g>
<!-- Node7 -->
<g id="node7" class="node">
<title>Node7</title>
<g id="a_node7"><a xlink:title=" ">
<polygon fill="white" stroke="#bfbfbf" points="1200.5,-0.5 1200.5,-19.5 1259.5,-19.5 1259.5,-0.5 1200.5,-0.5"/>
<text text-anchor="middle" x="1230" y="-7.5" font-family="Helvetica,sans-Serif" font-size="10.00">complex</text>
</a>
</g>
</g>
<!-- Node3&#45;&gt;Node7 -->
<g id="edge6" class="edge">
<title>Node3&#45;&gt;Node7</title>
<path fill="none" stroke="midnightblue" d="M930.09,-120.33C1024.14,-117.81 1323.62,-107.36 1352,-76 1357.96,-69.41 1357.08,-63.29 1352,-56 1342.24,-42 1301.48,-28.85 1269.73,-20.42"/>
<polygon fill="midnightblue" stroke="midnightblue" points="1270.34,-16.96 1259.78,-17.85 1268.59,-23.74 1270.34,-16.96"/>
</g>
<!-- Node8 -->
<g id="node8" class="node">
<title>Node8</title>
<g id="a_node8"><a xlink:title=" ">
<polygon fill="white" stroke="#bfbfbf" points="1,-56.5 1,-75.5 45,-75.5 45,-56.5 1,-56.5"/>
<text text-anchor="middle" x="23" y="-63.5" font-family="Helvetica,sans-Serif" font-size="10.00">cfloat</text>
</a>
</g>
</g>
<!-- Node3&#45;&gt;Node8 -->
<g id="edge7" class="edge">
<title>Node3&#45;&gt;Node8</title>
<path fill="none" stroke="midnightblue" d="M873.79,-121.45C766.79,-122.72 376.05,-123.64 59,-76 57.75,-75.81 56.47,-75.6 55.19,-75.37"/>
<polygon fill="midnightblue" stroke="midnightblue" points="55.84,-71.93 45.33,-73.29 54.4,-78.78 55.84,-71.93"/>
</g>
<!-- Node9 -->
<g id="node9" class="node">
<title>Node9</title>
<g id="a_node9"><a xlink:title=" ">
<polygon fill="white" stroke="#bfbfbf" points="1852.5,-0.5 1852.5,-19.5 1899.5,-19.5 1899.5,-0.5 1852.5,-0.5"/>
<text text-anchor="middle" x="1876" y="-7.5" font-family="Helvetica,sans-Serif" font-size="10.00">vector</text>
</a>
</g>
</g>
<!-- Node3&#45;&gt;Node9 -->
<g id="edge8" class="edge">
<title>Node3&#45;&gt;Node9</title>
<path fill="none" stroke="midnightblue" d="M930.08,-120.29C1020.76,-117.74 1313.8,-107.44 1554,-76 1680.56,-59.43 1713.96,-50.14 1842.43,-20"/>
<polygon fill="midnightblue" stroke="midnightblue" points="1843.32,-23.39 1852.26,-17.7 1841.73,-16.58 1843.32,-23.39"/>
</g>
<!-- Node10 -->
<g id="node10" class="node">
<title>Node10</title>
<g id="a_node10"><a xlink:title=" ">
<polygon fill="white" stroke="#bfbfbf" points="101,-56.5 101,-75.5 145,-75.5 145,-56.5 101,-56.5"/>
<text text-anchor="middle" x="123" y="-63.5" font-family="Helvetica,sans-Serif" font-size="10.00">SDL.h</text>
</a>
</g>
</g>
<!-- Node3&#45;&gt;Node10 -->
<g id="edge10" class="edge">
<title>Node3&#45;&gt;Node10</title>
<path fill="none" stroke="midnightblue" d="M873.85,-120.14C757.88,-116.5 316.01,-101.32 155.38,-75.79"/>
<polygon fill="midnightblue" stroke="midnightblue" points="155.65,-72.28 145.21,-74.09 154.5,-79.19 155.65,-72.28"/>
</g>
<!-- Node11 -->
<g id="node11" class="node">
<title>Node11</title>
<g id="a_node11"><a xlink:title=" ">
<polygon fill="white" stroke="#bfbfbf" points="0,-0.5 0,-19.5 48,-19.5 48,-0.5 0,-0.5"/>
<text text-anchor="middle" x="24" y="-7.5" font-family="Helvetica,sans-Serif" font-size="10.00">mutex</text>
</a>
</g>
</g>
<!-- Node3&#45;&gt;Node11 -->
<g id="edge11" class="edge">
<title>Node3&#45;&gt;Node11</title>
<path fill="none" stroke="midnightblue" d="M873.8,-120.59C739.12,-118.47 164.93,-107.62 92,-76 68.45,-65.79 48.19,-43.62 36.05,-28.02"/>
<polygon fill="midnightblue" stroke="midnightblue" points="38.66,-25.67 29.88,-19.74 33.05,-29.85 38.66,-25.67"/>
</g>
<!-- Node12 -->
<g id="node12" class="node">
<title>Node12</title>
<g id="a_node12"><a xlink:title=" ">
<polygon fill="white" stroke="#bfbfbf" points="317,-56.5 317,-75.5 363,-75.5 363,-56.5 317,-56.5"/>
<text text-anchor="middle" x="340" y="-63.5" font-family="Helvetica,sans-Serif" font-size="10.00">future</text>
</a>
</g>
</g>
<!-- Node3&#45;&gt;Node12 -->
<g id="edge12" class="edge">
<title>Node3&#45;&gt;Node12</title>
<path fill="none" stroke="midnightblue" d="M873.93,-120.11C795.1,-117.27 565.24,-106.78 377,-76 375.75,-75.8 374.48,-75.57 373.21,-75.33"/>
<polygon fill="midnightblue" stroke="midnightblue" points="373.88,-71.9 363.38,-73.26 372.44,-78.75 373.88,-71.9"/>
</g>
<!-- Node13 -->
<g id="node13" class="node">
<title>Node13</title>
<g id="a_node13"><a xlink:title=" ">
<polygon fill="white" stroke="#bfbfbf" points="340,-0.5 340,-19.5 388,-19.5 388,-0.5 340,-0.5"/>
<text text-anchor="middle" x="364" y="-7.5" font-family="Helvetica,sans-Serif" font-size="10.00">thread</text>
</a>
</g>
</g>
<!-- Node3&#45;&gt;Node13 -->
<g id="edge13" class="edge">
<title>Node3&#45;&gt;Node13</title>
<path fill="none" stroke="midnightblue" d="M873.69,-121.46C781.25,-122.49 489.69,-121.95 410,-76 391.71,-65.45 378.87,-44.35 371.48,-29.04"/>
<polygon fill="midnightblue" stroke="midnightblue" points="374.53,-27.27 367.25,-19.57 368.14,-30.13 374.53,-27.27"/>
</g>
<!-- Node14 -->
<g id="node14" class="node">
<title>Node14</title>
<g id="a_node14"><a xlink:title=" ">
<polygon fill="white" stroke="#bfbfbf" points="419,-56.5 419,-75.5 469,-75.5 469,-56.5 419,-56.5"/>
<text text-anchor="middle" x="444" y="-63.5" font-family="Helvetica,sans-Serif" font-size="10.00">fftw3.h</text>
</a>
</g>
</g>
<!-- Node3&#45;&gt;Node14 -->
<g id="edge14" class="edge">
<title>Node3&#45;&gt;Node14</title>
<path fill="none" stroke="midnightblue" d="M873.89,-119.15C806.23,-114.44 629.09,-100.61 483,-76 481.73,-75.79 480.44,-75.56 479.13,-75.31"/>
<polygon fill="midnightblue" stroke="midnightblue" points="479.59,-71.83 469.09,-73.25 478.18,-78.69 479.59,-71.83"/>
</g>
<!-- Node15 -->
<g id="node15" class="node">
<title>Node15</title>
<g id="a_node15"><a xlink:title=" ">
<polygon fill="white" stroke="#bfbfbf" points="406,-0.5 406,-19.5 456,-19.5 456,-0.5 406,-0.5"/>
<text text-anchor="middle" x="431" y="-7.5" font-family="Helvetica,sans-Serif" font-size="10.00">chrono</text>
</a>
</g>
</g>
<!-- Node3&#45;&gt;Node15 -->
<g id="edge15" class="edge">
<title>Node3&#45;&gt;Node15</title>
<path fill="none" stroke="midnightblue" d="M873.8,-119.65C796.24,-115.64 581.2,-102.38 516,-76 488.43,-64.85 462.1,-42.22 446.24,-26.84"/>
<polygon fill="midnightblue" stroke="midnightblue" points="448.5,-24.14 438.95,-19.55 443.55,-29.09 448.5,-24.14"/>
</g>
<!-- Node16 -->
<g id="node16" class="node">
<title>Node16</title>
<g id="a_node16"><a xlink:title=" ">
<polygon fill="white" stroke="#bfbfbf" points="525,-56.5 525,-75.5 589,-75.5 589,-56.5 525,-56.5"/>
<text text-anchor="middle" x="557" y="-63.5" font-family="Helvetica,sans-Serif" font-size="10.00">algorithm</text>
</a>
</g>
</g>
<!-- Node3&#45;&gt;Node16 -->
<g id="edge16" class="edge">
<title>Node3&#45;&gt;Node16</title>
<path fill="none" stroke="midnightblue" d="M873.81,-117.49C821.63,-110.85 706.28,-95.51 599.19,-76.11"/>
<polygon fill="midnightblue" stroke="midnightblue" points="599.65,-72.64 589.19,-74.29 598.39,-79.53 599.65,-72.64"/>
</g>
<!-- Node17 -->
<g id="node17" class="node">
<title>Node17</title>
<g id="a_node17"><a xlink:href="../../d7/d50/BoundedThreadPool_8hpp.html" target="_top" xlink:title=" ">
<polygon fill="white" stroke="black" points="163.5,-56.5 163.5,-75.5 298.5,-75.5 298.5,-56.5 163.5,-56.5"/>
<text text-anchor="middle" x="231" y="-63.5" font-family="Helvetica,sans-Serif" font-size="10.00">BoundedThreadPool.hpp</text>
</a>
</g>
</g>
<!-- Node3&#45;&gt;Node17 -->
<g id="edge17" class="edge">
<title>Node3&#45;&gt;Node17</title>
<path fill="none" stroke="midnightblue" d="M873.83,-119.27C789.76,-114.04 533.14,-97.43 308.58,-76.02"/>
<polygon fill="midnightblue" stroke="midnightblue" points="308.88,-72.53 298.59,-75.06 308.21,-79.5 308.88,-72.53"/>
</g>
<!-- Node23 -->
<g id="node23" class="node">
<title>Node23</title>
<g id="a_node23"><a xlink:title=" ">
<polygon fill="white" stroke="#bfbfbf" points="1278,-0.5 1278,-19.5 1380,-19.5 1380,-0.5 1278,-0.5"/>
<text text-anchor="middle" x="1329" y="-7.5" font-family="Helvetica,sans-Serif" font-size="10.00">tinycolormap.hpp</text>
</a>
</g>
</g>
<!-- Node3&#45;&gt;Node23 -->
<g id="edge25" class="edge">
<title>Node3&#45;&gt;Node23</title>
<path fill="none" stroke="midnightblue" d="M930.14,-120.44C1026.57,-118.23 1339.39,-108.6 1369,-76 1382.81,-60.8 1365.24,-40.18 1349.22,-26.27"/>
<polygon fill="midnightblue" stroke="midnightblue" points="1351.11,-23.3 1341.16,-19.68 1346.68,-28.72 1351.11,-23.3"/>
</g>
<!-- Node24 -->
<g id="node24" class="node">
<title>Node24</title>
<g id="a_node24"><a xlink:title=" ">
<polygon fill="white" stroke="#bfbfbf" points="729,-56.5 729,-75.5 789,-75.5 789,-56.5 729,-56.5"/>
<text text-anchor="middle" x="759" y="-63.5" font-family="Helvetica,sans-Serif" font-size="10.00">fft2d.hpp</text>
</a>
</g>
</g>
<!-- Node3&#45;&gt;Node24 -->
<g id="edge26" class="edge">
<title>Node3&#45;&gt;Node24</title>
<path fill="none" stroke="midnightblue" d="M879.34,-112.44C855.6,-103.48 818.09,-89.31 791.26,-79.18"/>
<polygon fill="midnightblue" stroke="midnightblue" points="792.14,-75.77 781.55,-75.52 789.67,-82.32 792.14,-75.77"/>
</g>
<!-- Node25 -->
<g id="node25" class="node">
<title>Node25</title>
<g id="a_node25"><a xlink:href="../../d0/d3c/SocketConnector_8h.html" target="_top" xlink:title=" ">
<polygon fill="white" stroke="black" points="807.5,-56.5 807.5,-75.5 914.5,-75.5 914.5,-56.5 807.5,-56.5"/>
<text text-anchor="middle" x="861" y="-63.5" font-family="Helvetica,sans-Serif" font-size="10.00">SocketConnector.h</text>
</a>
</g>
</g>
<!-- Node3&#45;&gt;Node25 -->
<g id="edge27" class="edge">
<title>Node3&#45;&gt;Node25</title>
<path fill="none" stroke="midnightblue" d="M895.23,-112.08C889.44,-104.46 880.94,-93.26 873.86,-83.94"/>
<polygon fill="midnightblue" stroke="midnightblue" points="876.48,-81.6 867.64,-75.75 870.9,-85.83 876.48,-81.6"/>
</g>
<!-- Node29 -->
<g id="node29" class="node">
<title>Node29</title>
<g id="a_node29"><a xlink:href="../../da/dce/ProgressMonitor_8h.html" target="_top" xlink:title=" ">
<polygon fill="white" stroke="black" points="607,-56.5 607,-75.5 711,-75.5 711,-56.5 607,-56.5"/>
<text text-anchor="middle" x="659" y="-63.5" font-family="Helvetica,sans-Serif" font-size="10.00">ProgressMonitor.h</text>
</a>
</g>
</g>
<!-- Node3&#45;&gt;Node29 -->
<g id="edge34" class="edge">
<title>Node3&#45;&gt;Node29</title>
<path fill="none" stroke="midnightblue" d="M873.65,-114.7C832.89,-105.64 757.17,-88.82 707.44,-77.76"/>
<polygon fill="midnightblue" stroke="midnightblue" points="708.07,-74.32 697.55,-75.57 706.55,-81.15 708.07,-74.32"/>
</g>
<!-- Node32 -->
<g id="node32" class="node">
<title>Node32</title>
<g id="a_node32"><a xlink:title=" ">
<polygon fill="white" stroke="#bfbfbf" points="971,-56.5 971,-75.5 1071,-75.5 1071,-56.5 971,-56.5"/>
<text text-anchor="middle" x="1021" y="-63.5" font-family="Helvetica,sans-Serif" font-size="10.00">MerlinInterface.h</text>
</a>
</g>
</g>
<!-- Node3&#45;&gt;Node32 -->
<g id="edge42" class="edge">
<title>Node3&#45;&gt;Node32</title>
<path fill="none" stroke="midnightblue" d="M920.86,-112.44C940.27,-103.64 970.73,-89.81 992.96,-79.72"/>
<polygon fill="midnightblue" stroke="midnightblue" points="994.57,-82.84 1002.23,-75.52 991.68,-76.46 994.57,-82.84"/>
</g>
<!-- Node33 -->
<g id="node33" class="node">
<title>Node33</title>
<g id="a_node33"><a xlink:title=" ">
<polygon fill="white" stroke="#bfbfbf" points="1089.5,-56.5 1089.5,-75.5 1198.5,-75.5 1198.5,-56.5 1089.5,-56.5"/>
<text text-anchor="middle" x="1144" y="-63.5" font-family="Helvetica,sans-Serif" font-size="10.00">TimepixInterface.h</text>
</a>
</g>
</g>
<!-- Node3&#45;&gt;Node33 -->
<g id="edge43" class="edge">
<title>Node3&#45;&gt;Node33</title>
<path fill="none" stroke="midnightblue" d="M930.23,-114.7C970.83,-105.64 1046.23,-88.82 1095.76,-77.76"/>
<polygon fill="midnightblue" stroke="midnightblue" points="1096.61,-81.16 1105.61,-75.57 1095.09,-74.33 1096.61,-81.16"/>
</g>
<!-- Node3&#45;&gt;Node34 -->
<g id="edge44" class="edge">
<title>Node3&#45;&gt;Node34</title>
<path fill="none" stroke="midnightblue" d="M930.25,-119.72C1034.06,-114.96 1404.2,-97.43 1709,-76 1729.93,-74.53 1753.15,-72.59 1772.51,-70.89"/>
<polygon fill="midnightblue" stroke="midnightblue" points="1772.89,-74.37 1782.54,-70 1772.27,-67.4 1772.89,-74.37"/>
</g>
<!-- Node37 -->
<g id="node37" class="node">
<title>Node37</title>
<g id="a_node37"><a xlink:href="../../d7/db2/GuiUtils_8h.html" target="_top" xlink:title=" ">
<polygon fill="white" stroke="black" points="1480.5,-56.5 1480.5,-75.5 1545.5,-75.5 1545.5,-56.5 1480.5,-56.5"/>
<text text-anchor="middle" x="1513" y="-63.5" font-family="Helvetica,sans-Serif" font-size="10.00">GuiUtils.h</text>
</a>
</g>
</g>
<!-- Node3&#45;&gt;Node37 -->
<g id="edge49" class="edge">
<title>Node3&#45;&gt;Node37</title>
<path fill="none" stroke="midnightblue" d="M930.25,-118.7C1008.55,-112.28 1234.98,-93.52 1423,-76 1438.37,-74.57 1455.21,-72.91 1470.12,-71.41"/>
<polygon fill="midnightblue" stroke="midnightblue" points="1470.5,-74.89 1480.1,-70.4 1469.79,-67.92 1470.5,-74.89"/>
</g>
<!-- Node17&#45;&gt;Node11 -->
<g id="edge21" class="edge">
<title>Node17&#45;&gt;Node11</title>
<path fill="none" stroke="midnightblue" d="M197.28,-56.42C164.19,-47.97 112.03,-34.57 57.91,-20.22"/>
<polygon fill="midnightblue" stroke="midnightblue" points="58.7,-16.81 48.14,-17.62 56.91,-23.57 58.7,-16.81"/>
</g>
<!-- Node17&#45;&gt;Node13 -->
<g id="edge18" class="edge">
<title>Node17&#45;&gt;Node13</title>
<path fill="none" stroke="midnightblue" d="M252.07,-56.44C274.06,-47.52 308.73,-33.44 333.66,-23.32"/>
<polygon fill="midnightblue" stroke="midnightblue" points="335.08,-26.52 343.02,-19.52 332.44,-20.04 335.08,-26.52"/>
</g>
<!-- Node18 -->
<g id="node18" class="node">
<title>Node18</title>
<g id="a_node18"><a xlink:title=" ">
<polygon fill="white" stroke="#bfbfbf" points="66.5,-0.5 66.5,-19.5 113.5,-19.5 113.5,-0.5 66.5,-0.5"/>
<text text-anchor="middle" x="90" y="-7.5" font-family="Helvetica,sans-Serif" font-size="10.00">queue</text>
</a>
</g>
</g>
<!-- Node17&#45;&gt;Node18 -->
<g id="edge19" class="edge">
<title>Node17&#45;&gt;Node18</title>
<path fill="none" stroke="midnightblue" d="M208.66,-56.44C185.25,-47.48 148.26,-33.31 121.81,-23.18"/>
<polygon fill="midnightblue" stroke="midnightblue" points="122.83,-19.82 112.24,-19.52 120.32,-26.36 122.83,-19.82"/>
</g>
<!-- Node19 -->
<g id="node19" class="node">
<title>Node19</title>
<g id="a_node19"><a xlink:title=" ">
<polygon fill="white" stroke="#bfbfbf" points="131.5,-0.5 131.5,-19.5 196.5,-19.5 196.5,-0.5 131.5,-0.5"/>
<text text-anchor="middle" x="164" y="-7.5" font-family="Helvetica,sans-Serif" font-size="10.00">functional</text>
</a>
</g>
</g>
<!-- Node17&#45;&gt;Node19 -->
<g id="edge20" class="edge">
<title>Node17&#45;&gt;Node19</title>
<path fill="none" stroke="midnightblue" d="M220.24,-56.32C210.23,-48.26 195.11,-36.08 183.07,-26.37"/>
<polygon fill="midnightblue" stroke="midnightblue" points="184.94,-23.38 174.96,-19.83 180.55,-28.83 184.94,-23.38"/>
</g>
<!-- Node20 -->
<g id="node20" class="node">
<title>Node20</title>
<g id="a_node20"><a xlink:title=" ">
<polygon fill="white" stroke="#bfbfbf" points="214.5,-0.5 214.5,-19.5 321.5,-19.5 321.5,-0.5 214.5,-0.5"/>
<text text-anchor="middle" x="268" y="-7.5" font-family="Helvetica,sans-Serif" font-size="10.00">condition_variable</text>
</a>
</g>
</g>
<!-- Node17&#45;&gt;Node20 -->
<g id="edge22" class="edge">
<title>Node17&#45;&gt;Node20</title>
<path fill="none" stroke="midnightblue" d="M237.11,-56.08C242.28,-48.53 249.85,-37.49 256.19,-28.23"/>
<polygon fill="midnightblue" stroke="midnightblue" points="259.24,-29.98 262,-19.75 253.46,-26.02 259.24,-29.98"/>
</g>
<!-- Node21 -->
<g id="node21" class="node">
<title>Node21</title>
<g id="a_node21"><a xlink:title=" ">
<polygon fill="white" stroke="#bfbfbf" points="710,-0.5 710,-19.5 760,-19.5 760,-0.5 710,-0.5"/>
<text text-anchor="middle" x="735" y="-7.5" font-family="Helvetica,sans-Serif" font-size="10.00">atomic</text>
</a>
</g>
</g>
<!-- Node17&#45;&gt;Node21 -->
<g id="edge23" class="edge">
<title>Node17&#45;&gt;Node21</title>
<path fill="none" stroke="midnightblue" d="M298.6,-57C301.77,-56.66 304.92,-56.32 308,-56 479.22,-38.15 526.54,-50.09 699.89,-19.92"/>
<polygon fill="midnightblue" stroke="midnightblue" points="700.61,-23.34 709.85,-18.16 699.4,-16.45 700.61,-23.34"/>
</g>
<!-- Node22 -->
<g id="node22" class="node">
<title>Node22</title>
<g id="a_node22"><a xlink:title=" ">
<polygon fill="white" stroke="#bfbfbf" points="474,-0.5 474,-19.5 534,-19.5 534,-0.5 474,-0.5"/>
<text text-anchor="middle" x="504" y="-7.5" font-family="Helvetica,sans-Serif" font-size="10.00">iostream</text>
</a>
</g>
</g>
<!-- Node17&#45;&gt;Node22 -->
<g id="edge24" class="edge">
<title>Node17&#45;&gt;Node22</title>
<path fill="none" stroke="midnightblue" d="M278.16,-56.46C323.37,-48.15 393.77,-34.91 463.9,-20.18"/>
<polygon fill="midnightblue" stroke="midnightblue" points="464.73,-23.58 473.79,-18.09 463.28,-16.73 464.73,-23.58"/>
</g>
<!-- Node25&#45;&gt;Node2 -->
<g id="edge32" class="edge">
<title>Node25&#45;&gt;Node2</title>
<path fill="none" stroke="midnightblue" d="M914.75,-57.85C966.89,-50.49 1048.38,-37.89 1127.58,-20.11"/>
<polygon fill="midnightblue" stroke="midnightblue" points="1128.76,-23.43 1137.73,-17.8 1127.2,-16.61 1128.76,-23.43"/>
</g>
<!-- Node25&#45;&gt;Node4 -->
<g id="edge29" class="edge">
<title>Node25&#45;&gt;Node4</title>
<path fill="none" stroke="midnightblue" d="M897.65,-56.49C936.48,-47.47 999.57,-32.79 1054,-20 1054.1,-19.98 1054.2,-19.95 1054.3,-19.93"/>
<polygon fill="midnightblue" stroke="midnightblue" points="1054.85,-23.4 1063.78,-17.7 1053.24,-16.58 1054.85,-23.4"/>
</g>
<!-- Node25&#45;&gt;Node22 -->
<g id="edge33" class="edge">
<title>Node25&#45;&gt;Node22</title>
<path fill="none" stroke="midnightblue" d="M807.38,-57.33C804.21,-56.88 801.06,-56.43 798,-56 687.89,-40.36 657.25,-40.85 544.27,-20.1"/>
<polygon fill="midnightblue" stroke="midnightblue" points="544.65,-16.62 534.18,-18.24 543.38,-23.5 544.65,-16.62"/>
</g>
<!-- Node26 -->
<g id="node26" class="node">
<title>Node26</title>
<g id="a_node26"><a xlink:title=" ">
<polygon fill="white" stroke="#bfbfbf" points="846.5,-0.5 846.5,-19.5 915.5,-19.5 915.5,-0.5 846.5,-0.5"/>
<text text-anchor="middle" x="881" y="-7.5" font-family="Helvetica,sans-Serif" font-size="10.00">arpa/inet.h</text>
</a>
</g>
</g>
<!-- Node25&#45;&gt;Node26 -->
<g id="edge28" class="edge">
<title>Node25&#45;&gt;Node26</title>
<path fill="none" stroke="midnightblue" d="M864.3,-56.08C866.98,-48.85 870.85,-38.41 874.19,-29.4"/>
<polygon fill="midnightblue" stroke="midnightblue" points="877.57,-30.34 877.76,-19.75 871,-27.91 877.57,-30.34"/>
</g>
<!-- Node27 -->
<g id="node27" class="node">
<title>Node27</title>
<g id="a_node27"><a xlink:title=" ">
<polygon fill="white" stroke="#bfbfbf" points="998.5,-0.5 998.5,-19.5 1045.5,-19.5 1045.5,-0.5 998.5,-0.5"/>
<text text-anchor="middle" x="1022" y="-7.5" font-family="Helvetica,sans-Serif" font-size="10.00">cerrno</text>
</a>
</g>
</g>
<!-- Node25&#45;&gt;Node27 -->
<g id="edge30" class="edge">
<title>Node25&#45;&gt;Node27</title>
<path fill="none" stroke="midnightblue" d="M886.51,-56.44C914.15,-47.17 958.37,-32.34 988.72,-22.16"/>
<polygon fill="midnightblue" stroke="midnightblue" points="990.07,-25.4 998.44,-18.9 987.85,-18.76 990.07,-25.4"/>
</g>
<!-- Node28 -->
<g id="node28" class="node">
<title>Node28</title>
<g id="a_node28"><a xlink:title=" ">
<polygon fill="white" stroke="#bfbfbf" points="778,-0.5 778,-19.5 828,-19.5 828,-0.5 778,-0.5"/>
<text text-anchor="middle" x="803" y="-7.5" font-family="Helvetica,sans-Serif" font-size="10.00">cstring</text>
</a>
</g>
</g>
<!-- Node25&#45;&gt;Node28 -->
<g id="edge31" class="edge">
<title>Node25&#45;&gt;Node28</title>
<path fill="none" stroke="midnightblue" d="M851.68,-56.32C843.11,-48.34 830.19,-36.31 819.81,-26.65"/>
<polygon fill="midnightblue" stroke="midnightblue" points="822.19,-24.09 812.49,-19.83 817.42,-29.21 822.19,-24.09"/>
</g>
<!-- Node29&#45;&gt;Node5 -->
<g id="edge41" class="edge">
<title>Node29&#45;&gt;Node5</title>
<path fill="none" stroke="midnightblue" d="M711.23,-56.76C772.41,-46.99 871.09,-30.91 923.45,-19.9"/>
<polygon fill="midnightblue" stroke="midnightblue" points="924.24,-23.31 933.28,-17.77 922.76,-16.47 924.24,-23.31"/>
</g>
<!-- Node29&#45;&gt;Node15 -->
<g id="edge40" class="edge">
<title>Node29&#45;&gt;Node15</title>
<path fill="none" stroke="midnightblue" d="M620.63,-56.47C583.51,-48.13 525.39,-34.86 466.13,-20.23"/>
<polygon fill="midnightblue" stroke="midnightblue" points="466.78,-16.78 456.23,-17.77 465.09,-23.58 466.78,-16.78"/>
</g>
<!-- Node29&#45;&gt;Node21 -->
<g id="edge39" class="edge">
<title>Node29&#45;&gt;Node21</title>
<path fill="none" stroke="midnightblue" d="M671.21,-56.32C682.78,-48.11 700.38,-35.6 714.16,-25.81"/>
<polygon fill="midnightblue" stroke="midnightblue" points="716.44,-28.48 722.57,-19.83 712.39,-22.77 716.44,-28.48"/>
</g>
<!-- Node29&#45;&gt;Node22 -->
<g id="edge36" class="edge">
<title>Node29&#45;&gt;Node22</title>
<path fill="none" stroke="midnightblue" d="M634.44,-56.44C608.48,-47.4 567.33,-33.06 538.2,-22.92"/>
<polygon fill="midnightblue" stroke="midnightblue" points="539.04,-19.5 528.45,-19.52 536.74,-26.11 539.04,-19.5"/>
</g>
<!-- Node29&#45;&gt;Node28 -->
<g id="edge38" class="edge">
<title>Node29&#45;&gt;Node28</title>
<path fill="none" stroke="midnightblue" d="M681.82,-56.44C705.83,-47.44 743.83,-33.19 770.87,-23.05"/>
<polygon fill="midnightblue" stroke="midnightblue" points="772.16,-26.3 780.29,-19.52 769.7,-19.75 772.16,-26.3"/>
</g>
<!-- Node30 -->
<g id="node30" class="node">
<title>Node30</title>
<g id="a_node30"><a xlink:title=" ">
<polygon fill="white" stroke="#bfbfbf" points="626,-0.5 626,-19.5 692,-19.5 692,-0.5 626,-0.5"/>
<text text-anchor="middle" x="659" y="-7.5" font-family="Helvetica,sans-Serif" font-size="10.00">sys/ioctl.h</text>
</a>
</g>
</g>
<!-- Node29&#45;&gt;Node30 -->
<g id="edge35" class="edge">
<title>Node29&#45;&gt;Node30</title>
<path fill="none" stroke="midnightblue" d="M659,-56.08C659,-49.01 659,-38.86 659,-29.99"/>
<polygon fill="midnightblue" stroke="midnightblue" points="662.5,-29.75 659,-19.75 655.5,-29.75 662.5,-29.75"/>
</g>
<!-- Node31 -->
<g id="node31" class="node">
<title>Node31</title>
<g id="a_node31"><a xlink:title=" ">
<polygon fill="white" stroke="#bfbfbf" points="552,-0.5 552,-19.5 608,-19.5 608,-0.5 552,-0.5"/>
<text text-anchor="middle" x="580" y="-7.5" font-family="Helvetica,sans-Serif" font-size="10.00">iomanip</text>
</a>
</g>
</g>
<!-- Node29&#45;&gt;Node31 -->
<g id="edge37" class="edge">
<title>Node29&#45;&gt;Node31</title>
<path fill="none" stroke="midnightblue" d="M646.31,-56.32C634.1,-47.98 615.42,-35.21 601,-25.35"/>
<polygon fill="midnightblue" stroke="midnightblue" points="602.89,-22.41 592.66,-19.65 598.94,-28.19 602.89,-22.41"/>
</g>
<!-- Node34&#45;&gt;Node9 -->
<g id="edge45" class="edge">
<title>Node34&#45;&gt;Node9</title>
<path fill="none" stroke="midnightblue" d="M1824.8,-56.32C1833.82,-48.34 1847.41,-36.31 1858.32,-26.65"/>
<polygon fill="midnightblue" stroke="midnightblue" points="1860.85,-29.08 1866.02,-19.83 1856.21,-23.84 1860.85,-29.08"/>
</g>
<!-- Node34&#45;&gt;Node21 -->
<g id="edge46" class="edge">
<title>Node34&#45;&gt;Node21</title>
<path fill="none" stroke="midnightblue" d="M1782.88,-63.81C1618.99,-57.74 879.74,-30.03 770.11,-19.47"/>
<polygon fill="midnightblue" stroke="midnightblue" points="770.46,-15.99 760.12,-18.3 769.65,-22.94 770.46,-15.99"/>
</g>
<!-- Node35 -->
<g id="node35" class="node">
<title>Node35</title>
<g id="a_node35"><a xlink:title=" ">
<polygon fill="white" stroke="#bfbfbf" points="1918,-0.5 1918,-19.5 1960,-19.5 1960,-0.5 1918,-0.5"/>
<text text-anchor="middle" x="1939" y="-7.5" font-family="Helvetica,sans-Serif" font-size="10.00">array</text>
</a>
</g>
</g>
<!-- Node34&#45;&gt;Node35 -->
<g id="edge47" class="edge">
<title>Node34&#45;&gt;Node35</title>
<path fill="none" stroke="midnightblue" d="M1834.65,-56.44C1854.96,-47.6 1886.9,-33.69 1910.1,-23.59"/>
<polygon fill="midnightblue" stroke="midnightblue" points="1911.67,-26.72 1919.44,-19.52 1908.88,-20.3 1911.67,-26.72"/>
</g>
<!-- Node36 -->
<g id="node36" class="node">
<title>Node36</title>
<g id="a_node36"><a xlink:title=" ">
<polygon fill="white" stroke="#bfbfbf" points="1978.5,-0.5 1978.5,-19.5 2031.5,-19.5 2031.5,-0.5 1978.5,-0.5"/>
<text text-anchor="middle" x="2005" y="-7.5" font-family="Helvetica,sans-Serif" font-size="10.00">stdlib.h</text>
</a>
</g>
</g>
<!-- Node34&#45;&gt;Node36 -->
<g id="edge48" class="edge">
<title>Node34&#45;&gt;Node36</title>
<path fill="none" stroke="midnightblue" d="M1845.11,-56.44C1878.53,-46.94 1932.5,-31.61 1968.35,-21.41"/>
<polygon fill="midnightblue" stroke="midnightblue" points="1969.74,-24.66 1978.41,-18.56 1967.83,-17.93 1969.74,-24.66"/>
</g>
<!-- Node37&#45;&gt;Node2 -->
<g id="edge50" class="edge">
<title>Node37&#45;&gt;Node2</title>
<path fill="none" stroke="midnightblue" d="M1480.3,-59.14C1473.91,-58.05 1467.25,-56.96 1461,-56 1344.49,-38.16 1311.21,-44.58 1192.12,-19.96"/>
<polygon fill="midnightblue" stroke="midnightblue" points="1192.76,-16.52 1182.25,-17.89 1191.32,-23.37 1192.76,-16.52"/>
</g>
<!-- Node37&#45;&gt;Node7 -->
<g id="edge52" class="edge">
<title>Node37&#45;&gt;Node7</title>
<path fill="none" stroke="midnightblue" d="M1480.25,-59.15C1427.01,-49.6 1323.05,-30.84 1269.74,-20.06"/>
<polygon fill="midnightblue" stroke="midnightblue" points="1270.28,-16.6 1259.78,-18.02 1268.87,-23.45 1270.28,-16.6"/>
</g>
<!-- Node37&#45;&gt;Node9 -->
<g id="edge51" class="edge">
<title>Node37&#45;&gt;Node9</title>
<path fill="none" stroke="midnightblue" d="M1545.56,-61.99C1603.35,-56.33 1727.76,-42.78 1842.31,-19.89"/>
<polygon fill="midnightblue" stroke="midnightblue" points="1843.19,-23.28 1852.3,-17.86 1841.8,-16.42 1843.19,-23.28"/>
</g>
<!-- Node37&#45;&gt;Node23 -->
<g id="edge58" class="edge">
<title>Node37&#45;&gt;Node23</title>
<path fill="none" stroke="midnightblue" d="M1483.84,-56.44C1452.49,-47.24 1402.47,-32.56 1367.8,-22.39"/>
<polygon fill="midnightblue" stroke="midnightblue" points="1368.6,-18.97 1358.02,-19.52 1366.63,-25.69 1368.6,-18.97"/>
</g>
<!-- Node38 -->
<g id="node38" class="node">
<title>Node38</title>
<g id="a_node38"><a xlink:title=" ">
<polygon fill="white" stroke="#bfbfbf" points="1668,-0.5 1668,-19.5 1736,-19.5 1736,-0.5 1668,-0.5"/>
<text text-anchor="middle" x="1702" y="-7.5" font-family="Helvetica,sans-Serif" font-size="10.00">filesystem</text>
</a>
</g>
</g>
<!-- Node37&#45;&gt;Node38 -->
<g id="edge53" class="edge">
<title>Node37&#45;&gt;Node38</title>
<path fill="none" stroke="midnightblue" d="M1542.95,-56.44C1575.16,-47.24 1626.53,-32.56 1662.14,-22.39"/>
<polygon fill="midnightblue" stroke="midnightblue" points="1663.54,-25.63 1672.19,-19.52 1661.62,-18.9 1663.54,-25.63"/>
</g>
<!-- Node39 -->
<g id="node39" class="node">
<title>Node39</title>
<g id="a_node39"><a xlink:title=" ">
<polygon fill="white" stroke="#bfbfbf" points="1754,-0.5 1754,-19.5 1834,-19.5 1834,-0.5 1754,-0.5"/>
<text text-anchor="middle" x="1794" y="-7.5" font-family="Helvetica,sans-Serif" font-size="10.00">SDL_image.h</text>
</a>
</g>
</g>
<!-- Node37&#45;&gt;Node39 -->
<g id="edge54" class="edge">
<title>Node37&#45;&gt;Node39</title>
<path fill="none" stroke="midnightblue" d="M1545.51,-58.75C1594.16,-49.4 1686.32,-31.69 1743.71,-20.67"/>
<polygon fill="midnightblue" stroke="midnightblue" points="1744.49,-24.08 1753.65,-18.75 1743.17,-17.2 1744.49,-24.08"/>
</g>
<!-- Node40 -->
<g id="node40" class="node">
<title>Node40</title>
<g id="a_node40"><a xlink:title=" ">
<polygon fill="white" stroke="#bfbfbf" points="1398.5,-0.5 1398.5,-19.5 1451.5,-19.5 1451.5,-0.5 1398.5,-0.5"/>
<text text-anchor="middle" x="1425" y="-7.5" font-family="Helvetica,sans-Serif" font-size="10.00">imgui.h</text>
</a>
</g>
</g>
<!-- Node37&#45;&gt;Node40 -->
<g id="edge55" class="edge">
<title>Node37&#45;&gt;Node40</title>
<path fill="none" stroke="midnightblue" d="M1498.86,-56.32C1485.13,-47.9 1464.06,-34.97 1447.94,-25.07"/>
<polygon fill="midnightblue" stroke="midnightblue" points="1449.46,-21.9 1439.1,-19.65 1445.8,-27.87 1449.46,-21.9"/>
</g>
<!-- Node41 -->
<g id="node41" class="node">
<title>Node41</title>
<g id="a_node41"><a xlink:title=" ">
<polygon fill="white" stroke="#bfbfbf" points="1470,-0.5 1470,-19.5 1566,-19.5 1566,-0.5 1470,-0.5"/>
<text text-anchor="middle" x="1518" y="-7.5" font-family="Helvetica,sans-Serif" font-size="10.00">imgui_internal.h</text>
</a>
</g>
</g>
<!-- Node37&#45;&gt;Node41 -->
<g id="edge56" class="edge">
<title>Node37&#45;&gt;Node41</title>
<path fill="none" stroke="midnightblue" d="M1513.83,-56.08C1514.48,-49.01 1515.42,-38.86 1516.24,-29.99"/>
<polygon fill="midnightblue" stroke="midnightblue" points="1519.75,-30.03 1517.19,-19.75 1512.78,-29.39 1519.75,-30.03"/>
</g>
<!-- Node42 -->
<g id="node42" class="node">
<title>Node42</title>
<g id="a_node42"><a xlink:title=" ">
<polygon fill="white" stroke="#bfbfbf" points="1584,-0.5 1584,-19.5 1650,-19.5 1650,-0.5 1584,-0.5"/>
<text text-anchor="middle" x="1617" y="-7.5" font-family="Helvetica,sans-Serif" font-size="10.00">libnpy.hpp</text>
</a>
</g>
</g>
<!-- Node37&#45;&gt;Node42 -->
<g id="edge57" class="edge">
<title>Node37&#45;&gt;Node42</title>
<path fill="none" stroke="midnightblue" d="M1529.71,-56.32C1546.31,-47.7 1572,-34.36 1591.22,-24.39"/>
<polygon fill="midnightblue" stroke="midnightblue" points="1593.07,-27.37 1600.33,-19.65 1589.84,-21.16 1593.07,-27.37"/>
</g>
</g>
</svg>
