<?xml version="1.0" encoding="UTF-8" standalone="no"?>
<!DOCTYPE svg PUBLIC "-//W3C//DTD SVG 1.1//EN"
 "http://www.w3.org/Graphics/SVG/1.1/DTD/svg11.dtd">
<!-- Generated by graphviz version 2.43.0 (0)
 -->
<!-- Title: src/main.cpp Pages: 1 -->
<svg width="2104pt" height="196pt"
 viewBox="0.00 0.00 2103.50 196.00" xmlns="http://www.w3.org/2000/svg" xmlns:xlink="http://www.w3.org/1999/xlink">
<g id="graph0" class="graph" transform="scale(1 1) rotate(0) translate(4 192)">
<title>src/main.cpp</title>
<polygon fill="white" stroke="transparent" points="-4,4 -4,-192 2099.5,-192 2099.5,4 -4,4"/>
<!-- Node1 -->
<g id="node1" class="node">
<title>Node1</title>
<g id="a_node1"><a xlink:title=" ">
<polygon fill="#bfbfbf" stroke="black" points="1509.5,-168.5 1509.5,-187.5 1588.5,-187.5 1588.5,-168.5 1509.5,-168.5"/>
<text text-anchor="middle" x="1549" y="-175.5" font-family="Helvetica,sans-Serif" font-size="10.00">src/main.cpp</text>
</a>
</g>
</g>
<!-- Node2 -->
<g id="node2" class="node">
<title>Node2</title>
<g id="a_node2"><a xlink:title=" ">
<polygon fill="white" stroke="#bfbfbf" points="1203,-0.5 1203,-19.5 1247,-19.5 1247,-0.5 1203,-0.5"/>
<text text-anchor="middle" x="1225" y="-7.5" font-family="Helvetica,sans-Serif" font-size="10.00">string</text>
</a>
</g>
</g>
<!-- Node1&#45;&gt;Node2 -->
<g id="edge1" class="edge">
<title>Node1&#45;&gt;Node2</title>
<path fill="none" stroke="midnightblue" d="M1544.94,-168.21C1533.92,-145.45 1501.12,-84.41 1454,-56 1380.09,-11.44 1345.53,-38.43 1257.16,-19.97"/>
<polygon fill="midnightblue" stroke="midnightblue" points="1257.8,-16.53 1247.28,-17.76 1256.28,-23.36 1257.8,-16.53"/>
</g>
<!-- Node3 -->
<g id="node3" class="node">
<title>Node3</title>
<g id="a_node3"><a xlink:href="../../de/dfc/Ricom_8h.html" target="_top" xlink:title=" ">
<polygon fill="white" stroke="black" points="894,-112.5 894,-131.5 950,-131.5 950,-112.5 894,-112.5"/>
<text text-anchor="middle" x="922" y="-119.5" font-family="Helvetica,sans-Serif" font-size="10.00">Ricom.h</text>
</a>
</g>
</g>
<!-- Node1&#45;&gt;Node3 -->
<g id="edge2" class="edge">
<title>Node1&#45;&gt;Node3</title>
<path fill="none" stroke="midnightblue" d="M1509.3,-173.58C1395.99,-163.82 1072.05,-135.92 960.38,-126.31"/>
<polygon fill="midnightblue" stroke="midnightblue" points="960.52,-122.8 950.26,-125.43 959.92,-129.78 960.52,-122.8"/>
</g>
<!-- Node42 -->
<g id="node42" class="node">
<title>Node42</title>
<g id="a_node42"><a xlink:href="../../dd/de4/Camera_8h.html" target="_top" xlink:title=" ">
<polygon fill="white" stroke="black" points="1908,-56.5 1908,-75.5 1972,-75.5 1972,-56.5 1908,-56.5"/>
<text text-anchor="middle" x="1940" y="-63.5" font-family="Helvetica,sans-Serif" font-size="10.00">Camera.h</text>
</a>
</g>
</g>
<!-- Node1&#45;&gt;Node42 -->
<g id="edge56" class="edge">
<title>Node1&#45;&gt;Node42</title>
<path fill="none" stroke="midnightblue" d="M1579.36,-168.46C1649.16,-148.82 1821.1,-100.45 1899.66,-78.35"/>
<polygon fill="midnightblue" stroke="midnightblue" points="1900.99,-81.61 1909.66,-75.53 1899.09,-74.87 1900.99,-81.61"/>
</g>
<!-- Node3&#45;&gt;Node2 -->
<g id="edge9" class="edge">
<title>Node3&#45;&gt;Node2</title>
<path fill="none" stroke="midnightblue" d="M950.24,-119.99C1037.9,-116.56 1300.94,-104.01 1326,-76 1331.93,-69.38 1330.84,-63.46 1326,-56 1317.98,-43.65 1283.31,-29.94 1256.8,-20.94"/>
<polygon fill="midnightblue" stroke="midnightblue" points="1257.71,-17.55 1247.11,-17.73 1255.51,-24.2 1257.71,-17.55"/>
</g>
<!-- Node4 -->
<g id="node4" class="node">
<title>Node4</title>
<g id="a_node4"><a xlink:title=" ">
<polygon fill="white" stroke="#bfbfbf" points="1123,-0.5 1123,-19.5 1179,-19.5 1179,-0.5 1123,-0.5"/>
<text text-anchor="middle" x="1151" y="-7.5" font-family="Helvetica,sans-Serif" font-size="10.00">unistd.h</text>
</a>
</g>
</g>
<!-- Node3&#45;&gt;Node4 -->
<g id="edge3" class="edge">
<title>Node3&#45;&gt;Node4</title>
<path fill="none" stroke="midnightblue" d="M950.25,-119.84C1035.4,-116.06 1285.16,-102.77 1309,-76 1314.91,-69.36 1314.36,-63.09 1309,-56 1301.65,-46.26 1233.49,-29.43 1189.13,-19.34"/>
<polygon fill="midnightblue" stroke="midnightblue" points="1189.76,-15.9 1179.24,-17.11 1188.22,-22.72 1189.76,-15.9"/>
</g>
<!-- Node5 -->
<g id="node5" class="node">
<title>Node5</title>
<g id="a_node5"><a xlink:title=" ">
<polygon fill="white" stroke="#bfbfbf" points="986.5,-0.5 986.5,-19.5 1033.5,-19.5 1033.5,-0.5 986.5,-0.5"/>
<text text-anchor="middle" x="1010" y="-7.5" font-family="Helvetica,sans-Serif" font-size="10.00">cmath</text>
</a>
</g>
</g>
<!-- Node3&#45;&gt;Node5 -->
<g id="edge4" class="edge">
<title>Node3&#45;&gt;Node5</title>
<path fill="none" stroke="midnightblue" d="M938.51,-112.5C952.31,-104.65 971.66,-91.84 984,-76 994.73,-62.23 1001.6,-43.45 1005.57,-29.62"/>
<polygon fill="midnightblue" stroke="midnightblue" points="1009,-30.34 1008.15,-19.78 1002.23,-28.57 1009,-30.34"/>
</g>
<!-- Node6 -->
<g id="node6" class="node">
<title>Node6</title>
<g id="a_node6"><a xlink:title=" ">
<polygon fill="white" stroke="#bfbfbf" points="1395,-56.5 1395,-75.5 1445,-75.5 1445,-56.5 1395,-56.5"/>
<text text-anchor="middle" x="1420" y="-63.5" font-family="Helvetica,sans-Serif" font-size="10.00">stdio.h</text>
</a>
</g>
</g>
<!-- Node3&#45;&gt;Node6 -->
<g id="edge5" class="edge">
<title>Node3&#45;&gt;Node6</title>
<path fill="none" stroke="midnightblue" d="M950.11,-119.51C1022.12,-115.42 1219.01,-102.52 1381,-76 1382.27,-75.79 1383.57,-75.57 1384.87,-75.33"/>
<polygon fill="midnightblue" stroke="midnightblue" points="1385.81,-78.71 1394.92,-73.29 1384.42,-71.85 1385.81,-78.71"/>
</g>
<!-- Node7 -->
<g id="node7" class="node">
<title>Node7</title>
<g id="a_node7"><a xlink:title=" ">
<polygon fill="white" stroke="#bfbfbf" points="1265.5,-0.5 1265.5,-19.5 1324.5,-19.5 1324.5,-0.5 1265.5,-0.5"/>
<text text-anchor="middle" x="1295" y="-7.5" font-family="Helvetica,sans-Serif" font-size="10.00">complex</text>
</a>
</g>
</g>
<!-- Node3&#45;&gt;Node7 -->
<g id="edge6" class="edge">
<title>Node3&#45;&gt;Node7</title>
<path fill="none" stroke="midnightblue" d="M950.33,-120.79C1055.57,-119.72 1419.7,-113.32 1454,-76 1460.01,-69.46 1459.36,-63.09 1454,-56 1450.3,-51.11 1380.55,-32.66 1334.67,-20.96"/>
<polygon fill="midnightblue" stroke="midnightblue" points="1335.27,-17.5 1324.71,-18.43 1333.54,-24.28 1335.27,-17.5"/>
</g>
<!-- Node8 -->
<g id="node8" class="node">
<title>Node8</title>
<g id="a_node8"><a xlink:title=" ">
<polygon fill="white" stroke="#bfbfbf" points="0,-56.5 0,-75.5 44,-75.5 44,-56.5 0,-56.5"/>
<text text-anchor="middle" x="22" y="-63.5" font-family="Helvetica,sans-Serif" font-size="10.00">cfloat</text>
</a>
</g>
</g>
<!-- Node3&#45;&gt;Node8 -->
<g id="edge7" class="edge">
<title>Node3&#45;&gt;Node8</title>
<path fill="none" stroke="midnightblue" d="M893.98,-120.27C764.69,-116.78 224.93,-100.97 58,-76 56.75,-75.81 55.47,-75.6 54.19,-75.37"/>
<polygon fill="midnightblue" stroke="midnightblue" points="54.84,-71.93 44.33,-73.29 53.4,-78.78 54.84,-71.93"/>
</g>
<!-- Node9 -->
<g id="node9" class="node">
<title>Node9</title>
<g id="a_node9"><a xlink:title=" ">
<polygon fill="white" stroke="#bfbfbf" points="1916.5,-0.5 1916.5,-19.5 1963.5,-19.5 1963.5,-0.5 1916.5,-0.5"/>
<text text-anchor="middle" x="1940" y="-7.5" font-family="Helvetica,sans-Serif" font-size="10.00">vector</text>
</a>
</g>
</g>
<!-- Node3&#45;&gt;Node9 -->
<g id="edge8" class="edge">
<title>Node3&#45;&gt;Node9</title>
<path fill="none" stroke="midnightblue" d="M950.3,-120.81C1048.01,-119.84 1380.04,-113.77 1651,-76 1744.59,-62.95 1852.72,-35.15 1906.3,-20.49"/>
<polygon fill="midnightblue" stroke="midnightblue" points="1907.56,-23.78 1916.27,-17.74 1905.7,-17.03 1907.56,-23.78"/>
</g>
<!-- Node10 -->
<g id="node10" class="node">
<title>Node10</title>
<g id="a_node10"><a xlink:title=" ">
<polygon fill="white" stroke="#bfbfbf" points="100,-56.5 100,-75.5 144,-75.5 144,-56.5 100,-56.5"/>
<text text-anchor="middle" x="122" y="-63.5" font-family="Helvetica,sans-Serif" font-size="10.00">SDL.h</text>
</a>
</g>
</g>
<!-- Node3&#45;&gt;Node10 -->
<g id="edge10" class="edge">
<title>Node3&#45;&gt;Node10</title>
<path fill="none" stroke="midnightblue" d="M893.88,-120.2C775.82,-116.71 319.06,-101.9 154.18,-75.75"/>
<polygon fill="midnightblue" stroke="midnightblue" points="154.65,-72.28 144.21,-74.09 153.5,-79.19 154.65,-72.28"/>
</g>
<!-- Node11 -->
<g id="node11" class="node">
<title>Node11</title>
<g id="a_node11"><a xlink:title=" ">
<polygon fill="white" stroke="#bfbfbf" points="27,-0.5 27,-19.5 75,-19.5 75,-0.5 27,-0.5"/>
<text text-anchor="middle" x="51" y="-7.5" font-family="Helvetica,sans-Serif" font-size="10.00">mutex</text>
</a>
</g>
</g>
<!-- Node3&#45;&gt;Node11 -->
<g id="edge11" class="edge">
<title>Node3&#45;&gt;Node11</title>
<path fill="none" stroke="midnightblue" d="M893.79,-121.01C756.4,-120.86 161.24,-117.78 91,-76 73.61,-65.65 62.73,-44.51 56.78,-29.14"/>
<polygon fill="midnightblue" stroke="midnightblue" points="60.06,-27.9 53.44,-19.63 53.45,-30.22 60.06,-27.9"/>
</g>
<!-- Node12 -->
<g id="node12" class="node">
<title>Node12</title>
<g id="a_node12"><a xlink:title=" ">
<polygon fill="white" stroke="#bfbfbf" points="316,-56.5 316,-75.5 362,-75.5 362,-56.5 316,-56.5"/>
<text text-anchor="middle" x="339" y="-63.5" font-family="Helvetica,sans-Serif" font-size="10.00">future</text>
</a>
</g>
</g>
<!-- Node3&#45;&gt;Node12 -->
<g id="edge12" class="edge">
<title>Node3&#45;&gt;Node12</title>
<path fill="none" stroke="midnightblue" d="M893.97,-120.24C813.12,-117.7 572.7,-107.83 376,-76 374.75,-75.8 373.48,-75.58 372.21,-75.34"/>
<polygon fill="midnightblue" stroke="midnightblue" points="372.88,-71.9 362.38,-73.27 371.44,-78.75 372.88,-71.9"/>
</g>
<!-- Node13 -->
<g id="node13" class="node">
<title>Node13</title>
<g id="a_node13"><a xlink:title=" ">
<polygon fill="white" stroke="#bfbfbf" points="367,-0.5 367,-19.5 415,-19.5 415,-0.5 367,-0.5"/>
<text text-anchor="middle" x="391" y="-7.5" font-family="Helvetica,sans-Serif" font-size="10.00">thread</text>
</a>
</g>
</g>
<!-- Node3&#45;&gt;Node13 -->
<g id="edge13" class="edge">
<title>Node3&#45;&gt;Node13</title>
<path fill="none" stroke="midnightblue" d="M893.92,-120.38C792.13,-117.89 446.45,-107.17 409,-76 395.66,-64.9 391.73,-44.86 390.79,-29.96"/>
<polygon fill="midnightblue" stroke="midnightblue" points="394.29,-29.71 390.55,-19.8 387.29,-29.88 394.29,-29.71"/>
</g>
<!-- Node14 -->
<g id="node14" class="node">
<title>Node14</title>
<g id="a_node14"><a xlink:title=" ">
<polygon fill="white" stroke="#bfbfbf" points="418,-56.5 418,-75.5 468,-75.5 468,-56.5 418,-56.5"/>
<text text-anchor="middle" x="443" y="-63.5" font-family="Helvetica,sans-Serif" font-size="10.00">fftw3.h</text>
</a>
</g>
</g>
<!-- Node3&#45;&gt;Node14 -->
<g id="edge14" class="edge">
<title>Node3&#45;&gt;Node14</title>
<path fill="none" stroke="midnightblue" d="M893.78,-119.34C823.72,-114.96 636.35,-101.6 482,-76 480.73,-75.79 479.43,-75.56 478.13,-75.32"/>
<polygon fill="midnightblue" stroke="midnightblue" points="478.58,-71.84 468.08,-73.27 477.18,-78.7 478.58,-71.84"/>
</g>
<!-- Node15 -->
<g id="node15" class="node">
<title>Node15</title>
<g id="a_node15"><a xlink:title=" ">
<polygon fill="white" stroke="#bfbfbf" points="459,-0.5 459,-19.5 509,-19.5 509,-0.5 459,-0.5"/>
<text text-anchor="middle" x="484" y="-7.5" font-family="Helvetica,sans-Serif" font-size="10.00">chrono</text>
</a>
</g>
</g>
<!-- Node3&#45;&gt;Node15 -->
<g id="edge15" class="edge">
<title>Node3&#45;&gt;Node15</title>
<path fill="none" stroke="midnightblue" d="M893.78,-121.35C811.86,-121.83 575.99,-119.35 515,-76 499.75,-65.16 491.73,-44.78 487.71,-29.71"/>
<polygon fill="midnightblue" stroke="midnightblue" points="491.1,-28.85 485.43,-19.9 484.28,-30.43 491.1,-28.85"/>
</g>
<!-- Node16 -->
<g id="node16" class="node">
<title>Node16</title>
<g id="a_node16"><a xlink:title=" ">
<polygon fill="white" stroke="#bfbfbf" points="524,-56.5 524,-75.5 588,-75.5 588,-56.5 524,-56.5"/>
<text text-anchor="middle" x="556" y="-63.5" font-family="Helvetica,sans-Serif" font-size="10.00">algorithm</text>
</a>
</g>
</g>
<!-- Node3&#45;&gt;Node16 -->
<g id="edge16" class="edge">
<title>Node3&#45;&gt;Node16</title>
<path fill="none" stroke="midnightblue" d="M893.63,-117.83C838.61,-111.52 713.42,-96.38 598.23,-76.1"/>
<polygon fill="midnightblue" stroke="midnightblue" points="598.64,-72.62 588.18,-74.31 597.41,-79.51 598.64,-72.62"/>
</g>
<!-- Node17 -->
<g id="node17" class="node">
<title>Node17</title>
<g id="a_node17"><a xlink:title=" ">
<polygon fill="white" stroke="#bfbfbf" points="606,-56.5 606,-75.5 650,-75.5 650,-56.5 606,-56.5"/>
<text text-anchor="middle" x="628" y="-63.5" font-family="Helvetica,sans-Serif" font-size="10.00">ctime</text>
</a>
</g>
</g>
<!-- Node3&#45;&gt;Node17 -->
<g id="edge17" class="edge">
<title>Node3&#45;&gt;Node17</title>
<path fill="none" stroke="midnightblue" d="M893.77,-117.24C847.08,-110.79 750.73,-96.51 660.15,-76.05"/>
<polygon fill="midnightblue" stroke="midnightblue" points="660.8,-72.61 650.27,-73.79 659.24,-79.44 660.8,-72.61"/>
</g>
<!-- Node18 -->
<g id="node18" class="node">
<title>Node18</title>
<g id="a_node18"><a xlink:href="../../d7/d50/BoundedThreadPool_8hpp.html" target="_top" xlink:title=" ">
<polygon fill="white" stroke="black" points="162.5,-56.5 162.5,-75.5 297.5,-75.5 297.5,-56.5 162.5,-56.5"/>
<text text-anchor="middle" x="230" y="-63.5" font-family="Helvetica,sans-Serif" font-size="10.00">BoundedThreadPool.hpp</text>
</a>
</g>
</g>
<!-- Node3&#45;&gt;Node18 -->
<g id="edge18" class="edge">
<title>Node3&#45;&gt;Node18</title>
<path fill="none" stroke="midnightblue" d="M893.77,-119.37C807.67,-114.31 540.65,-97.93 307.61,-76.02"/>
<polygon fill="midnightblue" stroke="midnightblue" points="307.87,-72.53 297.59,-75.07 307.21,-79.49 307.87,-72.53"/>
</g>
<!-- Node24 -->
<g id="node24" class="node">
<title>Node24</title>
<g id="a_node24"><a xlink:title=" ">
<polygon fill="white" stroke="#bfbfbf" points="1343,-0.5 1343,-19.5 1445,-19.5 1445,-0.5 1343,-0.5"/>
<text text-anchor="middle" x="1394" y="-7.5" font-family="Helvetica,sans-Serif" font-size="10.00">tinycolormap.hpp</text>
</a>
</g>
</g>
<!-- Node3&#45;&gt;Node24 -->
<g id="edge26" class="edge">
<title>Node3&#45;&gt;Node24</title>
<path fill="none" stroke="midnightblue" d="M950.13,-120.87C1057.25,-120.09 1435.44,-114.59 1471,-76 1489.69,-55.71 1456.15,-35.76 1427.62,-23.42"/>
<polygon fill="midnightblue" stroke="midnightblue" points="1428.8,-20.12 1418.22,-19.54 1426.13,-26.59 1428.8,-20.12"/>
</g>
<!-- Node25 -->
<g id="node25" class="node">
<title>Node25</title>
<g id="a_node25"><a xlink:title=" ">
<polygon fill="white" stroke="#bfbfbf" points="790,-56.5 790,-75.5 850,-75.5 850,-56.5 790,-56.5"/>
<text text-anchor="middle" x="820" y="-63.5" font-family="Helvetica,sans-Serif" font-size="10.00">fft2d.hpp</text>
</a>
</g>
</g>
<!-- Node3&#45;&gt;Node25 -->
<g id="edge27" class="edge">
<title>Node3&#45;&gt;Node25</title>
<path fill="none" stroke="midnightblue" d="M905.61,-112.32C889.33,-103.7 864.13,-90.36 845.28,-80.39"/>
<polygon fill="midnightblue" stroke="midnightblue" points="846.82,-77.24 836.35,-75.65 843.55,-83.43 846.82,-77.24"/>
</g>
<!-- Node26 -->
<g id="node26" class="node">
<title>Node26</title>
<g id="a_node26"><a xlink:href="../../d0/d3c/SocketConnector_8h.html" target="_top" xlink:title=" ">
<polygon fill="white" stroke="black" points="868.5,-56.5 868.5,-75.5 975.5,-75.5 975.5,-56.5 868.5,-56.5"/>
<text text-anchor="middle" x="922" y="-63.5" font-family="Helvetica,sans-Serif" font-size="10.00">SocketConnector.h</text>
</a>
</g>
</g>
<!-- Node3&#45;&gt;Node26 -->
<g id="edge28" class="edge">
<title>Node3&#45;&gt;Node26</title>
<path fill="none" stroke="midnightblue" d="M922,-112.08C922,-105.01 922,-94.86 922,-85.99"/>
<polygon fill="midnightblue" stroke="midnightblue" points="925.5,-85.75 922,-75.75 918.5,-85.75 925.5,-85.75"/>
</g>
<!-- Node30 -->
<g id="node30" class="node">
<title>Node30</title>
<g id="a_node30"><a xlink:href="../../da/dce/ProgressMonitor_8h.html" target="_top" xlink:title=" ">
<polygon fill="white" stroke="black" points="668,-56.5 668,-75.5 772,-75.5 772,-56.5 668,-56.5"/>
<text text-anchor="middle" x="720" y="-63.5" font-family="Helvetica,sans-Serif" font-size="10.00">ProgressMonitor.h</text>
</a>
</g>
</g>
<!-- Node3&#45;&gt;Node30 -->
<g id="edge35" class="edge">
<title>Node3&#45;&gt;Node30</title>
<path fill="none" stroke="midnightblue" d="M893.91,-113.49C859.61,-104.32 801.27,-88.73 761.72,-78.15"/>
<polygon fill="midnightblue" stroke="midnightblue" points="762.41,-74.71 751.84,-75.51 760.6,-81.48 762.41,-74.71"/>
</g>
<!-- Node33 -->
<g id="node33" class="node">
<title>Node33</title>
<g id="a_node33"><a xlink:title=" ">
<polygon fill="white" stroke="#bfbfbf" points="1032,-56.5 1032,-75.5 1110,-75.5 1110,-56.5 1032,-56.5"/>
<text text-anchor="middle" x="1071" y="-63.5" font-family="Helvetica,sans-Serif" font-size="10.00">Cheetah.hpp</text>
</a>
</g>
</g>
<!-- Node3&#45;&gt;Node33 -->
<g id="edge43" class="edge">
<title>Node3&#45;&gt;Node33</title>
<path fill="none" stroke="midnightblue" d="M945.61,-112.44C970.46,-103.44 1009.77,-89.19 1037.75,-79.05"/>
<polygon fill="midnightblue" stroke="midnightblue" points="1039.29,-82.21 1047.5,-75.52 1036.91,-75.63 1039.29,-82.21"/>
</g>
<!-- Node34 -->
<g id="node34" class="node">
<title>Node34</title>
<g id="a_node34"><a xlink:title=" ">
<polygon fill="white" stroke="#bfbfbf" points="1128.5,-56.5 1128.5,-75.5 1205.5,-75.5 1205.5,-56.5 1128.5,-56.5"/>
<text text-anchor="middle" x="1167" y="-63.5" font-family="Helvetica,sans-Serif" font-size="10.00">Timepix.hpp</text>
</a>
</g>
</g>
<!-- Node3&#45;&gt;Node34 -->
<g id="edge44" class="edge">
<title>Node3&#45;&gt;Node34</title>
<path fill="none" stroke="midnightblue" d="M950.1,-114.81C991.14,-105.76 1068.05,-88.81 1118.38,-77.72"/>
<polygon fill="midnightblue" stroke="midnightblue" points="1119.37,-81.08 1128.39,-75.51 1117.87,-74.25 1119.37,-81.08"/>
</g>
<!-- Node35 -->
<g id="node35" class="node">
<title>Node35</title>
<g id="a_node35"><a xlink:title=" ">
<polygon fill="white" stroke="#bfbfbf" points="1223.5,-56.5 1223.5,-75.5 1300.5,-75.5 1300.5,-56.5 1223.5,-56.5"/>
<text text-anchor="middle" x="1262" y="-63.5" font-family="Helvetica,sans-Serif" font-size="10.00">Advapix.hpp</text>
</a>
</g>
</g>
<!-- Node3&#45;&gt;Node35 -->
<g id="edge45" class="edge">
<title>Node3&#45;&gt;Node35</title>
<path fill="none" stroke="midnightblue" d="M950.24,-116.96C1000.79,-109.66 1110.3,-93.54 1213.3,-76.07"/>
<polygon fill="midnightblue" stroke="midnightblue" points="1213.98,-79.51 1223.25,-74.38 1212.8,-72.61 1213.98,-79.51"/>
</g>
<!-- Node36 -->
<g id="node36" class="node">
<title>Node36</title>
<g id="a_node36"><a xlink:href="../../d7/db2/GuiUtils_8h.html" target="_top" xlink:title=" ">
<polygon fill="white" stroke="black" points="1577.5,-56.5 1577.5,-75.5 1642.5,-75.5 1642.5,-56.5 1577.5,-56.5"/>
<text text-anchor="middle" x="1610" y="-63.5" font-family="Helvetica,sans-Serif" font-size="10.00">GuiUtils.h</text>
</a>
</g>
</g>
<!-- Node3&#45;&gt;Node36 -->
<g id="edge46" class="edge">
<title>Node3&#45;&gt;Node36</title>
<path fill="none" stroke="midnightblue" d="M950.28,-119.2C1036.54,-113.65 1303.87,-95.95 1525,-76 1538.78,-74.76 1553.8,-73.23 1567.32,-71.78"/>
<polygon fill="midnightblue" stroke="midnightblue" points="1567.76,-75.25 1577.33,-70.7 1567.01,-68.29 1567.76,-75.25"/>
</g>
<!-- Node18&#45;&gt;Node11 -->
<g id="edge22" class="edge">
<title>Node18&#45;&gt;Node11</title>
<path fill="none" stroke="midnightblue" d="M201.64,-56.44C170.01,-46.9 118.88,-31.48 85.1,-21.29"/>
<polygon fill="midnightblue" stroke="midnightblue" points="85.8,-17.84 75.21,-18.3 83.77,-24.54 85.8,-17.84"/>
</g>
<!-- Node18&#45;&gt;Node13 -->
<g id="edge19" class="edge">
<title>Node18&#45;&gt;Node13</title>
<path fill="none" stroke="midnightblue" d="M255.51,-56.44C282.99,-47.23 326.86,-32.51 357.2,-22.34"/>
<polygon fill="midnightblue" stroke="midnightblue" points="358.56,-25.57 366.92,-19.08 356.33,-18.94 358.56,-25.57"/>
</g>
<!-- Node19 -->
<g id="node19" class="node">
<title>Node19</title>
<g id="a_node19"><a xlink:title=" ">
<polygon fill="white" stroke="#bfbfbf" points="301.5,-0.5 301.5,-19.5 348.5,-19.5 348.5,-0.5 301.5,-0.5"/>
<text text-anchor="middle" x="325" y="-7.5" font-family="Helvetica,sans-Serif" font-size="10.00">queue</text>
</a>
</g>
</g>
<!-- Node18&#45;&gt;Node19 -->
<g id="edge20" class="edge">
<title>Node18&#45;&gt;Node19</title>
<path fill="none" stroke="midnightblue" d="M245.26,-56.32C260.22,-47.82 283.25,-34.73 300.73,-24.8"/>
<polygon fill="midnightblue" stroke="midnightblue" points="302.81,-27.64 309.77,-19.65 299.35,-21.55 302.81,-27.64"/>
</g>
<!-- Node20 -->
<g id="node20" class="node">
<title>Node20</title>
<g id="a_node20"><a xlink:title=" ">
<polygon fill="white" stroke="#bfbfbf" points="93.5,-0.5 93.5,-19.5 158.5,-19.5 158.5,-0.5 93.5,-0.5"/>
<text text-anchor="middle" x="126" y="-7.5" font-family="Helvetica,sans-Serif" font-size="10.00">functional</text>
</a>
</g>
</g>
<!-- Node18&#45;&gt;Node20 -->
<g id="edge21" class="edge">
<title>Node18&#45;&gt;Node20</title>
<path fill="none" stroke="midnightblue" d="M213.29,-56.32C196.69,-47.7 171,-34.36 151.78,-24.39"/>
<polygon fill="midnightblue" stroke="midnightblue" points="153.16,-21.16 142.67,-19.65 149.93,-27.37 153.16,-21.16"/>
</g>
<!-- Node21 -->
<g id="node21" class="node">
<title>Node21</title>
<g id="a_node21"><a xlink:title=" ">
<polygon fill="white" stroke="#bfbfbf" points="176.5,-0.5 176.5,-19.5 283.5,-19.5 283.5,-0.5 176.5,-0.5"/>
<text text-anchor="middle" x="230" y="-7.5" font-family="Helvetica,sans-Serif" font-size="10.00">condition_variable</text>
</a>
</g>
</g>
<!-- Node18&#45;&gt;Node21 -->
<g id="edge23" class="edge">
<title>Node18&#45;&gt;Node21</title>
<path fill="none" stroke="midnightblue" d="M230,-56.08C230,-49.01 230,-38.86 230,-29.99"/>
<polygon fill="midnightblue" stroke="midnightblue" points="233.5,-29.75 230,-19.75 226.5,-29.75 233.5,-29.75"/>
</g>
<!-- Node22 -->
<g id="node22" class="node">
<title>Node22</title>
<g id="a_node22"><a xlink:title=" ">
<polygon fill="white" stroke="#bfbfbf" points="763,-0.5 763,-19.5 813,-19.5 813,-0.5 763,-0.5"/>
<text text-anchor="middle" x="788" y="-7.5" font-family="Helvetica,sans-Serif" font-size="10.00">atomic</text>
</a>
</g>
</g>
<!-- Node18&#45;&gt;Node22 -->
<g id="edge24" class="edge">
<title>Node18&#45;&gt;Node22</title>
<path fill="none" stroke="midnightblue" d="M297.59,-56.96C300.77,-56.63 303.92,-56.3 307,-56 502.05,-36.75 555.78,-53.07 752.76,-19.91"/>
<polygon fill="midnightblue" stroke="midnightblue" points="753.59,-23.32 762.86,-18.19 752.41,-16.42 753.59,-23.32"/>
</g>
<!-- Node23 -->
<g id="node23" class="node">
<title>Node23</title>
<g id="a_node23"><a xlink:title=" ">
<polygon fill="white" stroke="#bfbfbf" points="685,-0.5 685,-19.5 745,-19.5 745,-0.5 685,-0.5"/>
<text text-anchor="middle" x="715" y="-7.5" font-family="Helvetica,sans-Serif" font-size="10.00">iostream</text>
</a>
</g>
</g>
<!-- Node18&#45;&gt;Node23 -->
<g id="edge25" class="edge">
<title>Node18&#45;&gt;Node23</title>
<path fill="none" stroke="midnightblue" d="M297.6,-57.02C300.78,-56.67 303.92,-56.33 307,-56 467.64,-38.78 511.67,-46.27 674.94,-19.98"/>
<polygon fill="midnightblue" stroke="midnightblue" points="675.54,-23.43 684.84,-18.37 674.41,-16.52 675.54,-23.43"/>
</g>
<!-- Node26&#45;&gt;Node2 -->
<g id="edge33" class="edge">
<title>Node26&#45;&gt;Node2</title>
<path fill="none" stroke="midnightblue" d="M975.7,-57.06C1029.58,-48.83 1114.83,-35.07 1188,-20 1189.5,-19.69 1191.03,-19.37 1192.57,-19.03"/>
<polygon fill="midnightblue" stroke="midnightblue" points="1193.79,-22.34 1202.75,-16.68 1192.22,-15.52 1193.79,-22.34"/>
</g>
<!-- Node26&#45;&gt;Node4 -->
<g id="edge30" class="edge">
<title>Node26&#45;&gt;Node4</title>
<path fill="none" stroke="midnightblue" d="M958.29,-56.44C1000.55,-46.48 1070.05,-30.09 1113.03,-19.95"/>
<polygon fill="midnightblue" stroke="midnightblue" points="1113.9,-23.35 1122.83,-17.64 1112.29,-16.53 1113.9,-23.35"/>
</g>
<!-- Node26&#45;&gt;Node23 -->
<g id="edge34" class="edge">
<title>Node26&#45;&gt;Node23</title>
<path fill="none" stroke="midnightblue" d="M889.2,-56.44C852.89,-46.97 794.33,-31.7 755.27,-21.5"/>
<polygon fill="midnightblue" stroke="midnightblue" points="755.85,-18.04 745.29,-18.9 754.08,-24.81 755.85,-18.04"/>
</g>
<!-- Node27 -->
<g id="node27" class="node">
<title>Node27</title>
<g id="a_node27"><a xlink:title=" ">
<polygon fill="white" stroke="#bfbfbf" points="899.5,-0.5 899.5,-19.5 968.5,-19.5 968.5,-0.5 899.5,-0.5"/>
<text text-anchor="middle" x="934" y="-7.5" font-family="Helvetica,sans-Serif" font-size="10.00">arpa/inet.h</text>
</a>
</g>
</g>
<!-- Node26&#45;&gt;Node27 -->
<g id="edge29" class="edge">
<title>Node26&#45;&gt;Node27</title>
<path fill="none" stroke="midnightblue" d="M923.98,-56.08C925.57,-48.93 927.86,-38.64 929.85,-29.69"/>
<polygon fill="midnightblue" stroke="midnightblue" points="933.3,-30.27 932.06,-19.75 926.47,-28.75 933.3,-30.27"/>
</g>
<!-- Node28 -->
<g id="node28" class="node">
<title>Node28</title>
<g id="a_node28"><a xlink:title=" ">
<polygon fill="white" stroke="#bfbfbf" points="1051.5,-0.5 1051.5,-19.5 1098.5,-19.5 1098.5,-0.5 1051.5,-0.5"/>
<text text-anchor="middle" x="1075" y="-7.5" font-family="Helvetica,sans-Serif" font-size="10.00">cerrno</text>
</a>
</g>
</g>
<!-- Node26&#45;&gt;Node28 -->
<g id="edge31" class="edge">
<title>Node26&#45;&gt;Node28</title>
<path fill="none" stroke="midnightblue" d="M946.24,-56.44C972.02,-47.35 1012.96,-32.9 1041.74,-22.74"/>
<polygon fill="midnightblue" stroke="midnightblue" points="1043.11,-25.97 1051.37,-19.34 1040.78,-19.37 1043.11,-25.97"/>
</g>
<!-- Node29 -->
<g id="node29" class="node">
<title>Node29</title>
<g id="a_node29"><a xlink:title=" ">
<polygon fill="white" stroke="#bfbfbf" points="831,-0.5 831,-19.5 881,-19.5 881,-0.5 831,-0.5"/>
<text text-anchor="middle" x="856" y="-7.5" font-family="Helvetica,sans-Serif" font-size="10.00">cstring</text>
</a>
</g>
</g>
<!-- Node26&#45;&gt;Node29 -->
<g id="edge32" class="edge">
<title>Node26&#45;&gt;Node29</title>
<path fill="none" stroke="midnightblue" d="M911.4,-56.32C901.54,-48.26 886.65,-36.08 874.78,-26.37"/>
<polygon fill="midnightblue" stroke="midnightblue" points="876.75,-23.46 866.8,-19.83 872.32,-28.88 876.75,-23.46"/>
</g>
<!-- Node30&#45;&gt;Node5 -->
<g id="edge42" class="edge">
<title>Node30&#45;&gt;Node5</title>
<path fill="none" stroke="midnightblue" d="M772.46,-57.28C822.46,-49.59 900.03,-36.81 976.47,-19.94"/>
<polygon fill="midnightblue" stroke="midnightblue" points="977.27,-23.35 986.27,-17.75 975.75,-16.52 977.27,-23.35"/>
</g>
<!-- Node30&#45;&gt;Node15 -->
<g id="edge41" class="edge">
<title>Node30&#45;&gt;Node15</title>
<path fill="none" stroke="midnightblue" d="M679.27,-56.42C640.47,-48.14 580.19,-34.99 519.04,-20.18"/>
<polygon fill="midnightblue" stroke="midnightblue" points="519.77,-16.76 509.22,-17.8 518.11,-23.56 519.77,-16.76"/>
</g>
<!-- Node30&#45;&gt;Node22 -->
<g id="edge40" class="edge">
<title>Node30&#45;&gt;Node22</title>
<path fill="none" stroke="midnightblue" d="M730.93,-56.32C741.17,-48.18 756.72,-35.84 769,-26.09"/>
<polygon fill="midnightblue" stroke="midnightblue" points="771.22,-28.79 776.88,-19.83 766.87,-23.31 771.22,-28.79"/>
</g>
<!-- Node30&#45;&gt;Node23 -->
<g id="edge37" class="edge">
<title>Node30&#45;&gt;Node23</title>
<path fill="none" stroke="midnightblue" d="M719.17,-56.08C718.52,-49.01 717.58,-38.86 716.76,-29.99"/>
<polygon fill="midnightblue" stroke="midnightblue" points="720.22,-29.39 715.81,-19.75 713.25,-30.03 720.22,-29.39"/>
</g>
<!-- Node30&#45;&gt;Node29 -->
<g id="edge39" class="edge">
<title>Node30&#45;&gt;Node29</title>
<path fill="none" stroke="midnightblue" d="M741.55,-56.44C764.03,-47.52 799.49,-33.44 824.98,-23.32"/>
<polygon fill="midnightblue" stroke="midnightblue" points="826.55,-26.46 834.55,-19.52 823.97,-19.95 826.55,-26.46"/>
</g>
<!-- Node31 -->
<g id="node31" class="node">
<title>Node31</title>
<g id="a_node31"><a xlink:title=" ">
<polygon fill="white" stroke="#bfbfbf" points="601,-0.5 601,-19.5 667,-19.5 667,-0.5 601,-0.5"/>
<text text-anchor="middle" x="634" y="-7.5" font-family="Helvetica,sans-Serif" font-size="10.00">sys/ioctl.h</text>
</a>
</g>
</g>
<!-- Node30&#45;&gt;Node31 -->
<g id="edge36" class="edge">
<title>Node30&#45;&gt;Node31</title>
<path fill="none" stroke="midnightblue" d="M706.18,-56.32C692.77,-47.9 672.18,-34.97 656.41,-25.07"/>
<polygon fill="midnightblue" stroke="midnightblue" points="658.11,-22.01 647.78,-19.65 654.39,-27.94 658.11,-22.01"/>
</g>
<!-- Node32 -->
<g id="node32" class="node">
<title>Node32</title>
<g id="a_node32"><a xlink:title=" ">
<polygon fill="white" stroke="#bfbfbf" points="527,-0.5 527,-19.5 583,-19.5 583,-0.5 527,-0.5"/>
<text text-anchor="middle" x="555" y="-7.5" font-family="Helvetica,sans-Serif" font-size="10.00">iomanip</text>
</a>
</g>
</g>
<!-- Node30&#45;&gt;Node32 -->
<g id="edge38" class="edge">
<title>Node30&#45;&gt;Node32</title>
<path fill="none" stroke="midnightblue" d="M693.86,-56.44C665.98,-47.32 621.65,-32.81 590.6,-22.65"/>
<polygon fill="midnightblue" stroke="midnightblue" points="591.62,-19.3 581.02,-19.52 589.44,-25.95 591.62,-19.3"/>
</g>
<!-- Node36&#45;&gt;Node2 -->
<g id="edge47" class="edge">
<title>Node36&#45;&gt;Node2</title>
<path fill="none" stroke="midnightblue" d="M1577.44,-58.45C1572.61,-57.57 1567.68,-56.72 1563,-56 1430.41,-35.56 1392.42,-46.69 1257.15,-19.93"/>
<polygon fill="midnightblue" stroke="midnightblue" points="1257.74,-16.48 1247.24,-17.94 1256.35,-23.34 1257.74,-16.48"/>
</g>
<!-- Node36&#45;&gt;Node7 -->
<g id="edge49" class="edge">
<title>Node36&#45;&gt;Node7</title>
<path fill="none" stroke="midnightblue" d="M1577.41,-58.61C1572.58,-57.71 1567.67,-56.81 1563,-56 1464.67,-38.86 1436.87,-39.53 1334.87,-20.05"/>
<polygon fill="midnightblue" stroke="midnightblue" points="1335.25,-16.56 1324.76,-18.1 1333.92,-23.43 1335.25,-16.56"/>
</g>
<!-- Node36&#45;&gt;Node9 -->
<g id="edge48" class="edge">
<title>Node36&#45;&gt;Node9</title>
<path fill="none" stroke="midnightblue" d="M1642.74,-61.3C1695.99,-55.01 1804.77,-41.02 1906.47,-19.89"/>
<polygon fill="midnightblue" stroke="midnightblue" points="1907.22,-23.31 1916.29,-17.82 1905.78,-16.46 1907.22,-23.31"/>
</g>
<!-- Node36&#45;&gt;Node24 -->
<g id="edge55" class="edge">
<title>Node36&#45;&gt;Node24</title>
<path fill="none" stroke="midnightblue" d="M1577.19,-56.8C1540.02,-47.5 1479.24,-32.31 1437.97,-21.99"/>
<polygon fill="midnightblue" stroke="midnightblue" points="1438.74,-18.58 1428.19,-19.55 1437.04,-25.37 1438.74,-18.58"/>
</g>
<!-- Node37 -->
<g id="node37" class="node">
<title>Node37</title>
<g id="a_node37"><a xlink:title=" ">
<polygon fill="white" stroke="#bfbfbf" points="1661,-0.5 1661,-19.5 1729,-19.5 1729,-0.5 1661,-0.5"/>
<text text-anchor="middle" x="1695" y="-7.5" font-family="Helvetica,sans-Serif" font-size="10.00">filesystem</text>
</a>
</g>
</g>
<!-- Node36&#45;&gt;Node37 -->
<g id="edge50" class="edge">
<title>Node36&#45;&gt;Node37</title>
<path fill="none" stroke="midnightblue" d="M1623.66,-56.32C1636.92,-47.9 1657.27,-34.97 1672.85,-25.07"/>
<polygon fill="midnightblue" stroke="midnightblue" points="1674.81,-27.97 1681.38,-19.65 1671.06,-22.06 1674.81,-27.97"/>
</g>
<!-- Node38 -->
<g id="node38" class="node">
<title>Node38</title>
<g id="a_node38"><a xlink:title=" ">
<polygon fill="white" stroke="#bfbfbf" points="1747,-0.5 1747,-19.5 1827,-19.5 1827,-0.5 1747,-0.5"/>
<text text-anchor="middle" x="1787" y="-7.5" font-family="Helvetica,sans-Serif" font-size="10.00">SDL_image.h</text>
</a>
</g>
</g>
<!-- Node36&#45;&gt;Node38 -->
<g id="edge51" class="edge">
<title>Node36&#45;&gt;Node38</title>
<path fill="none" stroke="midnightblue" d="M1638.05,-56.44C1668.08,-47.28 1715.91,-32.69 1749.24,-22.52"/>
<polygon fill="midnightblue" stroke="midnightblue" points="1750.54,-25.78 1759.09,-19.52 1748.5,-19.09 1750.54,-25.78"/>
</g>
<!-- Node39 -->
<g id="node39" class="node">
<title>Node39</title>
<g id="a_node39"><a xlink:title=" ">
<polygon fill="white" stroke="#bfbfbf" points="1845.5,-0.5 1845.5,-19.5 1898.5,-19.5 1898.5,-0.5 1845.5,-0.5"/>
<text text-anchor="middle" x="1872" y="-7.5" font-family="Helvetica,sans-Serif" font-size="10.00">imgui.h</text>
</a>
</g>
</g>
<!-- Node36&#45;&gt;Node39 -->
<g id="edge52" class="edge">
<title>Node36&#45;&gt;Node39</title>
<path fill="none" stroke="midnightblue" d="M1642.66,-59.01C1684.81,-51.17 1760.62,-36.69 1835.25,-20.08"/>
<polygon fill="midnightblue" stroke="midnightblue" points="1836.3,-23.43 1845.3,-17.83 1834.77,-16.6 1836.3,-23.43"/>
</g>
<!-- Node40 -->
<g id="node40" class="node">
<title>Node40</title>
<g id="a_node40"><a xlink:title=" ">
<polygon fill="white" stroke="#bfbfbf" points="1463,-0.5 1463,-19.5 1559,-19.5 1559,-0.5 1463,-0.5"/>
<text text-anchor="middle" x="1511" y="-7.5" font-family="Helvetica,sans-Serif" font-size="10.00">imgui_internal.h</text>
</a>
</g>
</g>
<!-- Node36&#45;&gt;Node40 -->
<g id="edge53" class="edge">
<title>Node36&#45;&gt;Node40</title>
<path fill="none" stroke="midnightblue" d="M1594.09,-56.32C1578.36,-47.74 1554.06,-34.49 1535.79,-24.52"/>
<polygon fill="midnightblue" stroke="midnightblue" points="1537.32,-21.37 1526.87,-19.65 1533.97,-27.52 1537.32,-21.37"/>
</g>
<!-- Node41 -->
<g id="node41" class="node">
<title>Node41</title>
<g id="a_node41"><a xlink:title=" ">
<polygon fill="white" stroke="#bfbfbf" points="1577,-0.5 1577,-19.5 1643,-19.5 1643,-0.5 1577,-0.5"/>
<text text-anchor="middle" x="1610" y="-7.5" font-family="Helvetica,sans-Serif" font-size="10.00">libnpy.hpp</text>
</a>
</g>
</g>
<!-- Node36&#45;&gt;Node41 -->
<g id="edge54" class="edge">
<title>Node36&#45;&gt;Node41</title>
<path fill="none" stroke="midnightblue" d="M1610,-56.08C1610,-49.01 1610,-38.86 1610,-29.99"/>
<polygon fill="midnightblue" stroke="midnightblue" points="1613.5,-29.75 1610,-19.75 1606.5,-29.75 1613.5,-29.75"/>
</g>
<!-- Node42&#45;&gt;Node9 -->
<g id="edge57" class="edge">
<title>Node42&#45;&gt;Node9</title>
<path fill="none" stroke="midnightblue" d="M1940,-56.08C1940,-49.01 1940,-38.86 1940,-29.99"/>
<polygon fill="midnightblue" stroke="midnightblue" points="1943.5,-29.75 1940,-19.75 1936.5,-29.75 1943.5,-29.75"/>
</g>
<!-- Node42&#45;&gt;Node22 -->
<g id="edge58" class="edge">
<title>Node42&#45;&gt;Node22</title>
<path fill="none" stroke="midnightblue" d="M1907.73,-63.9C1736.49,-58.04 937.81,-30.39 823.07,-19.46"/>
<polygon fill="midnightblue" stroke="midnightblue" points="823.46,-15.98 813.12,-18.3 822.65,-22.94 823.46,-15.98"/>
</g>
<!-- Node43 -->
<g id="node43" class="node">
<title>Node43</title>
<g id="a_node43"><a xlink:title=" ">
<polygon fill="white" stroke="#bfbfbf" points="1982,-0.5 1982,-19.5 2024,-19.5 2024,-0.5 1982,-0.5"/>
<text text-anchor="middle" x="2003" y="-7.5" font-family="Helvetica,sans-Serif" font-size="10.00">array</text>
</a>
</g>
</g>
<!-- Node42&#45;&gt;Node43 -->
<g id="edge59" class="edge">
<title>Node42&#45;&gt;Node43</title>
<path fill="none" stroke="midnightblue" d="M1950.12,-56.32C1959.53,-48.26 1973.74,-36.08 1985.07,-26.37"/>
<polygon fill="midnightblue" stroke="midnightblue" points="1987.38,-29 1992.69,-19.83 1982.82,-23.68 1987.38,-29"/>
</g>
<!-- Node44 -->
<g id="node44" class="node">
<title>Node44</title>
<g id="a_node44"><a xlink:title=" ">
<polygon fill="white" stroke="#bfbfbf" points="2042.5,-0.5 2042.5,-19.5 2095.5,-19.5 2095.5,-0.5 2042.5,-0.5"/>
<text text-anchor="middle" x="2069" y="-7.5" font-family="Helvetica,sans-Serif" font-size="10.00">stdlib.h</text>
</a>
</g>
</g>
<!-- Node42&#45;&gt;Node44 -->
<g id="edge60" class="edge">
<title>Node42&#45;&gt;Node44</title>
<path fill="none" stroke="midnightblue" d="M1960.44,-56.44C1981.67,-47.56 2015.1,-33.56 2039.25,-23.45"/>
<polygon fill="midnightblue" stroke="midnightblue" points="2040.78,-26.61 2048.66,-19.52 2038.08,-20.15 2040.78,-26.61"/>
</g>
</g>
</svg>
