<?xml version="1.0" encoding="UTF-8" standalone="no"?>
<!DOCTYPE svg PUBLIC "-//W3C//DTD SVG 1.1//EN"
 "http://www.w3.org/Graphics/SVG/1.1/DTD/svg11.dtd">
<!-- Generated by graphviz version 2.43.0 (0)
 -->
<!-- Title: src/main.cpp Pages: 1 -->
<svg width="2041pt" height="196pt"
 viewBox="0.00 0.00 2040.50 196.00" xmlns="http://www.w3.org/2000/svg" xmlns:xlink="http://www.w3.org/1999/xlink">
<g id="graph0" class="graph" transform="scale(1 1) rotate(0) translate(4 192)">
<title>src/main.cpp</title>
<polygon fill="white" stroke="transparent" points="-4,4 -4,-192 2036.5,-192 2036.5,4 -4,4"/>
<!-- Node1 -->
<g id="node1" class="node">
<title>Node1</title>
<g id="a_node1"><a xlink:title=" ">
<polygon fill="#bfbfbf" stroke="black" points="1053.5,-168.5 1053.5,-187.5 1132.5,-187.5 1132.5,-168.5 1053.5,-168.5"/>
<text text-anchor="middle" x="1093" y="-175.5" font-family="Helvetica,sans-Serif" font-size="10.00">src/main.cpp</text>
</a>
</g>
</g>
<!-- Node2 -->
<g id="node2" class="node">
<title>Node2</title>
<g id="a_node2"><a xlink:href="../../de/dfc/Ricom_8h.html" target="_top" xlink:title=" ">
<polygon fill="white" stroke="black" points="1037,-112.5 1037,-131.5 1093,-131.5 1093,-112.5 1037,-112.5"/>
<text text-anchor="middle" x="1065" y="-119.5" font-family="Helvetica,sans-Serif" font-size="10.00">Ricom.h</text>
</a>
</g>
</g>
<!-- Node1&#45;&gt;Node2 -->
<g id="edge1" class="edge">
<title>Node1&#45;&gt;Node2</title>
<path fill="none" stroke="midnightblue" d="M1088.38,-168.08C1084.54,-160.69 1078.98,-149.95 1074.24,-140.81"/>
<polygon fill="midnightblue" stroke="midnightblue" points="1077.25,-139.02 1069.54,-131.75 1071.03,-142.24 1077.25,-139.02"/>
</g>
<!-- Node34 -->
<g id="node34" class="node">
<title>Node34</title>
<g id="a_node34"><a xlink:href="../../dd/de4/Camera_8h.html" target="_top" xlink:title=" ">
<polygon fill="white" stroke="black" points="1790,-56.5 1790,-75.5 1854,-75.5 1854,-56.5 1790,-56.5"/>
<text text-anchor="middle" x="1822" y="-63.5" font-family="Helvetica,sans-Serif" font-size="10.00">Camera.h</text>
</a>
</g>
</g>
<!-- Node1&#45;&gt;Node34 -->
<g id="edge58" class="edge">
<title>Node1&#45;&gt;Node34</title>
<path fill="none" stroke="midnightblue" d="M1132.71,-171.01C1258.99,-151.95 1650.55,-92.87 1779.99,-73.34"/>
<polygon fill="midnightblue" stroke="midnightblue" points="1780.55,-76.79 1789.92,-71.84 1779.51,-69.87 1780.55,-76.79"/>
</g>
<!-- Node3 -->
<g id="node3" class="node">
<title>Node3</title>
<g id="a_node3"><a xlink:title=" ">
<polygon fill="white" stroke="#bfbfbf" points="637,-0.5 637,-19.5 693,-19.5 693,-0.5 637,-0.5"/>
<text text-anchor="middle" x="665" y="-7.5" font-family="Helvetica,sans-Serif" font-size="10.00">unistd.h</text>
</a>
</g>
</g>
<!-- Node2&#45;&gt;Node3 -->
<g id="edge2" class="edge">
<title>Node2&#45;&gt;Node3</title>
<path fill="none" stroke="midnightblue" d="M1036.9,-121.33C981.05,-121.05 853.04,-115.71 755,-76 726.44,-64.43 698.46,-41.97 681.47,-26.73"/>
<polygon fill="midnightblue" stroke="midnightblue" points="683.78,-24.1 674.05,-19.9 679.04,-29.25 683.78,-24.1"/>
</g>
<!-- Node4 -->
<g id="node4" class="node">
<title>Node4</title>
<g id="a_node4"><a xlink:title=" ">
<polygon fill="white" stroke="#bfbfbf" points="779.5,-0.5 779.5,-19.5 826.5,-19.5 826.5,-0.5 779.5,-0.5"/>
<text text-anchor="middle" x="803" y="-7.5" font-family="Helvetica,sans-Serif" font-size="10.00">cmath</text>
</a>
</g>
</g>
<!-- Node2&#45;&gt;Node4 -->
<g id="edge3" class="edge">
<title>Node2&#45;&gt;Node4</title>
<path fill="none" stroke="midnightblue" d="M1036.74,-118.72C998.22,-114.66 927.97,-103.81 875,-76 851.82,-63.83 830.23,-42.46 816.86,-27.56"/>
<polygon fill="midnightblue" stroke="midnightblue" points="819.19,-24.91 809.99,-19.66 813.91,-29.5 819.19,-24.91"/>
</g>
<!-- Node5 -->
<g id="node5" class="node">
<title>Node5</title>
<g id="a_node5"><a xlink:title=" ">
<polygon fill="white" stroke="#bfbfbf" points="1566,-56.5 1566,-75.5 1616,-75.5 1616,-56.5 1566,-56.5"/>
<text text-anchor="middle" x="1591" y="-63.5" font-family="Helvetica,sans-Serif" font-size="10.00">stdio.h</text>
</a>
</g>
</g>
<!-- Node2&#45;&gt;Node5 -->
<g id="edge4" class="edge">
<title>Node2&#45;&gt;Node5</title>
<path fill="none" stroke="midnightblue" d="M1093.23,-120.07C1167.54,-117.28 1374.7,-107.25 1555.88,-75.91"/>
<polygon fill="midnightblue" stroke="midnightblue" points="1556.61,-79.34 1565.85,-74.16 1555.4,-72.44 1556.61,-79.34"/>
</g>
<!-- Node6 -->
<g id="node6" class="node">
<title>Node6</title>
<g id="a_node6"><a xlink:title=" ">
<polygon fill="white" stroke="#bfbfbf" points="1201.5,-0.5 1201.5,-19.5 1260.5,-19.5 1260.5,-0.5 1201.5,-0.5"/>
<text text-anchor="middle" x="1231" y="-7.5" font-family="Helvetica,sans-Serif" font-size="10.00">complex</text>
</a>
</g>
</g>
<!-- Node2&#45;&gt;Node6 -->
<g id="edge5" class="edge">
<title>Node2&#45;&gt;Node6</title>
<path fill="none" stroke="midnightblue" d="M1093.01,-121.68C1165.7,-122.77 1357.49,-121.23 1397,-76 1402.85,-69.31 1402.4,-63.06 1397,-56 1393.06,-50.85 1318.09,-31.98 1270.26,-20.38"/>
<polygon fill="midnightblue" stroke="midnightblue" points="1271.04,-16.96 1260.5,-18.02 1269.4,-23.77 1271.04,-16.96"/>
</g>
<!-- Node7 -->
<g id="node7" class="node">
<title>Node7</title>
<g id="a_node7"><a xlink:title=" ">
<polygon fill="white" stroke="#bfbfbf" points="1672,-56.5 1672,-75.5 1716,-75.5 1716,-56.5 1672,-56.5"/>
<text text-anchor="middle" x="1694" y="-63.5" font-family="Helvetica,sans-Serif" font-size="10.00">cfloat</text>
</a>
</g>
</g>
<!-- Node2&#45;&gt;Node7 -->
<g id="edge6" class="edge">
<title>Node2&#45;&gt;Node7</title>
<path fill="none" stroke="midnightblue" d="M1093.29,-120.55C1178.92,-118.82 1442.69,-110.83 1658,-76 1659.25,-75.8 1660.52,-75.57 1661.81,-75.33"/>
<polygon fill="midnightblue" stroke="midnightblue" points="1662.61,-78.74 1671.65,-73.21 1661.14,-71.89 1662.61,-78.74"/>
</g>
<!-- Node8 -->
<g id="node8" class="node">
<title>Node8</title>
<g id="a_node8"><a xlink:title=" ">
<polygon fill="white" stroke="#bfbfbf" points="1853.5,-0.5 1853.5,-19.5 1900.5,-19.5 1900.5,-0.5 1853.5,-0.5"/>
<text text-anchor="middle" x="1877" y="-7.5" font-family="Helvetica,sans-Serif" font-size="10.00">vector</text>
</a>
</g>
</g>
<!-- Node2&#45;&gt;Node8 -->
<g id="edge7" class="edge">
<title>Node2&#45;&gt;Node8</title>
<path fill="none" stroke="midnightblue" d="M1093.3,-120.23C1192.42,-117.29 1523.48,-105.45 1625,-76 1643.33,-70.68 1645.01,-62.37 1663,-56 1737.29,-29.69 1762.22,-38.06 1843.11,-20.02"/>
<polygon fill="midnightblue" stroke="midnightblue" points="1844.3,-23.34 1853.26,-17.69 1842.73,-16.52 1844.3,-23.34"/>
</g>
<!-- Node9 -->
<g id="node9" class="node">
<title>Node9</title>
<g id="a_node9"><a xlink:title=" ">
<polygon fill="white" stroke="#bfbfbf" points="1139,-0.5 1139,-19.5 1183,-19.5 1183,-0.5 1139,-0.5"/>
<text text-anchor="middle" x="1161" y="-7.5" font-family="Helvetica,sans-Serif" font-size="10.00">string</text>
</a>
</g>
</g>
<!-- Node2&#45;&gt;Node9 -->
<g id="edge8" class="edge">
<title>Node2&#45;&gt;Node9</title>
<path fill="none" stroke="midnightblue" d="M1072.53,-112.37C1088.52,-94.05 1126.05,-51.05 1146.72,-27.36"/>
<polygon fill="midnightblue" stroke="midnightblue" points="1149.56,-29.43 1153.5,-19.59 1144.29,-24.82 1149.56,-29.43"/>
</g>
<!-- Node10 -->
<g id="node10" class="node">
<title>Node10</title>
<g id="a_node10"><a xlink:title=" ">
<polygon fill="white" stroke="#bfbfbf" points="368,-56.5 368,-75.5 412,-75.5 412,-56.5 368,-56.5"/>
<text text-anchor="middle" x="390" y="-63.5" font-family="Helvetica,sans-Serif" font-size="10.00">SDL.h</text>
</a>
</g>
</g>
<!-- Node2&#45;&gt;Node10 -->
<g id="edge9" class="edge">
<title>Node2&#45;&gt;Node10</title>
<path fill="none" stroke="midnightblue" d="M1036.77,-120.77C946.96,-119.65 659.94,-113.19 426,-76 424.75,-75.8 423.47,-75.58 422.19,-75.34"/>
<polygon fill="midnightblue" stroke="midnightblue" points="422.86,-71.9 412.34,-73.23 421.39,-78.75 422.86,-71.9"/>
</g>
<!-- Node11 -->
<g id="node11" class="node">
<title>Node11</title>
<g id="a_node11"><a xlink:title=" ">
<polygon fill="white" stroke="#bfbfbf" points="0,-0.5 0,-19.5 48,-19.5 48,-0.5 0,-0.5"/>
<text text-anchor="middle" x="24" y="-7.5" font-family="Helvetica,sans-Serif" font-size="10.00">mutex</text>
</a>
</g>
</g>
<!-- Node2&#45;&gt;Node11 -->
<g id="edge10" class="edge">
<title>Node2&#45;&gt;Node11</title>
<path fill="none" stroke="midnightblue" d="M1036.65,-120.62C907.06,-118.71 370.37,-108.92 206,-76 149.56,-64.69 87.03,-39.35 51.92,-23.86"/>
<polygon fill="midnightblue" stroke="midnightblue" points="52.91,-20.47 42.35,-19.58 50.05,-26.86 52.91,-20.47"/>
</g>
<!-- Node12 -->
<g id="node12" class="node">
<title>Node12</title>
<g id="a_node12"><a xlink:title=" ">
<polygon fill="white" stroke="#bfbfbf" points="468,-56.5 468,-75.5 514,-75.5 514,-56.5 468,-56.5"/>
<text text-anchor="middle" x="491" y="-63.5" font-family="Helvetica,sans-Serif" font-size="10.00">future</text>
</a>
</g>
</g>
<!-- Node2&#45;&gt;Node12 -->
<g id="edge11" class="edge">
<title>Node2&#45;&gt;Node12</title>
<path fill="none" stroke="midnightblue" d="M1036.89,-120.47C957.68,-118.61 725.85,-110.53 524.2,-75.66"/>
<polygon fill="midnightblue" stroke="midnightblue" points="524.77,-72.21 514.32,-73.93 523.56,-79.1 524.77,-72.21"/>
</g>
<!-- Node13 -->
<g id="node13" class="node">
<title>Node13</title>
<g id="a_node13"><a xlink:title=" ">
<polygon fill="white" stroke="#bfbfbf" points="340,-0.5 340,-19.5 388,-19.5 388,-0.5 340,-0.5"/>
<text text-anchor="middle" x="364" y="-7.5" font-family="Helvetica,sans-Serif" font-size="10.00">thread</text>
</a>
</g>
</g>
<!-- Node2&#45;&gt;Node13 -->
<g id="edge12" class="edge">
<title>Node2&#45;&gt;Node13</title>
<path fill="none" stroke="midnightblue" d="M1036.8,-120.84C932.33,-119.95 567.77,-114.12 459,-76 442.86,-70.34 405.85,-43.2 383.08,-25.83"/>
<polygon fill="midnightblue" stroke="midnightblue" points="385.18,-23.03 375.12,-19.71 380.92,-28.58 385.18,-23.03"/>
</g>
<!-- Node14 -->
<g id="node14" class="node">
<title>Node14</title>
<g id="a_node14"><a xlink:title=" ">
<polygon fill="white" stroke="#bfbfbf" points="658,-56.5 658,-75.5 708,-75.5 708,-56.5 658,-56.5"/>
<text text-anchor="middle" x="683" y="-63.5" font-family="Helvetica,sans-Serif" font-size="10.00">fftw3.h</text>
</a>
</g>
</g>
<!-- Node2&#45;&gt;Node14 -->
<g id="edge13" class="edge">
<title>Node2&#45;&gt;Node14</title>
<path fill="none" stroke="midnightblue" d="M1036.85,-118.24C978.07,-112.26 838.14,-96.97 722,-76 720.73,-75.77 719.44,-75.53 718.14,-75.27"/>
<polygon fill="midnightblue" stroke="midnightblue" points="718.61,-71.8 708.1,-73.17 717.17,-78.65 718.61,-71.8"/>
</g>
<!-- Node15 -->
<g id="node15" class="node">
<title>Node15</title>
<g id="a_node15"><a xlink:title=" ">
<polygon fill="white" stroke="#bfbfbf" points="1071,-0.5 1071,-19.5 1121,-19.5 1121,-0.5 1071,-0.5"/>
<text text-anchor="middle" x="1096" y="-7.5" font-family="Helvetica,sans-Serif" font-size="10.00">chrono</text>
</a>
</g>
</g>
<!-- Node2&#45;&gt;Node15 -->
<g id="edge14" class="edge">
<title>Node2&#45;&gt;Node15</title>
<path fill="none" stroke="midnightblue" d="M1067.43,-112.37C1072.46,-94.54 1084.08,-53.3 1090.85,-29.27"/>
<polygon fill="midnightblue" stroke="midnightblue" points="1094.23,-30.17 1093.58,-19.59 1087.5,-28.27 1094.23,-30.17"/>
</g>
<!-- Node16 -->
<g id="node16" class="node">
<title>Node16</title>
<g id="a_node16"><a xlink:title=" ">
<polygon fill="white" stroke="#bfbfbf" points="764,-56.5 764,-75.5 828,-75.5 828,-56.5 764,-56.5"/>
<text text-anchor="middle" x="796" y="-63.5" font-family="Helvetica,sans-Serif" font-size="10.00">algorithm</text>
</a>
</g>
</g>
<!-- Node2&#45;&gt;Node16 -->
<g id="edge15" class="edge">
<title>Node2&#45;&gt;Node16</title>
<path fill="none" stroke="midnightblue" d="M1036.97,-115.37C989.59,-105.86 893.42,-86.56 837.97,-75.43"/>
<polygon fill="midnightblue" stroke="midnightblue" points="838.61,-71.98 828.11,-73.45 837.23,-78.85 838.61,-71.98"/>
</g>
<!-- Node17 -->
<g id="node17" class="node">
<title>Node17</title>
<g id="a_node17"><a xlink:href="../../d7/d50/BoundedThreadPool_8hpp.html" target="_top" xlink:title=" ">
<polygon fill="white" stroke="black" points="214.5,-56.5 214.5,-75.5 349.5,-75.5 349.5,-56.5 214.5,-56.5"/>
<text text-anchor="middle" x="282" y="-63.5" font-family="Helvetica,sans-Serif" font-size="10.00">BoundedThreadPool.hpp</text>
</a>
</g>
</g>
<!-- Node2&#45;&gt;Node17 -->
<g id="edge16" class="edge">
<title>Node2&#45;&gt;Node17</title>
<path fill="none" stroke="midnightblue" d="M1036.71,-119.73C942.37,-115.4 629.75,-100.11 359.58,-76"/>
<polygon fill="midnightblue" stroke="midnightblue" points="359.86,-72.51 349.59,-75.1 359.23,-79.48 359.86,-72.51"/>
</g>
<!-- Node23 -->
<g id="node23" class="node">
<title>Node23</title>
<g id="a_node23"><a xlink:title=" ">
<polygon fill="white" stroke="#bfbfbf" points="1279,-0.5 1279,-19.5 1381,-19.5 1381,-0.5 1279,-0.5"/>
<text text-anchor="middle" x="1330" y="-7.5" font-family="Helvetica,sans-Serif" font-size="10.00">tinycolormap.hpp</text>
</a>
</g>
</g>
<!-- Node2&#45;&gt;Node23 -->
<g id="edge24" class="edge">
<title>Node2&#45;&gt;Node23</title>
<path fill="none" stroke="midnightblue" d="M1093.19,-119.46C1172.29,-114.84 1391.93,-99.96 1413,-76 1431.86,-54.54 1396.86,-35.08 1366.67,-23.17"/>
<polygon fill="midnightblue" stroke="midnightblue" points="1367.7,-19.81 1357.11,-19.57 1365.24,-26.37 1367.7,-19.81"/>
</g>
<!-- Node24 -->
<g id="node24" class="node">
<title>Node24</title>
<g id="a_node24"><a xlink:title=" ">
<polygon fill="white" stroke="#bfbfbf" points="1006,-56.5 1006,-75.5 1066,-75.5 1066,-56.5 1006,-56.5"/>
<text text-anchor="middle" x="1036" y="-63.5" font-family="Helvetica,sans-Serif" font-size="10.00">fft2d.hpp</text>
</a>
</g>
</g>
<!-- Node2&#45;&gt;Node24 -->
<g id="edge25" class="edge">
<title>Node2&#45;&gt;Node24</title>
<path fill="none" stroke="midnightblue" d="M1060.21,-112.08C1056.24,-104.69 1050.47,-93.95 1045.57,-84.81"/>
<polygon fill="midnightblue" stroke="midnightblue" points="1048.51,-82.91 1040.7,-75.75 1042.35,-86.22 1048.51,-82.91"/>
</g>
<!-- Node25 -->
<g id="node25" class="node">
<title>Node25</title>
<g id="a_node25"><a xlink:href="../../d0/d3c/SocketConnector_8h.html" target="_top" xlink:title=" ">
<polygon fill="white" stroke="black" points="532.5,-56.5 532.5,-75.5 639.5,-75.5 639.5,-56.5 532.5,-56.5"/>
<text text-anchor="middle" x="586" y="-63.5" font-family="Helvetica,sans-Serif" font-size="10.00">SocketConnector.h</text>
</a>
</g>
</g>
<!-- Node2&#45;&gt;Node25 -->
<g id="edge26" class="edge">
<title>Node2&#45;&gt;Node25</title>
<path fill="none" stroke="midnightblue" d="M1036.71,-118.28C970.88,-111.87 802.06,-95.01 649.62,-76.04"/>
<polygon fill="midnightblue" stroke="midnightblue" points="649.96,-72.55 639.6,-74.78 649.09,-79.5 649.96,-72.55"/>
</g>
<!-- Node29 -->
<g id="node29" class="node">
<title>Node29</title>
<g id="a_node29"><a xlink:href="../../da/dce/ProgressMonitor_8h.html" target="_top" xlink:title=" ">
<polygon fill="white" stroke="black" points="884,-56.5 884,-75.5 988,-75.5 988,-56.5 884,-56.5"/>
<text text-anchor="middle" x="936" y="-63.5" font-family="Helvetica,sans-Serif" font-size="10.00">ProgressMonitor.h</text>
</a>
</g>
</g>
<!-- Node2&#45;&gt;Node29 -->
<g id="edge33" class="edge">
<title>Node2&#45;&gt;Node29</title>
<path fill="none" stroke="midnightblue" d="M1044.56,-112.44C1023.33,-103.56 989.9,-89.56 965.75,-79.45"/>
<polygon fill="midnightblue" stroke="midnightblue" points="966.92,-76.15 956.34,-75.52 964.22,-82.61 966.92,-76.15"/>
</g>
<!-- Node32 -->
<g id="node32" class="node">
<title>Node32</title>
<g id="a_node32"><a xlink:title=" ">
<polygon fill="white" stroke="#bfbfbf" points="1160,-56.5 1160,-75.5 1260,-75.5 1260,-56.5 1160,-56.5"/>
<text text-anchor="middle" x="1210" y="-63.5" font-family="Helvetica,sans-Serif" font-size="10.00">MerlinInterface.h</text>
</a>
</g>
</g>
<!-- Node2&#45;&gt;Node32 -->
<g id="edge41" class="edge">
<title>Node2&#45;&gt;Node32</title>
<path fill="none" stroke="midnightblue" d="M1087.98,-112.44C1112.16,-103.44 1150.42,-89.19 1177.65,-79.05"/>
<polygon fill="midnightblue" stroke="midnightblue" points="1178.98,-82.29 1187.13,-75.52 1176.54,-75.73 1178.98,-82.29"/>
</g>
<!-- Node33 -->
<g id="node33" class="node">
<title>Node33</title>
<g id="a_node33"><a xlink:title=" ">
<polygon fill="white" stroke="#bfbfbf" points="1278.5,-56.5 1278.5,-75.5 1387.5,-75.5 1387.5,-56.5 1278.5,-56.5"/>
<text text-anchor="middle" x="1333" y="-63.5" font-family="Helvetica,sans-Serif" font-size="10.00">TimepixInterface.h</text>
</a>
</g>
</g>
<!-- Node2&#45;&gt;Node33 -->
<g id="edge42" class="edge">
<title>Node2&#45;&gt;Node33</title>
<path fill="none" stroke="midnightblue" d="M1093.17,-115.32C1137.58,-106.38 1224.56,-88.85 1280.66,-77.55"/>
<polygon fill="midnightblue" stroke="midnightblue" points="1281.65,-80.92 1290.76,-75.51 1280.27,-74.05 1281.65,-80.92"/>
</g>
<!-- Node2&#45;&gt;Node34 -->
<g id="edge43" class="edge">
<title>Node2&#45;&gt;Node34</title>
<path fill="none" stroke="midnightblue" d="M1093,-119.34C1184.1,-113.87 1480.3,-95.69 1725,-76 1742.87,-74.56 1762.57,-72.77 1779.52,-71.17"/>
<polygon fill="midnightblue" stroke="midnightblue" points="1780.06,-74.63 1789.68,-70.2 1779.4,-67.66 1780.06,-74.63"/>
</g>
<!-- Node37 -->
<g id="node37" class="node">
<title>Node37</title>
<g id="a_node37"><a xlink:href="../../d7/db2/GuiUtils_8h.html" target="_top" xlink:title=" ">
<polygon fill="white" stroke="black" points="1482.5,-56.5 1482.5,-75.5 1547.5,-75.5 1547.5,-56.5 1482.5,-56.5"/>
<text text-anchor="middle" x="1515" y="-63.5" font-family="Helvetica,sans-Serif" font-size="10.00">GuiUtils.h</text>
</a>
</g>
</g>
<!-- Node2&#45;&gt;Node37 -->
<g id="edge48" class="edge">
<title>Node2&#45;&gt;Node37</title>
<path fill="none" stroke="midnightblue" d="M1093.44,-118.59C1159.44,-112.84 1328.09,-97.17 1468,-76 1469.46,-75.78 1470.95,-75.54 1472.45,-75.3"/>
<polygon fill="midnightblue" stroke="midnightblue" points="1473.18,-78.73 1482.44,-73.58 1471.99,-71.83 1473.18,-78.73"/>
</g>
<!-- Node17&#45;&gt;Node11 -->
<g id="edge20" class="edge">
<title>Node17&#45;&gt;Node11</title>
<path fill="none" stroke="midnightblue" d="M234.39,-56.46C190.85,-48.43 124.46,-35.64 57.92,-20.09"/>
<polygon fill="midnightblue" stroke="midnightblue" points="58.64,-16.67 48.1,-17.78 57.03,-23.48 58.64,-16.67"/>
</g>
<!-- Node17&#45;&gt;Node13 -->
<g id="edge17" class="edge">
<title>Node17&#45;&gt;Node13</title>
<path fill="none" stroke="midnightblue" d="M295.17,-56.32C307.85,-47.98 327.23,-35.21 342.21,-25.35"/>
<polygon fill="midnightblue" stroke="midnightblue" points="344.43,-28.08 350.86,-19.65 340.58,-22.23 344.43,-28.08"/>
</g>
<!-- Node18 -->
<g id="node18" class="node">
<title>Node18</title>
<g id="a_node18"><a xlink:title=" ">
<polygon fill="white" stroke="#bfbfbf" points="274.5,-0.5 274.5,-19.5 321.5,-19.5 321.5,-0.5 274.5,-0.5"/>
<text text-anchor="middle" x="298" y="-7.5" font-family="Helvetica,sans-Serif" font-size="10.00">queue</text>
</a>
</g>
</g>
<!-- Node17&#45;&gt;Node18 -->
<g id="edge18" class="edge">
<title>Node17&#45;&gt;Node18</title>
<path fill="none" stroke="midnightblue" d="M284.64,-56.08C286.79,-48.85 289.88,-38.41 292.55,-29.4"/>
<polygon fill="midnightblue" stroke="midnightblue" points="295.92,-30.33 295.41,-19.75 289.21,-28.34 295.92,-30.33"/>
</g>
<!-- Node19 -->
<g id="node19" class="node">
<title>Node19</title>
<g id="a_node19"><a xlink:title=" ">
<polygon fill="white" stroke="#bfbfbf" points="66.5,-0.5 66.5,-19.5 131.5,-19.5 131.5,-0.5 66.5,-0.5"/>
<text text-anchor="middle" x="99" y="-7.5" font-family="Helvetica,sans-Serif" font-size="10.00">functional</text>
</a>
</g>
</g>
<!-- Node17&#45;&gt;Node19 -->
<g id="edge19" class="edge">
<title>Node17&#45;&gt;Node19</title>
<path fill="none" stroke="midnightblue" d="M253,-56.44C221.82,-47.24 172.07,-32.56 137.59,-22.39"/>
<polygon fill="midnightblue" stroke="midnightblue" points="138.44,-18.99 127.86,-19.52 136.46,-25.7 138.44,-18.99"/>
</g>
<!-- Node20 -->
<g id="node20" class="node">
<title>Node20</title>
<g id="a_node20"><a xlink:title=" ">
<polygon fill="white" stroke="#bfbfbf" points="149.5,-0.5 149.5,-19.5 256.5,-19.5 256.5,-0.5 149.5,-0.5"/>
<text text-anchor="middle" x="203" y="-7.5" font-family="Helvetica,sans-Serif" font-size="10.00">condition_variable</text>
</a>
</g>
</g>
<!-- Node17&#45;&gt;Node20 -->
<g id="edge21" class="edge">
<title>Node17&#45;&gt;Node20</title>
<path fill="none" stroke="midnightblue" d="M269.31,-56.32C257.1,-47.98 238.42,-35.21 224,-25.35"/>
<polygon fill="midnightblue" stroke="midnightblue" points="225.89,-22.41 215.66,-19.65 221.94,-28.19 225.89,-22.41"/>
</g>
<!-- Node21 -->
<g id="node21" class="node">
<title>Node21</title>
<g id="a_node21"><a xlink:title=" ">
<polygon fill="white" stroke="#bfbfbf" points="929,-0.5 929,-19.5 979,-19.5 979,-0.5 929,-0.5"/>
<text text-anchor="middle" x="954" y="-7.5" font-family="Helvetica,sans-Serif" font-size="10.00">atomic</text>
</a>
</g>
</g>
<!-- Node17&#45;&gt;Node21 -->
<g id="edge22" class="edge">
<title>Node17&#45;&gt;Node21</title>
<path fill="none" stroke="midnightblue" d="M349.59,-56.9C352.77,-56.58 355.92,-56.28 359,-56 604.55,-33.79 671.64,-59.46 918.86,-19.86"/>
<polygon fill="midnightblue" stroke="midnightblue" points="919.56,-23.29 928.87,-18.24 918.44,-16.38 919.56,-23.29"/>
</g>
<!-- Node22 -->
<g id="node22" class="node">
<title>Node22</title>
<g id="a_node22"><a xlink:title=" ">
<polygon fill="white" stroke="#bfbfbf" points="406,-0.5 406,-19.5 466,-19.5 466,-0.5 406,-0.5"/>
<text text-anchor="middle" x="436" y="-7.5" font-family="Helvetica,sans-Serif" font-size="10.00">iostream</text>
</a>
</g>
</g>
<!-- Node17&#45;&gt;Node22 -->
<g id="edge23" class="edge">
<title>Node17&#45;&gt;Node22</title>
<path fill="none" stroke="midnightblue" d="M306.4,-56.44C332.2,-47.4 373.08,-33.06 402.02,-22.92"/>
<polygon fill="midnightblue" stroke="midnightblue" points="403.43,-26.13 411.71,-19.52 401.12,-19.52 403.43,-26.13"/>
</g>
<!-- Node25&#45;&gt;Node3 -->
<g id="edge28" class="edge">
<title>Node25&#45;&gt;Node3</title>
<path fill="none" stroke="midnightblue" d="M598.69,-56.32C610.9,-47.98 629.58,-35.21 644,-25.35"/>
<polygon fill="midnightblue" stroke="midnightblue" points="646.06,-28.19 652.34,-19.65 642.11,-22.41 646.06,-28.19"/>
</g>
<!-- Node25&#45;&gt;Node9 -->
<g id="edge31" class="edge">
<title>Node25&#45;&gt;Node9</title>
<path fill="none" stroke="midnightblue" d="M639.59,-57.1C642.77,-56.7 645.92,-56.33 649,-56 858.89,-33.18 917.28,-57.34 1128.91,-19.82"/>
<polygon fill="midnightblue" stroke="midnightblue" points="1129.56,-23.26 1138.78,-18.05 1128.32,-16.37 1129.56,-23.26"/>
</g>
<!-- Node25&#45;&gt;Node22 -->
<g id="edge32" class="edge">
<title>Node25&#45;&gt;Node22</title>
<path fill="none" stroke="midnightblue" d="M562.23,-56.44C537.11,-47.4 497.29,-33.06 469.1,-22.92"/>
<polygon fill="midnightblue" stroke="midnightblue" points="470.25,-19.61 459.66,-19.52 467.88,-26.2 470.25,-19.61"/>
</g>
<!-- Node26 -->
<g id="node26" class="node">
<title>Node26</title>
<g id="a_node26"><a xlink:title=" ">
<polygon fill="white" stroke="#bfbfbf" points="549.5,-0.5 549.5,-19.5 618.5,-19.5 618.5,-0.5 549.5,-0.5"/>
<text text-anchor="middle" x="584" y="-7.5" font-family="Helvetica,sans-Serif" font-size="10.00">arpa/inet.h</text>
</a>
</g>
</g>
<!-- Node25&#45;&gt;Node26 -->
<g id="edge27" class="edge">
<title>Node25&#45;&gt;Node26</title>
<path fill="none" stroke="midnightblue" d="M585.67,-56.08C585.41,-49.01 585.03,-38.86 584.7,-29.99"/>
<polygon fill="midnightblue" stroke="midnightblue" points="588.19,-29.61 584.32,-19.75 581.2,-29.87 588.19,-29.61"/>
</g>
<!-- Node27 -->
<g id="node27" class="node">
<title>Node27</title>
<g id="a_node27"><a xlink:title=" ">
<polygon fill="white" stroke="#bfbfbf" points="484.5,-0.5 484.5,-19.5 531.5,-19.5 531.5,-0.5 484.5,-0.5"/>
<text text-anchor="middle" x="508" y="-7.5" font-family="Helvetica,sans-Serif" font-size="10.00">cerrno</text>
</a>
</g>
</g>
<!-- Node25&#45;&gt;Node27 -->
<g id="edge29" class="edge">
<title>Node25&#45;&gt;Node27</title>
<path fill="none" stroke="midnightblue" d="M573.47,-56.32C561.41,-47.98 542.97,-35.21 528.73,-25.35"/>
<polygon fill="midnightblue" stroke="midnightblue" points="530.72,-22.47 520.5,-19.65 526.73,-28.22 530.72,-22.47"/>
</g>
<!-- Node28 -->
<g id="node28" class="node">
<title>Node28</title>
<g id="a_node28"><a xlink:title=" ">
<polygon fill="white" stroke="#bfbfbf" points="711,-0.5 711,-19.5 761,-19.5 761,-0.5 711,-0.5"/>
<text text-anchor="middle" x="736" y="-7.5" font-family="Helvetica,sans-Serif" font-size="10.00">cstring</text>
</a>
</g>
</g>
<!-- Node25&#45;&gt;Node28 -->
<g id="edge30" class="edge">
<title>Node25&#45;&gt;Node28</title>
<path fill="none" stroke="midnightblue" d="M609.77,-56.44C634.89,-47.4 674.71,-33.06 702.9,-22.92"/>
<polygon fill="midnightblue" stroke="midnightblue" points="704.12,-26.2 712.34,-19.52 701.75,-19.61 704.12,-26.2"/>
</g>
<!-- Node29&#45;&gt;Node4 -->
<g id="edge40" class="edge">
<title>Node29&#45;&gt;Node4</title>
<path fill="none" stroke="midnightblue" d="M914.93,-56.44C892.94,-47.52 858.27,-33.44 833.34,-23.32"/>
<polygon fill="midnightblue" stroke="midnightblue" points="834.56,-20.04 823.98,-19.52 831.92,-26.52 834.56,-20.04"/>
</g>
<!-- Node29&#45;&gt;Node15 -->
<g id="edge39" class="edge">
<title>Node29&#45;&gt;Node15</title>
<path fill="none" stroke="midnightblue" d="M961.35,-56.44C988.27,-47.36 1031,-32.94 1061.09,-22.78"/>
<polygon fill="midnightblue" stroke="midnightblue" points="1062.41,-26.03 1070.77,-19.52 1060.17,-19.4 1062.41,-26.03"/>
</g>
<!-- Node29&#45;&gt;Node21 -->
<g id="edge38" class="edge">
<title>Node29&#45;&gt;Node21</title>
<path fill="none" stroke="midnightblue" d="M938.97,-56.08C941.38,-48.85 944.86,-38.41 947.87,-29.4"/>
<polygon fill="midnightblue" stroke="midnightblue" points="951.24,-30.34 951.08,-19.75 944.6,-28.13 951.24,-30.34"/>
</g>
<!-- Node29&#45;&gt;Node22 -->
<g id="edge35" class="edge">
<title>Node29&#45;&gt;Node22</title>
<path fill="none" stroke="midnightblue" d="M883.6,-60.24C771.51,-50.01 515.41,-26.34 476,-20 475.9,-19.98 475.8,-19.97 475.7,-19.95"/>
<polygon fill="midnightblue" stroke="midnightblue" points="476.53,-16.55 466.06,-18.18 475.27,-23.43 476.53,-16.55"/>
</g>
<!-- Node29&#45;&gt;Node28 -->
<g id="edge37" class="edge">
<title>Node29&#45;&gt;Node28</title>
<path fill="none" stroke="midnightblue" d="M904.31,-56.44C868.06,-46.66 808.89,-30.68 771.22,-20.51"/>
<polygon fill="midnightblue" stroke="midnightblue" points="771.78,-17.03 761.21,-17.81 769.95,-23.79 771.78,-17.03"/>
</g>
<!-- Node30 -->
<g id="node30" class="node">
<title>Node30</title>
<g id="a_node30"><a xlink:title=" ">
<polygon fill="white" stroke="#bfbfbf" points="845,-0.5 845,-19.5 911,-19.5 911,-0.5 845,-0.5"/>
<text text-anchor="middle" x="878" y="-7.5" font-family="Helvetica,sans-Serif" font-size="10.00">sys/ioctl.h</text>
</a>
</g>
</g>
<!-- Node29&#45;&gt;Node30 -->
<g id="edge34" class="edge">
<title>Node29&#45;&gt;Node30</title>
<path fill="none" stroke="midnightblue" d="M926.68,-56.32C918.11,-48.34 905.19,-36.31 894.81,-26.65"/>
<polygon fill="midnightblue" stroke="midnightblue" points="897.19,-24.09 887.49,-19.83 892.42,-29.21 897.19,-24.09"/>
</g>
<!-- Node31 -->
<g id="node31" class="node">
<title>Node31</title>
<g id="a_node31"><a xlink:title=" ">
<polygon fill="white" stroke="#bfbfbf" points="997,-0.5 997,-19.5 1053,-19.5 1053,-0.5 997,-0.5"/>
<text text-anchor="middle" x="1025" y="-7.5" font-family="Helvetica,sans-Serif" font-size="10.00">iomanip</text>
</a>
</g>
</g>
<!-- Node29&#45;&gt;Node31 -->
<g id="edge36" class="edge">
<title>Node29&#45;&gt;Node31</title>
<path fill="none" stroke="midnightblue" d="M950.3,-56.32C964.18,-47.9 985.49,-34.97 1001.8,-25.07"/>
<polygon fill="midnightblue" stroke="midnightblue" points="1004,-27.83 1010.74,-19.65 1000.37,-21.85 1004,-27.83"/>
</g>
<!-- Node34&#45;&gt;Node8 -->
<g id="edge44" class="edge">
<title>Node34&#45;&gt;Node8</title>
<path fill="none" stroke="midnightblue" d="M1831.08,-56.08C1839.17,-48.14 1851.2,-36.34 1860.91,-26.8"/>
<polygon fill="midnightblue" stroke="midnightblue" points="1863.4,-29.25 1868.09,-19.75 1858.5,-24.26 1863.4,-29.25"/>
</g>
<!-- Node34&#45;&gt;Node21 -->
<g id="edge45" class="edge">
<title>Node34&#45;&gt;Node21</title>
<path fill="none" stroke="midnightblue" d="M1789.7,-61.65C1770.84,-59.78 1746.59,-57.53 1725,-56 1401.23,-33.08 1313.86,-69.48 989.29,-19.85"/>
<polygon fill="midnightblue" stroke="midnightblue" points="989.54,-16.35 979.13,-18.28 988.47,-23.27 989.54,-16.35"/>
</g>
<!-- Node35 -->
<g id="node35" class="node">
<title>Node35</title>
<g id="a_node35"><a xlink:title=" ">
<polygon fill="white" stroke="#bfbfbf" points="1919,-0.5 1919,-19.5 1961,-19.5 1961,-0.5 1919,-0.5"/>
<text text-anchor="middle" x="1940" y="-7.5" font-family="Helvetica,sans-Serif" font-size="10.00">array</text>
</a>
</g>
</g>
<!-- Node34&#45;&gt;Node35 -->
<g id="edge46" class="edge">
<title>Node34&#45;&gt;Node35</title>
<path fill="none" stroke="midnightblue" d="M1840.7,-56.44C1859.94,-47.64 1890.15,-33.81 1912.2,-23.72"/>
<polygon fill="midnightblue" stroke="midnightblue" points="1913.75,-26.86 1921.39,-19.52 1910.84,-20.5 1913.75,-26.86"/>
</g>
<!-- Node36 -->
<g id="node36" class="node">
<title>Node36</title>
<g id="a_node36"><a xlink:title=" ">
<polygon fill="white" stroke="#bfbfbf" points="1979.5,-0.5 1979.5,-19.5 2032.5,-19.5 2032.5,-0.5 1979.5,-0.5"/>
<text text-anchor="middle" x="2006" y="-7.5" font-family="Helvetica,sans-Serif" font-size="10.00">stdlib.h</text>
</a>
</g>
</g>
<!-- Node34&#45;&gt;Node36 -->
<g id="edge47" class="edge">
<title>Node34&#45;&gt;Node36</title>
<path fill="none" stroke="midnightblue" d="M1851.16,-56.44C1883.25,-47.02 1934.89,-31.87 1969.62,-21.68"/>
<polygon fill="midnightblue" stroke="midnightblue" points="1970.76,-24.99 1979.37,-18.82 1968.79,-18.27 1970.76,-24.99"/>
</g>
<!-- Node37&#45;&gt;Node6 -->
<g id="edge51" class="edge">
<title>Node37&#45;&gt;Node6</title>
<path fill="none" stroke="midnightblue" d="M1482.41,-59.5C1437.22,-51.76 1352.74,-36.92 1270.76,-20.08"/>
<polygon fill="midnightblue" stroke="midnightblue" points="1271.28,-16.61 1260.78,-18.02 1269.86,-23.47 1271.28,-16.61"/>
</g>
<!-- Node37&#45;&gt;Node8 -->
<g id="edge50" class="edge">
<title>Node37&#45;&gt;Node8</title>
<path fill="none" stroke="midnightblue" d="M1547.51,-57.74C1550.71,-57.12 1553.91,-56.52 1557,-56 1680.53,-35.06 1716.1,-44.46 1843.18,-19.89"/>
<polygon fill="midnightblue" stroke="midnightblue" points="1844.17,-23.26 1853.3,-17.89 1842.81,-16.39 1844.17,-23.26"/>
</g>
<!-- Node37&#45;&gt;Node9 -->
<g id="edge49" class="edge">
<title>Node37&#45;&gt;Node9</title>
<path fill="none" stroke="midnightblue" d="M1482.3,-61.91C1425.54,-56.22 1305.03,-42.75 1193.37,-19.79"/>
<polygon fill="midnightblue" stroke="midnightblue" points="1193.79,-16.3 1183.28,-17.68 1192.36,-23.15 1193.79,-16.3"/>
</g>
<!-- Node37&#45;&gt;Node23 -->
<g id="edge57" class="edge">
<title>Node37&#45;&gt;Node23</title>
<path fill="none" stroke="midnightblue" d="M1485.69,-56.44C1454.16,-47.24 1403.87,-32.56 1369.01,-22.39"/>
<polygon fill="midnightblue" stroke="midnightblue" points="1369.76,-18.96 1359.18,-19.52 1367.8,-25.68 1369.76,-18.96"/>
</g>
<!-- Node38 -->
<g id="node38" class="node">
<title>Node38</title>
<g id="a_node38"><a xlink:title=" ">
<polygon fill="white" stroke="#bfbfbf" points="1483,-0.5 1483,-19.5 1551,-19.5 1551,-0.5 1483,-0.5"/>
<text text-anchor="middle" x="1517" y="-7.5" font-family="Helvetica,sans-Serif" font-size="10.00">filesystem</text>
</a>
</g>
</g>
<!-- Node37&#45;&gt;Node38 -->
<g id="edge52" class="edge">
<title>Node37&#45;&gt;Node38</title>
<path fill="none" stroke="midnightblue" d="M1515.33,-56.08C1515.59,-49.01 1515.97,-38.86 1516.3,-29.99"/>
<polygon fill="midnightblue" stroke="midnightblue" points="1519.8,-29.87 1516.68,-19.75 1512.81,-29.61 1519.8,-29.87"/>
</g>
<!-- Node39 -->
<g id="node39" class="node">
<title>Node39</title>
<g id="a_node39"><a xlink:title=" ">
<polygon fill="white" stroke="#bfbfbf" points="1569,-0.5 1569,-19.5 1649,-19.5 1649,-0.5 1569,-0.5"/>
<text text-anchor="middle" x="1609" y="-7.5" font-family="Helvetica,sans-Serif" font-size="10.00">SDL_image.h</text>
</a>
</g>
</g>
<!-- Node37&#45;&gt;Node39 -->
<g id="edge53" class="edge">
<title>Node37&#45;&gt;Node39</title>
<path fill="none" stroke="midnightblue" d="M1530.1,-56.32C1544.9,-47.82 1567.69,-34.73 1584.98,-24.8"/>
<polygon fill="midnightblue" stroke="midnightblue" points="1587.01,-27.67 1593.93,-19.65 1583.52,-21.6 1587.01,-27.67"/>
</g>
<!-- Node40 -->
<g id="node40" class="node">
<title>Node40</title>
<g id="a_node40"><a xlink:title=" ">
<polygon fill="white" stroke="#bfbfbf" points="1667.5,-0.5 1667.5,-19.5 1720.5,-19.5 1720.5,-0.5 1667.5,-0.5"/>
<text text-anchor="middle" x="1694" y="-7.5" font-family="Helvetica,sans-Serif" font-size="10.00">imgui.h</text>
</a>
</g>
</g>
<!-- Node37&#45;&gt;Node40 -->
<g id="edge54" class="edge">
<title>Node37&#45;&gt;Node40</title>
<path fill="none" stroke="midnightblue" d="M1543.36,-56.44C1574.18,-47.15 1623.54,-32.26 1657.29,-22.07"/>
<polygon fill="midnightblue" stroke="midnightblue" points="1658.67,-25.31 1667.23,-19.08 1656.65,-18.61 1658.67,-25.31"/>
</g>
<!-- Node41 -->
<g id="node41" class="node">
<title>Node41</title>
<g id="a_node41"><a xlink:title=" ">
<polygon fill="white" stroke="#bfbfbf" points="1739,-0.5 1739,-19.5 1835,-19.5 1835,-0.5 1739,-0.5"/>
<text text-anchor="middle" x="1787" y="-7.5" font-family="Helvetica,sans-Serif" font-size="10.00">imgui_internal.h</text>
</a>
</g>
</g>
<!-- Node37&#45;&gt;Node41 -->
<g id="edge55" class="edge">
<title>Node37&#45;&gt;Node41</title>
<path fill="none" stroke="midnightblue" d="M1547.55,-57.97C1550.74,-57.29 1553.93,-56.63 1557,-56 1616.79,-43.75 1685.47,-30.4 1732.1,-21.45"/>
<polygon fill="midnightblue" stroke="midnightblue" points="1732.84,-24.88 1742,-19.56 1731.52,-18 1732.84,-24.88"/>
</g>
<!-- Node42 -->
<g id="node42" class="node">
<title>Node42</title>
<g id="a_node42"><a xlink:title=" ">
<polygon fill="white" stroke="#bfbfbf" points="1399,-0.5 1399,-19.5 1465,-19.5 1465,-0.5 1399,-0.5"/>
<text text-anchor="middle" x="1432" y="-7.5" font-family="Helvetica,sans-Serif" font-size="10.00">libnpy.hpp</text>
</a>
</g>
</g>
<!-- Node37&#45;&gt;Node42 -->
<g id="edge56" class="edge">
<title>Node37&#45;&gt;Node42</title>
<path fill="none" stroke="midnightblue" d="M1501.66,-56.32C1488.84,-47.98 1469.22,-35.21 1454.06,-25.35"/>
<polygon fill="midnightblue" stroke="midnightblue" points="1455.59,-22.17 1445.3,-19.65 1451.78,-28.04 1455.59,-22.17"/>
</g>
</g>
</svg>
