<?xml version="1.0" encoding="UTF-8" standalone="no"?>
<!DOCTYPE svg PUBLIC "-//W3C//DTD SVG 1.1//EN"
 "http://www.w3.org/Graphics/SVG/1.1/DTD/svg11.dtd">
<!-- Generated by graphviz version 2.43.0 (0)
 -->
<!-- Title: src/main.cpp Pages: 1 -->
<svg width="3020pt" height="196pt"
 viewBox="0.00 0.00 3020.03 196.00" xmlns="http://www.w3.org/2000/svg" xmlns:xlink="http://www.w3.org/1999/xlink">
<g id="graph0" class="graph" transform="scale(1 1) rotate(0) translate(4 192)">
<title>src/main.cpp</title>
<polygon fill="white" stroke="transparent" points="-4,4 -4,-192 3016.03,-192 3016.03,4 -4,4"/>
<!-- Node1 -->
<g id="node1" class="node">
<title>Node1</title>
<g id="a_node1"><a xlink:title=" ">
<polygon fill="#bfbfbf" stroke="black" points="845,-168.5 845,-187.5 924,-187.5 924,-168.5 845,-168.5"/>
<text text-anchor="middle" x="884.5" y="-175.5" font-family="Helvetica,sans-Serif" font-size="10.00">src/main.cpp</text>
</a>
</g>
</g>
<!-- Node2 -->
<g id="node2" class="node">
<title>Node2</title>
<g id="a_node2"><a xlink:title=" ">
<polygon fill="white" stroke="#bfbfbf" points="0,-112.5 0,-131.5 53,-131.5 53,-112.5 0,-112.5"/>
<text text-anchor="middle" x="26.5" y="-119.5" font-family="Helvetica,sans-Serif" font-size="10.00">string.h</text>
</a>
</g>
</g>
<!-- Node1&#45;&gt;Node2 -->
<g id="edge1" class="edge">
<title>Node1&#45;&gt;Node2</title>
<path fill="none" stroke="midnightblue" d="M844.75,-177.07C726.07,-176.8 364.14,-172.46 67.5,-132 66.2,-131.82 64.88,-131.63 63.55,-131.41"/>
<polygon fill="midnightblue" stroke="midnightblue" points="63.76,-127.89 53.3,-129.53 62.5,-134.78 63.76,-127.89"/>
</g>
<!-- Node3 -->
<g id="node3" class="node">
<title>Node3</title>
<g id="a_node3"><a xlink:title=" ">
<polygon fill="white" stroke="#bfbfbf" points="358.5,-0.5 358.5,-19.5 406.5,-19.5 406.5,-0.5 358.5,-0.5"/>
<text text-anchor="middle" x="382.5" y="-7.5" font-family="Helvetica,sans-Serif" font-size="10.00">thread</text>
</a>
</g>
</g>
<!-- Node1&#45;&gt;Node3 -->
<g id="edge2" class="edge">
<title>Node1&#45;&gt;Node3</title>
<path fill="none" stroke="midnightblue" d="M866.1,-168.31C835.4,-154.19 771.48,-126.41 714.5,-112 595,-81.78 548.23,-134.07 439.5,-76 418.89,-64.99 402.27,-43.33 392.4,-28.05"/>
<polygon fill="midnightblue" stroke="midnightblue" points="395.37,-26.2 387.16,-19.51 389.41,-29.86 395.37,-26.2"/>
</g>
<!-- Node4 -->
<g id="node4" class="node">
<title>Node4</title>
<g id="a_node4"><a xlink:title=" ">
<polygon fill="white" stroke="#bfbfbf" points="290.5,-0.5 290.5,-19.5 340.5,-19.5 340.5,-0.5 290.5,-0.5"/>
<text text-anchor="middle" x="315.5" y="-7.5" font-family="Helvetica,sans-Serif" font-size="10.00">chrono</text>
</a>
</g>
</g>
<!-- Node1&#45;&gt;Node4 -->
<g id="edge3" class="edge">
<title>Node1&#45;&gt;Node4</title>
<path fill="none" stroke="midnightblue" d="M844.98,-176.42C719.63,-174.25 332.08,-164.98 211.5,-132 158.2,-117.42 129.47,-123.06 100.5,-76 95.84,-68.43 94.9,-62.9 100.5,-56 122.75,-28.61 225.2,-17.3 280.26,-13.14"/>
<polygon fill="midnightblue" stroke="midnightblue" points="280.55,-16.63 290.28,-12.42 280.05,-9.65 280.55,-16.63"/>
</g>
<!-- Node5 -->
<g id="node5" class="node">
<title>Node5</title>
<g id="a_node5"><a xlink:title=" ">
<polygon fill="white" stroke="#bfbfbf" points="2354,-0.5 2354,-19.5 2407,-19.5 2407,-0.5 2354,-0.5"/>
<text text-anchor="middle" x="2380.5" y="-7.5" font-family="Helvetica,sans-Serif" font-size="10.00">stdlib.h</text>
</a>
</g>
</g>
<!-- Node1&#45;&gt;Node5 -->
<g id="edge4" class="edge">
<title>Node1&#45;&gt;Node5</title>
<path fill="none" stroke="midnightblue" d="M924.45,-176.68C1210.19,-174.19 2934.42,-155.89 3007.5,-76 3013.5,-69.44 3013.56,-62.51 3007.5,-56 2967.18,-12.68 2545.08,-10.46 2417.09,-10.8"/>
<polygon fill="midnightblue" stroke="midnightblue" points="2416.99,-7.3 2407,-10.83 2417.02,-14.3 2416.99,-7.3"/>
</g>
<!-- Node6 -->
<g id="node6" class="node">
<title>Node6</title>
<g id="a_node6"><a xlink:title=" ">
<polygon fill="white" stroke="#bfbfbf" points="338,-112.5 338,-131.5 393,-131.5 393,-112.5 338,-112.5"/>
<text text-anchor="middle" x="365.5" y="-119.5" font-family="Helvetica,sans-Serif" font-size="10.00">fstream</text>
</a>
</g>
</g>
<!-- Node1&#45;&gt;Node6 -->
<g id="edge5" class="edge">
<title>Node1&#45;&gt;Node6</title>
<path fill="none" stroke="midnightblue" d="M844.73,-174.83C762.64,-169.99 568.64,-156.78 407.5,-132 406.21,-131.8 404.91,-131.59 403.59,-131.37"/>
<polygon fill="midnightblue" stroke="midnightblue" points="403.9,-127.86 393.43,-129.46 402.61,-134.74 403.9,-127.86"/>
</g>
<!-- Node7 -->
<g id="node7" class="node">
<title>Node7</title>
<g id="a_node7"><a xlink:title=" ">
<polygon fill="white" stroke="#bfbfbf" points="898.5,-0.5 898.5,-19.5 958.5,-19.5 958.5,-0.5 898.5,-0.5"/>
<text text-anchor="middle" x="928.5" y="-7.5" font-family="Helvetica,sans-Serif" font-size="10.00">iostream</text>
</a>
</g>
</g>
<!-- Node1&#45;&gt;Node7 -->
<g id="edge6" class="edge">
<title>Node1&#45;&gt;Node7</title>
<path fill="none" stroke="midnightblue" d="M880.52,-168.25C871.74,-147.54 852.89,-94.41 871.5,-56 877.9,-42.8 890.25,-32.3 901.83,-24.78"/>
<polygon fill="midnightblue" stroke="midnightblue" points="903.66,-27.77 910.42,-19.61 900.05,-21.77 903.66,-27.77"/>
</g>
<!-- Node8 -->
<g id="node8" class="node">
<title>Node8</title>
<g id="a_node8"><a xlink:title=" ">
<polygon fill="white" stroke="#bfbfbf" points="449.5,-112.5 449.5,-131.5 517.5,-131.5 517.5,-112.5 449.5,-112.5"/>
<text text-anchor="middle" x="483.5" y="-119.5" font-family="Helvetica,sans-Serif" font-size="10.00">filesystem</text>
</a>
</g>
</g>
<!-- Node1&#45;&gt;Node8 -->
<g id="edge7" class="edge">
<title>Node1&#45;&gt;Node8</title>
<path fill="none" stroke="midnightblue" d="M844.88,-173.08C780.51,-166.49 649.02,-152.06 527.91,-132.12"/>
<polygon fill="midnightblue" stroke="midnightblue" points="528.16,-128.61 517.72,-130.42 527.01,-135.52 528.16,-128.61"/>
</g>
<!-- Node9 -->
<g id="node9" class="node">
<title>Node9</title>
<g id="a_node9"><a xlink:title=" ">
<polygon fill="white" stroke="#bfbfbf" points="165.5,-56.5 165.5,-75.5 209.5,-75.5 209.5,-56.5 165.5,-56.5"/>
<text text-anchor="middle" x="187.5" y="-63.5" font-family="Helvetica,sans-Serif" font-size="10.00">cfloat</text>
</a>
</g>
</g>
<!-- Node1&#45;&gt;Node9 -->
<g id="edge8" class="edge">
<title>Node1&#45;&gt;Node9</title>
<path fill="none" stroke="midnightblue" d="M844.66,-175.59C734.29,-171.38 426.28,-157.63 328.5,-132 284.65,-120.51 237.56,-96.06 210.42,-80.64"/>
<polygon fill="midnightblue" stroke="midnightblue" points="212.09,-77.57 201.68,-75.6 208.59,-83.63 212.09,-77.57"/>
</g>
<!-- Node10 -->
<g id="node10" class="node">
<title>Node10</title>
<g id="a_node10"><a xlink:title=" ">
<polygon fill="white" stroke="#bfbfbf" points="625.5,-112.5 625.5,-131.5 669.5,-131.5 669.5,-112.5 625.5,-112.5"/>
<text text-anchor="middle" x="647.5" y="-119.5" font-family="Helvetica,sans-Serif" font-size="10.00">ctime</text>
</a>
</g>
</g>
<!-- Node1&#45;&gt;Node10 -->
<g id="edge9" class="edge">
<title>Node1&#45;&gt;Node10</title>
<path fill="none" stroke="midnightblue" d="M845.15,-168.49C804.58,-159.65 739.52,-145.27 683.5,-132 682.23,-131.7 680.94,-131.39 679.63,-131.07"/>
<polygon fill="midnightblue" stroke="midnightblue" points="680.11,-127.59 669.56,-128.61 678.44,-134.39 680.11,-127.59"/>
</g>
<!-- Node11 -->
<g id="node11" class="node">
<title>Node11</title>
<g id="a_node11"><a xlink:title=" ">
<polygon fill="white" stroke="#bfbfbf" points="228,-56.5 228,-75.5 287,-75.5 287,-56.5 228,-56.5"/>
<text text-anchor="middle" x="257.5" y="-63.5" font-family="Helvetica,sans-Serif" font-size="10.00">complex</text>
</a>
</g>
</g>
<!-- Node1&#45;&gt;Node11 -->
<g id="edge10" class="edge">
<title>Node1&#45;&gt;Node11</title>
<path fill="none" stroke="midnightblue" d="M844.96,-177.85C766.23,-178.5 585.01,-174.72 440.5,-132 421.82,-126.48 419.53,-119.38 401.5,-112 367.02,-97.89 326.4,-85.57 297.11,-77.4"/>
<polygon fill="midnightblue" stroke="midnightblue" points="297.82,-73.97 287.25,-74.69 295.97,-80.72 297.82,-73.97"/>
</g>
<!-- Node12 -->
<g id="node12" class="node">
<title>Node12</title>
<g id="a_node12"><a xlink:title=" ">
<polygon fill="white" stroke="#bfbfbf" points="305,-56.5 305,-75.5 358,-75.5 358,-56.5 305,-56.5"/>
<text text-anchor="middle" x="331.5" y="-63.5" font-family="Helvetica,sans-Serif" font-size="10.00">imgui.h</text>
</a>
</g>
</g>
<!-- Node1&#45;&gt;Node12 -->
<g id="edge11" class="edge">
<title>Node1&#45;&gt;Node12</title>
<path fill="none" stroke="midnightblue" d="M846.72,-168.46C813.32,-160.46 763.52,-147.45 721.5,-132 701.72,-124.73 698.78,-117.75 678.5,-112 546.75,-74.65 507.54,-98.71 372.5,-76 371.21,-75.78 369.89,-75.55 368.57,-75.31"/>
<polygon fill="midnightblue" stroke="midnightblue" points="368.82,-71.79 358.33,-73.29 367.47,-78.66 368.82,-71.79"/>
</g>
<!-- Node13 -->
<g id="node13" class="node">
<title>Node13</title>
<g id="a_node13"><a xlink:title=" ">
<polygon fill="white" stroke="#bfbfbf" points="1988.5,-56.5 1988.5,-75.5 2088.5,-75.5 2088.5,-56.5 1988.5,-56.5"/>
<text text-anchor="middle" x="2038.5" y="-63.5" font-family="Helvetica,sans-Serif" font-size="10.00">imgui_impl_sdl.h</text>
</a>
</g>
</g>
<!-- Node1&#45;&gt;Node13 -->
<g id="edge12" class="edge">
<title>Node1&#45;&gt;Node13</title>
<path fill="none" stroke="midnightblue" d="M924.37,-174.18C1066.27,-163.97 1560.24,-126.89 1978.15,-76.1"/>
<polygon fill="midnightblue" stroke="midnightblue" points="1978.81,-79.55 1988.32,-74.86 1977.97,-72.6 1978.81,-79.55"/>
</g>
<!-- Node14 -->
<g id="node14" class="node">
<title>Node14</title>
<g id="a_node14"><a xlink:title=" ">
<polygon fill="white" stroke="#bfbfbf" points="2545,-56.5 2545,-75.5 2670,-75.5 2670,-56.5 2545,-56.5"/>
<text text-anchor="middle" x="2607.5" y="-63.5" font-family="Helvetica,sans-Serif" font-size="10.00">imgui_impl_opengl3.h</text>
</a>
</g>
</g>
<!-- Node1&#45;&gt;Node14 -->
<g id="edge13" class="edge">
<title>Node1&#45;&gt;Node14</title>
<path fill="none" stroke="midnightblue" d="M924.17,-176.54C1126.31,-174.06 2037.07,-161.35 2159.5,-132 2180,-127.09 2182.2,-117.65 2202.5,-112 2342.83,-72.93 2385.8,-92.35 2534.71,-76.04"/>
<polygon fill="midnightblue" stroke="midnightblue" points="2535.14,-79.52 2544.68,-74.92 2534.35,-72.56 2535.14,-79.52"/>
</g>
<!-- Node15 -->
<g id="node15" class="node">
<title>Node15</title>
<g id="a_node15"><a xlink:title=" ">
<polygon fill="white" stroke="#bfbfbf" points="2688.5,-56.5 2688.5,-75.5 2774.5,-75.5 2774.5,-56.5 2688.5,-56.5"/>
<text text-anchor="middle" x="2731.5" y="-63.5" font-family="Helvetica,sans-Serif" font-size="10.00">imgui_stdlib.h</text>
</a>
</g>
</g>
<!-- Node1&#45;&gt;Node15 -->
<g id="edge14" class="edge">
<title>Node1&#45;&gt;Node15</title>
<path fill="none" stroke="midnightblue" d="M924.22,-176.52C1129.78,-173.92 2068.12,-160.56 2194.5,-132 2216.24,-127.09 2218.88,-117.43 2240.5,-112 2427.22,-65.12 2483.44,-99.53 2678.42,-76"/>
<polygon fill="midnightblue" stroke="midnightblue" points="2678.92,-79.47 2688.41,-74.76 2678.06,-72.52 2678.92,-79.47"/>
</g>
<!-- Node16 -->
<g id="node16" class="node">
<title>Node16</title>
<g id="a_node16"><a xlink:title=" ">
<polygon fill="white" stroke="#bfbfbf" points="2792.5,-56.5 2792.5,-75.5 2888.5,-75.5 2888.5,-56.5 2792.5,-56.5"/>
<text text-anchor="middle" x="2840.5" y="-63.5" font-family="Helvetica,sans-Serif" font-size="10.00">imgui_internal.h</text>
</a>
</g>
</g>
<!-- Node1&#45;&gt;Node16 -->
<g id="edge15" class="edge">
<title>Node1&#45;&gt;Node16</title>
<path fill="none" stroke="midnightblue" d="M924.3,-176.54C1133.5,-174.01 2101.21,-160.84 2231.5,-132 2253.66,-127.09 2256.43,-117.32 2278.5,-112 2494.03,-60 2558.07,-100.35 2782.23,-76.03"/>
<polygon fill="midnightblue" stroke="midnightblue" points="2782.79,-79.49 2792.34,-74.9 2782.01,-72.53 2782.79,-79.49"/>
</g>
<!-- Node17 -->
<g id="node17" class="node">
<title>Node17</title>
<g id="a_node17"><a xlink:title=" ">
<polygon fill="white" stroke="#bfbfbf" points="2906.5,-56.5 2906.5,-75.5 2998.5,-75.5 2998.5,-56.5 2906.5,-56.5"/>
<text text-anchor="middle" x="2952.5" y="-63.5" font-family="Helvetica,sans-Serif" font-size="10.00">imfilebrowser.h</text>
</a>
</g>
</g>
<!-- Node1&#45;&gt;Node17 -->
<g id="edge16" class="edge">
<title>Node1&#45;&gt;Node17</title>
<path fill="none" stroke="midnightblue" d="M924.01,-176.66C1136.08,-174.7 2134.84,-163.85 2268.5,-132 2289,-127.11 2291.07,-117.18 2311.5,-112 2561.22,-48.67 2636.29,-103.67 2896.21,-76.01"/>
<polygon fill="midnightblue" stroke="midnightblue" points="2896.77,-79.47 2906.33,-74.9 2896.01,-72.51 2896.77,-79.47"/>
</g>
<!-- Node18 -->
<g id="node18" class="node">
<title>Node18</title>
<g id="a_node18"><a xlink:title=" ">
<polygon fill="white" stroke="#bfbfbf" points="109.5,-56.5 109.5,-75.5 147.5,-75.5 147.5,-56.5 109.5,-56.5"/>
<text text-anchor="middle" x="128.5" y="-63.5" font-family="Helvetica,sans-Serif" font-size="10.00">ini.h</text>
</a>
</g>
</g>
<!-- Node1&#45;&gt;Node18 -->
<g id="edge17" class="edge">
<title>Node1&#45;&gt;Node18</title>
<path fill="none" stroke="midnightblue" d="M844.93,-175.89C727.37,-172.33 381.57,-159.7 272.5,-132 227.79,-120.65 179.68,-96.16 151.93,-80.69"/>
<polygon fill="midnightblue" stroke="midnightblue" points="153.43,-77.52 143,-75.64 149.98,-83.61 153.43,-77.52"/>
</g>
<!-- Node19 -->
<g id="node19" class="node">
<title>Node19</title>
<g id="a_node19"><a xlink:href="../../d5/de7/imgui__ini_8h.html" target="_top" xlink:title=" ">
<polygon fill="white" stroke="black" points="536,-112.5 536,-131.5 607,-131.5 607,-112.5 536,-112.5"/>
<text text-anchor="middle" x="571.5" y="-119.5" font-family="Helvetica,sans-Serif" font-size="10.00">imgui_ini.h</text>
</a>
</g>
</g>
<!-- Node1&#45;&gt;Node19 -->
<g id="edge18" class="edge">
<title>Node1&#45;&gt;Node19</title>
<path fill="none" stroke="midnightblue" d="M844.93,-170.75C794.52,-162.7 704.47,-148.03 617.39,-132.12"/>
<polygon fill="midnightblue" stroke="midnightblue" points="617.81,-128.64 607.34,-130.27 616.55,-135.52 617.81,-128.64"/>
</g>
<!-- Node21 -->
<g id="node21" class="node">
<title>Node21</title>
<g id="a_node21"><a xlink:href="../../de/dfc/Ricom_8h.html" target="_top" xlink:title=" ">
<polygon fill="white" stroke="black" points="986.5,-112.5 986.5,-131.5 1042.5,-131.5 1042.5,-112.5 986.5,-112.5"/>
<text text-anchor="middle" x="1014.5" y="-119.5" font-family="Helvetica,sans-Serif" font-size="10.00">Ricom.h</text>
</a>
</g>
</g>
<!-- Node1&#45;&gt;Node21 -->
<g id="edge22" class="edge">
<title>Node1&#45;&gt;Node21</title>
<path fill="none" stroke="midnightblue" d="M905.1,-168.44C926.49,-159.56 960.18,-145.56 984.52,-135.45"/>
<polygon fill="midnightblue" stroke="midnightblue" points="986.11,-138.58 994,-131.52 983.42,-132.12 986.11,-138.58"/>
</g>
<!-- Node44 -->
<g id="node41" class="node">
<title>Node44</title>
<g id="a_node41"><a xlink:title=" ">
<polygon fill="white" stroke="#bfbfbf" points="1328.5,-56.5 1328.5,-75.5 1428.5,-75.5 1428.5,-56.5 1328.5,-56.5"/>
<text text-anchor="middle" x="1378.5" y="-63.5" font-family="Helvetica,sans-Serif" font-size="10.00">MerlinInterface.h</text>
</a>
</g>
</g>
<!-- Node1&#45;&gt;Node44 -->
<g id="edge66" class="edge">
<title>Node1&#45;&gt;Node44</title>
<path fill="none" stroke="midnightblue" d="M922.85,-168.46C1011.85,-148.64 1232.28,-99.56 1330.24,-77.75"/>
<polygon fill="midnightblue" stroke="midnightblue" points="1331.17,-81.12 1340.17,-75.53 1329.65,-74.29 1331.17,-81.12"/>
</g>
<!-- Node45 -->
<g id="node42" class="node">
<title>Node45</title>
<g id="a_node42"><a xlink:title=" ">
<polygon fill="white" stroke="#bfbfbf" points="1447,-56.5 1447,-75.5 1556,-75.5 1556,-56.5 1447,-56.5"/>
<text text-anchor="middle" x="1501.5" y="-63.5" font-family="Helvetica,sans-Serif" font-size="10.00">TimepixInterface.h</text>
</a>
</g>
</g>
<!-- Node1&#45;&gt;Node45 -->
<g id="edge67" class="edge">
<title>Node1&#45;&gt;Node45</title>
<path fill="none" stroke="midnightblue" d="M924.32,-170.26C975.52,-161.57 1067.18,-145.9 1145.5,-132 1251.78,-113.14 1375.74,-90.32 1445.79,-77.35"/>
<polygon fill="midnightblue" stroke="midnightblue" points="1446.53,-80.77 1455.72,-75.51 1445.25,-73.89 1446.53,-80.77"/>
</g>
<!-- Node46 -->
<g id="node43" class="node">
<title>Node46</title>
<g id="a_node43"><a xlink:href="../../dd/de4/Camera_8h.html" target="_top" xlink:title=" ">
<polygon fill="white" stroke="black" points="1574.5,-56.5 1574.5,-75.5 1638.5,-75.5 1638.5,-56.5 1574.5,-56.5"/>
<text text-anchor="middle" x="1606.5" y="-63.5" font-family="Helvetica,sans-Serif" font-size="10.00">Camera.h</text>
</a>
</g>
</g>
<!-- Node1&#45;&gt;Node46 -->
<g id="edge65" class="edge">
<title>Node1&#45;&gt;Node46</title>
<path fill="none" stroke="midnightblue" d="M924.22,-172.23C1027.94,-159.53 1315.56,-122.8 1564.36,-76.13"/>
<polygon fill="midnightblue" stroke="midnightblue" points="1565.13,-79.54 1574.31,-74.25 1563.83,-72.67 1565.13,-79.54"/>
</g>
<!-- Node48 -->
<g id="node45" class="node">
<title>Node48</title>
<g id="a_node45"><a xlink:title=" ">
<polygon fill="white" stroke="#bfbfbf" points="2320.5,-112.5 2320.5,-131.5 2370.5,-131.5 2370.5,-112.5 2320.5,-112.5"/>
<text text-anchor="middle" x="2345.5" y="-119.5" font-family="Helvetica,sans-Serif" font-size="10.00">fonts.h</text>
</a>
</g>
</g>
<!-- Node1&#45;&gt;Node48 -->
<g id="edge64" class="edge">
<title>Node1&#45;&gt;Node48</title>
<path fill="none" stroke="midnightblue" d="M924.08,-176.79C1124.44,-175.57 2028.34,-168.14 2306.5,-132 2307.78,-131.83 2309.08,-131.64 2310.39,-131.44"/>
<polygon fill="midnightblue" stroke="midnightblue" points="2311.28,-134.83 2320.46,-129.54 2309.98,-127.95 2311.28,-134.83"/>
</g>
<!-- Node49 -->
<g id="node46" class="node">
<title>Node49</title>
<g id="a_node46"><a xlink:href="../../d5/d80/Gui__utils_8h.html" target="_top" xlink:title=" ">
<polygon fill="white" stroke="black" points="2082.5,-112.5 2082.5,-131.5 2150.5,-131.5 2150.5,-112.5 2082.5,-112.5"/>
<text text-anchor="middle" x="2116.5" y="-119.5" font-family="Helvetica,sans-Serif" font-size="10.00">Gui_utils.h</text>
</a>
</g>
</g>
<!-- Node1&#45;&gt;Node49 -->
<g id="edge68" class="edge">
<title>Node1&#45;&gt;Node49</title>
<path fill="none" stroke="midnightblue" d="M924.1,-175.26C1108.11,-167.2 1878.94,-133.41 2072.34,-124.94"/>
<polygon fill="midnightblue" stroke="midnightblue" points="2072.59,-128.43 2082.42,-124.49 2072.28,-121.43 2072.59,-128.43"/>
</g>
<!-- Node19&#45;&gt;Node12 -->
<g id="edge19" class="edge">
<title>Node19&#45;&gt;Node12</title>
<path fill="none" stroke="midnightblue" d="M535.83,-112.97C490.76,-102.83 413.61,-85.48 368.11,-75.24"/>
<polygon fill="midnightblue" stroke="midnightblue" points="368.61,-71.76 358.08,-72.98 367.07,-78.59 368.61,-71.76"/>
</g>
<!-- Node19&#45;&gt;Node18 -->
<g id="edge20" class="edge">
<title>Node19&#45;&gt;Node18</title>
<path fill="none" stroke="midnightblue" d="M535.7,-113.5C532.59,-112.95 529.49,-112.44 526.5,-112 366.26,-88.24 320.09,-108.64 157.49,-75.77"/>
<polygon fill="midnightblue" stroke="midnightblue" points="158.14,-72.33 147.63,-73.75 156.72,-79.19 158.14,-72.33"/>
</g>
<!-- Node20 -->
<g id="node20" class="node">
<title>Node20</title>
<g id="a_node20"><a xlink:title=" ">
<polygon fill="white" stroke="#bfbfbf" points="1222.5,-0.5 1222.5,-19.5 1266.5,-19.5 1266.5,-0.5 1222.5,-0.5"/>
<text text-anchor="middle" x="1244.5" y="-7.5" font-family="Helvetica,sans-Serif" font-size="10.00">string</text>
</a>
</g>
</g>
<!-- Node19&#45;&gt;Node20 -->
<g id="edge21" class="edge">
<title>Node19&#45;&gt;Node20</title>
<path fill="none" stroke="midnightblue" d="M607.29,-113.41C610.4,-112.88 613.5,-112.4 616.5,-112 846.11,-81.22 915.56,-145.67 1136.5,-76 1154.52,-70.32 1197.35,-42.74 1223.34,-25.38"/>
<polygon fill="midnightblue" stroke="midnightblue" points="1225.41,-28.2 1231.76,-19.72 1221.5,-22.39 1225.41,-28.2"/>
</g>
<!-- Node21&#45;&gt;Node3 -->
<g id="edge33" class="edge">
<title>Node21&#45;&gt;Node3</title>
<path fill="none" stroke="midnightblue" d="M986.37,-120.36C890.87,-117.91 579.76,-107.65 485.5,-76 452.82,-65.03 419.99,-41.67 400.46,-26.15"/>
<polygon fill="midnightblue" stroke="midnightblue" points="402.43,-23.24 392.46,-19.64 398.01,-28.67 402.43,-23.24"/>
</g>
<!-- Node21&#45;&gt;Node4 -->
<g id="edge35" class="edge">
<title>Node21&#45;&gt;Node4</title>
<path fill="none" stroke="midnightblue" d="M986.5,-120.3C886.03,-117.55 544.14,-106.14 439.5,-76 400.74,-64.83 360.12,-40.83 336.34,-25.32"/>
<polygon fill="midnightblue" stroke="midnightblue" points="338.07,-22.27 327.8,-19.64 334.19,-28.1 338.07,-22.27"/>
</g>
<!-- Node21&#45;&gt;Node9 -->
<g id="edge27" class="edge">
<title>Node21&#45;&gt;Node9</title>
<path fill="none" stroke="midnightblue" d="M986.23,-120.26C865.3,-116.96 390.34,-102.65 219.78,-75.76"/>
<polygon fill="midnightblue" stroke="midnightblue" points="220.15,-72.28 209.71,-74.1 219.01,-79.18 220.15,-72.28"/>
</g>
<!-- Node21&#45;&gt;Node11 -->
<g id="edge26" class="edge">
<title>Node21&#45;&gt;Node11</title>
<path fill="none" stroke="midnightblue" d="M986.23,-120.95C890.54,-120.43 570.05,-115.74 297.36,-76.05"/>
<polygon fill="midnightblue" stroke="midnightblue" points="297.68,-72.55 287.28,-74.56 296.66,-79.48 297.68,-72.55"/>
</g>
<!-- Node21&#45;&gt;Node20 -->
<g id="edge29" class="edge">
<title>Node21&#45;&gt;Node20</title>
<path fill="none" stroke="midnightblue" d="M1042.57,-119.74C1097.95,-116.61 1218.1,-106.39 1243.5,-76 1254.11,-63.3 1252.89,-43.83 1249.92,-29.5"/>
<polygon fill="midnightblue" stroke="midnightblue" points="1253.3,-28.6 1247.47,-19.75 1246.51,-30.3 1253.3,-28.6"/>
</g>
<!-- Node22 -->
<g id="node22" class="node">
<title>Node22</title>
<g id="a_node22"><a xlink:title=" ">
<polygon fill="white" stroke="#bfbfbf" points="976.5,-0.5 976.5,-19.5 1032.5,-19.5 1032.5,-0.5 976.5,-0.5"/>
<text text-anchor="middle" x="1004.5" y="-7.5" font-family="Helvetica,sans-Serif" font-size="10.00">unistd.h</text>
</a>
</g>
</g>
<!-- Node21&#45;&gt;Node22 -->
<g id="edge23" class="edge">
<title>Node21&#45;&gt;Node22</title>
<path fill="none" stroke="midnightblue" d="M1013.72,-112.37C1012.1,-94.62 1008.38,-53.67 1006.19,-29.6"/>
<polygon fill="midnightblue" stroke="midnightblue" points="1009.67,-29.23 1005.28,-19.59 1002.7,-29.87 1009.67,-29.23"/>
</g>
<!-- Node23 -->
<g id="node23" class="node">
<title>Node23</title>
<g id="a_node23"><a xlink:title=" ">
<polygon fill="white" stroke="#bfbfbf" points="833,-0.5 833,-19.5 880,-19.5 880,-0.5 833,-0.5"/>
<text text-anchor="middle" x="856.5" y="-7.5" font-family="Helvetica,sans-Serif" font-size="10.00">cmath</text>
</a>
</g>
</g>
<!-- Node21&#45;&gt;Node23 -->
<g id="edge24" class="edge">
<title>Node21&#45;&gt;Node23</title>
<path fill="none" stroke="midnightblue" d="M986.24,-120.11C953.81,-117.5 901.28,-108.2 871.5,-76 860.08,-63.66 856.79,-44.41 856.08,-30.05"/>
<polygon fill="midnightblue" stroke="midnightblue" points="859.58,-29.78 855.96,-19.82 852.58,-29.86 859.58,-29.78"/>
</g>
<!-- Node24 -->
<g id="node24" class="node">
<title>Node24</title>
<g id="a_node24"><a xlink:title=" ">
<polygon fill="white" stroke="#bfbfbf" points="1656.5,-56.5 1656.5,-75.5 1706.5,-75.5 1706.5,-56.5 1656.5,-56.5"/>
<text text-anchor="middle" x="1681.5" y="-63.5" font-family="Helvetica,sans-Serif" font-size="10.00">stdio.h</text>
</a>
</g>
</g>
<!-- Node21&#45;&gt;Node24 -->
<g id="edge25" class="edge">
<title>Node21&#45;&gt;Node24</title>
<path fill="none" stroke="midnightblue" d="M1042.8,-120.87C1130.97,-120.09 1408.55,-114.62 1646.49,-75.85"/>
<polygon fill="midnightblue" stroke="midnightblue" points="1647.07,-79.3 1656.36,-74.22 1645.93,-72.39 1647.07,-79.3"/>
</g>
<!-- Node25 -->
<g id="node25" class="node">
<title>Node25</title>
<g id="a_node25"><a xlink:title=" ">
<polygon fill="white" stroke="#bfbfbf" points="1551,-0.5 1551,-19.5 1598,-19.5 1598,-0.5 1551,-0.5"/>
<text text-anchor="middle" x="1574.5" y="-7.5" font-family="Helvetica,sans-Serif" font-size="10.00">vector</text>
</a>
</g>
</g>
<!-- Node21&#45;&gt;Node25 -->
<g id="edge28" class="edge">
<title>Node21&#45;&gt;Node25</title>
<path fill="none" stroke="midnightblue" d="M1042.58,-117.3C1088.73,-110.91 1183.28,-96.48 1261.5,-76 1287.88,-69.09 1293.1,-62.83 1319.5,-56 1397.55,-35.79 1491.39,-21.81 1540.59,-15.25"/>
<polygon fill="midnightblue" stroke="midnightblue" points="1541.22,-18.7 1550.68,-13.93 1540.31,-11.76 1541.22,-18.7"/>
</g>
<!-- Node26 -->
<g id="node26" class="node">
<title>Node26</title>
<g id="a_node26"><a xlink:title=" ">
<polygon fill="white" stroke="#bfbfbf" points="1724.5,-56.5 1724.5,-75.5 1768.5,-75.5 1768.5,-56.5 1724.5,-56.5"/>
<text text-anchor="middle" x="1746.5" y="-63.5" font-family="Helvetica,sans-Serif" font-size="10.00">SDL.h</text>
</a>
</g>
</g>
<!-- Node21&#45;&gt;Node26 -->
<g id="edge30" class="edge">
<title>Node21&#45;&gt;Node26</title>
<path fill="none" stroke="midnightblue" d="M1042.81,-121.39C1137.12,-122.21 1449.17,-121.24 1714.09,-75.85"/>
<polygon fill="midnightblue" stroke="midnightblue" points="1715.03,-79.24 1724.29,-74.08 1713.83,-72.34 1715.03,-79.24"/>
</g>
<!-- Node27 -->
<g id="node27" class="node">
<title>Node27</title>
<g id="a_node27"><a xlink:title=" ">
<polygon fill="white" stroke="#bfbfbf" points="424.5,-0.5 424.5,-19.5 472.5,-19.5 472.5,-0.5 424.5,-0.5"/>
<text text-anchor="middle" x="448.5" y="-7.5" font-family="Helvetica,sans-Serif" font-size="10.00">mutex</text>
</a>
</g>
</g>
<!-- Node21&#45;&gt;Node27 -->
<g id="edge31" class="edge">
<title>Node21&#45;&gt;Node27</title>
<path fill="none" stroke="midnightblue" d="M986.37,-120.78C894.47,-119.72 604.16,-113.4 519.5,-76 495.48,-65.39 474.19,-43.31 461.34,-27.84"/>
<polygon fill="midnightblue" stroke="midnightblue" points="463.76,-25.27 454.78,-19.63 458.29,-29.63 463.76,-25.27"/>
</g>
<!-- Node28 -->
<g id="node28" class="node">
<title>Node28</title>
<g id="a_node28"><a xlink:title=" ">
<polygon fill="white" stroke="#bfbfbf" points="880.5,-56.5 880.5,-75.5 926.5,-75.5 926.5,-56.5 880.5,-56.5"/>
<text text-anchor="middle" x="903.5" y="-63.5" font-family="Helvetica,sans-Serif" font-size="10.00">future</text>
</a>
</g>
</g>
<!-- Node21&#45;&gt;Node28 -->
<g id="edge32" class="edge">
<title>Node21&#45;&gt;Node28</title>
<path fill="none" stroke="midnightblue" d="M996.67,-112.32C978.78,-103.62 951.02,-90.12 930.45,-80.11"/>
<polygon fill="midnightblue" stroke="midnightblue" points="931.81,-76.88 921.29,-75.65 928.75,-83.18 931.81,-76.88"/>
</g>
<!-- Node29 -->
<g id="node29" class="node">
<title>Node29</title>
<g id="a_node29"><a xlink:title=" ">
<polygon fill="white" stroke="#bfbfbf" points="1184.5,-56.5 1184.5,-75.5 1234.5,-75.5 1234.5,-56.5 1184.5,-56.5"/>
<text text-anchor="middle" x="1209.5" y="-63.5" font-family="Helvetica,sans-Serif" font-size="10.00">fftw3.h</text>
</a>
</g>
</g>
<!-- Node21&#45;&gt;Node29 -->
<g id="edge34" class="edge">
<title>Node21&#45;&gt;Node29</title>
<path fill="none" stroke="midnightblue" d="M1042.85,-113.15C1077.61,-103.52 1136.53,-87.21 1174.19,-76.78"/>
<polygon fill="midnightblue" stroke="midnightblue" points="1175.51,-80.04 1184.21,-74 1173.64,-73.3 1175.51,-80.04"/>
</g>
<!-- Node30 -->
<g id="node30" class="node">
<title>Node30</title>
<g id="a_node30"><a xlink:title=" ">
<polygon fill="white" stroke="#bfbfbf" points="1786.5,-56.5 1786.5,-75.5 1850.5,-75.5 1850.5,-56.5 1786.5,-56.5"/>
<text text-anchor="middle" x="1818.5" y="-63.5" font-family="Helvetica,sans-Serif" font-size="10.00">algorithm</text>
</a>
</g>
</g>
<!-- Node21&#45;&gt;Node30 -->
<g id="edge36" class="edge">
<title>Node21&#45;&gt;Node30</title>
<path fill="none" stroke="midnightblue" d="M1042.72,-120.93C1142.04,-120.35 1484.78,-115.53 1776.44,-75.92"/>
<polygon fill="midnightblue" stroke="midnightblue" points="1776.93,-79.39 1786.36,-74.56 1775.97,-72.45 1776.93,-79.39"/>
</g>
<!-- Node31 -->
<g id="node31" class="node">
<title>Node31</title>
<g id="a_node31"><a xlink:href="../../d7/d50/BoundedThreadPool_8hpp.html" target="_top" xlink:title=" ">
<polygon fill="white" stroke="black" points="529,-56.5 529,-75.5 664,-75.5 664,-56.5 529,-56.5"/>
<text text-anchor="middle" x="596.5" y="-63.5" font-family="Helvetica,sans-Serif" font-size="10.00">BoundedThreadPool.hpp</text>
</a>
</g>
</g>
<!-- Node21&#45;&gt;Node31 -->
<g id="edge37" class="edge">
<title>Node21&#45;&gt;Node31</title>
<path fill="none" stroke="midnightblue" d="M986.42,-117.37C923.02,-109.18 766.94,-89.02 672.6,-76.83"/>
<polygon fill="midnightblue" stroke="midnightblue" points="672.91,-73.34 662.54,-75.53 672.01,-80.28 672.91,-73.34"/>
</g>
<!-- Node36 -->
<g id="node36" class="node">
<title>Node36</title>
<g id="a_node36"><a xlink:title=" ">
<polygon fill="white" stroke="#bfbfbf" points="1868.5,-56.5 1868.5,-75.5 1970.5,-75.5 1970.5,-56.5 1868.5,-56.5"/>
<text text-anchor="middle" x="1919.5" y="-63.5" font-family="Helvetica,sans-Serif" font-size="10.00">tinycolormap.hpp</text>
</a>
</g>
</g>
<!-- Node21&#45;&gt;Node36 -->
<g id="edge45" class="edge">
<title>Node21&#45;&gt;Node36</title>
<path fill="none" stroke="midnightblue" d="M1042.66,-120.48C1148.38,-118.31 1531.8,-108.62 1858.35,-76.01"/>
<polygon fill="midnightblue" stroke="midnightblue" points="1858.88,-79.48 1868.48,-74.99 1858.18,-72.51 1858.88,-79.48"/>
</g>
<!-- Node37 -->
<g id="node37" class="node">
<title>Node37</title>
<g id="a_node37"><a xlink:href="../../d0/d3c/SocketConnector_8h.html" target="_top" xlink:title=" ">
<polygon fill="white" stroke="red" points="1021,-56.5 1021,-75.5 1128,-75.5 1128,-56.5 1021,-56.5"/>
<text text-anchor="middle" x="1074.5" y="-63.5" font-family="Helvetica,sans-Serif" font-size="10.00">SocketConnector.h</text>
</a>
</g>
</g>
<!-- Node21&#45;&gt;Node37 -->
<g id="edge46" class="edge">
<title>Node21&#45;&gt;Node37</title>
<path fill="none" stroke="midnightblue" d="M1024.14,-112.32C1033.01,-104.34 1046.37,-92.31 1057.11,-82.65"/>
<polygon fill="midnightblue" stroke="midnightblue" points="1059.59,-85.13 1064.68,-75.83 1054.91,-79.92 1059.59,-85.13"/>
</g>
<!-- Node41 -->
<g id="node40" class="node">
<title>Node41</title>
<g id="a_node40"><a xlink:href="../../da/dce/ProgressMonitor_8h.html" target="_top" xlink:title=" ">
<polygon fill="white" stroke="red" points="682.5,-56.5 682.5,-75.5 786.5,-75.5 786.5,-56.5 682.5,-56.5"/>
<text text-anchor="middle" x="734.5" y="-63.5" font-family="Helvetica,sans-Serif" font-size="10.00">ProgressMonitor.h</text>
</a>
</g>
</g>
<!-- Node21&#45;&gt;Node41 -->
<g id="edge52" class="edge">
<title>Node21&#45;&gt;Node41</title>
<path fill="none" stroke="midnightblue" d="M986.37,-115.58C940.22,-106.68 847.68,-88.83 788.53,-77.42"/>
<polygon fill="midnightblue" stroke="midnightblue" points="789.1,-73.97 778.62,-75.51 787.77,-80.84 789.1,-73.97"/>
</g>
<!-- Node21&#45;&gt;Node44 -->
<g id="edge57" class="edge">
<title>Node21&#45;&gt;Node44</title>
<path fill="none" stroke="midnightblue" d="M1042.76,-116.81C1101.59,-108.08 1238.34,-87.79 1317.98,-75.98"/>
<polygon fill="midnightblue" stroke="midnightblue" points="1318.97,-79.37 1328.35,-74.44 1317.95,-72.44 1318.97,-79.37"/>
</g>
<!-- Node21&#45;&gt;Node45 -->
<g id="edge58" class="edge">
<title>Node21&#45;&gt;Node45</title>
<path fill="none" stroke="midnightblue" d="M1042.5,-118.35C1108.89,-112 1281.27,-95.1 1436.5,-76.08"/>
<polygon fill="midnightblue" stroke="midnightblue" points="1437.21,-79.52 1446.7,-74.83 1436.35,-72.58 1437.21,-79.52"/>
</g>
<!-- Node21&#45;&gt;Node46 -->
<g id="edge59" class="edge">
<title>Node21&#45;&gt;Node46</title>
<path fill="none" stroke="midnightblue" d="M1042.75,-120.04C1122.94,-117.01 1358.88,-106.16 1564.28,-75.98"/>
<polygon fill="midnightblue" stroke="midnightblue" points="1564.97,-79.42 1574.35,-74.49 1563.94,-72.5 1564.97,-79.42"/>
</g>
<!-- Node31&#45;&gt;Node3 -->
<g id="edge38" class="edge">
<title>Node31&#45;&gt;Node3</title>
<path fill="none" stroke="midnightblue" d="M561.06,-56.44C526.53,-48.04 472.29,-34.71 416.35,-20.18"/>
<polygon fill="midnightblue" stroke="midnightblue" points="417.19,-16.78 406.63,-17.65 415.43,-23.56 417.19,-16.78"/>
</g>
<!-- Node31&#45;&gt;Node7 -->
<g id="edge44" class="edge">
<title>Node31&#45;&gt;Node7</title>
<path fill="none" stroke="midnightblue" d="M659.94,-56.5C719.23,-48.25 810.13,-34.84 888.5,-20 888.6,-19.98 888.7,-19.96 888.8,-19.94"/>
<polygon fill="midnightblue" stroke="midnightblue" points="889.3,-23.41 898.4,-18 887.91,-16.55 889.3,-23.41"/>
</g>
<!-- Node31&#45;&gt;Node27 -->
<g id="edge41" class="edge">
<title>Node31&#45;&gt;Node27</title>
<path fill="none" stroke="midnightblue" d="M573.05,-56.44C548.37,-47.44 509.31,-33.19 481.52,-23.05"/>
<polygon fill="midnightblue" stroke="midnightblue" points="482.44,-19.66 471.84,-19.52 480.04,-26.23 482.44,-19.66"/>
</g>
<!-- Node32 -->
<g id="node32" class="node">
<title>Node32</title>
<g id="a_node32"><a xlink:title=" ">
<polygon fill="white" stroke="#bfbfbf" points="699,-0.5 699,-19.5 746,-19.5 746,-0.5 699,-0.5"/>
<text text-anchor="middle" x="722.5" y="-7.5" font-family="Helvetica,sans-Serif" font-size="10.00">queue</text>
</a>
</g>
</g>
<!-- Node31&#45;&gt;Node32 -->
<g id="edge39" class="edge">
<title>Node31&#45;&gt;Node32</title>
<path fill="none" stroke="midnightblue" d="M616.47,-56.44C637.11,-47.6 669.56,-33.69 693.13,-23.59"/>
<polygon fill="midnightblue" stroke="midnightblue" points="694.82,-26.67 702.63,-19.52 692.06,-20.24 694.82,-26.67"/>
</g>
<!-- Node33 -->
<g id="node33" class="node">
<title>Node33</title>
<g id="a_node33"><a xlink:title=" ">
<polygon fill="white" stroke="#bfbfbf" points="491,-0.5 491,-19.5 556,-19.5 556,-0.5 491,-0.5"/>
<text text-anchor="middle" x="523.5" y="-7.5" font-family="Helvetica,sans-Serif" font-size="10.00">functional</text>
</a>
</g>
</g>
<!-- Node31&#45;&gt;Node33 -->
<g id="edge40" class="edge">
<title>Node31&#45;&gt;Node33</title>
<path fill="none" stroke="midnightblue" d="M584.77,-56.32C573.66,-48.11 556.76,-35.6 543.52,-25.81"/>
<polygon fill="midnightblue" stroke="midnightblue" points="545.56,-22.97 535.44,-19.83 541.4,-28.59 545.56,-22.97"/>
</g>
<!-- Node34 -->
<g id="node34" class="node">
<title>Node34</title>
<g id="a_node34"><a xlink:title=" ">
<polygon fill="white" stroke="#bfbfbf" points="574,-0.5 574,-19.5 681,-19.5 681,-0.5 574,-0.5"/>
<text text-anchor="middle" x="627.5" y="-7.5" font-family="Helvetica,sans-Serif" font-size="10.00">condition_variable</text>
</a>
</g>
</g>
<!-- Node31&#45;&gt;Node34 -->
<g id="edge42" class="edge">
<title>Node31&#45;&gt;Node34</title>
<path fill="none" stroke="midnightblue" d="M601.62,-56.08C605.91,-48.61 612.16,-37.72 617.44,-28.52"/>
<polygon fill="midnightblue" stroke="midnightblue" points="620.53,-30.17 622.48,-19.75 614.46,-26.68 620.53,-30.17"/>
</g>
<!-- Node35 -->
<g id="node35" class="node">
<title>Node35</title>
<g id="a_node35"><a xlink:title=" ">
<polygon fill="white" stroke="#bfbfbf" points="764.5,-0.5 764.5,-19.5 814.5,-19.5 814.5,-0.5 764.5,-0.5"/>
<text text-anchor="middle" x="789.5" y="-7.5" font-family="Helvetica,sans-Serif" font-size="10.00">atomic</text>
</a>
</g>
</g>
<!-- Node31&#45;&gt;Node35 -->
<g id="edge43" class="edge">
<title>Node31&#45;&gt;Node35</title>
<path fill="none" stroke="midnightblue" d="M627.08,-56.44C661.77,-46.74 718.21,-30.95 754.6,-20.77"/>
<polygon fill="midnightblue" stroke="midnightblue" points="755.6,-24.12 764.29,-18.05 753.72,-17.38 755.6,-24.12"/>
</g>
<!-- Node37&#45;&gt;Node7 -->
<g id="edge51" class="edge">
<title>Node37&#45;&gt;Node7</title>
<path fill="none" stroke="midnightblue" d="M1051.37,-56.44C1027.02,-47.44 988.49,-33.19 961.08,-23.05"/>
<polygon fill="midnightblue" stroke="midnightblue" points="962.12,-19.7 951.53,-19.52 959.69,-26.27 962.12,-19.7"/>
</g>
<!-- Node37&#45;&gt;Node20 -->
<g id="edge50" class="edge">
<title>Node37&#45;&gt;Node20</title>
<path fill="none" stroke="midnightblue" d="M1101.44,-56.44C1131.6,-46.86 1180.44,-31.35 1212.51,-21.16"/>
<polygon fill="midnightblue" stroke="midnightblue" points="1213.82,-24.42 1222.29,-18.05 1211.7,-17.75 1213.82,-24.42"/>
</g>
<!-- Node37&#45;&gt;Node22 -->
<g id="edge48" class="edge">
<title>Node37&#45;&gt;Node22</title>
<path fill="none" stroke="midnightblue" d="M1063.25,-56.32C1052.7,-48.18 1036.7,-35.84 1024.06,-26.09"/>
<polygon fill="midnightblue" stroke="midnightblue" points="1026.01,-23.17 1015.95,-19.83 1021.73,-28.71 1026.01,-23.17"/>
</g>
<!-- Node38 -->
<g id="node38" class="node">
<title>Node38</title>
<g id="a_node38"><a xlink:title=" ">
<polygon fill="white" stroke="#bfbfbf" points="1116,-0.5 1116,-19.5 1185,-19.5 1185,-0.5 1116,-0.5"/>
<text text-anchor="middle" x="1150.5" y="-7.5" font-family="Helvetica,sans-Serif" font-size="10.00">arpa/inet.h</text>
</a>
</g>
</g>
<!-- Node37&#45;&gt;Node38 -->
<g id="edge47" class="edge">
<title>Node37&#45;&gt;Node38</title>
<path fill="none" stroke="midnightblue" d="M1086.71,-56.32C1098.28,-48.11 1115.88,-35.6 1129.66,-25.81"/>
<polygon fill="midnightblue" stroke="midnightblue" points="1131.94,-28.48 1138.07,-19.83 1127.89,-22.77 1131.94,-28.48"/>
</g>
<!-- Node39 -->
<g id="node39" class="node">
<title>Node39</title>
<g id="a_node39"><a xlink:title=" ">
<polygon fill="white" stroke="#bfbfbf" points="1051,-0.5 1051,-19.5 1098,-19.5 1098,-0.5 1051,-0.5"/>
<text text-anchor="middle" x="1074.5" y="-7.5" font-family="Helvetica,sans-Serif" font-size="10.00">cerrno</text>
</a>
</g>
</g>
<!-- Node37&#45;&gt;Node39 -->
<g id="edge49" class="edge">
<title>Node37&#45;&gt;Node39</title>
<path fill="none" stroke="midnightblue" d="M1074.5,-56.08C1074.5,-49.01 1074.5,-38.86 1074.5,-29.99"/>
<polygon fill="midnightblue" stroke="midnightblue" points="1078,-29.75 1074.5,-19.75 1071,-29.75 1078,-29.75"/>
</g>
<!-- Node41&#45;&gt;Node4 -->
<g id="edge55" class="edge">
<title>Node41&#45;&gt;Node4</title>
<path fill="none" stroke="midnightblue" d="M682.42,-57.31C679.07,-56.86 675.74,-56.42 672.5,-56 532.45,-38.04 493.23,-46.17 350.65,-19.96"/>
<polygon fill="midnightblue" stroke="midnightblue" points="351.13,-16.49 340.66,-18.1 349.85,-23.37 351.13,-16.49"/>
</g>
<!-- Node41&#45;&gt;Node7 -->
<g id="edge53" class="edge">
<title>Node41&#45;&gt;Node7</title>
<path fill="none" stroke="midnightblue" d="M765.24,-56.44C798.54,-47.17 851.8,-32.35 888.38,-22.17"/>
<polygon fill="midnightblue" stroke="midnightblue" points="889.53,-25.48 898.22,-19.43 887.65,-18.74 889.53,-25.48"/>
</g>
<!-- Node41&#45;&gt;Node23 -->
<g id="edge56" class="edge">
<title>Node41&#45;&gt;Node23</title>
<path fill="none" stroke="midnightblue" d="M753.83,-56.44C773.82,-47.6 805.24,-33.69 828.06,-23.59"/>
<polygon fill="midnightblue" stroke="midnightblue" points="829.53,-26.76 837.26,-19.52 826.7,-20.36 829.53,-26.76"/>
</g>
<!-- Node41&#45;&gt;Node35 -->
<g id="edge54" class="edge">
<title>Node41&#45;&gt;Node35</title>
<path fill="none" stroke="midnightblue" d="M743.58,-56.08C751.67,-48.14 763.7,-36.34 773.41,-26.8"/>
<polygon fill="midnightblue" stroke="midnightblue" points="775.9,-29.25 780.59,-19.75 771,-24.26 775.9,-29.25"/>
</g>
<!-- Node46&#45;&gt;Node5 -->
<g id="edge63" class="edge">
<title>Node46&#45;&gt;Node5</title>
<path fill="none" stroke="midnightblue" d="M1638.64,-57.45C1641.63,-56.9 1644.61,-56.4 1647.5,-56 1912.68,-18.98 2236.06,-12.42 2343.7,-11.25"/>
<polygon fill="midnightblue" stroke="midnightblue" points="2343.76,-14.75 2353.73,-11.15 2343.69,-7.75 2343.76,-14.75"/>
</g>
<!-- Node46&#45;&gt;Node25 -->
<g id="edge60" class="edge">
<title>Node46&#45;&gt;Node25</title>
<path fill="none" stroke="midnightblue" d="M1601.22,-56.08C1596.79,-48.61 1590.34,-37.72 1584.88,-28.52"/>
<polygon fill="midnightblue" stroke="midnightblue" points="1587.79,-26.57 1579.69,-19.75 1581.77,-30.14 1587.79,-26.57"/>
</g>
<!-- Node46&#45;&gt;Node35 -->
<g id="edge61" class="edge">
<title>Node46&#45;&gt;Node35</title>
<path fill="none" stroke="midnightblue" d="M1574.36,-57.41C1571.38,-56.87 1568.39,-56.38 1565.5,-56 1241.57,-12.9 1151.62,-69.34 824.86,-19.85"/>
<polygon fill="midnightblue" stroke="midnightblue" points="825.04,-16.34 814.63,-18.28 823.98,-23.26 825.04,-16.34"/>
</g>
<!-- Node47 -->
<g id="node44" class="node">
<title>Node47</title>
<g id="a_node44"><a xlink:title=" ">
<polygon fill="white" stroke="#bfbfbf" points="1616.5,-0.5 1616.5,-19.5 1658.5,-19.5 1658.5,-0.5 1616.5,-0.5"/>
<text text-anchor="middle" x="1637.5" y="-7.5" font-family="Helvetica,sans-Serif" font-size="10.00">array</text>
</a>
</g>
</g>
<!-- Node46&#45;&gt;Node47 -->
<g id="edge62" class="edge">
<title>Node46&#45;&gt;Node47</title>
<path fill="none" stroke="midnightblue" d="M1611.62,-56.08C1615.91,-48.61 1622.16,-37.72 1627.44,-28.52"/>
<polygon fill="midnightblue" stroke="midnightblue" points="1630.53,-30.17 1632.48,-19.75 1624.46,-26.68 1630.53,-30.17"/>
</g>
<!-- Node49&#45;&gt;Node7 -->
<g id="edge70" class="edge">
<title>Node49&#45;&gt;Node7</title>
<path fill="none" stroke="midnightblue" d="M2082.27,-120.85C1906.98,-119.93 1113.98,-113.7 1011.5,-76 984,-65.88 958.44,-43 943.14,-27.27"/>
<polygon fill="midnightblue" stroke="midnightblue" points="945.52,-24.7 936.12,-19.81 940.42,-29.49 945.52,-24.7"/>
</g>
<!-- Node49&#45;&gt;Node12 -->
<g id="edge77" class="edge">
<title>Node49&#45;&gt;Node12</title>
<path fill="none" stroke="midnightblue" d="M2082.5,-120.29C1913.49,-116.71 1146.94,-99.86 519.5,-76 466.97,-74 406.22,-70.96 368.32,-68.98"/>
<polygon fill="midnightblue" stroke="midnightblue" points="368.44,-65.48 358.27,-68.45 368.07,-72.47 368.44,-65.48"/>
</g>
<!-- Node49&#45;&gt;Node13 -->
<g id="edge78" class="edge">
<title>Node49&#45;&gt;Node13</title>
<path fill="none" stroke="midnightblue" d="M2103.97,-112.32C2091.91,-103.98 2073.47,-91.21 2059.23,-81.35"/>
<polygon fill="midnightblue" stroke="midnightblue" points="2061.22,-78.47 2051,-75.65 2057.23,-84.22 2061.22,-78.47"/>
</g>
<!-- Node49&#45;&gt;Node14 -->
<g id="edge79" class="edge">
<title>Node49&#45;&gt;Node14</title>
<path fill="none" stroke="midnightblue" d="M2150.53,-114.23C2155.21,-113.42 2159.97,-112.64 2164.5,-112 2325.31,-89.17 2369.15,-94.07 2534.65,-76.06"/>
<polygon fill="midnightblue" stroke="midnightblue" points="2535.13,-79.53 2544.68,-74.96 2534.36,-72.57 2535.13,-79.53"/>
</g>
<!-- Node49&#45;&gt;Node15 -->
<g id="edge80" class="edge">
<title>Node49&#45;&gt;Node15</title>
<path fill="none" stroke="midnightblue" d="M2150.79,-117.18C2166.54,-115.49 2185.46,-113.53 2202.5,-112 2410.94,-93.23 2466.78,-101.88 2678.23,-76.04"/>
<polygon fill="midnightblue" stroke="midnightblue" points="2678.92,-79.48 2688.42,-74.78 2678.06,-72.54 2678.92,-79.48"/>
</g>
<!-- Node49&#45;&gt;Node16 -->
<g id="edge81" class="edge">
<title>Node49&#45;&gt;Node16</title>
<path fill="none" stroke="midnightblue" d="M2150.71,-118.46C2175.61,-116.62 2210.14,-114.11 2240.5,-112 2478.48,-95.47 2541.42,-102.68 2782.22,-76.05"/>
<polygon fill="midnightblue" stroke="midnightblue" points="2782.79,-79.5 2792.34,-74.92 2782.01,-72.55 2782.79,-79.5"/>
</g>
<!-- Node49&#45;&gt;Node17 -->
<g id="edge82" class="edge">
<title>Node49&#45;&gt;Node17</title>
<path fill="none" stroke="midnightblue" d="M2150.65,-119.08C2290.19,-111.23 2813.27,-81.76 2896.24,-75.74"/>
<polygon fill="midnightblue" stroke="midnightblue" points="2896.66,-79.22 2906.33,-74.91 2896.08,-72.25 2896.66,-79.22"/>
</g>
<!-- Node49&#45;&gt;Node20 -->
<g id="edge69" class="edge">
<title>Node49&#45;&gt;Node20</title>
<path fill="none" stroke="midnightblue" d="M2116.86,-112.12C2116.91,-97.74 2114.65,-69.57 2097.5,-56 2081.11,-43.02 1431.25,-17.97 1277.06,-12.21"/>
<polygon fill="midnightblue" stroke="midnightblue" points="1276.96,-8.7 1266.84,-11.82 1276.7,-15.69 1276.96,-8.7"/>
</g>
<!-- Node49&#45;&gt;Node24 -->
<g id="edge73" class="edge">
<title>Node49&#45;&gt;Node24</title>
<path fill="none" stroke="midnightblue" d="M2082.45,-118.88C2014.62,-114.28 1857.7,-101.83 1716.77,-75.98"/>
<polygon fill="midnightblue" stroke="midnightblue" points="1717.13,-72.49 1706.66,-74.1 1715.85,-79.37 1717.13,-72.49"/>
</g>
<!-- Node49&#45;&gt;Node25 -->
<g id="edge71" class="edge">
<title>Node49&#45;&gt;Node25</title>
<path fill="none" stroke="midnightblue" d="M2150.64,-114.56C2211.47,-103 2332.56,-79.6 2335.5,-76 2341.12,-69.11 2341.63,-62.44 2335.5,-56 2281.46,0.77 1725.09,-30.55 1608.33,-19.37"/>
<polygon fill="midnightblue" stroke="midnightblue" points="1608.51,-15.87 1598.16,-18.11 1607.65,-22.82 1608.51,-15.87"/>
</g>
<!-- Node49&#45;&gt;Node26 -->
<g id="edge74" class="edge">
<title>Node49&#45;&gt;Node26</title>
<path fill="none" stroke="midnightblue" d="M2082.05,-118.15C2022.2,-112.84 1895.07,-99.91 1778.88,-76.01"/>
<polygon fill="midnightblue" stroke="midnightblue" points="1779.25,-72.52 1768.75,-73.89 1777.82,-79.37 1779.25,-72.52"/>
</g>
<!-- Node49&#45;&gt;Node30 -->
<g id="edge72" class="edge">
<title>Node49&#45;&gt;Node30</title>
<path fill="none" stroke="midnightblue" d="M2082.33,-115.49C2034.83,-107.74 1945.96,-92.85 1860.56,-76.14"/>
<polygon fill="midnightblue" stroke="midnightblue" points="1861.19,-72.7 1850.7,-74.2 1859.84,-79.57 1861.19,-72.7"/>
</g>
<!-- Node49&#45;&gt;Node36 -->
<g id="edge84" class="edge">
<title>Node49&#45;&gt;Node36</title>
<path fill="none" stroke="midnightblue" d="M2085.28,-112.44C2051.57,-103.2 1997.7,-88.44 1960.57,-78.26"/>
<polygon fill="midnightblue" stroke="midnightblue" points="1961.14,-74.78 1950.57,-75.52 1959.29,-81.54 1961.14,-74.78"/>
</g>
<!-- Node50 -->
<g id="node47" class="node">
<title>Node50</title>
<g id="a_node47"><a xlink:title=" ">
<polygon fill="white" stroke="#bfbfbf" points="2144.5,-56.5 2144.5,-75.5 2224.5,-75.5 2224.5,-56.5 2144.5,-56.5"/>
<text text-anchor="middle" x="2184.5" y="-63.5" font-family="Helvetica,sans-Serif" font-size="10.00">SDL_image.h</text>
</a>
</g>
</g>
<!-- Node49&#45;&gt;Node50 -->
<g id="edge75" class="edge">
<title>Node49&#45;&gt;Node50</title>
<path fill="none" stroke="midnightblue" d="M2127.43,-112.32C2137.67,-104.18 2153.22,-91.84 2165.5,-82.09"/>
<polygon fill="midnightblue" stroke="midnightblue" points="2167.72,-84.79 2173.38,-75.83 2163.37,-79.31 2167.72,-84.79"/>
</g>
<!-- Node51 -->
<g id="node48" class="node">
<title>Node51</title>
<g id="a_node48"><a xlink:title=" ">
<polygon fill="white" stroke="#bfbfbf" points="2243,-56.5 2243,-75.5 2326,-75.5 2326,-56.5 2243,-56.5"/>
<text text-anchor="middle" x="2284.5" y="-63.5" font-family="Helvetica,sans-Serif" font-size="10.00">SDL_opengl.h</text>
</a>
</g>
</g>
<!-- Node49&#45;&gt;Node51 -->
<g id="edge76" class="edge">
<title>Node49&#45;&gt;Node51</title>
<path fill="none" stroke="midnightblue" d="M2143.12,-112.44C2171.51,-103.32 2216.64,-88.81 2248.25,-78.65"/>
<polygon fill="midnightblue" stroke="midnightblue" points="2249.56,-81.91 2258,-75.52 2247.41,-75.24 2249.56,-81.91"/>
</g>
<!-- Node52 -->
<g id="node49" class="node">
<title>Node52</title>
<g id="a_node49"><a xlink:title=" ">
<polygon fill="white" stroke="#bfbfbf" points="2382.5,-56.5 2382.5,-75.5 2448.5,-75.5 2448.5,-56.5 2382.5,-56.5"/>
<text text-anchor="middle" x="2415.5" y="-63.5" font-family="Helvetica,sans-Serif" font-size="10.00">libnpy.hpp</text>
</a>
</g>
</g>
<!-- Node49&#45;&gt;Node52 -->
<g id="edge83" class="edge">
<title>Node49&#45;&gt;Node52</title>
<path fill="none" stroke="midnightblue" d="M2150.58,-114.56C2155.26,-113.69 2160,-112.82 2164.5,-112 2255.08,-95.52 2277.95,-92.66 2368.5,-76 2369.76,-75.77 2371.05,-75.53 2372.34,-75.29"/>
<polygon fill="midnightblue" stroke="midnightblue" points="2373.2,-78.69 2382.39,-73.4 2371.91,-71.81 2373.2,-78.69"/>
</g>
<!-- Node53 -->
<g id="node50" class="node">
<title>Node53</title>
<g id="a_node50"><a xlink:title=" ">
<polygon fill="white" stroke="#bfbfbf" points="2466.5,-56.5 2466.5,-75.5 2526.5,-75.5 2526.5,-56.5 2466.5,-56.5"/>
<text text-anchor="middle" x="2496.5" y="-63.5" font-family="Helvetica,sans-Serif" font-size="10.00">fft2d.hpp</text>
</a>
</g>
</g>
<!-- Node49&#45;&gt;Node53 -->
<g id="edge85" class="edge">
<title>Node49&#45;&gt;Node53</title>
<path fill="none" stroke="midnightblue" d="M2150.54,-114.34C2155.22,-113.51 2159.98,-112.7 2164.5,-112 2290.99,-92.39 2326.57,-98.46 2456.4,-76.03"/>
<polygon fill="midnightblue" stroke="midnightblue" points="2457.08,-79.46 2466.33,-74.29 2455.88,-72.57 2457.08,-79.46"/>
</g>
</g>
</svg>
