<?xml version="1.0" encoding="UTF-8" standalone="no"?>
<!DOCTYPE svg PUBLIC "-//W3C//DTD SVG 1.1//EN"
 "http://www.w3.org/Graphics/SVG/1.1/DTD/svg11.dtd">
<!-- Generated by graphviz version 2.43.0 (0)
 -->
<!-- Title: src/main.cpp Pages: 1 -->
<svg width="1847pt" height="196pt"
 viewBox="0.00 0.00 1846.50 196.00" xmlns="http://www.w3.org/2000/svg" xmlns:xlink="http://www.w3.org/1999/xlink">
<g id="graph0" class="graph" transform="scale(1 1) rotate(0) translate(4 192)">
<title>src/main.cpp</title>
<polygon fill="white" stroke="transparent" points="-4,4 -4,-192 1842.5,-192 1842.5,4 -4,4"/>
<!-- Node1 -->
<g id="node1" class="node">
<title>Node1</title>
<g id="a_node1"><a xlink:title=" ">
<polygon fill="#bfbfbf" stroke="black" points="686,-168.5 686,-187.5 765,-187.5 765,-168.5 686,-168.5"/>
<text text-anchor="middle" x="725.5" y="-175.5" font-family="Helvetica,sans-Serif" font-size="10.00">src/main.cpp</text>
</a>
</g>
</g>
<!-- Node2 -->
<g id="node2" class="node">
<title>Node2</title>
<g id="a_node2"><a xlink:href="../../de/dfc/Ricom_8h.html" target="_top" xlink:title=" ">
<polygon fill="white" stroke="black" points="1048.5,-112.5 1048.5,-131.5 1104.5,-131.5 1104.5,-112.5 1048.5,-112.5"/>
<text text-anchor="middle" x="1076.5" y="-119.5" font-family="Helvetica,sans-Serif" font-size="10.00">Ricom.h</text>
</a>
</g>
</g>
<!-- Node1&#45;&gt;Node2 -->
<g id="edge1" class="edge">
<title>Node1&#45;&gt;Node2</title>
<path fill="none" stroke="midnightblue" d="M765.08,-170.91C832.99,-160.46 970.83,-139.26 1037.99,-128.92"/>
<polygon fill="midnightblue" stroke="midnightblue" points="1038.79,-132.34 1048.14,-127.36 1037.73,-125.42 1038.79,-132.34"/>
</g>
<!-- Node33 -->
<g id="node33" class="node">
<title>Node33</title>
<g id="a_node33"><a xlink:href="../../dd/de4/Camera_8h.html" target="_top" xlink:title=" ">
<polygon fill="white" stroke="black" points="169.5,-56.5 169.5,-75.5 233.5,-75.5 233.5,-56.5 169.5,-56.5"/>
<text text-anchor="middle" x="201.5" y="-63.5" font-family="Helvetica,sans-Serif" font-size="10.00">Camera.h</text>
</a>
</g>
</g>
<!-- Node1&#45;&gt;Node33 -->
<g id="edge47" class="edge">
<title>Node1&#45;&gt;Node33</title>
<path fill="none" stroke="midnightblue" d="M685.68,-168.64C589.03,-148.35 342.69,-96.64 243.66,-75.85"/>
<polygon fill="midnightblue" stroke="midnightblue" points="244.22,-72.39 233.72,-73.76 242.78,-79.24 244.22,-72.39"/>
</g>
<!-- Node3 -->
<g id="node3" class="node">
<title>Node3</title>
<g id="a_node3"><a xlink:title=" ">
<polygon fill="white" stroke="#bfbfbf" points="1451.5,-0.5 1451.5,-19.5 1507.5,-19.5 1507.5,-0.5 1451.5,-0.5"/>
<text text-anchor="middle" x="1479.5" y="-7.5" font-family="Helvetica,sans-Serif" font-size="10.00">unistd.h</text>
</a>
</g>
</g>
<!-- Node2&#45;&gt;Node3 -->
<g id="edge2" class="edge">
<title>Node2&#45;&gt;Node3</title>
<path fill="none" stroke="midnightblue" d="M1104.52,-120.28C1233.02,-116.84 1760.82,-101.23 1784.5,-76 1790.58,-69.52 1790.31,-62.73 1784.5,-56 1767.28,-36.05 1595.97,-20.16 1517.91,-13.89"/>
<polygon fill="midnightblue" stroke="midnightblue" points="1517.78,-10.37 1507.54,-13.07 1517.23,-17.35 1517.78,-10.37"/>
</g>
<!-- Node4 -->
<g id="node4" class="node">
<title>Node4</title>
<g id="a_node4"><a xlink:title=" ">
<polygon fill="white" stroke="#bfbfbf" points="1657,-0.5 1657,-19.5 1704,-19.5 1704,-0.5 1657,-0.5"/>
<text text-anchor="middle" x="1680.5" y="-7.5" font-family="Helvetica,sans-Serif" font-size="10.00">cmath</text>
</a>
</g>
</g>
<!-- Node2&#45;&gt;Node4 -->
<g id="edge3" class="edge">
<title>Node2&#45;&gt;Node4</title>
<path fill="none" stroke="midnightblue" d="M1104.71,-120.32C1235.35,-117.01 1776.24,-101.81 1800.5,-76 1829.63,-45.01 1758.9,-25.52 1714.03,-16.64"/>
<polygon fill="midnightblue" stroke="midnightblue" points="1714.56,-13.18 1704.08,-14.76 1713.26,-20.05 1714.56,-13.18"/>
</g>
<!-- Node5 -->
<g id="node5" class="node">
<title>Node5</title>
<g id="a_node5"><a xlink:title=" ">
<polygon fill="white" stroke="#bfbfbf" points="943.5,-56.5 943.5,-75.5 993.5,-75.5 993.5,-56.5 943.5,-56.5"/>
<text text-anchor="middle" x="968.5" y="-63.5" font-family="Helvetica,sans-Serif" font-size="10.00">stdio.h</text>
</a>
</g>
</g>
<!-- Node2&#45;&gt;Node5 -->
<g id="edge4" class="edge">
<title>Node2&#45;&gt;Node5</title>
<path fill="none" stroke="midnightblue" d="M1059.15,-112.32C1041.83,-103.66 1014.98,-90.24 995,-80.25"/>
<polygon fill="midnightblue" stroke="midnightblue" points="996.32,-77 985.81,-75.65 993.19,-83.26 996.32,-77"/>
</g>
<!-- Node6 -->
<g id="node6" class="node">
<title>Node6</title>
<g id="a_node6"><a xlink:title=" ">
<polygon fill="white" stroke="#bfbfbf" points="1012,-56.5 1012,-75.5 1071,-75.5 1071,-56.5 1012,-56.5"/>
<text text-anchor="middle" x="1041.5" y="-63.5" font-family="Helvetica,sans-Serif" font-size="10.00">complex</text>
</a>
</g>
</g>
<!-- Node2&#45;&gt;Node6 -->
<g id="edge5" class="edge">
<title>Node2&#45;&gt;Node6</title>
<path fill="none" stroke="midnightblue" d="M1070.72,-112.08C1065.83,-104.53 1058.67,-93.49 1052.67,-84.23"/>
<polygon fill="midnightblue" stroke="midnightblue" points="1055.55,-82.24 1047.17,-75.75 1049.67,-86.05 1055.55,-82.24"/>
</g>
<!-- Node7 -->
<g id="node7" class="node">
<title>Node7</title>
<g id="a_node7"><a xlink:title=" ">
<polygon fill="white" stroke="#bfbfbf" points="1089.5,-56.5 1089.5,-75.5 1133.5,-75.5 1133.5,-56.5 1089.5,-56.5"/>
<text text-anchor="middle" x="1111.5" y="-63.5" font-family="Helvetica,sans-Serif" font-size="10.00">cfloat</text>
</a>
</g>
</g>
<!-- Node2&#45;&gt;Node7 -->
<g id="edge6" class="edge">
<title>Node2&#45;&gt;Node7</title>
<path fill="none" stroke="midnightblue" d="M1082.28,-112.08C1087.17,-104.53 1094.33,-93.49 1100.33,-84.23"/>
<polygon fill="midnightblue" stroke="midnightblue" points="1103.33,-86.05 1105.83,-75.75 1097.45,-82.24 1103.33,-86.05"/>
</g>
<!-- Node8 -->
<g id="node8" class="node">
<title>Node8</title>
<g id="a_node8"><a xlink:title=" ">
<polygon fill="white" stroke="#bfbfbf" points="132,-0.5 132,-19.5 179,-19.5 179,-0.5 132,-0.5"/>
<text text-anchor="middle" x="155.5" y="-7.5" font-family="Helvetica,sans-Serif" font-size="10.00">vector</text>
</a>
</g>
</g>
<!-- Node2&#45;&gt;Node8 -->
<g id="edge7" class="edge">
<title>Node2&#45;&gt;Node8</title>
<path fill="none" stroke="midnightblue" d="M1048.46,-120.76C957.26,-119.64 661.04,-113.15 419.5,-76 335.26,-63.04 238.52,-36.03 188.82,-21.23"/>
<polygon fill="midnightblue" stroke="midnightblue" points="189.82,-17.88 179.24,-18.36 187.81,-24.58 189.82,-17.88"/>
</g>
<!-- Node9 -->
<g id="node9" class="node">
<title>Node9</title>
<g id="a_node9"><a xlink:title=" ">
<polygon fill="white" stroke="#bfbfbf" points="670.5,-0.5 670.5,-19.5 714.5,-19.5 714.5,-0.5 670.5,-0.5"/>
<text text-anchor="middle" x="692.5" y="-7.5" font-family="Helvetica,sans-Serif" font-size="10.00">string</text>
</a>
</g>
</g>
<!-- Node2&#45;&gt;Node9 -->
<g id="edge8" class="edge">
<title>Node2&#45;&gt;Node9</title>
<path fill="none" stroke="midnightblue" d="M1048.4,-119.87C963.1,-116.14 711.5,-102.93 687.5,-76 676.35,-63.49 679.77,-43.71 684.64,-29.25"/>
<polygon fill="midnightblue" stroke="midnightblue" points="687.93,-30.43 688.25,-19.84 681.4,-27.92 687.93,-30.43"/>
</g>
<!-- Node10 -->
<g id="node10" class="node">
<title>Node10</title>
<g id="a_node10"><a xlink:title=" ">
<polygon fill="white" stroke="#bfbfbf" points="1151.5,-56.5 1151.5,-75.5 1195.5,-75.5 1195.5,-56.5 1151.5,-56.5"/>
<text text-anchor="middle" x="1173.5" y="-63.5" font-family="Helvetica,sans-Serif" font-size="10.00">SDL.h</text>
</a>
</g>
</g>
<!-- Node2&#45;&gt;Node10 -->
<g id="edge9" class="edge">
<title>Node2&#45;&gt;Node10</title>
<path fill="none" stroke="midnightblue" d="M1092.08,-112.32C1107.5,-103.74 1131.31,-90.49 1149.21,-80.52"/>
<polygon fill="midnightblue" stroke="midnightblue" points="1150.92,-83.58 1157.95,-75.65 1147.51,-77.46 1150.92,-83.58"/>
</g>
<!-- Node11 -->
<g id="node11" class="node">
<title>Node11</title>
<g id="a_node11"><a xlink:title=" ">
<polygon fill="white" stroke="#bfbfbf" points="604.5,-0.5 604.5,-19.5 652.5,-19.5 652.5,-0.5 604.5,-0.5"/>
<text text-anchor="middle" x="628.5" y="-7.5" font-family="Helvetica,sans-Serif" font-size="10.00">mutex</text>
</a>
</g>
</g>
<!-- Node2&#45;&gt;Node11 -->
<g id="edge10" class="edge">
<title>Node2&#45;&gt;Node11</title>
<path fill="none" stroke="midnightblue" d="M1048.46,-120.75C968.17,-119.6 739.03,-113.07 675.5,-76 657.13,-65.28 643.95,-44.21 636.3,-28.96"/>
<polygon fill="midnightblue" stroke="midnightblue" points="639.3,-27.11 631.9,-19.53 632.96,-30.07 639.3,-27.11"/>
</g>
<!-- Node12 -->
<g id="node12" class="node">
<title>Node12</title>
<g id="a_node12"><a xlink:title=" ">
<polygon fill="white" stroke="#bfbfbf" points="1213.5,-56.5 1213.5,-75.5 1259.5,-75.5 1259.5,-56.5 1213.5,-56.5"/>
<text text-anchor="middle" x="1236.5" y="-63.5" font-family="Helvetica,sans-Serif" font-size="10.00">future</text>
</a>
</g>
</g>
<!-- Node2&#45;&gt;Node12 -->
<g id="edge11" class="edge">
<title>Node2&#45;&gt;Node12</title>
<path fill="none" stroke="midnightblue" d="M1101.85,-112.44C1129.4,-103.15 1173.52,-88.26 1203.69,-78.07"/>
<polygon fill="midnightblue" stroke="midnightblue" points="1204.99,-81.33 1213.34,-74.82 1202.75,-74.7 1204.99,-81.33"/>
</g>
<!-- Node13 -->
<g id="node13" class="node">
<title>Node13</title>
<g id="a_node13"><a xlink:title=" ">
<polygon fill="white" stroke="#bfbfbf" points="538.5,-0.5 538.5,-19.5 586.5,-19.5 586.5,-0.5 538.5,-0.5"/>
<text text-anchor="middle" x="562.5" y="-7.5" font-family="Helvetica,sans-Serif" font-size="10.00">thread</text>
</a>
</g>
</g>
<!-- Node2&#45;&gt;Node13 -->
<g id="edge12" class="edge">
<title>Node2&#45;&gt;Node13</title>
<path fill="none" stroke="midnightblue" d="M1048.34,-119.98C965.32,-116.65 722.73,-104.68 649.5,-76 621.39,-64.99 594.42,-42.33 578.15,-26.9"/>
<polygon fill="midnightblue" stroke="midnightblue" points="580.27,-24.07 570.67,-19.59 575.37,-29.08 580.27,-24.07"/>
</g>
<!-- Node14 -->
<g id="node14" class="node">
<title>Node14</title>
<g id="a_node14"><a xlink:title=" ">
<polygon fill="white" stroke="#bfbfbf" points="1277.5,-56.5 1277.5,-75.5 1327.5,-75.5 1327.5,-56.5 1277.5,-56.5"/>
<text text-anchor="middle" x="1302.5" y="-63.5" font-family="Helvetica,sans-Serif" font-size="10.00">fftw3.h</text>
</a>
</g>
</g>
<!-- Node2&#45;&gt;Node14 -->
<g id="edge13" class="edge">
<title>Node2&#45;&gt;Node14</title>
<path fill="none" stroke="midnightblue" d="M1104.54,-114.69C1140.16,-106.62 1203.76,-92.02 1267.46,-76.21"/>
<polygon fill="midnightblue" stroke="midnightblue" points="1268.41,-79.58 1277.27,-73.76 1266.72,-72.79 1268.41,-79.58"/>
</g>
<!-- Node15 -->
<g id="node15" class="node">
<title>Node15</title>
<g id="a_node15"><a xlink:title=" ">
<polygon fill="white" stroke="#bfbfbf" points="1788.5,-0.5 1788.5,-19.5 1838.5,-19.5 1838.5,-0.5 1788.5,-0.5"/>
<text text-anchor="middle" x="1813.5" y="-7.5" font-family="Helvetica,sans-Serif" font-size="10.00">chrono</text>
</a>
</g>
</g>
<!-- Node2&#45;&gt;Node15 -->
<g id="edge14" class="edge">
<title>Node2&#45;&gt;Node15</title>
<path fill="none" stroke="midnightblue" d="M1104.93,-120.35C1237.85,-117.19 1792.63,-102.43 1817.5,-76 1828.97,-63.81 1825.84,-43.98 1821.15,-29.42"/>
<polygon fill="midnightblue" stroke="midnightblue" points="1824.4,-28.11 1817.65,-19.94 1817.83,-30.53 1824.4,-28.11"/>
</g>
<!-- Node16 -->
<g id="node16" class="node">
<title>Node16</title>
<g id="a_node16"><a xlink:title=" ">
<polygon fill="white" stroke="#bfbfbf" points="1345.5,-56.5 1345.5,-75.5 1409.5,-75.5 1409.5,-56.5 1345.5,-56.5"/>
<text text-anchor="middle" x="1377.5" y="-63.5" font-family="Helvetica,sans-Serif" font-size="10.00">algorithm</text>
</a>
</g>
</g>
<!-- Node2&#45;&gt;Node16 -->
<g id="edge15" class="edge">
<title>Node2&#45;&gt;Node16</title>
<path fill="none" stroke="midnightblue" d="M1104.66,-116.55C1150.77,-109.17 1245.47,-93.64 1335.48,-76.13"/>
<polygon fill="midnightblue" stroke="midnightblue" points="1336.16,-79.57 1345.3,-74.21 1334.81,-72.7 1336.16,-79.57"/>
</g>
<!-- Node17 -->
<g id="node17" class="node">
<title>Node17</title>
<g id="a_node17"><a xlink:href="../../d7/d50/BoundedThreadPool_8hpp.html" target="_top" xlink:title=" ">
<polygon fill="white" stroke="black" points="428,-56.5 428,-75.5 563,-75.5 563,-56.5 428,-56.5"/>
<text text-anchor="middle" x="495.5" y="-63.5" font-family="Helvetica,sans-Serif" font-size="10.00">BoundedThreadPool.hpp</text>
</a>
</g>
</g>
<!-- Node2&#45;&gt;Node17 -->
<g id="edge16" class="edge">
<title>Node2&#45;&gt;Node17</title>
<path fill="none" stroke="midnightblue" d="M1048.35,-118.65C972.34,-112.28 756.66,-93.91 577.5,-76 576.03,-75.85 574.55,-75.7 573.05,-75.55"/>
<polygon fill="midnightblue" stroke="midnightblue" points="573.36,-72.07 563.06,-74.52 572.65,-79.03 573.36,-72.07"/>
</g>
<!-- Node23 -->
<g id="node23" class="node">
<title>Node23</title>
<g id="a_node23"><a xlink:title=" ">
<polygon fill="white" stroke="#bfbfbf" points="1427.5,-56.5 1427.5,-75.5 1529.5,-75.5 1529.5,-56.5 1427.5,-56.5"/>
<text text-anchor="middle" x="1478.5" y="-63.5" font-family="Helvetica,sans-Serif" font-size="10.00">tinycolormap.hpp</text>
</a>
</g>
</g>
<!-- Node2&#45;&gt;Node23 -->
<g id="edge24" class="edge">
<title>Node2&#45;&gt;Node23</title>
<path fill="none" stroke="midnightblue" d="M1104.9,-117.44C1162,-110.24 1295.01,-93.29 1417.52,-76.12"/>
<polygon fill="midnightblue" stroke="midnightblue" points="1418.03,-79.58 1427.45,-74.72 1417.06,-72.65 1418.03,-79.58"/>
</g>
<!-- Node24 -->
<g id="node24" class="node">
<title>Node24</title>
<g id="a_node24"><a xlink:href="../../d0/d3c/SocketConnector_8h.html" target="_top" xlink:title=" ">
<polygon fill="white" stroke="black" points="696,-56.5 696,-75.5 803,-75.5 803,-56.5 696,-56.5"/>
<text text-anchor="middle" x="749.5" y="-63.5" font-family="Helvetica,sans-Serif" font-size="10.00">SocketConnector.h</text>
</a>
</g>
</g>
<!-- Node2&#45;&gt;Node24 -->
<g id="edge25" class="edge">
<title>Node2&#45;&gt;Node24</title>
<path fill="none" stroke="midnightblue" d="M1048.34,-116.35C995.92,-107.69 882.27,-88.93 811.21,-77.19"/>
<polygon fill="midnightblue" stroke="midnightblue" points="811.49,-73.69 801.05,-75.51 810.35,-80.6 811.49,-73.69"/>
</g>
<!-- Node28 -->
<g id="node28" class="node">
<title>Node28</title>
<g id="a_node28"><a xlink:href="../../da/dce/ProgressMonitor_8h.html" target="_top" xlink:title=" ">
<polygon fill="white" stroke="black" points="821.5,-56.5 821.5,-75.5 925.5,-75.5 925.5,-56.5 821.5,-56.5"/>
<text text-anchor="middle" x="873.5" y="-63.5" font-family="Helvetica,sans-Serif" font-size="10.00">ProgressMonitor.h</text>
</a>
</g>
</g>
<!-- Node2&#45;&gt;Node28 -->
<g id="edge32" class="edge">
<title>Node2&#45;&gt;Node28</title>
<path fill="none" stroke="midnightblue" d="M1048.27,-113.49C1013.73,-104.3 954.92,-88.66 915.17,-78.08"/>
<polygon fill="midnightblue" stroke="midnightblue" points="916.06,-74.7 905.5,-75.51 914.26,-81.46 916.06,-74.7"/>
</g>
<!-- Node31 -->
<g id="node31" class="node">
<title>Node31</title>
<g id="a_node31"><a xlink:title=" ">
<polygon fill="white" stroke="#bfbfbf" points="1547.5,-56.5 1547.5,-75.5 1647.5,-75.5 1647.5,-56.5 1547.5,-56.5"/>
<text text-anchor="middle" x="1597.5" y="-63.5" font-family="Helvetica,sans-Serif" font-size="10.00">MerlinInterface.h</text>
</a>
</g>
</g>
<!-- Node2&#45;&gt;Node31 -->
<g id="edge40" class="edge">
<title>Node2&#45;&gt;Node31</title>
<path fill="none" stroke="midnightblue" d="M1104.68,-118.79C1175.51,-113.13 1366.9,-97.11 1537.16,-76.11"/>
<polygon fill="midnightblue" stroke="midnightblue" points="1537.82,-79.55 1547.31,-74.85 1536.96,-72.61 1537.82,-79.55"/>
</g>
<!-- Node32 -->
<g id="node32" class="node">
<title>Node32</title>
<g id="a_node32"><a xlink:title=" ">
<polygon fill="white" stroke="#bfbfbf" points="1666,-56.5 1666,-75.5 1775,-75.5 1775,-56.5 1666,-56.5"/>
<text text-anchor="middle" x="1720.5" y="-63.5" font-family="Helvetica,sans-Serif" font-size="10.00">TimepixInterface.h</text>
</a>
</g>
</g>
<!-- Node2&#45;&gt;Node32 -->
<g id="edge41" class="edge">
<title>Node2&#45;&gt;Node32</title>
<path fill="none" stroke="midnightblue" d="M1104.62,-119.44C1187.34,-114.72 1437.18,-99.53 1655.66,-76.02"/>
<polygon fill="midnightblue" stroke="midnightblue" points="1656.15,-79.49 1665.72,-74.93 1655.4,-72.53 1656.15,-79.49"/>
</g>
<!-- Node2&#45;&gt;Node33 -->
<g id="edge42" class="edge">
<title>Node2&#45;&gt;Node33</title>
<path fill="none" stroke="midnightblue" d="M1048.38,-119.33C950.54,-113.49 615.84,-93.45 339.5,-76 307.31,-73.97 270.9,-71.59 243.57,-69.79"/>
<polygon fill="midnightblue" stroke="midnightblue" points="243.77,-66.29 233.56,-69.13 243.31,-73.28 243.77,-66.29"/>
</g>
<!-- Node17&#45;&gt;Node11 -->
<g id="edge20" class="edge">
<title>Node17&#45;&gt;Node11</title>
<path fill="none" stroke="midnightblue" d="M516.57,-56.44C538.56,-47.52 573.23,-33.44 598.16,-23.32"/>
<polygon fill="midnightblue" stroke="midnightblue" points="599.58,-26.52 607.52,-19.52 596.94,-20.04 599.58,-26.52"/>
</g>
<!-- Node17&#45;&gt;Node13 -->
<g id="edge17" class="edge">
<title>Node17&#45;&gt;Node13</title>
<path fill="none" stroke="midnightblue" d="M506.26,-56.32C516.27,-48.26 531.39,-36.08 543.43,-26.37"/>
<polygon fill="midnightblue" stroke="midnightblue" points="545.95,-28.83 551.54,-19.83 541.56,-23.38 545.95,-28.83"/>
</g>
<!-- Node18 -->
<g id="node18" class="node">
<title>Node18</title>
<g id="a_node18"><a xlink:title=" ">
<polygon fill="white" stroke="#bfbfbf" points="405,-0.5 405,-19.5 452,-19.5 452,-0.5 405,-0.5"/>
<text text-anchor="middle" x="428.5" y="-7.5" font-family="Helvetica,sans-Serif" font-size="10.00">queue</text>
</a>
</g>
</g>
<!-- Node17&#45;&gt;Node18 -->
<g id="edge18" class="edge">
<title>Node17&#45;&gt;Node18</title>
<path fill="none" stroke="midnightblue" d="M484.74,-56.32C474.73,-48.26 459.61,-36.08 447.57,-26.37"/>
<polygon fill="midnightblue" stroke="midnightblue" points="449.44,-23.38 439.46,-19.83 445.05,-28.83 449.44,-23.38"/>
</g>
<!-- Node19 -->
<g id="node19" class="node">
<title>Node19</title>
<g id="a_node19"><a xlink:title=" ">
<polygon fill="white" stroke="#bfbfbf" points="197,-0.5 197,-19.5 262,-19.5 262,-0.5 197,-0.5"/>
<text text-anchor="middle" x="229.5" y="-7.5" font-family="Helvetica,sans-Serif" font-size="10.00">functional</text>
</a>
</g>
</g>
<!-- Node17&#45;&gt;Node19 -->
<g id="edge19" class="edge">
<title>Node17&#45;&gt;Node19</title>
<path fill="none" stroke="midnightblue" d="M452.11,-56.45C409.07,-47.94 340.98,-34.37 272.2,-20.12"/>
<polygon fill="midnightblue" stroke="midnightblue" points="272.55,-16.62 262.05,-18.02 271.13,-23.48 272.55,-16.62"/>
</g>
<!-- Node20 -->
<g id="node20" class="node">
<title>Node20</title>
<g id="a_node20"><a xlink:title=" ">
<polygon fill="white" stroke="#bfbfbf" points="280,-0.5 280,-19.5 387,-19.5 387,-0.5 280,-0.5"/>
<text text-anchor="middle" x="333.5" y="-7.5" font-family="Helvetica,sans-Serif" font-size="10.00">condition_variable</text>
</a>
</g>
</g>
<!-- Node17&#45;&gt;Node20 -->
<g id="edge21" class="edge">
<title>Node17&#45;&gt;Node20</title>
<path fill="none" stroke="midnightblue" d="M469.83,-56.44C442.58,-47.36 399.32,-32.94 368.85,-22.78"/>
<polygon fill="midnightblue" stroke="midnightblue" points="369.64,-19.36 359.05,-19.52 367.43,-26 369.64,-19.36"/>
</g>
<!-- Node21 -->
<g id="node21" class="node">
<title>Node21</title>
<g id="a_node21"><a xlink:title=" ">
<polygon fill="white" stroke="#bfbfbf" points="470.5,-0.5 470.5,-19.5 520.5,-19.5 520.5,-0.5 470.5,-0.5"/>
<text text-anchor="middle" x="495.5" y="-7.5" font-family="Helvetica,sans-Serif" font-size="10.00">atomic</text>
</a>
</g>
</g>
<!-- Node17&#45;&gt;Node21 -->
<g id="edge22" class="edge">
<title>Node17&#45;&gt;Node21</title>
<path fill="none" stroke="midnightblue" d="M495.5,-56.08C495.5,-49.01 495.5,-38.86 495.5,-29.99"/>
<polygon fill="midnightblue" stroke="midnightblue" points="499,-29.75 495.5,-19.75 492,-29.75 499,-29.75"/>
</g>
<!-- Node22 -->
<g id="node22" class="node">
<title>Node22</title>
<g id="a_node22"><a xlink:title=" ">
<polygon fill="white" stroke="#bfbfbf" points="732.5,-0.5 732.5,-19.5 792.5,-19.5 792.5,-0.5 732.5,-0.5"/>
<text text-anchor="middle" x="762.5" y="-7.5" font-family="Helvetica,sans-Serif" font-size="10.00">iostream</text>
</a>
</g>
</g>
<!-- Node17&#45;&gt;Node22 -->
<g id="edge23" class="edge">
<title>Node17&#45;&gt;Node22</title>
<path fill="none" stroke="midnightblue" d="M541.01,-56.46C584.93,-48.12 653.56,-34.83 722.17,-20.23"/>
<polygon fill="midnightblue" stroke="midnightblue" points="723.24,-23.58 732.29,-18.07 721.78,-16.74 723.24,-23.58"/>
</g>
<!-- Node24&#45;&gt;Node3 -->
<g id="edge27" class="edge">
<title>Node24&#45;&gt;Node3</title>
<path fill="none" stroke="midnightblue" d="M803.08,-57.07C806.27,-56.68 809.42,-56.32 812.5,-56 1051.07,-30.95 1339.19,-17.01 1441.34,-12.58"/>
<polygon fill="midnightblue" stroke="midnightblue" points="1441.64,-16.07 1451.48,-12.14 1441.34,-9.07 1441.64,-16.07"/>
</g>
<!-- Node24&#45;&gt;Node9 -->
<g id="edge30" class="edge">
<title>Node24&#45;&gt;Node9</title>
<path fill="none" stroke="midnightblue" d="M740.34,-56.32C732,-48.42 719.47,-36.55 709.32,-26.94"/>
<polygon fill="midnightblue" stroke="midnightblue" points="711.49,-24.17 701.82,-19.83 706.68,-29.25 711.49,-24.17"/>
</g>
<!-- Node24&#45;&gt;Node22 -->
<g id="edge31" class="edge">
<title>Node24&#45;&gt;Node22</title>
<path fill="none" stroke="midnightblue" d="M751.65,-56.08C753.37,-48.93 755.85,-38.64 758,-29.69"/>
<polygon fill="midnightblue" stroke="midnightblue" points="761.46,-30.29 760.39,-19.75 754.65,-28.65 761.46,-30.29"/>
</g>
<!-- Node25 -->
<g id="node25" class="node">
<title>Node25</title>
<g id="a_node25"><a xlink:title=" ">
<polygon fill="white" stroke="#bfbfbf" points="811,-0.5 811,-19.5 880,-19.5 880,-0.5 811,-0.5"/>
<text text-anchor="middle" x="845.5" y="-7.5" font-family="Helvetica,sans-Serif" font-size="10.00">arpa/inet.h</text>
</a>
</g>
</g>
<!-- Node24&#45;&gt;Node25 -->
<g id="edge26" class="edge">
<title>Node24&#45;&gt;Node25</title>
<path fill="none" stroke="midnightblue" d="M764.92,-56.32C780.04,-47.82 803.32,-34.73 820.97,-24.8"/>
<polygon fill="midnightblue" stroke="midnightblue" points="823.11,-27.61 830.11,-19.65 819.68,-21.51 823.11,-27.61"/>
</g>
<!-- Node26 -->
<g id="node26" class="node">
<title>Node26</title>
<g id="a_node26"><a xlink:title=" ">
<polygon fill="white" stroke="#bfbfbf" points="898,-0.5 898,-19.5 945,-19.5 945,-0.5 898,-0.5"/>
<text text-anchor="middle" x="921.5" y="-7.5" font-family="Helvetica,sans-Serif" font-size="10.00">cerrno</text>
</a>
</g>
</g>
<!-- Node24&#45;&gt;Node26 -->
<g id="edge28" class="edge">
<title>Node24&#45;&gt;Node26</title>
<path fill="none" stroke="midnightblue" d="M776.75,-56.44C806.93,-46.97 855.58,-31.7 888.04,-21.5"/>
<polygon fill="midnightblue" stroke="midnightblue" points="889.47,-24.72 897.97,-18.39 887.38,-18.04 889.47,-24.72"/>
</g>
<!-- Node27 -->
<g id="node27" class="node">
<title>Node27</title>
<g id="a_node27"><a xlink:title=" ">
<polygon fill="white" stroke="#bfbfbf" points="963.5,-0.5 963.5,-19.5 1013.5,-19.5 1013.5,-0.5 963.5,-0.5"/>
<text text-anchor="middle" x="988.5" y="-7.5" font-family="Helvetica,sans-Serif" font-size="10.00">cstring</text>
</a>
</g>
</g>
<!-- Node24&#45;&gt;Node27 -->
<g id="edge29" class="edge">
<title>Node24&#45;&gt;Node27</title>
<path fill="none" stroke="midnightblue" d="M790.85,-56.47C830.23,-48.22 891.4,-35.09 953.34,-20.21"/>
<polygon fill="midnightblue" stroke="midnightblue" points="954.38,-23.56 963.28,-17.8 952.74,-16.75 954.38,-23.56"/>
</g>
<!-- Node28&#45;&gt;Node4 -->
<g id="edge39" class="edge">
<title>Node28&#45;&gt;Node4</title>
<path fill="none" stroke="midnightblue" d="M925.71,-57C928.68,-56.63 931.63,-56.3 934.5,-56 1005.81,-48.6 1510.02,-20.44 1646.51,-12.88"/>
<polygon fill="midnightblue" stroke="midnightblue" points="1646.98,-16.36 1656.77,-12.31 1646.59,-9.37 1646.98,-16.36"/>
</g>
<!-- Node28&#45;&gt;Node15 -->
<g id="edge38" class="edge">
<title>Node28&#45;&gt;Node15</title>
<path fill="none" stroke="midnightblue" d="M925.7,-56.95C928.67,-56.6 931.62,-56.28 934.5,-56 1279.48,-22.66 1367.71,-43.54 1713.5,-20 1735.07,-18.53 1759.21,-16.37 1778.37,-14.54"/>
<polygon fill="midnightblue" stroke="midnightblue" points="1778.84,-18.01 1788.45,-13.56 1778.16,-11.04 1778.84,-18.01"/>
</g>
<!-- Node28&#45;&gt;Node21 -->
<g id="edge37" class="edge">
<title>Node28&#45;&gt;Node21</title>
<path fill="none" stroke="midnightblue" d="M821.27,-57.22C818.3,-56.8 815.36,-56.39 812.5,-56 690.08,-39.18 655.68,-44.01 530.63,-19.99"/>
<polygon fill="midnightblue" stroke="midnightblue" points="531.15,-16.53 520.67,-18.06 529.81,-23.4 531.15,-16.53"/>
</g>
<!-- Node28&#45;&gt;Node22 -->
<g id="edge34" class="edge">
<title>Node28&#45;&gt;Node22</title>
<path fill="none" stroke="midnightblue" d="M855.67,-56.32C837.78,-47.62 810.02,-34.12 789.45,-24.11"/>
<polygon fill="midnightblue" stroke="midnightblue" points="790.81,-20.88 780.29,-19.65 787.75,-27.18 790.81,-20.88"/>
</g>
<!-- Node28&#45;&gt;Node27 -->
<g id="edge36" class="edge">
<title>Node28&#45;&gt;Node27</title>
<path fill="none" stroke="midnightblue" d="M891.72,-56.44C910.4,-47.68 939.66,-33.94 961.12,-23.86"/>
<polygon fill="midnightblue" stroke="midnightblue" points="962.8,-26.93 970.36,-19.52 959.82,-20.6 962.8,-26.93"/>
</g>
<!-- Node29 -->
<g id="node29" class="node">
<title>Node29</title>
<g id="a_node29"><a xlink:title=" ">
<polygon fill="white" stroke="#bfbfbf" points="1031.5,-0.5 1031.5,-19.5 1097.5,-19.5 1097.5,-0.5 1031.5,-0.5"/>
<text text-anchor="middle" x="1064.5" y="-7.5" font-family="Helvetica,sans-Serif" font-size="10.00">sys/ioctl.h</text>
</a>
</g>
</g>
<!-- Node28&#45;&gt;Node29 -->
<g id="edge33" class="edge">
<title>Node28&#45;&gt;Node29</title>
<path fill="none" stroke="midnightblue" d="M903.76,-56.44C936.46,-47.2 988.68,-32.44 1024.68,-22.26"/>
<polygon fill="midnightblue" stroke="midnightblue" points="1025.71,-25.61 1034.38,-19.52 1023.8,-18.87 1025.71,-25.61"/>
</g>
<!-- Node30 -->
<g id="node30" class="node">
<title>Node30</title>
<g id="a_node30"><a xlink:title=" ">
<polygon fill="white" stroke="#bfbfbf" points="1115.5,-0.5 1115.5,-19.5 1171.5,-19.5 1171.5,-0.5 1115.5,-0.5"/>
<text text-anchor="middle" x="1143.5" y="-7.5" font-family="Helvetica,sans-Serif" font-size="10.00">iomanip</text>
</a>
</g>
</g>
<!-- Node28&#45;&gt;Node30 -->
<g id="edge35" class="edge">
<title>Node28&#45;&gt;Node30</title>
<path fill="none" stroke="midnightblue" d="M921.38,-56.44C966.46,-48.23 1036.09,-35.15 1105.47,-20.15"/>
<polygon fill="midnightblue" stroke="midnightblue" points="1106.22,-23.57 1115.25,-18.02 1104.73,-16.73 1106.22,-23.57"/>
</g>
<!-- Node33&#45;&gt;Node8 -->
<g id="edge43" class="edge">
<title>Node33&#45;&gt;Node8</title>
<path fill="none" stroke="midnightblue" d="M193.9,-56.08C187.27,-48.3 177.48,-36.8 169.44,-27.37"/>
<polygon fill="midnightblue" stroke="midnightblue" points="172.1,-25.09 162.95,-19.75 166.77,-29.63 172.1,-25.09"/>
</g>
<!-- Node33&#45;&gt;Node21 -->
<g id="edge44" class="edge">
<title>Node33&#45;&gt;Node21</title>
<path fill="none" stroke="midnightblue" d="M233.7,-60.35C281.22,-53.3 373.1,-38.88 460.5,-20.07"/>
<polygon fill="midnightblue" stroke="midnightblue" points="461.28,-23.48 470.31,-17.93 459.79,-16.64 461.28,-23.48"/>
</g>
<!-- Node34 -->
<g id="node34" class="node">
<title>Node34</title>
<g id="a_node34"><a xlink:title=" ">
<polygon fill="white" stroke="#bfbfbf" points="71.5,-0.5 71.5,-19.5 113.5,-19.5 113.5,-0.5 71.5,-0.5"/>
<text text-anchor="middle" x="92.5" y="-7.5" font-family="Helvetica,sans-Serif" font-size="10.00">array</text>
</a>
</g>
</g>
<!-- Node33&#45;&gt;Node34 -->
<g id="edge45" class="edge">
<title>Node33&#45;&gt;Node34</title>
<path fill="none" stroke="midnightblue" d="M183.99,-56.32C166.43,-47.62 139.17,-34.12 118.97,-24.11"/>
<polygon fill="midnightblue" stroke="midnightblue" points="120.48,-20.96 109.97,-19.65 117.38,-27.23 120.48,-20.96"/>
</g>
<!-- Node35 -->
<g id="node35" class="node">
<title>Node35</title>
<g id="a_node35"><a xlink:title=" ">
<polygon fill="white" stroke="#bfbfbf" points="0,-0.5 0,-19.5 53,-19.5 53,-0.5 0,-0.5"/>
<text text-anchor="middle" x="26.5" y="-7.5" font-family="Helvetica,sans-Serif" font-size="10.00">stdlib.h</text>
</a>
</g>
</g>
<!-- Node33&#45;&gt;Node35 -->
<g id="edge46" class="edge">
<title>Node33&#45;&gt;Node35</title>
<path fill="none" stroke="midnightblue" d="M173.77,-56.44C143.81,-47.2 95.95,-32.43 62.96,-22.25"/>
<polygon fill="midnightblue" stroke="midnightblue" points="63.83,-18.85 53.24,-19.25 61.76,-25.54 63.83,-18.85"/>
</g>
</g>
</svg>
