<?xml version="1.0" encoding="UTF-8" standalone="no"?>
<!DOCTYPE svg PUBLIC "-//W3C//DTD SVG 1.1//EN"
 "http://www.w3.org/Graphics/SVG/1.1/DTD/svg11.dtd">
<!-- Generated by graphviz version 2.43.0 (0)
 -->
<!-- Title: src/main.cpp Pages: 1 -->
<svg width="2169pt" height="196pt"
 viewBox="0.00 0.00 2168.50 196.00" xmlns="http://www.w3.org/2000/svg" xmlns:xlink="http://www.w3.org/1999/xlink">
<g id="graph0" class="graph" transform="scale(1 1) rotate(0) translate(4 192)">
<title>src/main.cpp</title>
<polygon fill="white" stroke="transparent" points="-4,4 -4,-192 2164.5,-192 2164.5,4 -4,4"/>
<!-- Node1 -->
<g id="node1" class="node">
<title>Node1</title>
<g id="a_node1"><a xlink:title=" ">
<polygon fill="#bfbfbf" stroke="black" points="1596.5,-168.5 1596.5,-187.5 1675.5,-187.5 1675.5,-168.5 1596.5,-168.5"/>
<text text-anchor="middle" x="1636" y="-175.5" font-family="Helvetica,sans-Serif" font-size="10.00">src/main.cpp</text>
</a>
</g>
</g>
<!-- Node2 -->
<g id="node2" class="node">
<title>Node2</title>
<g id="a_node2"><a xlink:title=" ">
<polygon fill="white" stroke="#bfbfbf" points="1267,-0.5 1267,-19.5 1311,-19.5 1311,-0.5 1267,-0.5"/>
<text text-anchor="middle" x="1289" y="-7.5" font-family="Helvetica,sans-Serif" font-size="10.00">string</text>
</a>
</g>
</g>
<!-- Node1&#45;&gt;Node2 -->
<g id="edge1" class="edge">
<title>Node1&#45;&gt;Node2</title>
<path fill="none" stroke="midnightblue" d="M1632.12,-168.49C1621.34,-145.87 1588.61,-84.11 1541,-56 1458.07,-7.04 1419.59,-39.65 1321.29,-19.96"/>
<polygon fill="midnightblue" stroke="midnightblue" points="1321.78,-16.49 1311.27,-17.81 1320.31,-23.33 1321.78,-16.49"/>
</g>
<!-- Node3 -->
<g id="node3" class="node">
<title>Node3</title>
<g id="a_node3"><a xlink:href="../../de/dfc/Ricom_8h.html" target="_top" xlink:title=" ">
<polygon fill="white" stroke="black" points="935,-112.5 935,-131.5 991,-131.5 991,-112.5 935,-112.5"/>
<text text-anchor="middle" x="963" y="-119.5" font-family="Helvetica,sans-Serif" font-size="10.00">Ricom.h</text>
</a>
</g>
</g>
<!-- Node1&#45;&gt;Node3 -->
<g id="edge2" class="edge">
<title>Node1&#45;&gt;Node3</title>
<path fill="none" stroke="midnightblue" d="M1596.41,-173.82C1476.62,-164.21 1118.99,-135.52 1001.14,-126.06"/>
<polygon fill="midnightblue" stroke="midnightblue" points="1001.38,-122.57 991.14,-125.26 1000.82,-129.55 1001.38,-122.57"/>
</g>
<!-- Node36 -->
<g id="node36" class="node">
<title>Node36</title>
<g id="a_node36"><a xlink:href="../../dd/de4/Camera_8h.html" target="_top" xlink:title=" ">
<polygon fill="white" stroke="black" points="1889,-56.5 1889,-75.5 1953,-75.5 1953,-56.5 1889,-56.5"/>
<text text-anchor="middle" x="1921" y="-63.5" font-family="Helvetica,sans-Serif" font-size="10.00">Camera.h</text>
</a>
</g>
</g>
<!-- Node1&#45;&gt;Node36 -->
<g id="edge61" class="edge">
<title>Node1&#45;&gt;Node36</title>
<path fill="none" stroke="midnightblue" d="M1658.36,-168.37C1708.73,-148.93 1831.16,-101.67 1889.32,-79.23"/>
<polygon fill="midnightblue" stroke="midnightblue" points="1890.67,-82.46 1898.74,-75.59 1888.15,-75.93 1890.67,-82.46"/>
</g>
<!-- Node3&#45;&gt;Node2 -->
<g id="edge9" class="edge">
<title>Node3&#45;&gt;Node2</title>
<path fill="none" stroke="midnightblue" d="M991.09,-120.33C1085.14,-117.81 1384.62,-107.36 1413,-76 1418.96,-69.41 1418.1,-63.28 1413,-56 1407.48,-48.13 1355.85,-31.22 1320.97,-20.52"/>
<polygon fill="midnightblue" stroke="midnightblue" points="1321.78,-17.11 1311.2,-17.55 1319.75,-23.8 1321.78,-17.11"/>
</g>
<!-- Node4 -->
<g id="node4" class="node">
<title>Node4</title>
<g id="a_node4"><a xlink:title=" ">
<polygon fill="white" stroke="#bfbfbf" points="1180,-0.5 1180,-19.5 1236,-19.5 1236,-0.5 1180,-0.5"/>
<text text-anchor="middle" x="1208" y="-7.5" font-family="Helvetica,sans-Serif" font-size="10.00">unistd.h</text>
</a>
</g>
</g>
<!-- Node3&#45;&gt;Node4 -->
<g id="edge3" class="edge">
<title>Node3&#45;&gt;Node4</title>
<path fill="none" stroke="midnightblue" d="M991.31,-120.21C1083.21,-117.35 1368.86,-106.1 1396,-76 1401.95,-69.4 1401.51,-62.98 1396,-56 1391.3,-50.04 1299.42,-30.05 1245.88,-18.82"/>
<polygon fill="midnightblue" stroke="midnightblue" points="1246.54,-15.38 1236.04,-16.76 1245.11,-22.23 1246.54,-15.38"/>
</g>
<!-- Node5 -->
<g id="node5" class="node">
<title>Node5</title>
<g id="a_node5"><a xlink:title=" ">
<polygon fill="white" stroke="#bfbfbf" points="986.5,-0.5 986.5,-19.5 1033.5,-19.5 1033.5,-0.5 986.5,-0.5"/>
<text text-anchor="middle" x="1010" y="-7.5" font-family="Helvetica,sans-Serif" font-size="10.00">cmath</text>
</a>
</g>
</g>
<!-- Node3&#45;&gt;Node5 -->
<g id="edge4" class="edge">
<title>Node3&#45;&gt;Node5</title>
<path fill="none" stroke="midnightblue" d="M967.17,-112.44C971.52,-103.43 978.45,-88.82 984,-76 990.71,-60.49 997.81,-42.65 1002.88,-29.59"/>
<polygon fill="midnightblue" stroke="midnightblue" points="1006.29,-30.49 1006.62,-19.9 999.76,-27.97 1006.29,-30.49"/>
</g>
<!-- Node6 -->
<g id="node6" class="node">
<title>Node6</title>
<g id="a_node6"><a xlink:title=" ">
<polygon fill="white" stroke="#bfbfbf" points="1482,-56.5 1482,-75.5 1532,-75.5 1532,-56.5 1482,-56.5"/>
<text text-anchor="middle" x="1507" y="-63.5" font-family="Helvetica,sans-Serif" font-size="10.00">stdio.h</text>
</a>
</g>
</g>
<!-- Node3&#45;&gt;Node6 -->
<g id="edge5" class="edge">
<title>Node3&#45;&gt;Node6</title>
<path fill="none" stroke="midnightblue" d="M991.09,-119.86C1067.88,-116.44 1287.63,-104.71 1468,-76 1469.27,-75.8 1470.57,-75.58 1471.87,-75.34"/>
<polygon fill="midnightblue" stroke="midnightblue" points="1472.81,-78.72 1481.92,-73.32 1471.43,-71.86 1472.81,-78.72"/>
</g>
<!-- Node7 -->
<g id="node7" class="node">
<title>Node7</title>
<g id="a_node7"><a xlink:title=" ">
<polygon fill="white" stroke="#bfbfbf" points="1329.5,-0.5 1329.5,-19.5 1388.5,-19.5 1388.5,-0.5 1329.5,-0.5"/>
<text text-anchor="middle" x="1359" y="-7.5" font-family="Helvetica,sans-Serif" font-size="10.00">complex</text>
</a>
</g>
</g>
<!-- Node3&#45;&gt;Node7 -->
<g id="edge6" class="edge">
<title>Node3&#45;&gt;Node7</title>
<path fill="none" stroke="midnightblue" d="M991.09,-120.99C1101.74,-120.68 1503.32,-116.73 1541,-76 1547.04,-69.48 1546.48,-63 1541,-56 1538.76,-53.14 1451.16,-32.39 1398.33,-20.09"/>
<polygon fill="midnightblue" stroke="midnightblue" points="1399.11,-16.68 1388.58,-17.82 1397.53,-23.5 1399.11,-16.68"/>
</g>
<!-- Node8 -->
<g id="node8" class="node">
<title>Node8</title>
<g id="a_node8"><a xlink:title=" ">
<polygon fill="white" stroke="#bfbfbf" points="0,-56.5 0,-75.5 44,-75.5 44,-56.5 0,-56.5"/>
<text text-anchor="middle" x="22" y="-63.5" font-family="Helvetica,sans-Serif" font-size="10.00">cfloat</text>
</a>
</g>
</g>
<!-- Node3&#45;&gt;Node8 -->
<g id="edge7" class="edge">
<title>Node3&#45;&gt;Node8</title>
<path fill="none" stroke="midnightblue" d="M934.99,-120.34C802.01,-117.12 233.45,-102.04 58,-76 56.75,-75.81 55.47,-75.6 54.19,-75.37"/>
<polygon fill="midnightblue" stroke="midnightblue" points="54.84,-71.93 44.33,-73.3 53.4,-78.78 54.84,-71.93"/>
</g>
<!-- Node9 -->
<g id="node9" class="node">
<title>Node9</title>
<g id="a_node9"><a xlink:title=" ">
<polygon fill="white" stroke="#bfbfbf" points="1981.5,-0.5 1981.5,-19.5 2028.5,-19.5 2028.5,-0.5 1981.5,-0.5"/>
<text text-anchor="middle" x="2005" y="-7.5" font-family="Helvetica,sans-Serif" font-size="10.00">vector</text>
</a>
</g>
</g>
<!-- Node3&#45;&gt;Node9 -->
<g id="edge8" class="edge">
<title>Node3&#45;&gt;Node9</title>
<path fill="none" stroke="midnightblue" d="M991.33,-121.16C1092.99,-121.34 1448.67,-118.68 1738,-76 1823.44,-63.4 1921.56,-36.12 1971.7,-21.22"/>
<polygon fill="midnightblue" stroke="midnightblue" points="1972.78,-24.55 1981.36,-18.32 1970.77,-17.84 1972.78,-24.55"/>
</g>
<!-- Node10 -->
<g id="node10" class="node">
<title>Node10</title>
<g id="a_node10"><a xlink:title=" ">
<polygon fill="white" stroke="#bfbfbf" points="100,-56.5 100,-75.5 144,-75.5 144,-56.5 100,-56.5"/>
<text text-anchor="middle" x="122" y="-63.5" font-family="Helvetica,sans-Serif" font-size="10.00">SDL.h</text>
</a>
</g>
</g>
<!-- Node3&#45;&gt;Node10 -->
<g id="edge10" class="edge">
<title>Node3&#45;&gt;Node10</title>
<path fill="none" stroke="midnightblue" d="M934.65,-120.29C812.22,-117.09 327.6,-103.04 154.2,-75.75"/>
<polygon fill="midnightblue" stroke="midnightblue" points="154.65,-72.28 144.21,-74.1 153.51,-79.18 154.65,-72.28"/>
</g>
<!-- Node11 -->
<g id="node11" class="node">
<title>Node11</title>
<g id="a_node11"><a xlink:title=" ">
<polygon fill="white" stroke="#bfbfbf" points="27,-0.5 27,-19.5 75,-19.5 75,-0.5 27,-0.5"/>
<text text-anchor="middle" x="51" y="-7.5" font-family="Helvetica,sans-Serif" font-size="10.00">mutex</text>
</a>
</g>
</g>
<!-- Node3&#45;&gt;Node11 -->
<g id="edge11" class="edge">
<title>Node3&#45;&gt;Node11</title>
<path fill="none" stroke="midnightblue" d="M934.81,-121.09C793.39,-121.33 164.99,-119.89 91,-76 73.59,-65.67 62.72,-44.53 56.78,-29.15"/>
<polygon fill="midnightblue" stroke="midnightblue" points="60.05,-27.91 53.43,-19.63 53.44,-30.23 60.05,-27.91"/>
</g>
<!-- Node12 -->
<g id="node12" class="node">
<title>Node12</title>
<g id="a_node12"><a xlink:title=" ">
<polygon fill="white" stroke="#bfbfbf" points="316,-56.5 316,-75.5 362,-75.5 362,-56.5 316,-56.5"/>
<text text-anchor="middle" x="339" y="-63.5" font-family="Helvetica,sans-Serif" font-size="10.00">future</text>
</a>
</g>
</g>
<!-- Node3&#45;&gt;Node12 -->
<g id="edge12" class="edge">
<title>Node3&#45;&gt;Node12</title>
<path fill="none" stroke="midnightblue" d="M934.71,-120.45C849.65,-118.47 588.99,-109.84 376,-76 374.75,-75.8 373.48,-75.58 372.2,-75.35"/>
<polygon fill="midnightblue" stroke="midnightblue" points="372.88,-71.91 362.37,-73.29 371.44,-78.76 372.88,-71.91"/>
</g>
<!-- Node13 -->
<g id="node13" class="node">
<title>Node13</title>
<g id="a_node13"><a xlink:title=" ">
<polygon fill="white" stroke="#bfbfbf" points="367,-0.5 367,-19.5 415,-19.5 415,-0.5 367,-0.5"/>
<text text-anchor="middle" x="391" y="-7.5" font-family="Helvetica,sans-Serif" font-size="10.00">thread</text>
</a>
</g>
</g>
<!-- Node3&#45;&gt;Node13 -->
<g id="edge13" class="edge">
<title>Node3&#45;&gt;Node13</title>
<path fill="none" stroke="midnightblue" d="M934.91,-120.57C827.92,-118.7 449.81,-109.74 409,-76 395.62,-64.94 391.7,-44.9 390.77,-29.98"/>
<polygon fill="midnightblue" stroke="midnightblue" points="394.27,-29.73 390.54,-19.81 387.27,-29.89 394.27,-29.73"/>
</g>
<!-- Node14 -->
<g id="node14" class="node">
<title>Node14</title>
<g id="a_node14"><a xlink:title=" ">
<polygon fill="white" stroke="#bfbfbf" points="418,-56.5 418,-75.5 468,-75.5 468,-56.5 418,-56.5"/>
<text text-anchor="middle" x="443" y="-63.5" font-family="Helvetica,sans-Serif" font-size="10.00">fftw3.h</text>
</a>
</g>
</g>
<!-- Node3&#45;&gt;Node14 -->
<g id="edge14" class="edge">
<title>Node3&#45;&gt;Node14</title>
<path fill="none" stroke="midnightblue" d="M934.91,-119.69C860.59,-115.92 652.77,-103.57 482,-76 480.73,-75.79 479.43,-75.57 478.13,-75.33"/>
<polygon fill="midnightblue" stroke="midnightblue" points="478.57,-71.85 468.08,-73.31 477.19,-78.72 478.57,-71.85"/>
</g>
<!-- Node15 -->
<g id="node15" class="node">
<title>Node15</title>
<g id="a_node15"><a xlink:title=" ">
<polygon fill="white" stroke="#bfbfbf" points="459,-0.5 459,-19.5 509,-19.5 509,-0.5 459,-0.5"/>
<text text-anchor="middle" x="484" y="-7.5" font-family="Helvetica,sans-Serif" font-size="10.00">chrono</text>
</a>
</g>
</g>
<!-- Node3&#45;&gt;Node15 -->
<g id="edge15" class="edge">
<title>Node3&#45;&gt;Node15</title>
<path fill="none" stroke="midnightblue" d="M934.85,-119.77C842,-115.48 549.37,-100.17 515,-76 499.69,-65.24 491.69,-44.84 487.68,-29.75"/>
<polygon fill="midnightblue" stroke="midnightblue" points="491.07,-28.88 485.42,-19.92 484.25,-30.45 491.07,-28.88"/>
</g>
<!-- Node16 -->
<g id="node16" class="node">
<title>Node16</title>
<g id="a_node16"><a xlink:title=" ">
<polygon fill="white" stroke="#bfbfbf" points="524,-56.5 524,-75.5 588,-75.5 588,-56.5 524,-56.5"/>
<text text-anchor="middle" x="556" y="-63.5" font-family="Helvetica,sans-Serif" font-size="10.00">algorithm</text>
</a>
</g>
</g>
<!-- Node3&#45;&gt;Node16 -->
<g id="edge16" class="edge">
<title>Node3&#45;&gt;Node16</title>
<path fill="none" stroke="midnightblue" d="M934.86,-118.45C874.88,-112.82 729.88,-98.17 598.42,-76.1"/>
<polygon fill="midnightblue" stroke="midnightblue" points="598.62,-72.58 588.17,-74.36 597.45,-79.49 598.62,-72.58"/>
</g>
<!-- Node17 -->
<g id="node17" class="node">
<title>Node17</title>
<g id="a_node17"><a xlink:title=" ">
<polygon fill="white" stroke="#bfbfbf" points="606,-56.5 606,-75.5 650,-75.5 650,-56.5 606,-56.5"/>
<text text-anchor="middle" x="628" y="-63.5" font-family="Helvetica,sans-Serif" font-size="10.00">ctime</text>
</a>
</g>
</g>
<!-- Node3&#45;&gt;Node17 -->
<g id="edge17" class="edge">
<title>Node3&#45;&gt;Node17</title>
<path fill="none" stroke="midnightblue" d="M934.69,-118.11C882.31,-112.48 766.63,-98.75 660.2,-76.01"/>
<polygon fill="midnightblue" stroke="midnightblue" points="660.77,-72.55 650.26,-73.85 659.29,-79.39 660.77,-72.55"/>
</g>
<!-- Node18 -->
<g id="node18" class="node">
<title>Node18</title>
<g id="a_node18"><a xlink:href="../../d7/d50/BoundedThreadPool_8hpp.html" target="_top" xlink:title=" ">
<polygon fill="white" stroke="black" points="162.5,-56.5 162.5,-75.5 297.5,-75.5 297.5,-56.5 162.5,-56.5"/>
<text text-anchor="middle" x="230" y="-63.5" font-family="Helvetica,sans-Serif" font-size="10.00">BoundedThreadPool.hpp</text>
</a>
</g>
</g>
<!-- Node3&#45;&gt;Node18 -->
<g id="edge18" class="edge">
<title>Node3&#45;&gt;Node18</title>
<path fill="none" stroke="midnightblue" d="M934.83,-119.55C845.05,-114.83 557.4,-98.92 307.58,-76.01"/>
<polygon fill="midnightblue" stroke="midnightblue" points="307.87,-72.52 297.59,-75.09 307.22,-79.49 307.87,-72.52"/>
</g>
<!-- Node24 -->
<g id="node24" class="node">
<title>Node24</title>
<g id="a_node24"><a xlink:title=" ">
<polygon fill="white" stroke="#bfbfbf" points="1407,-0.5 1407,-19.5 1509,-19.5 1509,-0.5 1407,-0.5"/>
<text text-anchor="middle" x="1458" y="-7.5" font-family="Helvetica,sans-Serif" font-size="10.00">tinycolormap.hpp</text>
</a>
</g>
</g>
<!-- Node3&#45;&gt;Node24 -->
<g id="edge26" class="edge">
<title>Node3&#45;&gt;Node24</title>
<path fill="none" stroke="midnightblue" d="M991.14,-121.06C1103.93,-121.01 1519.08,-117.97 1558,-76 1579.75,-52.54 1538.84,-33.73 1502.97,-22.49"/>
<polygon fill="midnightblue" stroke="midnightblue" points="1503.63,-19.04 1493.04,-19.53 1501.62,-25.74 1503.63,-19.04"/>
</g>
<!-- Node25 -->
<g id="node25" class="node">
<title>Node25</title>
<g id="a_node25"><a xlink:title=" ">
<polygon fill="white" stroke="#bfbfbf" points="790,-56.5 790,-75.5 850,-75.5 850,-56.5 790,-56.5"/>
<text text-anchor="middle" x="820" y="-63.5" font-family="Helvetica,sans-Serif" font-size="10.00">fft2d.hpp</text>
</a>
</g>
</g>
<!-- Node3&#45;&gt;Node25 -->
<g id="edge27" class="edge">
<title>Node3&#45;&gt;Node25</title>
<path fill="none" stroke="midnightblue" d="M940.34,-112.44C916.6,-103.48 879.09,-89.31 852.26,-79.18"/>
<polygon fill="midnightblue" stroke="midnightblue" points="853.14,-75.77 842.55,-75.52 850.67,-82.32 853.14,-75.77"/>
</g>
<!-- Node26 -->
<g id="node26" class="node">
<title>Node26</title>
<g id="a_node26"><a xlink:href="../../d0/d3c/SocketConnector_8h.html" target="_top" xlink:title=" ">
<polygon fill="white" stroke="black" points="868.5,-56.5 868.5,-75.5 975.5,-75.5 975.5,-56.5 868.5,-56.5"/>
<text text-anchor="middle" x="922" y="-63.5" font-family="Helvetica,sans-Serif" font-size="10.00">SocketConnector.h</text>
</a>
</g>
</g>
<!-- Node3&#45;&gt;Node26 -->
<g id="edge28" class="edge">
<title>Node3&#45;&gt;Node26</title>
<path fill="none" stroke="midnightblue" d="M956.23,-112.08C950.44,-104.46 941.94,-93.26 934.86,-83.94"/>
<polygon fill="midnightblue" stroke="midnightblue" points="937.48,-81.6 928.64,-75.75 931.9,-85.83 937.48,-81.6"/>
</g>
<!-- Node30 -->
<g id="node30" class="node">
<title>Node30</title>
<g id="a_node30"><a xlink:href="../../da/dce/ProgressMonitor_8h.html" target="_top" xlink:title=" ">
<polygon fill="white" stroke="black" points="668,-56.5 668,-75.5 772,-75.5 772,-56.5 668,-56.5"/>
<text text-anchor="middle" x="720" y="-63.5" font-family="Helvetica,sans-Serif" font-size="10.00">ProgressMonitor.h</text>
</a>
</g>
</g>
<!-- Node3&#45;&gt;Node30 -->
<g id="edge35" class="edge">
<title>Node3&#45;&gt;Node30</title>
<path fill="none" stroke="midnightblue" d="M934.65,-114.7C893.89,-105.64 818.17,-88.82 768.44,-77.76"/>
<polygon fill="midnightblue" stroke="midnightblue" points="769.07,-74.32 758.55,-75.57 767.55,-81.15 769.07,-74.32"/>
</g>
<!-- Node33 -->
<g id="node33" class="node">
<title>Node33</title>
<g id="a_node33"><a xlink:title=" ">
<polygon fill="white" stroke="#bfbfbf" points="1032,-56.5 1032,-75.5 1132,-75.5 1132,-56.5 1032,-56.5"/>
<text text-anchor="middle" x="1082" y="-63.5" font-family="Helvetica,sans-Serif" font-size="10.00">MerlinInterface.h</text>
</a>
</g>
</g>
<!-- Node3&#45;&gt;Node33 -->
<g id="edge43" class="edge">
<title>Node3&#45;&gt;Node33</title>
<path fill="none" stroke="midnightblue" d="M981.86,-112.44C1001.27,-103.64 1031.73,-89.81 1053.96,-79.72"/>
<polygon fill="midnightblue" stroke="midnightblue" points="1055.57,-82.84 1063.23,-75.52 1052.68,-76.46 1055.57,-82.84"/>
</g>
<!-- Node34 -->
<g id="node34" class="node">
<title>Node34</title>
<g id="a_node34"><a xlink:title=" ">
<polygon fill="white" stroke="#bfbfbf" points="1150,-56.5 1150,-75.5 1260,-75.5 1260,-56.5 1150,-56.5"/>
<text text-anchor="middle" x="1205" y="-63.5" font-family="Helvetica,sans-Serif" font-size="10.00">CheetahInterface.h</text>
</a>
</g>
</g>
<!-- Node3&#45;&gt;Node34 -->
<g id="edge44" class="edge">
<title>Node3&#45;&gt;Node34</title>
<path fill="none" stroke="midnightblue" d="M991.23,-114.7C1031.83,-105.64 1107.23,-88.82 1156.76,-77.76"/>
<polygon fill="midnightblue" stroke="midnightblue" points="1157.61,-81.16 1166.61,-75.57 1156.09,-74.33 1157.61,-81.16"/>
</g>
<!-- Node35 -->
<g id="node35" class="node">
<title>Node35</title>
<g id="a_node35"><a xlink:title=" ">
<polygon fill="white" stroke="#bfbfbf" points="1278.5,-56.5 1278.5,-75.5 1387.5,-75.5 1387.5,-56.5 1278.5,-56.5"/>
<text text-anchor="middle" x="1333" y="-63.5" font-family="Helvetica,sans-Serif" font-size="10.00">TimepixInterface.h</text>
</a>
</g>
</g>
<!-- Node3&#45;&gt;Node35 -->
<g id="edge45" class="edge">
<title>Node3&#45;&gt;Node35</title>
<path fill="none" stroke="midnightblue" d="M991.11,-116.9C1049.74,-108.34 1186.36,-88.4 1268.04,-76.48"/>
<polygon fill="midnightblue" stroke="midnightblue" points="1268.82,-79.9 1278.21,-75 1267.81,-72.98 1268.82,-79.9"/>
</g>
<!-- Node3&#45;&gt;Node36 -->
<g id="edge46" class="edge">
<title>Node3&#45;&gt;Node36</title>
<path fill="none" stroke="midnightblue" d="M991.09,-120.18C1100.3,-116.87 1507.09,-103.31 1841,-76 1853.17,-75 1866.36,-73.64 1878.45,-72.27"/>
<polygon fill="midnightblue" stroke="midnightblue" points="1879.2,-75.71 1888.74,-71.08 1878.4,-68.76 1879.2,-75.71"/>
</g>
<!-- Node39 -->
<g id="node39" class="node">
<title>Node39</title>
<g id="a_node39"><a xlink:href="../../d7/db2/GuiUtils_8h.html" target="_top" xlink:title=" ">
<polygon fill="white" stroke="black" points="1664.5,-56.5 1664.5,-75.5 1729.5,-75.5 1729.5,-56.5 1664.5,-56.5"/>
<text text-anchor="middle" x="1697" y="-63.5" font-family="Helvetica,sans-Serif" font-size="10.00">GuiUtils.h</text>
</a>
</g>
</g>
<!-- Node3&#45;&gt;Node39 -->
<g id="edge51" class="edge">
<title>Node3&#45;&gt;Node39</title>
<path fill="none" stroke="midnightblue" d="M991.18,-119.41C1081.52,-114.24 1372.07,-97.01 1612,-76 1625.78,-74.79 1640.8,-73.27 1654.33,-71.82"/>
<polygon fill="midnightblue" stroke="midnightblue" points="1654.77,-75.3 1664.33,-70.74 1654.01,-68.34 1654.77,-75.3"/>
</g>
<!-- Node18&#45;&gt;Node11 -->
<g id="edge22" class="edge">
<title>Node18&#45;&gt;Node11</title>
<path fill="none" stroke="midnightblue" d="M201.64,-56.44C170.01,-46.9 118.88,-31.48 85.1,-21.29"/>
<polygon fill="midnightblue" stroke="midnightblue" points="85.8,-17.84 75.21,-18.3 83.77,-24.54 85.8,-17.84"/>
</g>
<!-- Node18&#45;&gt;Node13 -->
<g id="edge19" class="edge">
<title>Node18&#45;&gt;Node13</title>
<path fill="none" stroke="midnightblue" d="M255.51,-56.44C282.99,-47.23 326.86,-32.51 357.2,-22.34"/>
<polygon fill="midnightblue" stroke="midnightblue" points="358.56,-25.57 366.92,-19.08 356.33,-18.94 358.56,-25.57"/>
</g>
<!-- Node19 -->
<g id="node19" class="node">
<title>Node19</title>
<g id="a_node19"><a xlink:title=" ">
<polygon fill="white" stroke="#bfbfbf" points="301.5,-0.5 301.5,-19.5 348.5,-19.5 348.5,-0.5 301.5,-0.5"/>
<text text-anchor="middle" x="325" y="-7.5" font-family="Helvetica,sans-Serif" font-size="10.00">queue</text>
</a>
</g>
</g>
<!-- Node18&#45;&gt;Node19 -->
<g id="edge20" class="edge">
<title>Node18&#45;&gt;Node19</title>
<path fill="none" stroke="midnightblue" d="M245.26,-56.32C260.22,-47.82 283.25,-34.73 300.73,-24.8"/>
<polygon fill="midnightblue" stroke="midnightblue" points="302.81,-27.64 309.77,-19.65 299.35,-21.55 302.81,-27.64"/>
</g>
<!-- Node20 -->
<g id="node20" class="node">
<title>Node20</title>
<g id="a_node20"><a xlink:title=" ">
<polygon fill="white" stroke="#bfbfbf" points="93.5,-0.5 93.5,-19.5 158.5,-19.5 158.5,-0.5 93.5,-0.5"/>
<text text-anchor="middle" x="126" y="-7.5" font-family="Helvetica,sans-Serif" font-size="10.00">functional</text>
</a>
</g>
</g>
<!-- Node18&#45;&gt;Node20 -->
<g id="edge21" class="edge">
<title>Node18&#45;&gt;Node20</title>
<path fill="none" stroke="midnightblue" d="M213.29,-56.32C196.69,-47.7 171,-34.36 151.78,-24.39"/>
<polygon fill="midnightblue" stroke="midnightblue" points="153.16,-21.16 142.67,-19.65 149.93,-27.37 153.16,-21.16"/>
</g>
<!-- Node21 -->
<g id="node21" class="node">
<title>Node21</title>
<g id="a_node21"><a xlink:title=" ">
<polygon fill="white" stroke="#bfbfbf" points="176.5,-0.5 176.5,-19.5 283.5,-19.5 283.5,-0.5 176.5,-0.5"/>
<text text-anchor="middle" x="230" y="-7.5" font-family="Helvetica,sans-Serif" font-size="10.00">condition_variable</text>
</a>
</g>
</g>
<!-- Node18&#45;&gt;Node21 -->
<g id="edge23" class="edge">
<title>Node18&#45;&gt;Node21</title>
<path fill="none" stroke="midnightblue" d="M230,-56.08C230,-49.01 230,-38.86 230,-29.99"/>
<polygon fill="midnightblue" stroke="midnightblue" points="233.5,-29.75 230,-19.75 226.5,-29.75 233.5,-29.75"/>
</g>
<!-- Node22 -->
<g id="node22" class="node">
<title>Node22</title>
<g id="a_node22"><a xlink:title=" ">
<polygon fill="white" stroke="#bfbfbf" points="763,-0.5 763,-19.5 813,-19.5 813,-0.5 763,-0.5"/>
<text text-anchor="middle" x="788" y="-7.5" font-family="Helvetica,sans-Serif" font-size="10.00">atomic</text>
</a>
</g>
</g>
<!-- Node18&#45;&gt;Node22 -->
<g id="edge24" class="edge">
<title>Node18&#45;&gt;Node22</title>
<path fill="none" stroke="midnightblue" d="M297.59,-56.96C300.77,-56.63 303.92,-56.3 307,-56 502.05,-36.75 555.78,-53.07 752.76,-19.91"/>
<polygon fill="midnightblue" stroke="midnightblue" points="753.59,-23.32 762.86,-18.19 752.41,-16.42 753.59,-23.32"/>
</g>
<!-- Node23 -->
<g id="node23" class="node">
<title>Node23</title>
<g id="a_node23"><a xlink:title=" ">
<polygon fill="white" stroke="#bfbfbf" points="685,-0.5 685,-19.5 745,-19.5 745,-0.5 685,-0.5"/>
<text text-anchor="middle" x="715" y="-7.5" font-family="Helvetica,sans-Serif" font-size="10.00">iostream</text>
</a>
</g>
</g>
<!-- Node18&#45;&gt;Node23 -->
<g id="edge25" class="edge">
<title>Node18&#45;&gt;Node23</title>
<path fill="none" stroke="midnightblue" d="M297.6,-57.02C300.78,-56.67 303.92,-56.33 307,-56 467.64,-38.78 511.67,-46.27 674.94,-19.98"/>
<polygon fill="midnightblue" stroke="midnightblue" points="675.54,-23.43 684.84,-18.37 674.41,-16.52 675.54,-23.43"/>
</g>
<!-- Node26&#45;&gt;Node2 -->
<g id="edge33" class="edge">
<title>Node26&#45;&gt;Node2</title>
<path fill="none" stroke="midnightblue" d="M975.6,-58.59C1039.81,-50.66 1150.56,-36.22 1245,-20 1248.76,-19.35 1252.68,-18.63 1256.57,-17.87"/>
<polygon fill="midnightblue" stroke="midnightblue" points="1257.55,-21.25 1266.67,-15.85 1256.18,-14.38 1257.55,-21.25"/>
</g>
<!-- Node26&#45;&gt;Node4 -->
<g id="edge30" class="edge">
<title>Node26&#45;&gt;Node4</title>
<path fill="none" stroke="midnightblue" d="M967.32,-56.44C1023.28,-45.88 1117.48,-28.09 1169.9,-18.19"/>
<polygon fill="midnightblue" stroke="midnightblue" points="1170.62,-21.62 1179.8,-16.32 1169.32,-14.74 1170.62,-21.62"/>
</g>
<!-- Node26&#45;&gt;Node23 -->
<g id="edge34" class="edge">
<title>Node26&#45;&gt;Node23</title>
<path fill="none" stroke="midnightblue" d="M889.2,-56.44C852.89,-46.97 794.33,-31.7 755.27,-21.5"/>
<polygon fill="midnightblue" stroke="midnightblue" points="755.85,-18.04 745.29,-18.9 754.08,-24.81 755.85,-18.04"/>
</g>
<!-- Node27 -->
<g id="node27" class="node">
<title>Node27</title>
<g id="a_node27"><a xlink:title=" ">
<polygon fill="white" stroke="#bfbfbf" points="899.5,-0.5 899.5,-19.5 968.5,-19.5 968.5,-0.5 899.5,-0.5"/>
<text text-anchor="middle" x="934" y="-7.5" font-family="Helvetica,sans-Serif" font-size="10.00">arpa/inet.h</text>
</a>
</g>
</g>
<!-- Node26&#45;&gt;Node27 -->
<g id="edge29" class="edge">
<title>Node26&#45;&gt;Node27</title>
<path fill="none" stroke="midnightblue" d="M923.98,-56.08C925.57,-48.93 927.86,-38.64 929.85,-29.69"/>
<polygon fill="midnightblue" stroke="midnightblue" points="933.3,-30.27 932.06,-19.75 926.47,-28.75 933.3,-30.27"/>
</g>
<!-- Node28 -->
<g id="node28" class="node">
<title>Node28</title>
<g id="a_node28"><a xlink:title=" ">
<polygon fill="white" stroke="#bfbfbf" points="1051.5,-0.5 1051.5,-19.5 1098.5,-19.5 1098.5,-0.5 1051.5,-0.5"/>
<text text-anchor="middle" x="1075" y="-7.5" font-family="Helvetica,sans-Serif" font-size="10.00">cerrno</text>
</a>
</g>
</g>
<!-- Node26&#45;&gt;Node28 -->
<g id="edge31" class="edge">
<title>Node26&#45;&gt;Node28</title>
<path fill="none" stroke="midnightblue" d="M946.24,-56.44C972.02,-47.35 1012.96,-32.9 1041.74,-22.74"/>
<polygon fill="midnightblue" stroke="midnightblue" points="1043.11,-25.97 1051.37,-19.34 1040.78,-19.37 1043.11,-25.97"/>
</g>
<!-- Node29 -->
<g id="node29" class="node">
<title>Node29</title>
<g id="a_node29"><a xlink:title=" ">
<polygon fill="white" stroke="#bfbfbf" points="831,-0.5 831,-19.5 881,-19.5 881,-0.5 831,-0.5"/>
<text text-anchor="middle" x="856" y="-7.5" font-family="Helvetica,sans-Serif" font-size="10.00">cstring</text>
</a>
</g>
</g>
<!-- Node26&#45;&gt;Node29 -->
<g id="edge32" class="edge">
<title>Node26&#45;&gt;Node29</title>
<path fill="none" stroke="midnightblue" d="M911.4,-56.32C901.54,-48.26 886.65,-36.08 874.78,-26.37"/>
<polygon fill="midnightblue" stroke="midnightblue" points="876.75,-23.46 866.8,-19.83 872.32,-28.88 876.75,-23.46"/>
</g>
<!-- Node30&#45;&gt;Node5 -->
<g id="edge42" class="edge">
<title>Node30&#45;&gt;Node5</title>
<path fill="none" stroke="midnightblue" d="M772.46,-57.28C822.46,-49.59 900.03,-36.81 976.47,-19.94"/>
<polygon fill="midnightblue" stroke="midnightblue" points="977.27,-23.35 986.27,-17.75 975.75,-16.52 977.27,-23.35"/>
</g>
<!-- Node30&#45;&gt;Node15 -->
<g id="edge41" class="edge">
<title>Node30&#45;&gt;Node15</title>
<path fill="none" stroke="midnightblue" d="M679.27,-56.42C640.47,-48.14 580.19,-34.99 519.04,-20.18"/>
<polygon fill="midnightblue" stroke="midnightblue" points="519.77,-16.76 509.22,-17.8 518.11,-23.56 519.77,-16.76"/>
</g>
<!-- Node30&#45;&gt;Node22 -->
<g id="edge40" class="edge">
<title>Node30&#45;&gt;Node22</title>
<path fill="none" stroke="midnightblue" d="M730.93,-56.32C741.17,-48.18 756.72,-35.84 769,-26.09"/>
<polygon fill="midnightblue" stroke="midnightblue" points="771.22,-28.79 776.88,-19.83 766.87,-23.31 771.22,-28.79"/>
</g>
<!-- Node30&#45;&gt;Node23 -->
<g id="edge37" class="edge">
<title>Node30&#45;&gt;Node23</title>
<path fill="none" stroke="midnightblue" d="M719.17,-56.08C718.52,-49.01 717.58,-38.86 716.76,-29.99"/>
<polygon fill="midnightblue" stroke="midnightblue" points="720.22,-29.39 715.81,-19.75 713.25,-30.03 720.22,-29.39"/>
</g>
<!-- Node30&#45;&gt;Node29 -->
<g id="edge39" class="edge">
<title>Node30&#45;&gt;Node29</title>
<path fill="none" stroke="midnightblue" d="M741.55,-56.44C764.03,-47.52 799.49,-33.44 824.98,-23.32"/>
<polygon fill="midnightblue" stroke="midnightblue" points="826.55,-26.46 834.55,-19.52 823.97,-19.95 826.55,-26.46"/>
</g>
<!-- Node31 -->
<g id="node31" class="node">
<title>Node31</title>
<g id="a_node31"><a xlink:title=" ">
<polygon fill="white" stroke="#bfbfbf" points="601,-0.5 601,-19.5 667,-19.5 667,-0.5 601,-0.5"/>
<text text-anchor="middle" x="634" y="-7.5" font-family="Helvetica,sans-Serif" font-size="10.00">sys/ioctl.h</text>
</a>
</g>
</g>
<!-- Node30&#45;&gt;Node31 -->
<g id="edge36" class="edge">
<title>Node30&#45;&gt;Node31</title>
<path fill="none" stroke="midnightblue" d="M706.18,-56.32C692.77,-47.9 672.18,-34.97 656.41,-25.07"/>
<polygon fill="midnightblue" stroke="midnightblue" points="658.11,-22.01 647.78,-19.65 654.39,-27.94 658.11,-22.01"/>
</g>
<!-- Node32 -->
<g id="node32" class="node">
<title>Node32</title>
<g id="a_node32"><a xlink:title=" ">
<polygon fill="white" stroke="#bfbfbf" points="527,-0.5 527,-19.5 583,-19.5 583,-0.5 527,-0.5"/>
<text text-anchor="middle" x="555" y="-7.5" font-family="Helvetica,sans-Serif" font-size="10.00">iomanip</text>
</a>
</g>
</g>
<!-- Node30&#45;&gt;Node32 -->
<g id="edge38" class="edge">
<title>Node30&#45;&gt;Node32</title>
<path fill="none" stroke="midnightblue" d="M693.86,-56.44C665.98,-47.32 621.65,-32.81 590.6,-22.65"/>
<polygon fill="midnightblue" stroke="midnightblue" points="591.62,-19.3 581.02,-19.52 589.44,-25.95 591.62,-19.3"/>
</g>
<!-- Node36&#45;&gt;Node9 -->
<g id="edge47" class="edge">
<title>Node36&#45;&gt;Node9</title>
<path fill="none" stroke="midnightblue" d="M1934.5,-56.32C1947.6,-47.9 1967.71,-34.97 1983.11,-25.07"/>
<polygon fill="midnightblue" stroke="midnightblue" points="1985.02,-28.01 1991.54,-19.65 1981.23,-22.12 1985.02,-28.01"/>
</g>
<!-- Node36&#45;&gt;Node22 -->
<g id="edge48" class="edge">
<title>Node36&#45;&gt;Node22</title>
<path fill="none" stroke="midnightblue" d="M1888.94,-63.33C1852.41,-61.44 1790.91,-58.34 1738,-56 1334.25,-38.14 1226.64,-79.81 823.02,-19.79"/>
<polygon fill="midnightblue" stroke="midnightblue" points="823.53,-16.33 813.12,-18.31 822.49,-23.25 823.53,-16.33"/>
</g>
<!-- Node37 -->
<g id="node37" class="node">
<title>Node37</title>
<g id="a_node37"><a xlink:title=" ">
<polygon fill="white" stroke="#bfbfbf" points="2047,-0.5 2047,-19.5 2089,-19.5 2089,-0.5 2047,-0.5"/>
<text text-anchor="middle" x="2068" y="-7.5" font-family="Helvetica,sans-Serif" font-size="10.00">array</text>
</a>
</g>
</g>
<!-- Node36&#45;&gt;Node37 -->
<g id="edge49" class="edge">
<title>Node36&#45;&gt;Node37</title>
<path fill="none" stroke="midnightblue" d="M1944.29,-56.44C1969.38,-47.23 2009.43,-32.52 2037.13,-22.34"/>
<polygon fill="midnightblue" stroke="midnightblue" points="2038.55,-25.55 2046.73,-18.82 2036.13,-18.98 2038.55,-25.55"/>
</g>
<!-- Node38 -->
<g id="node38" class="node">
<title>Node38</title>
<g id="a_node38"><a xlink:title=" ">
<polygon fill="white" stroke="#bfbfbf" points="2107.5,-0.5 2107.5,-19.5 2160.5,-19.5 2160.5,-0.5 2107.5,-0.5"/>
<text text-anchor="middle" x="2134" y="-7.5" font-family="Helvetica,sans-Serif" font-size="10.00">stdlib.h</text>
</a>
</g>
</g>
<!-- Node36&#45;&gt;Node38 -->
<g id="edge50" class="edge">
<title>Node36&#45;&gt;Node38</title>
<path fill="none" stroke="midnightblue" d="M1953.35,-56.8C1992.19,-46.95 2057.14,-30.48 2097.67,-20.21"/>
<polygon fill="midnightblue" stroke="midnightblue" points="2098.58,-23.59 2107.42,-17.74 2096.86,-16.8 2098.58,-23.59"/>
</g>
<!-- Node39&#45;&gt;Node2 -->
<g id="edge52" class="edge">
<title>Node39&#45;&gt;Node2</title>
<path fill="none" stroke="midnightblue" d="M1664.44,-58.41C1659.61,-57.54 1654.68,-56.7 1650,-56 1507.37,-34.6 1466.55,-48.04 1321.41,-19.96"/>
<polygon fill="midnightblue" stroke="midnightblue" points="1321.72,-16.46 1311.24,-17.96 1320.37,-23.32 1321.72,-16.46"/>
</g>
<!-- Node39&#45;&gt;Node7 -->
<g id="edge54" class="edge">
<title>Node39&#45;&gt;Node7</title>
<path fill="none" stroke="midnightblue" d="M1664.42,-58.55C1659.59,-57.66 1654.67,-56.78 1650,-56 1541.57,-37.88 1510.94,-40.56 1398.78,-20"/>
<polygon fill="midnightblue" stroke="midnightblue" points="1399.23,-16.52 1388.76,-18.14 1397.95,-23.41 1399.23,-16.52"/>
</g>
<!-- Node39&#45;&gt;Node9 -->
<g id="edge53" class="edge">
<title>Node39&#45;&gt;Node9</title>
<path fill="none" stroke="midnightblue" d="M1729.8,-60.76C1779.8,-54.05 1878.23,-39.88 1971.41,-19.93"/>
<polygon fill="midnightblue" stroke="midnightblue" points="1972.25,-23.33 1981.28,-17.79 1970.77,-16.49 1972.25,-23.33"/>
</g>
<!-- Node39&#45;&gt;Node24 -->
<g id="edge60" class="edge">
<title>Node39&#45;&gt;Node24</title>
<path fill="none" stroke="midnightblue" d="M1664.27,-57.6C1623.3,-48.35 1552.8,-32.42 1505.79,-21.8"/>
<polygon fill="midnightblue" stroke="midnightblue" points="1506.37,-18.34 1495.85,-19.55 1504.83,-25.17 1506.37,-18.34"/>
</g>
<!-- Node40 -->
<g id="node40" class="node">
<title>Node40</title>
<g id="a_node40"><a xlink:title=" ">
<polygon fill="white" stroke="#bfbfbf" points="1797,-0.5 1797,-19.5 1865,-19.5 1865,-0.5 1797,-0.5"/>
<text text-anchor="middle" x="1831" y="-7.5" font-family="Helvetica,sans-Serif" font-size="10.00">filesystem</text>
</a>
</g>
</g>
<!-- Node39&#45;&gt;Node40 -->
<g id="edge55" class="edge">
<title>Node39&#45;&gt;Node40</title>
<path fill="none" stroke="midnightblue" d="M1718.23,-56.44C1740.38,-47.52 1775.32,-33.44 1800.44,-23.32"/>
<polygon fill="midnightblue" stroke="midnightblue" points="1801.9,-26.5 1809.87,-19.52 1799.28,-20.01 1801.9,-26.5"/>
</g>
<!-- Node41 -->
<g id="node41" class="node">
<title>Node41</title>
<g id="a_node41"><a xlink:title=" ">
<polygon fill="white" stroke="#bfbfbf" points="1883,-0.5 1883,-19.5 1963,-19.5 1963,-0.5 1883,-0.5"/>
<text text-anchor="middle" x="1923" y="-7.5" font-family="Helvetica,sans-Serif" font-size="10.00">SDL_image.h</text>
</a>
</g>
</g>
<!-- Node39&#45;&gt;Node41 -->
<g id="edge56" class="edge">
<title>Node39&#45;&gt;Node41</title>
<path fill="none" stroke="midnightblue" d="M1729.86,-57.15C1768.71,-47.87 1833.58,-32.37 1877.3,-21.92"/>
<polygon fill="midnightblue" stroke="midnightblue" points="1878.2,-25.3 1887.11,-19.58 1876.57,-18.5 1878.2,-25.3"/>
</g>
<!-- Node42 -->
<g id="node42" class="node">
<title>Node42</title>
<g id="a_node42"><a xlink:title=" ">
<polygon fill="white" stroke="#bfbfbf" points="1527.5,-0.5 1527.5,-19.5 1580.5,-19.5 1580.5,-0.5 1527.5,-0.5"/>
<text text-anchor="middle" x="1554" y="-7.5" font-family="Helvetica,sans-Serif" font-size="10.00">imgui.h</text>
</a>
</g>
</g>
<!-- Node39&#45;&gt;Node42 -->
<g id="edge57" class="edge">
<title>Node39&#45;&gt;Node42</title>
<path fill="none" stroke="midnightblue" d="M1674.34,-56.44C1650.6,-47.48 1613.09,-33.31 1586.26,-23.18"/>
<polygon fill="midnightblue" stroke="midnightblue" points="1587.14,-19.77 1576.55,-19.52 1584.67,-26.32 1587.14,-19.77"/>
</g>
<!-- Node43 -->
<g id="node43" class="node">
<title>Node43</title>
<g id="a_node43"><a xlink:title=" ">
<polygon fill="white" stroke="#bfbfbf" points="1599,-0.5 1599,-19.5 1695,-19.5 1695,-0.5 1599,-0.5"/>
<text text-anchor="middle" x="1647" y="-7.5" font-family="Helvetica,sans-Serif" font-size="10.00">imgui_internal.h</text>
</a>
</g>
</g>
<!-- Node39&#45;&gt;Node43 -->
<g id="edge58" class="edge">
<title>Node39&#45;&gt;Node43</title>
<path fill="none" stroke="midnightblue" d="M1688.74,-56.08C1681.54,-48.3 1670.89,-36.8 1662.15,-27.37"/>
<polygon fill="midnightblue" stroke="midnightblue" points="1664.47,-24.71 1655.1,-19.75 1659.33,-29.47 1664.47,-24.71"/>
</g>
<!-- Node44 -->
<g id="node44" class="node">
<title>Node44</title>
<g id="a_node44"><a xlink:title=" ">
<polygon fill="white" stroke="#bfbfbf" points="1713,-0.5 1713,-19.5 1779,-19.5 1779,-0.5 1713,-0.5"/>
<text text-anchor="middle" x="1746" y="-7.5" font-family="Helvetica,sans-Serif" font-size="10.00">libnpy.hpp</text>
</a>
</g>
</g>
<!-- Node39&#45;&gt;Node44 -->
<g id="edge59" class="edge">
<title>Node39&#45;&gt;Node44</title>
<path fill="none" stroke="midnightblue" d="M1705.09,-56.08C1712.16,-48.3 1722.59,-36.8 1731.15,-27.37"/>
<polygon fill="midnightblue" stroke="midnightblue" points="1733.93,-29.51 1738.06,-19.75 1728.75,-24.8 1733.93,-29.51"/>
</g>
</g>
</svg>
