<?xml version="1.0" encoding="UTF-8" standalone="no"?>
<!DOCTYPE svg PUBLIC "-//W3C//DTD SVG 1.1//EN"
 "http://www.w3.org/Graphics/SVG/1.1/DTD/svg11.dtd">
<!-- Generated by graphviz version 2.43.0 (0)
 -->
<!-- Title: src/main.cpp Pages: 1 -->
<svg width="2099pt" height="196pt"
 viewBox="0.00 0.00 2099.00 196.00" xmlns="http://www.w3.org/2000/svg" xmlns:xlink="http://www.w3.org/1999/xlink">
<g id="graph0" class="graph" transform="scale(1 1) rotate(0) translate(4 192)">
<title>src/main.cpp</title>
<polygon fill="white" stroke="transparent" points="-4,4 -4,-192 2095,-192 2095,4 -4,4"/>
<!-- Node1 -->
<g id="node1" class="node">
<title>Node1</title>
<g id="a_node1"><a xlink:title=" ">
<polygon fill="#bfbfbf" stroke="black" points="1478,-168.5 1478,-187.5 1557,-187.5 1557,-168.5 1478,-168.5"/>
<text text-anchor="middle" x="1517.5" y="-175.5" font-family="Helvetica,sans-Serif" font-size="10.00">src/main.cpp</text>
</a>
</g>
</g>
<!-- Node2 -->
<g id="node2" class="node">
<title>Node2</title>
<g id="a_node2"><a xlink:title=" ">
<polygon fill="white" stroke="#bfbfbf" points="1197.5,-0.5 1197.5,-19.5 1241.5,-19.5 1241.5,-0.5 1197.5,-0.5"/>
<text text-anchor="middle" x="1219.5" y="-7.5" font-family="Helvetica,sans-Serif" font-size="10.00">string</text>
</a>
</g>
</g>
<!-- Node1&#45;&gt;Node2 -->
<g id="edge1" class="edge">
<title>Node1&#45;&gt;Node2</title>
<path fill="none" stroke="midnightblue" d="M1513.39,-168.28C1502.27,-145.69 1469.24,-85.03 1422.5,-56 1358.87,-16.48 1328.79,-37.03 1251.92,-20.08"/>
<polygon fill="midnightblue" stroke="midnightblue" points="1252.33,-16.58 1241.8,-17.69 1250.73,-23.4 1252.33,-16.58"/>
</g>
<!-- Node3 -->
<g id="node3" class="node">
<title>Node3</title>
<g id="a_node3"><a xlink:href="../../de/dfc/Ricom_8h.html" target="_top" xlink:title=" ">
<polygon fill="white" stroke="black" points="927.5,-112.5 927.5,-131.5 983.5,-131.5 983.5,-112.5 927.5,-112.5"/>
<text text-anchor="middle" x="955.5" y="-119.5" font-family="Helvetica,sans-Serif" font-size="10.00">Ricom.h</text>
</a>
</g>
</g>
<!-- Node1&#45;&gt;Node3 -->
<g id="edge2" class="edge">
<title>Node1&#45;&gt;Node3</title>
<path fill="none" stroke="midnightblue" d="M1477.98,-173.2C1374.46,-163.26 1096.32,-136.53 993.98,-126.7"/>
<polygon fill="midnightblue" stroke="midnightblue" points="994.08,-123.19 983.79,-125.72 993.41,-130.16 994.08,-123.19"/>
</g>
<!-- Node35 -->
<g id="node35" class="node">
<title>Node35</title>
<g id="a_node35"><a xlink:href="../../dd/de4/Camera_8h.html" target="_top" xlink:title=" ">
<polygon fill="white" stroke="black" points="1844.5,-56.5 1844.5,-75.5 1908.5,-75.5 1908.5,-56.5 1844.5,-56.5"/>
<text text-anchor="middle" x="1876.5" y="-63.5" font-family="Helvetica,sans-Serif" font-size="10.00">Camera.h</text>
</a>
</g>
</g>
<!-- Node1&#45;&gt;Node35 -->
<g id="edge60" class="edge">
<title>Node1&#45;&gt;Node35</title>
<path fill="none" stroke="midnightblue" d="M1545.37,-168.46C1609.25,-148.89 1766.3,-100.77 1838.76,-78.57"/>
<polygon fill="midnightblue" stroke="midnightblue" points="1839.86,-81.89 1848.4,-75.61 1837.81,-75.19 1839.86,-81.89"/>
</g>
<!-- Node3&#45;&gt;Node2 -->
<g id="edge9" class="edge">
<title>Node3&#45;&gt;Node2</title>
<path fill="none" stroke="midnightblue" d="M983.52,-119.37C1061.04,-114.56 1274.06,-99.33 1294.5,-76 1312.58,-55.36 1279.15,-35.25 1251.3,-23"/>
<polygon fill="midnightblue" stroke="midnightblue" points="1252.35,-19.64 1241.77,-19 1249.64,-26.1 1252.35,-19.64"/>
</g>
<!-- Node4 -->
<g id="node4" class="node">
<title>Node4</title>
<g id="a_node4"><a xlink:title=" ">
<polygon fill="white" stroke="#bfbfbf" points="1121.5,-0.5 1121.5,-19.5 1177.5,-19.5 1177.5,-0.5 1121.5,-0.5"/>
<text text-anchor="middle" x="1149.5" y="-7.5" font-family="Helvetica,sans-Serif" font-size="10.00">unistd.h</text>
</a>
</g>
</g>
<!-- Node3&#45;&gt;Node4 -->
<g id="edge3" class="edge">
<title>Node3&#45;&gt;Node4</title>
<path fill="none" stroke="midnightblue" d="M983.7,-121.55C1054.99,-122.26 1239.43,-119.76 1277.5,-76 1283.33,-69.29 1282.64,-63.25 1277.5,-56 1272.04,-48.29 1223.16,-32.57 1187.42,-21.91"/>
<polygon fill="midnightblue" stroke="midnightblue" points="1188.32,-18.53 1177.74,-19.05 1186.34,-25.24 1188.32,-18.53"/>
</g>
<!-- Node5 -->
<g id="node5" class="node">
<title>Node5</title>
<g id="a_node5"><a xlink:title=" ">
<polygon fill="white" stroke="#bfbfbf" points="964,-0.5 964,-19.5 1011,-19.5 1011,-0.5 964,-0.5"/>
<text text-anchor="middle" x="987.5" y="-7.5" font-family="Helvetica,sans-Serif" font-size="10.00">cmath</text>
</a>
</g>
</g>
<!-- Node3&#45;&gt;Node5 -->
<g id="edge4" class="edge">
<title>Node3&#45;&gt;Node5</title>
<path fill="none" stroke="midnightblue" d="M966.49,-112.37C975.95,-104.17 988.94,-90.92 994.5,-76 1000.08,-61.05 997.42,-42.91 993.88,-29.59"/>
<polygon fill="midnightblue" stroke="midnightblue" points="997.14,-28.27 990.87,-19.72 990.44,-30.31 997.14,-28.27"/>
</g>
<!-- Node6 -->
<g id="node6" class="node">
<title>Node6</title>
<g id="a_node6"><a xlink:title=" ">
<polygon fill="white" stroke="#bfbfbf" points="1363.5,-56.5 1363.5,-75.5 1413.5,-75.5 1413.5,-56.5 1363.5,-56.5"/>
<text text-anchor="middle" x="1388.5" y="-63.5" font-family="Helvetica,sans-Serif" font-size="10.00">stdio.h</text>
</a>
</g>
</g>
<!-- Node3&#45;&gt;Node6 -->
<g id="edge5" class="edge">
<title>Node3&#45;&gt;Node6</title>
<path fill="none" stroke="midnightblue" d="M983.84,-118.87C1048.83,-113.74 1213.46,-99.39 1349.5,-76 1350.77,-75.78 1352.06,-75.55 1353.37,-75.3"/>
<polygon fill="midnightblue" stroke="midnightblue" points="1354.32,-78.68 1363.41,-73.23 1352.91,-71.82 1354.32,-78.68"/>
</g>
<!-- Node7 -->
<g id="node7" class="node">
<title>Node7</title>
<g id="a_node7"><a xlink:title=" ">
<polygon fill="white" stroke="#bfbfbf" points="1260,-0.5 1260,-19.5 1319,-19.5 1319,-0.5 1260,-0.5"/>
<text text-anchor="middle" x="1289.5" y="-7.5" font-family="Helvetica,sans-Serif" font-size="10.00">complex</text>
</a>
</g>
</g>
<!-- Node3&#45;&gt;Node7 -->
<g id="edge6" class="edge">
<title>Node3&#45;&gt;Node7</title>
<path fill="none" stroke="midnightblue" d="M983.64,-120.44C1080.07,-118.23 1392.89,-108.6 1422.5,-76 1428.48,-69.42 1427.68,-63.22 1422.5,-56 1416.82,-48.08 1366.31,-32.49 1329.21,-21.9"/>
<polygon fill="midnightblue" stroke="midnightblue" points="1329.73,-18.41 1319.15,-19.06 1327.82,-25.15 1329.73,-18.41"/>
</g>
<!-- Node8 -->
<g id="node8" class="node">
<title>Node8</title>
<g id="a_node8"><a xlink:title=" ">
<polygon fill="white" stroke="#bfbfbf" points="9.5,-56.5 9.5,-75.5 53.5,-75.5 53.5,-56.5 9.5,-56.5"/>
<text text-anchor="middle" x="31.5" y="-63.5" font-family="Helvetica,sans-Serif" font-size="10.00">cfloat</text>
</a>
</g>
</g>
<!-- Node3&#45;&gt;Node8 -->
<g id="edge7" class="edge">
<title>Node3&#45;&gt;Node8</title>
<path fill="none" stroke="midnightblue" d="M927.41,-120.46C797.6,-117.84 254.48,-105.41 63.61,-75.73"/>
<polygon fill="midnightblue" stroke="midnightblue" points="64.14,-72.27 53.71,-74.12 63.02,-79.18 64.14,-72.27"/>
</g>
<!-- Node9 -->
<g id="node9" class="node">
<title>Node9</title>
<g id="a_node9"><a xlink:title=" ">
<polygon fill="white" stroke="#bfbfbf" points="1912,-0.5 1912,-19.5 1959,-19.5 1959,-0.5 1912,-0.5"/>
<text text-anchor="middle" x="1935.5" y="-7.5" font-family="Helvetica,sans-Serif" font-size="10.00">vector</text>
</a>
</g>
</g>
<!-- Node3&#45;&gt;Node9 -->
<g id="edge8" class="edge">
<title>Node3&#45;&gt;Node9</title>
<path fill="none" stroke="midnightblue" d="M983.78,-120.37C1075.77,-118.06 1374.66,-108.39 1619.5,-76 1743.38,-59.61 1776.04,-49.84 1901.74,-20.06"/>
<polygon fill="midnightblue" stroke="midnightblue" points="1902.83,-23.4 1911.76,-17.69 1901.22,-16.59 1902.83,-23.4"/>
</g>
<!-- Node10 -->
<g id="node10" class="node">
<title>Node10</title>
<g id="a_node10"><a xlink:title=" ">
<polygon fill="white" stroke="#bfbfbf" points="225.5,-56.5 225.5,-75.5 269.5,-75.5 269.5,-56.5 225.5,-56.5"/>
<text text-anchor="middle" x="247.5" y="-63.5" font-family="Helvetica,sans-Serif" font-size="10.00">SDL.h</text>
</a>
</g>
</g>
<!-- Node3&#45;&gt;Node10 -->
<g id="edge10" class="edge">
<title>Node3&#45;&gt;Node10</title>
<path fill="none" stroke="midnightblue" d="M927.46,-120.9C834.91,-120.21 530.98,-114.9 283.5,-76 282.25,-75.8 280.97,-75.58 279.69,-75.35"/>
<polygon fill="midnightblue" stroke="midnightblue" points="280.35,-71.91 269.84,-73.24 278.89,-78.75 280.35,-71.91"/>
</g>
<!-- Node11 -->
<g id="node11" class="node">
<title>Node11</title>
<g id="a_node11"><a xlink:title=" ">
<polygon fill="white" stroke="#bfbfbf" points="273.5,-0.5 273.5,-19.5 321.5,-19.5 321.5,-0.5 273.5,-0.5"/>
<text text-anchor="middle" x="297.5" y="-7.5" font-family="Helvetica,sans-Serif" font-size="10.00">mutex</text>
</a>
</g>
</g>
<!-- Node3&#45;&gt;Node11 -->
<g id="edge11" class="edge">
<title>Node3&#45;&gt;Node11</title>
<path fill="none" stroke="midnightblue" d="M927.22,-120.88C809.8,-120.13 364.56,-114.73 316.5,-76 302.93,-65.06 298.71,-45 297.55,-30.05"/>
<polygon fill="midnightblue" stroke="midnightblue" points="301.04,-29.7 297.17,-19.84 294.05,-29.97 301.04,-29.7"/>
</g>
<!-- Node12 -->
<g id="node12" class="node">
<title>Node12</title>
<g id="a_node12"><a xlink:title=" ">
<polygon fill="white" stroke="#bfbfbf" points="325.5,-56.5 325.5,-75.5 371.5,-75.5 371.5,-56.5 325.5,-56.5"/>
<text text-anchor="middle" x="348.5" y="-63.5" font-family="Helvetica,sans-Serif" font-size="10.00">future</text>
</a>
</g>
</g>
<!-- Node3&#45;&gt;Node12 -->
<g id="edge12" class="edge">
<title>Node3&#45;&gt;Node12</title>
<path fill="none" stroke="midnightblue" d="M927.44,-120.37C844.23,-118.16 591.83,-109.02 385.5,-76 384.25,-75.8 382.98,-75.58 381.7,-75.34"/>
<polygon fill="midnightblue" stroke="midnightblue" points="382.38,-71.91 371.87,-73.28 380.94,-78.76 382.38,-71.91"/>
</g>
<!-- Node13 -->
<g id="node13" class="node">
<title>Node13</title>
<g id="a_node13"><a xlink:title=" ">
<polygon fill="white" stroke="#bfbfbf" points="357.5,-0.5 357.5,-19.5 405.5,-19.5 405.5,-0.5 357.5,-0.5"/>
<text text-anchor="middle" x="381.5" y="-7.5" font-family="Helvetica,sans-Serif" font-size="10.00">thread</text>
</a>
</g>
</g>
<!-- Node3&#45;&gt;Node13 -->
<g id="edge13" class="edge">
<title>Node3&#45;&gt;Node13</title>
<path fill="none" stroke="midnightblue" d="M927.44,-120.17C823.14,-116.87 461.62,-103.54 418.5,-76 401.95,-65.43 392.04,-44.65 386.7,-29.42"/>
<polygon fill="midnightblue" stroke="midnightblue" points="389.93,-28.03 383.59,-19.54 383.25,-30.13 389.93,-28.03"/>
</g>
<!-- Node14 -->
<g id="node14" class="node">
<title>Node14</title>
<g id="a_node14"><a xlink:title=" ">
<polygon fill="white" stroke="#bfbfbf" points="427.5,-56.5 427.5,-75.5 477.5,-75.5 477.5,-56.5 427.5,-56.5"/>
<text text-anchor="middle" x="452.5" y="-63.5" font-family="Helvetica,sans-Serif" font-size="10.00">fftw3.h</text>
</a>
</g>
</g>
<!-- Node3&#45;&gt;Node14 -->
<g id="edge14" class="edge">
<title>Node3&#45;&gt;Node14</title>
<path fill="none" stroke="midnightblue" d="M927.35,-119.55C854.77,-115.53 655.45,-102.75 491.5,-76 490.23,-75.79 488.93,-75.57 487.63,-75.33"/>
<polygon fill="midnightblue" stroke="midnightblue" points="488.08,-71.85 477.58,-73.29 486.69,-78.71 488.08,-71.85"/>
</g>
<!-- Node15 -->
<g id="node15" class="node">
<title>Node15</title>
<g id="a_node15"><a xlink:title=" ">
<polygon fill="white" stroke="#bfbfbf" points="458.5,-0.5 458.5,-19.5 508.5,-19.5 508.5,-0.5 458.5,-0.5"/>
<text text-anchor="middle" x="483.5" y="-7.5" font-family="Helvetica,sans-Serif" font-size="10.00">chrono</text>
</a>
</g>
</g>
<!-- Node3&#45;&gt;Node15 -->
<g id="edge15" class="edge">
<title>Node3&#45;&gt;Node15</title>
<path fill="none" stroke="midnightblue" d="M927.38,-121.2C842.77,-121.32 592.15,-118.04 524.5,-76 507.19,-65.24 495.94,-44.18 489.68,-28.94"/>
<polygon fill="midnightblue" stroke="midnightblue" points="492.93,-27.64 486.13,-19.52 486.38,-30.11 492.93,-27.64"/>
</g>
<!-- Node16 -->
<g id="node16" class="node">
<title>Node16</title>
<g id="a_node16"><a xlink:title=" ">
<polygon fill="white" stroke="#bfbfbf" points="533.5,-56.5 533.5,-75.5 597.5,-75.5 597.5,-56.5 533.5,-56.5"/>
<text text-anchor="middle" x="565.5" y="-63.5" font-family="Helvetica,sans-Serif" font-size="10.00">algorithm</text>
</a>
</g>
</g>
<!-- Node3&#45;&gt;Node16 -->
<g id="edge16" class="edge">
<title>Node3&#45;&gt;Node16</title>
<path fill="none" stroke="midnightblue" d="M927.33,-118.22C869.39,-112.31 732.54,-97.43 607.78,-76.09"/>
<polygon fill="midnightblue" stroke="midnightblue" points="608.13,-72.6 597.68,-74.34 606.93,-79.5 608.13,-72.6"/>
</g>
<!-- Node17 -->
<g id="node17" class="node">
<title>Node17</title>
<g id="a_node17"><a xlink:title=" ">
<polygon fill="white" stroke="#bfbfbf" points="615.5,-56.5 615.5,-75.5 659.5,-75.5 659.5,-56.5 615.5,-56.5"/>
<text text-anchor="middle" x="637.5" y="-63.5" font-family="Helvetica,sans-Serif" font-size="10.00">ctime</text>
</a>
</g>
</g>
<!-- Node3&#45;&gt;Node17 -->
<g id="edge17" class="edge">
<title>Node3&#45;&gt;Node17</title>
<path fill="none" stroke="midnightblue" d="M927.17,-117.77C877.08,-111.8 769.51,-97.82 669.71,-76.03"/>
<polygon fill="midnightblue" stroke="midnightblue" points="670.28,-72.58 659.76,-73.83 668.77,-79.41 670.28,-72.58"/>
</g>
<!-- Node18 -->
<g id="node18" class="node">
<title>Node18</title>
<g id="a_node18"><a xlink:href="../../d7/d50/BoundedThreadPool_8hpp.html" target="_top" xlink:title=" ">
<polygon fill="white" stroke="black" points="72,-56.5 72,-75.5 207,-75.5 207,-56.5 72,-56.5"/>
<text text-anchor="middle" x="139.5" y="-63.5" font-family="Helvetica,sans-Serif" font-size="10.00">BoundedThreadPool.hpp</text>
</a>
</g>
</g>
<!-- Node3&#45;&gt;Node18 -->
<g id="edge18" class="edge">
<title>Node3&#45;&gt;Node18</title>
<path fill="none" stroke="midnightblue" d="M927.27,-119.85C830.18,-115.76 500.89,-100.92 217.16,-76"/>
<polygon fill="midnightblue" stroke="midnightblue" points="217.35,-72.51 207.08,-75.11 216.74,-79.48 217.35,-72.51"/>
</g>
<!-- Node24 -->
<g id="node24" class="node">
<title>Node24</title>
<g id="a_node24"><a xlink:title=" ">
<polygon fill="white" stroke="#bfbfbf" points="1337.5,-0.5 1337.5,-19.5 1439.5,-19.5 1439.5,-0.5 1337.5,-0.5"/>
<text text-anchor="middle" x="1388.5" y="-7.5" font-family="Helvetica,sans-Serif" font-size="10.00">tinycolormap.hpp</text>
</a>
</g>
</g>
<!-- Node3&#45;&gt;Node24 -->
<g id="edge26" class="edge">
<title>Node3&#45;&gt;Node24</title>
<path fill="none" stroke="midnightblue" d="M983.63,-120.54C1082.34,-118.64 1408.66,-109.84 1439.5,-76 1454.73,-59.28 1431.86,-38.5 1412.04,-25"/>
<polygon fill="midnightblue" stroke="midnightblue" points="1413.87,-22.02 1403.57,-19.53 1410.06,-27.9 1413.87,-22.02"/>
</g>
<!-- Node25 -->
<g id="node25" class="node">
<title>Node25</title>
<g id="a_node25"><a xlink:title=" ">
<polygon fill="white" stroke="#bfbfbf" points="925.5,-56.5 925.5,-75.5 985.5,-75.5 985.5,-56.5 925.5,-56.5"/>
<text text-anchor="middle" x="955.5" y="-63.5" font-family="Helvetica,sans-Serif" font-size="10.00">fft2d.hpp</text>
</a>
</g>
</g>
<!-- Node3&#45;&gt;Node25 -->
<g id="edge27" class="edge">
<title>Node3&#45;&gt;Node25</title>
<path fill="none" stroke="midnightblue" d="M955.5,-112.08C955.5,-105.01 955.5,-94.86 955.5,-85.99"/>
<polygon fill="midnightblue" stroke="midnightblue" points="959,-85.75 955.5,-75.75 952,-85.75 959,-85.75"/>
</g>
<!-- Node26 -->
<g id="node26" class="node">
<title>Node26</title>
<g id="a_node26"><a xlink:href="../../d0/d3c/SocketConnector_8h.html" target="_top" xlink:title=" ">
<polygon fill="white" stroke="black" points="800,-56.5 800,-75.5 907,-75.5 907,-56.5 800,-56.5"/>
<text text-anchor="middle" x="853.5" y="-63.5" font-family="Helvetica,sans-Serif" font-size="10.00">SocketConnector.h</text>
</a>
</g>
</g>
<!-- Node3&#45;&gt;Node26 -->
<g id="edge28" class="edge">
<title>Node3&#45;&gt;Node26</title>
<path fill="none" stroke="midnightblue" d="M939.11,-112.32C922.83,-103.7 897.63,-90.36 878.78,-80.39"/>
<polygon fill="midnightblue" stroke="midnightblue" points="880.32,-77.24 869.85,-75.65 877.05,-83.43 880.32,-77.24"/>
</g>
<!-- Node30 -->
<g id="node30" class="node">
<title>Node30</title>
<g id="a_node30"><a xlink:href="../../da/dce/ProgressMonitor_8h.html" target="_top" xlink:title=" ">
<polygon fill="white" stroke="black" points="677.5,-56.5 677.5,-75.5 781.5,-75.5 781.5,-56.5 677.5,-56.5"/>
<text text-anchor="middle" x="729.5" y="-63.5" font-family="Helvetica,sans-Serif" font-size="10.00">ProgressMonitor.h</text>
</a>
</g>
</g>
<!-- Node3&#45;&gt;Node30 -->
<g id="edge35" class="edge">
<title>Node3&#45;&gt;Node30</title>
<path fill="none" stroke="midnightblue" d="M927.33,-114.27C889.16,-105.15 820.55,-88.76 775.02,-77.88"/>
<polygon fill="midnightblue" stroke="midnightblue" points="775.64,-74.43 765.1,-75.51 774.02,-81.24 775.64,-74.43"/>
</g>
<!-- Node33 -->
<g id="node33" class="node">
<title>Node33</title>
<g id="a_node33"><a xlink:title=" ">
<polygon fill="white" stroke="#bfbfbf" points="1041.5,-56.5 1041.5,-75.5 1141.5,-75.5 1141.5,-56.5 1041.5,-56.5"/>
<text text-anchor="middle" x="1091.5" y="-63.5" font-family="Helvetica,sans-Serif" font-size="10.00">MerlinInterface.h</text>
</a>
</g>
</g>
<!-- Node3&#45;&gt;Node33 -->
<g id="edge43" class="edge">
<title>Node3&#45;&gt;Node33</title>
<path fill="none" stroke="midnightblue" d="M977.05,-112.44C999.53,-103.52 1034.99,-89.44 1060.48,-79.32"/>
<polygon fill="midnightblue" stroke="midnightblue" points="1062.05,-82.46 1070.05,-75.52 1059.47,-75.95 1062.05,-82.46"/>
</g>
<!-- Node34 -->
<g id="node34" class="node">
<title>Node34</title>
<g id="a_node34"><a xlink:title=" ">
<polygon fill="white" stroke="#bfbfbf" points="1160,-56.5 1160,-75.5 1269,-75.5 1269,-56.5 1160,-56.5"/>
<text text-anchor="middle" x="1214.5" y="-63.5" font-family="Helvetica,sans-Serif" font-size="10.00">TimepixInterface.h</text>
</a>
</g>
</g>
<!-- Node3&#45;&gt;Node34 -->
<g id="edge44" class="edge">
<title>Node3&#45;&gt;Node34</title>
<path fill="none" stroke="midnightblue" d="M983.71,-115.12C1026.82,-106.13 1109.74,-88.84 1163.56,-77.62"/>
<polygon fill="midnightblue" stroke="midnightblue" points="1164.51,-81 1173.59,-75.53 1163.08,-74.14 1164.51,-81"/>
</g>
<!-- Node3&#45;&gt;Node35 -->
<g id="edge45" class="edge">
<title>Node3&#45;&gt;Node35</title>
<path fill="none" stroke="midnightblue" d="M983.71,-119.76C1088.17,-115.08 1462.96,-97.73 1771.5,-76 1792.13,-74.55 1815.02,-72.62 1834.15,-70.93"/>
<polygon fill="midnightblue" stroke="midnightblue" points="1834.7,-74.39 1844.35,-70.01 1834.08,-67.42 1834.7,-74.39"/>
</g>
<!-- Node38 -->
<g id="node38" class="node">
<title>Node38</title>
<g id="a_node38"><a xlink:href="../../d7/db2/GuiUtils_8h.html" target="_top" xlink:title=" ">
<polygon fill="white" stroke="black" points="1546,-56.5 1546,-75.5 1611,-75.5 1611,-56.5 1546,-56.5"/>
<text text-anchor="middle" x="1578.5" y="-63.5" font-family="Helvetica,sans-Serif" font-size="10.00">GuiUtils.h</text>
</a>
</g>
</g>
<!-- Node3&#45;&gt;Node38 -->
<g id="edge50" class="edge">
<title>Node3&#45;&gt;Node38</title>
<path fill="none" stroke="midnightblue" d="M983.52,-118.88C1063.3,-112.78 1298.48,-94.48 1493.5,-76 1507.27,-74.69 1522.29,-73.15 1535.81,-71.71"/>
<polygon fill="midnightblue" stroke="midnightblue" points="1536.25,-75.18 1545.82,-70.63 1535.51,-68.22 1536.25,-75.18"/>
</g>
<!-- Node18&#45;&gt;Node11 -->
<g id="edge22" class="edge">
<title>Node18&#45;&gt;Node11</title>
<path fill="none" stroke="midnightblue" d="M164.54,-56.44C191.35,-47.28 234.05,-32.68 263.81,-22.52"/>
<polygon fill="midnightblue" stroke="midnightblue" points="265.03,-25.8 273.36,-19.25 262.76,-19.17 265.03,-25.8"/>
</g>
<!-- Node18&#45;&gt;Node13 -->
<g id="edge19" class="edge">
<title>Node18&#45;&gt;Node13</title>
<path fill="none" stroke="midnightblue" d="M177.85,-56.44C224.58,-46.01 302.84,-28.55 347.51,-18.58"/>
<polygon fill="midnightblue" stroke="midnightblue" points="348.31,-21.99 357.31,-16.4 346.78,-15.16 348.31,-21.99"/>
</g>
<!-- Node19 -->
<g id="node19" class="node">
<title>Node19</title>
<g id="a_node19"><a xlink:title=" ">
<polygon fill="white" stroke="#bfbfbf" points="208,-0.5 208,-19.5 255,-19.5 255,-0.5 208,-0.5"/>
<text text-anchor="middle" x="231.5" y="-7.5" font-family="Helvetica,sans-Serif" font-size="10.00">queue</text>
</a>
</g>
</g>
<!-- Node18&#45;&gt;Node19 -->
<g id="edge20" class="edge">
<title>Node18&#45;&gt;Node19</title>
<path fill="none" stroke="midnightblue" d="M154.28,-56.32C168.77,-47.82 191.07,-34.73 207.99,-24.8"/>
<polygon fill="midnightblue" stroke="midnightblue" points="209.9,-27.74 216.76,-19.65 206.36,-21.7 209.9,-27.74"/>
</g>
<!-- Node20 -->
<g id="node20" class="node">
<title>Node20</title>
<g id="a_node20"><a xlink:title=" ">
<polygon fill="white" stroke="#bfbfbf" points="0,-0.5 0,-19.5 65,-19.5 65,-0.5 0,-0.5"/>
<text text-anchor="middle" x="32.5" y="-7.5" font-family="Helvetica,sans-Serif" font-size="10.00">functional</text>
</a>
</g>
</g>
<!-- Node18&#45;&gt;Node20 -->
<g id="edge21" class="edge">
<title>Node18&#45;&gt;Node20</title>
<path fill="none" stroke="midnightblue" d="M122.31,-56.32C105.15,-47.66 78.55,-34.24 58.75,-24.25"/>
<polygon fill="midnightblue" stroke="midnightblue" points="60.15,-21.04 49.65,-19.65 57,-27.28 60.15,-21.04"/>
</g>
<!-- Node21 -->
<g id="node21" class="node">
<title>Node21</title>
<g id="a_node21"><a xlink:title=" ">
<polygon fill="white" stroke="#bfbfbf" points="83,-0.5 83,-19.5 190,-19.5 190,-0.5 83,-0.5"/>
<text text-anchor="middle" x="136.5" y="-7.5" font-family="Helvetica,sans-Serif" font-size="10.00">condition_variable</text>
</a>
</g>
</g>
<!-- Node18&#45;&gt;Node21 -->
<g id="edge23" class="edge">
<title>Node18&#45;&gt;Node21</title>
<path fill="none" stroke="midnightblue" d="M139,-56.08C138.61,-49.01 138.05,-38.86 137.55,-29.99"/>
<polygon fill="midnightblue" stroke="midnightblue" points="141.04,-29.54 136.99,-19.75 134.05,-29.93 141.04,-29.54"/>
</g>
<!-- Node22 -->
<g id="node22" class="node">
<title>Node22</title>
<g id="a_node22"><a xlink:title=" ">
<polygon fill="white" stroke="#bfbfbf" points="762.5,-0.5 762.5,-19.5 812.5,-19.5 812.5,-0.5 762.5,-0.5"/>
<text text-anchor="middle" x="787.5" y="-7.5" font-family="Helvetica,sans-Serif" font-size="10.00">atomic</text>
</a>
</g>
</g>
<!-- Node18&#45;&gt;Node22 -->
<g id="edge24" class="edge">
<title>Node18&#45;&gt;Node22</title>
<path fill="none" stroke="midnightblue" d="M207.09,-56.91C210.27,-56.59 213.42,-56.28 216.5,-56 451.44,-34.41 515.71,-58.12 752.42,-19.86"/>
<polygon fill="midnightblue" stroke="midnightblue" points="753.06,-23.3 762.37,-18.23 751.93,-16.39 753.06,-23.3"/>
</g>
<!-- Node23 -->
<g id="node23" class="node">
<title>Node23</title>
<g id="a_node23"><a xlink:title=" ">
<polygon fill="white" stroke="#bfbfbf" points="684.5,-0.5 684.5,-19.5 744.5,-19.5 744.5,-0.5 684.5,-0.5"/>
<text text-anchor="middle" x="714.5" y="-7.5" font-family="Helvetica,sans-Serif" font-size="10.00">iostream</text>
</a>
</g>
</g>
<!-- Node18&#45;&gt;Node23 -->
<g id="edge25" class="edge">
<title>Node18&#45;&gt;Node23</title>
<path fill="none" stroke="midnightblue" d="M207.09,-56.95C210.27,-56.62 213.42,-56.3 216.5,-56 416.88,-36.44 471.5,-50.62 674.27,-19.97"/>
<polygon fill="midnightblue" stroke="midnightblue" points="675,-23.4 684.35,-18.42 673.94,-16.48 675,-23.4"/>
</g>
<!-- Node26&#45;&gt;Node2 -->
<g id="edge33" class="edge">
<title>Node26&#45;&gt;Node2</title>
<path fill="none" stroke="midnightblue" d="M907.11,-57.31C910.29,-56.86 913.44,-56.42 916.5,-56 1036.42,-39.44 1067.84,-43.98 1186.5,-20 1186.83,-19.93 1187.16,-19.87 1187.49,-19.8"/>
<polygon fill="midnightblue" stroke="midnightblue" points="1188.3,-23.2 1197.23,-17.51 1186.69,-16.39 1188.3,-23.2"/>
</g>
<!-- Node26&#45;&gt;Node4 -->
<g id="edge30" class="edge">
<title>Node26&#45;&gt;Node4</title>
<path fill="none" stroke="midnightblue" d="M903.99,-56.48C955.11,-47.75 1036.42,-33.56 1106.5,-20 1108,-19.71 1109.52,-19.41 1111.06,-19.1"/>
<polygon fill="midnightblue" stroke="midnightblue" points="1112.2,-22.45 1121.31,-17.03 1110.81,-15.59 1112.2,-22.45"/>
</g>
<!-- Node26&#45;&gt;Node23 -->
<g id="edge34" class="edge">
<title>Node26&#45;&gt;Node23</title>
<path fill="none" stroke="midnightblue" d="M831.48,-56.44C808.4,-47.48 771.94,-33.31 745.86,-23.18"/>
<polygon fill="midnightblue" stroke="midnightblue" points="747.01,-19.88 736.42,-19.52 744.48,-26.4 747.01,-19.88"/>
</g>
<!-- Node27 -->
<g id="node27" class="node">
<title>Node27</title>
<g id="a_node27"><a xlink:title=" ">
<polygon fill="white" stroke="#bfbfbf" points="1029,-0.5 1029,-19.5 1098,-19.5 1098,-0.5 1029,-0.5"/>
<text text-anchor="middle" x="1063.5" y="-7.5" font-family="Helvetica,sans-Serif" font-size="10.00">arpa/inet.h</text>
</a>
</g>
</g>
<!-- Node26&#45;&gt;Node27 -->
<g id="edge29" class="edge">
<title>Node26&#45;&gt;Node27</title>
<path fill="none" stroke="midnightblue" d="M886.78,-56.44C922.95,-47.14 980.88,-32.25 1020.48,-22.06"/>
<polygon fill="midnightblue" stroke="midnightblue" points="1021.57,-25.4 1030.38,-19.52 1019.82,-18.62 1021.57,-25.4"/>
</g>
<!-- Node28 -->
<g id="node28" class="node">
<title>Node28</title>
<g id="a_node28"><a xlink:title=" ">
<polygon fill="white" stroke="#bfbfbf" points="899,-0.5 899,-19.5 946,-19.5 946,-0.5 899,-0.5"/>
<text text-anchor="middle" x="922.5" y="-7.5" font-family="Helvetica,sans-Serif" font-size="10.00">cerrno</text>
</a>
</g>
</g>
<!-- Node26&#45;&gt;Node28 -->
<g id="edge31" class="edge">
<title>Node26&#45;&gt;Node28</title>
<path fill="none" stroke="midnightblue" d="M864.59,-56.32C874.99,-48.18 890.76,-35.84 903.22,-26.09"/>
<polygon fill="midnightblue" stroke="midnightblue" points="905.49,-28.75 911.21,-19.83 901.18,-23.24 905.49,-28.75"/>
</g>
<!-- Node29 -->
<g id="node29" class="node">
<title>Node29</title>
<g id="a_node29"><a xlink:title=" ">
<polygon fill="white" stroke="#bfbfbf" points="830.5,-0.5 830.5,-19.5 880.5,-19.5 880.5,-0.5 830.5,-0.5"/>
<text text-anchor="middle" x="855.5" y="-7.5" font-family="Helvetica,sans-Serif" font-size="10.00">cstring</text>
</a>
</g>
</g>
<!-- Node26&#45;&gt;Node29 -->
<g id="edge32" class="edge">
<title>Node26&#45;&gt;Node29</title>
<path fill="none" stroke="midnightblue" d="M853.83,-56.08C854.09,-49.01 854.47,-38.86 854.8,-29.99"/>
<polygon fill="midnightblue" stroke="midnightblue" points="858.3,-29.87 855.18,-19.75 851.31,-29.61 858.3,-29.87"/>
</g>
<!-- Node30&#45;&gt;Node5 -->
<g id="edge42" class="edge">
<title>Node30&#45;&gt;Node5</title>
<path fill="none" stroke="midnightblue" d="M777.11,-56.46C820.65,-48.43 887.04,-35.64 953.89,-20.01"/>
<polygon fill="midnightblue" stroke="midnightblue" points="954.83,-23.39 963.76,-17.69 953.22,-16.57 954.83,-23.39"/>
</g>
<!-- Node30&#45;&gt;Node15 -->
<g id="edge41" class="edge">
<title>Node30&#45;&gt;Node15</title>
<path fill="none" stroke="midnightblue" d="M686.32,-56.49C645.48,-48.29 582.25,-35.22 518.53,-20.16"/>
<polygon fill="midnightblue" stroke="midnightblue" points="519.25,-16.73 508.72,-17.82 517.63,-23.54 519.25,-16.73"/>
</g>
<!-- Node30&#45;&gt;Node22 -->
<g id="edge40" class="edge">
<title>Node30&#45;&gt;Node22</title>
<path fill="none" stroke="midnightblue" d="M738.82,-56.32C747.39,-48.34 760.31,-36.31 770.69,-26.65"/>
<polygon fill="midnightblue" stroke="midnightblue" points="773.08,-29.21 778.01,-19.83 768.31,-24.09 773.08,-29.21"/>
</g>
<!-- Node30&#45;&gt;Node23 -->
<g id="edge37" class="edge">
<title>Node30&#45;&gt;Node23</title>
<path fill="none" stroke="midnightblue" d="M727.02,-56.08C725.01,-48.85 722.11,-38.41 719.61,-29.4"/>
<polygon fill="midnightblue" stroke="midnightblue" points="722.98,-28.45 716.93,-19.75 716.24,-30.32 722.98,-28.45"/>
</g>
<!-- Node30&#45;&gt;Node29 -->
<g id="edge39" class="edge">
<title>Node30&#45;&gt;Node29</title>
<path fill="none" stroke="midnightblue" d="M749.47,-56.44C770.11,-47.6 802.56,-33.69 826.13,-23.59"/>
<polygon fill="midnightblue" stroke="midnightblue" points="827.82,-26.67 835.63,-19.52 825.06,-20.24 827.82,-26.67"/>
</g>
<!-- Node31 -->
<g id="node31" class="node">
<title>Node31</title>
<g id="a_node31"><a xlink:title=" ">
<polygon fill="white" stroke="#bfbfbf" points="600.5,-0.5 600.5,-19.5 666.5,-19.5 666.5,-0.5 600.5,-0.5"/>
<text text-anchor="middle" x="633.5" y="-7.5" font-family="Helvetica,sans-Serif" font-size="10.00">sys/ioctl.h</text>
</a>
</g>
</g>
<!-- Node30&#45;&gt;Node31 -->
<g id="edge36" class="edge">
<title>Node30&#45;&gt;Node31</title>
<path fill="none" stroke="midnightblue" d="M714.08,-56.32C698.96,-47.82 675.68,-34.73 658.03,-24.8"/>
<polygon fill="midnightblue" stroke="midnightblue" points="659.32,-21.51 648.89,-19.65 655.89,-27.61 659.32,-21.51"/>
</g>
<!-- Node32 -->
<g id="node32" class="node">
<title>Node32</title>
<g id="a_node32"><a xlink:title=" ">
<polygon fill="white" stroke="#bfbfbf" points="526.5,-0.5 526.5,-19.5 582.5,-19.5 582.5,-0.5 526.5,-0.5"/>
<text text-anchor="middle" x="554.5" y="-7.5" font-family="Helvetica,sans-Serif" font-size="10.00">iomanip</text>
</a>
</g>
</g>
<!-- Node30&#45;&gt;Node32 -->
<g id="edge38" class="edge">
<title>Node30&#45;&gt;Node32</title>
<path fill="none" stroke="midnightblue" d="M701.77,-56.44C672.07,-47.28 624.78,-32.69 591.83,-22.52"/>
<polygon fill="midnightblue" stroke="midnightblue" points="592.69,-19.12 582.1,-19.52 590.62,-25.81 592.69,-19.12"/>
</g>
<!-- Node35&#45;&gt;Node9 -->
<g id="edge46" class="edge">
<title>Node35&#45;&gt;Node9</title>
<path fill="none" stroke="midnightblue" d="M1885.98,-56.32C1894.7,-48.34 1907.84,-36.31 1918.4,-26.65"/>
<polygon fill="midnightblue" stroke="midnightblue" points="1920.83,-29.17 1925.85,-19.83 1916.11,-24 1920.83,-29.17"/>
</g>
<!-- Node35&#45;&gt;Node22 -->
<g id="edge47" class="edge">
<title>Node35&#45;&gt;Node22</title>
<path fill="none" stroke="midnightblue" d="M1844.39,-63.83C1679.66,-57.78 933.28,-30.09 822.69,-19.48"/>
<polygon fill="midnightblue" stroke="midnightblue" points="822.96,-15.98 812.62,-18.3 822.15,-22.94 822.96,-15.98"/>
</g>
<!-- Node36 -->
<g id="node36" class="node">
<title>Node36</title>
<g id="a_node36"><a xlink:title=" ">
<polygon fill="white" stroke="#bfbfbf" points="1977.5,-0.5 1977.5,-19.5 2019.5,-19.5 2019.5,-0.5 1977.5,-0.5"/>
<text text-anchor="middle" x="1998.5" y="-7.5" font-family="Helvetica,sans-Serif" font-size="10.00">array</text>
</a>
</g>
</g>
<!-- Node35&#45;&gt;Node36 -->
<g id="edge48" class="edge">
<title>Node35&#45;&gt;Node36</title>
<path fill="none" stroke="midnightblue" d="M1895.83,-56.44C1915.82,-47.6 1947.24,-33.69 1970.06,-23.59"/>
<polygon fill="midnightblue" stroke="midnightblue" points="1971.53,-26.76 1979.26,-19.52 1968.7,-20.36 1971.53,-26.76"/>
</g>
<!-- Node37 -->
<g id="node37" class="node">
<title>Node37</title>
<g id="a_node37"><a xlink:title=" ">
<polygon fill="white" stroke="#bfbfbf" points="2038,-0.5 2038,-19.5 2091,-19.5 2091,-0.5 2038,-0.5"/>
<text text-anchor="middle" x="2064.5" y="-7.5" font-family="Helvetica,sans-Serif" font-size="10.00">stdlib.h</text>
</a>
</g>
</g>
<!-- Node35&#45;&gt;Node37 -->
<g id="edge49" class="edge">
<title>Node35&#45;&gt;Node37</title>
<path fill="none" stroke="midnightblue" d="M1906.29,-56.44C1939.27,-46.97 1992.46,-31.69 2027.94,-21.5"/>
<polygon fill="midnightblue" stroke="midnightblue" points="2029.24,-24.77 2037.89,-18.64 2027.31,-18.04 2029.24,-24.77"/>
</g>
<!-- Node38&#45;&gt;Node2 -->
<g id="edge51" class="edge">
<title>Node38&#45;&gt;Node2</title>
<path fill="none" stroke="midnightblue" d="M1545.93,-58.49C1541.1,-57.61 1536.18,-56.75 1531.5,-56 1410.32,-36.65 1375.53,-45.17 1251.62,-19.95"/>
<polygon fill="midnightblue" stroke="midnightblue" points="1252.25,-16.5 1241.75,-17.91 1250.83,-23.36 1252.25,-16.5"/>
</g>
<!-- Node38&#45;&gt;Node7 -->
<g id="edge53" class="edge">
<title>Node38&#45;&gt;Node7</title>
<path fill="none" stroke="midnightblue" d="M1545.89,-58.7C1541.07,-57.78 1536.16,-56.86 1531.5,-56 1444.47,-39.95 1419.94,-38.4 1329.17,-20.05"/>
<polygon fill="midnightblue" stroke="midnightblue" points="1329.77,-16.6 1319.28,-18.04 1328.38,-23.46 1329.77,-16.6"/>
</g>
<!-- Node38&#45;&gt;Node9 -->
<g id="edge52" class="edge">
<title>Node38&#45;&gt;Node9</title>
<path fill="none" stroke="midnightblue" d="M1611.39,-61.84C1668.47,-56.06 1789.7,-42.43 1901.68,-19.92"/>
<polygon fill="midnightblue" stroke="midnightblue" points="1902.7,-23.28 1911.79,-17.86 1901.3,-16.43 1902.7,-23.28"/>
</g>
<!-- Node38&#45;&gt;Node24 -->
<g id="edge59" class="edge">
<title>Node38&#45;&gt;Node24</title>
<path fill="none" stroke="midnightblue" d="M1548.39,-56.44C1515.87,-47.2 1463.92,-32.44 1428.11,-22.26"/>
<polygon fill="midnightblue" stroke="midnightblue" points="1429.04,-18.88 1418.47,-19.52 1427.13,-25.62 1429.04,-18.88"/>
</g>
<!-- Node39 -->
<g id="node39" class="node">
<title>Node39</title>
<g id="a_node39"><a xlink:title=" ">
<polygon fill="white" stroke="#bfbfbf" points="1727.5,-0.5 1727.5,-19.5 1795.5,-19.5 1795.5,-0.5 1727.5,-0.5"/>
<text text-anchor="middle" x="1761.5" y="-7.5" font-family="Helvetica,sans-Serif" font-size="10.00">filesystem</text>
</a>
</g>
</g>
<!-- Node38&#45;&gt;Node39 -->
<g id="edge54" class="edge">
<title>Node38&#45;&gt;Node39</title>
<path fill="none" stroke="midnightblue" d="M1607.5,-56.44C1638.68,-47.24 1688.43,-32.56 1722.91,-22.39"/>
<polygon fill="midnightblue" stroke="midnightblue" points="1724.04,-25.7 1732.64,-19.52 1722.06,-18.99 1724.04,-25.7"/>
</g>
<!-- Node40 -->
<g id="node40" class="node">
<title>Node40</title>
<g id="a_node40"><a xlink:title=" ">
<polygon fill="white" stroke="#bfbfbf" points="1813.5,-0.5 1813.5,-19.5 1893.5,-19.5 1893.5,-0.5 1813.5,-0.5"/>
<text text-anchor="middle" x="1853.5" y="-7.5" font-family="Helvetica,sans-Serif" font-size="10.00">SDL_image.h</text>
</a>
</g>
</g>
<!-- Node38&#45;&gt;Node40 -->
<g id="edge55" class="edge">
<title>Node38&#45;&gt;Node40</title>
<path fill="none" stroke="midnightblue" d="M1611.13,-58.59C1658.67,-49.26 1747.42,-31.83 1803.32,-20.85"/>
<polygon fill="midnightblue" stroke="midnightblue" points="1804.22,-24.24 1813.35,-18.88 1802.87,-17.38 1804.22,-24.24"/>
</g>
<!-- Node41 -->
<g id="node41" class="node">
<title>Node41</title>
<g id="a_node41"><a xlink:title=" ">
<polygon fill="white" stroke="#bfbfbf" points="1458,-0.5 1458,-19.5 1511,-19.5 1511,-0.5 1458,-0.5"/>
<text text-anchor="middle" x="1484.5" y="-7.5" font-family="Helvetica,sans-Serif" font-size="10.00">imgui.h</text>
</a>
</g>
</g>
<!-- Node38&#45;&gt;Node41 -->
<g id="edge56" class="edge">
<title>Node38&#45;&gt;Node41</title>
<path fill="none" stroke="midnightblue" d="M1563.4,-56.32C1548.6,-47.82 1525.81,-34.73 1508.52,-24.8"/>
<polygon fill="midnightblue" stroke="midnightblue" points="1509.98,-21.6 1499.57,-19.65 1506.49,-27.67 1509.98,-21.6"/>
</g>
<!-- Node42 -->
<g id="node42" class="node">
<title>Node42</title>
<g id="a_node42"><a xlink:title=" ">
<polygon fill="white" stroke="#bfbfbf" points="1529.5,-0.5 1529.5,-19.5 1625.5,-19.5 1625.5,-0.5 1529.5,-0.5"/>
<text text-anchor="middle" x="1577.5" y="-7.5" font-family="Helvetica,sans-Serif" font-size="10.00">imgui_internal.h</text>
</a>
</g>
</g>
<!-- Node38&#45;&gt;Node42 -->
<g id="edge57" class="edge">
<title>Node38&#45;&gt;Node42</title>
<path fill="none" stroke="midnightblue" d="M1578.33,-56.08C1578.2,-49.01 1578.02,-38.86 1577.85,-29.99"/>
<polygon fill="midnightblue" stroke="midnightblue" points="1581.35,-29.68 1577.66,-19.75 1574.35,-29.81 1581.35,-29.68"/>
</g>
<!-- Node43 -->
<g id="node43" class="node">
<title>Node43</title>
<g id="a_node43"><a xlink:title=" ">
<polygon fill="white" stroke="#bfbfbf" points="1643.5,-0.5 1643.5,-19.5 1709.5,-19.5 1709.5,-0.5 1643.5,-0.5"/>
<text text-anchor="middle" x="1676.5" y="-7.5" font-family="Helvetica,sans-Serif" font-size="10.00">libnpy.hpp</text>
</a>
</g>
</g>
<!-- Node38&#45;&gt;Node43 -->
<g id="edge58" class="edge">
<title>Node38&#45;&gt;Node43</title>
<path fill="none" stroke="midnightblue" d="M1594.25,-56.32C1609.82,-47.74 1633.88,-34.49 1651.96,-24.52"/>
<polygon fill="midnightblue" stroke="midnightblue" points="1653.72,-27.55 1660.79,-19.65 1650.35,-21.42 1653.72,-27.55"/>
</g>
</g>
</svg>
