<?xml version="1.0" encoding="UTF-8" standalone="no"?>
<!DOCTYPE svg PUBLIC "-//W3C//DTD SVG 1.1//EN"
 "http://www.w3.org/Graphics/SVG/1.1/DTD/svg11.dtd">
<!-- Generated by graphviz version 2.43.0 (0)
 -->
<!-- Title: src/main.cpp Pages: 1 -->
<svg width="2086pt" height="196pt"
 viewBox="0.00 0.00 2085.50 196.00" xmlns="http://www.w3.org/2000/svg" xmlns:xlink="http://www.w3.org/1999/xlink">
<g id="graph0" class="graph" transform="scale(1 1) rotate(0) translate(4 192)">
<title>src/main.cpp</title>
<polygon fill="white" stroke="transparent" points="-4,4 -4,-192 2081.5,-192 2081.5,4 -4,4"/>
<!-- Node1 -->
<g id="node1" class="node">
<title>Node1</title>
<g id="a_node1"><a xlink:title=" ">
<polygon fill="#bfbfbf" stroke="black" points="1473.5,-168.5 1473.5,-187.5 1552.5,-187.5 1552.5,-168.5 1473.5,-168.5"/>
<text text-anchor="middle" x="1513" y="-175.5" font-family="Helvetica,sans-Serif" font-size="10.00">src/main.cpp</text>
</a>
</g>
</g>
<!-- Node2 -->
<g id="node2" class="node">
<title>Node2</title>
<g id="a_node2"><a xlink:title=" ">
<polygon fill="white" stroke="#bfbfbf" points="1185,-0.5 1185,-19.5 1229,-19.5 1229,-0.5 1185,-0.5"/>
<text text-anchor="middle" x="1207" y="-7.5" font-family="Helvetica,sans-Serif" font-size="10.00">string</text>
</a>
</g>
</g>
<!-- Node1&#45;&gt;Node2 -->
<g id="edge1" class="edge">
<title>Node1&#45;&gt;Node2</title>
<path fill="none" stroke="midnightblue" d="M1508.91,-168.25C1497.82,-145.61 1464.87,-84.82 1418,-56 1351.22,-14.94 1319.75,-37.45 1239.34,-20.05"/>
<polygon fill="midnightblue" stroke="midnightblue" points="1239.82,-16.56 1229.29,-17.72 1238.24,-23.38 1239.82,-16.56"/>
</g>
<!-- Node3 -->
<g id="node3" class="node">
<title>Node3</title>
<g id="a_node3"><a xlink:href="../../de/dfc/Ricom_8h.html" target="_top" xlink:title=" ">
<polygon fill="white" stroke="black" points="894,-112.5 894,-131.5 950,-131.5 950,-112.5 894,-112.5"/>
<text text-anchor="middle" x="922" y="-119.5" font-family="Helvetica,sans-Serif" font-size="10.00">Ricom.h</text>
</a>
</g>
</g>
<!-- Node1&#45;&gt;Node3 -->
<g id="edge2" class="edge">
<title>Node1&#45;&gt;Node3</title>
<path fill="none" stroke="midnightblue" d="M1473.31,-173.37C1365.23,-163.5 1066.71,-136.22 960.29,-126.5"/>
<polygon fill="midnightblue" stroke="midnightblue" points="960.59,-123.01 950.32,-125.59 959.96,-129.98 960.59,-123.01"/>
</g>
<!-- Node42 -->
<g id="node42" class="node">
<title>Node42</title>
<g id="a_node42"><a xlink:href="../../dd/de4/Camera_8h.html" target="_top" xlink:title=" ">
<polygon fill="white" stroke="black" points="1890,-56.5 1890,-75.5 1954,-75.5 1954,-56.5 1890,-56.5"/>
<text text-anchor="middle" x="1922" y="-63.5" font-family="Helvetica,sans-Serif" font-size="10.00">Camera.h</text>
</a>
</g>
</g>
<!-- Node1&#45;&gt;Node42 -->
<g id="edge56" class="edge">
<title>Node1&#45;&gt;Node42</title>
<path fill="none" stroke="midnightblue" d="M1544.75,-168.46C1617.99,-148.76 1798.73,-100.15 1880.56,-78.15"/>
<polygon fill="midnightblue" stroke="midnightblue" points="1881.52,-81.51 1890.27,-75.53 1879.7,-74.75 1881.52,-81.51"/>
</g>
<!-- Node3&#45;&gt;Node2 -->
<g id="edge9" class="edge">
<title>Node3&#45;&gt;Node2</title>
<path fill="none" stroke="midnightblue" d="M950.03,-119.67C1032.09,-115.51 1267.5,-101.42 1290,-76 1309.98,-53.43 1269.91,-33 1238.78,-21.3"/>
<polygon fill="midnightblue" stroke="midnightblue" points="1239.67,-17.9 1229.07,-17.81 1237.3,-24.49 1239.67,-17.9"/>
</g>
<!-- Node4 -->
<g id="node4" class="node">
<title>Node4</title>
<g id="a_node4"><a xlink:title=" ">
<polygon fill="white" stroke="#bfbfbf" points="1111,-0.5 1111,-19.5 1167,-19.5 1167,-0.5 1111,-0.5"/>
<text text-anchor="middle" x="1139" y="-7.5" font-family="Helvetica,sans-Serif" font-size="10.00">unistd.h</text>
</a>
</g>
</g>
<!-- Node3&#45;&gt;Node4 -->
<g id="edge3" class="edge">
<title>Node3&#45;&gt;Node4</title>
<path fill="none" stroke="midnightblue" d="M950.15,-119.49C1029.68,-114.95 1251.72,-100.18 1273,-76 1278.87,-69.33 1278.19,-63.22 1273,-56 1267.16,-47.88 1214.47,-31.87 1176.93,-21.3"/>
<polygon fill="midnightblue" stroke="midnightblue" points="1177.85,-17.92 1167.28,-18.6 1175.97,-24.66 1177.85,-17.92"/>
</g>
<!-- Node5 -->
<g id="node5" class="node">
<title>Node5</title>
<g id="a_node5"><a xlink:title=" ">
<polygon fill="white" stroke="#bfbfbf" points="980.5,-0.5 980.5,-19.5 1027.5,-19.5 1027.5,-0.5 980.5,-0.5"/>
<text text-anchor="middle" x="1004" y="-7.5" font-family="Helvetica,sans-Serif" font-size="10.00">cmath</text>
</a>
</g>
</g>
<!-- Node3&#45;&gt;Node5 -->
<g id="edge4" class="edge">
<title>Node3&#45;&gt;Node5</title>
<path fill="none" stroke="midnightblue" d="M939.4,-112.44C953.36,-104.72 972.47,-92.12 984,-76 993.76,-62.34 998.85,-43.81 1001.45,-30.02"/>
<polygon fill="midnightblue" stroke="midnightblue" points="1004.96,-30.2 1003.09,-19.77 998.05,-29.09 1004.96,-30.2"/>
</g>
<!-- Node6 -->
<g id="node6" class="node">
<title>Node6</title>
<g id="a_node6"><a xlink:title=" ">
<polygon fill="white" stroke="#bfbfbf" points="1359,-56.5 1359,-75.5 1409,-75.5 1409,-56.5 1359,-56.5"/>
<text text-anchor="middle" x="1384" y="-63.5" font-family="Helvetica,sans-Serif" font-size="10.00">stdio.h</text>
</a>
</g>
</g>
<!-- Node3&#45;&gt;Node6 -->
<g id="edge5" class="edge">
<title>Node3&#45;&gt;Node6</title>
<path fill="none" stroke="midnightblue" d="M950.12,-119.19C1018.24,-114.54 1197.33,-100.8 1345,-76 1346.27,-75.79 1347.56,-75.56 1348.87,-75.31"/>
<polygon fill="midnightblue" stroke="midnightblue" points="1349.82,-78.69 1358.91,-73.26 1348.42,-71.83 1349.82,-78.69"/>
</g>
<!-- Node7 -->
<g id="node7" class="node">
<title>Node7</title>
<g id="a_node7"><a xlink:title=" ">
<polygon fill="white" stroke="#bfbfbf" points="1247.5,-0.5 1247.5,-19.5 1306.5,-19.5 1306.5,-0.5 1247.5,-0.5"/>
<text text-anchor="middle" x="1277" y="-7.5" font-family="Helvetica,sans-Serif" font-size="10.00">complex</text>
</a>
</g>
</g>
<!-- Node3&#45;&gt;Node7 -->
<g id="edge6" class="edge">
<title>Node3&#45;&gt;Node7</title>
<path fill="none" stroke="midnightblue" d="M950.13,-120.61C1050.43,-118.92 1386.29,-110.71 1418,-76 1423.99,-69.44 1423.24,-63.18 1418,-56 1411.81,-47.53 1356.15,-31.56 1316.65,-21.1"/>
<polygon fill="midnightblue" stroke="midnightblue" points="1317.31,-17.65 1306.75,-18.5 1315.53,-24.42 1317.31,-17.65"/>
</g>
<!-- Node8 -->
<g id="node8" class="node">
<title>Node8</title>
<g id="a_node8"><a xlink:title=" ">
<polygon fill="white" stroke="#bfbfbf" points="0,-56.5 0,-75.5 44,-75.5 44,-56.5 0,-56.5"/>
<text text-anchor="middle" x="22" y="-63.5" font-family="Helvetica,sans-Serif" font-size="10.00">cfloat</text>
</a>
</g>
</g>
<!-- Node3&#45;&gt;Node8 -->
<g id="edge7" class="edge">
<title>Node3&#45;&gt;Node8</title>
<path fill="none" stroke="midnightblue" d="M893.98,-120.27C764.69,-116.78 224.93,-100.97 58,-76 56.75,-75.81 55.47,-75.6 54.19,-75.37"/>
<polygon fill="midnightblue" stroke="midnightblue" points="54.84,-71.93 44.33,-73.29 53.4,-78.78 54.84,-71.93"/>
</g>
<!-- Node9 -->
<g id="node9" class="node">
<title>Node9</title>
<g id="a_node9"><a xlink:title=" ">
<polygon fill="white" stroke="#bfbfbf" points="1898.5,-0.5 1898.5,-19.5 1945.5,-19.5 1945.5,-0.5 1898.5,-0.5"/>
<text text-anchor="middle" x="1922" y="-7.5" font-family="Helvetica,sans-Serif" font-size="10.00">vector</text>
</a>
</g>
</g>
<!-- Node3&#45;&gt;Node9 -->
<g id="edge8" class="edge">
<title>Node3&#45;&gt;Node9</title>
<path fill="none" stroke="midnightblue" d="M950.23,-120.65C1045.53,-119.15 1363.86,-111.63 1624,-76 1740.12,-60.09 1770.42,-48.9 1888.46,-20.04"/>
<polygon fill="midnightblue" stroke="midnightblue" points="1889.36,-23.42 1898.25,-17.65 1887.71,-16.62 1889.36,-23.42"/>
</g>
<!-- Node10 -->
<g id="node10" class="node">
<title>Node10</title>
<g id="a_node10"><a xlink:title=" ">
<polygon fill="white" stroke="#bfbfbf" points="100,-56.5 100,-75.5 144,-75.5 144,-56.5 100,-56.5"/>
<text text-anchor="middle" x="122" y="-63.5" font-family="Helvetica,sans-Serif" font-size="10.00">SDL.h</text>
</a>
</g>
</g>
<!-- Node3&#45;&gt;Node10 -->
<g id="edge10" class="edge">
<title>Node3&#45;&gt;Node10</title>
<path fill="none" stroke="midnightblue" d="M893.88,-120.2C775.82,-116.71 319.06,-101.9 154.18,-75.75"/>
<polygon fill="midnightblue" stroke="midnightblue" points="154.65,-72.28 144.21,-74.09 153.5,-79.19 154.65,-72.28"/>
</g>
<!-- Node11 -->
<g id="node11" class="node">
<title>Node11</title>
<g id="a_node11"><a xlink:title=" ">
<polygon fill="white" stroke="#bfbfbf" points="27,-0.5 27,-19.5 75,-19.5 75,-0.5 27,-0.5"/>
<text text-anchor="middle" x="51" y="-7.5" font-family="Helvetica,sans-Serif" font-size="10.00">mutex</text>
</a>
</g>
</g>
<!-- Node3&#45;&gt;Node11 -->
<g id="edge11" class="edge">
<title>Node3&#45;&gt;Node11</title>
<path fill="none" stroke="midnightblue" d="M893.79,-121.01C756.4,-120.86 161.24,-117.78 91,-76 73.61,-65.65 62.73,-44.51 56.78,-29.14"/>
<polygon fill="midnightblue" stroke="midnightblue" points="60.06,-27.9 53.44,-19.63 53.45,-30.22 60.06,-27.9"/>
</g>
<!-- Node12 -->
<g id="node12" class="node">
<title>Node12</title>
<g id="a_node12"><a xlink:title=" ">
<polygon fill="white" stroke="#bfbfbf" points="316,-56.5 316,-75.5 362,-75.5 362,-56.5 316,-56.5"/>
<text text-anchor="middle" x="339" y="-63.5" font-family="Helvetica,sans-Serif" font-size="10.00">future</text>
</a>
</g>
</g>
<!-- Node3&#45;&gt;Node12 -->
<g id="edge12" class="edge">
<title>Node3&#45;&gt;Node12</title>
<path fill="none" stroke="midnightblue" d="M893.97,-120.24C813.12,-117.7 572.7,-107.83 376,-76 374.75,-75.8 373.48,-75.58 372.21,-75.34"/>
<polygon fill="midnightblue" stroke="midnightblue" points="372.88,-71.9 362.38,-73.27 371.44,-78.75 372.88,-71.9"/>
</g>
<!-- Node13 -->
<g id="node13" class="node">
<title>Node13</title>
<g id="a_node13"><a xlink:title=" ">
<polygon fill="white" stroke="#bfbfbf" points="367,-0.5 367,-19.5 415,-19.5 415,-0.5 367,-0.5"/>
<text text-anchor="middle" x="391" y="-7.5" font-family="Helvetica,sans-Serif" font-size="10.00">thread</text>
</a>
</g>
</g>
<!-- Node3&#45;&gt;Node13 -->
<g id="edge13" class="edge">
<title>Node3&#45;&gt;Node13</title>
<path fill="none" stroke="midnightblue" d="M893.92,-120.38C792.13,-117.89 446.45,-107.17 409,-76 395.66,-64.9 391.73,-44.86 390.79,-29.96"/>
<polygon fill="midnightblue" stroke="midnightblue" points="394.29,-29.71 390.55,-19.8 387.29,-29.88 394.29,-29.71"/>
</g>
<!-- Node14 -->
<g id="node14" class="node">
<title>Node14</title>
<g id="a_node14"><a xlink:title=" ">
<polygon fill="white" stroke="#bfbfbf" points="418,-56.5 418,-75.5 468,-75.5 468,-56.5 418,-56.5"/>
<text text-anchor="middle" x="443" y="-63.5" font-family="Helvetica,sans-Serif" font-size="10.00">fftw3.h</text>
</a>
</g>
</g>
<!-- Node3&#45;&gt;Node14 -->
<g id="edge14" class="edge">
<title>Node3&#45;&gt;Node14</title>
<path fill="none" stroke="midnightblue" d="M893.78,-119.34C823.72,-114.96 636.35,-101.6 482,-76 480.73,-75.79 479.43,-75.56 478.13,-75.32"/>
<polygon fill="midnightblue" stroke="midnightblue" points="478.58,-71.84 468.08,-73.27 477.18,-78.7 478.58,-71.84"/>
</g>
<!-- Node15 -->
<g id="node15" class="node">
<title>Node15</title>
<g id="a_node15"><a xlink:title=" ">
<polygon fill="white" stroke="#bfbfbf" points="453,-0.5 453,-19.5 503,-19.5 503,-0.5 453,-0.5"/>
<text text-anchor="middle" x="478" y="-7.5" font-family="Helvetica,sans-Serif" font-size="10.00">chrono</text>
</a>
</g>
</g>
<!-- Node3&#45;&gt;Node15 -->
<g id="edge15" class="edge">
<title>Node3&#45;&gt;Node15</title>
<path fill="none" stroke="midnightblue" d="M893.92,-121.14C812.4,-121.04 577.52,-117.11 515,-76 498.76,-65.32 488.86,-44.91 483.44,-29.8"/>
<polygon fill="midnightblue" stroke="midnightblue" points="486.66,-28.39 480.26,-19.95 480,-30.54 486.66,-28.39"/>
</g>
<!-- Node16 -->
<g id="node16" class="node">
<title>Node16</title>
<g id="a_node16"><a xlink:title=" ">
<polygon fill="white" stroke="#bfbfbf" points="524,-56.5 524,-75.5 588,-75.5 588,-56.5 524,-56.5"/>
<text text-anchor="middle" x="556" y="-63.5" font-family="Helvetica,sans-Serif" font-size="10.00">algorithm</text>
</a>
</g>
</g>
<!-- Node3&#45;&gt;Node16 -->
<g id="edge16" class="edge">
<title>Node3&#45;&gt;Node16</title>
<path fill="none" stroke="midnightblue" d="M893.63,-117.83C838.61,-111.52 713.42,-96.38 598.23,-76.1"/>
<polygon fill="midnightblue" stroke="midnightblue" points="598.64,-72.62 588.18,-74.31 597.41,-79.51 598.64,-72.62"/>
</g>
<!-- Node17 -->
<g id="node17" class="node">
<title>Node17</title>
<g id="a_node17"><a xlink:title=" ">
<polygon fill="white" stroke="#bfbfbf" points="606,-56.5 606,-75.5 650,-75.5 650,-56.5 606,-56.5"/>
<text text-anchor="middle" x="628" y="-63.5" font-family="Helvetica,sans-Serif" font-size="10.00">ctime</text>
</a>
</g>
</g>
<!-- Node3&#45;&gt;Node17 -->
<g id="edge17" class="edge">
<title>Node3&#45;&gt;Node17</title>
<path fill="none" stroke="midnightblue" d="M893.77,-117.24C847.08,-110.79 750.73,-96.51 660.15,-76.05"/>
<polygon fill="midnightblue" stroke="midnightblue" points="660.8,-72.61 650.27,-73.79 659.24,-79.44 660.8,-72.61"/>
</g>
<!-- Node18 -->
<g id="node18" class="node">
<title>Node18</title>
<g id="a_node18"><a xlink:href="../../d7/d50/BoundedThreadPool_8hpp.html" target="_top" xlink:title=" ">
<polygon fill="white" stroke="black" points="162.5,-56.5 162.5,-75.5 297.5,-75.5 297.5,-56.5 162.5,-56.5"/>
<text text-anchor="middle" x="230" y="-63.5" font-family="Helvetica,sans-Serif" font-size="10.00">BoundedThreadPool.hpp</text>
</a>
</g>
</g>
<!-- Node3&#45;&gt;Node18 -->
<g id="edge18" class="edge">
<title>Node3&#45;&gt;Node18</title>
<path fill="none" stroke="midnightblue" d="M893.77,-119.37C807.67,-114.31 540.65,-97.93 307.61,-76.02"/>
<polygon fill="midnightblue" stroke="midnightblue" points="307.87,-72.53 297.59,-75.07 307.21,-79.49 307.87,-72.53"/>
</g>
<!-- Node24 -->
<g id="node24" class="node">
<title>Node24</title>
<g id="a_node24"><a xlink:title=" ">
<polygon fill="white" stroke="#bfbfbf" points="1325,-0.5 1325,-19.5 1427,-19.5 1427,-0.5 1325,-0.5"/>
<text text-anchor="middle" x="1376" y="-7.5" font-family="Helvetica,sans-Serif" font-size="10.00">tinycolormap.hpp</text>
</a>
</g>
</g>
<!-- Node3&#45;&gt;Node24 -->
<g id="edge26" class="edge">
<title>Node3&#45;&gt;Node24</title>
<path fill="none" stroke="midnightblue" d="M950.03,-120.7C1052.42,-119.32 1402.05,-111.97 1435,-76 1451.2,-58.32 1425.2,-37.82 1402.76,-24.65"/>
<polygon fill="midnightblue" stroke="midnightblue" points="1404.24,-21.47 1393.8,-19.64 1400.83,-27.58 1404.24,-21.47"/>
</g>
<!-- Node25 -->
<g id="node25" class="node">
<title>Node25</title>
<g id="a_node25"><a xlink:title=" ">
<polygon fill="white" stroke="#bfbfbf" points="790,-56.5 790,-75.5 850,-75.5 850,-56.5 790,-56.5"/>
<text text-anchor="middle" x="820" y="-63.5" font-family="Helvetica,sans-Serif" font-size="10.00">fft2d.hpp</text>
</a>
</g>
</g>
<!-- Node3&#45;&gt;Node25 -->
<g id="edge27" class="edge">
<title>Node3&#45;&gt;Node25</title>
<path fill="none" stroke="midnightblue" d="M905.61,-112.32C889.33,-103.7 864.13,-90.36 845.28,-80.39"/>
<polygon fill="midnightblue" stroke="midnightblue" points="846.82,-77.24 836.35,-75.65 843.55,-83.43 846.82,-77.24"/>
</g>
<!-- Node26 -->
<g id="node26" class="node">
<title>Node26</title>
<g id="a_node26"><a xlink:href="../../d0/d3c/SocketConnector_8h.html" target="_top" xlink:title=" ">
<polygon fill="white" stroke="black" points="868.5,-56.5 868.5,-75.5 975.5,-75.5 975.5,-56.5 868.5,-56.5"/>
<text text-anchor="middle" x="922" y="-63.5" font-family="Helvetica,sans-Serif" font-size="10.00">SocketConnector.h</text>
</a>
</g>
</g>
<!-- Node3&#45;&gt;Node26 -->
<g id="edge28" class="edge">
<title>Node3&#45;&gt;Node26</title>
<path fill="none" stroke="midnightblue" d="M922,-112.08C922,-105.01 922,-94.86 922,-85.99"/>
<polygon fill="midnightblue" stroke="midnightblue" points="925.5,-85.75 922,-75.75 918.5,-85.75 925.5,-85.75"/>
</g>
<!-- Node30 -->
<g id="node30" class="node">
<title>Node30</title>
<g id="a_node30"><a xlink:href="../../da/dce/ProgressMonitor_8h.html" target="_top" xlink:title=" ">
<polygon fill="white" stroke="black" points="668,-56.5 668,-75.5 772,-75.5 772,-56.5 668,-56.5"/>
<text text-anchor="middle" x="720" y="-63.5" font-family="Helvetica,sans-Serif" font-size="10.00">ProgressMonitor.h</text>
</a>
</g>
</g>
<!-- Node3&#45;&gt;Node30 -->
<g id="edge35" class="edge">
<title>Node3&#45;&gt;Node30</title>
<path fill="none" stroke="midnightblue" d="M893.91,-113.49C859.61,-104.32 801.27,-88.73 761.72,-78.15"/>
<polygon fill="midnightblue" stroke="midnightblue" points="762.41,-74.71 751.84,-75.51 760.6,-81.48 762.41,-74.71"/>
</g>
<!-- Node33 -->
<g id="node33" class="node">
<title>Node33</title>
<g id="a_node33"><a xlink:title=" ">
<polygon fill="white" stroke="#bfbfbf" points="1032,-56.5 1032,-75.5 1098,-75.5 1098,-56.5 1032,-56.5"/>
<text text-anchor="middle" x="1065" y="-63.5" font-family="Helvetica,sans-Serif" font-size="10.00">Cheetah.h</text>
</a>
</g>
</g>
<!-- Node3&#45;&gt;Node33 -->
<g id="edge43" class="edge">
<title>Node3&#45;&gt;Node33</title>
<path fill="none" stroke="midnightblue" d="M944.66,-112.44C968.4,-103.48 1005.91,-89.31 1032.74,-79.18"/>
<polygon fill="midnightblue" stroke="midnightblue" points="1034.33,-82.32 1042.45,-75.52 1031.86,-75.77 1034.33,-82.32"/>
</g>
<!-- Node34 -->
<g id="node34" class="node">
<title>Node34</title>
<g id="a_node34"><a xlink:title=" ">
<polygon fill="white" stroke="#bfbfbf" points="1116.5,-56.5 1116.5,-75.5 1181.5,-75.5 1181.5,-56.5 1116.5,-56.5"/>
<text text-anchor="middle" x="1149" y="-63.5" font-family="Helvetica,sans-Serif" font-size="10.00">Timepix.h</text>
</a>
</g>
</g>
<!-- Node3&#45;&gt;Node34 -->
<g id="edge44" class="edge">
<title>Node3&#45;&gt;Node34</title>
<path fill="none" stroke="midnightblue" d="M950.29,-114.27C989.52,-104.94 1060.74,-88 1106.41,-77.13"/>
<polygon fill="midnightblue" stroke="midnightblue" points="1107.39,-80.5 1116.31,-74.78 1105.77,-73.69 1107.39,-80.5"/>
</g>
<!-- Node35 -->
<g id="node35" class="node">
<title>Node35</title>
<g id="a_node35"><a xlink:title=" ">
<polygon fill="white" stroke="#bfbfbf" points="1199.5,-56.5 1199.5,-75.5 1264.5,-75.5 1264.5,-56.5 1199.5,-56.5"/>
<text text-anchor="middle" x="1232" y="-63.5" font-family="Helvetica,sans-Serif" font-size="10.00">Advapix.h</text>
</a>
</g>
</g>
<!-- Node3&#45;&gt;Node35 -->
<g id="edge45" class="edge">
<title>Node3&#45;&gt;Node35</title>
<path fill="none" stroke="midnightblue" d="M950.24,-116.68C997.51,-109.37 1095.85,-93.76 1189.54,-76.01"/>
<polygon fill="midnightblue" stroke="midnightblue" points="1190.3,-79.43 1199.47,-74.12 1188.99,-72.55 1190.3,-79.43"/>
</g>
<!-- Node36 -->
<g id="node36" class="node">
<title>Node36</title>
<g id="a_node36"><a xlink:href="../../d7/db2/GuiUtils_8h.html" target="_top" xlink:title=" ">
<polygon fill="white" stroke="black" points="1550.5,-56.5 1550.5,-75.5 1615.5,-75.5 1615.5,-56.5 1550.5,-56.5"/>
<text text-anchor="middle" x="1583" y="-63.5" font-family="Helvetica,sans-Serif" font-size="10.00">GuiUtils.h</text>
</a>
</g>
</g>
<!-- Node3&#45;&gt;Node36 -->
<g id="edge46" class="edge">
<title>Node3&#45;&gt;Node36</title>
<path fill="none" stroke="midnightblue" d="M950.04,-118.94C1032.63,-112.83 1282.18,-94.11 1489,-76 1505.75,-74.53 1524.16,-72.8 1540.21,-71.24"/>
<polygon fill="midnightblue" stroke="midnightblue" points="1540.77,-74.71 1550.38,-70.25 1540.09,-67.74 1540.77,-74.71"/>
</g>
<!-- Node18&#45;&gt;Node11 -->
<g id="edge22" class="edge">
<title>Node18&#45;&gt;Node11</title>
<path fill="none" stroke="midnightblue" d="M201.64,-56.44C170.01,-46.9 118.88,-31.48 85.1,-21.29"/>
<polygon fill="midnightblue" stroke="midnightblue" points="85.8,-17.84 75.21,-18.3 83.77,-24.54 85.8,-17.84"/>
</g>
<!-- Node18&#45;&gt;Node13 -->
<g id="edge19" class="edge">
<title>Node18&#45;&gt;Node13</title>
<path fill="none" stroke="midnightblue" d="M255.51,-56.44C282.99,-47.23 326.86,-32.51 357.2,-22.34"/>
<polygon fill="midnightblue" stroke="midnightblue" points="358.56,-25.57 366.92,-19.08 356.33,-18.94 358.56,-25.57"/>
</g>
<!-- Node19 -->
<g id="node19" class="node">
<title>Node19</title>
<g id="a_node19"><a xlink:title=" ">
<polygon fill="white" stroke="#bfbfbf" points="301.5,-0.5 301.5,-19.5 348.5,-19.5 348.5,-0.5 301.5,-0.5"/>
<text text-anchor="middle" x="325" y="-7.5" font-family="Helvetica,sans-Serif" font-size="10.00">queue</text>
</a>
</g>
</g>
<!-- Node18&#45;&gt;Node19 -->
<g id="edge20" class="edge">
<title>Node18&#45;&gt;Node19</title>
<path fill="none" stroke="midnightblue" d="M245.26,-56.32C260.22,-47.82 283.25,-34.73 300.73,-24.8"/>
<polygon fill="midnightblue" stroke="midnightblue" points="302.81,-27.64 309.77,-19.65 299.35,-21.55 302.81,-27.64"/>
</g>
<!-- Node20 -->
<g id="node20" class="node">
<title>Node20</title>
<g id="a_node20"><a xlink:title=" ">
<polygon fill="white" stroke="#bfbfbf" points="93.5,-0.5 93.5,-19.5 158.5,-19.5 158.5,-0.5 93.5,-0.5"/>
<text text-anchor="middle" x="126" y="-7.5" font-family="Helvetica,sans-Serif" font-size="10.00">functional</text>
</a>
</g>
</g>
<!-- Node18&#45;&gt;Node20 -->
<g id="edge21" class="edge">
<title>Node18&#45;&gt;Node20</title>
<path fill="none" stroke="midnightblue" d="M213.29,-56.32C196.69,-47.7 171,-34.36 151.78,-24.39"/>
<polygon fill="midnightblue" stroke="midnightblue" points="153.16,-21.16 142.67,-19.65 149.93,-27.37 153.16,-21.16"/>
</g>
<!-- Node21 -->
<g id="node21" class="node">
<title>Node21</title>
<g id="a_node21"><a xlink:title=" ">
<polygon fill="white" stroke="#bfbfbf" points="176.5,-0.5 176.5,-19.5 283.5,-19.5 283.5,-0.5 176.5,-0.5"/>
<text text-anchor="middle" x="230" y="-7.5" font-family="Helvetica,sans-Serif" font-size="10.00">condition_variable</text>
</a>
</g>
</g>
<!-- Node18&#45;&gt;Node21 -->
<g id="edge23" class="edge">
<title>Node18&#45;&gt;Node21</title>
<path fill="none" stroke="midnightblue" d="M230,-56.08C230,-49.01 230,-38.86 230,-29.99"/>
<polygon fill="midnightblue" stroke="midnightblue" points="233.5,-29.75 230,-19.75 226.5,-29.75 233.5,-29.75"/>
</g>
<!-- Node22 -->
<g id="node22" class="node">
<title>Node22</title>
<g id="a_node22"><a xlink:title=" ">
<polygon fill="white" stroke="#bfbfbf" points="757,-0.5 757,-19.5 807,-19.5 807,-0.5 757,-0.5"/>
<text text-anchor="middle" x="782" y="-7.5" font-family="Helvetica,sans-Serif" font-size="10.00">atomic</text>
</a>
</g>
</g>
<!-- Node18&#45;&gt;Node22 -->
<g id="edge24" class="edge">
<title>Node18&#45;&gt;Node22</title>
<path fill="none" stroke="midnightblue" d="M297.59,-56.96C300.77,-56.63 303.92,-56.31 307,-56 499.44,-36.9 552.44,-52.75 746.89,-19.89"/>
<polygon fill="midnightblue" stroke="midnightblue" points="747.59,-23.32 756.86,-18.19 746.41,-16.42 747.59,-23.32"/>
</g>
<!-- Node23 -->
<g id="node23" class="node">
<title>Node23</title>
<g id="a_node23"><a xlink:title=" ">
<polygon fill="white" stroke="#bfbfbf" points="679,-0.5 679,-19.5 739,-19.5 739,-0.5 679,-0.5"/>
<text text-anchor="middle" x="709" y="-7.5" font-family="Helvetica,sans-Serif" font-size="10.00">iostream</text>
</a>
</g>
</g>
<!-- Node18&#45;&gt;Node23 -->
<g id="edge25" class="edge">
<title>Node18&#45;&gt;Node23</title>
<path fill="none" stroke="midnightblue" d="M297.6,-57.03C300.78,-56.68 303.92,-56.33 307,-56 464.88,-38.95 508.25,-45.98 668.61,-20.03"/>
<polygon fill="midnightblue" stroke="midnightblue" points="669.54,-23.43 678.84,-18.36 668.41,-16.52 669.54,-23.43"/>
</g>
<!-- Node26&#45;&gt;Node2 -->
<g id="edge33" class="edge">
<title>Node26&#45;&gt;Node2</title>
<path fill="none" stroke="midnightblue" d="M975.86,-57.18C1025.29,-49.61 1100.7,-37.09 1174.76,-20.09"/>
<polygon fill="midnightblue" stroke="midnightblue" points="1175.78,-23.45 1184.72,-17.78 1174.19,-16.63 1175.78,-23.45"/>
</g>
<!-- Node26&#45;&gt;Node4 -->
<g id="edge30" class="edge">
<title>Node26&#45;&gt;Node4</title>
<path fill="none" stroke="midnightblue" d="M956.38,-56.44C995.83,-46.63 1060.3,-30.59 1101.14,-20.42"/>
<polygon fill="midnightblue" stroke="midnightblue" points="1102.13,-23.78 1110.99,-17.97 1100.44,-16.99 1102.13,-23.78"/>
</g>
<!-- Node26&#45;&gt;Node23 -->
<g id="edge34" class="edge">
<title>Node26&#45;&gt;Node23</title>
<path fill="none" stroke="midnightblue" d="M888.25,-56.44C850.4,-46.85 789.07,-31.3 748.88,-21.11"/>
<polygon fill="midnightblue" stroke="midnightblue" points="749.7,-17.71 739.15,-18.64 747.98,-24.49 749.7,-17.71"/>
</g>
<!-- Node27 -->
<g id="node27" class="node">
<title>Node27</title>
<g id="a_node27"><a xlink:title=" ">
<polygon fill="white" stroke="#bfbfbf" points="893.5,-0.5 893.5,-19.5 962.5,-19.5 962.5,-0.5 893.5,-0.5"/>
<text text-anchor="middle" x="928" y="-7.5" font-family="Helvetica,sans-Serif" font-size="10.00">arpa/inet.h</text>
</a>
</g>
</g>
<!-- Node26&#45;&gt;Node27 -->
<g id="edge29" class="edge">
<title>Node26&#45;&gt;Node27</title>
<path fill="none" stroke="midnightblue" d="M922.99,-56.08C923.79,-48.93 924.93,-38.64 925.92,-29.69"/>
<polygon fill="midnightblue" stroke="midnightblue" points="929.4,-30.08 927.03,-19.75 922.44,-29.3 929.4,-30.08"/>
</g>
<!-- Node28 -->
<g id="node28" class="node">
<title>Node28</title>
<g id="a_node28"><a xlink:title=" ">
<polygon fill="white" stroke="#bfbfbf" points="1045.5,-0.5 1045.5,-19.5 1092.5,-19.5 1092.5,-0.5 1045.5,-0.5"/>
<text text-anchor="middle" x="1069" y="-7.5" font-family="Helvetica,sans-Serif" font-size="10.00">cerrno</text>
</a>
</g>
</g>
<!-- Node26&#45;&gt;Node28 -->
<g id="edge31" class="edge">
<title>Node26&#45;&gt;Node28</title>
<path fill="none" stroke="midnightblue" d="M945.29,-56.44C969.81,-47.44 1008.6,-33.19 1036.2,-23.05"/>
<polygon fill="midnightblue" stroke="midnightblue" points="1037.64,-26.25 1045.82,-19.52 1035.22,-19.68 1037.64,-26.25"/>
</g>
<!-- Node29 -->
<g id="node29" class="node">
<title>Node29</title>
<g id="a_node29"><a xlink:title=" ">
<polygon fill="white" stroke="#bfbfbf" points="825,-0.5 825,-19.5 875,-19.5 875,-0.5 825,-0.5"/>
<text text-anchor="middle" x="850" y="-7.5" font-family="Helvetica,sans-Serif" font-size="10.00">cstring</text>
</a>
</g>
</g>
<!-- Node26&#45;&gt;Node29 -->
<g id="edge32" class="edge">
<title>Node26&#45;&gt;Node29</title>
<path fill="none" stroke="midnightblue" d="M910.43,-56.32C899.58,-48.18 883.12,-35.84 870.12,-26.09"/>
<polygon fill="midnightblue" stroke="midnightblue" points="871.88,-23.03 861.78,-19.83 867.68,-28.63 871.88,-23.03"/>
</g>
<!-- Node30&#45;&gt;Node5 -->
<g id="edge42" class="edge">
<title>Node30&#45;&gt;Node5</title>
<path fill="none" stroke="midnightblue" d="M772.19,-57.03C820.96,-49.27 895.98,-36.54 970.27,-19.99"/>
<polygon fill="midnightblue" stroke="midnightblue" points="971.28,-23.35 980.27,-17.74 969.75,-16.53 971.28,-23.35"/>
</g>
<!-- Node30&#45;&gt;Node15 -->
<g id="edge41" class="edge">
<title>Node30&#45;&gt;Node15</title>
<path fill="none" stroke="midnightblue" d="M677.64,-56.43C637.66,-48.2 575.8,-35.14 513.26,-20.22"/>
<polygon fill="midnightblue" stroke="midnightblue" points="513.76,-16.74 503.22,-17.81 512.13,-23.55 513.76,-16.74"/>
</g>
<!-- Node30&#45;&gt;Node22 -->
<g id="edge40" class="edge">
<title>Node30&#45;&gt;Node22</title>
<path fill="none" stroke="midnightblue" d="M729.96,-56.32C739.13,-48.34 752.94,-36.31 764.03,-26.65"/>
<polygon fill="midnightblue" stroke="midnightblue" points="766.62,-29.04 771.86,-19.83 762.02,-23.76 766.62,-29.04"/>
</g>
<!-- Node30&#45;&gt;Node23 -->
<g id="edge37" class="edge">
<title>Node30&#45;&gt;Node23</title>
<path fill="none" stroke="midnightblue" d="M718.18,-56.08C716.73,-48.93 714.63,-38.64 712.81,-29.69"/>
<polygon fill="midnightblue" stroke="midnightblue" points="716.21,-28.85 710.78,-19.75 709.35,-30.25 716.21,-28.85"/>
</g>
<!-- Node30&#45;&gt;Node29 -->
<g id="edge39" class="edge">
<title>Node30&#45;&gt;Node29</title>
<path fill="none" stroke="midnightblue" d="M740.6,-56.44C761.99,-47.56 795.68,-33.56 820.02,-23.45"/>
<polygon fill="midnightblue" stroke="midnightblue" points="821.61,-26.58 829.5,-19.52 818.92,-20.12 821.61,-26.58"/>
</g>
<!-- Node31 -->
<g id="node31" class="node">
<title>Node31</title>
<g id="a_node31"><a xlink:title=" ">
<polygon fill="white" stroke="#bfbfbf" points="595,-0.5 595,-19.5 661,-19.5 661,-0.5 595,-0.5"/>
<text text-anchor="middle" x="628" y="-7.5" font-family="Helvetica,sans-Serif" font-size="10.00">sys/ioctl.h</text>
</a>
</g>
</g>
<!-- Node30&#45;&gt;Node31 -->
<g id="edge36" class="edge">
<title>Node30&#45;&gt;Node31</title>
<path fill="none" stroke="midnightblue" d="M705.22,-56.32C690.73,-47.82 668.43,-34.73 651.51,-24.8"/>
<polygon fill="midnightblue" stroke="midnightblue" points="653.14,-21.7 642.74,-19.65 649.6,-27.74 653.14,-21.7"/>
</g>
<!-- Node32 -->
<g id="node32" class="node">
<title>Node32</title>
<g id="a_node32"><a xlink:title=" ">
<polygon fill="white" stroke="#bfbfbf" points="521,-0.5 521,-19.5 577,-19.5 577,-0.5 521,-0.5"/>
<text text-anchor="middle" x="549" y="-7.5" font-family="Helvetica,sans-Serif" font-size="10.00">iomanip</text>
</a>
</g>
</g>
<!-- Node30&#45;&gt;Node32 -->
<g id="edge38" class="edge">
<title>Node30&#45;&gt;Node32</title>
<path fill="none" stroke="midnightblue" d="M692.9,-56.44C664.01,-47.32 618.08,-32.81 585.89,-22.65"/>
<polygon fill="midnightblue" stroke="midnightblue" points="586.56,-19.19 575.97,-19.52 584.45,-25.87 586.56,-19.19"/>
</g>
<!-- Node36&#45;&gt;Node2 -->
<g id="edge47" class="edge">
<title>Node36&#45;&gt;Node2</title>
<path fill="none" stroke="midnightblue" d="M1550.46,-59.57C1542.77,-58.34 1534.6,-57.08 1527,-56 1402.11,-38.19 1366.56,-45.72 1239.38,-20"/>
<polygon fill="midnightblue" stroke="midnightblue" points="1239.74,-16.5 1229.25,-17.92 1238.34,-23.36 1239.74,-16.5"/>
</g>
<!-- Node36&#45;&gt;Node7 -->
<g id="edge49" class="edge">
<title>Node36&#45;&gt;Node7</title>
<path fill="none" stroke="midnightblue" d="M1550.06,-59.7C1492.56,-50.41 1375.21,-31.27 1316.94,-20.06"/>
<polygon fill="midnightblue" stroke="midnightblue" points="1317.26,-16.56 1306.77,-18.06 1315.91,-23.43 1317.26,-16.56"/>
</g>
<!-- Node36&#45;&gt;Node9 -->
<g id="edge48" class="edge">
<title>Node36&#45;&gt;Node9</title>
<path fill="none" stroke="midnightblue" d="M1615.83,-61.48C1670.41,-55.36 1783.34,-41.48 1888.47,-19.88"/>
<polygon fill="midnightblue" stroke="midnightblue" points="1889.21,-23.3 1898.29,-17.83 1887.79,-16.45 1889.21,-23.3"/>
</g>
<!-- Node36&#45;&gt;Node24 -->
<g id="edge55" class="edge">
<title>Node36&#45;&gt;Node24</title>
<path fill="none" stroke="midnightblue" d="M1550.2,-56.44C1514.62,-47.16 1457.69,-32.31 1418.65,-22.13"/>
<polygon fill="midnightblue" stroke="midnightblue" points="1419.21,-18.65 1408.65,-19.52 1417.44,-25.43 1419.21,-18.65"/>
</g>
<!-- Node37 -->
<g id="node37" class="node">
<title>Node37</title>
<g id="a_node37"><a xlink:title=" ">
<polygon fill="white" stroke="#bfbfbf" points="1643,-0.5 1643,-19.5 1711,-19.5 1711,-0.5 1643,-0.5"/>
<text text-anchor="middle" x="1677" y="-7.5" font-family="Helvetica,sans-Serif" font-size="10.00">filesystem</text>
</a>
</g>
</g>
<!-- Node36&#45;&gt;Node37 -->
<g id="edge50" class="edge">
<title>Node36&#45;&gt;Node37</title>
<path fill="none" stroke="midnightblue" d="M1598.1,-56.32C1612.9,-47.82 1635.69,-34.73 1652.98,-24.8"/>
<polygon fill="midnightblue" stroke="midnightblue" points="1655.01,-27.67 1661.93,-19.65 1651.52,-21.6 1655.01,-27.67"/>
</g>
<!-- Node38 -->
<g id="node38" class="node">
<title>Node38</title>
<g id="a_node38"><a xlink:title=" ">
<polygon fill="white" stroke="#bfbfbf" points="1729,-0.5 1729,-19.5 1809,-19.5 1809,-0.5 1729,-0.5"/>
<text text-anchor="middle" x="1769" y="-7.5" font-family="Helvetica,sans-Serif" font-size="10.00">SDL_image.h</text>
</a>
</g>
</g>
<!-- Node36&#45;&gt;Node38 -->
<g id="edge51" class="edge">
<title>Node36&#45;&gt;Node38</title>
<path fill="none" stroke="midnightblue" d="M1612.47,-56.44C1644.17,-47.24 1694.73,-32.56 1729.77,-22.39"/>
<polygon fill="midnightblue" stroke="midnightblue" points="1731.04,-25.67 1739.67,-19.52 1729.09,-18.94 1731.04,-25.67"/>
</g>
<!-- Node39 -->
<g id="node39" class="node">
<title>Node39</title>
<g id="a_node39"><a xlink:title=" ">
<polygon fill="white" stroke="#bfbfbf" points="1827.5,-0.5 1827.5,-19.5 1880.5,-19.5 1880.5,-0.5 1827.5,-0.5"/>
<text text-anchor="middle" x="1854" y="-7.5" font-family="Helvetica,sans-Serif" font-size="10.00">imgui.h</text>
</a>
</g>
</g>
<!-- Node36&#45;&gt;Node39 -->
<g id="edge52" class="edge">
<title>Node36&#45;&gt;Node39</title>
<path fill="none" stroke="midnightblue" d="M1615.81,-59.31C1659.48,-51.62 1739.31,-37.09 1817.31,-20.05"/>
<polygon fill="midnightblue" stroke="midnightblue" points="1818.29,-23.42 1827.3,-17.85 1816.78,-16.58 1818.29,-23.42"/>
</g>
<!-- Node40 -->
<g id="node40" class="node">
<title>Node40</title>
<g id="a_node40"><a xlink:title=" ">
<polygon fill="white" stroke="#bfbfbf" points="1445,-0.5 1445,-19.5 1541,-19.5 1541,-0.5 1445,-0.5"/>
<text text-anchor="middle" x="1493" y="-7.5" font-family="Helvetica,sans-Serif" font-size="10.00">imgui_internal.h</text>
</a>
</g>
</g>
<!-- Node36&#45;&gt;Node40 -->
<g id="edge53" class="edge">
<title>Node36&#45;&gt;Node40</title>
<path fill="none" stroke="midnightblue" d="M1568.54,-56.32C1554.5,-47.9 1532.95,-34.97 1516.46,-25.07"/>
<polygon fill="midnightblue" stroke="midnightblue" points="1517.8,-21.8 1507.42,-19.65 1514.2,-27.8 1517.8,-21.8"/>
</g>
<!-- Node41 -->
<g id="node41" class="node">
<title>Node41</title>
<g id="a_node41"><a xlink:title=" ">
<polygon fill="white" stroke="#bfbfbf" points="1559,-0.5 1559,-19.5 1625,-19.5 1625,-0.5 1559,-0.5"/>
<text text-anchor="middle" x="1592" y="-7.5" font-family="Helvetica,sans-Serif" font-size="10.00">libnpy.hpp</text>
</a>
</g>
</g>
<!-- Node36&#45;&gt;Node41 -->
<g id="edge54" class="edge">
<title>Node36&#45;&gt;Node41</title>
<path fill="none" stroke="midnightblue" d="M1584.49,-56.08C1585.68,-48.93 1587.39,-38.64 1588.88,-29.69"/>
<polygon fill="midnightblue" stroke="midnightblue" points="1592.35,-30.19 1590.54,-19.75 1585.45,-29.04 1592.35,-30.19"/>
</g>
<!-- Node42&#45;&gt;Node9 -->
<g id="edge57" class="edge">
<title>Node42&#45;&gt;Node9</title>
<path fill="none" stroke="midnightblue" d="M1922,-56.08C1922,-49.01 1922,-38.86 1922,-29.99"/>
<polygon fill="midnightblue" stroke="midnightblue" points="1925.5,-29.75 1922,-19.75 1918.5,-29.75 1925.5,-29.75"/>
</g>
<!-- Node42&#45;&gt;Node22 -->
<g id="edge58" class="edge">
<title>Node42&#45;&gt;Node22</title>
<path fill="none" stroke="midnightblue" d="M1889.79,-63.89C1719.94,-58 932.07,-30.37 817.32,-19.49"/>
<polygon fill="midnightblue" stroke="midnightblue" points="817.46,-15.98 807.12,-18.3 816.65,-22.93 817.46,-15.98"/>
</g>
<!-- Node43 -->
<g id="node43" class="node">
<title>Node43</title>
<g id="a_node43"><a xlink:title=" ">
<polygon fill="white" stroke="#bfbfbf" points="1964,-0.5 1964,-19.5 2006,-19.5 2006,-0.5 1964,-0.5"/>
<text text-anchor="middle" x="1985" y="-7.5" font-family="Helvetica,sans-Serif" font-size="10.00">array</text>
</a>
</g>
</g>
<!-- Node42&#45;&gt;Node43 -->
<g id="edge59" class="edge">
<title>Node42&#45;&gt;Node43</title>
<path fill="none" stroke="midnightblue" d="M1932.12,-56.32C1941.53,-48.26 1955.74,-36.08 1967.07,-26.37"/>
<polygon fill="midnightblue" stroke="midnightblue" points="1969.38,-29 1974.69,-19.83 1964.82,-23.68 1969.38,-29"/>
</g>
<!-- Node44 -->
<g id="node44" class="node">
<title>Node44</title>
<g id="a_node44"><a xlink:title=" ">
<polygon fill="white" stroke="#bfbfbf" points="2024.5,-0.5 2024.5,-19.5 2077.5,-19.5 2077.5,-0.5 2024.5,-0.5"/>
<text text-anchor="middle" x="2051" y="-7.5" font-family="Helvetica,sans-Serif" font-size="10.00">stdlib.h</text>
</a>
</g>
</g>
<!-- Node42&#45;&gt;Node44 -->
<g id="edge60" class="edge">
<title>Node42&#45;&gt;Node44</title>
<path fill="none" stroke="midnightblue" d="M1942.44,-56.44C1963.67,-47.56 1997.1,-33.56 2021.25,-23.45"/>
<polygon fill="midnightblue" stroke="midnightblue" points="2022.78,-26.61 2030.66,-19.52 2020.08,-20.15 2022.78,-26.61"/>
</g>
</g>
</svg>
